<?xml version="1.0" encoding="utf-8"?>
<!-- Generator: Adobe Illustrator 24.1.2, SVG Export Plug-In . SVG Version: 6.00 Build 0)  -->
<svg version="1.1" id="svg6" xmlns:svg="http://www.w3.org/2000/svg"
	 xmlns="http://www.w3.org/2000/svg" xmlns:xlink="http://www.w3.org/1999/xlink" x="0px" y="0px" viewBox="0 0 566.9 79.1"
	 style="enable-background:new 0 0 566.9 79.1;" xml:space="preserve">
<style type="text/css">
	.st0{fill:#FFFFFF;}
</style>
<g id="logo-group">
	<g id="icon" transform="matrix(1.34 0 0 1.34 -163.38 413.137)">
		<path class="st0" d="M223.9-293.6c2.6-5.4,3.3-10.1,0.8-12.6c-3.3-3.1-9.4-0.8-12.6,0.8c-3.4-1.6-7.2-2.6-11.3-2.6
			c-14.3,0-25.8,11.5-25.8,25.8c0,4.1,1,8,2.7,11.4c-2.6,5.4-3.2,10-0.8,12.6c1.1,1.1,4.5,3.3,12.6-0.8
			C211.2-248.3,234.8-271.4,223.9-293.6z M178.7-260.2c-1.3-1.2-1.1-4.1,0.5-7.9c1.3,2,3,3.9,4.8,5.4c5-1.6,13-6.8,21.3-15.1
			c9.2-9.2,13.6-17,15.1-21.3c-1.6-1.8-3.4-3.4-5.4-4.8c2-0.9,6-2,7.9-0.5c3.2,2.9-2.6,15.5-15.5,28.5
			C197.6-266.2,182.7-256.6,178.7-260.2z"/>
	</g>
	<g id="title">
		<path id="path14" class="st0" d="M73.4,1.1L63.3,51.4C62.2,57,60,61.9,56.6,66.1c-3.3,4.2-7.4,7.4-12.4,9.6
			c-5,2.3-10.5,3.4-16.6,3.4c-5.5,0-10.8-1-15.8-2.9c-5-1.9-8.9-4.3-11.8-7.3l8.7-11.2c2.1,2,4.8,3.6,8,4.7c3.3,1.1,6.5,1.6,9.6,1.6
			c3.3,0,6.3-0.6,9.1-1.8c2.8-1.3,5.2-3,7-5.2c1.9-2.2,3.2-4.6,3.7-7.3l1.1-5.1c-2.7,3-5.8,5.2-9.2,6.9c-3.4,1.6-7.1,2.4-11,2.4
			c-6.2,0-11.2-1.8-14.9-5.5c-3.6-3.7-5.4-8.6-5.4-14.7c0-2,0.2-4.1,0.6-6.3l5.3-26.3h17.6l-5.1,26c-0.2,1-0.3,2.1-0.3,3.1
			c0,2.6,0.8,4.6,2.3,6.1c1.6,1.4,3.8,2.1,6.7,2.1c4,0,7.6-1.3,10.8-3.9c3.3-2.6,5.4-5.9,6.5-9.8l4.7-23.6H73.4z"/>
		<path id="path18" class="st0" d="M160.4,69.6c-5.8,0-10.4-1.6-13.7-4.9c-3.3-3.3-5-7.8-5-13.4c0-2.3,0.2-4.4,0.7-6.5l8.7-43.7H169
			l-7.9,39.5c-0.3,1-0.4,2.2-0.4,3.4c0,2.9,0.9,5.2,2.6,6.9c1.7,1.7,4.1,2.5,7.1,2.5c4.1,0,7.8-1.3,10.9-4c3.2-2.7,5.3-6.2,6.3-10.4
			l7.6-37.9h17.7l-13.5,67.6h-17.7l2-10.1c-3,3.5-6.5,6.3-10.5,8.2C169.3,68.6,165,69.6,160.4,69.6z"/>
		<path id="path20" class="st0" d="M276.8,20.2c0,6.2-1.4,11.6-4.3,16.2c-2.9,4.6-7,8-12.4,10.4l9.5,21.9h-20.1L243.3,50h-13
			l-3.8,18.7h-17.7l13.5-67.6h30.4c7.7,0,13.6,1.7,17.8,5C274.7,9.4,276.8,14.1,276.8,20.2L276.8,20.2z M233.1,35.9h12.7
			c4.3,0,7.7-1.1,10.1-3.4c2.4-2.3,3.7-5.4,3.7-9.4c0-2.6-0.8-4.5-2.5-5.9c-1.6-1.4-4-2.1-7-2.1h-12.8L233.1,35.9z"/>
		<path id="path22" class="st0" d="M317.3,53.6H346l-3,15.1h-46.3l13.5-67.6h17.7L317.3,53.6z"/>
		<path id="path24" class="st0" d="M390.3,0c6.4,0,12.2,1.4,17.2,4.1c5.1,2.7,9,6.5,11.9,11.3c2.8,4.8,4.2,10.3,4.2,16.3
			c0,7-1.8,13.4-5.4,19.3s-8.5,10.5-14.7,13.9c-6.2,3.3-12.9,5-20.3,5c-6.4,0-12.2-1.4-17.3-4.1c-5-2.8-8.9-6.6-11.8-11.4
			c-2.8-4.9-4.1-10.4-4.1-16.5c0-7.1,1.8-13.5,5.4-19.3S364,8.3,370.1,5C376.3,1.7,383,0,390.3,0L390.3,0z M389.1,15
			c-3.6,0-7,1-10.2,2.9c-3.2,1.9-5.8,4.6-7.7,7.9c-1.9,3.3-2.9,7-2.9,10.9c0,3.4,0.7,6.5,2.2,9.3c1.5,2.8,3.5,5,6.1,6.6
			c2.6,1.6,5.4,2.4,8.5,2.4c3.5,0,6.9-1,10-2.9c3.2-2,5.7-4.7,7.5-8c1.9-3.3,2.8-7,2.8-11c0-3.4-0.7-6.5-2.1-9.2
			c-1.4-2.8-3.4-4.9-5.9-6.5C394.9,15.8,392.1,15,389.1,15z"/>
		<path id="path26" class="st0" d="M475,33.6h15.2l-6.9,35.1h-12.9l0.8-4.1c-5.4,3.5-10.8,5.3-16.3,5.3c-6,0-11.4-1.4-16.1-4.1
			c-4.7-2.8-8.4-6.6-11-11.4c-2.6-4.8-3.9-10.3-3.9-16.3c0-7.1,1.8-13.5,5.4-19.3C433,13,437.9,8.4,444.2,5s13.1-5,20.5-5
			c5.1,0,10.1,0.9,15,2.8c4.9,1.8,8.9,4.2,12.2,7.3l-11.3,12.3c-2.1-2.3-4.7-4.1-7.8-5.5c-3-1.4-6.1-2-9.3-2c-3.8,0-7.3,1-10.6,2.9
			c-3.3,1.9-5.9,4.6-7.8,7.9s-2.9,7-2.9,11.1c0,3.4,0.7,6.5,2,9.3c1.4,2.7,3.3,4.9,5.8,6.5c2.5,1.5,5.3,2.3,8.5,2.3
			c2.4,0,4.8-0.5,7.2-1.5c2.4-1,4.6-2.4,6.5-4.2L475,33.6z"/>
		<path id="path28" class="st0" d="M533.6,0c6.4,0,12.2,1.4,17.2,4.1c5.1,2.7,9,6.5,11.9,11.3c2.8,4.8,4.2,10.3,4.2,16.3
			c0,7-1.8,13.4-5.4,19.3c-3.6,5.9-8.5,10.5-14.7,13.9c-6.2,3.3-12.9,5-20.3,5c-6.4,0-12.2-1.4-17.3-4.1c-5-2.8-8.9-6.6-11.8-11.4
			c-2.8-4.9-4.1-10.4-4.1-16.5c0-7.1,1.8-13.5,5.4-19.3c3.6-5.8,8.5-10.3,14.6-13.6C519.5,1.7,526.3,0,533.6,0z M532.4,15
			c-3.6,0-7,1-10.2,2.9c-3.2,1.9-5.8,4.6-7.7,7.9c-1.9,3.3-2.9,7-2.9,10.9c0,3.4,0.7,6.5,2.2,9.3c1.5,2.8,3.5,5,6.1,6.6
			c2.6,1.6,5.4,2.4,8.5,2.4c3.5,0,6.9-1,10-2.9c3.2-2,5.7-4.7,7.5-8c1.9-3.3,2.8-7,2.8-11c0-3.4-0.7-6.5-2.1-9.2
			c-1.4-2.8-3.4-4.9-5.9-6.5C538.1,15.8,535.4,15,532.4,15z"/>
	</g>
</g>
</svg>
