<?xml version="1.0" encoding="UTF-8"?>
<svg width="476px" height="62px" viewBox="0 0 476 62" version="1.1" xmlns="http://www.w3.org/2000/svg" xmlns:xlink="http://www.w3.org/1999/xlink">
    <!-- Generator: Sketch 60 (88103) - https://sketch.com -->
    <title>Logos / TableCheck / Colour / Icon + Name</title>
    <desc>Created with Sketch.</desc>
    <g id="Logos-/-TableCheck-/-Colour-/-Icon-+-Name" stroke="none" stroke-width="1" fill="none" fill-rule="evenodd">
        <path d="M136.784198,17.7551611 C140.371061,17.8540942 143.764039,18.6455589 146.672306,20.9210199 C149.8714,23.394347 151.325534,26.857005 151.519418,30.8143284 C151.810245,36.2556482 151.713303,41.6969679 151.713303,47.1382876 L151.713303,55.7454661 L151.713303,55.7454661 C151.713303,56.734797 151.422476,57.5262617 150.356111,57.8230609 C143.37627,59.7027895 136.396429,60.7910535 129.222704,59.3070572 C125.345014,58.5155925 121.855093,56.8337301 119.819306,52.9753397 C116.038559,45.7532244 119.625422,37.7396445 127.380801,35.5631166 C131.743202,34.2769865 136.105602,34.3759195 140.564945,34.870585 C141.146599,34.7716519 141.825195,34.7716519 142.697675,34.870585 C142.794617,32.595124 142.794617,30.5175292 141.825195,28.6378006 C140.855772,26.6591388 138.916927,25.8676742 136.88114,25.7687411 C133.003451,25.4719418 129.319646,25.9666072 125.926667,27.8463359 C124.763361,28.4399344 124.084765,28.3410013 123.406169,27.1538043 C122.727574,25.8676742 121.855093,24.6804771 121.079556,23.4932801 C120.40096,22.5039492 120.497902,21.9103507 121.564267,21.3167522 C126.217494,18.4476927 131.355433,17.5572949 136.784198,17.7551611 Z M210.10691,2.98305085 C211.720122,2.98305085 212.022599,3.27658429 212.022599,4.84209598 L212.022599,20.9864353 L212.022599,20.9864353 C212.022599,28.9118382 212.022599,36.9350857 212.123425,44.8604886 C212.123425,45.5454 212.22425,46.3281558 212.425902,47.0130672 C213.030856,49.6548682 214.341591,50.7311574 217.164711,50.8290019 C218.172968,50.8290019 219.181226,50.8290019 220.088657,50.7311574 C220.996089,50.7311574 221.500217,51.1225354 221.500217,52.0031357 C221.500217,53.8621808 221.601043,55.6233815 221.399392,57.4824266 C221.399392,57.971649 220.794437,58.7544049 220.391134,58.7544049 L219.573606,58.8300138 C216.705182,59.0878899 213.767322,59.2393732 210.913516,58.167338 C206.073881,56.4061373 203.956541,52.5902026 203.149935,47.991512 C202.881066,46.3390274 202.851192,44.6865429 202.847873,43.0340583 L202.847458,4.84209598 L202.847458,4.84209598 C202.847458,3.27658429 203.049109,2.98305085 204.662321,2.98305085 L210.10691,2.98305085 L210.10691,2.98305085 Z M167.98823,2.98305085 C169.174144,2.98305085 169.569448,3.4729697 169.569448,4.64877495 L169.569448,17.3866651 L169.569448,17.3866651 C169.470622,17.7786002 169.470622,18.2685191 169.470622,18.4644866 C172.237754,18.0725515 174.906059,17.3866651 177.574365,17.2886814 C183.998063,17.0927138 189.235847,19.2483568 192.793588,24.9314155 C194.078327,26.9890747 194.868936,29.3406852 194.868936,31.7902794 C194.967762,35.9055978 195.066589,40.1188999 194.868936,44.2342183 C194.473632,52.5628388 188.346412,58.3438813 179.649713,58.9317839 C173.522493,59.323719 167.592926,58.3438813 161.762185,56.3842059 C160.773923,56.0902546 160.576271,55.4043682 160.576271,54.5225142 L160.576271,5.33466134 C160.576271,3.14731776 160.669369,2.99067934 162.662769,2.98335748 L167.98823,2.98305085 L167.98823,2.98305085 Z M304.621625,6.74696047 C305.988427,7.62727707 306.086056,7.92071593 305.109769,9.38791025 C304.133482,10.8551046 303.157194,12.2244859 302.180907,13.6916803 C301.595135,14.5719969 300.911734,14.7676228 300.033075,14.180745 C297.201842,12.3222989 293.980094,11.2463564 290.563088,10.9529175 C286.755568,10.6594787 283.143305,11.1485434 280.116814,13.8873062 C277.968982,15.8435653 277.090324,18.3867021 277.090324,21.2232778 C276.992695,27.3854939 276.992695,33.645523 277.090324,39.8077392 C277.187953,45.7743294 281.19073,49.7846606 287.243712,50.1759124 C292.222777,50.4693513 296.908956,49.3934088 301.106991,46.654646 C302.571422,45.6765165 302.669051,45.6765165 303.645338,47.2415238 C304.621625,48.7087181 305.695541,50.1759124 306.671829,51.6431067 C307.159972,52.3277974 307.257601,53.0124881 306.476571,53.5993658 C299.056788,59.761582 284.705365,60.8375245 276.406923,55.9468767 C270.744457,52.6212363 268.20611,47.4371497 267.815595,40.9814946 C267.620337,37.5580412 267.815595,34.0367749 267.815595,30.6133214 C267.913223,30.4176955 267.717966,22.2014073 268.108481,18.1910762 C268.791882,10.8551046 273.868576,5.08414024 280.995473,3.12788115 C289.391544,0.780370233 297.201842,2.1497516 304.621625,6.74696047 Z M250.60454,18.4972732 C255.960127,21.073429 258.491859,25.4330774 258.783982,31.2789695 C258.97873,34.1523741 258.783982,37.1248616 258.881356,39.9982662 C258.881356,41.385427 258.394484,41.7817587 257.128619,41.7817587 L236.193144,41.7817587 L236.193144,41.7817587 C235.803647,41.5835928 235.219401,41.5835928 234.635155,41.5835928 C234.148283,46.9340703 236.193144,50.2038066 240.574987,50.6992212 C242.814596,50.897387 245.151579,50.7983041 247.293814,50.3028895 C249.338674,49.8074749 251.188786,48.7175628 253.038898,47.6276508 C254.110015,47.0331533 254.694261,47.0331533 255.375881,48.1230653 C256.25225,49.4111433 257.128619,50.6001383 258.004987,51.7891333 C258.491859,52.4827137 258.491859,53.0772112 257.712864,53.6717087 C250.60454,59.0221862 242.814596,60.50843 234.537781,57.4368595 C229.182194,55.4552012 225.968842,51.2937187 225.676719,45.3487437 C225.384596,40.3945978 225.384596,35.440452 225.676719,30.5853891 C226.260965,23.3523361 230.837557,18.4972732 237.848507,17.2091953 C242.23035,16.4165319 246.51482,16.5156149 250.60454,18.4972732 Z M380.242925,18.4432854 C385.600175,20.9151466 388.132694,25.3644968 388.522312,31.1980893 C388.717121,34.0654483 388.619717,37.0316818 388.619717,39.8990408 C388.619717,41.481032 388.424908,41.6787809 386.76903,41.6787809 L364.463387,41.6787809 L364.463387,41.6787809 C363.684151,47.8089968 367.09331,51.3684769 372.937584,50.9729791 C376.541552,50.7752302 379.755902,49.7864857 382.678039,47.7101223 C383.749489,47.0180012 384.431321,47.1168756 385.113153,48.2044946 C385.892389,49.3909879 386.866435,50.5774813 387.743076,51.7639747 C388.230098,52.4560959 388.327503,53.0493426 387.548267,53.6425893 C380.34033,59.080684 372.450561,60.5638007 363.976365,57.3009439 C358.716519,55.2245804 355.696978,51.0718536 355.404764,45.3371355 C355.209955,40.4922875 355.11255,35.5485651 355.404764,30.7037171 C355.989191,23.4858823 360.469801,18.6410343 367.482929,17.256792 C371.866133,16.3669219 376.151934,16.5646708 380.242925,18.4432854 Z M425.833011,20.0960606 C427.301958,20.9898487 427.301958,21.2877781 426.42059,22.6781151 C425.833011,23.6712129 425.147502,24.565001 424.559923,25.5580989 C423.286836,27.6436044 423.286836,27.5442946 421.13238,26.5511967 C418.684135,25.3594793 416.13796,24.7636206 413.395926,24.8629304 C408.303576,25.06155 405.757401,27.7429142 405.659471,32.8077133 C405.659471,36.2835558 405.561541,39.8587081 405.659471,43.3345506 C405.757401,47.9028008 408.303576,50.4848552 412.710417,50.7827846 C416.23589,51.0807139 419.369644,50.1869258 422.307538,48.3000399 C423.482696,47.5055616 424.266134,47.7041812 424.951643,48.8958986 C425.735081,50.1869258 426.714379,51.4779531 427.595747,52.7689803 C428.183326,53.5634586 428.085396,54.1593173 427.204028,54.755176 C420.251012,59.4227359 412.808347,60.316524 405.071892,57.1386109 C399.489893,54.8544858 396.943718,50.1869258 396.551999,44.2283387 C396.454069,42.0435234 396.551999,39.7593983 396.551999,37.574583 L396.551227,37.4028343 C396.543234,36.2130581 396.486712,31.4504795 397.041648,28.6367023 C398.314735,22.2808759 402.623647,18.6064139 408.695295,17.3153866 C414.669013,16.0243594 420.446872,16.9181475 425.833011,20.0960606 Z M320.125424,2.98305085 C321.698305,2.98305085 321.99322,3.27639462 321.99322,4.84089472 L321.99322,16.8679893 L321.99322,16.8679893 C322.091525,17.1613331 322.091525,17.6502393 322.091525,18.3347081 C325.532203,17.2591143 328.874576,16.9657705 332.315254,17.1613331 C340.769492,17.6502393 346.569492,23.0282084 347.061017,31.4373965 C347.454237,38.7709908 347.257627,46.104585 347.355932,53.4381792 L347.355932,56.4693982 L347.355932,56.4693982 C347.355932,57.4472108 346.962712,57.936117 345.881356,57.936117 C343.915254,57.8383358 342.047458,57.8383358 340.081356,57.936117 C338.705085,57.936117 338.311864,57.3494295 338.311864,56.1760544 L338.311864,35.1530843 L338.311864,35.1530843 C338.311864,33.9797092 338.213559,32.7085528 338.016949,31.5351778 C337.427119,27.81949 335.461017,25.8638649 331.725424,25.3749586 C328.874576,24.9838336 326.122034,25.2771773 323.271186,26.0594274 C322.288136,26.3527712 321.99322,26.8416775 321.99322,27.9172713 L321.99322,55.7849294 L321.99322,55.7849294 C321.99322,57.8709295 321.900783,58.0260866 319.923181,58.0335745 L315.122384,58.0335419 C313.069888,58.0274831 312.95586,57.9184255 312.949525,55.9553873 L312.949153,4.93867598 C312.949153,3.23728211 313.132874,2.99782668 314.743497,2.98375342 L320.125424,2.98305085 L320.125424,2.98305085 Z M440.963509,2.98305085 C442.581887,2.98305085 442.821525,3.25651282 442.836127,4.77155499 L442.836883,31.5351778 L442.836883,31.5351778 C442.738285,31.9263028 442.738285,32.4152091 442.738285,33.2952404 C446.780829,28.8950838 450.724775,24.8860523 454.372925,20.6814583 C456.049102,18.7258332 457.429483,18.2369269 460.387442,18.1391456 C461.767823,18.0413644 463.838394,18.0413644 465.514571,18.0413644 C467.289347,18.1391456 466.500558,19.3125207 466.204762,19.7036457 C461.866422,24.2993648 457.528081,28.8950838 453.189741,33.3930216 C452.696748,33.8819279 452.203754,34.4686155 451.612163,35.055303 L456.344897,41.2155222 L456.344897,41.2155222 C460.091646,46.104585 463.936993,50.8958666 467.683741,55.7849294 C468.373932,56.6649607 468.866925,57.7405545 466.697755,57.8383358 L459.79585,57.8383358 L459.79585,57.8383358 C458.711265,57.8383358 458.021074,57.4472108 457.330884,56.6649607 C453.781333,51.9714604 450.133183,47.2779601 446.485033,42.5844598 C446.189237,42.1933347 445.893441,41.8022097 445.499047,41.4110847 C444.710258,42.1933347 443.921468,42.8778035 443.231278,43.7578348 C442.935482,44.0511786 442.836883,44.6378662 442.836883,45.1267724 L442.836883,56.0782732 C442.836883,57.7405545 442.639686,57.936117 440.963509,58.0338983 L435.737781,58.0338983 C434.022165,58.0338983 433.872842,57.9425272 433.864794,56.2582523 L433.864407,5.13423849 C433.864407,3.14305654 433.95712,2.99077278 435.850723,2.98337191 L440.963509,2.98305085 L440.963509,2.98305085 Z M121.254237,5.23201975 L121.254237,9.6321763 L121.254237,9.6321763 C121.254237,11.3335702 121.06883,11.5730256 119.443431,11.5870989 L104.289846,11.5878014 L104.289846,11.5878014 L104.289438,56.0569464 C104.282906,57.917607 104.171859,58.0270576 102.284069,58.0334959 L96.3532888,58.0338983 L96.3532888,58.0338983 C95.3612191,58.0338983 94.8651843,57.6427733 94.9643912,56.6649607 L94.9643912,11.5878014 L94.9643912,11.5878014 L79.5873115,11.5878014 L79.5873115,11.5878014 C78.5952418,11.5878014 78,11.1966764 78,10.1210826 L78,4.35198844 L78,4.35198844 C78,3.37417587 78.4960348,2.98305085 79.4881045,2.98305085 L118.972477,2.98305085 C121.15503,2.98305085 121.254237,3.0808321 121.254237,5.23201975 Z M130.482953,42.1916333 C128.447166,42.8841649 127.380801,44.3681612 127.283859,46.3468229 C127.186917,48.5233508 128.059397,50.0073471 130.095184,50.8977449 C134.2637,52.6785404 138.432216,51.7881427 142.600732,50.996678 C142.697675,48.0286854 142.697675,45.1596259 142.697675,42.1916333 C141.63131,42.0927002 140.75883,41.8948341 139.88635,41.795901 C136.784198,41.5980348 133.585104,41.2023025 130.482953,42.1916333 Z M170.261231,26.8910909 C169.865927,27.0870584 169.470622,27.8709286 169.470622,28.3608475 L169.470622,48.643488 L169.470622,48.643488 C169.470622,49.7213095 169.767101,50.2112283 170.755362,50.3092121 C173.423667,50.5051796 176.091973,50.9950985 178.661452,50.8971147 C182.910975,50.6031634 185.183976,48.4475205 185.579281,44.2342183 C185.875759,40.1188999 185.875759,35.807614 185.579281,31.6922957 C185.381628,28.8507663 183.80041,26.5971396 180.835627,25.8132694 C177.17906,24.7354479 173.62132,25.127383 170.261231,26.8910909 Z M367.385524,26.056618 C364.268578,28.0341069 364.365983,31.2969638 364.365983,34.5598206 L379.950711,34.5598206 L379.950711,34.5598206 C380.535139,30.6048426 379.463689,27.4408602 376.93117,25.9577435 C373.814225,24.1780034 370.50247,24.079129 367.385524,26.056618 Z M237.264261,26.1266578 C234.537781,28.1083161 234.635155,31.2789695 234.635155,34.4496228 L250.312417,34.4496228 L250.312417,34.4496228 C250.507166,30.8826378 250.312417,27.4147357 246.904317,25.6312432 C243.690965,23.9468336 240.282864,23.9468336 237.264261,26.1266578 Z" id="Combined-Shape" fill="#575757"></path>
        <g id="Logos-/-TableCheck-/-Colour-/-Icon" fill="#9464E3">
            <path d="M10.3629893,32 C10.6619217,36.3843416 12.455516,40.7686833 15.8434164,44.1565836 C19.2313167,47.544484 23.5160142,49.4377224 28,49.6370107 L28,49.6370107 L17.6370107,60 C13.7508897,58.5053381 10.0640569,56.113879 6.97508897,53.024911 C3.886121,49.8362989 1.49466192,46.2491103 0,42.3629893 L0,42.3629893 Z M47.6370107,32 L58,42.3629893 C56.5053381,46.2491103 54.113879,49.8362989 51.024911,53.024911 C47.9359431,56.113879 44.2491103,58.5053381 40.3629893,60 L30,49.6370107 C34.4839858,49.4377224 38.7686833,47.544484 42.1565836,44.1565836 C45.544484,40.7686833 47.3380783,36.3843416 47.6370107,32 Z M40.3629893,2 C44.2491103,3.49466192 47.8362989,5.886121 51.024911,8.97508897 C54.113879,12.0640569 56.5053381,15.7508897 58,19.6370107 L47.6370107,30 C47.4377224,25.5160142 45.544484,21.2313167 42.1565836,17.8434164 C38.7686833,14.455516 34.3843416,12.6619217 30,12.3629893 L40.3629893,2 Z M17.6370107,2 L28,12.3629893 C23.6156584,12.6619217 19.2313167,14.455516 15.8434164,17.8434164 C12.455516,21.2313167 10.5622776,25.5160142 10.3629893,30 L10.3629893,30 L0,19.6370107 C1.49466192,15.7508897 3.886121,12.0640569 6.97508897,8.97508897 C10.1637011,5.886121 13.7508897,3.49466192 17.6370107,2 L17.6370107,2 Z" id="Combined-Shape"></path>
        </g>
    </g>
</svg>