<?xml version="1.0" encoding="UTF-8"?>
<svg width="552px" height="62px" viewBox="0 0 552 62" version="1.1" xmlns="http://www.w3.org/2000/svg" xmlns:xlink="http://www.w3.org/1999/xlink">
    <!-- Generator: Sketch 60 (88103) - https://sketch.com -->
    <title>Logos / TableSolution / Colour / Icon + Name</title>
    <desc>Created with Sketch.</desc>
    <g id="Logos-/-TableSolution-/-Colour-/-Icon-+-Name" stroke="none" stroke-width="1" fill="none" fill-rule="evenodd">
        <path d="M287.416833,2 L287.502256,2.44201542 L287.502256,2.44201542 C294.23579,2.28507511 300.135951,4.67394498 305.621908,8.34813609 C306.551631,8.97192415 306.605269,9.64835674 305.966581,10.5254345 C304.943489,11.9309442 303.926357,13.3453936 302.990675,14.8095076 C302.244712,15.9746404 301.444118,16.1365472 300.287925,15.3876042 C296.960393,13.2321582 293.307061,11.8822729 289.380573,11.394566 C286.052048,10.9813561 282.751335,11.1402829 279.698946,12.7722635 C277.567339,13.9105774 276.341615,15.6408939 276.377373,18.1410126 C276.413132,20.58948 277.643822,22.4240924 279.805228,23.2356128 C283.038397,24.4504103 286.42652,25.246038 289.728226,26.2840293 C292.925636,27.2882486 296.218403,28.1027489 299.2549,29.4764733 C305.176913,32.1543914 308.167719,36.951997 308.016738,43.4809124 C307.861784,50.1598151 304.696159,55.1014482 298.496024,57.5836876 C288.089292,61.7505521 278.166294,60.5119156 268.998199,53.9939264 C265.681594,51.6358486 265.812708,51.9020512 268.195618,48.6549761 C268.871058,47.7341934 269.539544,46.8054644 270.161345,45.8509097 C270.845724,44.7970258 271.554936,44.726502 272.584981,45.4615388 C275.965157,47.8742477 279.577764,49.834015 283.70589,50.6455354 C287.379088,51.3666662 290.974809,51.1233094 294.352998,49.4158386 C296.921654,48.1176045 298.436426,46.099233 298.336104,43.0498232 C298.240748,40.1672867 296.663398,38.284003 294.149373,37.412885 C290.732445,36.2288796 287.194335,35.379614 283.69099,34.4538649 C279.947269,33.4655383 276.29493,32.2606738 273.111426,29.9880192 C268.279055,26.5383123 266.325247,21.7258073 267.006647,15.9368952 C267.724797,9.83012937 271.498318,6.0069443 277.120357,4.16935209 C280.433982,3.08566934 283.977059,2.69927833 287.416833,2 Z M142.033491,18.8859824 C147.630697,20.4573721 151.115169,25.5589253 151.188673,31.7451547 C151.284029,39.7461304 151.25423,47.7480995 151.189666,55.748082 C151.1847,56.3837896 150.606603,57.4416467 150.095057,57.5836876 C142.54901,59.6845025 134.906613,60.9509512 127.138068,58.9137071 C122.63845,57.7326816 119.130139,55.2424958 117.902429,50.4448902 C115.965507,42.8849366 120.115486,36.6788414 127.997266,35.1153981 C132.433313,34.2353404 136.851481,34.3366563 141.288521,35.010109 C141.551744,35.0498407 141.826886,35.0160688 142.38909,35.0160688 C142.235129,33.3572693 142.227183,31.8246181 141.924229,30.3545443 C141.421622,27.9179964 139.552245,26.2939622 137.067025,25.9721353 C132.928966,25.435757 128.932948,25.9522694 125.214059,27.9080635 C123.95357,28.5715833 123.175822,28.4881466 122.464624,27.1819662 C121.767332,25.8996249 120.925019,24.6888006 120.072774,23.4988355 C119.418194,22.5859991 119.524476,22.0436611 120.519756,21.436759 C124.325062,19.1203996 128.497886,17.9234814 132.879302,17.8718302 C135.934671,17.834085 139.110229,18.064529 142.033491,18.8859824 Z M341.686394,19.7461742 C346.787947,22.2741051 349.550295,26.4509025 349.92874,32.1196262 C350.078727,34.3426161 349.954565,36.5814987 349.954565,38.8144215 L349.807558,38.8144215 L349.807558,38.8144215 C349.807558,41.6413336 350.17607,44.5278433 349.733061,47.2852249 C348.738775,53.4684744 344.839106,57.2499411 338.888287,58.9941638 C334.715463,60.2169076 330.498934,60.2496863 326.331076,59.1461376 C319.695878,57.3919821 315.395912,53.1933322 314.808876,46.2402806 C314.379774,41.1724993 314.350968,35.97261 314.973763,30.9346275 C315.854814,23.8097362 320.701091,19.3597832 327.834922,18.1588919 C332.587829,17.3582976 337.278159,17.5619227 341.686394,19.7461742 Z M495.506767,19.6984961 C500.687784,22.2274203 503.482911,26.4290501 503.859369,32.1643243 C504.005383,34.386321 503.883208,36.6261969 503.883208,38.8581264 L503.723288,38.8581264 L503.723288,38.8581264 C503.723288,41.6860318 504.094779,44.5725415 503.648791,47.3279365 C502.644571,53.5141659 498.724043,57.2747735 492.772231,59.00509 C488.597421,60.2179009 484.385858,60.2427332 480.21502,59.1332248 C473.571876,57.3651631 469.307669,53.1387011 468.725599,46.197569 C468.299476,41.1287944 468.28855,35.9298984 468.907372,30.8899293 C469.777496,23.8077496 474.686351,19.3210448 481.806276,18.1509455 C486.504552,17.3781635 491.135284,17.5649026 495.506767,19.6984961 Z M367.240845,5.22919581 C367.20608,12.0332534 367.223959,18.8363178 367.223959,25.6403754 L367.229919,25.6403754 C367.229919,32.0640017 367.221972,38.4856415 367.241838,44.9082746 C367.243825,45.7178085 367.329248,46.5382685 367.485195,47.3319097 C368.120902,50.5690519 369.792615,51.8444402 373.095314,51.667634 C376.203011,51.5011835 376.401375,51.490559 376.414036,54.2412211 L376.414506,57.0364458 C376.408158,59.5614287 376.286576,59.6446762 373.6009,59.8414428 C368.495374,60.2169076 363.800078,59.3964475 360.680144,54.7289633 C358.731303,51.8156347 358.196911,48.4722102 358.179032,45.0860741 C358.111488,31.8057455 358.15122,18.525417 358.130353,5.24409521 C358.128374,3.98261299 358.510792,3.31214016 359.917295,3.37372433 C361.763827,3.45318778 363.620292,3.45418107 365.466823,3.37372433 C366.86538,3.31214016 367.247798,3.94188798 367.240845,5.22919581 Z M212.332815,5.22919581 C212.29805,12.0332534 212.316923,18.8363178 212.316923,25.6403754 L212.322882,25.6403754 C212.322882,32.0630084 212.313943,38.4846482 212.333809,44.9082746 C212.335795,45.7168152 212.421218,46.5372752 212.577165,47.3309164 C213.212873,50.5690519 214.884585,51.8434469 218.187285,51.667634 C221.294982,51.5011835 221.493346,51.490559 221.506007,54.2404061 L221.506605,57.0363171 C221.501032,59.5605278 221.378594,59.6446762 218.693864,59.8414428 C213.587345,60.2169076 208.893041,59.3964475 205.772115,54.7299566 C203.824267,51.8156347 203.287889,48.4722102 203.271003,45.0870673 C203.203459,31.8067388 203.244184,18.525417 203.223317,5.2450885 C203.221338,3.98360629 203.602762,3.31214016 205.008272,3.37372433 C206.855797,3.45318778 208.711269,3.45418107 210.558794,3.37372433 C211.957351,3.31214016 212.339768,3.94188798 212.332815,5.22919581 Z M390.562373,20.6590106 C390.507742,27.4670414 390.524628,34.2740788 390.54946,41.0821096 C390.554427,42.4399413 390.623957,43.8057193 390.794804,45.1506381 C391.295423,49.1108976 393.788589,51.5335395 397.839238,51.7232584 C400.103946,51.8285475 402.390507,51.5136736 404.666142,51.3607065 C406.027946,51.2693235 406.512673,50.6216964 406.500754,49.1526159 C406.42129,39.731231 406.459036,30.3088529 406.461022,20.887468 L406.461498,20.5293406 C406.468938,18.7337611 406.59278,18.7316714 408.65322,18.7260622 C410.232556,18.722089 411.811892,18.7191092 413.391228,18.7270555 C415.349009,18.7369884 415.48807,18.8690964 415.494029,20.8954143 C415.506942,24.9261976 415.498003,28.956981 415.498003,32.986771 L415.498003,37.8886724 L415.498003,37.8886724 C415.498003,43.3895295 415.458271,48.8903866 415.524822,54.3902504 C415.542701,55.8613174 415.061947,56.6827708 413.652464,57.1923301 C406.8345,59.6606635 399.918201,60.8754609 392.740665,59.0239626 C386.703429,57.4654857 382.798794,53.1138687 381.969395,46.9316126 C381.688293,44.8397374 381.624722,42.7061438 381.610816,40.5914229 C381.567111,33.9462921 381.635648,27.3021547 381.563138,20.6580173 C381.546252,19.135299 382.040912,18.6158067 383.530851,18.7022232 C385.214483,18.8015525 386.913014,18.8144653 388.592673,18.7002366 C390.117378,18.5949475 390.573299,19.1849636 390.562373,20.6590106 Z M250.837822,19.267407 C256.635673,21.7595793 259.347364,26.4280568 259.667204,32.5676013 C259.809245,35.2822713 259.654291,38.0108474 259.730775,40.7294906 C259.770506,42.1379802 259.262934,42.6534993 257.835572,42.6435664 C250.815969,42.5939017 243.79438,42.6217139 236.773785,42.6217139 L235.050421,42.6217139 L235.050421,42.6217139 C234.185263,48.7751646 237.567426,52.2904288 243.694058,51.9586689 C247.25998,51.76597 250.523941,50.7935361 253.460115,48.7850975 C254.559691,48.0321813 255.344392,47.9676173 256.127107,49.2350593 C256.866117,50.4309841 257.911062,51.4431498 258.60438,52.6599338 C258.874556,53.1347279 258.815952,54.2641021 258.460353,54.5610968 C251.524187,60.3589485 239.93345,61.8071698 232.372503,57.1098868 C228.351653,54.6117547 226.096878,50.8988252 225.918085,46.2224013 C225.724393,41.1774658 225.607184,36.0838588 226.091911,31.0726952 C226.77331,24.0401802 231.577869,19.3587899 238.520988,18.1519388 C242.724604,17.4208751 246.884515,17.5678825 250.837822,19.267407 Z M169.618233,5.22720923 C169.548702,9.47155057 169.592407,13.7168852 169.597374,17.9612265 C169.597374,18.3853627 169.639092,18.8094988 169.642072,18.8750562 C172.946758,18.5115109 176.199793,17.8430247 179.449848,17.8559375 C188.148115,17.891696 194.910455,24.7493915 194.989918,33.4387194 C195.030643,37.78239 195.139905,42.1638058 194.665111,46.4657581 C193.858557,53.7734154 188.514641,58.6892228 181.074875,59.621925 C174.516161,60.4433784 168.225636,59.2176547 162.010601,57.2837131 C161.061013,56.9887051 160.639857,56.4553067 160.641836,55.3974495 C160.668662,38.5809977 160.668662,21.7635525 160.644823,4.94809387 C160.642837,3.70349764 161.177228,3.34193895 162.327462,3.3786908 C164.121349,3.43431521 165.923183,3.46610059 167.71409,3.36975116 C169.130526,3.29326759 169.641079,3.78792755 169.618233,5.22720923 Z M433.225304,10.9604969 C433.316687,13.0245599 433.461708,15.0856431 433.611695,17.1457329 C433.65838,17.7824338 433.795455,18.4121816 433.910677,19.1809905 C436.440594,19.1809905 438.882108,19.2306551 441.320643,19.1621179 C442.801643,19.1213929 443.412518,19.7193553 443.338021,21.1874425 C443.275444,22.4360119 443.334048,23.690541 443.323122,24.9420903 C443.305243,26.8978844 443.178101,27.022046 441.137877,27.0309857 C438.805625,27.0409186 436.473373,27.0329723 433.928556,27.0329723 C433.928556,33.5658609 433.788501,39.8772451 433.9812,46.1786964 C434.095429,49.8707668 436.934261,51.9209238 440.862735,51.6626676 C444.403825,51.4312303 444.403825,51.4312303 444.403825,54.9673536 L444.407651,55.8391707 C444.407356,55.9843754 444.405811,56.1295065 444.401838,56.2745273 C444.302509,59.6328513 445.252097,59.7838318 440.817043,59.845416 C438.356656,59.8801812 435.797933,59.6169586 433.440849,58.9375461 C428.267779,57.4495931 425.717995,53.5767433 425.11308,48.4046662 C424.829991,45.9830177 424.829991,43.5196509 424.822045,41.0751566 C424.792246,31.1154068 424.808139,21.1556571 424.811119,11.1959074 C424.812112,8.97788391 424.864756,8.93219243 427.119532,8.92523937 C428.425712,8.9212662 429.741825,9.02357539 431.036086,8.89941375 C432.648201,8.74545333 433.159747,9.5241951 433.225304,10.9604969 Z M452.737554,18.7042098 C454.586072,18.7936062 456.441544,18.7697671 458.291055,18.7101695 C459.474067,18.6734177 459.970714,19.1303325 459.968733,20.3212909 C459.952835,32.5745544 459.953828,44.8278179 459.966741,57.0810813 C459.968733,58.4279867 459.482014,59.0706474 458.024853,58.9852242 C456.287583,58.8839083 454.538394,58.9047674 452.799138,58.9782711 C451.375749,59.0398553 450.877116,58.4597721 450.887049,57.056249 C450.93274,50.9574295 450.906914,44.8576166 450.906914,38.7578038 C450.906914,32.7126221 450.939693,26.6674404 450.882082,20.623252 C450.868176,19.2266819 451.281386,18.633686 452.737554,18.7042098 Z M120.975677,5.45467334 C120.900187,6.97540505 120.900187,8.5050764 120.975677,10.0258081 C121.050174,11.5236941 120.443272,11.9935217 118.957306,11.9686894 C114.116989,11.8892259 109.273692,11.9398839 104.156246,11.9398839 L104.156246,13.8698523 C104.156246,28.1325477 104.157239,42.3932565 104.155252,56.6549586 C104.155252,58.9564187 104.151279,58.9584052 101.90743,58.9613851 C100.056925,58.9633717 98.2044335,58.9226467 96.355915,58.9742979 C95.2861384,59.0060833 94.8719352,58.4995038 94.8530626,57.5201169 C94.844123,56.9757923 94.8421364,56.4314676 94.8421364,55.8861497 L94.8412672,35.0656093 L94.8412672,35.0656093 L94.8411431,11.9398839 L94.8411431,11.9398839 C89.767402,11.9398839 84.9856891,11.9418705 80.2029829,11.9388906 L79.8379185,11.9380625 C78.0075646,11.9287721 78.0055849,11.8042702 78.0018455,9.77748484 C77.9988656,8.41667332 77.9999648,7.05586179 78.0018455,5.69505027 C78.0048253,3.39855666 78.0058186,3.3935902 80.2347683,3.3925969 C87.5285194,3.39061032 94.8222705,3.39160361 102.116022,3.39160361 C107.723161,3.39160361 113.331294,3.44921461 118.936447,3.35683835 C120.574387,3.33101273 121.050174,3.95380749 120.975677,5.45467334 Z M538.093215,19.586254 C543.203708,21.6393908 545.813089,25.9423365 546.262057,31.2445349 C546.707052,36.4901157 546.567991,41.7863544 546.640502,47.0597474 C546.686193,50.3266884 546.654408,53.5936293 546.647455,56.8605703 C546.643482,58.8382168 546.51634,58.9564187 544.485056,58.9613851 C542.906713,58.964365 541.327377,58.9653583 539.749034,58.9603918 C537.822046,58.9544321 537.589615,58.7448472 537.585642,56.8099123 C537.574716,49.8399747 537.600541,42.8710305 537.565776,35.9010929 C537.558823,34.4965765 537.47936,33.0662345 537.203224,31.69549 C536.523812,28.3024008 534.576957,26.2760829 531.164002,26.0565652 C527.906001,25.8469803 524.612241,26.2095323 521.241004,26.3227677 L521.241004,34.952498 C521.241004,42.249229 521.243984,49.5449667 521.238025,56.8407044 C521.236038,58.9057607 521.17644,58.9554254 519.138203,58.9603918 C517.394974,58.9653583 515.652738,58.930593 513.910501,58.9713181 C512.847678,58.9971437 512.295407,58.6584307 512.297388,57.4883315 C512.317259,45.7823725 512.297388,34.0764135 512.346065,22.3704545 C512.348051,21.8320897 512.771194,20.9738845 513.205263,20.8070112 C521.358213,17.6791313 529.677043,16.207071 538.093215,19.586254 Z M131.304932,42.0316978 C128.57139,42.191618 126.848026,43.977559 126.646388,46.2114751 C126.418923,48.7294731 127.550284,50.5124342 130.162645,51.3537534 C134.225214,52.6619204 138.246064,51.9805213 142.255988,51.0527856 L142.255988,41.9800466 L142.255988,41.9800466 C138.524186,41.9800466 134.903633,41.822113 131.304932,42.0316978 Z M170.520143,27.3389065 C170.076141,27.5723304 169.638099,28.3024008 169.634126,28.8069937 C169.576515,36.0401539 169.595387,43.2723209 169.595387,50.647522 C172.64579,51.8583463 175.749831,52.0331659 178.834006,51.6954462 C183.000871,51.2385314 185.319217,49.2132068 185.679782,45.1347454 C186.05624,40.8725248 185.992669,36.5387871 185.714547,32.2636536 C185.510922,29.1596128 183.668364,26.9286765 180.462014,26.1847 C177.021246,25.3860923 173.666896,25.6751406 170.520143,27.3389065 Z M484.08191,26.0426591 C480.016362,26.5234129 477.768539,29.2301366 477.691062,33.3383968 C477.655304,35.1859219 477.684109,37.0344403 477.684109,38.8829588 L477.697022,38.8829588 L477.697022,38.8829588 C477.697022,40.9480151 477.638418,43.015058 477.710928,45.0781277 C477.817211,48.0738996 479.376681,50.3733731 482.264184,51.1074167 C484.25971,51.6159828 486.472767,51.8484134 488.493125,51.5543986 C492.719587,50.9385569 494.515461,49.0294476 494.761797,44.7751733 C495.005154,40.5596375 494.921718,36.3063565 494.674388,32.0878408 C494.499568,29.1000152 492.627211,27.0349589 489.720835,26.3545531 C487.909068,25.930417 485.930429,25.8241346 484.08191,26.0426591 Z M329.992354,26.076431 C325.899987,26.6614807 323.826984,29.302647 323.758447,33.50527 C323.727655,35.298164 323.75348,37.0930446 323.75348,38.8869319 L323.760433,38.8869319 C323.760433,40.7890882 323.760433,42.6912444 323.761427,44.594394 C323.761427,44.757294 323.76242,44.9201941 323.770366,45.0830942 C323.932273,48.0758862 325.452012,50.3753597 328.340508,51.1094033 C330.336034,51.6159828 332.549091,51.8474201 334.569449,51.552412 C338.794918,50.9365703 340.588805,49.0284543 340.835142,44.7721934 C341.078498,40.5556643 340.995062,36.3023833 340.746738,32.0838676 C340.570926,29.096042 338.699561,27.0210528 335.789213,26.3565397 C333.925795,25.930417 331.879611,25.8072486 329.992354,26.076431 Z M238.006462,26.9654283 C234.787199,28.9182425 234.821964,32.2169689 234.893481,35.5733062 L250.820936,35.5733062 L250.820936,35.5733062 C251.103031,32.1583646 250.889473,28.9271822 247.734774,26.9882741 C244.594975,25.0592989 241.172087,25.0434062 238.006462,26.9654283 Z M455.531687,3.08169305 C458.463888,3.08566934 460.526958,5.19045738 460.494179,8.14451101 C460.461401,11.089625 458.365552,13.2093124 455.488975,13.2063357 C452.604452,13.204346 450.313919,10.8879865 450.351664,8.01438962 C450.388415,5.21330312 452.631271,3.07871629 455.531687,3.08169305 Z" id="Combined-Shape" fill="#575757"></path>
        <g id="Group" transform="translate(0.000000, 1.000000)" fill-rule="nonzero">
            <path d="M0,41.3 C1.5,45.2 3.9,48.8 7,52 C10.1,55.1 13.8,57.5 17.7,59 L28.1,48.6 C23.6,48.4 19.3,46.5 15.9,43.1 C12.5,39.7 10.7,35.3 10.4,30.9 L0,41.3" id="Fill-41" fill="#C8272B"></path>
            <path d="M58.3,41.3 C56.8,45.2 54.4,48.8 51.3,52 C48.2,55.1 44.5,57.5 40.6,59 L30.2,48.6 C34.7,48.4 39,46.5 42.4,43.1 C45.8,39.7 47.6,35.3 47.9,30.9 L58.3,41.3" id="Fill-42" fill="#2B8696"></path>
            <path d="M40.6,0.7 C44.5,2.2 48.1,4.6 51.3,7.7 C54.4,10.8 56.8,14.5 58.3,18.4 L47.9,28.8 C47.7,24.3 45.8,20 42.4,16.6 C39,13.2 34.6,11.4 30.2,11.1 L31.9,9.4 L40.6,0.7" id="Fill-43" fill="#FBA023"></path>
            <path d="M17.7,0.7 C13.8,2.2 10.2,4.6 7,7.7 C3.9,10.8 1.5,14.5 0,18.4 L10.4,28.8 C10.6,24.3 12.5,20 15.9,16.6 C19.3,13.2 23.7,11.4 28.1,11.1 L17.7,0.7" id="Fill-44" fill="#5D7C9D"></path>
        </g>
    </g>
</svg>