<svg width="882" height="230" viewBox="0 0 882 230" fill="none" xmlns="http://www.w3.org/2000/svg">
<rect x="0.5" y="0.5" width="881" height="229" rx="3.5" fill="#F8F8F8"/>
<path d="M379.5 134.5C379.5 136.709 377.709 138.5 375.5 138.5C373.291 138.5 371.5 136.709 371.5 134.5C371.5 132.291 373.291 130.5 375.5 130.5C377.709 130.5 379.5 132.291 379.5 134.5Z" fill="#292929"/>
<rect x="366.25" y="125.25" width="18.5" height="18.5" rx="9.25" stroke="#292929" stroke-width="1.5"/>
<path d="M398.332 135.7H400.94L403.356 140.5H404.876L402.316 135.572C403.772 135.236 404.556 134.132 404.556 132.5C404.556 130.468 403.388 129.332 401.436 129.332H396.988V140.5H398.332V135.7ZM398.332 134.548V130.516H401.436C402.492 130.516 403.116 131.092 403.116 132.116V132.948C403.116 133.972 402.492 134.548 401.436 134.548H398.332ZM413.658 140.5V139.38H412.714V134.836C412.714 133.092 411.53 132.052 409.546 132.052C408.058 132.052 407.066 132.788 406.618 133.668L407.386 134.388C407.834 133.636 408.49 133.156 409.482 133.156C410.794 133.156 411.434 133.796 411.434 134.964V135.78H409.802C407.402 135.78 406.282 136.644 406.282 138.196C406.282 139.732 407.306 140.692 409.05 140.692C410.202 140.692 411.082 140.164 411.434 139.156H411.514C411.61 139.924 411.994 140.5 412.938 140.5H413.658ZM409.258 139.604C408.266 139.604 407.626 139.14 407.626 138.324V137.988C407.626 137.188 408.282 136.74 409.738 136.74H411.434V138.1C411.434 138.948 410.522 139.604 409.258 139.604ZM420.765 140.5H422.045V128.66H420.765V133.588H420.701C420.269 132.548 419.421 132.052 418.285 132.052C416.221 132.052 414.925 133.732 414.925 136.372C414.925 139.012 416.221 140.692 418.285 140.692C419.421 140.692 420.205 140.18 420.701 139.156H420.765V140.5ZM418.637 139.54C417.197 139.54 416.301 138.548 416.301 137.076V135.668C416.301 134.196 417.197 133.204 418.637 133.204C419.805 133.204 420.765 133.876 420.765 134.788V137.86C420.765 138.932 419.805 139.54 418.637 139.54ZM425.406 130.308C425.95 130.308 426.19 130.02 426.19 129.588V129.38C426.19 128.948 425.95 128.66 425.406 128.66C424.862 128.66 424.622 128.948 424.622 129.38V129.588C424.622 130.02 424.862 130.308 425.406 130.308ZM424.766 140.5H426.046V132.244H424.766V140.5ZM431.886 140.692C434.094 140.692 435.614 138.996 435.614 136.372C435.614 133.748 434.094 132.052 431.886 132.052C429.678 132.052 428.158 133.748 428.158 136.372C428.158 138.996 429.678 140.692 431.886 140.692ZM431.886 139.556C430.51 139.556 429.534 138.708 429.534 136.964V135.78C429.534 134.036 430.51 133.188 431.886 133.188C433.262 133.188 434.238 134.036 434.238 135.78V136.964C434.238 138.708 433.262 139.556 431.886 139.556ZM443.997 140.5V139.38H442.781V128.66H441.501V139.172C441.501 139.94 441.981 140.5 442.861 140.5H443.997ZM452.58 140.5V139.38H451.636V134.836C451.636 133.092 450.452 132.052 448.468 132.052C446.98 132.052 445.988 132.788 445.54 133.668L446.308 134.388C446.756 133.636 447.412 133.156 448.404 133.156C449.716 133.156 450.356 133.796 450.356 134.964V135.78H448.724C446.324 135.78 445.204 136.644 445.204 138.196C445.204 139.732 446.228 140.692 447.972 140.692C449.124 140.692 450.004 140.164 450.356 139.156H450.436C450.532 139.924 450.916 140.5 451.86 140.5H452.58ZM448.18 139.604C447.188 139.604 446.548 139.14 446.548 138.324V137.988C446.548 137.188 447.204 136.74 448.66 136.74H450.356V138.1C450.356 138.948 449.444 139.604 448.18 139.604ZM454.407 140.5H455.687V139.156H455.751C456.247 140.18 457.031 140.692 458.167 140.692C460.231 140.692 461.527 139.012 461.527 136.372C461.527 133.732 460.231 132.052 458.167 132.052C457.031 132.052 456.183 132.548 455.751 133.588H455.687V128.66H454.407V140.5ZM457.815 139.54C456.647 139.54 455.687 138.932 455.687 137.86V134.788C455.687 133.876 456.647 133.204 457.815 133.204C459.255 133.204 460.151 134.196 460.151 135.668V137.076C460.151 138.548 459.255 139.54 457.815 139.54ZM466.792 140.692C468.344 140.692 469.528 139.924 470.056 138.804L469.144 138.148C468.712 139.06 467.912 139.572 466.872 139.572C465.336 139.572 464.424 138.5 464.424 137.076V136.692H470.36V136.084C470.36 133.748 469 132.052 466.792 132.052C464.552 132.052 463.08 133.748 463.08 136.372C463.08 138.996 464.552 140.692 466.792 140.692ZM466.792 133.124C468.104 133.124 468.984 134.1 468.984 135.556V135.732H464.424V135.62C464.424 134.18 465.4 133.124 466.792 133.124ZM474.965 140.5V139.38H473.749V128.66H472.469V139.172C472.469 139.94 472.949 140.5 473.829 140.5H474.965Z" fill="#292929"/>
<rect x="364.5" y="83.5" width="24" height="24" rx="12" fill="#6E04C1"/>
<path d="M379.611 100.5V99.538H377.271V91.426H375.568L373.163 93.675L373.8 94.364L376.088 92.232H376.179V99.538H373.644V100.5H379.611Z" fill="white"/>
<line x1="376" y1="107.5" x2="376" y2="123.5" stroke="#8000E4"/>
<rect x="413.5" y="83.5" width="24" height="24" rx="12" fill="#6E04C1"/>
<path d="M428.429 99.538H423.658L426.102 97.341C427.259 96.301 428.091 95.313 428.091 93.909C428.091 92.362 427.077 91.27 425.309 91.27C423.554 91.27 422.748 92.336 422.397 93.402L423.372 93.779C423.619 92.921 424.139 92.245 425.257 92.245C426.375 92.245 426.934 92.934 426.934 93.935V94.091C426.934 94.962 426.284 95.872 425.439 96.652L422.475 99.382V100.5H428.429V99.538Z" fill="white"/>
<line x1="425" y1="107.5" x2="425" y2="125.5" stroke="#8000E4"/>
<rect x="0.5" y="0.5" width="881" height="229" rx="3.5" stroke="#E5E5E5"/>
</svg>
