<svg width="882" height="230" viewBox="0 0 882 230" fill="none" xmlns="http://www.w3.org/2000/svg">
<rect x="0.5" y="0.5" width="881" height="229" rx="3.5" fill="#F8F8F8"/>
<g filter="url(#filter0_d_4528_120974)">
<rect x="385.5" y="113.5" width="111" height="32" rx="4" fill="white" shape-rendering="crispEdges"/>
<path d="M401.2 125.764V124.728H393.808V125.764H396.916V134.5H398.092V125.764H401.2ZM402.702 134.5H403.822V129.488C403.822 128.564 404.69 128.116 405.586 128.116C406.664 128.116 407.224 128.774 407.224 130.062V134.5H408.344V129.866C408.344 128.116 407.406 127.108 405.922 127.108C404.844 127.108 404.228 127.64 403.878 128.452H403.822V124.14H402.702V134.5ZM411.219 125.582C411.695 125.582 411.905 125.33 411.905 124.952V124.77C411.905 124.392 411.695 124.14 411.219 124.14C410.743 124.14 410.533 124.392 410.533 124.77V124.952C410.533 125.33 410.743 125.582 411.219 125.582ZM410.659 134.5H411.779V127.276H410.659V134.5ZM416.329 134.668C417.981 134.668 419.003 133.814 419.003 132.414C419.003 131.322 418.387 130.622 416.791 130.384L416.231 130.3C415.335 130.16 414.845 129.88 414.845 129.18C414.845 128.494 415.335 128.06 416.259 128.06C417.183 128.06 417.799 128.494 418.121 128.942L418.863 128.27C418.275 127.542 417.505 127.108 416.343 127.108C414.873 127.108 413.767 127.808 413.767 129.236C413.767 130.58 414.761 131.126 416.091 131.322L416.665 131.406C417.617 131.546 417.925 131.98 417.925 132.54C417.925 133.282 417.365 133.716 416.413 133.716C415.503 133.716 414.831 133.31 414.271 132.61L413.473 133.254C414.117 134.108 414.999 134.668 416.329 134.668ZM424.85 125.582C425.326 125.582 425.536 125.33 425.536 124.952V124.77C425.536 124.392 425.326 124.14 424.85 124.14C424.374 124.14 424.164 124.392 424.164 124.77V124.952C424.164 125.33 424.374 125.582 424.85 125.582ZM424.29 134.5H425.41V127.276H424.29V134.5ZM429.96 134.668C431.612 134.668 432.634 133.814 432.634 132.414C432.634 131.322 432.018 130.622 430.422 130.384L429.862 130.3C428.966 130.16 428.476 129.88 428.476 129.18C428.476 128.494 428.966 128.06 429.89 128.06C430.814 128.06 431.43 128.494 431.752 128.942L432.494 128.27C431.906 127.542 431.136 127.108 429.974 127.108C428.504 127.108 427.398 127.808 427.398 129.236C427.398 130.58 428.392 131.126 429.722 131.322L430.296 131.406C431.248 131.546 431.556 131.98 431.556 132.54C431.556 133.282 430.996 133.716 430.044 133.716C429.134 133.716 428.462 133.31 427.902 132.61L427.104 133.254C427.748 134.108 428.63 134.668 429.96 134.668ZM443.8 134.5V133.52H442.974V129.544C442.974 128.018 441.938 127.108 440.202 127.108C438.9 127.108 438.032 127.752 437.64 128.522L438.312 129.152C438.704 128.494 439.278 128.074 440.146 128.074C441.294 128.074 441.854 128.634 441.854 129.656V130.37H440.426C438.326 130.37 437.346 131.126 437.346 132.484C437.346 133.828 438.242 134.668 439.768 134.668C440.776 134.668 441.546 134.206 441.854 133.324H441.924C442.008 133.996 442.344 134.5 443.17 134.5H443.8ZM439.95 133.716C439.082 133.716 438.522 133.31 438.522 132.596V132.302C438.522 131.602 439.096 131.21 440.37 131.21H441.854V132.4C441.854 133.142 441.056 133.716 439.95 133.716ZM451.704 134.5V133.52H450.234V128.256H451.816V127.276H450.234V125.274H449.226V126.618C449.226 127.108 449.072 127.276 448.596 127.276H447.924V128.256H449.114V133.31C449.114 134.01 449.534 134.5 450.304 134.5H451.704ZM456.291 134.668C458.223 134.668 459.553 133.184 459.553 130.888C459.553 128.592 458.223 127.108 456.291 127.108C454.359 127.108 453.029 128.592 453.029 130.888C453.029 133.184 454.359 134.668 456.291 134.668ZM456.291 133.674C455.087 133.674 454.233 132.932 454.233 131.406V130.37C454.233 128.844 455.087 128.102 456.291 128.102C457.495 128.102 458.349 128.844 458.349 130.37V131.406C458.349 132.932 457.495 133.674 456.291 133.674ZM464.125 134.668C466.057 134.668 467.387 133.184 467.387 130.888C467.387 128.592 466.057 127.108 464.125 127.108C462.193 127.108 460.863 128.592 460.863 130.888C460.863 133.184 462.193 134.668 464.125 134.668ZM464.125 133.674C462.921 133.674 462.067 132.932 462.067 131.406V130.37C462.067 128.844 462.921 128.102 464.125 128.102C465.329 128.102 466.183 128.844 466.183 130.37V131.406C466.183 132.932 465.329 133.674 464.125 133.674ZM471.413 134.5V133.52H470.349V124.14H469.229V133.338C469.229 134.01 469.649 134.5 470.419 134.5H471.413ZM475.971 134.5V133.52H474.501V128.256H476.083V127.276H474.501V125.274H473.493V126.618C473.493 127.108 473.339 127.276 472.863 127.276H472.191V128.256H473.381V133.31C473.381 134.01 473.801 134.5 474.571 134.5H475.971ZM478.443 125.582C478.919 125.582 479.129 125.33 479.129 124.952V124.77C479.129 124.392 478.919 124.14 478.443 124.14C477.967 124.14 477.757 124.392 477.757 124.77V124.952C477.757 125.33 477.967 125.582 478.443 125.582ZM477.883 134.5H479.003V127.276H477.883V134.5ZM481.383 137.3H482.503V133.324H482.559C482.993 134.22 483.679 134.668 484.673 134.668C486.479 134.668 487.613 133.198 487.613 130.888C487.613 128.578 486.479 127.108 484.673 127.108C483.679 127.108 482.937 127.542 482.559 128.452H482.503V127.276H481.383V137.3ZM484.365 133.66C483.343 133.66 482.503 133.128 482.503 132.19V129.502C482.503 128.704 483.343 128.116 484.365 128.116C485.625 128.116 486.409 128.984 486.409 130.272V131.504C486.409 132.792 485.625 133.66 484.365 133.66Z" fill="#292929"/>
<rect x="386" y="114" width="110" height="31" rx="3.5" stroke="#E5E5E5" shape-rendering="crispEdges"/>
</g>
<rect x="432" y="84.5" width="18" height="18" rx="9" fill="#6E04C1"/>
<path d="M443.47 97V96.26H441.67V90.02H440.36L438.51 91.75L439 92.28L440.76 90.64H440.83V96.26H438.88V97H443.47Z" fill="white"/>
<path d="M441 102.5L441 121.5" stroke="#6E04C1" stroke-width="0.5"/>
<rect x="0.5" y="0.5" width="881" height="229" rx="3.5" stroke="#E5E5E5"/>
<defs>
<filter id="filter0_d_4528_120974" x="382.5" y="110.5" width="117" height="38" filterUnits="userSpaceOnUse" color-interpolation-filters="sRGB">
<feFlood flood-opacity="0" result="BackgroundImageFix"/>
<feColorMatrix in="SourceAlpha" type="matrix" values="0 0 0 0 0 0 0 0 0 0 0 0 0 0 0 0 0 0 127 0" result="hardAlpha"/>
<feOffset/>
<feGaussianBlur stdDeviation="1.5"/>
<feComposite in2="hardAlpha" operator="out"/>
<feColorMatrix type="matrix" values="0 0 0 0 0 0 0 0 0 0 0 0 0 0 0 0 0 0 0.1 0"/>
<feBlend mode="normal" in2="BackgroundImageFix" result="effect1_dropShadow_4528_120974"/>
<feBlend mode="normal" in="SourceGraphic" in2="effect1_dropShadow_4528_120974" result="shape"/>
</filter>
</defs>
</svg>
