<svg width="882" height="448" viewBox="0 0 882 448" fill="none" xmlns="http://www.w3.org/2000/svg">
<rect x="0.5" y="0.5" width="881" height="447" rx="3.5" fill="#F8F8F8"/>
<g clip-path="url(#clip0_4528_121627)">
<mask id="path-4-inside-1_4528_121627" fill="white">
<path d="M81.5 56H320.5V112H81.5V56Z"/>
</mask>
<path d="M81.5 56H320.5V112H81.5V56Z" fill="#FCFCFC"/>
<path d="M193.756 80.866V79.228H186.364V80.866H189.136V89H190.984V80.866H193.756ZM196.053 80.628C196.781 80.628 197.103 80.25 197.103 79.732V79.452C197.103 78.934 196.781 78.556 196.053 78.556C195.311 78.556 195.003 78.934 195.003 79.452V79.732C195.003 80.25 195.311 80.628 196.053 80.628ZM195.157 89H196.949V81.692H195.157V89ZM201.308 89H202.596V87.572H201.21V83.12H202.708V81.692H201.21V79.69H199.6V80.936C199.6 81.44 199.432 81.692 198.9 81.692H198.34V83.12H199.418V87.138C199.418 88.328 200.076 89 201.308 89ZM207.021 89V87.572H206.055V78.64H204.263V87.236C204.263 88.356 204.837 89 206.055 89H207.021ZM211.332 89.168C212.69 89.168 213.754 88.65 214.356 87.824L213.39 86.746C212.942 87.32 212.41 87.74 211.528 87.74C210.352 87.74 209.75 87.026 209.75 85.976V85.794H214.608V85.206C214.608 83.204 213.558 81.524 211.276 81.524C209.134 81.524 207.888 83.022 207.888 85.332C207.888 87.67 209.176 89.168 211.332 89.168ZM211.304 82.868C212.228 82.868 212.746 83.554 212.746 84.562V84.688H209.75V84.576C209.75 83.568 210.366 82.868 211.304 82.868Z" fill="#292929"/>
<path d="M320.5 112V113H321.5V112H320.5ZM319.5 56V112H321.5V56H319.5ZM320.5 111H81.5V113H320.5V111Z" fill="#E5E5E5" mask="url(#path-4-inside-1_4528_121627)"/>
<mask id="path-7-inside-2_4528_121627" fill="white">
<path d="M320.5 56H800.5V112H320.5V56Z"/>
</mask>
<path d="M320.5 56H800.5V112H320.5V56Z" fill="#FCFCFC"/>
<path d="M553.256 80.866V79.228H545.864V80.866H548.636V89H550.484V80.866H553.256ZM555.553 80.628C556.281 80.628 556.603 80.25 556.603 79.732V79.452C556.603 78.934 556.281 78.556 555.553 78.556C554.811 78.556 554.503 78.934 554.503 79.452V79.732C554.503 80.25 554.811 80.628 555.553 80.628ZM554.657 89H556.449V81.692H554.657V89ZM560.808 89H562.096V87.572H560.71V83.12H562.208V81.692H560.71V79.69H559.1V80.936C559.1 81.44 558.932 81.692 558.4 81.692H557.84V83.12H558.918V87.138C558.918 88.328 559.576 89 560.808 89ZM566.521 89V87.572H565.555V78.64H563.763V87.236C563.763 88.356 564.337 89 565.555 89H566.521ZM570.832 89.168C572.19 89.168 573.254 88.65 573.856 87.824L572.89 86.746C572.442 87.32 571.91 87.74 571.028 87.74C569.852 87.74 569.25 87.026 569.25 85.976V85.794H574.108V85.206C574.108 83.204 573.058 81.524 570.776 81.524C568.634 81.524 567.388 83.022 567.388 85.332C567.388 87.67 568.676 89.168 570.832 89.168ZM570.804 82.868C571.728 82.868 572.246 83.554 572.246 84.562V84.688H569.25V84.576C569.25 83.568 569.866 82.868 570.804 82.868Z" fill="#292929"/>
<path d="M800.5 112V113H801.5V112H800.5ZM799.5 56V112H801.5V56H799.5ZM800.5 111H320.5V113H800.5V111Z" fill="#E5E5E5" mask="url(#path-7-inside-2_4528_121627)"/>
<rect width="719" height="56" transform="translate(81.5 112)" fill="white"/>
<path d="M99.5 167H81.5V169H99.5V167Z" fill="#E5E5E5" mask="url(#path-10-inside-3_4528_121627)"/>
<rect x="118.25" y="130.75" width="18.5" height="18.5" rx="1.25" fill="white"/>
<rect x="118.25" y="130.75" width="18.5" height="18.5" rx="1.25" stroke="#E5E5E5" stroke-width="1.5"/>
<path d="M155.5 167H99.5V169H155.5V167Z" fill="#E5E5E5" mask="url(#path-12-inside-4_4528_121627)"/>
<path d="M186.57 145H188.418V135.228H186.57V139.232H182.496V135.228H180.648V145H182.496V140.87H186.57V145ZM193.553 145.168C194.911 145.168 195.975 144.65 196.577 143.824L195.611 142.746C195.163 143.32 194.631 143.74 193.749 143.74C192.573 143.74 191.971 143.026 191.971 141.976V141.794H196.829V141.206C196.829 139.204 195.779 137.524 193.497 137.524C191.355 137.524 190.109 139.022 190.109 141.332C190.109 143.67 191.397 145.168 193.553 145.168ZM193.525 138.868C194.449 138.868 194.967 139.554 194.967 140.562V140.688H191.971V140.576C191.971 139.568 192.587 138.868 193.525 138.868ZM200.211 145.168C201.303 145.168 202.101 144.678 202.339 143.74H202.423C202.535 144.496 203.011 145 203.781 145H204.775V143.572H204.047V140.128C204.047 138.462 202.997 137.524 201.023 137.524C199.553 137.524 198.699 138.084 198.167 138.924L199.231 139.876C199.581 139.372 200.057 138.952 200.897 138.952C201.849 138.952 202.255 139.428 202.255 140.24V140.772H201.009C199.021 140.772 197.887 141.514 197.887 143.012C197.887 144.314 198.727 145.168 200.211 145.168ZM200.813 143.866C200.113 143.866 199.707 143.572 199.707 142.984V142.746C199.707 142.172 200.169 141.85 201.107 141.85H202.255V142.816C202.255 143.502 201.611 143.866 200.813 143.866ZM210.761 145H212.553V134.64H210.761V138.896H210.691C210.439 138.056 209.641 137.524 208.675 137.524C206.841 137.524 205.819 138.896 205.819 141.332C205.819 143.782 206.841 145.168 208.675 145.168C209.641 145.168 210.425 144.608 210.691 143.782H210.761V145ZM209.249 143.684C208.325 143.684 207.695 143.012 207.695 141.976V140.716C207.695 139.68 208.325 138.994 209.249 138.994C210.103 138.994 210.761 139.456 210.761 140.17V142.494C210.761 143.25 210.103 143.684 209.249 143.684Z" fill="#292929"/>
<path d="M320.5 168V169H321.5V168H320.5ZM319.5 112V168H321.5V112H319.5ZM320.5 167H155.5V169H320.5V167Z" fill="#E5E5E5" mask="url(#path-15-inside-5_4528_121627)"/>
<path d="M351.57 145H353.418V135.228H351.57V139.232H347.496V135.228H345.648V145H347.496V140.87H351.57V145ZM358.553 145.168C359.911 145.168 360.975 144.65 361.577 143.824L360.611 142.746C360.163 143.32 359.631 143.74 358.749 143.74C357.573 143.74 356.971 143.026 356.971 141.976V141.794H361.829V141.206C361.829 139.204 360.779 137.524 358.497 137.524C356.355 137.524 355.109 139.022 355.109 141.332C355.109 143.67 356.397 145.168 358.553 145.168ZM358.525 138.868C359.449 138.868 359.967 139.554 359.967 140.562V140.688H356.971V140.576C356.971 139.568 357.587 138.868 358.525 138.868ZM365.211 145.168C366.303 145.168 367.101 144.678 367.339 143.74H367.423C367.535 144.496 368.011 145 368.781 145H369.775V143.572H369.047V140.128C369.047 138.462 367.997 137.524 366.023 137.524C364.553 137.524 363.699 138.084 363.167 138.924L364.231 139.876C364.581 139.372 365.057 138.952 365.897 138.952C366.849 138.952 367.255 139.428 367.255 140.24V140.772H366.009C364.021 140.772 362.887 141.514 362.887 143.012C362.887 144.314 363.727 145.168 365.211 145.168ZM365.813 143.866C365.113 143.866 364.707 143.572 364.707 142.984V142.746C364.707 142.172 365.169 141.85 366.107 141.85H367.255V142.816C367.255 143.502 366.611 143.866 365.813 143.866ZM375.761 145H377.553V134.64H375.761V138.896H375.691C375.439 138.056 374.641 137.524 373.675 137.524C371.841 137.524 370.819 138.896 370.819 141.332C370.819 143.782 371.841 145.168 373.675 145.168C374.641 145.168 375.425 144.608 375.691 143.782H375.761V145ZM374.249 143.684C373.325 143.684 372.695 143.012 372.695 141.976V140.716C372.695 139.68 373.325 138.994 374.249 138.994C375.103 138.994 375.761 139.456 375.761 140.17V142.494C375.761 143.25 375.103 143.684 374.249 143.684Z" fill="#292929"/>
<path d="M500.5 168V169H501.5V168H500.5ZM499.5 112V168H501.5V112H499.5ZM500.5 167H320.5V169H500.5V167Z" fill="#E5E5E5" mask="url(#path-18-inside-6_4528_121627)"/>
<path d="M531.57 145H533.418V135.228H531.57V139.232H527.496V135.228H525.648V145H527.496V140.87H531.57V145ZM538.553 145.168C539.911 145.168 540.975 144.65 541.577 143.824L540.611 142.746C540.163 143.32 539.631 143.74 538.749 143.74C537.573 143.74 536.971 143.026 536.971 141.976V141.794H541.829V141.206C541.829 139.204 540.779 137.524 538.497 137.524C536.355 137.524 535.109 139.022 535.109 141.332C535.109 143.67 536.397 145.168 538.553 145.168ZM538.525 138.868C539.449 138.868 539.967 139.554 539.967 140.562V140.688H536.971V140.576C536.971 139.568 537.587 138.868 538.525 138.868ZM545.211 145.168C546.303 145.168 547.101 144.678 547.339 143.74H547.423C547.535 144.496 548.011 145 548.781 145H549.775V143.572H549.047V140.128C549.047 138.462 547.997 137.524 546.023 137.524C544.553 137.524 543.699 138.084 543.167 138.924L544.231 139.876C544.581 139.372 545.057 138.952 545.897 138.952C546.849 138.952 547.255 139.428 547.255 140.24V140.772H546.009C544.021 140.772 542.887 141.514 542.887 143.012C542.887 144.314 543.727 145.168 545.211 145.168ZM545.813 143.866C545.113 143.866 544.707 143.572 544.707 142.984V142.746C544.707 142.172 545.169 141.85 546.107 141.85H547.255V142.816C547.255 143.502 546.611 143.866 545.813 143.866ZM555.761 145H557.553V134.64H555.761V138.896H555.691C555.439 138.056 554.641 137.524 553.675 137.524C551.841 137.524 550.819 138.896 550.819 141.332C550.819 143.782 551.841 145.168 553.675 145.168C554.641 145.168 555.425 144.608 555.691 143.782H555.761V145ZM554.249 143.684C553.325 143.684 552.695 143.012 552.695 141.976V140.716C552.695 139.68 553.325 138.994 554.249 138.994C555.103 138.994 555.761 139.456 555.761 140.17V142.494C555.761 143.25 555.103 143.684 554.249 143.684Z" fill="#292929"/>
<path d="M680.5 168V169H681.5V168H680.5ZM679.5 112V168H681.5V112H679.5ZM680.5 167H500.5V169H680.5V167Z" fill="#E5E5E5" mask="url(#path-21-inside-7_4528_121627)"/>
<path d="M748.57 145H750.418V135.228H748.57V139.232H744.496V135.228H742.648V145H744.496V140.87H748.57V145ZM755.553 145.168C756.911 145.168 757.975 144.65 758.577 143.824L757.611 142.746C757.163 143.32 756.631 143.74 755.749 143.74C754.573 143.74 753.971 143.026 753.971 141.976V141.794H758.829V141.206C758.829 139.204 757.779 137.524 755.497 137.524C753.355 137.524 752.109 139.022 752.109 141.332C752.109 143.67 753.397 145.168 755.553 145.168ZM755.525 138.868C756.449 138.868 756.967 139.554 756.967 140.562V140.688H753.971V140.576C753.971 139.568 754.587 138.868 755.525 138.868ZM762.211 145.168C763.303 145.168 764.101 144.678 764.339 143.74H764.423C764.535 144.496 765.011 145 765.781 145H766.775V143.572H766.047V140.128C766.047 138.462 764.997 137.524 763.023 137.524C761.553 137.524 760.699 138.084 760.167 138.924L761.231 139.876C761.581 139.372 762.057 138.952 762.897 138.952C763.849 138.952 764.255 139.428 764.255 140.24V140.772H763.009C761.021 140.772 759.887 141.514 759.887 143.012C759.887 144.314 760.727 145.168 762.211 145.168ZM762.813 143.866C762.113 143.866 761.707 143.572 761.707 142.984V142.746C761.707 142.172 762.169 141.85 763.107 141.85H764.255V142.816C764.255 143.502 763.611 143.866 762.813 143.866ZM772.761 145H774.553V134.64H772.761V138.896H772.691C772.439 138.056 771.641 137.524 770.675 137.524C768.841 137.524 767.819 138.896 767.819 141.332C767.819 143.782 768.841 145.168 770.675 145.168C771.641 145.168 772.425 144.608 772.691 143.782H772.761V145ZM771.249 143.684C770.325 143.684 769.695 143.012 769.695 141.976V140.716C769.695 139.68 770.325 138.994 771.249 138.994C772.103 138.994 772.761 139.456 772.761 140.17V142.494C772.761 143.25 772.103 143.684 771.249 143.684Z" fill="#292929"/>
<path d="M800.5 168V169H801.5V168H800.5ZM799.5 112V168H801.5V112H799.5ZM800.5 167H680.5V169H800.5V167Z" fill="#E5E5E5" mask="url(#path-24-inside-8_4528_121627)"/>
<rect width="719" height="56" transform="translate(81.5 168)" fill="white"/>
<path d="M99.5 223H81.5V225H99.5V223Z" fill="#E5E5E5" mask="url(#path-27-inside-9_4528_121627)"/>
<rect x="118.25" y="186.75" width="18.5" height="18.5" rx="1.25" fill="white"/>
<rect x="118.25" y="186.75" width="18.5" height="18.5" rx="1.25" stroke="#E5E5E5" stroke-width="1.5"/>
<path d="M155.5 223H99.5V225H155.5V223Z" fill="#E5E5E5" mask="url(#path-29-inside-10_4528_121627)"/>
<path d="M187.2 192.264V191.228H179.808V192.264H182.916V201H184.092V192.264H187.2ZM190.502 201.168C191.86 201.168 192.896 200.496 193.358 199.516L192.56 198.942C192.182 199.74 191.482 200.188 190.572 200.188C189.228 200.188 188.43 199.25 188.43 198.004V197.668H193.624V197.136C193.624 195.092 192.434 193.608 190.502 193.608C188.542 193.608 187.254 195.092 187.254 197.388C187.254 199.684 188.542 201.168 190.502 201.168ZM190.502 194.546C191.65 194.546 192.42 195.4 192.42 196.674V196.828H188.43V196.73C188.43 195.47 189.284 194.546 190.502 194.546ZM194.409 201H195.655L197.685 198.172H197.727L199.603 201H200.919L198.315 197.276L200.863 193.776H199.617L197.713 196.464H197.671L195.837 193.776H194.521L197.083 197.36L194.409 201ZM205.397 201V200.02H203.927V194.756H205.509V193.776H203.927V191.774H202.919V193.118C202.919 193.608 202.765 193.776 202.289 193.776H201.617V194.756H202.807V199.81C202.807 200.51 203.227 201 203.997 201H205.397Z" fill="#292929"/>
<path d="M320.5 224V225H321.5V224H320.5ZM319.5 168V224H321.5V168H319.5ZM320.5 223H155.5V225H320.5V223Z" fill="#E5E5E5" mask="url(#path-32-inside-11_4528_121627)"/>
<path d="M352.2 192.264V191.228H344.808V192.264H347.916V201H349.092V192.264H352.2ZM355.502 201.168C356.86 201.168 357.896 200.496 358.358 199.516L357.56 198.942C357.182 199.74 356.482 200.188 355.572 200.188C354.228 200.188 353.43 199.25 353.43 198.004V197.668H358.624V197.136C358.624 195.092 357.434 193.608 355.502 193.608C353.542 193.608 352.254 195.092 352.254 197.388C352.254 199.684 353.542 201.168 355.502 201.168ZM355.502 194.546C356.65 194.546 357.42 195.4 357.42 196.674V196.828H353.43V196.73C353.43 195.47 354.284 194.546 355.502 194.546ZM359.409 201H360.655L362.685 198.172H362.727L364.603 201H365.919L363.315 197.276L365.863 193.776H364.617L362.713 196.464H362.671L360.837 193.776H359.521L362.083 197.36L359.409 201ZM370.397 201V200.02H368.927V194.756H370.509V193.776H368.927V191.774H367.919V193.118C367.919 193.608 367.765 193.776 367.289 193.776H366.617V194.756H367.807V199.81C367.807 200.51 368.227 201 368.997 201H370.397Z" fill="#292929"/>
<path d="M500.5 224V225H501.5V224H500.5ZM499.5 168V224H501.5V168H499.5ZM500.5 223H320.5V225H500.5V223Z" fill="#E5E5E5" mask="url(#path-35-inside-12_4528_121627)"/>
<path d="M532.2 192.264V191.228H524.808V192.264H527.916V201H529.092V192.264H532.2ZM535.502 201.168C536.86 201.168 537.896 200.496 538.358 199.516L537.56 198.942C537.182 199.74 536.482 200.188 535.572 200.188C534.228 200.188 533.43 199.25 533.43 198.004V197.668H538.624V197.136C538.624 195.092 537.434 193.608 535.502 193.608C533.542 193.608 532.254 195.092 532.254 197.388C532.254 199.684 533.542 201.168 535.502 201.168ZM535.502 194.546C536.65 194.546 537.42 195.4 537.42 196.674V196.828H533.43V196.73C533.43 195.47 534.284 194.546 535.502 194.546ZM539.409 201H540.655L542.685 198.172H542.727L544.603 201H545.919L543.315 197.276L545.863 193.776H544.617L542.713 196.464H542.671L540.837 193.776H539.521L542.083 197.36L539.409 201ZM550.397 201V200.02H548.927V194.756H550.509V193.776H548.927V191.774H547.919V193.118C547.919 193.608 547.765 193.776 547.289 193.776H546.617V194.756H547.807V199.81C547.807 200.51 548.227 201 548.997 201H550.397Z" fill="#292929"/>
<path d="M680.5 224V225H681.5V224H680.5ZM679.5 168V224H681.5V168H679.5ZM680.5 223H500.5V225H680.5V223Z" fill="#E5E5E5" mask="url(#path-38-inside-13_4528_121627)"/>
<path d="M751.5 197.25C752.19 197.25 752.75 196.69 752.75 196C752.75 195.31 752.19 194.75 751.5 194.75C750.81 194.75 750.25 195.31 750.25 196C750.25 196.69 750.81 197.25 751.5 197.25Z" fill="#292929"/>
<path d="M756.5 197.25C757.19 197.25 757.75 196.69 757.75 196C757.75 195.31 757.19 194.75 756.5 194.75C755.81 194.75 755.25 195.31 755.25 196C755.25 196.69 755.81 197.25 756.5 197.25Z" fill="#292929"/>
<path d="M761.5 197.25C762.19 197.25 762.75 196.69 762.75 196C762.75 195.31 762.19 194.75 761.5 194.75C760.81 194.75 760.25 195.31 760.25 196C760.25 196.69 760.81 197.25 761.5 197.25Z" fill="#292929"/>
<path d="M800.5 223H680.5V225H800.5V223Z" fill="#E5E5E5" mask="url(#path-41-inside-14_4528_121627)"/>
<rect width="719" height="56" transform="translate(81.5 224)" fill="white"/>
<mask id="path-47-inside-15_4528_121627" fill="white">
<path d="M81.5 224H99.5V280H81.5V224Z"/>
</mask>
<path d="M81.5 224H99.5V280H81.5V224Z" fill="#FCFCFC"/>
<path d="M99.5 279H81.5V281H99.5V279Z" fill="#E5E5E5" mask="url(#path-47-inside-15_4528_121627)"/>
<mask id="path-49-inside-16_4528_121627" fill="white">
<path d="M99.5 224H155.5V280H99.5V224Z"/>
</mask>
<path d="M99.5 224H155.5V280H99.5V224Z" fill="#FCFCFC"/>
<rect x="118.25" y="242.75" width="18.5" height="18.5" rx="1.25" fill="white"/>
<rect x="118.25" y="242.75" width="18.5" height="18.5" rx="1.25" stroke="#E5E5E5" stroke-width="1.5"/>
<path d="M155.5 279H99.5V281H155.5V279Z" fill="#E5E5E5" mask="url(#path-49-inside-16_4528_121627)"/>
<mask id="path-52-inside-17_4528_121627" fill="white">
<path d="M155.5 224H320.5V280H155.5V224Z"/>
</mask>
<path d="M155.5 224H320.5V280H155.5V224Z" fill="#FCFCFC"/>
<path d="M187.2 248.264V247.228H179.808V248.264H182.916V257H184.092V248.264H187.2ZM190.502 257.168C191.86 257.168 192.896 256.496 193.358 255.516L192.56 254.942C192.182 255.74 191.482 256.188 190.572 256.188C189.228 256.188 188.43 255.25 188.43 254.004V253.668H193.624V253.136C193.624 251.092 192.434 249.608 190.502 249.608C188.542 249.608 187.254 251.092 187.254 253.388C187.254 255.684 188.542 257.168 190.502 257.168ZM190.502 250.546C191.65 250.546 192.42 251.4 192.42 252.674V252.828H188.43V252.73C188.43 251.47 189.284 250.546 190.502 250.546ZM194.409 257H195.655L197.685 254.172H197.727L199.603 257H200.919L198.315 253.276L200.863 249.776H199.617L197.713 252.464H197.671L195.837 249.776H194.521L197.083 253.36L194.409 257ZM205.397 257V256.02H203.927V250.756H205.509V249.776H203.927V247.774H202.919V249.118C202.919 249.608 202.765 249.776 202.289 249.776H201.617V250.756H202.807V255.81C202.807 256.51 203.227 257 203.997 257H205.397Z" fill="#292929"/>
<path d="M320.5 280V281H321.5V280H320.5ZM319.5 224V280H321.5V224H319.5ZM320.5 279H155.5V281H320.5V279Z" fill="#E5E5E5" mask="url(#path-52-inside-17_4528_121627)"/>
<mask id="path-55-inside-18_4528_121627" fill="white">
<path d="M320.5 224H500.5V280H320.5V224Z"/>
</mask>
<path d="M320.5 224H500.5V280H320.5V224Z" fill="#FCFCFC"/>
<path d="M352.2 248.264V247.228H344.808V248.264H347.916V257H349.092V248.264H352.2ZM355.502 257.168C356.86 257.168 357.896 256.496 358.358 255.516L357.56 254.942C357.182 255.74 356.482 256.188 355.572 256.188C354.228 256.188 353.43 255.25 353.43 254.004V253.668H358.624V253.136C358.624 251.092 357.434 249.608 355.502 249.608C353.542 249.608 352.254 251.092 352.254 253.388C352.254 255.684 353.542 257.168 355.502 257.168ZM355.502 250.546C356.65 250.546 357.42 251.4 357.42 252.674V252.828H353.43V252.73C353.43 251.47 354.284 250.546 355.502 250.546ZM359.409 257H360.655L362.685 254.172H362.727L364.603 257H365.919L363.315 253.276L365.863 249.776H364.617L362.713 252.464H362.671L360.837 249.776H359.521L362.083 253.36L359.409 257ZM370.397 257V256.02H368.927V250.756H370.509V249.776H368.927V247.774H367.919V249.118C367.919 249.608 367.765 249.776 367.289 249.776H366.617V250.756H367.807V255.81C367.807 256.51 368.227 257 368.997 257H370.397Z" fill="#292929"/>
<path d="M500.5 280V281H501.5V280H500.5ZM499.5 224V280H501.5V224H499.5ZM500.5 279H320.5V281H500.5V279Z" fill="#E5E5E5" mask="url(#path-55-inside-18_4528_121627)"/>
<mask id="path-58-inside-19_4528_121627" fill="white">
<path d="M500.5 224H680.5V280H500.5V224Z"/>
</mask>
<path d="M500.5 224H680.5V280H500.5V224Z" fill="#FCFCFC"/>
<path d="M532.2 248.264V247.228H524.808V248.264H527.916V257H529.092V248.264H532.2ZM535.502 257.168C536.86 257.168 537.896 256.496 538.358 255.516L537.56 254.942C537.182 255.74 536.482 256.188 535.572 256.188C534.228 256.188 533.43 255.25 533.43 254.004V253.668H538.624V253.136C538.624 251.092 537.434 249.608 535.502 249.608C533.542 249.608 532.254 251.092 532.254 253.388C532.254 255.684 533.542 257.168 535.502 257.168ZM535.502 250.546C536.65 250.546 537.42 251.4 537.42 252.674V252.828H533.43V252.73C533.43 251.47 534.284 250.546 535.502 250.546ZM539.409 257H540.655L542.685 254.172H542.727L544.603 257H545.919L543.315 253.276L545.863 249.776H544.617L542.713 252.464H542.671L540.837 249.776H539.521L542.083 253.36L539.409 257ZM550.397 257V256.02H548.927V250.756H550.509V249.776H548.927V247.774H547.919V249.118C547.919 249.608 547.765 249.776 547.289 249.776H546.617V250.756H547.807V255.81C547.807 256.51 548.227 257 548.997 257H550.397Z" fill="#292929"/>
<path d="M680.5 280V281H681.5V280H680.5ZM679.5 224V280H681.5V224H679.5ZM680.5 279H500.5V281H680.5V279Z" fill="#E5E5E5" mask="url(#path-58-inside-19_4528_121627)"/>
<mask id="path-61-inside-20_4528_121627" fill="white">
<path d="M680.5 224H800.5V280H680.5V224Z"/>
</mask>
<path d="M680.5 224H800.5V280H680.5V224Z" fill="#FCFCFC"/>
<path d="M751.5 253.25C752.19 253.25 752.75 252.69 752.75 252C752.75 251.31 752.19 250.75 751.5 250.75C750.81 250.75 750.25 251.31 750.25 252C750.25 252.69 750.81 253.25 751.5 253.25Z" fill="#292929"/>
<path d="M756.5 253.25C757.19 253.25 757.75 252.69 757.75 252C757.75 251.31 757.19 250.75 756.5 250.75C755.81 250.75 755.25 251.31 755.25 252C755.25 252.69 755.81 253.25 756.5 253.25Z" fill="#292929"/>
<path d="M761.5 253.25C762.19 253.25 762.75 252.69 762.75 252C762.75 251.31 762.19 250.75 761.5 250.75C760.81 250.75 760.25 251.31 760.25 252C760.25 252.69 760.81 253.25 761.5 253.25Z" fill="#292929"/>
<path d="M800.5 279H680.5V281H800.5V279Z" fill="#E5E5E5" mask="url(#path-61-inside-20_4528_121627)"/>
<rect width="719" height="56" transform="translate(81.5 280)" fill="white"/>
<path d="M99.5 335H81.5V337H99.5V335Z" fill="#E5E5E5" mask="url(#path-67-inside-21_4528_121627)"/>
<rect x="118.25" y="298.75" width="18.5" height="18.5" rx="1.25" fill="white"/>
<rect x="118.25" y="298.75" width="18.5" height="18.5" rx="1.25" stroke="#E5E5E5" stroke-width="1.5"/>
<path d="M155.5 335H99.5V337H155.5V335Z" fill="#E5E5E5" mask="url(#path-69-inside-22_4528_121627)"/>
<path d="M187.2 304.264V303.228H179.808V304.264H182.916V313H184.092V304.264H187.2ZM190.502 313.168C191.86 313.168 192.896 312.496 193.358 311.516L192.56 310.942C192.182 311.74 191.482 312.188 190.572 312.188C189.228 312.188 188.43 311.25 188.43 310.004V309.668H193.624V309.136C193.624 307.092 192.434 305.608 190.502 305.608C188.542 305.608 187.254 307.092 187.254 309.388C187.254 311.684 188.542 313.168 190.502 313.168ZM190.502 306.546C191.65 306.546 192.42 307.4 192.42 308.674V308.828H188.43V308.73C188.43 307.47 189.284 306.546 190.502 306.546ZM194.409 313H195.655L197.685 310.172H197.727L199.603 313H200.919L198.315 309.276L200.863 305.776H199.617L197.713 308.464H197.671L195.837 305.776H194.521L197.083 309.36L194.409 313ZM205.397 313V312.02H203.927V306.756H205.509V305.776H203.927V303.774H202.919V305.118C202.919 305.608 202.765 305.776 202.289 305.776H201.617V306.756H202.807V311.81C202.807 312.51 203.227 313 203.997 313H205.397Z" fill="#292929"/>
<path d="M320.5 336V337H321.5V336H320.5ZM319.5 280V336H321.5V280H319.5ZM320.5 335H155.5V337H320.5V335Z" fill="#E5E5E5" mask="url(#path-72-inside-23_4528_121627)"/>
<path d="M352.2 304.264V303.228H344.808V304.264H347.916V313H349.092V304.264H352.2ZM355.502 313.168C356.86 313.168 357.896 312.496 358.358 311.516L357.56 310.942C357.182 311.74 356.482 312.188 355.572 312.188C354.228 312.188 353.43 311.25 353.43 310.004V309.668H358.624V309.136C358.624 307.092 357.434 305.608 355.502 305.608C353.542 305.608 352.254 307.092 352.254 309.388C352.254 311.684 353.542 313.168 355.502 313.168ZM355.502 306.546C356.65 306.546 357.42 307.4 357.42 308.674V308.828H353.43V308.73C353.43 307.47 354.284 306.546 355.502 306.546ZM359.409 313H360.655L362.685 310.172H362.727L364.603 313H365.919L363.315 309.276L365.863 305.776H364.617L362.713 308.464H362.671L360.837 305.776H359.521L362.083 309.36L359.409 313ZM370.397 313V312.02H368.927V306.756H370.509V305.776H368.927V303.774H367.919V305.118C367.919 305.608 367.765 305.776 367.289 305.776H366.617V306.756H367.807V311.81C367.807 312.51 368.227 313 368.997 313H370.397Z" fill="#292929"/>
<path d="M500.5 336V337H501.5V336H500.5ZM499.5 280V336H501.5V280H499.5ZM500.5 335H320.5V337H500.5V335Z" fill="#E5E5E5" mask="url(#path-75-inside-24_4528_121627)"/>
<path d="M532.2 304.264V303.228H524.808V304.264H527.916V313H529.092V304.264H532.2ZM535.502 313.168C536.86 313.168 537.896 312.496 538.358 311.516L537.56 310.942C537.182 311.74 536.482 312.188 535.572 312.188C534.228 312.188 533.43 311.25 533.43 310.004V309.668H538.624V309.136C538.624 307.092 537.434 305.608 535.502 305.608C533.542 305.608 532.254 307.092 532.254 309.388C532.254 311.684 533.542 313.168 535.502 313.168ZM535.502 306.546C536.65 306.546 537.42 307.4 537.42 308.674V308.828H533.43V308.73C533.43 307.47 534.284 306.546 535.502 306.546ZM539.409 313H540.655L542.685 310.172H542.727L544.603 313H545.919L543.315 309.276L545.863 305.776H544.617L542.713 308.464H542.671L540.837 305.776H539.521L542.083 309.36L539.409 313ZM550.397 313V312.02H548.927V306.756H550.509V305.776H548.927V303.774H547.919V305.118C547.919 305.608 547.765 305.776 547.289 305.776H546.617V306.756H547.807V311.81C547.807 312.51 548.227 313 548.997 313H550.397Z" fill="#292929"/>
<path d="M680.5 336V337H681.5V336H680.5ZM679.5 280V336H681.5V280H679.5ZM680.5 335H500.5V337H680.5V335Z" fill="#E5E5E5" mask="url(#path-78-inside-25_4528_121627)"/>
<path d="M751.5 309.25C752.19 309.25 752.75 308.69 752.75 308C752.75 307.31 752.19 306.75 751.5 306.75C750.81 306.75 750.25 307.31 750.25 308C750.25 308.69 750.81 309.25 751.5 309.25Z" fill="#292929"/>
<path d="M756.5 309.25C757.19 309.25 757.75 308.69 757.75 308C757.75 307.31 757.19 306.75 756.5 306.75C755.81 306.75 755.25 307.31 755.25 308C755.25 308.69 755.81 309.25 756.5 309.25Z" fill="#292929"/>
<path d="M761.5 309.25C762.19 309.25 762.75 308.69 762.75 308C762.75 307.31 762.19 306.75 761.5 306.75C760.81 306.75 760.25 307.31 760.25 308C760.25 308.69 760.81 309.25 761.5 309.25Z" fill="#292929"/>
<path d="M800.5 335H680.5V337H800.5V335Z" fill="#E5E5E5" mask="url(#path-81-inside-26_4528_121627)"/>
<path d="M99.5 391H81.5V393H99.5V391Z" fill="#E5E5E5" mask="url(#path-87-inside-27_4528_121627)"/>
<path d="M155.5 391H99.5V393H155.5V391Z" fill="#E5E5E5" mask="url(#path-89-inside-28_4528_121627)"/>
<path d="M182.496 369V364.87H186.36V363.232H182.496V360.866H186.934V359.228H180.648V369H182.496ZM191.09 369.168C193.19 369.168 194.492 367.684 194.492 365.332C194.492 362.994 193.19 361.524 191.09 361.524C189.004 361.524 187.702 362.994 187.702 365.332C187.702 367.684 189.004 369.168 191.09 369.168ZM191.09 367.726C190.166 367.726 189.578 367.124 189.578 366.018V364.66C189.578 363.568 190.166 362.966 191.09 362.966C192.028 362.966 192.616 363.568 192.616 364.66V366.018C192.616 367.124 192.028 367.726 191.09 367.726ZM198.979 369.168C201.079 369.168 202.381 367.684 202.381 365.332C202.381 362.994 201.079 361.524 198.979 361.524C196.893 361.524 195.591 362.994 195.591 365.332C195.591 367.684 196.893 369.168 198.979 369.168ZM198.979 367.726C198.055 367.726 197.467 367.124 197.467 366.018V364.66C197.467 363.568 198.055 362.966 198.979 362.966C199.917 362.966 200.505 363.568 200.505 364.66V366.018C200.505 367.124 199.917 367.726 198.979 367.726ZM206.197 369H207.485V367.572H206.099V363.12H207.597V361.692H206.099V359.69H204.489V360.936C204.489 361.44 204.321 361.692 203.789 361.692H203.229V363.12H204.307V367.138C204.307 368.328 204.965 369 206.197 369Z" fill="#292929"/>
<path d="M320.5 392V393H321.5V392H320.5ZM319.5 336V392H321.5V336H319.5ZM320.5 391H155.5V393H320.5V391Z" fill="#E5E5E5" mask="url(#path-91-inside-29_4528_121627)"/>
<path d="M347.496 369V364.87H351.36V363.232H347.496V360.866H351.934V359.228H345.648V369H347.496ZM356.09 369.168C358.19 369.168 359.492 367.684 359.492 365.332C359.492 362.994 358.19 361.524 356.09 361.524C354.004 361.524 352.702 362.994 352.702 365.332C352.702 367.684 354.004 369.168 356.09 369.168ZM356.09 367.726C355.166 367.726 354.578 367.124 354.578 366.018V364.66C354.578 363.568 355.166 362.966 356.09 362.966C357.028 362.966 357.616 363.568 357.616 364.66V366.018C357.616 367.124 357.028 367.726 356.09 367.726ZM363.979 369.168C366.079 369.168 367.381 367.684 367.381 365.332C367.381 362.994 366.079 361.524 363.979 361.524C361.893 361.524 360.591 362.994 360.591 365.332C360.591 367.684 361.893 369.168 363.979 369.168ZM363.979 367.726C363.055 367.726 362.467 367.124 362.467 366.018V364.66C362.467 363.568 363.055 362.966 363.979 362.966C364.917 362.966 365.505 363.568 365.505 364.66V366.018C365.505 367.124 364.917 367.726 363.979 367.726ZM371.197 369H372.485V367.572H371.099V363.12H372.597V361.692H371.099V359.69H369.489V360.936C369.489 361.44 369.321 361.692 368.789 361.692H368.229V363.12H369.307V367.138C369.307 368.328 369.965 369 371.197 369Z" fill="#292929"/>
<path d="M500.5 392V393H501.5V392H500.5ZM499.5 336V392H501.5V336H499.5ZM500.5 391H320.5V393H500.5V391Z" fill="#E5E5E5" mask="url(#path-94-inside-30_4528_121627)"/>
<path d="M527.496 369V364.87H531.36V363.232H527.496V360.866H531.934V359.228H525.648V369H527.496ZM536.09 369.168C538.19 369.168 539.492 367.684 539.492 365.332C539.492 362.994 538.19 361.524 536.09 361.524C534.004 361.524 532.702 362.994 532.702 365.332C532.702 367.684 534.004 369.168 536.09 369.168ZM536.09 367.726C535.166 367.726 534.578 367.124 534.578 366.018V364.66C534.578 363.568 535.166 362.966 536.09 362.966C537.028 362.966 537.616 363.568 537.616 364.66V366.018C537.616 367.124 537.028 367.726 536.09 367.726ZM543.979 369.168C546.079 369.168 547.381 367.684 547.381 365.332C547.381 362.994 546.079 361.524 543.979 361.524C541.893 361.524 540.591 362.994 540.591 365.332C540.591 367.684 541.893 369.168 543.979 369.168ZM543.979 367.726C543.055 367.726 542.467 367.124 542.467 366.018V364.66C542.467 363.568 543.055 362.966 543.979 362.966C544.917 362.966 545.505 363.568 545.505 364.66V366.018C545.505 367.124 544.917 367.726 543.979 367.726ZM551.197 369H552.485V367.572H551.099V363.12H552.597V361.692H551.099V359.69H549.489V360.936C549.489 361.44 549.321 361.692 548.789 361.692H548.229V363.12H549.307V367.138C549.307 368.328 549.965 369 551.197 369Z" fill="#292929"/>
<path d="M680.5 392V393H681.5V392H680.5ZM679.5 336V392H681.5V336H679.5ZM680.5 391H500.5V393H680.5V391Z" fill="#E5E5E5" mask="url(#path-97-inside-31_4528_121627)"/>
<path d="M800.5 392V393H801.5V392H800.5ZM799.5 336V392H801.5V336H799.5ZM800.5 391H680.5V393H800.5V391Z" fill="#E5E5E5" mask="url(#path-100-inside-32_4528_121627)"/>
</g>
<rect x="82" y="56.5" width="718" height="335" rx="3.5" stroke="#E5E5E5"/>
<rect x="38.5" y="73" width="24" height="24" rx="12" fill="#6E04C1"/>
<path d="M53.611 90V89.038H51.271V80.926H49.568L47.163 83.175L47.8 83.864L50.088 81.732H50.179V89.038H47.644V90H53.611Z" fill="white"/>
<path d="M62.5 85L77.5 85" stroke="#6E04C1" stroke-width="0.5"/>
<path d="M77.5 61L77.5 109" stroke="#6E04C1"/>
<rect x="38.5" y="128" width="24" height="24" rx="12" fill="#6E04C1"/>
<path d="M53.429 144.038H48.658L51.102 141.841C52.259 140.801 53.091 139.813 53.091 138.409C53.091 136.862 52.077 135.77 50.309 135.77C48.554 135.77 47.748 136.836 47.397 137.902L48.372 138.279C48.619 137.421 49.139 136.745 50.257 136.745C51.375 136.745 51.934 137.434 51.934 138.435V138.591C51.934 139.462 51.284 140.372 50.439 141.152L47.475 143.882V145H53.429V144.038Z" fill="white"/>
<path d="M62.5 140L77.5 140" stroke="#6E04C1" stroke-width="0.5"/>
<path d="M77.5 116L77.5 164" stroke="#6E04C1"/>
<rect x="819.5" y="240" width="24" height="24" rx="12" fill="#6E04C1"/>
<path d="M833.974 247.926H829.112L828.787 252.918L829.71 253.048C830.087 252.632 830.503 252.281 831.335 252.281C832.57 252.281 833.233 252.97 833.233 254.166V254.296C833.233 255.492 832.57 256.181 831.335 256.181C830.243 256.181 829.788 255.7 829.32 254.985L828.501 255.609C829.047 256.389 829.827 257.156 831.335 257.156C833.246 257.156 834.39 255.921 834.39 254.153C834.39 252.398 833.246 251.345 831.686 251.345C830.737 251.345 830.256 251.735 829.827 252.346H829.736L829.996 248.888H833.974V247.926Z" fill="white"/>
<path d="M819.5 252L804.5 252" stroke="#6E04C1" stroke-width="0.5"/>
<path d="M804.5 228L804.5 276" stroke="#6E04C1"/>
<rect x="38.5" y="352" width="24" height="24" rx="12" fill="#6E04C1"/>
<path d="M52.415 369V367.219H53.728V366.309H52.415V359.926H50.79L46.994 366.257V367.219H51.375V369H52.415ZM51.31 360.771H51.375V366.309H48.021L51.31 360.771Z" fill="white"/>
<path d="M62.5 364L77.5 364" stroke="#6E04C1" stroke-width="0.5"/>
<path d="M77.5 340L77.5 388" stroke="#6E04C1"/>
<rect x="38.5" y="240" width="24" height="24" rx="12" fill="#6E04C1"/>
<path d="M48.905 251.774V252.723H49.971C51.245 252.723 51.921 253.334 51.921 254.4V254.504C51.921 255.57 51.245 256.181 49.971 256.181C48.866 256.181 48.333 255.7 47.865 254.985L47.046 255.609C47.605 256.389 48.411 257.156 49.984 257.156C51.83 257.156 53.065 256.077 53.065 254.517C53.065 253.152 52.129 252.424 51.154 252.229V252.177C52.116 251.93 52.896 251.228 52.896 250.058C52.896 248.589 51.674 247.77 50.14 247.77C48.684 247.77 47.891 248.524 47.436 249.252L48.242 249.876C48.619 249.187 49.178 248.745 50.114 248.745C51.076 248.745 51.739 249.226 51.739 250.175V250.266C51.739 251.137 51.115 251.774 49.893 251.774H48.905Z" fill="white"/>
<path d="M62.5 252L77.5 252" stroke="#6E04C1" stroke-width="0.5"/>
<path d="M77.5 174L77.5 330" stroke="#6E04C1"/>
<rect x="0.5" y="0.5" width="881" height="447" rx="3.5" stroke="#E5E5E5"/>
<defs>
<clipPath id="clip0_4528_121627">
<rect x="81.5" y="56" width="719" height="336" rx="4" fill="white"/>
</clipPath>
</defs>
</svg>
