<svg width="882" height="313" viewBox="0 0 882 313" fill="none" xmlns="http://www.w3.org/2000/svg">
<rect x="0.5" y="0.5" width="881" height="312" rx="3.5" fill="#F8F8F8"/>
<rect x="223.5" y="93" width="437" height="164" rx="4" fill="#EEEEEE"/>
<path d="M247.5 127H253.5V129H247.5V127ZM247.5 131H257.5V133H247.5V131Z" fill="#292929"/>
<path d="M265.5 113H245.5C244.97 113.001 244.461 113.212 244.087 113.587C243.712 113.961 243.501 114.47 243.5 115V135C243.501 135.53 243.712 136.039 244.087 136.413C244.461 136.788 244.97 136.999 245.5 137H265.5C266.03 136.999 266.539 136.788 266.913 136.413C267.288 136.039 267.499 135.53 267.5 135V115C267.499 114.47 267.288 113.961 266.913 113.587C266.539 113.212 266.03 113.001 265.5 113V113ZM257.5 115V119H253.5V115H257.5ZM245.5 135V115H251.5V121H259.5V115H265.5L265.501 135H245.5Z" fill="#292929"/>
<path d="M296.364 117.704V115.832H287.916V117.704H291.084V127H293.196V117.704H296.364ZM300.294 127.192C301.846 127.192 303.062 126.6 303.75 125.656L302.646 124.424C302.134 125.08 301.526 125.56 300.518 125.56C299.174 125.56 298.486 124.744 298.486 123.544V123.336H304.038V122.664C304.038 120.376 302.838 118.456 300.23 118.456C297.782 118.456 296.358 120.168 296.358 122.808C296.358 125.48 297.83 127.192 300.294 127.192ZM300.262 119.992C301.318 119.992 301.91 120.776 301.91 121.928V122.072H298.486V121.944C298.486 120.792 299.19 119.992 300.262 119.992ZM307.904 127.192C309.152 127.192 310.064 126.632 310.336 125.56H310.432C310.56 126.424 311.104 127 311.984 127H313.12V125.368H312.288V121.432C312.288 119.528 311.088 118.456 308.832 118.456C307.152 118.456 306.176 119.096 305.568 120.056L306.784 121.144C307.184 120.568 307.728 120.088 308.688 120.088C309.776 120.088 310.24 120.632 310.24 121.56V122.168H308.816C306.544 122.168 305.248 123.016 305.248 124.728C305.248 126.216 306.208 127.192 307.904 127.192ZM308.592 125.704C307.792 125.704 307.328 125.368 307.328 124.696V124.424C307.328 123.768 307.856 123.4 308.928 123.4H310.24V124.504C310.24 125.288 309.504 125.704 308.592 125.704ZM317.514 127.192C319.594 127.192 320.954 126.072 320.954 124.456C320.954 123.064 320.074 122.248 318.25 121.992L317.402 121.88C316.618 121.752 316.314 121.496 316.314 120.936C316.314 120.424 316.698 120.072 317.578 120.072C318.394 120.072 319.098 120.456 319.578 120.968L320.778 119.768C319.978 118.936 319.146 118.456 317.514 118.456C315.61 118.456 314.346 119.48 314.346 121.096C314.346 122.616 315.338 123.4 317.13 123.624L317.962 123.736C318.698 123.832 318.986 124.136 318.986 124.616C318.986 125.208 318.57 125.576 317.594 125.576C316.65 125.576 315.914 125.144 315.306 124.44L314.058 125.656C314.89 126.616 315.93 127.192 317.514 127.192ZM326.138 127.192C327.69 127.192 328.906 126.6 329.594 125.656L328.49 124.424C327.978 125.08 327.37 125.56 326.362 125.56C325.018 125.56 324.33 124.744 324.33 123.544V123.336H329.882V122.664C329.882 120.376 328.682 118.456 326.074 118.456C323.626 118.456 322.202 120.168 322.202 122.808C322.202 125.48 323.674 127.192 326.138 127.192ZM326.106 119.992C327.162 119.992 327.754 120.776 327.754 121.928V122.072H324.33V121.944C324.33 120.792 325.034 119.992 326.106 119.992ZM340.457 127H342.505V118.648H340.457V124.168C340.457 125.064 339.641 125.496 338.825 125.496C337.849 125.496 337.417 124.872 337.417 123.72V118.648H335.369V123.928C335.369 126.008 336.329 127.192 338.041 127.192C339.417 127.192 340.089 126.44 340.377 125.608H340.457V127ZM347.608 127.192C349.688 127.192 351.048 126.072 351.048 124.456C351.048 123.064 350.168 122.248 348.344 121.992L347.496 121.88C346.712 121.752 346.408 121.496 346.408 120.936C346.408 120.424 346.792 120.072 347.672 120.072C348.488 120.072 349.192 120.456 349.672 120.968L350.872 119.768C350.072 118.936 349.24 118.456 347.608 118.456C345.704 118.456 344.44 119.48 344.44 121.096C344.44 122.616 345.432 123.4 347.224 123.624L348.056 123.736C348.792 123.832 349.08 124.136 349.08 124.616C349.08 125.208 348.664 125.576 347.688 125.576C346.744 125.576 346.008 125.144 345.4 124.44L344.152 125.656C344.984 126.616 346.024 127.192 347.608 127.192ZM356.232 127.192C357.784 127.192 359 126.6 359.688 125.656L358.584 124.424C358.072 125.08 357.464 125.56 356.456 125.56C355.112 125.56 354.424 124.744 354.424 123.544V123.336H359.976V122.664C359.976 120.376 358.776 118.456 356.168 118.456C353.72 118.456 352.296 120.168 352.296 122.808C352.296 125.48 353.768 127.192 356.232 127.192ZM356.2 119.992C357.256 119.992 357.848 120.776 357.848 121.928V122.072H354.424V121.944C354.424 120.792 355.128 119.992 356.2 119.992ZM362.194 127H364.242V120.264H365.954V118.648H364.242V116.792H365.954V115.16H364.498C362.994 115.16 362.194 115.976 362.194 117.448V118.648H360.962V120.264H362.194V127ZM372.364 127H374.411V118.648H372.364V124.168C372.364 125.064 371.548 125.496 370.732 125.496C369.756 125.496 369.324 124.872 369.324 123.72V118.648H367.276V123.928C367.276 126.008 368.236 127.192 369.948 127.192C371.324 127.192 371.996 126.44 372.284 125.608H372.364V127ZM379.93 127V125.368H378.826V115.16H376.778V124.984C376.778 126.264 377.434 127 378.826 127H379.93ZM386.286 117.432C387.118 117.432 387.486 117 387.486 116.408V116.088C387.486 115.496 387.118 115.064 386.286 115.064C385.438 115.064 385.086 115.496 385.086 116.088V116.408C385.086 117 385.438 117.432 386.286 117.432ZM385.262 127H387.31V118.648H385.262V127ZM391.732 127V121.48C391.732 120.584 392.548 120.136 393.396 120.136C394.372 120.136 394.772 120.744 394.772 121.928V127H396.82V121.72C396.82 119.64 395.86 118.456 394.148 118.456C392.852 118.456 392.148 119.144 391.812 120.04H391.732V118.648H389.684V127H391.732ZM399.506 127H401.554V120.264H403.266V118.648H401.554V116.792H403.266V115.16H401.81C400.306 115.16 399.506 115.976 399.506 117.448V118.648H398.274V120.264H399.506V127ZM407.934 127.192C410.334 127.192 411.822 125.496 411.822 122.808C411.822 120.136 410.334 118.456 407.934 118.456C405.549 118.456 404.062 120.136 404.062 122.808C404.062 125.496 405.549 127.192 407.934 127.192ZM407.934 125.544C406.878 125.544 406.206 124.856 406.206 123.592V122.04C406.206 120.792 406.878 120.104 407.934 120.104C409.006 120.104 409.678 120.792 409.678 122.04V123.592C409.678 124.856 409.006 125.544 407.934 125.544ZM415.685 127V121.88C415.685 120.968 416.405 120.584 417.781 120.584H418.421V118.648H417.973C416.645 118.648 415.973 119.496 415.765 120.376H415.685V118.648H413.637V127H415.685ZM421.966 127V121.48C421.966 120.584 422.734 120.136 423.518 120.136C424.43 120.136 424.862 120.728 424.862 121.928V127H426.91V121.48C426.91 120.584 427.662 120.136 428.462 120.136C429.374 120.136 429.806 120.728 429.806 121.928V127H431.854V121.72C431.854 119.64 430.926 118.456 429.294 118.456C427.966 118.456 427.038 119.208 426.734 120.136H426.702C426.302 119.016 425.422 118.456 424.286 118.456C423.038 118.456 422.366 119.16 422.046 120.04H421.966V118.648H419.918V127H421.966ZM436.186 127.192C437.434 127.192 438.346 126.632 438.618 125.56H438.714C438.842 126.424 439.386 127 440.266 127H441.402V125.368H440.57V121.432C440.57 119.528 439.37 118.456 437.114 118.456C435.434 118.456 434.458 119.096 433.85 120.056L435.066 121.144C435.466 120.568 436.01 120.088 436.97 120.088C438.058 120.088 438.522 120.632 438.522 121.56V122.168H437.098C434.826 122.168 433.53 123.016 433.53 124.728C433.53 126.216 434.49 127.192 436.186 127.192ZM436.874 125.704C436.074 125.704 435.61 125.368 435.61 124.696V124.424C435.61 123.768 436.138 123.4 437.21 123.4H438.522V124.504C438.522 125.288 437.786 125.704 436.874 125.704ZM445.605 127H447.077V125.368H445.493V120.28H447.205V118.648H445.493V116.36H443.653V117.784C443.653 118.36 443.461 118.648 442.853 118.648H442.213V120.28H443.445V124.872C443.445 126.232 444.197 127 445.605 127ZM450.005 117.432C450.837 117.432 451.205 117 451.205 116.408V116.088C451.205 115.496 450.837 115.064 450.005 115.064C449.157 115.064 448.805 115.496 448.805 116.088V116.408C448.805 117 449.157 117.432 450.005 117.432ZM448.981 127H451.029V118.648H448.981V127ZM456.715 127.192C459.115 127.192 460.603 125.496 460.603 122.808C460.603 120.136 459.115 118.456 456.715 118.456C454.331 118.456 452.843 120.136 452.843 122.808C452.843 125.496 454.331 127.192 456.715 127.192ZM456.715 125.544C455.659 125.544 454.987 124.856 454.987 123.592V122.04C454.987 120.792 455.659 120.104 456.715 120.104C457.787 120.104 458.459 120.792 458.459 122.04V123.592C458.459 124.856 457.787 125.544 456.715 125.544ZM464.466 127V121.48C464.466 120.584 465.282 120.136 466.13 120.136C467.106 120.136 467.506 120.744 467.506 121.928V127H469.554V121.72C469.554 119.64 468.594 118.456 466.882 118.456C465.586 118.456 464.882 119.144 464.546 120.04H464.466V118.648H462.418V127H464.466Z" fill="#292929"/>
<path d="M638.5 116.05L637.45 115L632.5 119.95L627.55 115L626.5 116.05L631.45 121L626.5 125.95L627.55 127L632.5 122.05L637.45 127L638.5 125.95L633.55 121L638.5 116.05Z" fill="#292929"/>
<path d="M294.766 152V150.964H289.978V147.576H294.486V146.54H289.978V143.264H294.766V142.228H288.802V152H294.766ZM301.335 152H302.455V141.64H301.335V145.952H301.279C300.901 145.042 300.159 144.608 299.165 144.608C297.359 144.608 296.225 146.078 296.225 148.388C296.225 150.698 297.359 152.168 299.165 152.168C300.159 152.168 300.845 151.72 301.279 150.824H301.335V152ZM299.473 151.16C298.213 151.16 297.429 150.292 297.429 149.004V147.772C297.429 146.484 298.213 145.616 299.473 145.616C300.495 145.616 301.335 146.204 301.335 147.002V149.69C301.335 150.628 300.495 151.16 299.473 151.16ZM309.288 152H310.408V144.776H309.288V149.774C309.288 150.726 308.42 151.16 307.538 151.16C306.46 151.16 305.886 150.502 305.886 149.214V144.776H304.766V149.41C304.766 151.16 305.718 152.168 307.202 152.168C308.406 152.168 308.952 151.51 309.232 150.824H309.288V152ZM315.482 152.168C316.854 152.168 317.792 151.496 318.254 150.46L317.442 149.914C317.05 150.74 316.392 151.174 315.482 151.174C314.152 151.174 313.466 150.264 313.466 149.004V147.772C313.466 146.512 314.152 145.602 315.482 145.602C316.364 145.602 316.98 146.036 317.246 146.778L318.184 146.302C317.764 145.308 316.91 144.608 315.482 144.608C313.452 144.608 312.262 146.078 312.262 148.388C312.262 150.698 313.452 152.168 315.482 152.168ZM325.715 152V151.02H324.889V147.044C324.889 145.518 323.853 144.608 322.117 144.608C320.815 144.608 319.947 145.252 319.555 146.022L320.227 146.652C320.619 145.994 321.193 145.574 322.061 145.574C323.209 145.574 323.769 146.134 323.769 147.156V147.87H322.341C320.241 147.87 319.261 148.626 319.261 149.984C319.261 151.328 320.157 152.168 321.683 152.168C322.691 152.168 323.461 151.706 323.769 150.824H323.839C323.923 151.496 324.259 152 325.085 152H325.715ZM321.865 151.216C320.997 151.216 320.437 150.81 320.437 150.096V149.802C320.437 149.102 321.011 148.71 322.285 148.71H323.769V149.9C323.769 150.642 322.971 151.216 321.865 151.216ZM330.309 152V151.02H328.839V145.756H330.421V144.776H328.839V142.774H327.831V144.118C327.831 144.608 327.677 144.776 327.201 144.776H326.529V145.756H327.719V150.81C327.719 151.51 328.139 152 328.909 152H330.309ZM334.883 152.168C336.241 152.168 337.277 151.496 337.739 150.516L336.941 149.942C336.563 150.74 335.863 151.188 334.953 151.188C333.609 151.188 332.811 150.25 332.811 149.004V148.668H338.005V148.136C338.005 146.092 336.815 144.608 334.883 144.608C332.923 144.608 331.635 146.092 331.635 148.388C331.635 150.684 332.923 152.168 334.883 152.168ZM334.883 145.546C336.031 145.546 336.801 146.4 336.801 147.674V147.828H332.811V147.73C332.811 146.47 333.665 145.546 334.883 145.546ZM346.155 152V151.02H344.685V145.756H346.267V144.776H344.685V142.774H343.677V144.118C343.677 144.608 343.523 144.776 343.047 144.776H342.375V145.756H343.565V150.81C343.565 151.51 343.985 152 344.755 152H346.155ZM348.067 152H349.187V146.988C349.187 146.064 350.055 145.616 350.951 145.616C352.029 145.616 352.589 146.274 352.589 147.562V152H353.709V147.366C353.709 145.616 352.771 144.608 351.287 144.608C350.209 144.608 349.593 145.14 349.243 145.952H349.187V141.64H348.067V152ZM358.74 152.168C360.098 152.168 361.134 151.496 361.596 150.516L360.798 149.942C360.42 150.74 359.72 151.188 358.81 151.188C357.466 151.188 356.668 150.25 356.668 149.004V148.668H361.862V148.136C361.862 146.092 360.672 144.608 358.74 144.608C356.78 144.608 355.492 146.092 355.492 148.388C355.492 150.684 356.78 152.168 358.74 152.168ZM358.74 145.546C359.888 145.546 360.658 146.4 360.658 147.674V147.828H356.668V147.73C356.668 146.47 357.522 145.546 358.74 145.546ZM371.468 152H372.588V144.776H371.468V149.774C371.468 150.726 370.6 151.16 369.718 151.16C368.64 151.16 368.066 150.502 368.066 149.214V144.776H366.946V149.41C366.946 151.16 367.898 152.168 369.382 152.168C370.586 152.168 371.132 151.51 371.412 150.824H371.468V152ZM377.143 152.168C378.795 152.168 379.817 151.314 379.817 149.914C379.817 148.822 379.201 148.122 377.605 147.884L377.045 147.8C376.149 147.66 375.659 147.38 375.659 146.68C375.659 145.994 376.149 145.56 377.073 145.56C377.997 145.56 378.613 145.994 378.935 146.442L379.677 145.77C379.089 145.042 378.319 144.608 377.157 144.608C375.687 144.608 374.581 145.308 374.581 146.736C374.581 148.08 375.575 148.626 376.905 148.822L377.479 148.906C378.431 149.046 378.739 149.48 378.739 150.04C378.739 150.782 378.179 151.216 377.227 151.216C376.317 151.216 375.645 150.81 375.085 150.11L374.287 150.754C374.931 151.608 375.813 152.168 377.143 152.168ZM384.511 152.168C385.869 152.168 386.905 151.496 387.367 150.516L386.569 149.942C386.191 150.74 385.491 151.188 384.581 151.188C383.237 151.188 382.439 150.25 382.439 149.004V148.668H387.633V148.136C387.633 146.092 386.443 144.608 384.511 144.608C382.551 144.608 381.263 146.092 381.263 148.388C381.263 150.684 382.551 152.168 384.511 152.168ZM384.511 145.546C385.659 145.546 386.429 146.4 386.429 147.674V147.828H382.439V147.73C382.439 146.47 383.293 145.546 384.511 145.546ZM390.599 152V147.1C390.599 146.414 391.327 145.896 392.531 145.896H393.189V144.776H392.755C391.579 144.776 390.921 145.42 390.669 146.106H390.599V144.776H389.479V152H390.599ZM400.658 152.168C402.59 152.168 403.92 150.684 403.92 148.388C403.92 146.092 402.59 144.608 400.658 144.608C398.726 144.608 397.396 146.092 397.396 148.388C397.396 150.684 398.726 152.168 400.658 152.168ZM400.658 151.174C399.454 151.174 398.6 150.432 398.6 148.906V147.87C398.6 146.344 399.454 145.602 400.658 145.602C401.862 145.602 402.716 146.344 402.716 147.87V148.906C402.716 150.432 401.862 151.174 400.658 151.174ZM406.882 152V146.988C406.882 146.064 407.75 145.616 408.646 145.616C409.724 145.616 410.284 146.274 410.284 147.562V152H411.404V147.366C411.404 145.616 410.466 144.608 408.982 144.608C407.904 144.608 407.288 145.14 406.938 145.952H406.882V144.776H405.762V152H406.882ZM420.024 152V151.02H418.554V145.756H420.136V144.776H418.554V142.774H417.546V144.118C417.546 144.608 417.392 144.776 416.916 144.776H416.244V145.756H417.434V150.81C417.434 151.51 417.854 152 418.624 152H420.024ZM421.936 152H423.056V146.988C423.056 146.064 423.924 145.616 424.82 145.616C425.898 145.616 426.458 146.274 426.458 147.562V152H427.578V147.366C427.578 145.616 426.64 144.608 425.156 144.608C424.078 144.608 423.462 145.14 423.112 145.952H423.056V141.64H421.936V152ZM430.453 143.082C430.929 143.082 431.139 142.83 431.139 142.452V142.27C431.139 141.892 430.929 141.64 430.453 141.64C429.977 141.64 429.767 141.892 429.767 142.27V142.452C429.767 142.83 429.977 143.082 430.453 143.082ZM429.893 152H431.013V144.776H429.893V152ZM435.563 152.168C437.215 152.168 438.237 151.314 438.237 149.914C438.237 148.822 437.621 148.122 436.025 147.884L435.465 147.8C434.569 147.66 434.079 147.38 434.079 146.68C434.079 145.994 434.569 145.56 435.493 145.56C436.417 145.56 437.033 145.994 437.355 146.442L438.097 145.77C437.509 145.042 436.739 144.608 435.577 144.608C434.107 144.608 433.001 145.308 433.001 146.736C433.001 148.08 433.995 148.626 435.325 148.822L435.899 148.906C436.851 149.046 437.159 149.48 437.159 150.04C437.159 150.782 436.599 151.216 435.647 151.216C434.737 151.216 434.065 150.81 433.505 150.11L432.707 150.754C433.351 151.608 434.233 152.168 435.563 152.168ZM449.404 152V151.02H448.578V147.044C448.578 145.518 447.542 144.608 445.806 144.608C444.504 144.608 443.636 145.252 443.244 146.022L443.916 146.652C444.308 145.994 444.882 145.574 445.75 145.574C446.898 145.574 447.458 146.134 447.458 147.156V147.87H446.03C443.93 147.87 442.95 148.626 442.95 149.984C442.95 151.328 443.846 152.168 445.372 152.168C446.38 152.168 447.15 151.706 447.458 150.824H447.528C447.612 151.496 447.948 152 448.774 152H449.404ZM445.554 151.216C444.686 151.216 444.126 150.81 444.126 150.096V149.802C444.126 149.102 444.7 148.71 445.974 148.71H447.458V149.9C447.458 150.642 446.66 151.216 445.554 151.216ZM452.123 152V147.1C452.123 146.414 452.851 145.896 454.055 145.896H454.713V144.776H454.279C453.103 144.776 452.445 145.42 452.193 146.106H452.123V144.776H451.003V152H452.123ZM458.791 152.168C460.149 152.168 461.185 151.496 461.647 150.516L460.849 149.942C460.471 150.74 459.771 151.188 458.861 151.188C457.517 151.188 456.719 150.25 456.719 149.004V148.668H461.913V148.136C461.913 146.092 460.723 144.608 458.791 144.608C456.831 144.608 455.543 146.092 455.543 148.388C455.543 150.684 456.831 152.168 458.791 152.168ZM458.791 145.546C459.939 145.546 460.709 146.4 460.709 147.674V147.828H456.719V147.73C456.719 146.47 457.573 145.546 458.791 145.546ZM469.638 152V151.02H468.812V147.044C468.812 145.518 467.776 144.608 466.04 144.608C464.738 144.608 463.87 145.252 463.478 146.022L464.15 146.652C464.542 145.994 465.116 145.574 465.984 145.574C467.132 145.574 467.692 146.134 467.692 147.156V147.87H466.264C464.164 147.87 463.184 148.626 463.184 149.984C463.184 151.328 464.08 152.168 465.606 152.168C466.614 152.168 467.384 151.706 467.692 150.824H467.762C467.846 151.496 468.182 152 469.008 152H469.638ZM465.788 151.216C464.92 151.216 464.36 150.81 464.36 150.096V149.802C464.36 149.102 464.934 148.71 466.208 148.71H467.692V149.9C467.692 150.642 466.894 151.216 465.788 151.216ZM472.088 150.362C471.5 150.362 471.234 150.698 471.234 151.188V151.384C471.234 151.762 471.402 152.042 471.78 152.126C471.626 152.784 471.29 153.274 470.73 153.862H471.668C472.466 153.176 472.942 152.14 472.942 151.384V151.188C472.942 150.698 472.676 150.362 472.088 150.362ZM483.117 152H484.237V141.64H483.117V145.952H483.061C482.683 145.042 481.941 144.608 480.947 144.608C479.141 144.608 478.007 146.078 478.007 148.388C478.007 150.698 479.141 152.168 480.947 152.168C481.941 152.168 482.627 151.72 483.061 150.824H483.117V152ZM481.255 151.16C479.995 151.16 479.211 150.292 479.211 149.004V147.772C479.211 146.484 479.995 145.616 481.255 145.616C482.277 145.616 483.117 146.204 483.117 147.002V149.69C483.117 150.628 482.277 151.16 481.255 151.16ZM489.334 152.168C490.692 152.168 491.728 151.496 492.19 150.516L491.392 149.942C491.014 150.74 490.314 151.188 489.404 151.188C488.06 151.188 487.262 150.25 487.262 149.004V148.668H492.456V148.136C492.456 146.092 491.266 144.608 489.334 144.608C487.374 144.608 486.086 146.092 486.086 148.388C486.086 150.684 487.374 152.168 489.334 152.168ZM489.334 145.546C490.482 145.546 491.252 146.4 491.252 147.674V147.828H487.262V147.73C487.262 146.47 488.116 145.546 489.334 145.546ZM496.471 152.168C498.123 152.168 499.145 151.314 499.145 149.914C499.145 148.822 498.529 148.122 496.933 147.884L496.373 147.8C495.477 147.66 494.987 147.38 494.987 146.68C494.987 145.994 495.477 145.56 496.401 145.56C497.325 145.56 497.941 145.994 498.263 146.442L499.005 145.77C498.417 145.042 497.647 144.608 496.485 144.608C495.015 144.608 493.909 145.308 493.909 146.736C493.909 148.08 494.903 148.626 496.233 148.822L496.807 148.906C497.759 149.046 498.067 149.48 498.067 150.04C498.067 150.782 497.507 151.216 496.555 151.216C495.645 151.216 494.973 150.81 494.413 150.11L493.615 150.754C494.259 151.608 495.141 152.168 496.471 152.168ZM503.812 152.168C505.184 152.168 506.122 151.496 506.584 150.46L505.772 149.914C505.38 150.74 504.722 151.174 503.812 151.174C502.482 151.174 501.796 150.264 501.796 149.004V147.772C501.796 146.512 502.482 145.602 503.812 145.602C504.694 145.602 505.31 146.036 505.576 146.778L506.514 146.302C506.094 145.308 505.24 144.608 503.812 144.608C501.782 144.608 500.592 146.078 500.592 148.388C500.592 150.698 501.782 152.168 503.812 152.168ZM509.285 152V147.1C509.285 146.414 510.013 145.896 511.217 145.896H511.875V144.776H511.441C510.265 144.776 509.607 145.42 509.355 146.106H509.285V144.776H508.165V152H509.285ZM513.865 143.082C514.341 143.082 514.551 142.83 514.551 142.452V142.27C514.551 141.892 514.341 141.64 513.865 141.64C513.389 141.64 513.179 141.892 513.179 142.27V142.452C513.179 142.83 513.389 143.082 513.865 143.082ZM513.305 152H514.425V144.776H513.305V152ZM516.805 152H517.925V150.824H517.981C518.415 151.72 519.101 152.168 520.095 152.168C521.901 152.168 523.035 150.698 523.035 148.388C523.035 146.078 521.901 144.608 520.095 144.608C519.101 144.608 518.359 145.042 517.981 145.952H517.925V141.64H516.805V152ZM519.787 151.16C518.765 151.16 517.925 150.628 517.925 149.69V147.002C517.925 146.204 518.765 145.616 519.787 145.616C521.047 145.616 521.831 146.484 521.831 147.772V149.004C521.831 150.292 521.047 151.16 519.787 151.16ZM527.642 152.168C529 152.168 530.036 151.496 530.498 150.516L529.7 149.942C529.322 150.74 528.622 151.188 527.712 151.188C526.368 151.188 525.57 150.25 525.57 149.004V148.668H530.764V148.136C530.764 146.092 529.574 144.608 527.642 144.608C525.682 144.608 524.394 146.092 524.394 148.388C524.394 150.684 525.682 152.168 527.642 152.168ZM527.642 145.546C528.79 145.546 529.56 146.4 529.56 147.674V147.828H525.57V147.73C525.57 146.47 526.424 145.546 527.642 145.546ZM537.095 152H538.453L539.461 148.528L540.077 146.33H540.105L540.735 148.528L541.743 152H543.129L545.047 144.776H543.997L543.213 147.898L542.471 151.062H542.443L541.547 147.898L540.609 144.776H539.615L538.705 147.898L537.823 151.062H537.795L537.025 147.898L536.255 144.776H535.163L537.095 152ZM546.665 152H547.785V146.988C547.785 146.064 548.653 145.616 549.549 145.616C550.627 145.616 551.187 146.274 551.187 147.562V152H552.307V147.366C552.307 145.616 551.369 144.608 549.885 144.608C548.807 144.608 548.191 145.14 547.841 145.952H547.785V141.64H546.665V152ZM560.502 152V151.02H559.676V147.044C559.676 145.518 558.64 144.608 556.904 144.608C555.602 144.608 554.734 145.252 554.342 146.022L555.014 146.652C555.406 145.994 555.98 145.574 556.848 145.574C557.996 145.574 558.556 146.134 558.556 147.156V147.87H557.128C555.028 147.87 554.048 148.626 554.048 149.984C554.048 151.328 554.944 152.168 556.47 152.168C557.478 152.168 558.248 151.706 558.556 150.824H558.626C558.71 151.496 559.046 152 559.872 152H560.502ZM556.652 151.216C555.784 151.216 555.224 150.81 555.224 150.096V149.802C555.224 149.102 555.798 148.71 557.072 148.71H558.556V149.9C558.556 150.642 557.758 151.216 556.652 151.216ZM565.096 152V151.02H563.626V145.756H565.208V144.776H563.626V142.774H562.618V144.118C562.618 144.608 562.464 144.776 561.988 144.776H561.316V145.756H562.506V150.81C562.506 151.51 562.926 152 563.696 152H565.096ZM571.437 152V146.988C571.437 146.064 572.305 145.616 573.201 145.616C574.279 145.616 574.839 146.274 574.839 147.562V152H575.959V147.366C575.959 145.616 575.021 144.608 573.537 144.608C572.459 144.608 571.843 145.14 571.493 145.952H571.437V144.776H570.317V152H571.437ZM580.99 152.168C582.348 152.168 583.384 151.496 583.846 150.516L583.048 149.942C582.67 150.74 581.97 151.188 581.06 151.188C579.716 151.188 578.918 150.25 578.918 149.004V148.668H584.112V148.136C584.112 146.092 582.922 144.608 580.99 144.608C579.03 144.608 577.742 146.092 577.742 148.388C577.742 150.684 579.03 152.168 580.99 152.168ZM580.99 145.546C582.138 145.546 582.908 146.4 582.908 147.674V147.828H578.918V147.73C578.918 146.47 579.772 145.546 580.99 145.546ZM588.674 152.168C590.032 152.168 591.068 151.496 591.53 150.516L590.732 149.942C590.354 150.74 589.654 151.188 588.744 151.188C587.4 151.188 586.602 150.25 586.602 149.004V148.668H591.796V148.136C591.796 146.092 590.606 144.608 588.674 144.608C586.714 144.608 585.426 146.092 585.426 148.388C585.426 150.684 586.714 152.168 588.674 152.168ZM588.674 145.546C589.822 145.546 590.592 146.4 590.592 147.674V147.828H586.602V147.73C586.602 146.47 587.456 145.546 588.674 145.546ZM598.261 152H599.381V141.64H598.261V145.952H598.205C597.827 145.042 597.085 144.608 596.091 144.608C594.285 144.608 593.151 146.078 593.151 148.388C593.151 150.698 594.285 152.168 596.091 152.168C597.085 152.168 597.771 151.72 598.205 150.824H598.261V152ZM596.399 151.16C595.139 151.16 594.355 150.292 594.355 149.004V147.772C594.355 146.484 595.139 145.616 596.399 145.616C597.421 145.616 598.261 146.204 598.261 147.002V149.69C598.261 150.628 597.421 151.16 596.399 151.16ZM603.932 152.168C605.584 152.168 606.606 151.314 606.606 149.914C606.606 148.822 605.99 148.122 604.394 147.884L603.834 147.8C602.938 147.66 602.448 147.38 602.448 146.68C602.448 145.994 602.938 145.56 603.862 145.56C604.786 145.56 605.402 145.994 605.724 146.442L606.466 145.77C605.878 145.042 605.108 144.608 603.946 144.608C602.476 144.608 601.37 145.308 601.37 146.736C601.37 148.08 602.364 148.626 603.694 148.822L604.268 148.906C605.22 149.046 605.528 149.48 605.528 150.04C605.528 150.782 604.968 151.216 604.016 151.216C603.106 151.216 602.434 150.81 601.874 150.11L601.076 150.754C601.72 151.608 602.602 152.168 603.932 152.168ZM614.889 152V151.02H613.419V145.756H615.001V144.776H613.419V142.774H612.411V144.118C612.411 144.608 612.257 144.776 611.781 144.776H611.109V145.756H612.299V150.81C612.299 151.51 612.719 152 613.489 152H614.889ZM619.477 152.168C621.409 152.168 622.739 150.684 622.739 148.388C622.739 146.092 621.409 144.608 619.477 144.608C617.545 144.608 616.215 146.092 616.215 148.388C616.215 150.684 617.545 152.168 619.477 152.168ZM619.477 151.174C618.273 151.174 617.419 150.432 617.419 148.906V147.87C617.419 146.344 618.273 145.602 619.477 145.602C620.681 145.602 621.535 146.344 621.535 147.87V148.906C621.535 150.432 620.681 151.174 619.477 151.174ZM627.889 152H629.009V150.824H629.065C629.499 151.72 630.185 152.168 631.179 152.168C632.985 152.168 634.119 150.698 634.119 148.388C634.119 146.078 632.985 144.608 631.179 144.608C630.185 144.608 629.443 145.042 629.065 145.952H629.009V141.64H627.889V152ZM630.871 151.16C629.849 151.16 629.009 150.628 629.009 149.69V147.002C629.009 146.204 629.849 145.616 630.871 145.616C632.131 145.616 632.915 146.484 632.915 147.772V149.004C632.915 150.292 632.131 151.16 630.871 151.16ZM638.726 152.168C640.084 152.168 641.12 151.496 641.582 150.516L640.784 149.942C640.406 150.74 639.706 151.188 638.796 151.188C637.452 151.188 636.654 150.25 636.654 149.004V148.668H641.848V148.136C641.848 146.092 640.658 144.608 638.726 144.608C636.766 144.608 635.478 146.092 635.478 148.388C635.478 150.684 636.766 152.168 638.726 152.168ZM638.726 145.546C639.874 145.546 640.644 146.4 640.644 147.674V147.828H636.654V147.73C636.654 146.47 637.508 145.546 638.726 145.546ZM293.31 172H294.43V161.64H293.31V165.952H293.254C292.876 165.042 292.134 164.608 291.14 164.608C289.334 164.608 288.2 166.078 288.2 168.388C288.2 170.698 289.334 172.168 291.14 172.168C292.134 172.168 292.82 171.72 293.254 170.824H293.31V172ZM291.448 171.16C290.188 171.16 289.404 170.292 289.404 169.004V167.772C289.404 166.484 290.188 165.616 291.448 165.616C292.47 165.616 293.31 166.204 293.31 167.002V169.69C293.31 170.628 292.47 171.16 291.448 171.16ZM299.541 172.168C301.473 172.168 302.803 170.684 302.803 168.388C302.803 166.092 301.473 164.608 299.541 164.608C297.609 164.608 296.279 166.092 296.279 168.388C296.279 170.684 297.609 172.168 299.541 172.168ZM299.541 171.174C298.337 171.174 297.483 170.432 297.483 168.906V167.87C297.483 166.344 298.337 165.602 299.541 165.602C300.745 165.602 301.599 166.344 301.599 167.87V168.906C301.599 170.432 300.745 171.174 299.541 171.174ZM305.765 172V166.988C305.765 166.064 306.633 165.616 307.529 165.616C308.607 165.616 309.167 166.274 309.167 167.562V172H310.287V167.366C310.287 165.616 309.349 164.608 307.865 164.608C306.787 164.608 306.171 165.14 305.821 165.952H305.765V164.776H304.645V172H305.765ZM315.318 172.168C316.676 172.168 317.712 171.496 318.174 170.516L317.376 169.942C316.998 170.74 316.298 171.188 315.388 171.188C314.044 171.188 313.246 170.25 313.246 169.004V168.668H318.44V168.136C318.44 166.092 317.25 164.608 315.318 164.608C313.358 164.608 312.07 166.092 312.07 168.388C312.07 170.684 313.358 172.168 315.318 172.168ZM315.318 165.546C316.466 165.546 317.236 166.4 317.236 167.674V167.828H313.246V167.73C313.246 166.47 314.1 165.546 315.318 165.546ZM329.474 172V171.02H328.648V167.044C328.648 165.518 327.612 164.608 325.876 164.608C324.574 164.608 323.706 165.252 323.314 166.022L323.986 166.652C324.378 165.994 324.952 165.574 325.82 165.574C326.968 165.574 327.528 166.134 327.528 167.156V167.87H326.1C324 167.87 323.02 168.626 323.02 169.984C323.02 171.328 323.916 172.168 325.442 172.168C326.45 172.168 327.22 171.706 327.528 170.824H327.598C327.682 171.496 328.018 172 328.844 172H329.474ZM325.624 171.216C324.756 171.216 324.196 170.81 324.196 170.096V169.802C324.196 169.102 324.77 168.71 326.044 168.71H327.528V169.9C327.528 170.642 326.73 171.216 325.624 171.216ZM332.193 172V166.988C332.193 166.064 333.061 165.616 333.957 165.616C335.035 165.616 335.595 166.274 335.595 167.562V172H336.715V167.366C336.715 165.616 335.777 164.608 334.293 164.608C333.215 164.608 332.599 165.14 332.249 165.952H332.193V164.776H331.073V172H332.193ZM343.65 172H344.77V161.64H343.65V165.952H343.594C343.216 165.042 342.474 164.608 341.48 164.608C339.674 164.608 338.54 166.078 338.54 168.388C338.54 170.698 339.674 172.168 341.48 172.168C342.474 172.168 343.16 171.72 343.594 170.824H343.65V172ZM341.788 171.16C340.528 171.16 339.744 170.292 339.744 169.004V167.772C339.744 166.484 340.528 165.616 341.788 165.616C342.81 165.616 343.65 166.204 343.65 167.002V169.69C343.65 170.628 342.81 171.16 341.788 171.16ZM350.46 172H351.58V166.988C351.58 166.064 352.448 165.616 353.344 165.616C354.422 165.616 354.982 166.274 354.982 167.562V172H356.102V167.366C356.102 165.616 355.164 164.608 353.68 164.608C352.602 164.608 351.986 165.14 351.636 165.952H351.58V161.64H350.46V172ZM361.147 172.168C363.079 172.168 364.409 170.684 364.409 168.388C364.409 166.092 363.079 164.608 361.147 164.608C359.215 164.608 357.885 166.092 357.885 168.388C357.885 170.684 359.215 172.168 361.147 172.168ZM361.147 171.174C359.943 171.174 359.089 170.432 359.089 168.906V167.87C359.089 166.344 359.943 165.602 361.147 165.602C362.351 165.602 363.205 166.344 363.205 167.87V168.906C363.205 170.432 362.351 171.174 361.147 171.174ZM367.358 172H368.716L369.724 168.528L370.34 166.33H370.368L370.998 168.528L372.006 172H373.392L375.31 164.776H374.26L373.476 167.898L372.734 171.062H372.706L371.81 167.898L370.872 164.776H369.878L368.968 167.898L368.086 171.062H368.058L367.288 167.898L366.518 164.776H365.426L367.358 172ZM383.233 172V171.02H381.763V165.756H383.345V164.776H381.763V162.774H380.755V164.118C380.755 164.608 380.601 164.776 380.125 164.776H379.453V165.756H380.643V170.81C380.643 171.51 381.063 172 381.833 172H383.233ZM387.82 172.168C389.752 172.168 391.082 170.684 391.082 168.388C391.082 166.092 389.752 164.608 387.82 164.608C385.888 164.608 384.558 166.092 384.558 168.388C384.558 170.684 385.888 172.168 387.82 172.168ZM387.82 171.174C386.616 171.174 385.762 170.432 385.762 168.906V167.87C385.762 166.344 386.616 165.602 387.82 165.602C389.024 165.602 389.878 166.344 389.878 167.87V168.906C389.878 170.432 389.024 171.174 387.82 171.174ZM402.113 172V171.02H401.287V167.044C401.287 165.518 400.251 164.608 398.515 164.608C397.213 164.608 396.345 165.252 395.953 166.022L396.625 166.652C397.017 165.994 397.591 165.574 398.459 165.574C399.607 165.574 400.167 166.134 400.167 167.156V167.87H398.739C396.639 167.87 395.659 168.626 395.659 169.984C395.659 171.328 396.555 172.168 398.081 172.168C399.089 172.168 399.859 171.706 400.167 170.824H400.237C400.321 171.496 400.657 172 401.483 172H402.113ZM398.263 171.216C397.395 171.216 396.835 170.81 396.835 170.096V169.802C396.835 169.102 397.409 168.71 398.683 168.71H400.167V169.9C400.167 170.642 399.369 171.216 398.263 171.216ZM403.711 174.8H404.831V170.824H404.887C405.321 171.72 406.007 172.168 407.001 172.168C408.807 172.168 409.941 170.698 409.941 168.388C409.941 166.078 408.807 164.608 407.001 164.608C406.007 164.608 405.265 165.042 404.887 165.952H404.831V164.776H403.711V174.8ZM406.693 171.16C405.671 171.16 404.831 170.628 404.831 169.69V167.002C404.831 166.204 405.671 165.616 406.693 165.616C407.953 165.616 408.737 166.484 408.737 167.772V169.004C408.737 170.292 407.953 171.16 406.693 171.16ZM411.833 174.8H412.953V170.824H413.009C413.443 171.72 414.129 172.168 415.123 172.168C416.929 172.168 418.063 170.698 418.063 168.388C418.063 166.078 416.929 164.608 415.123 164.608C414.129 164.608 413.387 165.042 413.009 165.952H412.953V164.776H411.833V174.8ZM414.815 171.16C413.793 171.16 412.953 170.628 412.953 169.69V167.002C412.953 166.204 413.793 165.616 414.815 165.616C416.075 165.616 416.859 166.484 416.859 167.772V169.004C416.859 170.292 416.075 171.16 414.815 171.16ZM421.074 172V167.1C421.074 166.414 421.802 165.896 423.006 165.896H423.664V164.776H423.23C422.054 164.776 421.396 165.42 421.144 166.106H421.074V164.776H419.954V172H421.074ZM427.756 172.168C429.688 172.168 431.018 170.684 431.018 168.388C431.018 166.092 429.688 164.608 427.756 164.608C425.824 164.608 424.494 166.092 424.494 168.388C424.494 170.684 425.824 172.168 427.756 172.168ZM427.756 171.174C426.552 171.174 425.698 170.432 425.698 168.906V167.87C425.698 166.344 426.552 165.602 427.756 165.602C428.96 165.602 429.814 166.344 429.814 167.87V168.906C429.814 170.432 428.96 171.174 427.756 171.174ZM438.74 172V171.02H437.914V167.044C437.914 165.518 436.878 164.608 435.142 164.608C433.84 164.608 432.972 165.252 432.58 166.022L433.252 166.652C433.644 165.994 434.218 165.574 435.086 165.574C436.234 165.574 436.794 166.134 436.794 167.156V167.87H435.366C433.266 167.87 432.286 168.626 432.286 169.984C432.286 171.328 433.182 172.168 434.708 172.168C435.716 172.168 436.486 171.706 436.794 170.824H436.864C436.948 171.496 437.284 172 438.11 172H438.74ZM434.89 171.216C434.022 171.216 433.462 170.81 433.462 170.096V169.802C433.462 169.102 434.036 168.71 435.31 168.71H436.794V169.9C436.794 170.642 435.996 171.216 434.89 171.216ZM443.026 172.168C444.398 172.168 445.336 171.496 445.798 170.46L444.986 169.914C444.594 170.74 443.936 171.174 443.026 171.174C441.696 171.174 441.01 170.264 441.01 169.004V167.772C441.01 166.512 441.696 165.602 443.026 165.602C443.908 165.602 444.524 166.036 444.79 166.778L445.728 166.302C445.308 165.308 444.454 164.608 443.026 164.608C440.996 164.608 439.806 166.078 439.806 168.388C439.806 170.698 440.996 172.168 443.026 172.168ZM447.379 172H448.499V166.988C448.499 166.064 449.367 165.616 450.263 165.616C451.341 165.616 451.901 166.274 451.901 167.562V172H453.021V167.366C453.021 165.616 452.083 164.608 450.599 164.608C449.521 164.608 448.905 165.14 448.555 165.952H448.499V161.64H447.379V172ZM459.205 163.082C459.681 163.082 459.891 162.83 459.891 162.452V162.27C459.891 161.892 459.681 161.64 459.205 161.64C458.729 161.64 458.519 161.892 458.519 162.27V162.452C458.519 162.83 458.729 163.082 459.205 163.082ZM458.645 172H459.765V164.776H458.645V172ZM465.141 172V171.02H463.671V165.756H465.253V164.776H463.671V162.774H462.663V164.118C462.663 164.608 462.509 164.776 462.033 164.776H461.361V165.756H462.551V170.81C462.551 171.51 462.971 172 463.741 172H465.141ZM467.767 172.168C468.355 172.168 468.621 171.832 468.621 171.356V171.174C468.621 170.698 468.355 170.362 467.767 170.362C467.179 170.362 466.913 170.698 466.913 171.174V171.356C466.913 171.832 467.179 172.168 467.767 172.168Z" fill="#292929"/>
<rect x="287.5" y="193" width="82" height="48" rx="4" fill="#292929"/>
<path d="M305.048 223H310.488C312.136 223 313.368 221.592 313.368 219.784C313.368 217.912 311.944 217.208 311.032 217.176V217.08C311.944 217 312.968 216.392 312.968 214.712C312.968 212.968 311.832 211.832 309.992 211.832H305.048V223ZM306.856 218.056H309.96C310.888 218.056 311.464 218.568 311.464 219.48V220.024C311.464 220.936 310.888 221.448 309.96 221.448H306.856V218.056ZM306.856 213.384H309.656C310.536 213.384 311.064 213.864 311.064 214.712V215.224C311.064 216.072 310.536 216.552 309.656 216.552H306.856V213.384ZM320.507 223H322.251V214.68H320.507V220.248C320.507 221.224 319.627 221.688 318.731 221.688C317.659 221.688 317.131 221.016 317.131 219.752V214.68H315.387V219.976C315.387 222.024 316.395 223.192 318.107 223.192C319.483 223.192 320.139 222.44 320.443 221.624H320.507V223ZM328.572 223V221.576H326.956V216.104H328.7V214.68H326.956V212.408H325.388V213.864C325.388 214.44 325.196 214.68 324.62 214.68H323.916V216.104H325.212V221.192C325.212 222.328 325.852 223 327.052 223H328.572ZM334.306 223V221.576H332.69V216.104H334.434V214.68H332.69V212.408H331.122V213.864C331.122 214.44 330.93 214.68 330.354 214.68H329.65V216.104H330.946V221.192C330.946 222.328 331.586 223 332.786 223H334.306ZM339.528 223.192C341.848 223.192 343.352 221.496 343.352 218.84C343.352 216.184 341.848 214.488 339.528 214.488C337.208 214.488 335.704 216.184 335.704 218.84C335.704 221.496 337.208 223.192 339.528 223.192ZM339.528 221.752C338.344 221.752 337.544 221.016 337.544 219.544V218.136C337.544 216.664 338.344 215.928 339.528 215.928C340.712 215.928 341.512 216.664 341.512 218.136V219.544C341.512 221.016 340.712 221.752 339.528 221.752ZM347.039 223V217.432C347.039 216.456 347.935 215.992 348.847 215.992C349.919 215.992 350.415 216.648 350.415 217.944V223H352.159V217.72C352.159 215.672 351.151 214.488 349.455 214.488C348.175 214.488 347.471 215.16 347.119 216.056H347.039V214.68H345.295V223H347.039Z" fill="white"/>
<path d="M403.048 223H408.488C410.136 223 411.368 221.592 411.368 219.784C411.368 217.912 409.944 217.208 409.032 217.176V217.08C409.944 217 410.968 216.392 410.968 214.712C410.968 212.968 409.832 211.832 407.992 211.832H403.048V223ZM404.856 218.056H407.96C408.888 218.056 409.464 218.568 409.464 219.48V220.024C409.464 220.936 408.888 221.448 407.96 221.448H404.856V218.056ZM404.856 213.384H407.656C408.536 213.384 409.064 213.864 409.064 214.712V215.224C409.064 216.072 408.536 216.552 407.656 216.552H404.856V213.384ZM418.507 223H420.251V214.68H418.507V220.248C418.507 221.224 417.627 221.688 416.731 221.688C415.659 221.688 415.131 221.016 415.131 219.752V214.68H413.387V219.976C413.387 222.024 414.395 223.192 416.107 223.192C417.483 223.192 418.139 222.44 418.443 221.624H418.507V223ZM426.572 223V221.576H424.956V216.104H426.7V214.68H424.956V212.408H423.388V213.864C423.388 214.44 423.196 214.68 422.62 214.68H421.916V216.104H423.212V221.192C423.212 222.328 423.852 223 425.052 223H426.572ZM432.306 223V221.576H430.69V216.104H432.434V214.68H430.69V212.408H429.122V213.864C429.122 214.44 428.93 214.68 428.354 214.68H427.65V216.104H428.946V221.192C428.946 222.328 429.586 223 430.786 223H432.306ZM437.528 223.192C439.848 223.192 441.352 221.496 441.352 218.84C441.352 216.184 439.848 214.488 437.528 214.488C435.208 214.488 433.704 216.184 433.704 218.84C433.704 221.496 435.208 223.192 437.528 223.192ZM437.528 221.752C436.344 221.752 435.544 221.016 435.544 219.544V218.136C435.544 216.664 436.344 215.928 437.528 215.928C438.712 215.928 439.512 216.664 439.512 218.136V219.544C439.512 221.016 438.712 221.752 437.528 221.752ZM445.039 223V217.432C445.039 216.456 445.935 215.992 446.847 215.992C447.919 215.992 448.415 216.648 448.415 217.944V223H450.159V217.72C450.159 215.672 449.151 214.488 447.455 214.488C446.175 214.488 445.471 215.16 445.119 216.056H445.039V214.68H443.295V223H445.039Z" fill="#292929"/>
<rect x="386" y="193.5" width="81" height="47" rx="3.5" stroke="black" stroke-opacity="0.102"/>
<path d="M491.2 213.264V212.228H483.808V213.264H486.916V222H488.092V213.264H491.2ZM494.502 222.168C495.86 222.168 496.896 221.496 497.358 220.516L496.56 219.942C496.182 220.74 495.482 221.188 494.572 221.188C493.228 221.188 492.43 220.25 492.43 219.004V218.668H497.624V218.136C497.624 216.092 496.434 214.608 494.502 214.608C492.542 214.608 491.254 216.092 491.254 218.388C491.254 220.684 492.542 222.168 494.502 222.168ZM494.502 215.546C495.65 215.546 496.42 216.4 496.42 217.674V217.828H492.43V217.73C492.43 216.47 493.284 215.546 494.502 215.546ZM498.409 222H499.655L501.685 219.172H501.727L503.603 222H504.919L502.315 218.276L504.863 214.776H503.617L501.713 217.464H501.671L499.837 214.776H498.521L501.083 218.36L498.409 222ZM509.397 222V221.02H507.927V215.756H509.509V214.776H507.927V212.774H506.919V214.118C506.919 214.608 506.765 214.776 506.289 214.776H505.617V215.756H506.807V220.81C506.807 221.51 507.227 222 507.997 222H509.397ZM520.064 222V220.964H515.906V212.228H514.73V222H520.064ZM522.191 213.082C522.667 213.082 522.877 212.83 522.877 212.452V212.27C522.877 211.892 522.667 211.64 522.191 211.64C521.715 211.64 521.505 211.892 521.505 212.27V212.452C521.505 212.83 521.715 213.082 522.191 213.082ZM521.631 222H522.751V214.776H521.631V222ZM526.251 222V216.988C526.251 216.064 527.119 215.616 528.015 215.616C529.093 215.616 529.653 216.274 529.653 217.562V222H530.773V217.366C530.773 215.616 529.835 214.608 528.351 214.608C527.273 214.608 526.657 215.14 526.307 215.952H526.251V214.776H525.131V222H526.251ZM533.088 222H534.208V219.424L535.286 218.318L537.68 222H539.038L536.098 217.632L538.772 214.776H537.414L535.37 216.974L534.264 218.206H534.208V211.64H533.088V222Z" fill="#292929"/>
<path d="M483.5 223.75H539.276V224.59H483.5V223.75Z" fill="#292929"/>
<rect x="181.5" y="135" width="24" height="24" rx="12" fill="#6E04C1"/>
<path d="M195.415 152V150.219H196.728V149.309H195.415V142.926H193.79L189.994 149.257V150.219H194.375V152H195.415ZM194.31 143.771H194.375V149.309H191.021L194.31 143.771Z" fill="white"/>
<line x1="204.5" y1="147.5" x2="283.5" y2="147.5" stroke="#6E04C1"/>
<rect x="181.5" y="205" width="24" height="24" rx="12" fill="#6E04C1"/>
<path d="M195.974 212.926H191.112L190.787 217.918L191.71 218.048C192.087 217.632 192.503 217.281 193.335 217.281C194.57 217.281 195.233 217.97 195.233 219.166V219.296C195.233 220.492 194.57 221.181 193.335 221.181C192.243 221.181 191.788 220.7 191.32 219.985L190.501 220.609C191.047 221.389 191.827 222.156 193.335 222.156C195.246 222.156 196.39 220.921 196.39 219.153C196.39 217.398 195.246 216.345 193.686 216.345C192.737 216.345 192.256 216.735 191.827 217.346H191.736L191.996 213.888H195.974V212.926Z" fill="white"/>
<line x1="204.5" y1="217.5" x2="287.5" y2="217.5" stroke="#6E04C1"/>
<rect x="676.5" y="206" width="24" height="24" rx="12" fill="#6E04C1"/>
<path d="M687.945 223L691.351 214.888V213.926H685.397V216.552H686.372V214.862H690.246L686.775 223H687.945Z" fill="white"/>
<line x1="543.5" y1="218.5" x2="677.5" y2="218.5" stroke="#6E04C1"/>
<rect x="676.5" y="169" width="24" height="24" rx="12" fill="#6E04C1"/>
<path d="M688.413 186.156C690.233 186.156 691.429 184.934 691.429 183.153C691.429 181.437 690.311 180.358 688.751 180.358C687.646 180.358 686.996 180.917 686.567 181.658L686.502 181.632C686.996 179.526 688.075 178.343 690.012 176.926H688.608C687.152 177.875 685.371 179.981 685.371 182.672C685.371 184.83 686.528 186.156 688.413 186.156ZM688.4 185.207C687.204 185.207 686.502 184.518 686.502 183.296V183.192C686.502 181.97 687.204 181.281 688.4 181.281C689.596 181.281 690.298 181.97 690.298 183.192V183.296C690.298 184.518 689.596 185.207 688.4 185.207Z" fill="white"/>
<path d="M677.5 181.5L431.5 181.5C429.291 181.5 427.5 183.291 427.5 185.5V193" stroke="#6E04C1"/>
<rect x="294.5" y="56" width="24" height="24" rx="12" fill="#6E04C1"/>
<path d="M309.429 72.038H304.658L307.102 69.841C308.259 68.801 309.091 67.813 309.091 66.409C309.091 64.862 308.077 63.77 306.309 63.77C304.554 63.77 303.748 64.836 303.397 65.902L304.372 66.279C304.619 65.421 305.139 64.745 306.257 64.745C307.375 64.745 307.934 65.434 307.934 66.435V66.591C307.934 67.462 307.284 68.372 306.439 69.152L303.475 71.882V73H309.429V72.038Z" fill="white"/>
<line x1="306" y1="113" x2="306" y2="78" stroke="#8000E4"/>
<rect x="620.5" y="56" width="24" height="24" rx="12" fill="#6E04C1"/>
<path d="M630.905 67.774V68.723H631.971C633.245 68.723 633.921 69.334 633.921 70.4V70.504C633.921 71.57 633.245 72.181 631.971 72.181C630.866 72.181 630.333 71.7 629.865 70.985L629.046 71.609C629.605 72.389 630.411 73.156 631.984 73.156C633.83 73.156 635.065 72.077 635.065 70.517C635.065 69.152 634.129 68.424 633.154 68.229V68.177C634.116 67.93 634.896 67.228 634.896 66.058C634.896 64.589 633.674 63.77 632.14 63.77C630.684 63.77 629.891 64.524 629.436 65.252L630.242 65.876C630.619 65.187 631.178 64.745 632.114 64.745C633.076 64.745 633.739 65.226 633.739 66.175V66.266C633.739 67.137 633.115 67.774 631.893 67.774H630.905Z" fill="white"/>
<line x1="632" y1="113" x2="632" y2="78" stroke="#8000E4"/>
<rect x="244.5" y="56" width="24" height="24" rx="12" fill="#6E04C1"/>
<path d="M259.611 73V72.038H257.271V63.926H255.568L253.163 66.175L253.8 66.864L256.088 64.732H256.179V72.038H253.644V73H259.611Z" fill="white"/>
<line x1="256" y1="113" x2="256" y2="78" stroke="#8000E4"/>
<rect x="0.5" y="0.5" width="881" height="312" rx="3.5" stroke="#E5E5E5"/>
</svg>
