<svg width="882" height="230" viewBox="0 0 882 230" fill="none" xmlns="http://www.w3.org/2000/svg">
<rect x="0.5" y="0.5" width="881" height="229" rx="3.5" fill="#F8F8F8"/>
<rect x="417" y="115" width="48" height="48" rx="4" fill="#7935D2"/>
<path d="M449.75 139C449.754 137.072 449.123 135.197 447.955 133.664C446.786 132.131 445.146 131.026 443.286 130.519C441.426 130.013 439.451 130.133 437.667 130.861C435.882 131.589 434.387 132.885 433.413 134.549C432.439 136.212 432.04 138.15 432.278 140.062C432.516 141.975 433.377 143.756 434.729 145.13C436.08 146.504 437.847 147.395 439.756 147.664C441.664 147.933 443.608 147.566 445.287 146.62L445.36 146.635L445.376 146.566C446.704 145.799 447.808 144.696 448.575 143.368C449.343 142.04 449.748 140.534 449.75 139V139ZM433.5 139C433.502 138.367 433.585 137.737 433.747 137.125H436.399L439.519 139.725L438.325 141.316C438.146 141.557 438.059 141.855 438.08 142.155C438.102 142.454 438.23 142.737 438.441 142.95L439.75 144.259V146.387C438.004 146.091 436.419 145.187 435.276 143.835C434.132 142.483 433.503 140.771 433.5 139V139ZM439.325 142.066L441.231 139.525L436.851 135.875H434.191C434.647 134.875 435.318 133.987 436.156 133.276C436.994 132.565 437.979 132.047 439.04 131.76C440.101 131.472 441.212 131.423 442.295 131.614C443.377 131.805 444.404 132.233 445.302 132.866L444.925 134H441.366L439.464 135.902L445.31 141.098L444.28 145.734C443.26 146.237 442.137 146.499 441 146.5V143.741L439.325 142.066ZM445.772 144.781L446.53 141.369C446.578 141.152 446.568 140.925 446.499 140.714C446.431 140.502 446.307 140.312 446.14 140.164L441.286 135.848L441.884 135.25H444.925C445.187 135.25 445.443 135.168 445.656 135.014C445.869 134.861 446.028 134.644 446.11 134.395L446.331 133.733C447.064 134.472 447.635 135.356 448.006 136.329C448.378 137.301 448.543 138.341 448.49 139.38C448.438 140.42 448.169 141.438 447.701 142.368C447.233 143.298 446.576 144.12 445.772 144.781H445.772Z" fill="white"/>
<rect x="429" y="67" width="24" height="24" rx="12" fill="#6E04C1"/>
<path d="M444.111 84V83.038H441.771V74.926H440.068L437.663 77.175L438.3 77.864L440.588 75.732H440.679V83.038H438.144V84H444.111Z" fill="white"/>
<line x1="440.5" y1="91" x2="440.5" y2="115" stroke="#8000E4"/>
<rect x="0.5" y="0.5" width="881" height="229" rx="3.5" stroke="#E5E5E5"/>
</svg>
