<svg width="882" height="230" viewBox="0 0 882 230" fill="none" xmlns="http://www.w3.org/2000/svg">
<rect x="0.5" y="0.5" width="881" height="229" rx="3.5" fill="#F8F8F8"/>
<path d="M121.996 87.5V83.776H124.544C126.35 83.776 127.442 82.572 127.442 80.752C127.442 78.946 126.35 77.728 124.544 77.728H120.148V87.5H121.996ZM121.996 79.338H124.376C125.09 79.338 125.524 79.716 125.524 80.43V81.074C125.524 81.788 125.09 82.18 124.376 82.18H121.996V79.338ZM129.005 87.5H130.797V82.67C130.797 81.886 131.511 81.494 132.253 81.494C133.107 81.494 133.457 82.026 133.457 83.062V87.5H135.249V82.88C135.249 81.06 134.409 80.024 132.911 80.024C131.777 80.024 131.161 80.626 130.867 81.41H130.797V77.14H129.005V87.5ZM140.133 87.668C142.233 87.668 143.535 86.184 143.535 83.832C143.535 81.494 142.233 80.024 140.133 80.024C138.047 80.024 136.745 81.494 136.745 83.832C136.745 86.184 138.047 87.668 140.133 87.668ZM140.133 86.226C139.209 86.226 138.621 85.624 138.621 84.518V83.16C138.621 82.068 139.209 81.466 140.133 81.466C141.071 81.466 141.659 82.068 141.659 83.16V84.518C141.659 85.624 141.071 86.226 140.133 86.226ZM146.916 87.5V82.67C146.916 81.886 147.63 81.494 148.372 81.494C149.226 81.494 149.576 82.026 149.576 83.062V87.5H151.368V82.88C151.368 81.06 150.528 80.024 149.03 80.024C147.896 80.024 147.28 80.626 146.986 81.41H146.916V80.192H145.124V87.5H146.916ZM156.308 87.668C157.666 87.668 158.73 87.15 159.332 86.324L158.366 85.246C157.918 85.82 157.386 86.24 156.504 86.24C155.328 86.24 154.726 85.526 154.726 84.476V84.294H159.584V83.706C159.584 81.704 158.534 80.024 156.252 80.024C154.11 80.024 152.864 81.522 152.864 83.832C152.864 86.17 154.152 87.668 156.308 87.668ZM156.28 81.368C157.204 81.368 157.722 82.054 157.722 83.062V83.188H154.726V83.076C154.726 82.068 155.342 81.368 156.28 81.368ZM166.262 87.5V82.67C166.262 81.886 166.976 81.494 167.718 81.494C168.572 81.494 168.922 82.026 168.922 83.062V87.5H170.714V82.88C170.714 81.06 169.874 80.024 168.376 80.024C167.242 80.024 166.626 80.626 166.332 81.41H166.262V80.192H164.47V87.5H166.262ZM177.068 87.5H178.86V80.192H177.068V85.022C177.068 85.806 176.354 86.184 175.64 86.184C174.786 86.184 174.408 85.638 174.408 84.63V80.192H172.616V84.812C172.616 86.632 173.456 87.668 174.954 87.668C176.158 87.668 176.746 87.01 176.998 86.282H177.068V87.5ZM182.723 87.5V82.67C182.723 81.886 183.395 81.494 184.081 81.494C184.879 81.494 185.257 82.012 185.257 83.062V87.5H187.049V82.67C187.049 81.886 187.707 81.494 188.407 81.494C189.205 81.494 189.583 82.012 189.583 83.062V87.5H191.375V82.88C191.375 81.06 190.563 80.024 189.135 80.024C187.973 80.024 187.161 80.682 186.895 81.494H186.867C186.517 80.514 185.747 80.024 184.753 80.024C183.661 80.024 183.073 80.64 182.793 81.41H182.723V80.192H180.931V87.5H182.723ZM193.358 87.5H195.15V86.282H195.206C195.486 87.108 196.256 87.668 197.222 87.668C199.07 87.668 200.092 86.282 200.092 83.832C200.092 81.396 199.07 80.024 197.222 80.024C196.256 80.024 195.472 80.556 195.206 81.396H195.15V77.14H193.358V87.5ZM196.648 86.184C195.794 86.184 195.15 85.75 195.15 84.994V82.67C195.15 81.956 195.794 81.494 196.648 81.494C197.572 81.494 198.216 82.18 198.216 83.216V84.476C198.216 85.512 197.572 86.184 196.648 86.184ZM204.707 87.668C206.065 87.668 207.129 87.15 207.731 86.324L206.765 85.246C206.317 85.82 205.785 86.24 204.903 86.24C203.727 86.24 203.125 85.526 203.125 84.476V84.294H207.983V83.706C207.983 81.704 206.933 80.024 204.651 80.024C202.509 80.024 201.263 81.522 201.263 83.832C201.263 86.17 202.551 87.668 204.707 87.668ZM204.679 81.368C205.603 81.368 206.121 82.054 206.121 83.062V83.188H203.125V83.076C203.125 82.068 203.741 81.368 204.679 81.368ZM211.351 87.5V83.02C211.351 82.222 211.981 81.886 213.185 81.886H213.745V80.192H213.353C212.191 80.192 211.603 80.934 211.421 81.704H211.351V80.192H209.559V87.5H211.351Z" fill="#292929"/>
<rect x="119" y="100.5" width="283" height="48" rx="4" fill="white"/>
<g clip-path="url(#clip0_4528_120841)">
<g clip-path="url(#clip1_4528_120841)">
<rect x="135" y="114.5" width="28" height="20" rx="2" fill="white"/>
<path fill-rule="evenodd" clip-rule="evenodd" d="M135 114.5H143.909V134.5H135V114.5Z" fill="#1A47B8"/>
<path fill-rule="evenodd" clip-rule="evenodd" d="M154.091 114.5H163V134.5H154.091V114.5Z" fill="#F93939"/>
</g>
</g>
<path d="M172.408 129.508V126.164H175.528V125.076H172.408V121.732H171.192V125.076H168.072V126.164H171.192V129.508H172.408ZM179.554 124.068V125.236H180.866C182.434 125.236 183.266 125.988 183.266 127.3V127.428C183.266 128.74 182.434 129.492 180.866 129.492C179.506 129.492 178.85 128.9 178.274 128.02L177.266 128.788C177.954 129.748 178.946 130.692 180.882 130.692C183.154 130.692 184.674 129.364 184.674 127.444C184.674 125.764 183.522 124.868 182.322 124.628V124.564C183.506 124.26 184.466 123.396 184.466 121.956C184.466 120.148 182.962 119.14 181.074 119.14C179.282 119.14 178.306 120.068 177.746 120.964L178.738 121.732C179.202 120.884 179.89 120.34 181.042 120.34C182.226 120.34 183.042 120.932 183.042 122.1V122.212C183.042 123.284 182.274 124.068 180.77 124.068H179.554ZM189.148 124.068V125.236H190.46C192.028 125.236 192.86 125.988 192.86 127.3V127.428C192.86 128.74 192.028 129.492 190.46 129.492C189.1 129.492 188.444 128.9 187.868 128.02L186.86 128.788C187.548 129.748 188.539 130.692 190.476 130.692C192.748 130.692 194.267 129.364 194.267 127.444C194.267 125.764 193.116 124.868 191.916 124.628V124.564C193.1 124.26 194.06 123.396 194.06 121.956C194.06 120.148 192.556 119.14 190.668 119.14C188.876 119.14 187.9 120.068 187.34 120.964L188.332 121.732C188.796 120.884 189.484 120.34 190.636 120.34C191.82 120.34 192.636 120.932 192.636 122.1V122.212C192.636 123.284 191.868 124.068 190.364 124.068H189.148Z" fill="#292929"/>
<path d="M204.384 130.5H205.92L208.848 125.812H208.88L211.808 130.5H213.424L209.744 124.772L213.328 119.332H211.792L208.928 123.78H208.896L206.096 119.332H204.48L208.032 124.82L204.384 130.5ZM214.197 130.5H215.733L218.661 125.812H218.693L221.621 130.5H223.237L219.557 124.772L223.141 119.332H221.605L218.741 123.78H218.709L215.909 119.332H214.293L217.845 124.82L214.197 130.5ZM224.009 130.5H225.545L228.473 125.812H228.505L231.433 130.5H233.049L229.369 124.772L232.953 119.332H231.417L228.553 123.78H228.521L225.721 119.332H224.105L227.657 124.82L224.009 130.5ZM233.822 130.5H235.358L238.286 125.812H238.318L241.246 130.5H242.862L239.182 124.772L242.766 119.332H241.23L238.366 123.78H238.334L235.534 119.332H233.918L237.47 124.82L233.822 130.5ZM247.415 130.5H248.951L251.879 125.812H251.911L254.839 130.5H256.455L252.775 124.772L256.359 119.332H254.823L251.959 123.78H251.927L249.127 119.332H247.511L251.063 124.82L247.415 130.5ZM257.228 130.5H258.764L261.692 125.812H261.724L264.652 130.5H266.268L262.588 124.772L266.172 119.332H264.636L261.772 123.78H261.74L258.94 119.332H257.324L260.876 124.82L257.228 130.5ZM267.04 130.5H268.576L271.504 125.812H271.536L274.464 130.5H276.08L272.4 124.772L275.984 119.332H274.448L271.584 123.78H271.552L268.752 119.332H267.136L270.688 124.82L267.04 130.5ZM280.634 130.5H282.17L285.098 125.812H285.13L288.058 130.5H289.674L285.994 124.772L289.578 119.332H288.042L285.178 123.78H285.146L282.346 119.332H280.73L284.282 124.82L280.634 130.5ZM290.447 130.5H291.983L294.911 125.812H294.943L297.871 130.5H299.487L295.807 124.772L299.391 119.332H297.855L294.991 123.78H294.959L292.159 119.332H290.543L294.095 124.82L290.447 130.5ZM300.259 130.5H301.795L304.723 125.812H304.755L307.683 130.5H309.299L305.619 124.772L309.203 119.332H307.667L304.803 123.78H304.771L301.971 119.332H300.355L303.907 124.82L300.259 130.5ZM310.072 130.5H311.608L314.536 125.812H314.568L317.496 130.5H319.112L315.432 124.772L319.016 119.332H317.48L314.616 123.78H314.584L311.784 119.332H310.168L313.72 124.82L310.072 130.5Z" fill="#BFBFBF"/>
<rect x="119.5" y="101" width="282" height="47" rx="3.5" stroke="black" stroke-opacity="0.102"/>
<rect x="124" y="39.5" width="24" height="24" rx="12" fill="#6E04C1"/>
<path d="M139.111 56.5V55.538H136.771V47.426H135.068L132.663 49.675L133.3 50.364L135.588 48.232H135.679V55.538H133.144V56.5H139.111Z" fill="white"/>
<line x1="135.5" y1="63.5" x2="135.5" y2="75.5" stroke="#6E04C1"/>
<rect x="137" y="166.5" width="24" height="24" rx="12" fill="#6E04C1"/>
<path d="M151.929 182.538H147.158L149.602 180.341C150.759 179.301 151.591 178.313 151.591 176.909C151.591 175.362 150.577 174.27 148.809 174.27C147.054 174.27 146.248 175.336 145.897 176.402L146.872 176.779C147.119 175.921 147.639 175.245 148.757 175.245C149.875 175.245 150.434 175.934 150.434 176.935V177.091C150.434 177.962 149.784 178.872 148.939 179.652L145.975 182.382V183.5H151.929V182.538Z" fill="white"/>
<line x1="148.5" y1="134.5" x2="148.5" y2="169.5" stroke="#6E04C1"/>
<rect x="171" y="166.5" width="24" height="24" rx="12" fill="#6E04C1"/>
<path d="M181.405 178.274V179.223H182.471C183.745 179.223 184.421 179.834 184.421 180.9V181.004C184.421 182.07 183.745 182.681 182.471 182.681C181.366 182.681 180.833 182.2 180.365 181.485L179.546 182.109C180.105 182.889 180.911 183.656 182.484 183.656C184.33 183.656 185.565 182.577 185.565 181.017C185.565 179.652 184.629 178.924 183.654 178.729V178.677C184.616 178.43 185.396 177.728 185.396 176.558C185.396 175.089 184.174 174.27 182.64 174.27C181.184 174.27 180.391 175.024 179.936 175.752L180.742 176.376C181.119 175.687 181.678 175.245 182.614 175.245C183.576 175.245 184.239 175.726 184.239 176.675V176.766C184.239 177.637 183.615 178.274 182.393 178.274H181.405Z" fill="white"/>
<line x1="182.5" y1="134.5" x2="182.5" y2="169.5" stroke="#6E04C1"/>
<rect x="221" y="166.5" width="24" height="24" rx="12" fill="#6E04C1"/>
<path d="M234.915 183.5V181.719H236.228V180.809H234.915V174.426H233.29L229.494 180.757V181.719H233.875V183.5H234.915ZM233.81 175.271H233.875V180.809H230.521L233.81 175.271Z" fill="white"/>
<line x1="232.5" y1="134.5" x2="232.5" y2="169.5" stroke="#6E04C1"/>
<path d="M482.996 76.5V72.776H485.544C487.35 72.776 488.442 71.572 488.442 69.752C488.442 67.946 487.35 66.728 485.544 66.728H481.148V76.5H482.996ZM482.996 68.338H485.376C486.09 68.338 486.524 68.716 486.524 69.43V70.074C486.524 70.788 486.09 71.18 485.376 71.18H482.996V68.338ZM490.005 76.5H491.797V71.67C491.797 70.886 492.511 70.494 493.253 70.494C494.107 70.494 494.457 71.026 494.457 72.062V76.5H496.249V71.88C496.249 70.06 495.409 69.024 493.911 69.024C492.777 69.024 492.161 69.626 491.867 70.41H491.797V66.14H490.005V76.5ZM501.133 76.668C503.233 76.668 504.535 75.184 504.535 72.832C504.535 70.494 503.233 69.024 501.133 69.024C499.047 69.024 497.745 70.494 497.745 72.832C497.745 75.184 499.047 76.668 501.133 76.668ZM501.133 75.226C500.209 75.226 499.621 74.624 499.621 73.518V72.16C499.621 71.068 500.209 70.466 501.133 70.466C502.071 70.466 502.659 71.068 502.659 72.16V73.518C502.659 74.624 502.071 75.226 501.133 75.226ZM507.916 76.5V71.67C507.916 70.886 508.63 70.494 509.372 70.494C510.226 70.494 510.576 71.026 510.576 72.062V76.5H512.368V71.88C512.368 70.06 511.528 69.024 510.03 69.024C508.896 69.024 508.28 69.626 507.986 70.41H507.916V69.192H506.124V76.5H507.916ZM517.308 76.668C518.666 76.668 519.73 76.15 520.332 75.324L519.366 74.246C518.918 74.82 518.386 75.24 517.504 75.24C516.328 75.24 515.726 74.526 515.726 73.476V73.294H520.584V72.706C520.584 70.704 519.534 69.024 517.252 69.024C515.11 69.024 513.864 70.522 513.864 72.832C513.864 75.17 515.152 76.668 517.308 76.668ZM517.28 70.368C518.204 70.368 518.722 71.054 518.722 72.062V72.188H515.726V72.076C515.726 71.068 516.342 70.368 517.28 70.368ZM527.262 76.5V71.67C527.262 70.886 527.976 70.494 528.718 70.494C529.572 70.494 529.922 71.026 529.922 72.062V76.5H531.714V71.88C531.714 70.06 530.874 69.024 529.376 69.024C528.242 69.024 527.626 69.626 527.332 70.41H527.262V69.192H525.47V76.5H527.262ZM538.068 76.5H539.86V69.192H538.068V74.022C538.068 74.806 537.354 75.184 536.64 75.184C535.786 75.184 535.408 74.638 535.408 73.63V69.192H533.616V73.812C533.616 75.632 534.456 76.668 535.954 76.668C537.158 76.668 537.746 76.01 537.998 75.282H538.068V76.5ZM543.723 76.5V71.67C543.723 70.886 544.395 70.494 545.081 70.494C545.879 70.494 546.257 71.012 546.257 72.062V76.5H548.049V71.67C548.049 70.886 548.707 70.494 549.407 70.494C550.205 70.494 550.583 71.012 550.583 72.062V76.5H552.375V71.88C552.375 70.06 551.563 69.024 550.135 69.024C548.973 69.024 548.161 69.682 547.895 70.494H547.867C547.517 69.514 546.747 69.024 545.753 69.024C544.661 69.024 544.073 69.64 543.793 70.41H543.723V69.192H541.931V76.5H543.723ZM554.358 76.5H556.15V75.282H556.206C556.486 76.108 557.256 76.668 558.222 76.668C560.07 76.668 561.092 75.282 561.092 72.832C561.092 70.396 560.07 69.024 558.222 69.024C557.256 69.024 556.472 69.556 556.206 70.396H556.15V66.14H554.358V76.5ZM557.648 75.184C556.794 75.184 556.15 74.75 556.15 73.994V71.67C556.15 70.956 556.794 70.494 557.648 70.494C558.572 70.494 559.216 71.18 559.216 72.216V73.476C559.216 74.512 558.572 75.184 557.648 75.184ZM565.707 76.668C567.065 76.668 568.129 76.15 568.731 75.324L567.765 74.246C567.317 74.82 566.785 75.24 565.903 75.24C564.727 75.24 564.125 74.526 564.125 73.476V73.294H568.983V72.706C568.983 70.704 567.933 69.024 565.651 69.024C563.509 69.024 562.263 70.522 562.263 72.832C562.263 75.17 563.551 76.668 565.707 76.668ZM565.679 70.368C566.603 70.368 567.121 71.054 567.121 72.062V72.188H564.125V72.076C564.125 71.068 564.741 70.368 565.679 70.368ZM572.351 76.5V72.02C572.351 71.222 572.981 70.886 574.185 70.886H574.745V69.192H574.353C573.191 69.192 572.603 69.934 572.421 70.704H572.351V69.192H570.559V76.5H572.351Z" fill="#292929"/>
<rect x="481" y="90.5" width="281" height="46" rx="3" fill="white"/>
<g clip-path="url(#clip2_4528_120841)">
<g clip-path="url(#clip3_4528_120841)">
<rect x="496" y="103.5" width="28" height="20" rx="2" fill="white"/>
<path fill-rule="evenodd" clip-rule="evenodd" d="M496 103.5H504.909V123.5H496V103.5Z" fill="#1A47B8"/>
<path fill-rule="evenodd" clip-rule="evenodd" d="M515.091 103.5H524V123.5H515.091V103.5Z" fill="#F93939"/>
</g>
</g>
<path d="M533.408 118.508V115.164H536.528V114.076H533.408V110.732H532.192V114.076H529.072V115.164H532.192V118.508H533.408ZM540.554 113.068V114.236H541.866C543.434 114.236 544.266 114.988 544.266 116.3V116.428C544.266 117.74 543.434 118.492 541.866 118.492C540.506 118.492 539.85 117.9 539.274 117.02L538.266 117.788C538.954 118.748 539.946 119.692 541.882 119.692C544.154 119.692 545.674 118.364 545.674 116.444C545.674 114.764 544.522 113.868 543.322 113.628V113.564C544.506 113.26 545.466 112.396 545.466 110.956C545.466 109.148 543.962 108.14 542.074 108.14C540.282 108.14 539.306 109.068 538.746 109.964L539.738 110.732C540.202 109.884 540.89 109.34 542.042 109.34C543.226 109.34 544.042 109.932 544.042 111.1V111.212C544.042 112.284 543.274 113.068 541.77 113.068H540.554ZM550.148 113.068V114.236H551.46C553.028 114.236 553.86 114.988 553.86 116.3V116.428C553.86 117.74 553.028 118.492 551.46 118.492C550.1 118.492 549.444 117.9 548.868 117.02L547.86 117.788C548.548 118.748 549.539 119.692 551.476 119.692C553.748 119.692 555.267 118.364 555.267 116.444C555.267 114.764 554.116 113.868 552.916 113.628V113.564C554.1 113.26 555.06 112.396 555.06 110.956C555.06 109.148 553.556 108.14 551.668 108.14C549.876 108.14 548.9 109.068 548.34 109.964L549.332 110.732C549.796 109.884 550.484 109.34 551.636 109.34C552.82 109.34 553.636 109.932 553.636 111.1V111.212C553.636 112.284 552.868 113.068 551.364 113.068H550.148Z" fill="#292929"/>
<path d="M565.384 119.5H566.92L569.848 114.812H569.88L572.808 119.5H574.424L570.744 113.772L574.328 108.332H572.792L569.928 112.78H569.896L567.096 108.332H565.48L569.032 113.82L565.384 119.5ZM575.197 119.5H576.733L579.661 114.812H579.693L582.621 119.5H584.237L580.557 113.772L584.141 108.332H582.605L579.741 112.78H579.709L576.909 108.332H575.293L578.845 113.82L575.197 119.5ZM585.009 119.5H586.545L589.473 114.812H589.505L592.433 119.5H594.049L590.369 113.772L593.953 108.332H592.417L589.553 112.78H589.521L586.721 108.332H585.105L588.657 113.82L585.009 119.5ZM594.822 119.5H596.358L599.286 114.812H599.318L602.246 119.5H603.862L600.182 113.772L603.766 108.332H602.23L599.366 112.78H599.334L596.534 108.332H594.918L598.47 113.82L594.822 119.5ZM608.415 119.5H609.951L612.879 114.812H612.911L615.839 119.5H617.455L613.775 113.772L617.359 108.332H615.823L612.959 112.78H612.927L610.127 108.332H608.511L612.063 113.82L608.415 119.5ZM618.228 119.5H619.764L622.692 114.812H622.724L625.652 119.5H627.268L623.588 113.772L627.172 108.332H625.636L622.772 112.78H622.74L619.94 108.332H618.324L621.876 113.82L618.228 119.5ZM628.04 119.5H629.576L632.504 114.812H632.536L635.464 119.5H637.08L633.4 113.772L636.984 108.332H635.448L632.584 112.78H632.552L629.752 108.332H628.136L631.688 113.82L628.04 119.5ZM641.634 119.5H643.17L646.098 114.812H646.13L649.058 119.5H650.674L646.994 113.772L650.578 108.332H649.042L646.178 112.78H646.146L643.346 108.332H641.73L645.282 113.82L641.634 119.5ZM651.447 119.5H652.983L655.911 114.812H655.943L658.871 119.5H660.487L656.807 113.772L660.391 108.332H658.855L655.991 112.78H655.959L653.159 108.332H651.543L655.095 113.82L651.447 119.5ZM661.259 119.5H662.795L665.723 114.812H665.755L668.683 119.5H670.299L666.619 113.772L670.203 108.332H668.667L665.803 112.78H665.771L662.971 108.332H661.355L664.907 113.82L661.259 119.5ZM671.072 119.5H672.608L675.536 114.812H675.568L678.496 119.5H680.112L676.432 113.772L680.016 108.332H678.48L675.616 112.78H675.584L672.784 108.332H671.168L674.72 113.82L671.072 119.5Z" fill="#BFBFBF"/>
<path d="M742 109.375L741.125 108.5L737 112.625L732.875 108.5L732 109.375L736.125 113.5L732 117.625L732.875 118.5L737 114.375L741.125 118.5L742 117.625L737.875 113.5L742 109.375Z" fill="#292929"/>
<rect x="481" y="90.5" width="281" height="46" rx="3" stroke="#CC0000" stroke-width="2"/>
<rect x="480" y="145.5" width="283" height="34" rx="4" fill="#FEDFDF"/>
<path d="M500.001 158.586H499.999L494.324 169.498L494.325 169.5H505.675L505.676 169.498L500.001 158.586ZM499.437 161.5H500.562V166H499.437V161.5ZM500 168.5C499.852 168.5 499.707 168.456 499.583 168.374C499.46 168.291 499.364 168.174 499.307 168.037C499.25 167.9 499.235 167.749 499.264 167.604C499.293 167.458 499.365 167.325 499.47 167.22C499.574 167.115 499.708 167.043 499.854 167.014C499.999 166.985 500.15 167 500.287 167.057C500.424 167.114 500.541 167.21 500.623 167.333C500.706 167.457 500.75 167.602 500.75 167.75C500.75 167.949 500.671 168.14 500.53 168.28C500.39 168.421 500.199 168.5 500 168.5Z" fill="#CC0000"/>
<path d="M506.5 170.5H493.5C493.414 170.5 493.33 170.478 493.255 170.436C493.18 170.394 493.117 170.333 493.073 170.259C493.028 170.186 493.003 170.102 493 170.017C492.997 169.931 493.017 169.846 493.056 169.769L499.556 157.269C499.599 157.188 499.662 157.12 499.741 157.073C499.819 157.025 499.908 157 500 157C500.092 157 500.181 157.025 500.259 157.073C500.338 157.12 500.401 157.188 500.444 157.269L506.944 169.769C506.983 169.846 507.003 169.931 507 170.017C506.997 170.102 506.972 170.186 506.927 170.259C506.883 170.333 506.82 170.394 506.745 170.436C506.67 170.478 506.586 170.5 506.5 170.5V170.5ZM494.325 169.5H505.675L505.676 169.498L500.001 158.586H499.999L494.324 169.498L494.325 169.5Z" fill="#CC0000"/>
<path d="M522.228 167.5V166.612H518.124V163.708H521.988V162.82H518.124V160.012H522.228V159.124H517.116V167.5H522.228ZM524.976 167.5V163.3C524.976 162.712 525.6 162.268 526.632 162.268H527.196V161.308H526.824C525.816 161.308 525.252 161.86 525.036 162.448H524.976V161.308H524.016V167.5H524.976ZM529.382 167.5V163.3C529.382 162.712 530.006 162.268 531.038 162.268H531.602V161.308H531.23C530.222 161.308 529.658 161.86 529.442 162.448H529.382V161.308H528.422V167.5H529.382ZM535.11 167.644C536.766 167.644 537.906 166.372 537.906 164.404C537.906 162.436 536.766 161.164 535.11 161.164C533.454 161.164 532.314 162.436 532.314 164.404C532.314 166.372 533.454 167.644 535.11 167.644ZM535.11 166.792C534.078 166.792 533.346 166.156 533.346 164.848V163.96C533.346 162.652 534.078 162.016 535.11 162.016C536.142 162.016 536.874 162.652 536.874 163.96V164.848C536.874 166.156 536.142 166.792 535.11 166.792ZM540.445 167.5V163.3C540.445 162.712 541.069 162.268 542.101 162.268H542.665V161.308H542.293C541.285 161.308 540.721 161.86 540.505 162.448H540.445V161.308H539.485V167.5H540.445ZM549.295 167.5V166.66H548.035V162.148H549.391V161.308H548.035V159.592H547.171V160.744C547.171 161.164 547.039 161.308 546.631 161.308H546.055V162.148H547.075V166.48C547.075 167.08 547.435 167.5 548.095 167.5H549.295ZM553.215 167.644C554.379 167.644 555.267 167.068 555.663 166.228L554.979 165.736C554.655 166.42 554.055 166.804 553.275 166.804C552.123 166.804 551.439 166 551.439 164.932V164.644H555.891V164.188C555.891 162.436 554.871 161.164 553.215 161.164C551.535 161.164 550.431 162.436 550.431 164.404C550.431 166.372 551.535 167.644 553.215 167.644ZM553.215 161.968C554.199 161.968 554.859 162.7 554.859 163.792V163.924H551.439V163.84C551.439 162.76 552.171 161.968 553.215 161.968ZM556.565 167.5H557.633L559.373 165.076H559.409L561.017 167.5H562.145L559.913 164.308L562.097 161.308H561.029L559.396 163.612H559.361L557.789 161.308H556.661L558.857 164.38L556.565 167.5ZM565.983 167.5V166.66H564.723V162.148H566.079V161.308H564.723V159.592H563.859V160.744C563.859 161.164 563.727 161.308 563.319 161.308H562.743V162.148H563.763V166.48C563.763 167.08 564.123 167.5 564.783 167.5H565.983ZM572.762 167.644C573.938 167.644 574.742 167.068 575.138 166.18L574.442 165.712C574.106 166.42 573.542 166.792 572.762 166.792C571.622 166.792 571.034 166.012 571.034 164.932V163.876C571.034 162.796 571.622 162.016 572.762 162.016C573.518 162.016 574.046 162.388 574.274 163.024L575.078 162.616C574.718 161.764 573.986 161.164 572.762 161.164C571.021 161.164 570.002 162.424 570.002 164.404C570.002 166.384 571.021 167.644 572.762 167.644ZM581.533 167.5V166.66H580.825V163.252C580.825 161.944 579.937 161.164 578.449 161.164C577.333 161.164 576.589 161.716 576.253 162.376L576.829 162.916C577.165 162.352 577.657 161.992 578.401 161.992C579.385 161.992 579.865 162.472 579.865 163.348V163.96H578.641C576.841 163.96 576.001 164.608 576.001 165.772C576.001 166.924 576.769 167.644 578.077 167.644C578.941 167.644 579.601 167.248 579.865 166.492H579.925C579.997 167.068 580.285 167.5 580.993 167.5H581.533ZM578.233 166.828C577.489 166.828 577.009 166.48 577.009 165.868V165.616C577.009 165.016 577.501 164.68 578.593 164.68H579.865V165.7C579.865 166.336 579.181 166.828 578.233 166.828ZM583.863 167.5V163.204C583.863 162.412 584.607 162.028 585.375 162.028C586.299 162.028 586.779 162.592 586.779 163.696V167.5H587.739V163.528C587.739 162.028 586.935 161.164 585.663 161.164C584.739 161.164 584.211 161.62 583.911 162.316H583.863V161.308H582.903V167.5H583.863ZM597.779 168.184C597.779 167.164 597.119 166.54 595.583 166.54H594.263C593.699 166.54 593.315 166.444 593.315 166.072C593.315 165.688 593.723 165.484 594.131 165.376C594.311 165.412 594.527 165.436 594.731 165.436C596.147 165.436 597.071 164.56 597.071 163.3C597.071 162.64 596.807 162.088 596.363 161.704V161.308H597.539V160.468H596.615C596.099 160.468 595.895 160.816 595.895 161.296V161.404C595.559 161.248 595.163 161.164 594.719 161.164C593.315 161.164 592.391 162.04 592.391 163.3C592.391 164.164 592.823 164.848 593.555 165.196V165.244C592.931 165.4 592.487 165.7 592.487 166.324C592.487 166.744 592.691 167.02 593.039 167.188V167.32C592.427 167.488 592.055 167.848 592.055 168.52C592.055 169.492 592.847 170.044 594.779 170.044C596.771 170.044 597.779 169.456 597.779 168.184ZM596.879 168.256C596.879 168.928 596.255 169.264 595.187 169.264H594.299C593.327 169.264 592.955 168.82 592.955 168.28C592.955 167.896 593.135 167.62 593.531 167.44H595.595C596.555 167.44 596.879 167.764 596.879 168.256ZM594.731 164.668C593.915 164.668 593.399 164.284 593.399 163.468V163.132C593.399 162.316 593.915 161.932 594.731 161.932C595.547 161.932 596.063 162.316 596.063 163.132V163.468C596.063 164.284 595.547 164.668 594.731 164.668ZM601.169 167.644C602.825 167.644 603.965 166.372 603.965 164.404C603.965 162.436 602.825 161.164 601.169 161.164C599.513 161.164 598.373 162.436 598.373 164.404C598.373 166.372 599.513 167.644 601.169 167.644ZM601.169 166.792C600.137 166.792 599.405 166.156 599.405 164.848V163.96C599.405 162.652 600.137 162.016 601.169 162.016C602.201 162.016 602.933 162.652 602.933 163.96V164.848C602.933 166.156 602.201 166.792 601.169 166.792ZM608.379 167.5H609.339V163.204C609.339 162.412 610.083 162.028 610.851 162.028C611.775 162.028 612.255 162.592 612.255 163.696V167.5H613.215V163.528C613.215 162.028 612.411 161.164 611.139 161.164C610.215 161.164 609.687 161.62 609.387 162.316H609.339V158.62H608.379V167.5ZM617.528 167.644C618.692 167.644 619.58 167.068 619.976 166.228L619.292 165.736C618.968 166.42 618.368 166.804 617.588 166.804C616.436 166.804 615.752 166 615.752 164.932V164.644H620.204V164.188C620.204 162.436 619.184 161.164 617.528 161.164C615.848 161.164 614.744 162.436 614.744 164.404C614.744 166.372 615.848 167.644 617.528 167.644ZM617.528 161.968C618.512 161.968 619.172 162.7 619.172 163.792V163.924H615.752V163.84C615.752 162.76 616.484 161.968 617.528 161.968ZM622.746 167.5V163.3C622.746 162.712 623.37 162.268 624.402 162.268H624.966V161.308H624.594C623.586 161.308 623.022 161.86 622.806 162.448H622.746V161.308H621.786V167.5H622.746ZM628.461 167.644C629.625 167.644 630.513 167.068 630.909 166.228L630.225 165.736C629.901 166.42 629.301 166.804 628.521 166.804C627.369 166.804 626.685 166 626.685 164.932V164.644H631.137V164.188C631.137 162.436 630.117 161.164 628.461 161.164C626.781 161.164 625.677 162.436 625.677 164.404C625.677 166.372 626.781 167.644 628.461 167.644ZM628.461 161.968C629.445 161.968 630.105 162.7 630.105 163.792V163.924H626.685V163.84C626.685 162.76 627.417 161.968 628.461 161.968ZM633.097 167.644C633.601 167.644 633.829 167.356 633.829 166.948V166.792C633.829 166.384 633.601 166.096 633.097 166.096C632.593 166.096 632.365 166.384 632.365 166.792V166.948C632.365 167.356 632.593 167.644 633.097 167.644Z" fill="#CC0000"/>
<rect x="725" y="50.5" width="24" height="24" rx="12" fill="#6E04C1"/>
<path d="M736.913 67.656C738.733 67.656 739.929 66.434 739.929 64.653C739.929 62.937 738.811 61.858 737.251 61.858C736.146 61.858 735.496 62.417 735.067 63.158L735.002 63.132C735.496 61.026 736.575 59.843 738.512 58.426H737.108C735.652 59.375 733.871 61.481 733.871 64.172C733.871 66.33 735.028 67.656 736.913 67.656ZM736.9 66.707C735.704 66.707 735.002 66.018 735.002 64.796V64.692C735.002 63.47 735.704 62.781 736.9 62.781C738.096 62.781 738.798 63.47 738.798 64.692V64.796C738.798 66.018 738.096 66.707 736.9 66.707Z" fill="white"/>
<line x1="736.5" y1="74.5" x2="736.5" y2="98.5" stroke="#8000E4"/>
<rect x="443" y="150.5" width="24" height="24" rx="12" fill="#6E04C1"/>
<path d="M457.474 158.426H452.612L452.287 163.418L453.21 163.548C453.587 163.132 454.003 162.781 454.835 162.781C456.07 162.781 456.733 163.47 456.733 164.666V164.796C456.733 165.992 456.07 166.681 454.835 166.681C453.743 166.681 453.288 166.2 452.82 165.485L452.001 166.109C452.547 166.889 453.327 167.656 454.835 167.656C456.746 167.656 457.89 166.421 457.89 164.653C457.89 162.898 456.746 161.845 455.186 161.845C454.237 161.845 453.756 162.235 453.327 162.846H453.236L453.496 159.388H457.474V158.426Z" fill="white"/>
<line x1="480" y1="163" x2="466" y2="163" stroke="#8000E4"/>
<rect x="0.5" y="0.5" width="881" height="229" rx="3.5" stroke="#E5E5E5"/>
<defs>
<clipPath id="clip0_4528_120841">
<rect width="28" height="20" fill="white" transform="translate(135 114.5)"/>
</clipPath>
<clipPath id="clip1_4528_120841">
<rect x="135" y="114.5" width="28" height="20" rx="2" fill="white"/>
</clipPath>
<clipPath id="clip2_4528_120841">
<rect width="28" height="20" fill="white" transform="translate(496 103.5)"/>
</clipPath>
<clipPath id="clip3_4528_120841">
<rect x="496" y="103.5" width="28" height="20" rx="2" fill="white"/>
</clipPath>
</defs>
</svg>
