<svg width="882" height="333" viewBox="0 0 882 333" fill="none" xmlns="http://www.w3.org/2000/svg">
<rect x="0.5" y="0.5" width="881" height="332" rx="3.5" fill="#F8F8F8"/>
<g clip-path="url(#clip0_4528_120890)">
<rect x="174" y="56" width="574" height="221" rx="4" fill="white"/>
<rect x="192.75" y="74.75" width="18.5" height="18.5" rx="1.25" fill="white"/>
<rect x="192.75" y="74.75" width="18.5" height="18.5" rx="1.25" stroke="#E5E5E5" stroke-width="1.5"/>
<path d="M230 111H174V113H230V111Z" fill="#E5E5E5" mask="url(#path-4-inside-1_4528_120890)"/>
<rect x="192.75" y="129.75" width="18.5" height="18.5" rx="1.25" fill="white"/>
<rect x="192.75" y="129.75" width="18.5" height="18.5" rx="1.25" stroke="#E5E5E5" stroke-width="1.5"/>
<path d="M230 166H174V168H230V166Z" fill="#E5E5E5" mask="url(#path-7-inside-2_4528_120890)"/>
<rect x="192.75" y="184.75" width="18.5" height="18.5" rx="1.25" fill="white"/>
<rect x="192.75" y="184.75" width="18.5" height="18.5" rx="1.25" stroke="#E5E5E5" stroke-width="1.5"/>
<path d="M230 221H174V223H230V221Z" fill="#E5E5E5" mask="url(#path-10-inside-3_4528_120890)"/>
<rect x="192.75" y="239.75" width="18.5" height="18.5" rx="1.25" fill="white"/>
<rect x="192.75" y="239.75" width="18.5" height="18.5" rx="1.25" stroke="#E5E5E5" stroke-width="1.5"/>
<path d="M230 276H174V278H230V276Z" fill="#E5E5E5" mask="url(#path-13-inside-4_4528_120890)"/>
<path d="M259.888 89H261.918V79.228H260.168V86.27H260.126L259.118 84.24L256.178 79.228H254.148V89H255.898V81.958H255.94L256.948 83.988L259.888 89ZM265.905 89.168C266.997 89.168 267.795 88.678 268.033 87.74H268.117C268.229 88.496 268.705 89 269.475 89H270.469V87.572H269.741V84.128C269.741 82.462 268.691 81.524 266.717 81.524C265.247 81.524 264.393 82.084 263.861 82.924L264.925 83.876C265.275 83.372 265.751 82.952 266.591 82.952C267.543 82.952 267.949 83.428 267.949 84.24V84.772H266.703C264.715 84.772 263.581 85.514 263.581 87.012C263.581 88.314 264.421 89.168 265.905 89.168ZM266.507 87.866C265.807 87.866 265.401 87.572 265.401 86.984V86.746C265.401 86.172 265.863 85.85 266.801 85.85H267.949V86.816C267.949 87.502 267.305 87.866 266.507 87.866ZM273.711 89V84.17C273.711 83.386 274.383 82.994 275.069 82.994C275.867 82.994 276.245 83.512 276.245 84.562V89H278.037V84.17C278.037 83.386 278.695 82.994 279.395 82.994C280.193 82.994 280.571 83.512 280.571 84.562V89H282.363V84.38C282.363 82.56 281.551 81.524 280.123 81.524C278.961 81.524 278.149 82.182 277.883 82.994H277.855C277.505 82.014 276.735 81.524 275.741 81.524C274.649 81.524 274.061 82.14 273.781 82.91H273.711V81.692H271.919V89H273.711ZM287.301 89.168C288.659 89.168 289.723 88.65 290.325 87.824L289.359 86.746C288.911 87.32 288.379 87.74 287.497 87.74C286.321 87.74 285.719 87.026 285.719 85.976V85.794H290.577V85.206C290.577 83.204 289.527 81.524 287.245 81.524C285.103 81.524 283.857 83.022 283.857 85.332C283.857 87.67 285.145 89.168 287.301 89.168ZM287.273 82.868C288.197 82.868 288.715 83.554 288.715 84.562V84.688H285.719V84.576C285.719 83.568 286.335 82.868 287.273 82.868Z" fill="#292929"/>
<path d="M350 111H229V113H350V111Z" fill="#E5E5E5" mask="url(#path-16-inside-5_4528_120890)"/>
<path d="M260.7 135.264V134.228H253.308V135.264H256.416V144H257.592V135.264H260.7ZM264.002 144.168C265.36 144.168 266.396 143.496 266.858 142.516L266.06 141.942C265.682 142.74 264.982 143.188 264.072 143.188C262.728 143.188 261.93 142.25 261.93 141.004V140.668H267.124V140.136C267.124 138.092 265.934 136.608 264.002 136.608C262.042 136.608 260.754 138.092 260.754 140.388C260.754 142.684 262.042 144.168 264.002 144.168ZM264.002 137.546C265.15 137.546 265.92 138.4 265.92 139.674V139.828H261.93V139.73C261.93 138.47 262.784 137.546 264.002 137.546ZM267.909 144H269.155L271.185 141.172H271.227L273.103 144H274.419L271.815 140.276L274.363 136.776H273.117L271.213 139.464H271.171L269.337 136.776H268.021L270.583 140.36L267.909 144ZM278.897 144V143.02H277.427V137.756H279.009V136.776H277.427V134.774H276.419V136.118C276.419 136.608 276.265 136.776 275.789 136.776H275.117V137.756H276.307V142.81C276.307 143.51 276.727 144 277.497 144H278.897Z" fill="#292929"/>
<path d="M350 166H229V168H350V166Z" fill="#E5E5E5" mask="url(#path-19-inside-6_4528_120890)"/>
<path d="M260.7 190.264V189.228H253.308V190.264H256.416V199H257.592V190.264H260.7ZM264.002 199.168C265.36 199.168 266.396 198.496 266.858 197.516L266.06 196.942C265.682 197.74 264.982 198.188 264.072 198.188C262.728 198.188 261.93 197.25 261.93 196.004V195.668H267.124V195.136C267.124 193.092 265.934 191.608 264.002 191.608C262.042 191.608 260.754 193.092 260.754 195.388C260.754 197.684 262.042 199.168 264.002 199.168ZM264.002 192.546C265.15 192.546 265.92 193.4 265.92 194.674V194.828H261.93V194.73C261.93 193.47 262.784 192.546 264.002 192.546ZM267.909 199H269.155L271.185 196.172H271.227L273.103 199H274.419L271.815 195.276L274.363 191.776H273.117L271.213 194.464H271.171L269.337 191.776H268.021L270.583 195.36L267.909 199ZM278.897 199V198.02H277.427V192.756H279.009V191.776H277.427V189.774H276.419V191.118C276.419 191.608 276.265 191.776 275.789 191.776H275.117V192.756H276.307V197.81C276.307 198.51 276.727 199 277.497 199H278.897Z" fill="#292929"/>
<path d="M350 221H229V223H350V221Z" fill="#E5E5E5" mask="url(#path-22-inside-7_4528_120890)"/>
<path d="M260.7 245.264V244.228H253.308V245.264H256.416V254H257.592V245.264H260.7ZM264.002 254.168C265.36 254.168 266.396 253.496 266.858 252.516L266.06 251.942C265.682 252.74 264.982 253.188 264.072 253.188C262.728 253.188 261.93 252.25 261.93 251.004V250.668H267.124V250.136C267.124 248.092 265.934 246.608 264.002 246.608C262.042 246.608 260.754 248.092 260.754 250.388C260.754 252.684 262.042 254.168 264.002 254.168ZM264.002 247.546C265.15 247.546 265.92 248.4 265.92 249.674V249.828H261.93V249.73C261.93 248.47 262.784 247.546 264.002 247.546ZM267.909 254H269.155L271.185 251.172H271.227L273.103 254H274.419L271.815 250.276L274.363 246.776H273.117L271.213 249.464H271.171L269.337 246.776H268.021L270.583 250.36L267.909 254ZM278.897 254V253.02H277.427V247.756H279.009V246.776H277.427V244.774H276.419V246.118C276.419 246.608 276.265 246.776 275.789 246.776H275.117V247.756H276.307V252.81C276.307 253.51 276.727 254 277.497 254H278.897Z" fill="#292929"/>
<path d="M350 276H229V278H350V276Z" fill="#E5E5E5" mask="url(#path-25-inside-8_4528_120890)"/>
<path d="M377.186 89.168C379.524 89.168 380.854 87.908 380.854 86.06C380.854 84.45 379.93 83.568 377.956 83.218L377.046 83.05C376.108 82.882 375.688 82.574 375.688 81.832C375.688 81.104 376.234 80.684 377.284 80.684C378.32 80.684 378.992 81.09 379.468 81.692L380.728 80.502C379.944 79.564 378.852 79.06 377.382 79.06C375.198 79.06 373.84 80.194 373.84 81.944C373.84 83.54 374.792 84.478 376.766 84.786L377.69 84.926C378.712 85.108 379.02 85.514 379.02 86.172C379.02 86.998 378.432 87.544 377.298 87.544C376.29 87.544 375.464 87.124 374.792 86.34L373.546 87.544C374.372 88.51 375.52 89.168 377.186 89.168ZM384.822 89H386.11V87.572H384.724V83.12H386.222V81.692H384.724V79.69H383.114V80.936C383.114 81.44 382.946 81.692 382.414 81.692H381.854V83.12H382.932V87.138C382.932 88.328 383.59 89 384.822 89ZM389.582 89.168C390.674 89.168 391.472 88.678 391.71 87.74H391.794C391.906 88.496 392.382 89 393.152 89H394.146V87.572H393.418V84.128C393.418 82.462 392.368 81.524 390.394 81.524C388.924 81.524 388.07 82.084 387.538 82.924L388.602 83.876C388.952 83.372 389.428 82.952 390.268 82.952C391.22 82.952 391.626 83.428 391.626 84.24V84.772H390.38C388.392 84.772 387.258 85.514 387.258 87.012C387.258 88.314 388.098 89.168 389.582 89.168ZM390.184 87.866C389.484 87.866 389.078 87.572 389.078 86.984V86.746C389.078 86.172 389.54 85.85 390.478 85.85H391.626V86.816C391.626 87.502 390.982 87.866 390.184 87.866ZM397.824 89H399.112V87.572H397.726V83.12H399.224V81.692H397.726V79.69H396.116V80.936C396.116 81.44 395.948 81.692 395.416 81.692H394.856V83.12H395.934V87.138C395.934 88.328 396.592 89 397.824 89ZM405.146 89H406.938V81.692H405.146V86.522C405.146 87.306 404.432 87.684 403.718 87.684C402.864 87.684 402.486 87.138 402.486 86.13V81.692H400.694V86.312C400.694 88.132 401.534 89.168 403.032 89.168C404.236 89.168 404.824 88.51 405.076 87.782H405.146V89ZM411.403 89.168C413.223 89.168 414.413 88.188 414.413 86.774C414.413 85.556 413.643 84.842 412.047 84.618L411.305 84.52C410.619 84.408 410.353 84.184 410.353 83.694C410.353 83.246 410.689 82.938 411.459 82.938C412.173 82.938 412.789 83.274 413.209 83.722L414.259 82.672C413.559 81.944 412.831 81.524 411.403 81.524C409.737 81.524 408.631 82.42 408.631 83.834C408.631 85.164 409.499 85.85 411.067 86.046L411.795 86.144C412.439 86.228 412.691 86.494 412.691 86.914C412.691 87.432 412.327 87.754 411.473 87.754C410.647 87.754 410.003 87.376 409.471 86.76L408.379 87.824C409.107 88.664 410.017 89.168 411.403 89.168Z" fill="#292929"/>
<path d="M470 111H349V113H470V111Z" fill="#E5E5E5" mask="url(#path-28-inside-9_4528_120890)"/>
<rect x="373" y="123" width="57" height="32" rx="4" fill="#E9FEDF"/>
<path d="M390.114 144L386.866 134.228H384.57L381.294 144H383.17L383.94 141.508H387.412L388.196 144H390.114ZM386.964 139.926H384.388L385.634 135.908H385.704L386.964 139.926ZM394.326 144.168C395.74 144.168 396.762 143.524 397.238 142.236L395.866 141.578C395.6 142.236 395.18 142.726 394.326 142.726C393.332 142.726 392.828 142.04 392.828 141.018V139.688C392.828 138.666 393.332 137.966 394.326 137.966C395.096 137.966 395.558 138.414 395.726 139.03L397.196 138.372C396.762 137.224 395.796 136.524 394.326 136.524C392.17 136.524 390.952 137.994 390.952 140.332C390.952 142.684 392.17 144.168 394.326 144.168ZM400.902 144H402.19V142.572H400.804V138.12H402.302V136.692H400.804V134.69H399.194V135.936C399.194 136.44 399.026 136.692 398.494 136.692H397.934V138.12H399.012V142.138C399.012 143.328 399.67 144 400.902 144ZM404.752 135.628C405.48 135.628 405.802 135.25 405.802 134.732V134.452C405.802 133.934 405.48 133.556 404.752 133.556C404.01 133.556 403.702 133.934 403.702 134.452V134.732C403.702 135.25 404.01 135.628 404.752 135.628ZM403.856 144H405.648V136.692H403.856V144ZM411.421 144L413.871 136.692H412.163L411.169 139.842L410.455 142.446H410.357L409.643 139.842L408.621 136.692H406.857L409.293 144H411.421ZM417.912 144.168C419.27 144.168 420.334 143.65 420.936 142.824L419.97 141.746C419.522 142.32 418.99 142.74 418.108 142.74C416.932 142.74 416.33 142.026 416.33 140.976V140.794H421.188V140.206C421.188 138.204 420.138 136.524 417.856 136.524C415.714 136.524 414.468 138.022 414.468 140.332C414.468 142.67 415.756 144.168 417.912 144.168ZM417.884 137.868C418.808 137.868 419.326 138.554 419.326 139.562V139.688H416.33V139.576C416.33 138.568 416.946 137.868 417.884 137.868Z" fill="#067900"/>
<path d="M470 166H349V168H470V166Z" fill="#E5E5E5" mask="url(#path-31-inside-10_4528_120890)"/>
<rect x="373" y="178" width="57" height="32" rx="4" fill="#E9FEDF"/>
<path d="M390.114 199L386.866 189.228H384.57L381.294 199H383.17L383.94 196.508H387.412L388.196 199H390.114ZM386.964 194.926H384.388L385.634 190.908H385.704L386.964 194.926ZM394.326 199.168C395.74 199.168 396.762 198.524 397.238 197.236L395.866 196.578C395.6 197.236 395.18 197.726 394.326 197.726C393.332 197.726 392.828 197.04 392.828 196.018V194.688C392.828 193.666 393.332 192.966 394.326 192.966C395.096 192.966 395.558 193.414 395.726 194.03L397.196 193.372C396.762 192.224 395.796 191.524 394.326 191.524C392.17 191.524 390.952 192.994 390.952 195.332C390.952 197.684 392.17 199.168 394.326 199.168ZM400.902 199H402.19V197.572H400.804V193.12H402.302V191.692H400.804V189.69H399.194V190.936C399.194 191.44 399.026 191.692 398.494 191.692H397.934V193.12H399.012V197.138C399.012 198.328 399.67 199 400.902 199ZM404.752 190.628C405.48 190.628 405.802 190.25 405.802 189.732V189.452C405.802 188.934 405.48 188.556 404.752 188.556C404.01 188.556 403.702 188.934 403.702 189.452V189.732C403.702 190.25 404.01 190.628 404.752 190.628ZM403.856 199H405.648V191.692H403.856V199ZM411.421 199L413.871 191.692H412.163L411.169 194.842L410.455 197.446H410.357L409.643 194.842L408.621 191.692H406.857L409.293 199H411.421ZM417.912 199.168C419.27 199.168 420.334 198.65 420.936 197.824L419.97 196.746C419.522 197.32 418.99 197.74 418.108 197.74C416.932 197.74 416.33 197.026 416.33 195.976V195.794H421.188V195.206C421.188 193.204 420.138 191.524 417.856 191.524C415.714 191.524 414.468 193.022 414.468 195.332C414.468 197.67 415.756 199.168 417.912 199.168ZM417.884 192.868C418.808 192.868 419.326 193.554 419.326 194.562V194.688H416.33V194.576C416.33 193.568 416.946 192.868 417.884 192.868Z" fill="#067900"/>
<path d="M470 221H349V223H470V221Z" fill="#E5E5E5" mask="url(#path-35-inside-11_4528_120890)"/>
<rect x="373" y="233" width="57" height="32" rx="4" fill="#E9FEDF"/>
<path d="M390.114 254L386.866 244.228H384.57L381.294 254H383.17L383.94 251.508H387.412L388.196 254H390.114ZM386.964 249.926H384.388L385.634 245.908H385.704L386.964 249.926ZM394.326 254.168C395.74 254.168 396.762 253.524 397.238 252.236L395.866 251.578C395.6 252.236 395.18 252.726 394.326 252.726C393.332 252.726 392.828 252.04 392.828 251.018V249.688C392.828 248.666 393.332 247.966 394.326 247.966C395.096 247.966 395.558 248.414 395.726 249.03L397.196 248.372C396.762 247.224 395.796 246.524 394.326 246.524C392.17 246.524 390.952 247.994 390.952 250.332C390.952 252.684 392.17 254.168 394.326 254.168ZM400.902 254H402.19V252.572H400.804V248.12H402.302V246.692H400.804V244.69H399.194V245.936C399.194 246.44 399.026 246.692 398.494 246.692H397.934V248.12H399.012V252.138C399.012 253.328 399.67 254 400.902 254ZM404.752 245.628C405.48 245.628 405.802 245.25 405.802 244.732V244.452C405.802 243.934 405.48 243.556 404.752 243.556C404.01 243.556 403.702 243.934 403.702 244.452V244.732C403.702 245.25 404.01 245.628 404.752 245.628ZM403.856 254H405.648V246.692H403.856V254ZM411.421 254L413.871 246.692H412.163L411.169 249.842L410.455 252.446H410.357L409.643 249.842L408.621 246.692H406.857L409.293 254H411.421ZM417.912 254.168C419.27 254.168 420.334 253.65 420.936 252.824L419.97 251.746C419.522 252.32 418.99 252.74 418.108 252.74C416.932 252.74 416.33 252.026 416.33 250.976V250.794H421.188V250.206C421.188 248.204 420.138 246.524 417.856 246.524C415.714 246.524 414.468 248.022 414.468 250.332C414.468 252.67 415.756 254.168 417.912 254.168ZM417.884 247.868C418.808 247.868 419.326 248.554 419.326 249.562V249.688H416.33V249.576C416.33 248.568 416.946 247.868 417.884 247.868Z" fill="#067900"/>
<path d="M470 276H349V278H470V276Z" fill="#E5E5E5" mask="url(#path-39-inside-12_4528_120890)"/>
<path d="M494.148 89H497.704C500.252 89 501.918 87.362 501.918 84.114C501.918 80.866 500.252 79.228 497.704 79.228H494.148V89ZM495.996 87.362V80.866H497.704C499.076 80.866 499.958 81.678 499.958 83.344V84.884C499.958 86.55 499.076 87.362 497.704 87.362H495.996ZM505.494 89.168C506.586 89.168 507.384 88.678 507.622 87.74H507.706C507.818 88.496 508.294 89 509.064 89H510.058V87.572H509.33V84.128C509.33 82.462 508.28 81.524 506.306 81.524C504.836 81.524 503.982 82.084 503.45 82.924L504.514 83.876C504.864 83.372 505.34 82.952 506.18 82.952C507.132 82.952 507.538 83.428 507.538 84.24V84.772H506.292C504.304 84.772 503.17 85.514 503.17 87.012C503.17 88.314 504.01 89.168 505.494 89.168ZM506.096 87.866C505.396 87.866 504.99 87.572 504.99 86.984V86.746C504.99 86.172 505.452 85.85 506.39 85.85H507.538V86.816C507.538 87.502 506.894 87.866 506.096 87.866ZM513.736 89H515.024V87.572H513.638V83.12H515.136V81.692H513.638V79.69H512.028V80.936C512.028 81.44 511.86 81.692 511.328 81.692H510.768V83.12H511.846V87.138C511.846 88.328 512.504 89 513.736 89ZM519.59 89.168C520.948 89.168 522.012 88.65 522.614 87.824L521.648 86.746C521.2 87.32 520.668 87.74 519.786 87.74C518.61 87.74 518.008 87.026 518.008 85.976V85.794H522.866V85.206C522.866 83.204 521.816 81.524 519.534 81.524C517.392 81.524 516.146 83.022 516.146 85.332C516.146 87.67 517.434 89.168 519.59 89.168ZM519.562 82.868C520.486 82.868 521.004 83.554 521.004 84.562V84.688H518.008V84.576C518.008 83.568 518.624 82.868 519.562 82.868Z" fill="#292929"/>
<path d="M543 81.5L538 87.75L533 81.5H543Z" fill="#292929"/>
<path d="M628 111H469V113H628V111Z" fill="#E5E5E5" mask="url(#path-43-inside-13_4528_120890)"/>
<path d="M500.462 142.964H495.324L497.956 140.598C499.202 139.478 500.098 138.414 500.098 136.902C500.098 135.236 499.006 134.06 497.102 134.06C495.212 134.06 494.344 135.208 493.966 136.356L495.016 136.762C495.282 135.838 495.842 135.11 497.046 135.11C498.25 135.11 498.852 135.852 498.852 136.93V137.098C498.852 138.036 498.152 139.016 497.242 139.856L494.05 142.796V144H500.462V142.964ZM505.595 144.168C507.933 144.168 508.955 142.306 508.955 139.114C508.955 135.922 507.933 134.06 505.595 134.06C503.257 134.06 502.235 135.922 502.235 139.114C502.235 142.306 503.257 144.168 505.595 144.168ZM505.595 143.146C504.069 143.146 503.467 141.802 503.467 139.912V138.316C503.467 136.426 504.069 135.082 505.595 135.082C507.121 135.082 507.723 136.426 507.723 138.316V139.912C507.723 141.802 507.121 143.146 505.595 143.146ZM517.251 142.964H512.113L514.745 140.598C515.991 139.478 516.887 138.414 516.887 136.902C516.887 135.236 515.795 134.06 513.891 134.06C512.001 134.06 511.133 135.208 510.755 136.356L511.805 136.762C512.071 135.838 512.631 135.11 513.835 135.11C515.039 135.11 515.641 135.852 515.641 136.93V137.098C515.641 138.036 514.941 139.016 514.031 139.856L510.839 142.796V144H517.251V142.964ZM525.646 142.964H520.508L523.14 140.598C524.386 139.478 525.282 138.414 525.282 136.902C525.282 135.236 524.19 134.06 522.286 134.06C520.396 134.06 519.528 135.208 519.15 136.356L520.2 136.762C520.466 135.838 521.026 135.11 522.23 135.11C523.434 135.11 524.036 135.852 524.036 136.93V137.098C524.036 138.036 523.336 139.016 522.426 139.856L519.234 142.796V144H525.646V142.964ZM527.712 146.114L531.366 133.64H530.358L526.704 146.114H527.712ZM539.596 144V142.964H537.076V134.228H535.242L532.652 136.65L533.338 137.392L535.802 135.096H535.9V142.964H533.17V144H539.596ZM547.794 142.964H542.656L545.288 140.598C546.534 139.478 547.43 138.414 547.43 136.902C547.43 135.236 546.338 134.06 544.434 134.06C542.544 134.06 541.676 135.208 541.298 136.356L542.348 136.762C542.614 135.838 543.174 135.11 544.378 135.11C545.582 135.11 546.184 135.852 546.184 136.93V137.098C546.184 138.036 545.484 139.016 544.574 139.856L541.382 142.796V144H547.794V142.964ZM549.861 146.114L553.515 133.64H552.507L548.853 146.114H549.861ZM561.744 144V142.964H559.224V134.228H557.39L554.8 136.65L555.486 137.392L557.95 135.096H558.048V142.964H555.318V144H561.744ZM573.447 144V142.964H570.927V134.228H569.093L566.503 136.65L567.189 137.392L569.653 135.096H569.751V142.964H567.021V144H573.447ZM581.646 142.964H576.508L579.14 140.598C580.386 139.478 581.282 138.414 581.282 136.902C581.282 135.236 580.19 134.06 578.286 134.06C576.396 134.06 575.528 135.208 575.15 136.356L576.2 136.762C576.466 135.838 577.026 135.11 578.23 135.11C579.434 135.11 580.036 135.852 580.036 136.93V137.098C580.036 138.036 579.336 139.016 578.426 139.856L575.234 142.796V144H581.646V142.964ZM584.622 144.168C585.21 144.168 585.476 143.832 585.476 143.356V143.174C585.476 142.698 585.21 142.362 584.622 142.362C584.034 142.362 583.768 142.698 583.768 143.174V143.356C583.768 143.832 584.034 144.168 584.622 144.168ZM584.622 138.414C585.21 138.414 585.476 138.078 585.476 137.602V137.42C585.476 136.944 585.21 136.608 584.622 136.608C584.034 136.608 583.768 136.944 583.768 137.42V137.602C583.768 138.078 584.034 138.414 584.622 138.414ZM594.324 144V142.964H591.804V134.228H589.97L587.38 136.65L588.066 137.392L590.53 135.096H590.628V142.964H587.898V144H594.324ZM602.523 142.964H597.385L600.017 140.598C601.263 139.478 602.159 138.414 602.159 136.902C602.159 135.236 601.067 134.06 599.163 134.06C597.273 134.06 596.405 135.208 596.027 136.356L597.077 136.762C597.343 135.838 597.903 135.11 599.107 135.11C600.311 135.11 600.913 135.852 600.913 136.93V137.098C600.913 138.036 600.213 139.016 599.303 139.856L596.111 142.796V144H602.523V142.964Z" fill="#292929"/>
<path d="M628 166H469V168H628V166Z" fill="#E5E5E5" mask="url(#path-47-inside-14_4528_120890)"/>
<path d="M500.462 197.964H495.324L497.956 195.598C499.202 194.478 500.098 193.414 500.098 191.902C500.098 190.236 499.006 189.06 497.102 189.06C495.212 189.06 494.344 190.208 493.966 191.356L495.016 191.762C495.282 190.838 495.842 190.11 497.046 190.11C498.25 190.11 498.852 190.852 498.852 191.93V192.098C498.852 193.036 498.152 194.016 497.242 194.856L494.05 197.796V199H500.462V197.964ZM505.595 199.168C507.933 199.168 508.955 197.306 508.955 194.114C508.955 190.922 507.933 189.06 505.595 189.06C503.257 189.06 502.235 190.922 502.235 194.114C502.235 197.306 503.257 199.168 505.595 199.168ZM505.595 198.146C504.069 198.146 503.467 196.802 503.467 194.912V193.316C503.467 191.426 504.069 190.082 505.595 190.082C507.121 190.082 507.723 191.426 507.723 193.316V194.912C507.723 196.802 507.121 198.146 505.595 198.146ZM517.251 197.964H512.113L514.745 195.598C515.991 194.478 516.887 193.414 516.887 191.902C516.887 190.236 515.795 189.06 513.891 189.06C512.001 189.06 511.133 190.208 510.755 191.356L511.805 191.762C512.071 190.838 512.631 190.11 513.835 190.11C515.039 190.11 515.641 190.852 515.641 191.93V192.098C515.641 193.036 514.941 194.016 514.031 194.856L510.839 197.796V199H517.251V197.964ZM525.646 197.964H520.508L523.14 195.598C524.386 194.478 525.282 193.414 525.282 191.902C525.282 190.236 524.19 189.06 522.286 189.06C520.396 189.06 519.528 190.208 519.15 191.356L520.2 191.762C520.466 190.838 521.026 190.11 522.23 190.11C523.434 190.11 524.036 190.852 524.036 191.93V192.098C524.036 193.036 523.336 194.016 522.426 194.856L519.234 197.796V199H525.646V197.964ZM527.712 201.114L531.366 188.64H530.358L526.704 201.114H527.712ZM539.596 199V197.964H537.076V189.228H535.242L532.652 191.65L533.338 192.392L535.802 190.096H535.9V197.964H533.17V199H539.596ZM547.794 197.964H542.656L545.288 195.598C546.534 194.478 547.43 193.414 547.43 191.902C547.43 190.236 546.338 189.06 544.434 189.06C542.544 189.06 541.676 190.208 541.298 191.356L542.348 191.762C542.614 190.838 543.174 190.11 544.378 190.11C545.582 190.11 546.184 190.852 546.184 191.93V192.098C546.184 193.036 545.484 194.016 544.574 194.856L541.382 197.796V199H547.794V197.964ZM549.861 201.114L553.515 188.64H552.507L548.853 201.114H549.861ZM561.744 199V197.964H559.224V189.228H557.39L554.8 191.65L555.486 192.392L557.95 190.096H558.048V197.964H555.318V199H561.744ZM573.447 199V197.964H570.927V189.228H569.093L566.503 191.65L567.189 192.392L569.653 190.096H569.751V197.964H567.021V199H573.447ZM581.646 197.964H576.508L579.14 195.598C580.386 194.478 581.282 193.414 581.282 191.902C581.282 190.236 580.19 189.06 578.286 189.06C576.396 189.06 575.528 190.208 575.15 191.356L576.2 191.762C576.466 190.838 577.026 190.11 578.23 190.11C579.434 190.11 580.036 190.852 580.036 191.93V192.098C580.036 193.036 579.336 194.016 578.426 194.856L575.234 197.796V199H581.646V197.964ZM584.622 199.168C585.21 199.168 585.476 198.832 585.476 198.356V198.174C585.476 197.698 585.21 197.362 584.622 197.362C584.034 197.362 583.768 197.698 583.768 198.174V198.356C583.768 198.832 584.034 199.168 584.622 199.168ZM584.622 193.414C585.21 193.414 585.476 193.078 585.476 192.602V192.42C585.476 191.944 585.21 191.608 584.622 191.608C584.034 191.608 583.768 191.944 583.768 192.42V192.602C583.768 193.078 584.034 193.414 584.622 193.414ZM594.324 199V197.964H591.804V189.228H589.97L587.38 191.65L588.066 192.392L590.53 190.096H590.628V197.964H587.898V199H594.324ZM602.523 197.964H597.385L600.017 195.598C601.263 194.478 602.159 193.414 602.159 191.902C602.159 190.236 601.067 189.06 599.163 189.06C597.273 189.06 596.405 190.208 596.027 191.356L597.077 191.762C597.343 190.838 597.903 190.11 599.107 190.11C600.311 190.11 600.913 190.852 600.913 191.93V192.098C600.913 193.036 600.213 194.016 599.303 194.856L596.111 197.796V199H602.523V197.964Z" fill="#292929"/>
<path d="M628 221H469V223H628V221Z" fill="#E5E5E5" mask="url(#path-50-inside-15_4528_120890)"/>
<path d="M500.462 252.964H495.324L497.956 250.598C499.202 249.478 500.098 248.414 500.098 246.902C500.098 245.236 499.006 244.06 497.102 244.06C495.212 244.06 494.344 245.208 493.966 246.356L495.016 246.762C495.282 245.838 495.842 245.11 497.046 245.11C498.25 245.11 498.852 245.852 498.852 246.93V247.098C498.852 248.036 498.152 249.016 497.242 249.856L494.05 252.796V254H500.462V252.964ZM505.595 254.168C507.933 254.168 508.955 252.306 508.955 249.114C508.955 245.922 507.933 244.06 505.595 244.06C503.257 244.06 502.235 245.922 502.235 249.114C502.235 252.306 503.257 254.168 505.595 254.168ZM505.595 253.146C504.069 253.146 503.467 251.802 503.467 249.912V248.316C503.467 246.426 504.069 245.082 505.595 245.082C507.121 245.082 507.723 246.426 507.723 248.316V249.912C507.723 251.802 507.121 253.146 505.595 253.146ZM517.251 252.964H512.113L514.745 250.598C515.991 249.478 516.887 248.414 516.887 246.902C516.887 245.236 515.795 244.06 513.891 244.06C512.001 244.06 511.133 245.208 510.755 246.356L511.805 246.762C512.071 245.838 512.631 245.11 513.835 245.11C515.039 245.11 515.641 245.852 515.641 246.93V247.098C515.641 248.036 514.941 249.016 514.031 249.856L510.839 252.796V254H517.251V252.964ZM525.646 252.964H520.508L523.14 250.598C524.386 249.478 525.282 248.414 525.282 246.902C525.282 245.236 524.19 244.06 522.286 244.06C520.396 244.06 519.528 245.208 519.15 246.356L520.2 246.762C520.466 245.838 521.026 245.11 522.23 245.11C523.434 245.11 524.036 245.852 524.036 246.93V247.098C524.036 248.036 523.336 249.016 522.426 249.856L519.234 252.796V254H525.646V252.964ZM527.712 256.114L531.366 243.64H530.358L526.704 256.114H527.712ZM539.596 254V252.964H537.076V244.228H535.242L532.652 246.65L533.338 247.392L535.802 245.096H535.9V252.964H533.17V254H539.596ZM547.794 252.964H542.656L545.288 250.598C546.534 249.478 547.43 248.414 547.43 246.902C547.43 245.236 546.338 244.06 544.434 244.06C542.544 244.06 541.676 245.208 541.298 246.356L542.348 246.762C542.614 245.838 543.174 245.11 544.378 245.11C545.582 245.11 546.184 245.852 546.184 246.93V247.098C546.184 248.036 545.484 249.016 544.574 249.856L541.382 252.796V254H547.794V252.964ZM549.861 256.114L553.515 243.64H552.507L548.853 256.114H549.861ZM561.744 254V252.964H559.224V244.228H557.39L554.8 246.65L555.486 247.392L557.95 245.096H558.048V252.964H555.318V254H561.744ZM573.447 254V252.964H570.927V244.228H569.093L566.503 246.65L567.189 247.392L569.653 245.096H569.751V252.964H567.021V254H573.447ZM581.646 252.964H576.508L579.14 250.598C580.386 249.478 581.282 248.414 581.282 246.902C581.282 245.236 580.19 244.06 578.286 244.06C576.396 244.06 575.528 245.208 575.15 246.356L576.2 246.762C576.466 245.838 577.026 245.11 578.23 245.11C579.434 245.11 580.036 245.852 580.036 246.93V247.098C580.036 248.036 579.336 249.016 578.426 249.856L575.234 252.796V254H581.646V252.964ZM584.622 254.168C585.21 254.168 585.476 253.832 585.476 253.356V253.174C585.476 252.698 585.21 252.362 584.622 252.362C584.034 252.362 583.768 252.698 583.768 253.174V253.356C583.768 253.832 584.034 254.168 584.622 254.168ZM584.622 248.414C585.21 248.414 585.476 248.078 585.476 247.602V247.42C585.476 246.944 585.21 246.608 584.622 246.608C584.034 246.608 583.768 246.944 583.768 247.42V247.602C583.768 248.078 584.034 248.414 584.622 248.414ZM594.324 254V252.964H591.804V244.228H589.97L587.38 246.65L588.066 247.392L590.53 245.096H590.628V252.964H587.898V254H594.324ZM602.523 252.964H597.385L600.017 250.598C601.263 249.478 602.159 248.414 602.159 246.902C602.159 245.236 601.067 244.06 599.163 244.06C597.273 244.06 596.405 245.208 596.027 246.356L597.077 246.762C597.343 245.838 597.903 245.11 599.107 245.11C600.311 245.11 600.913 245.852 600.913 246.93V247.098C600.913 248.036 600.213 249.016 599.303 249.856L596.111 252.796V254H602.523V252.964Z" fill="#292929"/>
<path d="M628 276H469V278H628V276Z" fill="#E5E5E5" mask="url(#path-53-inside-16_4528_120890)"/>
<path d="M684.114 89L680.866 79.228H678.57L675.294 89H677.17L677.94 86.508H681.412L682.196 89H684.114ZM680.964 84.926H678.388L679.634 80.908H679.704L680.964 84.926ZM688.326 89.168C689.74 89.168 690.762 88.524 691.238 87.236L689.866 86.578C689.6 87.236 689.18 87.726 688.326 87.726C687.332 87.726 686.828 87.04 686.828 86.018V84.688C686.828 83.666 687.332 82.966 688.326 82.966C689.096 82.966 689.558 83.414 689.726 84.03L691.196 83.372C690.762 82.224 689.796 81.524 688.326 81.524C686.17 81.524 684.952 82.994 684.952 85.332C684.952 87.684 686.17 89.168 688.326 89.168ZM694.902 89H696.19V87.572H694.804V83.12H696.302V81.692H694.804V79.69H693.194V80.936C693.194 81.44 693.026 81.692 692.494 81.692H691.934V83.12H693.012V87.138C693.012 88.328 693.67 89 694.902 89ZM698.752 80.628C699.48 80.628 699.802 80.25 699.802 79.732V79.452C699.802 78.934 699.48 78.556 698.752 78.556C698.01 78.556 697.702 78.934 697.702 79.452V79.732C697.702 80.25 698.01 80.628 698.752 80.628ZM697.856 89H699.648V81.692H697.856V89ZM704.623 89.168C706.723 89.168 708.025 87.684 708.025 85.332C708.025 82.994 706.723 81.524 704.623 81.524C702.537 81.524 701.235 82.994 701.235 85.332C701.235 87.684 702.537 89.168 704.623 89.168ZM704.623 87.726C703.699 87.726 703.111 87.124 703.111 86.018V84.66C703.111 83.568 703.699 82.966 704.623 82.966C705.561 82.966 706.149 83.568 706.149 84.66V86.018C706.149 87.124 705.561 87.726 704.623 87.726ZM711.406 89V84.17C711.406 83.386 712.12 82.994 712.862 82.994C713.716 82.994 714.066 83.526 714.066 84.562V89H715.858V84.38C715.858 82.56 715.018 81.524 713.52 81.524C712.386 81.524 711.77 82.126 711.476 82.91H711.406V81.692H709.614V89H711.406ZM720.239 89.168C722.059 89.168 723.249 88.188 723.249 86.774C723.249 85.556 722.479 84.842 720.883 84.618L720.141 84.52C719.455 84.408 719.189 84.184 719.189 83.694C719.189 83.246 719.525 82.938 720.295 82.938C721.009 82.938 721.625 83.274 722.045 83.722L723.095 82.672C722.395 81.944 721.667 81.524 720.239 81.524C718.573 81.524 717.467 82.42 717.467 83.834C717.467 85.164 718.335 85.85 719.903 86.046L720.631 86.144C721.275 86.228 721.527 86.494 721.527 86.914C721.527 87.432 721.163 87.754 720.309 87.754C719.483 87.754 718.839 87.376 718.307 86.76L717.215 87.824C717.943 88.664 718.853 89.168 720.239 89.168Z" fill="#292929"/>
<path d="M748 111H627V113H748V111Z" fill="#E5E5E5" mask="url(#path-56-inside-17_4528_120890)"/>
<path d="M699 140.25C699.69 140.25 700.25 139.69 700.25 139C700.25 138.31 699.69 137.75 699 137.75C698.31 137.75 697.75 138.31 697.75 139C697.75 139.69 698.31 140.25 699 140.25Z" fill="#292929"/>
<path d="M704 140.25C704.69 140.25 705.25 139.69 705.25 139C705.25 138.31 704.69 137.75 704 137.75C703.31 137.75 702.75 138.31 702.75 139C702.75 139.69 703.31 140.25 704 140.25Z" fill="#292929"/>
<path d="M709 140.25C709.69 140.25 710.25 139.69 710.25 139C710.25 138.31 709.69 137.75 709 137.75C708.31 137.75 707.75 138.31 707.75 139C707.75 139.69 708.31 140.25 709 140.25Z" fill="#292929"/>
<path d="M748 166H627V168H748V166Z" fill="#E5E5E5" mask="url(#path-59-inside-18_4528_120890)"/>
<path d="M699 195.25C699.69 195.25 700.25 194.69 700.25 194C700.25 193.31 699.69 192.75 699 192.75C698.31 192.75 697.75 193.31 697.75 194C697.75 194.69 698.31 195.25 699 195.25Z" fill="#292929"/>
<path d="M704 195.25C704.69 195.25 705.25 194.69 705.25 194C705.25 193.31 704.69 192.75 704 192.75C703.31 192.75 702.75 193.31 702.75 194C702.75 194.69 703.31 195.25 704 195.25Z" fill="#292929"/>
<path d="M709 195.25C709.69 195.25 710.25 194.69 710.25 194C710.25 193.31 709.69 192.75 709 192.75C708.31 192.75 707.75 193.31 707.75 194C707.75 194.69 708.31 195.25 709 195.25Z" fill="#292929"/>
<path d="M748 221H627V223H748V221Z" fill="#E5E5E5" mask="url(#path-66-inside-19_4528_120890)"/>
<path d="M699 250.25C699.69 250.25 700.25 249.69 700.25 249C700.25 248.31 699.69 247.75 699 247.75C698.31 247.75 697.75 248.31 697.75 249C697.75 249.69 698.31 250.25 699 250.25Z" fill="#292929"/>
<path d="M704 250.25C704.69 250.25 705.25 249.69 705.25 249C705.25 248.31 704.69 247.75 704 247.75C703.31 247.75 702.75 248.31 702.75 249C702.75 249.69 703.31 250.25 704 250.25Z" fill="#292929"/>
<path d="M709 250.25C709.69 250.25 710.25 249.69 710.25 249C710.25 248.31 709.69 247.75 709 247.75C708.31 247.75 707.75 248.31 707.75 249C707.75 249.69 708.31 250.25 709 250.25Z" fill="#292929"/>
<path d="M748 276H627V278H748V276Z" fill="#E5E5E5" mask="url(#path-73-inside-20_4528_120890)"/>
</g>
<rect x="174.5" y="56.5" width="573" height="220" rx="3.5" stroke="#E5E5E5"/>
<rect x="134" y="72" width="24" height="24" rx="12" fill="#6E04C1"/>
<path d="M149.111 88.5V87.538H146.771V79.426H145.068L142.663 81.675L143.3 82.364L145.588 80.232H145.679V87.538H143.144V88.5H149.111Z" fill="white"/>
<path d="M156 84H173" stroke="#6E04C1" stroke-width="0.5"/>
<path d="M173 59L173 109" stroke="#6E04C1"/>
<rect x="134" y="185" width="24" height="24" rx="12" fill="#6E04C1"/>
<path d="M148.929 200.538H144.158L146.602 198.341C147.759 197.301 148.591 196.313 148.591 194.909C148.591 193.362 147.577 192.27 145.809 192.27C144.054 192.27 143.248 193.336 142.897 194.402L143.872 194.779C144.119 193.921 144.639 193.245 145.757 193.245C146.875 193.245 147.434 193.934 147.434 194.935V195.091C147.434 195.962 146.784 196.872 145.939 197.652L142.975 200.382V201.5H148.929V200.538Z" fill="white"/>
<path d="M156 197H173" stroke="#6E04C1" stroke-width="0.5"/>
<path d="M173 118L173 276" stroke="#6E04C1"/>
<rect x="0.5" y="0.5" width="881" height="332" rx="3.5" stroke="#E5E5E5"/>
<defs>
<clipPath id="clip0_4528_120890">
<rect x="174" y="56" width="574" height="221" rx="4" fill="white"/>
</clipPath>
</defs>
</svg>
