<svg width="882" height="506" viewBox="0 0 882 506" fill="none" xmlns="http://www.w3.org/2000/svg">
<rect x="0.5" y="0.5" width="881" height="505" rx="3.5" fill="#F8F8F8"/>
<g filter="url(#filter0_d_4528_120073)">
<rect x="86.5" y="90" width="296" height="360" rx="4" fill="white" shape-rendering="crispEdges"/>
<path d="M110.75 130L117 123.75L117.875 124.625L112.5 130L117.875 135.375L117 136.25L110.75 130Z" fill="#292929"/>
<path d="M205.916 136L202.204 124.832H199.58L195.836 136H197.98L198.86 133.152H202.828L203.724 136H205.916ZM202.316 131.344H199.372L200.796 126.752H200.876L202.316 131.344ZM207.434 139.2H209.482V134.608H209.546C209.866 135.552 210.746 136.192 211.85 136.192C213.962 136.192 215.13 134.608 215.13 131.808C215.13 129.024 213.962 127.456 211.85 127.456C210.746 127.456 209.85 128.064 209.546 129.024H209.482V127.648H207.434V139.2ZM211.194 134.496C210.218 134.496 209.482 134 209.482 133.136V130.48C209.482 129.664 210.218 129.136 211.194 129.136C212.25 129.136 212.986 129.92 212.986 131.104V132.544C212.986 133.728 212.25 134.496 211.194 134.496ZM219.076 136V130.88C219.076 129.968 219.796 129.584 221.172 129.584H221.812V127.648H221.364C220.036 127.648 219.364 128.496 219.156 129.376H219.076V127.648H217.028V136H219.076ZM224.333 126.432C225.165 126.432 225.533 126 225.533 125.408V125.088C225.533 124.496 225.165 124.064 224.333 124.064C223.485 124.064 223.133 124.496 223.133 125.088V125.408C223.133 126 223.485 126.432 224.333 126.432ZM223.309 136H225.357V127.648H223.309V136ZM230.883 136V134.368H229.779V124.16H227.731V133.984C227.731 135.264 228.387 136 229.779 136H230.883ZM243.767 134.224H238.311L240.663 132.288C242.215 131.008 243.479 129.824 243.479 127.968C243.479 126.048 242.135 124.64 239.783 124.64C237.511 124.64 236.311 125.936 235.831 127.424L237.655 128.128C237.911 127.216 238.455 126.464 239.607 126.464C240.519 126.464 241.255 127.008 241.255 127.984V128.192C241.255 129.168 240.711 129.936 239.527 130.976L236.023 134.048V136H243.767V134.224ZM249.425 136.192C252.273 136.192 253.585 134.064 253.585 130.416C253.585 126.768 252.273 124.64 249.425 124.64C246.577 124.64 245.265 126.768 245.265 130.416C245.265 134.064 246.577 136.192 249.425 136.192ZM249.425 134.416C248.001 134.416 247.505 133.264 247.505 131.424V129.408C247.505 127.568 248.001 126.416 249.425 126.416C250.849 126.416 251.345 127.568 251.345 129.408V131.424C251.345 133.264 250.849 134.416 249.425 134.416ZM262.955 134.224H257.499L259.851 132.288C261.403 131.008 262.667 129.824 262.667 127.968C262.667 126.048 261.323 124.64 258.971 124.64C256.699 124.64 255.499 125.936 255.019 127.424L256.843 128.128C257.099 127.216 257.643 126.464 258.795 126.464C259.707 126.464 260.443 127.008 260.443 127.984V128.192C260.443 129.168 259.899 129.936 258.715 130.976L255.211 134.048V136H262.955V134.224ZM272.549 134.224H267.093L269.445 132.288C270.997 131.008 272.26 129.824 272.26 127.968C272.26 126.048 270.917 124.64 268.565 124.64C266.293 124.64 265.093 125.936 264.613 127.424L266.437 128.128C266.693 127.216 267.237 126.464 268.389 126.464C269.301 126.464 270.037 127.008 270.037 127.984V128.192C270.037 129.168 269.493 129.936 268.309 130.976L264.805 134.048V136H272.549V134.224Z" fill="#292929"/>
<path d="M358.25 130L352 136.25L351.125 135.375L356.5 130L351.125 124.625L352 123.75L358.25 130Z" fill="#292929"/>
<path d="M108.39 182.12C109.89 182.12 110.79 181.3 110.79 180.02C110.79 178.98 110.2 178.38 108.84 178.07L108.27 177.94C107.39 177.74 106.96 177.44 106.96 176.78C106.96 176.03 107.51 175.64 108.4 175.64C109.21 175.64 109.74 175.97 110.12 176.5L110.75 176.04C110.23 175.3 109.49 174.9 108.44 174.9C107.07 174.9 106.13 175.57 106.13 176.81C106.13 177.88 106.83 178.44 108.1 178.73L108.67 178.86C109.59 179.07 109.96 179.4 109.96 180.06C109.96 180.86 109.42 181.38 108.42 181.38C107.61 181.38 107.03 181.03 106.54 180.38L105.92 180.9C106.48 181.66 107.27 182.12 108.39 182.12ZM115.341 182H116.141V176.84H115.341V180.41C115.341 181.09 114.721 181.4 114.091 181.4C113.321 181.4 112.911 180.93 112.911 180.01V176.84H112.111V180.15C112.111 181.4 112.791 182.12 113.851 182.12C114.711 182.12 115.101 181.65 115.301 181.16H115.341V182ZM118.644 182V178.42C118.644 177.76 119.264 177.44 119.904 177.44C120.674 177.44 121.074 177.91 121.074 178.83V182H121.874V178.69C121.874 177.44 121.204 176.72 120.144 176.72C119.374 176.72 118.934 177.1 118.684 177.68H118.644V176.84H117.844V182H118.644Z" fill="#989898"/>
<path d="M145.43 182H146.25V176.12H146.3L146.89 177.29L148.56 180.33L150.23 177.29L150.82 176.12H150.87V182H151.69V175.02H150.61L148.6 178.78H148.55L146.55 175.02H145.43V182ZM155.415 182.12C156.795 182.12 157.745 181.06 157.745 179.42C157.745 177.78 156.795 176.72 155.415 176.72C154.035 176.72 153.085 177.78 153.085 179.42C153.085 181.06 154.035 182.12 155.415 182.12ZM155.415 181.41C154.555 181.41 153.945 180.88 153.945 179.79V179.05C153.945 177.96 154.555 177.43 155.415 177.43C156.275 177.43 156.885 177.96 156.885 179.05V179.79C156.885 180.88 156.275 181.41 155.415 181.41ZM159.861 182V178.42C159.861 177.76 160.481 177.44 161.121 177.44C161.891 177.44 162.291 177.91 162.291 178.83V182H163.091V178.69C163.091 177.44 162.421 176.72 161.361 176.72C160.591 176.72 160.151 177.1 159.901 177.68H159.861V176.84H159.061V182H159.861Z" fill="#989898"/>
<path d="M191.5 175.76V175.02H186.22V175.76H188.44V182H189.28V175.76H191.5ZM195.255 182H196.055V176.84H195.255V180.41C195.255 181.09 194.635 181.4 194.005 181.4C193.235 181.4 192.825 180.93 192.825 180.01V176.84H192.025V180.15C192.025 181.4 192.705 182.12 193.765 182.12C194.625 182.12 195.015 181.65 195.215 181.16H195.255V182ZM199.698 182.12C200.668 182.12 201.408 181.64 201.738 180.94L201.168 180.53C200.898 181.1 200.398 181.42 199.748 181.42C198.788 181.42 198.218 180.75 198.218 179.86V179.62H201.928V179.24C201.928 177.78 201.078 176.72 199.698 176.72C198.298 176.72 197.378 177.78 197.378 179.42C197.378 181.06 198.298 182.12 199.698 182.12ZM199.698 177.39C200.518 177.39 201.068 178 201.068 178.91V179.02H198.218V178.95C198.218 178.05 198.828 177.39 199.698 177.39Z" fill="#989898"/>
<path d="M226.83 182L227.76 178.52L228.42 175.96H228.44L229.08 178.52L229.99 182H230.92L232.71 175.02H231.85L231.06 178.38L230.46 180.98H230.43L229.78 178.38L228.93 175.02H227.97L227.09 178.38L226.44 180.99H226.42L225.84 178.38L225.09 175.02H224.2L225.9 182H226.83ZM235.55 182.12C236.52 182.12 237.26 181.64 237.59 180.94L237.02 180.53C236.75 181.1 236.25 181.42 235.6 181.42C234.64 181.42 234.07 180.75 234.07 179.86V179.62H237.78V179.24C237.78 177.78 236.93 176.72 235.55 176.72C234.15 176.72 233.23 177.78 233.23 179.42C233.23 181.06 234.15 182.12 235.55 182.12ZM235.55 177.39C236.37 177.39 236.92 178 236.92 178.91V179.02H234.07V178.95C234.07 178.05 234.68 177.39 235.55 177.39ZM242.398 182H243.198V174.6H242.398V177.68H242.358C242.088 177.03 241.558 176.72 240.848 176.72C239.558 176.72 238.748 177.77 238.748 179.42C238.748 181.07 239.558 182.12 240.848 182.12C241.558 182.12 242.048 181.8 242.358 181.16H242.398V182ZM241.068 181.4C240.168 181.4 239.608 180.78 239.608 179.86V178.98C239.608 178.06 240.168 177.44 241.068 177.44C241.798 177.44 242.398 177.86 242.398 178.43V180.35C242.398 181.02 241.798 181.4 241.068 181.4Z" fill="#989898"/>
<path d="M271 175.76V175.02H265.72V175.76H267.94V182H268.78V175.76H271ZM272.073 182H272.873V178.42C272.873 177.76 273.493 177.44 274.133 177.44C274.903 177.44 275.303 177.91 275.303 178.83V182H276.103V178.69C276.103 177.44 275.433 176.72 274.373 176.72C273.603 176.72 273.163 177.1 272.913 177.68H272.873V174.6H272.073V182ZM280.936 182H281.736V176.84H280.936V180.41C280.936 181.09 280.316 181.4 279.686 181.4C278.916 181.4 278.506 180.93 278.506 180.01V176.84H277.706V180.15C277.706 181.4 278.386 182.12 279.446 182.12C280.306 182.12 280.696 181.65 280.896 181.16H280.936V182Z" fill="#989898"/>
<path d="M310.27 182V178.84H313.3V178.1H310.27V175.76H313.59V175.02H309.43V182H310.27ZM315.541 182V178.5C315.541 178.01 316.061 177.64 316.921 177.64H317.391V176.84H317.081C316.241 176.84 315.771 177.3 315.591 177.79H315.541V176.84H314.741V182H315.541ZM318.812 175.63C319.153 175.63 319.303 175.45 319.303 175.18V175.05C319.303 174.78 319.153 174.6 318.812 174.6C318.473 174.6 318.323 174.78 318.323 175.05V175.18C318.323 175.45 318.473 175.63 318.812 175.63ZM318.413 182H319.213V176.84H318.413V182Z" fill="#989898"/>
<path d="M349.89 182.12C351.39 182.12 352.29 181.3 352.29 180.02C352.29 178.98 351.7 178.38 350.34 178.07L349.77 177.94C348.89 177.74 348.46 177.44 348.46 176.78C348.46 176.03 349.01 175.64 349.9 175.64C350.71 175.64 351.24 175.97 351.62 176.5L352.25 176.04C351.73 175.3 350.99 174.9 349.94 174.9C348.57 174.9 347.63 175.57 347.63 176.81C347.63 177.88 348.33 178.44 349.6 178.73L350.17 178.86C351.09 179.07 351.46 179.4 351.46 180.06C351.46 180.86 350.92 181.38 349.92 181.38C349.11 181.38 348.53 181.03 348.04 180.38L347.42 180.9C347.98 181.66 348.77 182.12 349.89 182.12ZM357.861 182V181.3H357.271V178.46C357.271 177.37 356.531 176.72 355.291 176.72C354.361 176.72 353.741 177.18 353.461 177.73L353.941 178.18C354.221 177.71 354.631 177.41 355.251 177.41C356.071 177.41 356.471 177.81 356.471 178.54V179.05H355.451C353.951 179.05 353.251 179.59 353.251 180.56C353.251 181.52 353.891 182.12 354.981 182.12C355.701 182.12 356.251 181.79 356.471 181.16H356.521C356.581 181.64 356.821 182 357.411 182H357.861ZM355.111 181.44C354.491 181.44 354.091 181.15 354.091 180.64V180.43C354.091 179.93 354.501 179.65 355.411 179.65H356.471V180.5C356.471 181.03 355.901 181.44 355.111 181.44ZM361.142 182V181.3H360.092V177.54H361.222V176.84H360.092V175.41H359.372V176.37C359.372 176.72 359.262 176.84 358.922 176.84H358.442V177.54H359.292V181.15C359.292 181.65 359.592 182 360.142 182H361.142Z" fill="#989898"/>
<path d="M157.466 219V218.112H155.306V210.624H153.734L151.514 212.7L152.102 213.336L154.214 211.368H154.298V218.112H151.958V219H157.466Z" fill="#CECECE"/>
<path d="M197.298 218.112H192.894L195.15 216.084C196.218 215.124 196.986 214.212 196.986 212.916C196.986 211.488 196.05 210.48 194.418 210.48C192.798 210.48 192.054 211.464 191.73 212.448L192.63 212.796C192.858 212.004 193.338 211.38 194.37 211.38C195.402 211.38 195.918 212.016 195.918 212.94V213.084C195.918 213.888 195.318 214.728 194.538 215.448L191.802 217.968V219H197.298V218.112Z" fill="#CECECE"/>
<path d="M233.122 214.176V215.052H234.106C235.282 215.052 235.906 215.616 235.906 216.6V216.696C235.906 217.68 235.282 218.244 234.106 218.244C233.086 218.244 232.594 217.8 232.162 217.14L231.406 217.716C231.922 218.436 232.666 219.144 234.118 219.144C235.822 219.144 236.962 218.148 236.962 216.708C236.962 215.448 236.098 214.776 235.198 214.596V214.548C236.086 214.32 236.806 213.672 236.806 212.592C236.806 211.236 235.678 210.48 234.262 210.48C232.918 210.48 232.186 211.176 231.766 211.848L232.51 212.424C232.858 211.788 233.374 211.38 234.238 211.38C235.126 211.38 235.738 211.824 235.738 212.7V212.784C235.738 213.588 235.162 214.176 234.034 214.176H233.122Z" fill="#CECECE"/>
<path d="M276.362 219V217.356H277.574V216.516H276.362V210.624H274.862L271.358 216.468V217.356H275.402V219H276.362ZM275.342 211.404H275.402V216.516H272.306L275.342 211.404Z" fill="#CECECE"/>
<path d="M316.878 210.624H312.39L312.09 215.232L312.942 215.352C313.29 214.968 313.674 214.644 314.442 214.644C315.582 214.644 316.194 215.28 316.194 216.384V216.504C316.194 217.608 315.582 218.244 314.442 218.244C313.434 218.244 313.014 217.8 312.582 217.14L311.826 217.716C312.33 218.436 313.05 219.144 314.442 219.144C316.206 219.144 317.262 218.004 317.262 216.372C317.262 214.752 316.206 213.78 314.766 213.78C313.89 213.78 313.446 214.14 313.05 214.704H312.966L313.206 211.512H316.878V210.624Z" fill="#292929"/>
<path d="M354.514 219.144C356.194 219.144 357.298 218.016 357.298 216.372C357.298 214.788 356.266 213.792 354.826 213.792C353.806 213.792 353.206 214.308 352.81 214.992L352.75 214.968C353.206 213.024 354.202 211.932 355.99 210.624H354.694C353.35 211.5 351.706 213.444 351.706 215.928C351.706 217.92 352.774 219.144 354.514 219.144ZM354.502 218.268C353.398 218.268 352.75 217.632 352.75 216.504V216.408C352.75 215.28 353.398 214.644 354.502 214.644C355.606 214.644 356.254 215.28 356.254 216.408V216.504C356.254 217.632 355.606 218.268 354.502 218.268Z" fill="#292929"/>
<circle cx="354.5" cy="226" r="2" fill="#292929"/>
<rect x="94.5" y="234" width="40" height="40" rx="4" fill="#292929"/>
<path d="M114.082 259L117.226 251.512V250.624H111.73V253.048H112.63V251.488H116.206L113.002 259H114.082Z" fill="white"/>
<path d="M154.502 259.144C156.41 259.144 157.406 258.1 157.406 256.72C157.406 255.58 156.722 254.92 155.714 254.644V254.548C156.59 254.248 157.154 253.54 157.154 252.58C157.154 251.308 156.17 250.48 154.502 250.48C152.834 250.48 151.85 251.308 151.85 252.58C151.85 253.54 152.414 254.248 153.29 254.548V254.644C152.282 254.92 151.598 255.58 151.598 256.72C151.598 258.1 152.594 259.144 154.502 259.144ZM154.502 258.268C153.338 258.268 152.666 257.716 152.666 256.768V256.516C152.666 255.568 153.338 255.016 154.502 255.016C155.666 255.016 156.338 255.568 156.338 256.516V256.768C156.338 257.716 155.666 258.268 154.502 258.268ZM154.502 254.176C153.458 254.176 152.894 253.708 152.894 252.856V252.676C152.894 251.824 153.458 251.356 154.502 251.356C155.546 251.356 156.11 251.824 156.11 252.676V252.856C156.11 253.708 155.546 254.176 154.502 254.176Z" fill="#292929"/>
<path d="M197.298 253.696C197.298 251.704 196.23 250.48 194.49 250.48C192.81 250.48 191.706 251.608 191.706 253.252C191.706 254.836 192.738 255.832 194.178 255.832C195.198 255.832 195.798 255.316 196.194 254.632L196.254 254.656C195.798 256.6 194.802 257.692 193.014 259H194.31C195.654 258.124 197.298 256.18 197.298 253.696ZM194.502 254.98C193.398 254.98 192.75 254.344 192.75 253.216V253.12C192.75 251.992 193.398 251.356 194.502 251.356C195.606 251.356 196.254 251.992 196.254 253.12V253.216C196.254 254.344 195.606 254.98 194.502 254.98Z" fill="#292929"/>
<path d="M234.369 259V258.112H232.209V250.624H230.637L228.417 252.7L229.005 253.336L231.117 251.368H231.201V258.112H228.861V259H234.369ZM238.6 259.144C240.604 259.144 241.48 257.548 241.48 254.812C241.48 252.076 240.604 250.48 238.6 250.48C236.596 250.48 235.72 252.076 235.72 254.812C235.72 257.548 236.596 259.144 238.6 259.144ZM238.6 258.268C237.292 258.268 236.776 257.116 236.776 255.496V254.128C236.776 252.508 237.292 251.356 238.6 251.356C239.908 251.356 240.424 252.508 240.424 254.128V255.496C240.424 257.116 239.908 258.268 238.6 258.268Z" fill="#292929"/>
<path d="M274.369 259V258.112H272.209V250.624H270.637L268.417 252.7L269.005 253.336L271.117 251.368H271.201V258.112H268.861V259H274.369ZM281.564 259V258.112H279.404V250.624H277.832L275.612 252.7L276.2 253.336L278.312 251.368H278.396V258.112H276.056V259H281.564Z" fill="#292929"/>
<path d="M314.369 259V258.112H312.209V250.624H310.637L308.417 252.7L309.005 253.336L311.117 251.368H311.201V258.112H308.861V259H314.369ZM321.396 258.112H316.992L319.248 256.084C320.316 255.124 321.084 254.212 321.084 252.916C321.084 251.488 320.148 250.48 318.516 250.48C316.896 250.48 316.152 251.464 315.828 252.448L316.728 252.796C316.956 252.004 317.436 251.38 318.468 251.38C319.5 251.38 320.016 252.016 320.016 252.94V253.084C320.016 253.888 319.416 254.728 318.636 255.448L315.9 257.968V259H321.396V258.112Z" fill="#292929"/>
<path d="M354.369 259V258.112H352.209V250.624H350.637L348.417 252.7L349.005 253.336L351.117 251.368H351.201V258.112H348.861V259H354.369ZM357.22 254.176V255.052H358.204C359.38 255.052 360.004 255.616 360.004 256.6V256.696C360.004 257.68 359.38 258.244 358.204 258.244C357.184 258.244 356.692 257.8 356.26 257.14L355.504 257.716C356.02 258.436 356.764 259.144 358.216 259.144C359.92 259.144 361.06 258.148 361.06 256.708C361.06 255.448 360.196 254.776 359.296 254.596V254.548C360.184 254.32 360.904 253.672 360.904 252.592C360.904 251.236 359.776 250.48 358.36 250.48C357.016 250.48 356.284 251.176 355.864 251.848L356.608 252.424C356.956 251.788 357.472 251.38 358.336 251.38C359.224 251.38 359.836 251.824 359.836 252.7V252.784C359.836 253.588 359.26 254.176 358.132 254.176H357.22Z" fill="#292929"/>
<path d="M114.369 299V298.112H112.209V290.624H110.637L108.417 292.7L109.005 293.336L111.117 291.368H111.201V298.112H108.861V299H114.369ZM120.46 299V297.356H121.672V296.516H120.46V290.624H118.96L115.456 296.468V297.356H119.5V299H120.46ZM119.44 291.404H119.5V296.516H116.404L119.44 291.404Z" fill="#292929"/>
<path d="M154.369 299V298.112H152.209V290.624H150.637L148.417 292.7L149.005 293.336L151.117 291.368H151.201V298.112H148.861V299H154.369ZM160.976 290.624H156.488L156.188 295.232L157.04 295.352C157.388 294.968 157.772 294.644 158.54 294.644C159.68 294.644 160.292 295.28 160.292 296.384V296.504C160.292 297.608 159.68 298.244 158.54 298.244C157.532 298.244 157.112 297.8 156.68 297.14L155.924 297.716C156.428 298.436 157.148 299.144 158.54 299.144C160.304 299.144 161.36 298.004 161.36 296.372C161.36 294.752 160.304 293.78 158.864 293.78C157.988 293.78 157.544 294.14 157.148 294.704H157.064L157.304 291.512H160.976V290.624Z" fill="#292929"/>
<path d="M194.369 299V298.112H192.209V290.624H190.637L188.417 292.7L189.005 293.336L191.117 291.368H191.201V298.112H188.861V299H194.369ZM198.612 299.144C200.292 299.144 201.396 298.016 201.396 296.372C201.396 294.788 200.364 293.792 198.924 293.792C197.904 293.792 197.304 294.308 196.908 294.992L196.848 294.968C197.304 293.024 198.3 291.932 200.088 290.624H198.792C197.448 291.5 195.804 293.444 195.804 295.928C195.804 297.92 196.872 299.144 198.612 299.144ZM198.6 298.268C197.496 298.268 196.848 297.632 196.848 296.504V296.408C196.848 295.28 197.496 294.644 198.6 294.644C199.704 294.644 200.352 295.28 200.352 296.408V296.504C200.352 297.632 199.704 298.268 198.6 298.268Z" fill="#292929"/>
<path d="M234.369 299V298.112H232.209V290.624H230.637L228.417 292.7L229.005 293.336L231.117 291.368H231.201V298.112H228.861V299H234.369ZM238.18 299L241.324 291.512V290.624H235.828V293.048H236.728V291.488H240.304L237.1 299H238.18Z" fill="#292929"/>
<path d="M274.369 299V298.112H272.209V290.624H270.637L268.417 292.7L269.005 293.336L271.117 291.368H271.201V298.112H268.861V299H274.369ZM278.6 299.144C280.508 299.144 281.504 298.1 281.504 296.72C281.504 295.58 280.82 294.92 279.812 294.644V294.548C280.688 294.248 281.252 293.54 281.252 292.58C281.252 291.308 280.268 290.48 278.6 290.48C276.932 290.48 275.948 291.308 275.948 292.58C275.948 293.54 276.512 294.248 277.388 294.548V294.644C276.38 294.92 275.696 295.58 275.696 296.72C275.696 298.1 276.692 299.144 278.6 299.144ZM278.6 298.268C277.436 298.268 276.764 297.716 276.764 296.768V296.516C276.764 295.568 277.436 295.016 278.6 295.016C279.764 295.016 280.436 295.568 280.436 296.516V296.768C280.436 297.716 279.764 298.268 278.6 298.268ZM278.6 294.176C277.556 294.176 276.992 293.708 276.992 292.856V292.676C276.992 291.824 277.556 291.356 278.6 291.356C279.644 291.356 280.208 291.824 280.208 292.676V292.856C280.208 293.708 279.644 294.176 278.6 294.176Z" fill="#292929"/>
<path d="M314.369 299V298.112H312.209V290.624H310.637L308.417 292.7L309.005 293.336L311.117 291.368H311.201V298.112H308.861V299H314.369ZM321.396 293.696C321.396 291.704 320.328 290.48 318.588 290.48C316.908 290.48 315.804 291.608 315.804 293.252C315.804 294.836 316.836 295.832 318.276 295.832C319.296 295.832 319.896 295.316 320.292 294.632L320.352 294.656C319.896 296.6 318.9 297.692 317.112 299H318.408C319.752 298.124 321.396 296.18 321.396 293.696ZM318.6 294.98C317.496 294.98 316.848 294.344 316.848 293.216V293.12C316.848 291.992 317.496 291.356 318.6 291.356C319.704 291.356 320.352 291.992 320.352 293.12V293.216C320.352 294.344 319.704 294.98 318.6 294.98Z" fill="#292929"/>
<path d="M354.201 298.112H349.797L352.053 296.084C353.121 295.124 353.889 294.212 353.889 292.916C353.889 291.488 352.953 290.48 351.321 290.48C349.701 290.48 348.957 291.464 348.633 292.448L349.533 292.796C349.761 292.004 350.241 291.38 351.273 291.38C352.305 291.38 352.821 292.016 352.821 292.94V293.084C352.821 293.888 352.221 294.728 351.441 295.448L348.705 297.968V299H354.201V298.112ZM358.6 299.144C360.604 299.144 361.48 297.548 361.48 294.812C361.48 292.076 360.604 290.48 358.6 290.48C356.596 290.48 355.72 292.076 355.72 294.812C355.72 297.548 356.596 299.144 358.6 299.144ZM358.6 298.268C357.292 298.268 356.776 297.116 356.776 295.496V294.128C356.776 292.508 357.292 291.356 358.6 291.356C359.908 291.356 360.424 292.508 360.424 294.128V295.496C360.424 297.116 359.908 298.268 358.6 298.268Z" fill="#292929"/>
<path d="M114.201 338.112H109.797L112.053 336.084C113.121 335.124 113.889 334.212 113.889 332.916C113.889 331.488 112.953 330.48 111.321 330.48C109.701 330.48 108.957 331.464 108.633 332.448L109.533 332.796C109.761 332.004 110.241 331.38 111.273 331.38C112.305 331.38 112.821 332.016 112.821 332.94V333.084C112.821 333.888 112.221 334.728 111.441 335.448L108.705 337.968V339H114.201V338.112ZM121.564 339V338.112H119.404V330.624H117.832L115.612 332.7L116.2 333.336L118.312 331.368H118.396V338.112H116.056V339H121.564Z" fill="#292929"/>
<path d="M154.201 338.112H149.797L152.053 336.084C153.121 335.124 153.889 334.212 153.889 332.916C153.889 331.488 152.953 330.48 151.321 330.48C149.701 330.48 148.957 331.464 148.633 332.448L149.533 332.796C149.761 332.004 150.241 331.38 151.273 331.38C152.305 331.38 152.821 332.016 152.821 332.94V333.084C152.821 333.888 152.221 334.728 151.441 335.448L148.705 337.968V339H154.201V338.112ZM161.396 338.112H156.992L159.248 336.084C160.316 335.124 161.084 334.212 161.084 332.916C161.084 331.488 160.148 330.48 158.516 330.48C156.896 330.48 156.152 331.464 155.828 332.448L156.728 332.796C156.956 332.004 157.436 331.38 158.468 331.38C159.5 331.38 160.016 332.016 160.016 332.94V333.084C160.016 333.888 159.416 334.728 158.636 335.448L155.9 337.968V339H161.396V338.112Z" fill="#292929"/>
<path d="M194.201 338.112H189.797L192.053 336.084C193.121 335.124 193.889 334.212 193.889 332.916C193.889 331.488 192.953 330.48 191.321 330.48C189.701 330.48 188.957 331.464 188.633 332.448L189.533 332.796C189.761 332.004 190.241 331.38 191.273 331.38C192.305 331.38 192.821 332.016 192.821 332.94V333.084C192.821 333.888 192.221 334.728 191.441 335.448L188.705 337.968V339H194.201V338.112ZM197.22 334.176V335.052H198.204C199.38 335.052 200.004 335.616 200.004 336.6V336.696C200.004 337.68 199.38 338.244 198.204 338.244C197.184 338.244 196.692 337.8 196.26 337.14L195.504 337.716C196.02 338.436 196.764 339.144 198.216 339.144C199.92 339.144 201.06 338.148 201.06 336.708C201.06 335.448 200.196 334.776 199.296 334.596V334.548C200.184 334.32 200.904 333.672 200.904 332.592C200.904 331.236 199.776 330.48 198.36 330.48C197.016 330.48 196.284 331.176 195.864 331.848L196.608 332.424C196.956 331.788 197.472 331.38 198.336 331.38C199.224 331.38 199.836 331.824 199.836 332.7V332.784C199.836 333.588 199.26 334.176 198.132 334.176H197.22Z" fill="#292929"/>
<path d="M234.201 338.112H229.797L232.053 336.084C233.121 335.124 233.889 334.212 233.889 332.916C233.889 331.488 232.953 330.48 231.321 330.48C229.701 330.48 228.957 331.464 228.633 332.448L229.533 332.796C229.761 332.004 230.241 331.38 231.273 331.38C232.305 331.38 232.821 332.016 232.821 332.94V333.084C232.821 333.888 232.221 334.728 231.441 335.448L228.705 337.968V339H234.201V338.112ZM240.46 339V337.356H241.672V336.516H240.46V330.624H238.96L235.456 336.468V337.356H239.5V339H240.46ZM239.44 331.404H239.5V336.516H236.404L239.44 331.404Z" fill="#292929"/>
<path d="M274.201 338.112H269.797L272.053 336.084C273.121 335.124 273.889 334.212 273.889 332.916C273.889 331.488 272.953 330.48 271.321 330.48C269.701 330.48 268.957 331.464 268.633 332.448L269.533 332.796C269.761 332.004 270.241 331.38 271.273 331.38C272.305 331.38 272.821 332.016 272.821 332.94V333.084C272.821 333.888 272.221 334.728 271.441 335.448L268.705 337.968V339H274.201V338.112ZM280.976 330.624H276.488L276.188 335.232L277.04 335.352C277.388 334.968 277.772 334.644 278.54 334.644C279.68 334.644 280.292 335.28 280.292 336.384V336.504C280.292 337.608 279.68 338.244 278.54 338.244C277.532 338.244 277.112 337.8 276.68 337.14L275.924 337.716C276.428 338.436 277.148 339.144 278.54 339.144C280.304 339.144 281.36 338.004 281.36 336.372C281.36 334.752 280.304 333.78 278.864 333.78C277.988 333.78 277.544 334.14 277.148 334.704H277.064L277.304 331.512H280.976V330.624Z" fill="#292929"/>
<path d="M314.201 338.112H309.797L312.053 336.084C313.121 335.124 313.889 334.212 313.889 332.916C313.889 331.488 312.953 330.48 311.321 330.48C309.701 330.48 308.957 331.464 308.633 332.448L309.533 332.796C309.761 332.004 310.241 331.38 311.273 331.38C312.305 331.38 312.821 332.016 312.821 332.94V333.084C312.821 333.888 312.221 334.728 311.441 335.448L308.705 337.968V339H314.201V338.112ZM318.612 339.144C320.292 339.144 321.396 338.016 321.396 336.372C321.396 334.788 320.364 333.792 318.924 333.792C317.904 333.792 317.304 334.308 316.908 334.992L316.848 334.968C317.304 333.024 318.3 331.932 320.088 330.624H318.792C317.448 331.5 315.804 333.444 315.804 335.928C315.804 337.92 316.872 339.144 318.612 339.144ZM318.6 338.268C317.496 338.268 316.848 337.632 316.848 336.504V336.408C316.848 335.28 317.496 334.644 318.6 334.644C319.704 334.644 320.352 335.28 320.352 336.408V336.504C320.352 337.632 319.704 338.268 318.6 338.268Z" fill="#292929"/>
<path d="M354.201 338.112H349.797L352.053 336.084C353.121 335.124 353.889 334.212 353.889 332.916C353.889 331.488 352.953 330.48 351.321 330.48C349.701 330.48 348.957 331.464 348.633 332.448L349.533 332.796C349.761 332.004 350.241 331.38 351.273 331.38C352.305 331.38 352.821 332.016 352.821 332.94V333.084C352.821 333.888 352.221 334.728 351.441 335.448L348.705 337.968V339H354.201V338.112ZM358.18 339L361.324 331.512V330.624H355.828V333.048H356.728V331.488H360.304L357.1 339H358.18Z" fill="#292929"/>
<path d="M114.201 378.112H109.797L112.053 376.084C113.121 375.124 113.889 374.212 113.889 372.916C113.889 371.488 112.953 370.48 111.321 370.48C109.701 370.48 108.957 371.464 108.633 372.448L109.533 372.796C109.761 372.004 110.241 371.38 111.273 371.38C112.305 371.38 112.821 372.016 112.821 372.94V373.084C112.821 373.888 112.221 374.728 111.441 375.448L108.705 377.968V379H114.201V378.112ZM118.6 379.144C120.508 379.144 121.504 378.1 121.504 376.72C121.504 375.58 120.82 374.92 119.812 374.644V374.548C120.688 374.248 121.252 373.54 121.252 372.58C121.252 371.308 120.268 370.48 118.6 370.48C116.932 370.48 115.948 371.308 115.948 372.58C115.948 373.54 116.512 374.248 117.388 374.548V374.644C116.38 374.92 115.696 375.58 115.696 376.72C115.696 378.1 116.692 379.144 118.6 379.144ZM118.6 378.268C117.436 378.268 116.764 377.716 116.764 376.768V376.516C116.764 375.568 117.436 375.016 118.6 375.016C119.764 375.016 120.436 375.568 120.436 376.516V376.768C120.436 377.716 119.764 378.268 118.6 378.268ZM118.6 374.176C117.556 374.176 116.992 373.708 116.992 372.856V372.676C116.992 371.824 117.556 371.356 118.6 371.356C119.644 371.356 120.208 371.824 120.208 372.676V372.856C120.208 373.708 119.644 374.176 118.6 374.176Z" fill="#292929"/>
<path d="M154.201 378.112H149.797L152.053 376.084C153.121 375.124 153.889 374.212 153.889 372.916C153.889 371.488 152.953 370.48 151.321 370.48C149.701 370.48 148.957 371.464 148.633 372.448L149.533 372.796C149.761 372.004 150.241 371.38 151.273 371.38C152.305 371.38 152.821 372.016 152.821 372.94V373.084C152.821 373.888 152.221 374.728 151.441 375.448L148.705 377.968V379H154.201V378.112ZM161.396 373.696C161.396 371.704 160.328 370.48 158.588 370.48C156.908 370.48 155.804 371.608 155.804 373.252C155.804 374.836 156.836 375.832 158.276 375.832C159.296 375.832 159.896 375.316 160.292 374.632L160.352 374.656C159.896 376.6 158.9 377.692 157.112 379H158.408C159.752 378.124 161.396 376.18 161.396 373.696ZM158.6 374.98C157.496 374.98 156.848 374.344 156.848 373.216V373.12C156.848 371.992 157.496 371.356 158.6 371.356C159.704 371.356 160.352 371.992 160.352 373.12V373.216C160.352 374.344 159.704 374.98 158.6 374.98Z" fill="#292929"/>
<path d="M190.025 374.176V375.052H191.009C192.185 375.052 192.809 375.616 192.809 376.6V376.696C192.809 377.68 192.185 378.244 191.009 378.244C189.989 378.244 189.497 377.8 189.065 377.14L188.309 377.716C188.825 378.436 189.569 379.144 191.021 379.144C192.725 379.144 193.865 378.148 193.865 376.708C193.865 375.448 193.001 374.776 192.101 374.596V374.548C192.989 374.32 193.709 373.672 193.709 372.592C193.709 371.236 192.581 370.48 191.165 370.48C189.821 370.48 189.089 371.176 188.669 371.848L189.413 372.424C189.761 371.788 190.277 371.38 191.141 371.38C192.029 371.38 192.641 371.824 192.641 372.7V372.784C192.641 373.588 192.065 374.176 190.937 374.176H190.025ZM198.6 379.144C200.604 379.144 201.48 377.548 201.48 374.812C201.48 372.076 200.604 370.48 198.6 370.48C196.596 370.48 195.72 372.076 195.72 374.812C195.72 377.548 196.596 379.144 198.6 379.144ZM198.6 378.268C197.292 378.268 196.776 377.116 196.776 375.496V374.128C196.776 372.508 197.292 371.356 198.6 371.356C199.908 371.356 200.424 372.508 200.424 374.128V375.496C200.424 377.116 199.908 378.268 198.6 378.268Z" fill="#292929"/>
<path d="M230.025 374.176V375.052H231.009C232.185 375.052 232.809 375.616 232.809 376.6V376.696C232.809 377.68 232.185 378.244 231.009 378.244C229.989 378.244 229.497 377.8 229.065 377.14L228.309 377.716C228.825 378.436 229.569 379.144 231.021 379.144C232.725 379.144 233.865 378.148 233.865 376.708C233.865 375.448 233.001 374.776 232.101 374.596V374.548C232.989 374.32 233.709 373.672 233.709 372.592C233.709 371.236 232.581 370.48 231.165 370.48C229.821 370.48 229.089 371.176 228.669 371.848L229.413 372.424C229.761 371.788 230.277 371.38 231.141 371.38C232.029 371.38 232.641 371.824 232.641 372.7V372.784C232.641 373.588 232.065 374.176 230.937 374.176H230.025ZM241.564 379V378.112H239.404V370.624H237.832L235.612 372.7L236.2 373.336L238.312 371.368H238.396V378.112H236.056V379H241.564Z" fill="#292929"/>
<rect x="87" y="90.5" width="295" height="359" rx="3.5" stroke="black" stroke-opacity="0.102" shape-rendering="crispEdges"/>
</g>
<rect x="220.5" y="56" width="24" height="24" rx="12" fill="#6E04C1"/>
<path d="M235.429 72.038H230.658L233.102 69.841C234.259 68.801 235.091 67.813 235.091 66.409C235.091 64.862 234.077 63.77 232.309 63.77C230.554 63.77 229.748 64.836 229.397 65.902L230.372 66.279C230.619 65.421 231.139 64.745 232.257 64.745C233.375 64.745 233.934 65.434 233.934 66.435V66.591C233.934 67.462 233.284 68.372 232.439 69.152L229.475 71.882V73H235.429V72.038Z" fill="white"/>
<line x1="232" y1="78" x2="232" y2="118" stroke="#6E04C1"/>
<rect x="103.5" y="56" width="24" height="24" rx="12" fill="#6E04C1"/>
<path d="M118.611 73V72.038H116.271V63.926H114.568L112.163 66.175L112.8 66.864L115.088 64.732H115.179V72.038H112.644V73H118.611Z" fill="white"/>
<line x1="115" y1="78" x2="115" y2="118" stroke="#6E04C1"/>
<rect x="343" y="56" width="24" height="24" rx="12" fill="#6E04C1"/>
<path d="M353.405 67.774V68.723H354.471C355.745 68.723 356.421 69.334 356.421 70.4V70.504C356.421 71.57 355.745 72.181 354.471 72.181C353.366 72.181 352.833 71.7 352.365 70.985L351.546 71.609C352.105 72.389 352.911 73.156 354.484 73.156C356.33 73.156 357.565 72.077 357.565 70.517C357.565 69.152 356.629 68.424 355.654 68.229V68.177C356.616 67.93 357.396 67.228 357.396 66.058C357.396 64.589 356.174 63.77 354.64 63.77C353.184 63.77 352.391 64.524 351.936 65.252L352.742 65.876C353.119 65.187 353.678 64.745 354.614 64.745C355.576 64.745 356.239 65.226 356.239 66.175V66.266C356.239 67.137 355.615 67.774 354.393 67.774H353.405Z" fill="white"/>
<line x1="354.5" y1="78" x2="354.5" y2="118" stroke="#6E04C1"/>
<rect x="48.5" y="168" width="24" height="24" rx="12" fill="#6E04C1"/>
<path d="M62.415 185V183.219H63.728V182.309H62.415V175.926H60.79L56.994 182.257V183.219H61.375V185H62.415ZM61.31 176.771H61.375V182.309H58.021L61.31 176.771Z" fill="white"/>
<line x1="70.5" y1="179.5" x2="100.5" y2="179.5" stroke="#6E04C1"/>
<rect x="48.5" y="242" width="24" height="24" rx="12" fill="#6E04C1"/>
<path d="M62.974 249.926H58.112L57.787 254.918L58.71 255.048C59.087 254.632 59.503 254.281 60.335 254.281C61.57 254.281 62.233 254.97 62.233 256.166V256.296C62.233 257.492 61.57 258.181 60.335 258.181C59.243 258.181 58.788 257.7 58.32 256.985L57.501 257.609C58.047 258.389 58.827 259.156 60.335 259.156C62.246 259.156 63.39 257.921 63.39 256.153C63.39 254.398 62.246 253.345 60.686 253.345C59.737 253.345 59.256 253.735 58.827 254.346H58.736L58.996 250.888H62.974V249.926Z" fill="white"/>
<line x1="71.5" y1="253.5" x2="93.5" y2="253.5" stroke="#6E04C1"/>
<rect width="24" height="24" rx="12" transform="matrix(-1 0 0 1 419.5 203)" fill="#6E04C1"/>
<path d="M407.413 220.156C409.233 220.156 410.429 218.934 410.429 217.153C410.429 215.437 409.311 214.358 407.751 214.358C406.646 214.358 405.996 214.917 405.567 215.658L405.502 215.632C405.996 213.526 407.075 212.343 409.012 210.926H407.608C406.152 211.875 404.371 213.981 404.371 216.672C404.371 218.83 405.528 220.156 407.413 220.156ZM407.4 219.207C406.204 219.207 405.502 218.518 405.502 217.296V217.192C405.502 215.97 406.204 215.281 407.4 215.281C408.596 215.281 409.298 215.97 409.298 217.192V217.296C409.298 218.518 408.596 219.207 407.4 219.207Z" fill="white"/>
<line x1="396.5" y1="215.5" x2="364.5" y2="215.5" stroke="#8000E4"/>
<g filter="url(#filter1_d_4528_120073)">
<rect x="497.5" y="90" width="296" height="360" rx="4" fill="white" shape-rendering="crispEdges"/>
<path d="M521.75 130L528 123.75L528.875 124.625L523.5 130L528.875 135.375L528 136.25L521.75 130Z" fill="#292929"/>
<rect x="549.5" y="106" width="117" height="48" rx="4" fill="white"/>
<path d="M570.124 136.192C572.524 136.192 573.964 134.88 573.964 132.832C573.964 131.168 573.02 130.208 570.844 129.712L569.932 129.504C568.524 129.184 567.836 128.704 567.836 127.648C567.836 126.448 568.716 125.824 570.14 125.824C571.436 125.824 572.284 126.352 572.892 127.2L573.9 126.464C573.068 125.28 571.884 124.64 570.204 124.64C568.012 124.64 566.508 125.712 566.508 127.696C566.508 129.408 567.628 130.304 569.66 130.768L570.572 130.976C572.044 131.312 572.636 131.84 572.636 132.896C572.636 134.176 571.772 135.008 570.172 135.008C568.876 135.008 567.948 134.448 567.164 133.408L566.172 134.24C567.068 135.456 568.332 136.192 570.124 136.192ZM579.261 136.192C580.813 136.192 581.997 135.424 582.525 134.304L581.613 133.648C581.181 134.56 580.381 135.072 579.341 135.072C577.805 135.072 576.893 134 576.893 132.576V132.192H582.829V131.584C582.829 129.248 581.469 127.552 579.261 127.552C577.021 127.552 575.549 129.248 575.549 131.872C575.549 134.496 577.021 136.192 579.261 136.192ZM579.261 128.624C580.573 128.624 581.453 129.6 581.453 131.056V131.232H576.893V131.12C576.893 129.68 577.869 128.624 579.261 128.624ZM584.938 139.2H586.218V134.656H586.282C586.778 135.68 587.562 136.192 588.698 136.192C590.762 136.192 592.058 134.512 592.058 131.872C592.058 129.232 590.762 127.552 588.698 127.552C587.562 127.552 586.714 128.048 586.282 129.088H586.218V127.744H584.938V139.2ZM588.346 135.04C587.178 135.04 586.218 134.432 586.218 133.36V130.288C586.218 129.376 587.178 128.704 588.346 128.704C589.786 128.704 590.682 129.696 590.682 131.168V132.576C590.682 134.048 589.786 135.04 588.346 135.04ZM597.55 136V134.88H595.87V128.864H597.678V127.744H595.87V125.456H594.718V126.992C594.718 127.552 594.542 127.744 593.998 127.744H593.23V128.864H594.59V134.64C594.59 135.44 595.07 136 595.95 136H597.55ZM602.777 136.192C604.329 136.192 605.513 135.424 606.041 134.304L605.129 133.648C604.697 134.56 603.897 135.072 602.857 135.072C601.321 135.072 600.409 134 600.409 132.576V132.192H606.345V131.584C606.345 129.248 604.985 127.552 602.777 127.552C600.537 127.552 599.065 129.248 599.065 131.872C599.065 134.496 600.537 136.192 602.777 136.192ZM602.777 128.624C604.089 128.624 604.969 129.6 604.969 131.056V131.232H600.409V131.12C600.409 129.68 601.385 128.624 602.777 128.624ZM609.734 136V130.272C609.734 129.216 610.694 128.704 611.702 128.704C612.918 128.704 613.478 129.456 613.478 130.928V136H614.758V130.272C614.758 129.216 615.686 128.704 616.694 128.704C617.942 128.704 618.502 129.472 618.502 130.928V136H619.782V130.704C619.782 128.704 618.774 127.552 617.094 127.552C615.686 127.552 614.886 128.336 614.582 129.232H614.55C614.102 128.048 613.11 127.552 612.022 127.552C610.742 127.552 610.166 128.24 609.798 129.088H609.734V127.744H608.454V136H609.734ZM622.423 136H623.703V134.656H623.767C624.263 135.68 625.047 136.192 626.183 136.192C628.247 136.192 629.543 134.512 629.543 131.872C629.543 129.232 628.247 127.552 626.183 127.552C625.047 127.552 624.199 128.048 623.767 129.088H623.703V124.16H622.423V136ZM625.831 135.04C624.663 135.04 623.703 134.432 623.703 133.36V130.288C623.703 129.376 624.663 128.704 625.831 128.704C627.271 128.704 628.167 129.696 628.167 131.168V132.576C628.167 134.048 627.271 135.04 625.831 135.04ZM634.808 136.192C636.36 136.192 637.544 135.424 638.072 134.304L637.16 133.648C636.728 134.56 635.928 135.072 634.888 135.072C633.352 135.072 632.44 134 632.44 132.576V132.192H638.376V131.584C638.376 129.248 637.016 127.552 634.808 127.552C632.568 127.552 631.096 129.248 631.096 131.872C631.096 134.496 632.568 136.192 634.808 136.192ZM634.808 128.624C636.12 128.624 637 129.6 637 131.056V131.232H632.44V131.12C632.44 129.68 633.416 128.624 634.808 128.624ZM641.765 136V130.4C641.765 129.616 642.597 129.024 643.973 129.024H644.725V127.744H644.229C642.885 127.744 642.133 128.48 641.845 129.264H641.765V127.744H640.485V136H641.765Z" fill="#292929"/>
<rect x="550" y="106.5" width="116" height="47" rx="3.5" stroke="black" stroke-opacity="0.102"/>
<rect x="670.5" y="106" width="71" height="48" rx="4" fill="white"/>
<path d="M695.028 134.816H689.156L692.164 132.112C693.588 130.832 694.612 129.616 694.612 127.888C694.612 125.984 693.364 124.64 691.188 124.64C689.028 124.64 688.036 125.952 687.604 127.264L688.804 127.728C689.108 126.672 689.748 125.84 691.124 125.84C692.5 125.84 693.188 126.688 693.188 127.92V128.112C693.188 129.184 692.388 130.304 691.348 131.264L687.7 134.624V136H695.028V134.816ZM700.894 136.192C703.566 136.192 704.734 134.064 704.734 130.416C704.734 126.768 703.566 124.64 700.894 124.64C698.222 124.64 697.054 126.768 697.054 130.416C697.054 134.064 698.222 136.192 700.894 136.192ZM700.894 135.024C699.15 135.024 698.462 133.488 698.462 131.328V129.504C698.462 127.344 699.15 125.808 700.894 125.808C702.638 125.808 703.326 127.344 703.326 129.504V131.328C703.326 133.488 702.638 135.024 700.894 135.024ZM714.216 134.816H708.344L711.352 132.112C712.776 130.832 713.8 129.616 713.8 127.888C713.8 125.984 712.552 124.64 710.376 124.64C708.216 124.64 707.224 125.952 706.792 127.264L707.992 127.728C708.296 126.672 708.936 125.84 710.312 125.84C711.688 125.84 712.376 126.688 712.376 127.92V128.112C712.376 129.184 711.576 130.304 710.536 131.264L706.888 134.624V136H714.216V134.816ZM723.809 134.816H717.937L720.945 132.112C722.369 130.832 723.393 129.616 723.393 127.888C723.393 125.984 722.145 124.64 719.969 124.64C717.809 124.64 716.817 125.952 716.385 127.264L717.585 127.728C717.889 126.672 718.529 125.84 719.905 125.84C721.281 125.84 721.969 126.688 721.969 127.92V128.112C721.969 129.184 721.169 130.304 720.129 131.264L716.481 134.624V136H723.809V134.816Z" fill="#292929"/>
<rect x="671" y="106.5" width="70" height="47" rx="3.5" stroke="black" stroke-opacity="0.102"/>
<path d="M769.25 130L763 136.25L762.125 135.375L767.5 130L762.125 124.625L763 123.75L769.25 130Z" fill="#292929"/>
<path d="M519.39 182.12C520.89 182.12 521.79 181.3 521.79 180.02C521.79 178.98 521.2 178.38 519.84 178.07L519.27 177.94C518.39 177.74 517.96 177.44 517.96 176.78C517.96 176.03 518.51 175.64 519.4 175.64C520.21 175.64 520.74 175.97 521.12 176.5L521.75 176.04C521.23 175.3 520.49 174.9 519.44 174.9C518.07 174.9 517.13 175.57 517.13 176.81C517.13 177.88 517.83 178.44 519.1 178.73L519.67 178.86C520.59 179.07 520.96 179.4 520.96 180.06C520.96 180.86 520.42 181.38 519.42 181.38C518.61 181.38 518.03 181.03 517.54 180.38L516.92 180.9C517.48 181.66 518.27 182.12 519.39 182.12ZM526.341 182H527.141V176.84H526.341V180.41C526.341 181.09 525.721 181.4 525.091 181.4C524.321 181.4 523.911 180.93 523.911 180.01V176.84H523.111V180.15C523.111 181.4 523.791 182.12 524.851 182.12C525.711 182.12 526.101 181.65 526.301 181.16H526.341V182ZM529.644 182V178.42C529.644 177.76 530.264 177.44 530.904 177.44C531.674 177.44 532.074 177.91 532.074 178.83V182H532.874V178.69C532.874 177.44 532.204 176.72 531.144 176.72C530.374 176.72 529.934 177.1 529.684 177.68H529.644V176.84H528.844V182H529.644Z" fill="#989898"/>
<path d="M556.43 182H557.25V176.12H557.3L557.89 177.29L559.56 180.33L561.23 177.29L561.82 176.12H561.87V182H562.69V175.02H561.61L559.6 178.78H559.55L557.55 175.02H556.43V182ZM566.415 182.12C567.795 182.12 568.745 181.06 568.745 179.42C568.745 177.78 567.795 176.72 566.415 176.72C565.035 176.72 564.085 177.78 564.085 179.42C564.085 181.06 565.035 182.12 566.415 182.12ZM566.415 181.41C565.555 181.41 564.945 180.88 564.945 179.79V179.05C564.945 177.96 565.555 177.43 566.415 177.43C567.275 177.43 567.885 177.96 567.885 179.05V179.79C567.885 180.88 567.275 181.41 566.415 181.41ZM570.861 182V178.42C570.861 177.76 571.481 177.44 572.121 177.44C572.891 177.44 573.291 177.91 573.291 178.83V182H574.091V178.69C574.091 177.44 573.421 176.72 572.361 176.72C571.591 176.72 571.151 177.1 570.901 177.68H570.861V176.84H570.061V182H570.861Z" fill="#989898"/>
<path d="M602.5 175.76V175.02H597.22V175.76H599.44V182H600.28V175.76H602.5ZM606.255 182H607.055V176.84H606.255V180.41C606.255 181.09 605.635 181.4 605.005 181.4C604.235 181.4 603.825 180.93 603.825 180.01V176.84H603.025V180.15C603.025 181.4 603.705 182.12 604.765 182.12C605.625 182.12 606.015 181.65 606.215 181.16H606.255V182ZM610.698 182.12C611.668 182.12 612.408 181.64 612.738 180.94L612.168 180.53C611.898 181.1 611.398 181.42 610.748 181.42C609.788 181.42 609.218 180.75 609.218 179.86V179.62H612.928V179.24C612.928 177.78 612.078 176.72 610.698 176.72C609.298 176.72 608.378 177.78 608.378 179.42C608.378 181.06 609.298 182.12 610.698 182.12ZM610.698 177.39C611.518 177.39 612.068 178 612.068 178.91V179.02H609.218V178.95C609.218 178.05 609.828 177.39 610.698 177.39Z" fill="#989898"/>
<path d="M637.83 182L638.76 178.52L639.42 175.96H639.44L640.08 178.52L640.99 182H641.92L643.71 175.02H642.85L642.06 178.38L641.46 180.98H641.43L640.78 178.38L639.93 175.02H638.97L638.09 178.38L637.44 180.99H637.42L636.84 178.38L636.09 175.02H635.2L636.9 182H637.83ZM646.55 182.12C647.52 182.12 648.26 181.64 648.59 180.94L648.02 180.53C647.75 181.1 647.25 181.42 646.6 181.42C645.64 181.42 645.07 180.75 645.07 179.86V179.62H648.78V179.24C648.78 177.78 647.93 176.72 646.55 176.72C645.15 176.72 644.23 177.78 644.23 179.42C644.23 181.06 645.15 182.12 646.55 182.12ZM646.55 177.39C647.37 177.39 647.92 178 647.92 178.91V179.02H645.07V178.95C645.07 178.05 645.68 177.39 646.55 177.39ZM653.398 182H654.198V174.6H653.398V177.68H653.358C653.088 177.03 652.558 176.72 651.848 176.72C650.558 176.72 649.748 177.77 649.748 179.42C649.748 181.07 650.558 182.12 651.848 182.12C652.558 182.12 653.048 181.8 653.358 181.16H653.398V182ZM652.068 181.4C651.168 181.4 650.608 180.78 650.608 179.86V178.98C650.608 178.06 651.168 177.44 652.068 177.44C652.798 177.44 653.398 177.86 653.398 178.43V180.35C653.398 181.02 652.798 181.4 652.068 181.4Z" fill="#989898"/>
<path d="M682 175.76V175.02H676.72V175.76H678.94V182H679.78V175.76H682ZM683.073 182H683.873V178.42C683.873 177.76 684.493 177.44 685.133 177.44C685.903 177.44 686.303 177.91 686.303 178.83V182H687.103V178.69C687.103 177.44 686.433 176.72 685.373 176.72C684.603 176.72 684.163 177.1 683.913 177.68H683.873V174.6H683.073V182ZM691.936 182H692.736V176.84H691.936V180.41C691.936 181.09 691.316 181.4 690.686 181.4C689.916 181.4 689.506 180.93 689.506 180.01V176.84H688.706V180.15C688.706 181.4 689.386 182.12 690.446 182.12C691.306 182.12 691.696 181.65 691.896 181.16H691.936V182Z" fill="#989898"/>
<path d="M721.27 182V178.84H724.3V178.1H721.27V175.76H724.59V175.02H720.43V182H721.27ZM726.541 182V178.5C726.541 178.01 727.061 177.64 727.921 177.64H728.391V176.84H728.081C727.241 176.84 726.771 177.3 726.591 177.79H726.541V176.84H725.741V182H726.541ZM729.812 175.63C730.153 175.63 730.303 175.45 730.303 175.18V175.05C730.303 174.78 730.153 174.6 729.812 174.6C729.473 174.6 729.323 174.78 729.323 175.05V175.18C729.323 175.45 729.473 175.63 729.812 175.63ZM729.413 182H730.213V176.84H729.413V182Z" fill="#989898"/>
<path d="M760.89 182.12C762.39 182.12 763.29 181.3 763.29 180.02C763.29 178.98 762.7 178.38 761.34 178.07L760.77 177.94C759.89 177.74 759.46 177.44 759.46 176.78C759.46 176.03 760.01 175.64 760.9 175.64C761.71 175.64 762.24 175.97 762.62 176.5L763.25 176.04C762.73 175.3 761.99 174.9 760.94 174.9C759.57 174.9 758.63 175.57 758.63 176.81C758.63 177.88 759.33 178.44 760.6 178.73L761.17 178.86C762.09 179.07 762.46 179.4 762.46 180.06C762.46 180.86 761.92 181.38 760.92 181.38C760.11 181.38 759.53 181.03 759.04 180.38L758.42 180.9C758.98 181.66 759.77 182.12 760.89 182.12ZM768.861 182V181.3H768.271V178.46C768.271 177.37 767.531 176.72 766.291 176.72C765.361 176.72 764.741 177.18 764.461 177.73L764.941 178.18C765.221 177.71 765.631 177.41 766.251 177.41C767.071 177.41 767.471 177.81 767.471 178.54V179.05H766.451C764.951 179.05 764.251 179.59 764.251 180.56C764.251 181.52 764.891 182.12 765.981 182.12C766.701 182.12 767.251 181.79 767.471 181.16H767.521C767.581 181.64 767.821 182 768.411 182H768.861ZM766.111 181.44C765.491 181.44 765.091 181.15 765.091 180.64V180.43C765.091 179.93 765.501 179.65 766.411 179.65H767.471V180.5C767.471 181.03 766.901 181.44 766.111 181.44ZM772.142 182V181.3H771.092V177.54H772.222V176.84H771.092V175.41H770.372V176.37C770.372 176.72 770.262 176.84 769.922 176.84H769.442V177.54H770.292V181.15C770.292 181.65 770.592 182 771.142 182H772.142Z" fill="#989898"/>
<path d="M568.466 219V218.112H566.306V210.624H564.734L562.514 212.7L563.102 213.336L565.214 211.368H565.298V218.112H562.958V219H568.466Z" fill="#CECECE"/>
<path d="M608.298 218.112H603.894L606.15 216.084C607.218 215.124 607.986 214.212 607.986 212.916C607.986 211.488 607.05 210.48 605.418 210.48C603.798 210.48 603.054 211.464 602.73 212.448L603.63 212.796C603.858 212.004 604.338 211.38 605.37 211.38C606.402 211.38 606.918 212.016 606.918 212.94V213.084C606.918 213.888 606.318 214.728 605.538 215.448L602.802 217.968V219H608.298V218.112Z" fill="#CECECE"/>
<path d="M644.122 214.176V215.052H645.106C646.282 215.052 646.906 215.616 646.906 216.6V216.696C646.906 217.68 646.282 218.244 645.106 218.244C644.086 218.244 643.594 217.8 643.162 217.14L642.406 217.716C642.922 218.436 643.666 219.144 645.118 219.144C646.822 219.144 647.962 218.148 647.962 216.708C647.962 215.448 647.098 214.776 646.198 214.596V214.548C647.086 214.32 647.806 213.672 647.806 212.592C647.806 211.236 646.678 210.48 645.262 210.48C643.918 210.48 643.186 211.176 642.766 211.848L643.51 212.424C643.858 211.788 644.374 211.38 645.238 211.38C646.126 211.38 646.738 211.824 646.738 212.7V212.784C646.738 213.588 646.162 214.176 645.034 214.176H644.122Z" fill="#CECECE"/>
<path d="M687.362 219V217.356H688.574V216.516H687.362V210.624H685.862L682.358 216.468V217.356H686.402V219H687.362ZM686.342 211.404H686.402V216.516H683.306L686.342 211.404Z" fill="#CECECE"/>
<path d="M727.878 210.624H723.39L723.09 215.232L723.942 215.352C724.29 214.968 724.674 214.644 725.442 214.644C726.582 214.644 727.194 215.28 727.194 216.384V216.504C727.194 217.608 726.582 218.244 725.442 218.244C724.434 218.244 724.014 217.8 723.582 217.14L722.826 217.716C723.33 218.436 724.05 219.144 725.442 219.144C727.206 219.144 728.262 218.004 728.262 216.372C728.262 214.752 727.206 213.78 725.766 213.78C724.89 213.78 724.446 214.14 724.05 214.704H723.966L724.206 211.512H727.878V210.624Z" fill="#292929"/>
<path d="M765.514 219.144C767.194 219.144 768.298 218.016 768.298 216.372C768.298 214.788 767.266 213.792 765.826 213.792C764.806 213.792 764.206 214.308 763.81 214.992L763.75 214.968C764.206 213.024 765.202 211.932 766.99 210.624H765.694C764.35 211.5 762.706 213.444 762.706 215.928C762.706 217.92 763.774 219.144 765.514 219.144ZM765.502 218.268C764.398 218.268 763.75 217.632 763.75 216.504V216.408C763.75 215.28 764.398 214.644 765.502 214.644C766.606 214.644 767.254 215.28 767.254 216.408V216.504C767.254 217.632 766.606 218.268 765.502 218.268Z" fill="#292929"/>
<path d="M505.5 238C505.5 235.791 507.291 234 509.5 234H545.5V274H509.5C507.291 274 505.5 272.209 505.5 270V238Z" fill="#292929"/>
<path d="M525.082 259L528.226 251.512V250.624H522.73V253.048H523.63V251.488H527.206L524.002 259H525.082Z" fill="white"/>
<rect width="40" height="40" transform="translate(545.5 234)" fill="black" fill-opacity="0.065"/>
<path d="M565.502 259.144C567.41 259.144 568.406 258.1 568.406 256.72C568.406 255.58 567.722 254.92 566.714 254.644V254.548C567.59 254.248 568.154 253.54 568.154 252.58C568.154 251.308 567.17 250.48 565.502 250.48C563.834 250.48 562.85 251.308 562.85 252.58C562.85 253.54 563.414 254.248 564.29 254.548V254.644C563.282 254.92 562.598 255.58 562.598 256.72C562.598 258.1 563.594 259.144 565.502 259.144ZM565.502 258.268C564.338 258.268 563.666 257.716 563.666 256.768V256.516C563.666 255.568 564.338 255.016 565.502 255.016C566.666 255.016 567.338 255.568 567.338 256.516V256.768C567.338 257.716 566.666 258.268 565.502 258.268ZM565.502 254.176C564.458 254.176 563.894 253.708 563.894 252.856V252.676C563.894 251.824 564.458 251.356 565.502 251.356C566.546 251.356 567.11 251.824 567.11 252.676V252.856C567.11 253.708 566.546 254.176 565.502 254.176Z" fill="#292929"/>
<rect width="40" height="40" transform="translate(585.5 234)" fill="black" fill-opacity="0.065"/>
<path d="M608.298 253.696C608.298 251.704 607.23 250.48 605.49 250.48C603.81 250.48 602.706 251.608 602.706 253.252C602.706 254.836 603.738 255.832 605.178 255.832C606.198 255.832 606.798 255.316 607.194 254.632L607.254 254.656C606.798 256.6 605.802 257.692 604.014 259H605.31C606.654 258.124 608.298 256.18 608.298 253.696ZM605.502 254.98C604.398 254.98 603.75 254.344 603.75 253.216V253.12C603.75 251.992 604.398 251.356 605.502 251.356C606.606 251.356 607.254 251.992 607.254 253.12V253.216C607.254 254.344 606.606 254.98 605.502 254.98Z" fill="#292929"/>
<rect width="40" height="40" transform="translate(625.5 234)" fill="black" fill-opacity="0.065"/>
<path d="M645.369 259V258.112H643.209V250.624H641.637L639.417 252.7L640.005 253.336L642.117 251.368H642.201V258.112H639.861V259H645.369ZM649.6 259.144C651.604 259.144 652.48 257.548 652.48 254.812C652.48 252.076 651.604 250.48 649.6 250.48C647.596 250.48 646.72 252.076 646.72 254.812C646.72 257.548 647.596 259.144 649.6 259.144ZM649.6 258.268C648.292 258.268 647.776 257.116 647.776 255.496V254.128C647.776 252.508 648.292 251.356 649.6 251.356C650.908 251.356 651.424 252.508 651.424 254.128V255.496C651.424 257.116 650.908 258.268 649.6 258.268Z" fill="#292929"/>
<rect width="40" height="40" transform="translate(665.5 234)" fill="black" fill-opacity="0.065"/>
<path d="M685.369 259V258.112H683.209V250.624H681.637L679.417 252.7L680.005 253.336L682.117 251.368H682.201V258.112H679.861V259H685.369ZM692.564 259V258.112H690.404V250.624H688.832L686.612 252.7L687.2 253.336L689.312 251.368H689.396V258.112H687.056V259H692.564Z" fill="#292929"/>
<rect width="40" height="40" transform="translate(705.5 234)" fill="black" fill-opacity="0.065"/>
<path d="M725.369 259V258.112H723.209V250.624H721.637L719.417 252.7L720.005 253.336L722.117 251.368H722.201V258.112H719.861V259H725.369ZM732.396 258.112H727.992L730.248 256.084C731.316 255.124 732.084 254.212 732.084 252.916C732.084 251.488 731.148 250.48 729.516 250.48C727.896 250.48 727.152 251.464 726.828 252.448L727.728 252.796C727.956 252.004 728.436 251.38 729.468 251.38C730.5 251.38 731.016 252.016 731.016 252.94V253.084C731.016 253.888 730.416 254.728 729.636 255.448L726.9 257.968V259H732.396V258.112Z" fill="#292929"/>
<path d="M745.5 234H781.5C783.709 234 785.5 235.791 785.5 238V270C785.5 272.209 783.709 274 781.5 274H745.5V234Z" fill="#292929"/>
<path d="M765.369 259V258.112H763.209V250.624H761.637L759.417 252.7L760.005 253.336L762.117 251.368H762.201V258.112H759.861V259H765.369ZM768.22 254.176V255.052H769.204C770.38 255.052 771.004 255.616 771.004 256.6V256.696C771.004 257.68 770.38 258.244 769.204 258.244C768.184 258.244 767.692 257.8 767.26 257.14L766.504 257.716C767.02 258.436 767.764 259.144 769.216 259.144C770.92 259.144 772.06 258.148 772.06 256.708C772.06 255.448 771.196 254.776 770.296 254.596V254.548C771.184 254.32 771.904 253.672 771.904 252.592C771.904 251.236 770.776 250.48 769.36 250.48C768.016 250.48 767.284 251.176 766.864 251.848L767.608 252.424C767.956 251.788 768.472 251.38 769.336 251.38C770.224 251.38 770.836 251.824 770.836 252.7V252.784C770.836 253.588 770.26 254.176 769.132 254.176H768.22Z" fill="white"/>
<path d="M525.369 299V298.112H523.209V290.624H521.637L519.417 292.7L520.005 293.336L522.117 291.368H522.201V298.112H519.861V299H525.369ZM531.46 299V297.356H532.672V296.516H531.46V290.624H529.96L526.456 296.468V297.356H530.5V299H531.46ZM530.44 291.404H530.5V296.516H527.404L530.44 291.404Z" fill="#292929"/>
<path d="M565.369 299V298.112H563.209V290.624H561.637L559.417 292.7L560.005 293.336L562.117 291.368H562.201V298.112H559.861V299H565.369ZM571.976 290.624H567.488L567.188 295.232L568.04 295.352C568.388 294.968 568.772 294.644 569.54 294.644C570.68 294.644 571.292 295.28 571.292 296.384V296.504C571.292 297.608 570.68 298.244 569.54 298.244C568.532 298.244 568.112 297.8 567.68 297.14L566.924 297.716C567.428 298.436 568.148 299.144 569.54 299.144C571.304 299.144 572.36 298.004 572.36 296.372C572.36 294.752 571.304 293.78 569.864 293.78C568.988 293.78 568.544 294.14 568.148 294.704H568.064L568.304 291.512H571.976V290.624Z" fill="#292929"/>
<path d="M605.369 299V298.112H603.209V290.624H601.637L599.417 292.7L600.005 293.336L602.117 291.368H602.201V298.112H599.861V299H605.369ZM609.612 299.144C611.292 299.144 612.396 298.016 612.396 296.372C612.396 294.788 611.364 293.792 609.924 293.792C608.904 293.792 608.304 294.308 607.908 294.992L607.848 294.968C608.304 293.024 609.3 291.932 611.088 290.624H609.792C608.448 291.5 606.804 293.444 606.804 295.928C606.804 297.92 607.872 299.144 609.612 299.144ZM609.6 298.268C608.496 298.268 607.848 297.632 607.848 296.504V296.408C607.848 295.28 608.496 294.644 609.6 294.644C610.704 294.644 611.352 295.28 611.352 296.408V296.504C611.352 297.632 610.704 298.268 609.6 298.268Z" fill="#292929"/>
<path d="M645.369 299V298.112H643.209V290.624H641.637L639.417 292.7L640.005 293.336L642.117 291.368H642.201V298.112H639.861V299H645.369ZM649.18 299L652.324 291.512V290.624H646.828V293.048H647.728V291.488H651.304L648.1 299H649.18Z" fill="#292929"/>
<path d="M685.369 299V298.112H683.209V290.624H681.637L679.417 292.7L680.005 293.336L682.117 291.368H682.201V298.112H679.861V299H685.369ZM689.6 299.144C691.508 299.144 692.504 298.1 692.504 296.72C692.504 295.58 691.82 294.92 690.812 294.644V294.548C691.688 294.248 692.252 293.54 692.252 292.58C692.252 291.308 691.268 290.48 689.6 290.48C687.932 290.48 686.948 291.308 686.948 292.58C686.948 293.54 687.512 294.248 688.388 294.548V294.644C687.38 294.92 686.696 295.58 686.696 296.72C686.696 298.1 687.692 299.144 689.6 299.144ZM689.6 298.268C688.436 298.268 687.764 297.716 687.764 296.768V296.516C687.764 295.568 688.436 295.016 689.6 295.016C690.764 295.016 691.436 295.568 691.436 296.516V296.768C691.436 297.716 690.764 298.268 689.6 298.268ZM689.6 294.176C688.556 294.176 687.992 293.708 687.992 292.856V292.676C687.992 291.824 688.556 291.356 689.6 291.356C690.644 291.356 691.208 291.824 691.208 292.676V292.856C691.208 293.708 690.644 294.176 689.6 294.176Z" fill="#292929"/>
<path d="M725.369 299V298.112H723.209V290.624H721.637L719.417 292.7L720.005 293.336L722.117 291.368H722.201V298.112H719.861V299H725.369ZM732.396 293.696C732.396 291.704 731.328 290.48 729.588 290.48C727.908 290.48 726.804 291.608 726.804 293.252C726.804 294.836 727.836 295.832 729.276 295.832C730.296 295.832 730.896 295.316 731.292 294.632L731.352 294.656C730.896 296.6 729.9 297.692 728.112 299H729.408C730.752 298.124 732.396 296.18 732.396 293.696ZM729.6 294.98C728.496 294.98 727.848 294.344 727.848 293.216V293.12C727.848 291.992 728.496 291.356 729.6 291.356C730.704 291.356 731.352 291.992 731.352 293.12V293.216C731.352 294.344 730.704 294.98 729.6 294.98Z" fill="#292929"/>
<path d="M765.201 298.112H760.797L763.053 296.084C764.121 295.124 764.889 294.212 764.889 292.916C764.889 291.488 763.953 290.48 762.321 290.48C760.701 290.48 759.957 291.464 759.633 292.448L760.533 292.796C760.761 292.004 761.241 291.38 762.273 291.38C763.305 291.38 763.821 292.016 763.821 292.94V293.084C763.821 293.888 763.221 294.728 762.441 295.448L759.705 297.968V299H765.201V298.112ZM769.6 299.144C771.604 299.144 772.48 297.548 772.48 294.812C772.48 292.076 771.604 290.48 769.6 290.48C767.596 290.48 766.72 292.076 766.72 294.812C766.72 297.548 767.596 299.144 769.6 299.144ZM769.6 298.268C768.292 298.268 767.776 297.116 767.776 295.496V294.128C767.776 292.508 768.292 291.356 769.6 291.356C770.908 291.356 771.424 292.508 771.424 294.128V295.496C771.424 297.116 770.908 298.268 769.6 298.268Z" fill="#292929"/>
<path d="M525.201 338.112H520.797L523.053 336.084C524.121 335.124 524.889 334.212 524.889 332.916C524.889 331.488 523.953 330.48 522.321 330.48C520.701 330.48 519.957 331.464 519.633 332.448L520.533 332.796C520.761 332.004 521.241 331.38 522.273 331.38C523.305 331.38 523.821 332.016 523.821 332.94V333.084C523.821 333.888 523.221 334.728 522.441 335.448L519.705 337.968V339H525.201V338.112ZM532.564 339V338.112H530.404V330.624H528.832L526.612 332.7L527.2 333.336L529.312 331.368H529.396V338.112H527.056V339H532.564Z" fill="#292929"/>
<path d="M565.201 338.112H560.797L563.053 336.084C564.121 335.124 564.889 334.212 564.889 332.916C564.889 331.488 563.953 330.48 562.321 330.48C560.701 330.48 559.957 331.464 559.633 332.448L560.533 332.796C560.761 332.004 561.241 331.38 562.273 331.38C563.305 331.38 563.821 332.016 563.821 332.94V333.084C563.821 333.888 563.221 334.728 562.441 335.448L559.705 337.968V339H565.201V338.112ZM572.396 338.112H567.992L570.248 336.084C571.316 335.124 572.084 334.212 572.084 332.916C572.084 331.488 571.148 330.48 569.516 330.48C567.896 330.48 567.152 331.464 566.828 332.448L567.728 332.796C567.956 332.004 568.436 331.38 569.468 331.38C570.5 331.38 571.016 332.016 571.016 332.94V333.084C571.016 333.888 570.416 334.728 569.636 335.448L566.9 337.968V339H572.396V338.112Z" fill="#292929"/>
<path d="M605.201 338.112H600.797L603.053 336.084C604.121 335.124 604.889 334.212 604.889 332.916C604.889 331.488 603.953 330.48 602.321 330.48C600.701 330.48 599.957 331.464 599.633 332.448L600.533 332.796C600.761 332.004 601.241 331.38 602.273 331.38C603.305 331.38 603.821 332.016 603.821 332.94V333.084C603.821 333.888 603.221 334.728 602.441 335.448L599.705 337.968V339H605.201V338.112ZM608.22 334.176V335.052H609.204C610.38 335.052 611.004 335.616 611.004 336.6V336.696C611.004 337.68 610.38 338.244 609.204 338.244C608.184 338.244 607.692 337.8 607.26 337.14L606.504 337.716C607.02 338.436 607.764 339.144 609.216 339.144C610.92 339.144 612.06 338.148 612.06 336.708C612.06 335.448 611.196 334.776 610.296 334.596V334.548C611.184 334.32 611.904 333.672 611.904 332.592C611.904 331.236 610.776 330.48 609.36 330.48C608.016 330.48 607.284 331.176 606.864 331.848L607.608 332.424C607.956 331.788 608.472 331.38 609.336 331.38C610.224 331.38 610.836 331.824 610.836 332.7V332.784C610.836 333.588 610.26 334.176 609.132 334.176H608.22Z" fill="#292929"/>
<path d="M645.201 338.112H640.797L643.053 336.084C644.121 335.124 644.889 334.212 644.889 332.916C644.889 331.488 643.953 330.48 642.321 330.48C640.701 330.48 639.957 331.464 639.633 332.448L640.533 332.796C640.761 332.004 641.241 331.38 642.273 331.38C643.305 331.38 643.821 332.016 643.821 332.94V333.084C643.821 333.888 643.221 334.728 642.441 335.448L639.705 337.968V339H645.201V338.112ZM651.46 339V337.356H652.672V336.516H651.46V330.624H649.96L646.456 336.468V337.356H650.5V339H651.46ZM650.44 331.404H650.5V336.516H647.404L650.44 331.404Z" fill="#292929"/>
<path d="M685.201 338.112H680.797L683.053 336.084C684.121 335.124 684.889 334.212 684.889 332.916C684.889 331.488 683.953 330.48 682.321 330.48C680.701 330.48 679.957 331.464 679.633 332.448L680.533 332.796C680.761 332.004 681.241 331.38 682.273 331.38C683.305 331.38 683.821 332.016 683.821 332.94V333.084C683.821 333.888 683.221 334.728 682.441 335.448L679.705 337.968V339H685.201V338.112ZM691.976 330.624H687.488L687.188 335.232L688.04 335.352C688.388 334.968 688.772 334.644 689.54 334.644C690.68 334.644 691.292 335.28 691.292 336.384V336.504C691.292 337.608 690.68 338.244 689.54 338.244C688.532 338.244 688.112 337.8 687.68 337.14L686.924 337.716C687.428 338.436 688.148 339.144 689.54 339.144C691.304 339.144 692.36 338.004 692.36 336.372C692.36 334.752 691.304 333.78 689.864 333.78C688.988 333.78 688.544 334.14 688.148 334.704H688.064L688.304 331.512H691.976V330.624Z" fill="#292929"/>
<path d="M725.201 338.112H720.797L723.053 336.084C724.121 335.124 724.889 334.212 724.889 332.916C724.889 331.488 723.953 330.48 722.321 330.48C720.701 330.48 719.957 331.464 719.633 332.448L720.533 332.796C720.761 332.004 721.241 331.38 722.273 331.38C723.305 331.38 723.821 332.016 723.821 332.94V333.084C723.821 333.888 723.221 334.728 722.441 335.448L719.705 337.968V339H725.201V338.112ZM729.612 339.144C731.292 339.144 732.396 338.016 732.396 336.372C732.396 334.788 731.364 333.792 729.924 333.792C728.904 333.792 728.304 334.308 727.908 334.992L727.848 334.968C728.304 333.024 729.3 331.932 731.088 330.624H729.792C728.448 331.5 726.804 333.444 726.804 335.928C726.804 337.92 727.872 339.144 729.612 339.144ZM729.6 338.268C728.496 338.268 727.848 337.632 727.848 336.504V336.408C727.848 335.28 728.496 334.644 729.6 334.644C730.704 334.644 731.352 335.28 731.352 336.408V336.504C731.352 337.632 730.704 338.268 729.6 338.268Z" fill="#292929"/>
<path d="M765.201 338.112H760.797L763.053 336.084C764.121 335.124 764.889 334.212 764.889 332.916C764.889 331.488 763.953 330.48 762.321 330.48C760.701 330.48 759.957 331.464 759.633 332.448L760.533 332.796C760.761 332.004 761.241 331.38 762.273 331.38C763.305 331.38 763.821 332.016 763.821 332.94V333.084C763.821 333.888 763.221 334.728 762.441 335.448L759.705 337.968V339H765.201V338.112ZM769.18 339L772.324 331.512V330.624H766.828V333.048H767.728V331.488H771.304L768.1 339H769.18Z" fill="#292929"/>
<path d="M525.201 378.112H520.797L523.053 376.084C524.121 375.124 524.889 374.212 524.889 372.916C524.889 371.488 523.953 370.48 522.321 370.48C520.701 370.48 519.957 371.464 519.633 372.448L520.533 372.796C520.761 372.004 521.241 371.38 522.273 371.38C523.305 371.38 523.821 372.016 523.821 372.94V373.084C523.821 373.888 523.221 374.728 522.441 375.448L519.705 377.968V379H525.201V378.112ZM529.6 379.144C531.508 379.144 532.504 378.1 532.504 376.72C532.504 375.58 531.82 374.92 530.812 374.644V374.548C531.688 374.248 532.252 373.54 532.252 372.58C532.252 371.308 531.268 370.48 529.6 370.48C527.932 370.48 526.948 371.308 526.948 372.58C526.948 373.54 527.512 374.248 528.388 374.548V374.644C527.38 374.92 526.696 375.58 526.696 376.72C526.696 378.1 527.692 379.144 529.6 379.144ZM529.6 378.268C528.436 378.268 527.764 377.716 527.764 376.768V376.516C527.764 375.568 528.436 375.016 529.6 375.016C530.764 375.016 531.436 375.568 531.436 376.516V376.768C531.436 377.716 530.764 378.268 529.6 378.268ZM529.6 374.176C528.556 374.176 527.992 373.708 527.992 372.856V372.676C527.992 371.824 528.556 371.356 529.6 371.356C530.644 371.356 531.208 371.824 531.208 372.676V372.856C531.208 373.708 530.644 374.176 529.6 374.176Z" fill="#292929"/>
<path d="M565.201 378.112H560.797L563.053 376.084C564.121 375.124 564.889 374.212 564.889 372.916C564.889 371.488 563.953 370.48 562.321 370.48C560.701 370.48 559.957 371.464 559.633 372.448L560.533 372.796C560.761 372.004 561.241 371.38 562.273 371.38C563.305 371.38 563.821 372.016 563.821 372.94V373.084C563.821 373.888 563.221 374.728 562.441 375.448L559.705 377.968V379H565.201V378.112ZM572.396 373.696C572.396 371.704 571.328 370.48 569.588 370.48C567.908 370.48 566.804 371.608 566.804 373.252C566.804 374.836 567.836 375.832 569.276 375.832C570.296 375.832 570.896 375.316 571.292 374.632L571.352 374.656C570.896 376.6 569.9 377.692 568.112 379H569.408C570.752 378.124 572.396 376.18 572.396 373.696ZM569.6 374.98C568.496 374.98 567.848 374.344 567.848 373.216V373.12C567.848 371.992 568.496 371.356 569.6 371.356C570.704 371.356 571.352 371.992 571.352 373.12V373.216C571.352 374.344 570.704 374.98 569.6 374.98Z" fill="#292929"/>
<path d="M601.025 374.176V375.052H602.009C603.185 375.052 603.809 375.616 603.809 376.6V376.696C603.809 377.68 603.185 378.244 602.009 378.244C600.989 378.244 600.497 377.8 600.065 377.14L599.309 377.716C599.825 378.436 600.569 379.144 602.021 379.144C603.725 379.144 604.865 378.148 604.865 376.708C604.865 375.448 604.001 374.776 603.101 374.596V374.548C603.989 374.32 604.709 373.672 604.709 372.592C604.709 371.236 603.581 370.48 602.165 370.48C600.821 370.48 600.089 371.176 599.669 371.848L600.413 372.424C600.761 371.788 601.277 371.38 602.141 371.38C603.029 371.38 603.641 371.824 603.641 372.7V372.784C603.641 373.588 603.065 374.176 601.937 374.176H601.025ZM609.6 379.144C611.604 379.144 612.48 377.548 612.48 374.812C612.48 372.076 611.604 370.48 609.6 370.48C607.596 370.48 606.72 372.076 606.72 374.812C606.72 377.548 607.596 379.144 609.6 379.144ZM609.6 378.268C608.292 378.268 607.776 377.116 607.776 375.496V374.128C607.776 372.508 608.292 371.356 609.6 371.356C610.908 371.356 611.424 372.508 611.424 374.128V375.496C611.424 377.116 610.908 378.268 609.6 378.268Z" fill="#292929"/>
<path d="M641.025 374.176V375.052H642.009C643.185 375.052 643.809 375.616 643.809 376.6V376.696C643.809 377.68 643.185 378.244 642.009 378.244C640.989 378.244 640.497 377.8 640.065 377.14L639.309 377.716C639.825 378.436 640.569 379.144 642.021 379.144C643.725 379.144 644.865 378.148 644.865 376.708C644.865 375.448 644.001 374.776 643.101 374.596V374.548C643.989 374.32 644.709 373.672 644.709 372.592C644.709 371.236 643.581 370.48 642.165 370.48C640.821 370.48 640.089 371.176 639.669 371.848L640.413 372.424C640.761 371.788 641.277 371.38 642.141 371.38C643.029 371.38 643.641 371.824 643.641 372.7V372.784C643.641 373.588 643.065 374.176 641.937 374.176H641.025ZM652.564 379V378.112H650.404V370.624H648.832L646.612 372.7L647.2 373.336L649.312 371.368H649.396V378.112H647.056V379H652.564Z" fill="#292929"/>
<rect x="498" y="90.5" width="295" height="359" rx="3.5" stroke="black" stroke-opacity="0.102" shape-rendering="crispEdges"/>
</g>
<rect x="691.5" y="56" width="24" height="24" rx="12" fill="#6E04C1"/>
<path d="M703.4 73.156C705.467 73.156 706.546 72.025 706.546 70.53C706.546 69.295 705.805 68.58 704.713 68.281V68.177C705.662 67.852 706.273 67.085 706.273 66.045C706.273 64.667 705.207 63.77 703.4 63.77C701.593 63.77 700.527 64.667 700.527 66.045C700.527 67.085 701.138 67.852 702.087 68.177V68.281C700.995 68.58 700.254 69.295 700.254 70.53C700.254 72.025 701.333 73.156 703.4 73.156ZM703.4 72.207C702.139 72.207 701.411 71.609 701.411 70.582V70.309C701.411 69.282 702.139 68.684 703.4 68.684C704.661 68.684 705.389 69.282 705.389 70.309V70.582C705.389 71.609 704.661 72.207 703.4 72.207ZM703.4 67.774C702.269 67.774 701.658 67.267 701.658 66.344V66.149C701.658 65.226 702.269 64.719 703.4 64.719C704.531 64.719 705.142 65.226 705.142 66.149V66.344C705.142 67.267 704.531 67.774 703.4 67.774Z" fill="white"/>
<line x1="703" y1="80" x2="703" y2="104" stroke="#8000E4"/>
<rect x="585.5" y="56" width="24" height="24" rx="12" fill="#6E04C1"/>
<path d="M596.945 73L600.351 64.888V63.926H594.397V66.552H595.372V64.862H599.246L595.775 73H596.945Z" fill="white"/>
<line x1="597" y1="80" x2="597" y2="104" stroke="#8000E4"/>
<rect x="460.5" y="242" width="24" height="24" rx="12" fill="#6E04C1"/>
<path d="M475.429 253.254C475.429 251.096 474.272 249.77 472.387 249.77C470.567 249.77 469.371 250.992 469.371 252.773C469.371 254.489 470.489 255.568 472.049 255.568C473.154 255.568 473.804 255.009 474.233 254.268L474.298 254.294C473.804 256.4 472.725 257.583 470.788 259H472.192C473.648 258.051 475.429 255.945 475.429 253.254ZM472.4 254.645C471.204 254.645 470.502 253.956 470.502 252.734V252.63C470.502 251.408 471.204 250.719 472.4 250.719C473.596 250.719 474.298 251.408 474.298 252.63V252.734C474.298 253.956 473.596 254.645 472.4 254.645Z" fill="white"/>
<line x1="483.5" y1="254.5" x2="504.5" y2="254.5" stroke="#6E04C1"/>
<rect x="809.5" y="242" width="24" height="24" rx="12" fill="#6E04C1"/>
<path d="M820.611 259V258.038H818.271V249.926H816.568L814.163 252.175L814.8 252.864L817.088 250.732H817.179V258.038H814.644V259H820.611ZM828.406 259V258.038H826.066V249.926H824.363L821.958 252.175L822.595 252.864L824.883 250.732H824.974V258.038H822.439V259H828.406Z" fill="white"/>
<line x1="785.5" y1="254.5" x2="809.5" y2="254.5" stroke="#8000E4"/>
<rect x="809.5" y="182" width="24" height="24" rx="12" fill="#6E04C1"/>
<path d="M820.611 199V198.038H818.271V189.926H816.568L814.163 192.175L814.8 192.864L817.088 190.732H817.179V198.038H814.644V199H820.611ZM825.195 199.156C827.366 199.156 828.315 197.427 828.315 194.463C828.315 191.499 827.366 189.77 825.195 189.77C823.024 189.77 822.075 191.499 822.075 194.463C822.075 197.427 823.024 199.156 825.195 199.156ZM825.195 198.207C823.778 198.207 823.219 196.959 823.219 195.204V193.722C823.219 191.967 823.778 190.719 825.195 190.719C826.612 190.719 827.171 191.967 827.171 193.722V195.204C827.171 196.959 826.612 198.207 825.195 198.207Z" fill="white"/>
<path d="M809.5 194.5L670.5 194.5C668.291 194.5 666.5 196.291 666.5 198.5L666.5 232.5" stroke="#8000E4"/>
<rect x="0.5" y="0.5" width="881" height="505" rx="3.5" stroke="#E5E5E5"/>
<defs>
<filter id="filter0_d_4528_120073" x="83.5" y="87" width="302" height="366" filterUnits="userSpaceOnUse" color-interpolation-filters="sRGB">
<feFlood flood-opacity="0" result="BackgroundImageFix"/>
<feColorMatrix in="SourceAlpha" type="matrix" values="0 0 0 0 0 0 0 0 0 0 0 0 0 0 0 0 0 0 127 0" result="hardAlpha"/>
<feOffset/>
<feGaussianBlur stdDeviation="1.5"/>
<feComposite in2="hardAlpha" operator="out"/>
<feColorMatrix type="matrix" values="0 0 0 0 0 0 0 0 0 0 0 0 0 0 0 0 0 0 0.1 0"/>
<feBlend mode="normal" in2="BackgroundImageFix" result="effect1_dropShadow_4528_120073"/>
<feBlend mode="normal" in="SourceGraphic" in2="effect1_dropShadow_4528_120073" result="shape"/>
</filter>
<filter id="filter1_d_4528_120073" x="494.5" y="87" width="302" height="366" filterUnits="userSpaceOnUse" color-interpolation-filters="sRGB">
<feFlood flood-opacity="0" result="BackgroundImageFix"/>
<feColorMatrix in="SourceAlpha" type="matrix" values="0 0 0 0 0 0 0 0 0 0 0 0 0 0 0 0 0 0 127 0" result="hardAlpha"/>
<feOffset/>
<feGaussianBlur stdDeviation="1.5"/>
<feComposite in2="hardAlpha" operator="out"/>
<feColorMatrix type="matrix" values="0 0 0 0 0 0 0 0 0 0 0 0 0 0 0 0 0 0 0.1 0"/>
<feBlend mode="normal" in2="BackgroundImageFix" result="effect1_dropShadow_4528_120073"/>
<feBlend mode="normal" in="SourceGraphic" in2="effect1_dropShadow_4528_120073" result="shape"/>
</filter>
</defs>
</svg>
