<svg width="882" height="599" viewBox="0 0 882 599" fill="none" xmlns="http://www.w3.org/2000/svg">
<rect x="0.5" y="0.5" width="881" height="598" rx="3.5" fill="#F8F8F8"/>
<rect x="87" y="102" width="708" height="441" rx="8" fill="black" fill-opacity="0.55"/>
<rect x="172" y="56" width="24" height="24" rx="12" fill="#6E04C1"/>
<path d="M187.111 73V72.038H184.771V63.926H183.068L180.663 66.175L181.3 66.864L183.588 64.732H183.679V72.038H181.144V73H187.111Z" fill="white"/>
<line x1="183.5" y1="80" x2="183.5" y2="104" stroke="#8000E4"/>
<rect x="136" y="175" width="615" height="295" rx="8" fill="white"/>
<path d="M173.2 209.024V207.248H160.528V209.024H165.856V224H167.872V209.024H173.2ZM176.734 208.712C177.55 208.712 177.91 208.28 177.91 207.632V207.32C177.91 206.672 177.55 206.24 176.734 206.24C175.918 206.24 175.558 206.672 175.558 207.32V207.632C175.558 208.28 175.918 208.712 176.734 208.712ZM175.774 224H177.694V211.616H175.774V224ZM186.91 224V222.32H184.39V213.296H187.102V211.616H184.39V208.184H182.662V210.488C182.662 211.328 182.398 211.616 181.582 211.616H180.43V213.296H182.47V221.96C182.47 223.16 183.19 224 184.51 224H186.91ZM193.932 224V222.32H192.108V206.24H190.188V222.008C190.188 223.16 190.908 224 192.228 224H193.932ZM201.384 224.288C203.712 224.288 205.488 223.136 206.28 221.456L204.912 220.472C204.264 221.84 203.064 222.608 201.504 222.608C199.2 222.608 197.832 221 197.832 218.864V218.288H206.736V217.376C206.736 213.872 204.696 211.328 201.384 211.328C198.024 211.328 195.816 213.872 195.816 217.808C195.816 221.744 198.024 224.288 201.384 224.288ZM201.384 212.936C203.352 212.936 204.672 214.4 204.672 216.584V216.848H197.832V216.68C197.832 214.52 199.296 212.936 201.384 212.936Z" fill="#292929"/>
<path d="M719 208.4L717.6 207L711 213.6L704.4 207L703 208.4L709.6 215L703 221.6L704.4 223L711 216.4L717.6 223L719 221.6L712.4 215L719 208.4Z" fill="#292929"/>
<rect x="160.5" y="247.5" width="566" height="134" rx="3.5" fill="#E6DBF3"/>
<path d="M444 297.5H440.085C441.055 296.009 442.481 294.872 444.15 294.257C445.819 293.643 447.642 293.584 449.347 294.09C451.052 294.596 452.548 295.64 453.612 297.065C454.675 298.49 455.25 300.221 455.25 302H456.75C456.752 299.994 456.135 298.036 454.984 296.394C453.833 294.751 452.203 293.504 450.317 292.821C448.43 292.139 446.38 292.055 444.444 292.581C442.508 293.107 440.782 294.217 439.5 295.76V293H438V299H444V297.5ZM450 306.5H453.915C452.945 307.991 451.519 309.128 449.85 309.742C448.181 310.357 446.358 310.415 444.653 309.909C442.948 309.403 441.452 308.36 440.388 306.935C439.325 305.509 438.75 303.778 438.75 302H437.25C437.248 304.006 437.865 305.963 439.016 307.606C440.167 309.249 441.797 310.496 443.683 311.178C445.57 311.861 447.62 311.945 449.556 311.419C451.492 310.893 453.218 309.783 454.5 308.24V311H456V305H450V306.5Z" fill="#7935D2"/>
<path d="M422.447 331H424.077L425.587 334H426.537L424.937 330.92C425.847 330.71 426.337 330.02 426.337 329C426.337 327.73 425.607 327.02 424.387 327.02H421.607V334H422.447V331ZM422.447 330.28V327.76H424.387C425.047 327.76 425.437 328.12 425.437 328.76V329.28C425.437 329.92 425.047 330.28 424.387 330.28H422.447ZM429.717 334.12C430.687 334.12 431.427 333.64 431.757 332.94L431.187 332.53C430.917 333.1 430.417 333.42 429.767 333.42C428.807 333.42 428.237 332.75 428.237 331.86V331.62H431.947V331.24C431.947 329.78 431.097 328.72 429.717 328.72C428.317 328.72 427.397 329.78 427.397 331.42C427.397 333.06 428.317 334.12 429.717 334.12ZM429.717 329.39C430.537 329.39 431.087 330 431.087 330.91V331.02H428.237V330.95C428.237 330.05 428.847 329.39 429.717 329.39ZM433.265 336H434.065V333.16H434.105C434.415 333.8 434.905 334.12 435.615 334.12C436.905 334.12 437.715 333.07 437.715 331.42C437.715 329.77 436.905 328.72 435.615 328.72C434.905 328.72 434.375 329.03 434.105 329.68H434.065V328.84H433.265V336ZM435.395 333.4C434.665 333.4 434.065 333.02 434.065 332.35V330.43C434.065 329.86 434.665 329.44 435.395 329.44C436.295 329.44 436.855 330.06 436.855 330.98V331.86C436.855 332.78 436.295 333.4 435.395 333.4ZM440.626 334V333.3H439.866V326.6H439.066V333.17C439.066 333.65 439.366 334 439.916 334H440.626ZM445.99 334V333.3H445.4V330.46C445.4 329.37 444.66 328.72 443.42 328.72C442.49 328.72 441.87 329.18 441.59 329.73L442.07 330.18C442.35 329.71 442.76 329.41 443.38 329.41C444.2 329.41 444.6 329.81 444.6 330.54V331.05H443.58C442.08 331.05 441.38 331.59 441.38 332.56C441.38 333.52 442.02 334.12 443.11 334.12C443.83 334.12 444.38 333.79 444.6 333.16H444.65C444.71 333.64 444.95 334 445.54 334H445.99ZM443.24 333.44C442.62 333.44 442.22 333.15 442.22 332.64V332.43C442.22 331.93 442.63 331.65 443.54 331.65H444.6V332.5C444.6 333.03 444.03 333.44 443.24 333.44ZM449.052 334.12C450.032 334.12 450.702 333.64 451.032 332.9L450.452 332.51C450.172 333.1 449.702 333.41 449.052 333.41C448.102 333.41 447.612 332.76 447.612 331.86V330.98C447.612 330.08 448.102 329.43 449.052 329.43C449.682 329.43 450.122 329.74 450.312 330.27L450.982 329.93C450.682 329.22 450.072 328.72 449.052 328.72C447.602 328.72 446.752 329.77 446.752 331.42C446.752 333.07 447.602 334.12 449.052 334.12ZM454.043 334.12C455.013 334.12 455.753 333.64 456.083 332.94L455.513 332.53C455.243 333.1 454.743 333.42 454.093 333.42C453.133 333.42 452.563 332.75 452.563 331.86V331.62H456.273V331.24C456.273 329.78 455.423 328.72 454.043 328.72C452.643 328.72 451.723 329.78 451.723 331.42C451.723 333.06 452.643 334.12 454.043 334.12ZM454.043 329.39C454.863 329.39 455.413 330 455.413 330.91V331.02H452.563V330.95C452.563 330.05 453.173 329.39 454.043 329.39ZM460.754 334V330.42C460.754 329.76 461.354 329.44 461.984 329.44C462.744 329.44 463.094 329.91 463.094 330.83V334H463.894V330.42C463.894 329.76 464.474 329.44 465.104 329.44C465.884 329.44 466.234 329.92 466.234 330.83V334H467.034V330.69C467.034 329.44 466.404 328.72 465.354 328.72C464.474 328.72 463.974 329.21 463.784 329.77H463.764C463.484 329.03 462.864 328.72 462.184 328.72C461.384 328.72 461.024 329.15 460.794 329.68H460.754V328.84H459.954V334H460.754ZM470.625 334.12C471.595 334.12 472.335 333.64 472.665 332.94L472.095 332.53C471.825 333.1 471.325 333.42 470.675 333.42C469.715 333.42 469.145 332.75 469.145 331.86V331.62H472.855V331.24C472.855 329.78 472.005 328.72 470.625 328.72C469.225 328.72 468.305 329.78 468.305 331.42C468.305 333.06 469.225 334.12 470.625 334.12ZM470.625 329.39C471.445 329.39 471.995 330 471.995 330.91V331.02H469.145V330.95C469.145 330.05 469.755 329.39 470.625 329.39Z" fill="#7935D2"/>
<rect x="160.5" y="247.5" width="566" height="134" rx="3.5" stroke="#7935D2"/>
<path d="M597.709 428.192C599.645 428.192 600.989 427.216 601.741 425.6L600.285 424.72C599.885 425.808 599.037 426.576 597.709 426.576C595.997 426.576 594.941 425.328 594.941 423.264V421.568C594.941 419.504 595.997 418.256 597.709 418.256C599.005 418.256 599.789 418.944 600.173 420L601.693 419.168C600.941 417.504 599.645 416.64 597.709 416.64C594.797 416.64 593.021 418.672 593.021 422.416C593.021 426.16 594.797 428.192 597.709 428.192ZM610.601 428V426.576H609.721V422.4C609.721 420.544 608.521 419.488 606.377 419.488C604.761 419.488 603.785 420.176 603.241 421.104L604.281 422.048C604.697 421.392 605.289 420.912 606.265 420.912C607.433 420.912 607.977 421.504 607.977 422.512V423.216H606.473C604.153 423.216 602.921 424.064 602.921 425.712C602.921 427.216 603.897 428.192 605.609 428.192C606.825 428.192 607.721 427.648 608.041 426.608H608.121C608.233 427.424 608.713 428 609.625 428H610.601ZM606.105 426.864C605.241 426.864 604.697 426.48 604.697 425.744V425.456C604.697 424.736 605.289 424.336 606.505 424.336H607.977V425.536C607.977 426.352 607.177 426.864 606.105 426.864ZM614.055 428V422.432C614.055 421.456 614.951 420.992 615.863 420.992C616.935 420.992 617.431 421.648 617.431 422.944V428H619.175V422.72C619.175 420.672 618.167 419.488 616.471 419.488C615.191 419.488 614.487 420.16 614.135 421.056H614.055V419.68H612.311V428H614.055ZM624.808 428.192C626.408 428.192 627.544 427.44 628.088 426.08L626.76 425.376C626.408 426.208 625.816 426.752 624.808 426.752C623.528 426.752 622.872 425.872 622.872 424.592V423.104C622.872 421.824 623.528 420.944 624.808 420.944C625.752 420.944 626.344 421.44 626.584 422.208L628.024 421.536C627.528 420.304 626.472 419.488 624.808 419.488C622.408 419.488 621.032 421.184 621.032 423.84C621.032 426.496 622.408 428.192 624.808 428.192ZM632.918 428.192C634.47 428.192 635.686 427.52 636.31 426.512L635.286 425.504C634.806 426.272 634.118 426.752 633.094 426.752C631.686 426.752 630.902 425.84 630.902 424.56V424.288H636.614V423.632C636.614 421.328 635.366 419.488 632.918 419.488C630.55 419.488 629.094 421.184 629.094 423.84C629.094 426.496 630.55 428.192 632.918 428.192ZM632.918 420.848C634.07 420.848 634.774 421.696 634.774 422.976V423.136H630.902V423.024C630.902 421.744 631.718 420.848 632.918 420.848ZM641.441 428V426.576H640.289V416.16H638.545V426.272C638.545 427.344 639.137 428 640.321 428H641.441Z" fill="#292929"/>
<rect x="576.5" y="398.5" width="81" height="47" rx="3.5" stroke="black" stroke-opacity="0.102"/>
<rect x="674" y="398" width="53" height="48" rx="4" fill="#7935D2"/>
<path d="M696.126 428.192C699.038 428.192 700.942 426.176 700.942 422.416C700.942 418.656 699.038 416.64 696.126 416.64C693.214 416.64 691.31 418.656 691.31 422.416C691.31 426.176 693.214 428.192 696.126 428.192ZM696.126 426.576C694.398 426.576 693.246 425.328 693.246 423.296V421.536C693.246 419.504 694.398 418.256 696.126 418.256C697.854 418.256 699.006 419.504 699.006 421.536V423.296C699.006 425.328 697.854 426.576 696.126 426.576ZM703.068 428H704.812V425.28L705.964 424.032L708.348 428H710.428L707.164 422.896L710.076 419.68H708.044L706.044 421.936L704.892 423.424H704.812V416.16H703.068V428Z" fill="white"/>
<rect x="172" y="146" width="24" height="24" rx="12" fill="#E6DBF3"/>
<path d="M186.929 162.038H182.158L184.602 159.841C185.759 158.801 186.591 157.813 186.591 156.409C186.591 154.862 185.577 153.77 183.809 153.77C182.054 153.77 181.248 154.836 180.897 155.902L181.872 156.279C182.119 155.421 182.639 154.745 183.757 154.745C184.875 154.745 185.434 155.434 185.434 156.435V156.591C185.434 157.462 184.784 158.372 183.939 159.152L180.975 161.882V163H186.929V162.038Z" fill="#333333"/>
<line x1="183.5" y1="170" x2="183.5" y2="194" stroke="#7935D2"/>
<rect x="699" y="146" width="24" height="24" rx="12" fill="#E6DBF3"/>
<path d="M709.405 157.774V158.723H710.471C711.745 158.723 712.421 159.334 712.421 160.4V160.504C712.421 161.57 711.745 162.181 710.471 162.181C709.366 162.181 708.833 161.7 708.365 160.985L707.546 161.609C708.105 162.389 708.911 163.156 710.484 163.156C712.33 163.156 713.565 162.077 713.565 160.517C713.565 159.152 712.629 158.424 711.654 158.229V158.177C712.616 157.93 713.396 157.228 713.396 156.058C713.396 154.589 712.174 153.77 710.64 153.77C709.184 153.77 708.391 154.524 707.936 155.252L708.742 155.876C709.119 155.187 709.678 154.745 710.614 154.745C711.576 154.745 712.239 155.226 712.239 156.175V156.266C712.239 157.137 711.615 157.774 710.393 157.774H709.405Z" fill="#333333"/>
<line x1="710.5" y1="170" x2="710.5" y2="204" stroke="#7935D2"/>
<rect x="761" y="308" width="24" height="24" rx="12" fill="#E6DBF3"/>
<path d="M774.915 325V323.219H776.228V322.309H774.915V315.926H773.29L769.494 322.257V323.219H773.875V325H774.915ZM773.81 316.771H773.875V322.309H770.521L773.81 316.771Z" fill="#333333"/>
<line x1="761" y1="320.5" x2="727" y2="320.5" stroke="#7935D2"/>
<rect x="690" y="481" width="24" height="24" rx="12" fill="#E6DBF3"/>
<path d="M701.913 498.156C703.733 498.156 704.929 496.934 704.929 495.153C704.929 493.437 703.811 492.358 702.251 492.358C701.146 492.358 700.496 492.917 700.067 493.658L700.002 493.632C700.496 491.526 701.575 490.343 703.512 488.926H702.108C700.652 489.875 698.871 491.981 698.871 494.672C698.871 496.83 700.028 498.156 701.913 498.156ZM701.9 497.207C700.704 497.207 700.002 496.518 700.002 495.296V495.192C700.002 493.97 700.704 493.281 701.9 493.281C703.096 493.281 703.798 493.97 703.798 495.192V495.296C703.798 496.518 703.096 497.207 701.9 497.207Z" fill="#333333"/>
<line x1="701.5" y1="481" x2="701.5" y2="446" stroke="#7935D2"/>
<rect x="604" y="481" width="24" height="24" rx="12" fill="#E6DBF3"/>
<path d="M618.474 488.926H613.612L613.287 493.918L614.21 494.048C614.587 493.632 615.003 493.281 615.835 493.281C617.07 493.281 617.733 493.97 617.733 495.166V495.296C617.733 496.492 617.07 497.181 615.835 497.181C614.743 497.181 614.288 496.7 613.82 495.985L613.001 496.609C613.547 497.389 614.327 498.156 615.835 498.156C617.746 498.156 618.89 496.921 618.89 495.153C618.89 493.398 617.746 492.345 616.186 492.345C615.237 492.345 614.756 492.735 614.327 493.346H614.236L614.496 489.888H618.474V488.926Z" fill="#333333"/>
<line x1="615.5" y1="481" x2="615.5" y2="446" stroke="#7935D2"/>
<rect x="0.5" y="0.5" width="881" height="598" rx="3.5" stroke="#E5E5E5"/>
</svg>
