<svg width="882" height="230" viewBox="0 0 882 230" fill="none" xmlns="http://www.w3.org/2000/svg">
<rect x="0.5" y="0.5" width="881" height="229" rx="3.5" fill="#F8F8F8"/>
<rect x="322" y="46" width="24" height="24" rx="12" fill="#6E04C1"/>
<path d="M337.111 63V62.038H334.771V53.926H333.068L330.663 56.175L331.3 56.864L333.588 54.732H333.679V62.038H331.144V63H337.111Z" fill="white"/>
<line x1="333.5" y1="86" x2="333.5" y2="68" stroke="#8000E4"/>
<path d="M322.846 101V99.362H318.996V91.228H317.148V101H322.846ZM326.184 101.168C327.276 101.168 328.074 100.678 328.312 99.74H328.396C328.508 100.496 328.984 101 329.754 101H330.748V99.572H330.02V96.128C330.02 94.462 328.97 93.524 326.996 93.524C325.526 93.524 324.672 94.084 324.14 94.924L325.204 95.876C325.554 95.372 326.03 94.952 326.87 94.952C327.822 94.952 328.228 95.428 328.228 96.24V96.772H326.982C324.994 96.772 323.86 97.514 323.86 99.012C323.86 100.314 324.7 101.168 326.184 101.168ZM326.786 99.866C326.086 99.866 325.68 99.572 325.68 98.984V98.746C325.68 98.172 326.142 97.85 327.08 97.85H328.228V98.816C328.228 99.502 327.584 99.866 326.786 99.866ZM332.198 101H333.99V99.782H334.046C334.326 100.608 335.096 101.168 336.062 101.168C337.91 101.168 338.932 99.782 338.932 97.332C338.932 94.896 337.91 93.524 336.062 93.524C335.096 93.524 334.312 94.056 334.046 94.896H333.99V90.64H332.198V101ZM335.488 99.684C334.634 99.684 333.99 99.25 333.99 98.494V96.17C333.99 95.456 334.634 94.994 335.488 94.994C336.412 94.994 337.056 95.68 337.056 96.716V97.976C337.056 99.012 336.412 99.684 335.488 99.684ZM343.547 101.168C344.905 101.168 345.969 100.65 346.571 99.824L345.605 98.746C345.157 99.32 344.625 99.74 343.743 99.74C342.567 99.74 341.965 99.026 341.965 97.976V97.794H346.823V97.206C346.823 95.204 345.773 93.524 343.491 93.524C341.349 93.524 340.103 95.022 340.103 97.332C340.103 99.67 341.391 101.168 343.547 101.168ZM343.519 94.868C344.443 94.868 344.961 95.554 344.961 96.562V96.688H341.965V96.576C341.965 95.568 342.581 94.868 343.519 94.868ZM351.157 101V99.572H350.191V90.64H348.399V99.236C348.399 100.356 348.973 101 350.191 101H351.157Z" fill="#292929"/>
<rect x="316.5" y="110.5" width="285" height="47" rx="3.5" fill="white"/>
<path d="M339.302 139H343.74C345.182 139 346.26 137.782 346.26 136.172C346.26 134.548 345.042 133.946 344.342 133.904V133.82C344.986 133.722 345.924 133.204 345.924 131.748C345.924 130.222 344.93 129.228 343.32 129.228H339.302V139ZM340.478 134.464H343.376C344.384 134.464 345 134.996 345 135.976V136.452C345 137.432 344.384 137.964 343.376 137.964H340.478V134.464ZM340.478 130.264H343.18C344.104 130.264 344.664 130.754 344.664 131.622V132.098C344.664 132.966 344.104 133.456 343.18 133.456H340.478V130.264ZM352.788 139H353.908V131.776H352.788V136.774C352.788 137.726 351.92 138.16 351.038 138.16C349.96 138.16 349.386 137.502 349.386 136.214V131.776H348.266V136.41C348.266 138.16 349.218 139.168 350.702 139.168C351.906 139.168 352.452 138.51 352.732 137.824H352.788V139ZM358.464 139.168C360.116 139.168 361.138 138.314 361.138 136.914C361.138 135.822 360.522 135.122 358.926 134.884L358.366 134.8C357.47 134.66 356.98 134.38 356.98 133.68C356.98 132.994 357.47 132.56 358.394 132.56C359.318 132.56 359.934 132.994 360.256 133.442L360.998 132.77C360.41 132.042 359.64 131.608 358.478 131.608C357.008 131.608 355.902 132.308 355.902 133.736C355.902 135.08 356.896 135.626 358.226 135.822L358.8 135.906C359.752 136.046 360.06 136.48 360.06 137.04C360.06 137.782 359.5 138.216 358.548 138.216C357.638 138.216 356.966 137.81 356.406 137.11L355.608 137.754C356.252 138.608 357.134 139.168 358.464 139.168ZM369.28 139.168C371.38 139.168 372.64 138.02 372.64 136.228C372.64 134.772 371.814 133.932 369.91 133.498L369.112 133.316C367.88 133.036 367.278 132.616 367.278 131.692C367.278 130.642 368.048 130.096 369.294 130.096C370.428 130.096 371.17 130.558 371.702 131.3L372.584 130.656C371.856 129.62 370.82 129.06 369.35 129.06C367.432 129.06 366.116 129.998 366.116 131.734C366.116 133.232 367.096 134.016 368.874 134.422L369.672 134.604C370.96 134.898 371.478 135.36 371.478 136.284C371.478 137.404 370.722 138.132 369.322 138.132C368.188 138.132 367.376 137.642 366.69 136.732L365.822 137.46C366.606 138.524 367.712 139.168 369.28 139.168ZM377.555 139V138.02H376.085V132.756H377.667V131.776H376.085V129.774H375.077V131.118C375.077 131.608 374.923 131.776 374.447 131.776H373.775V132.756H374.965V137.81C374.965 138.51 375.385 139 376.155 139H377.555ZM385.347 139V138.02H384.521V134.044C384.521 132.518 383.485 131.608 381.749 131.608C380.447 131.608 379.579 132.252 379.187 133.022L379.859 133.652C380.251 132.994 380.825 132.574 381.693 132.574C382.841 132.574 383.401 133.134 383.401 134.156V134.87H381.973C379.873 134.87 378.893 135.626 378.893 136.984C378.893 138.328 379.789 139.168 381.315 139.168C382.323 139.168 383.093 138.706 383.401 137.824H383.471C383.555 138.496 383.891 139 384.717 139H385.347ZM381.497 138.216C380.629 138.216 380.069 137.81 380.069 137.096V136.802C380.069 136.102 380.643 135.71 381.917 135.71H383.401V136.9C383.401 137.642 382.603 138.216 381.497 138.216ZM387.338 139H388.458V132.756H390.012V131.776H388.458V129.62H390.012V128.64H388.92C387.856 128.64 387.338 129.326 387.338 130.32V131.776H386.162V132.756H387.338V139ZM391.877 139H392.997V132.756H394.551V131.776H392.997V129.62H394.551V128.64H393.459C392.395 128.64 391.877 129.326 391.877 130.32V131.776H390.701V132.756H391.877V139Z" fill="#292929"/>
<path d="M411 130.7L410.3 130L407 133.3L403.7 130L403 130.7L406.3 134L403 137.3L403.7 138L407 134.7L410.3 138L411 137.3L407.7 134L411 130.7Z" fill="#292929"/>
<rect x="332.5" y="118.5" width="88" height="31" rx="3.5" stroke="#E5E5E5"/>
<path d="M442.112 139H443.568L439.676 133.414L443.316 129.228H441.874L438.92 132.728L437.52 134.422H437.478V129.228H436.302V139H437.478V135.738L438.864 134.198L442.112 139ZM445.623 130.082C446.099 130.082 446.309 129.83 446.309 129.452V129.27C446.309 128.892 446.099 128.64 445.623 128.64C445.147 128.64 444.937 128.892 444.937 129.27V129.452C444.937 129.83 445.147 130.082 445.623 130.082ZM445.063 139H446.183V131.776H445.063V139ZM451.559 139V138.02H450.089V132.756H451.671V131.776H450.089V129.774H449.081V131.118C449.081 131.608 448.927 131.776 448.451 131.776H447.779V132.756H448.969V137.81C448.969 138.51 449.389 139 450.159 139H451.559ZM456.105 139.168C457.477 139.168 458.415 138.496 458.877 137.46L458.065 136.914C457.673 137.74 457.015 138.174 456.105 138.174C454.775 138.174 454.089 137.264 454.089 136.004V134.772C454.089 133.512 454.775 132.602 456.105 132.602C456.987 132.602 457.603 133.036 457.869 133.778L458.807 133.302C458.387 132.308 457.533 131.608 456.105 131.608C454.075 131.608 452.885 133.078 452.885 135.388C452.885 137.698 454.075 139.168 456.105 139.168ZM460.458 139H461.578V133.988C461.578 133.064 462.446 132.616 463.342 132.616C464.42 132.616 464.98 133.274 464.98 134.562V139H466.1V134.366C466.1 132.616 465.162 131.608 463.678 131.608C462.6 131.608 461.984 132.14 461.634 132.952H461.578V128.64H460.458V139ZM471.131 139.168C472.489 139.168 473.525 138.496 473.987 137.516L473.189 136.942C472.811 137.74 472.111 138.188 471.201 138.188C469.857 138.188 469.059 137.25 469.059 136.004V135.668H474.253V135.136C474.253 133.092 473.063 131.608 471.131 131.608C469.171 131.608 467.883 133.092 467.883 135.388C467.883 137.684 469.171 139.168 471.131 139.168ZM471.131 132.546C472.279 132.546 473.049 133.4 473.049 134.674V134.828H469.059V134.73C469.059 133.47 469.913 132.546 471.131 132.546ZM477.218 139V133.988C477.218 133.064 478.086 132.616 478.982 132.616C480.06 132.616 480.62 133.274 480.62 134.562V139H481.74V134.366C481.74 132.616 480.802 131.608 479.318 131.608C478.24 131.608 477.624 132.14 477.274 132.952H477.218V131.776H476.098V139H477.218ZM490.22 139.168C492.32 139.168 493.58 138.02 493.58 136.228C493.58 134.772 492.754 133.932 490.85 133.498L490.052 133.316C488.82 133.036 488.218 132.616 488.218 131.692C488.218 130.642 488.988 130.096 490.234 130.096C491.368 130.096 492.11 130.558 492.642 131.3L493.524 130.656C492.796 129.62 491.76 129.06 490.29 129.06C488.372 129.06 487.056 129.998 487.056 131.734C487.056 133.232 488.036 134.016 489.814 134.422L490.612 134.604C491.9 134.898 492.418 135.36 492.418 136.284C492.418 137.404 491.662 138.132 490.262 138.132C489.128 138.132 488.316 137.642 487.63 136.732L486.762 137.46C487.546 138.524 488.652 139.168 490.22 139.168ZM498.495 139V138.02H497.025V132.756H498.607V131.776H497.025V129.774H496.017V131.118C496.017 131.608 495.863 131.776 495.387 131.776H494.715V132.756H495.905V137.81C495.905 138.51 496.325 139 497.095 139H498.495ZM506.287 139V138.02H505.461V134.044C505.461 132.518 504.425 131.608 502.689 131.608C501.387 131.608 500.519 132.252 500.127 133.022L500.799 133.652C501.191 132.994 501.765 132.574 502.633 132.574C503.781 132.574 504.341 133.134 504.341 134.156V134.87H502.913C500.813 134.87 499.833 135.626 499.833 136.984C499.833 138.328 500.729 139.168 502.255 139.168C503.263 139.168 504.033 138.706 504.341 137.824H504.411C504.495 138.496 504.831 139 505.657 139H506.287ZM502.437 138.216C501.569 138.216 501.009 137.81 501.009 137.096V136.802C501.009 136.102 501.583 135.71 502.857 135.71H504.341V136.9C504.341 137.642 503.543 138.216 502.437 138.216ZM508.277 139H509.397V132.756H510.951V131.776H509.397V129.62H510.951V128.64H509.859C508.795 128.64 508.277 129.326 508.277 130.32V131.776H507.101V132.756H508.277V139ZM512.816 139H513.936V132.756H515.49V131.776H513.936V129.62H515.49V128.64H514.398C513.334 128.64 512.816 129.326 512.816 130.32V131.776H511.64V132.756H512.816V139Z" fill="#292929"/>
<path d="M532 130.7L531.3 130L528 133.3L524.7 130L524 130.7L527.3 134L524 137.3L524.7 138L528 134.7L531.3 138L532 137.3L528.7 134L532 130.7Z" fill="#292929"/>
<rect x="429.5" y="118.5" width="112" height="31" rx="3.5" stroke="#E5E5E5"/>
<path d="M576 137.75L569.75 131.5L570.625 130.625L576 136L581.375 130.625L582.25 131.5L576 137.75Z" fill="#292929"/>
<rect x="316.5" y="110.5" width="285" height="47" rx="3.5" stroke="#E5E5E5"/>
<path d="M324.5 179V175H322.5V176H323.5V179H322V180H326V179H324.5ZM324 172C323.852 172 323.707 172.044 323.583 172.126C323.46 172.209 323.364 172.326 323.307 172.463C323.25 172.6 323.235 172.751 323.264 172.896C323.293 173.042 323.365 173.175 323.47 173.28C323.575 173.385 323.708 173.457 323.854 173.486C323.999 173.515 324.15 173.5 324.287 173.443C324.424 173.386 324.541 173.29 324.624 173.167C324.706 173.043 324.75 172.898 324.75 172.75C324.75 172.551 324.671 172.36 324.53 172.22C324.39 172.079 324.199 172 324 172V172Z" fill="#0066CC"/>
<path d="M324 183C322.616 183 321.262 182.589 320.111 181.82C318.96 181.051 318.063 179.958 317.533 178.679C317.003 177.4 316.864 175.992 317.135 174.634C317.405 173.277 318.071 172.029 319.05 171.05C320.029 170.071 321.277 169.405 322.634 169.135C323.992 168.864 325.4 169.003 326.679 169.533C327.958 170.063 329.051 170.96 329.82 172.111C330.589 173.262 331 174.616 331 176C331 177.857 330.263 179.637 328.95 180.95C327.637 182.263 325.857 183 324 183ZM324 170C322.813 170 321.653 170.352 320.667 171.011C319.68 171.67 318.911 172.608 318.457 173.704C318.003 174.8 317.884 176.007 318.115 177.171C318.347 178.334 318.918 179.404 319.757 180.243C320.596 181.082 321.666 181.653 322.829 181.885C323.993 182.116 325.2 181.997 326.296 181.543C327.392 181.089 328.33 180.32 328.989 179.333C329.648 178.347 330 177.187 330 176C330 174.409 329.368 172.883 328.243 171.757C327.117 170.632 325.591 170 324 170V170Z" fill="#0066CC"/>
<path d="M346.36 180H347.368V171.624H346.36V175.32H342.124V171.624H341.116V180H342.124V176.208H346.36V180ZM351.832 180.144C352.996 180.144 353.884 179.568 354.28 178.728L353.596 178.236C353.272 178.92 352.672 179.304 351.892 179.304C350.74 179.304 350.056 178.5 350.056 177.432V177.144H354.508V176.688C354.508 174.936 353.488 173.664 351.832 173.664C350.152 173.664 349.048 174.936 349.048 176.904C349.048 178.872 350.152 180.144 351.832 180.144ZM351.832 174.468C352.816 174.468 353.476 175.2 353.476 176.292V176.424H350.056V176.34C350.056 175.26 350.788 174.468 351.832 174.468ZM357.962 180V179.16H357.05V171.12H356.09V179.004C356.09 179.58 356.45 180 357.11 180H357.962ZM359.36 182.4H360.32V178.992H360.368C360.74 179.76 361.328 180.144 362.18 180.144C363.728 180.144 364.7 178.884 364.7 176.904C364.7 174.924 363.728 173.664 362.18 173.664C361.328 173.664 360.692 174.036 360.368 174.816H360.32V173.808H359.36V182.4ZM361.916 179.28C361.04 179.28 360.32 178.824 360.32 178.02V175.716C360.32 175.032 361.04 174.528 361.916 174.528C362.996 174.528 363.668 175.272 363.668 176.376V177.432C363.668 178.536 362.996 179.28 361.916 179.28ZM368.649 180.144C369.813 180.144 370.701 179.568 371.097 178.728L370.413 178.236C370.089 178.92 369.489 179.304 368.709 179.304C367.557 179.304 366.873 178.5 366.873 177.432V177.144H371.325V176.688C371.325 174.936 370.305 173.664 368.649 173.664C366.969 173.664 365.865 174.936 365.865 176.904C365.865 178.872 366.969 180.144 368.649 180.144ZM368.649 174.468C369.633 174.468 370.293 175.2 370.293 176.292V176.424H366.873V176.34C366.873 175.26 367.605 174.468 368.649 174.468ZM373.867 180V175.8C373.867 175.212 374.491 174.768 375.523 174.768H376.087V173.808H375.715C374.707 173.808 374.143 174.36 373.927 174.948H373.867V173.808H372.907V180H373.867ZM382.717 180V179.16H381.457V174.648H382.813V173.808H381.457V172.092H380.593V173.244C380.593 173.664 380.461 173.808 380.053 173.808H379.477V174.648H380.497V178.98C380.497 179.58 380.857 180 381.517 180H382.717ZM386.637 180.144C387.801 180.144 388.689 179.568 389.085 178.728L388.401 178.236C388.077 178.92 387.477 179.304 386.697 179.304C385.545 179.304 384.861 178.5 384.861 177.432V177.144H389.313V176.688C389.313 174.936 388.293 173.664 386.637 173.664C384.957 173.664 383.853 174.936 383.853 176.904C383.853 178.872 384.957 180.144 386.637 180.144ZM386.637 174.468C387.621 174.468 388.281 175.2 388.281 176.292V176.424H384.861V176.34C384.861 175.26 385.593 174.468 386.637 174.468ZM389.986 180H391.054L392.794 177.576H392.83L394.438 180H395.566L393.334 176.808L395.518 173.808H394.45L392.818 176.112H392.782L391.21 173.808H390.082L392.278 176.88L389.986 180ZM399.404 180V179.16H398.144V174.648H399.5V173.808H398.144V172.092H397.28V173.244C397.28 173.664 397.148 173.808 396.74 173.808H396.164V174.648H397.184V178.98C397.184 179.58 397.544 180 398.204 180H399.404ZM406.183 180.144C407.359 180.144 408.163 179.568 408.559 178.68L407.863 178.212C407.527 178.92 406.963 179.292 406.183 179.292C405.043 179.292 404.455 178.512 404.455 177.432V176.376C404.455 175.296 405.043 174.516 406.183 174.516C406.939 174.516 407.467 174.888 407.695 175.524L408.499 175.116C408.139 174.264 407.407 173.664 406.183 173.664C404.443 173.664 403.423 174.924 403.423 176.904C403.423 178.884 404.443 180.144 406.183 180.144ZM414.955 180V179.16H414.247V175.752C414.247 174.444 413.359 173.664 411.871 173.664C410.755 173.664 410.011 174.216 409.675 174.876L410.251 175.416C410.587 174.852 411.079 174.492 411.823 174.492C412.807 174.492 413.287 174.972 413.287 175.848V176.46H412.063C410.263 176.46 409.423 177.108 409.423 178.272C409.423 179.424 410.191 180.144 411.499 180.144C412.363 180.144 413.023 179.748 413.287 178.992H413.347C413.419 179.568 413.707 180 414.415 180H414.955ZM411.655 179.328C410.911 179.328 410.431 178.98 410.431 178.368V178.116C410.431 177.516 410.923 177.18 412.015 177.18H413.287V178.2C413.287 178.836 412.603 179.328 411.655 179.328ZM417.285 180V175.704C417.285 174.912 418.029 174.528 418.797 174.528C419.721 174.528 420.201 175.092 420.201 176.196V180H421.161V176.028C421.161 174.528 420.357 173.664 419.085 173.664C418.161 173.664 417.633 174.12 417.333 174.816H417.285V173.808H416.325V180H417.285ZM431.201 180.684C431.201 179.664 430.541 179.04 429.005 179.04H427.685C427.121 179.04 426.737 178.944 426.737 178.572C426.737 178.188 427.145 177.984 427.553 177.876C427.733 177.912 427.949 177.936 428.153 177.936C429.569 177.936 430.493 177.06 430.493 175.8C430.493 175.14 430.229 174.588 429.785 174.204V173.808H430.961V172.968H430.037C429.521 172.968 429.317 173.316 429.317 173.796V173.904C428.981 173.748 428.585 173.664 428.141 173.664C426.737 173.664 425.813 174.54 425.813 175.8C425.813 176.664 426.245 177.348 426.977 177.696V177.744C426.353 177.9 425.909 178.2 425.909 178.824C425.909 179.244 426.113 179.52 426.461 179.688V179.82C425.849 179.988 425.477 180.348 425.477 181.02C425.477 181.992 426.269 182.544 428.201 182.544C430.193 182.544 431.201 181.956 431.201 180.684ZM430.301 180.756C430.301 181.428 429.677 181.764 428.609 181.764H427.721C426.749 181.764 426.377 181.32 426.377 180.78C426.377 180.396 426.557 180.12 426.953 179.94H429.017C429.977 179.94 430.301 180.264 430.301 180.756ZM428.153 177.168C427.337 177.168 426.821 176.784 426.821 175.968V175.632C426.821 174.816 427.337 174.432 428.153 174.432C428.969 174.432 429.485 174.816 429.485 175.632V175.968C429.485 176.784 428.969 177.168 428.153 177.168ZM434.59 180.144C436.246 180.144 437.386 178.872 437.386 176.904C437.386 174.936 436.246 173.664 434.59 173.664C432.934 173.664 431.794 174.936 431.794 176.904C431.794 178.872 432.934 180.144 434.59 180.144ZM434.59 179.292C433.558 179.292 432.826 178.656 432.826 177.348V176.46C432.826 175.152 433.558 174.516 434.59 174.516C435.622 174.516 436.354 175.152 436.354 176.46V177.348C436.354 178.656 435.622 179.292 434.59 179.292ZM441.801 180H442.761V175.704C442.761 174.912 443.505 174.528 444.273 174.528C445.197 174.528 445.677 175.092 445.677 176.196V180H446.637V176.028C446.637 174.528 445.833 173.664 444.561 173.664C443.637 173.664 443.109 174.12 442.809 174.816H442.761V171.12H441.801V180ZM450.95 180.144C452.114 180.144 453.002 179.568 453.398 178.728L452.714 178.236C452.39 178.92 451.79 179.304 451.01 179.304C449.858 179.304 449.174 178.5 449.174 177.432V177.144H453.626V176.688C453.626 174.936 452.606 173.664 450.95 173.664C449.27 173.664 448.166 174.936 448.166 176.904C448.166 178.872 449.27 180.144 450.95 180.144ZM450.95 174.468C451.934 174.468 452.594 175.2 452.594 176.292V176.424H449.174V176.34C449.174 175.26 449.906 174.468 450.95 174.468ZM456.168 180V175.8C456.168 175.212 456.792 174.768 457.824 174.768H458.388V173.808H458.016C457.008 173.808 456.444 174.36 456.228 174.948H456.168V173.808H455.208V180H456.168ZM461.883 180.144C463.047 180.144 463.935 179.568 464.331 178.728L463.647 178.236C463.323 178.92 462.723 179.304 461.943 179.304C460.791 179.304 460.107 178.5 460.107 177.432V177.144H464.559V176.688C464.559 174.936 463.539 173.664 461.883 173.664C460.203 173.664 459.099 174.936 459.099 176.904C459.099 178.872 460.203 180.144 461.883 180.144ZM461.883 174.468C462.867 174.468 463.527 175.2 463.527 176.292V176.424H460.107V176.34C460.107 175.26 460.839 174.468 461.883 174.468ZM466.519 180.144C467.023 180.144 467.251 179.856 467.251 179.448V179.292C467.251 178.884 467.023 178.596 466.519 178.596C466.015 178.596 465.787 178.884 465.787 179.292V179.448C465.787 179.856 466.015 180.144 466.519 180.144Z" fill="#292929"/>
<rect x="280" y="122" width="24" height="24" rx="12" fill="#6E04C1"/>
<path d="M294.929 138.038H290.158L292.602 135.841C293.759 134.801 294.591 133.813 294.591 132.409C294.591 130.862 293.577 129.77 291.809 129.77C290.054 129.77 289.248 130.836 288.897 131.902L289.872 132.279C290.119 131.421 290.639 130.745 291.757 130.745C292.875 130.745 293.434 131.434 293.434 132.435V132.591C293.434 133.462 292.784 134.372 291.939 135.152L288.975 137.882V139H294.929V138.038Z" fill="white"/>
<line x1="332" y1="134.5" x2="296" y2="134.5" stroke="#8000E4"/>
<rect x="0.5" y="0.5" width="881" height="229" rx="3.5" stroke="#E5E5E5"/>
</svg>
