<svg width="882" height="230" viewBox="0 0 882 230" fill="none" xmlns="http://www.w3.org/2000/svg">
<rect x="0.5" y="0.5" width="881" height="229" rx="3.5" fill="#F8F8F8"/>
<rect x="262" y="111.5" width="158" height="46" rx="23" fill="white"/>
<g clip-path="url(#clip0_4528_120072)">
<path d="M295.75 134.5C295.754 132.572 295.123 130.697 293.955 129.164C292.786 127.631 291.146 126.526 289.286 126.019C287.426 125.513 285.451 125.633 283.667 126.361C281.882 127.089 280.387 128.385 279.413 130.049C278.439 131.712 278.04 133.65 278.278 135.562C278.516 137.475 279.377 139.256 280.729 140.63C282.08 142.004 283.847 142.895 285.756 143.164C287.664 143.433 289.608 143.066 291.287 142.12L291.36 142.135L291.376 142.066C292.704 141.299 293.808 140.196 294.575 138.868C295.343 137.54 295.748 136.034 295.75 134.5V134.5ZM279.5 134.5C279.502 133.867 279.585 133.237 279.747 132.625H282.399L285.519 135.225L284.325 136.816C284.146 137.057 284.059 137.355 284.08 137.655C284.102 137.954 284.23 138.237 284.441 138.45L285.75 139.759V141.887C284.004 141.591 282.419 140.687 281.276 139.335C280.132 137.983 279.503 136.271 279.5 134.5V134.5ZM285.325 137.566L287.231 135.025L282.851 131.375H280.191C280.647 130.375 281.318 129.487 282.156 128.776C282.994 128.065 283.979 127.547 285.04 127.26C286.101 126.972 287.212 126.923 288.295 127.114C289.377 127.305 290.404 127.733 291.302 128.366L290.925 129.5H287.366L285.464 131.402L291.31 136.598L290.28 141.234C289.26 141.737 288.137 141.999 287 142V139.241L285.325 137.566ZM291.772 140.281L292.53 136.869C292.578 136.652 292.568 136.425 292.499 136.214C292.431 136.002 292.307 135.812 292.14 135.664L287.286 131.348L287.884 130.75H290.925C291.187 130.75 291.443 130.668 291.656 130.514C291.869 130.361 292.028 130.144 292.11 129.895L292.331 129.233C293.064 129.972 293.635 130.856 294.006 131.829C294.378 132.801 294.543 133.841 294.49 134.88C294.438 135.92 294.169 136.938 293.701 137.868C293.233 138.798 292.576 139.62 291.772 140.281H291.772Z" fill="#292929"/>
<path d="M310.158 140.692C312.718 140.692 314.206 139.3 314.206 137.22C314.206 135.444 313.198 134.452 310.974 134.02L309.982 133.812C308.782 133.572 308.206 133.172 308.206 132.244C308.206 131.268 308.942 130.74 310.222 130.74C311.454 130.74 312.254 131.22 312.83 131.972L314.094 130.852C313.23 129.748 311.998 129.14 310.318 129.14C307.95 129.14 306.414 130.356 306.414 132.34C306.414 134.116 307.518 135.124 309.678 135.524L310.67 135.7C311.966 135.956 312.414 136.452 312.414 137.316C312.414 138.388 311.678 139.092 310.254 139.092C309.038 139.092 308.11 138.596 307.326 137.636L306.078 138.804C307.006 139.956 308.286 140.692 310.158 140.692ZM319.512 140.692C321.064 140.692 322.28 140.02 322.904 139.012L321.88 138.004C321.4 138.772 320.712 139.252 319.688 139.252C318.28 139.252 317.496 138.34 317.496 137.06V136.788H323.208V136.132C323.208 133.828 321.96 131.988 319.512 131.988C317.144 131.988 315.688 133.684 315.688 136.34C315.688 138.996 317.144 140.692 319.512 140.692ZM319.512 133.348C320.664 133.348 321.368 134.196 321.368 135.476V135.636H317.496V135.524C317.496 134.244 318.312 133.348 319.512 133.348ZM328.035 140.5V139.076H326.883V128.66H325.139V138.772C325.139 139.844 325.731 140.5 326.915 140.5H328.035ZM332.965 140.692C334.517 140.692 335.733 140.02 336.357 139.012L335.333 138.004C334.853 138.772 334.165 139.252 333.141 139.252C331.733 139.252 330.949 138.34 330.949 137.06V136.788H336.661V136.132C336.661 133.828 335.413 131.988 332.965 131.988C330.597 131.988 329.141 133.684 329.141 136.34C329.141 138.996 330.597 140.692 332.965 140.692ZM332.965 133.348C334.117 133.348 334.821 134.196 334.821 135.476V135.636H330.949V135.524C330.949 134.244 331.765 133.348 332.965 133.348ZM341.808 140.692C343.408 140.692 344.544 139.94 345.088 138.58L343.76 137.876C343.408 138.708 342.816 139.252 341.808 139.252C340.528 139.252 339.872 138.372 339.872 137.092V135.604C339.872 134.324 340.528 133.444 341.808 133.444C342.752 133.444 343.344 133.94 343.584 134.708L345.024 134.036C344.528 132.804 343.472 131.988 341.808 131.988C339.408 131.988 338.032 133.684 338.032 136.34C338.032 138.996 339.408 140.692 341.808 140.692ZM350.572 140.5V139.076H348.956V133.604H350.7V132.18H348.956V129.908H347.388V131.364C347.388 131.94 347.196 132.18 346.62 132.18H345.916V133.604H347.212V138.692C347.212 139.828 347.852 140.5 349.052 140.5H350.572ZM355.793 140.692C357.345 140.692 358.561 140.02 359.185 139.012L358.161 138.004C357.681 138.772 356.993 139.252 355.969 139.252C354.561 139.252 353.777 138.34 353.777 137.06V136.788H359.489V136.132C359.489 133.828 358.241 131.988 355.793 131.988C353.425 131.988 351.969 133.684 351.969 136.34C351.969 138.996 353.425 140.692 355.793 140.692ZM355.793 133.348C356.945 133.348 357.649 134.196 357.649 135.476V135.636H353.777V135.524C353.777 134.244 354.593 133.348 355.793 133.348ZM366.652 140.5H368.396V128.66H366.652V133.556H366.572C366.22 132.564 365.34 131.988 364.236 131.988C362.14 131.988 360.924 133.604 360.924 136.34C360.924 139.076 362.14 140.692 364.236 140.692C365.34 140.692 366.22 140.1 366.572 139.124H366.652V140.5ZM364.764 139.188C363.564 139.188 362.764 138.34 362.764 137.06V135.62C362.764 134.34 363.564 133.492 364.764 133.492C365.82 133.492 366.652 134.068 366.652 134.916V137.764C366.652 138.612 365.82 139.188 364.764 139.188ZM377.886 140.692C379.486 140.692 380.622 139.94 381.166 138.58L379.838 137.876C379.486 138.708 378.894 139.252 377.886 139.252C376.606 139.252 375.95 138.372 375.95 137.092V135.604C375.95 134.324 376.606 133.444 377.886 133.444C378.83 133.444 379.422 133.94 379.662 134.708L381.102 134.036C380.606 132.804 379.55 131.988 377.886 131.988C375.486 131.988 374.11 133.684 374.11 136.34C374.11 138.996 375.486 140.692 377.886 140.692ZM382.826 140.5H384.57V134.916C384.57 133.956 385.466 133.492 386.378 133.492C387.45 133.492 387.946 134.148 387.946 135.428V140.5H389.69V135.22C389.69 133.172 388.682 131.988 386.986 131.988C385.706 131.988 385.002 132.66 384.65 133.556H384.57V128.66H382.826V140.5ZM392.987 130.692C393.707 130.692 394.011 130.308 394.011 129.78V129.508C394.011 128.98 393.707 128.596 392.987 128.596C392.267 128.596 391.947 128.98 391.947 129.508V129.78C391.947 130.308 392.267 130.692 392.987 130.692ZM392.107 140.5H393.851V132.18H392.107V140.5ZM396.342 143.7H398.086V139.124H398.166C398.518 140.1 399.398 140.692 400.502 140.692C402.598 140.692 403.814 139.076 403.814 136.34C403.814 133.604 402.598 131.988 400.502 131.988C399.398 131.988 398.518 132.564 398.166 133.556H398.086V132.18H396.342V143.7ZM399.974 139.188C398.918 139.188 398.086 138.612 398.086 137.764V134.916C398.086 134.068 398.918 133.492 399.974 133.492C401.174 133.492 401.974 134.34 401.974 135.62V137.06C401.974 138.34 401.174 139.188 399.974 139.188Z" fill="#292929"/>
</g>
<rect x="262" y="111.5" width="158" height="46" rx="23" stroke="#292929" stroke-width="2"/>
<rect x="443" y="110.5" width="178" height="48" rx="24" fill="white"/>
<g clip-path="url(#clip1_4528_120072)">
<path d="M477.75 134.5C477.754 132.572 477.123 130.697 475.955 129.164C474.786 127.631 473.146 126.526 471.286 126.019C469.426 125.513 467.451 125.633 465.667 126.361C463.882 127.089 462.387 128.385 461.413 130.049C460.439 131.712 460.04 133.65 460.278 135.562C460.516 137.475 461.377 139.256 462.729 140.63C464.08 142.004 465.847 142.895 467.756 143.164C469.664 143.433 471.608 143.066 473.287 142.12L473.36 142.135L473.376 142.066C474.704 141.299 475.808 140.196 476.575 138.868C477.343 137.54 477.748 136.034 477.75 134.5V134.5ZM461.5 134.5C461.502 133.867 461.585 133.237 461.747 132.625H464.399L467.519 135.225L466.325 136.816C466.146 137.057 466.059 137.355 466.08 137.655C466.102 137.954 466.23 138.237 466.441 138.45L467.75 139.759V141.887C466.004 141.591 464.419 140.687 463.276 139.335C462.132 137.983 461.503 136.271 461.5 134.5V134.5ZM467.325 137.566L469.231 135.025L464.851 131.375H462.191C462.647 130.375 463.318 129.487 464.156 128.776C464.994 128.065 465.979 127.547 467.04 127.26C468.101 126.972 469.212 126.923 470.295 127.114C471.377 127.305 472.404 127.733 473.302 128.366L472.925 129.5H469.366L467.464 131.402L473.31 136.598L472.28 141.234C471.26 141.737 470.137 141.999 469 142V139.241L467.325 137.566ZM473.772 140.281L474.53 136.869C474.578 136.652 474.568 136.425 474.499 136.214C474.431 136.002 474.307 135.812 474.14 135.664L469.286 131.348L469.884 130.75H472.925C473.187 130.75 473.443 130.668 473.656 130.514C473.869 130.361 474.028 130.144 474.11 129.895L474.331 129.233C475.064 129.972 475.635 130.856 476.006 131.829C476.378 132.801 476.543 133.841 476.49 134.88C476.438 135.92 476.169 136.938 475.701 137.868C475.233 138.798 474.576 139.62 473.772 140.281H473.772Z" fill="#292929"/>
<path d="M488.453 129.332V135.924C488.453 139.188 489.573 140.692 492.629 140.692C495.685 140.692 496.805 139.188 496.805 135.924V129.332H495.029V136.212C495.029 138.1 494.373 139.076 492.629 139.076C490.885 139.076 490.229 138.1 490.229 136.212V129.332H488.453ZM501.101 140.5V134.932C501.101 133.956 501.997 133.492 502.909 133.492C503.981 133.492 504.477 134.148 504.477 135.444V140.5H506.221V135.22C506.221 133.172 505.213 131.988 503.517 131.988C502.237 131.988 501.533 132.66 501.181 133.556H501.101V132.18H499.357V140.5H501.101ZM511.279 140.692C513.279 140.692 514.575 139.62 514.575 138.02C514.575 136.676 513.759 135.876 511.935 135.604L511.167 135.508C510.287 135.364 509.887 135.076 509.887 134.436C509.887 133.812 510.335 133.396 511.295 133.396C512.191 133.396 512.895 133.828 513.327 134.34L514.399 133.316C513.647 132.484 512.799 131.988 511.295 131.988C509.471 131.988 508.207 132.932 508.207 134.548C508.207 136.084 509.247 136.82 510.943 137.028L511.711 137.124C512.575 137.236 512.895 137.636 512.895 138.164C512.895 138.868 512.383 139.284 511.375 139.284C510.383 139.284 509.631 138.836 509.023 138.1L507.903 139.124C508.687 140.1 509.711 140.692 511.279 140.692ZM519.809 140.692C521.361 140.692 522.577 140.02 523.201 139.012L522.177 138.004C521.697 138.772 521.009 139.252 519.985 139.252C518.577 139.252 517.793 138.34 517.793 137.06V136.788H523.505V136.132C523.505 133.828 522.257 131.988 519.809 131.988C517.441 131.988 515.985 133.684 515.985 136.34C515.985 138.996 517.441 140.692 519.809 140.692ZM519.809 133.348C520.961 133.348 521.665 134.196 521.665 135.476V135.636H517.793V135.524C517.793 134.244 518.609 133.348 519.809 133.348ZM528.332 140.5V139.076H527.18V128.66H525.436V138.772C525.436 139.844 526.028 140.5 527.212 140.5H528.332ZM533.262 140.692C534.814 140.692 536.03 140.02 536.654 139.012L535.63 138.004C535.15 138.772 534.462 139.252 533.438 139.252C532.03 139.252 531.246 138.34 531.246 137.06V136.788H536.958V136.132C536.958 133.828 535.71 131.988 533.262 131.988C530.894 131.988 529.438 133.684 529.438 136.34C529.438 138.996 530.894 140.692 533.262 140.692ZM533.262 133.348C534.414 133.348 535.118 134.196 535.118 135.476V135.636H531.246V135.524C531.246 134.244 532.062 133.348 533.262 133.348ZM542.105 140.692C543.705 140.692 544.841 139.94 545.385 138.58L544.057 137.876C543.705 138.708 543.113 139.252 542.105 139.252C540.825 139.252 540.169 138.372 540.169 137.092V135.604C540.169 134.324 540.825 133.444 542.105 133.444C543.049 133.444 543.641 133.94 543.881 134.708L545.321 134.036C544.825 132.804 543.769 131.988 542.105 131.988C539.705 131.988 538.329 133.684 538.329 136.34C538.329 138.996 539.705 140.692 542.105 140.692ZM550.869 140.5V139.076H549.253V133.604H550.997V132.18H549.253V129.908H547.685V131.364C547.685 131.94 547.493 132.18 546.917 132.18H546.213V133.604H547.509V138.692C547.509 139.828 548.149 140.5 549.349 140.5H550.869ZM556.09 140.692C557.642 140.692 558.858 140.02 559.482 139.012L558.458 138.004C557.978 138.772 557.29 139.252 556.266 139.252C554.858 139.252 554.074 138.34 554.074 137.06V136.788H559.786V136.132C559.786 133.828 558.538 131.988 556.09 131.988C553.722 131.988 552.266 133.684 552.266 136.34C552.266 138.996 553.722 140.692 556.09 140.692ZM556.09 133.348C557.242 133.348 557.946 134.196 557.946 135.476V135.636H554.074V135.524C554.074 134.244 554.89 133.348 556.09 133.348ZM566.949 140.5H568.693V128.66H566.949V133.556H566.869C566.517 132.564 565.637 131.988 564.533 131.988C562.437 131.988 561.221 133.604 561.221 136.34C561.221 139.076 562.437 140.692 564.533 140.692C565.637 140.692 566.517 140.1 566.869 139.124H566.949V140.5ZM565.061 139.188C563.861 139.188 563.061 138.34 563.061 137.06V135.62C563.061 134.34 563.861 133.492 565.061 133.492C566.117 133.492 566.949 134.068 566.949 134.916V137.764C566.949 138.612 566.117 139.188 565.061 139.188ZM578.183 140.692C579.783 140.692 580.919 139.94 581.463 138.58L580.135 137.876C579.783 138.708 579.191 139.252 578.183 139.252C576.903 139.252 576.247 138.372 576.247 137.092V135.604C576.247 134.324 576.903 133.444 578.183 133.444C579.127 133.444 579.719 133.94 579.959 134.708L581.399 134.036C580.903 132.804 579.847 131.988 578.183 131.988C575.783 131.988 574.407 133.684 574.407 136.34C574.407 138.996 575.783 140.692 578.183 140.692ZM583.123 140.5H584.867V134.916C584.867 133.956 585.763 133.492 586.675 133.492C587.747 133.492 588.243 134.148 588.243 135.428V140.5H589.987V135.22C589.987 133.172 588.979 131.988 587.283 131.988C586.003 131.988 585.299 132.66 584.947 133.556H584.867V128.66H583.123V140.5ZM593.284 130.692C594.004 130.692 594.308 130.308 594.308 129.78V129.508C594.308 128.98 594.004 128.596 593.284 128.596C592.564 128.596 592.244 128.98 592.244 129.508V129.78C592.244 130.308 592.564 130.692 593.284 130.692ZM592.404 140.5H594.148V132.18H592.404V140.5ZM596.639 143.7H598.383V139.124H598.463C598.815 140.1 599.695 140.692 600.799 140.692C602.895 140.692 604.111 139.076 604.111 136.34C604.111 133.604 602.895 131.988 600.799 131.988C599.695 131.988 598.815 132.564 598.463 133.556H598.383V132.18H596.639V143.7ZM600.271 139.188C599.215 139.188 598.383 138.612 598.383 137.764V134.916C598.383 134.068 599.215 133.492 600.271 133.492C601.471 133.492 602.271 134.34 602.271 135.62V137.06C602.271 138.34 601.471 139.188 600.271 139.188Z" fill="#292929"/>
</g>
<rect x="444" y="111.5" width="176" height="46" rx="23" stroke="black" stroke-opacity="0.102" stroke-width="2"/>
<rect x="276" y="71.5" width="24" height="24" rx="12" fill="#6E04C1"/>
<path d="M291.111 88.5V87.538H288.771V79.426H287.068L284.663 81.675L285.3 82.364L287.588 80.232H287.679V87.538H285.144V88.5H291.111Z" fill="white"/>
<line x1="287.5" y1="95.5" x2="287.5" y2="123.5" stroke="#8000E4"/>
<rect x="311" y="71.5" width="24" height="24" rx="12" fill="#6E04C1"/>
<path d="M325.929 87.538H321.158L323.602 85.341C324.759 84.301 325.591 83.313 325.591 81.909C325.591 80.362 324.577 79.27 322.809 79.27C321.054 79.27 320.248 80.336 319.897 81.402L320.872 81.779C321.119 80.921 321.639 80.245 322.757 80.245C323.875 80.245 324.434 80.934 324.434 81.935V82.091C324.434 82.962 323.784 83.872 322.939 84.652L319.975 87.382V88.5H325.929V87.538Z" fill="white"/>
<line x1="322.5" y1="95.5" x2="322.5" y2="125.5" stroke="#8000E4"/>
<rect x="0.5" y="0.5" width="881" height="229" rx="3.5" stroke="#E5E5E5"/>
<defs>
<clipPath id="clip0_4528_120072">
<rect x="261" y="110.5" width="160" height="48" rx="24" fill="white"/>
</clipPath>
<clipPath id="clip1_4528_120072">
<rect x="443" y="110.5" width="178" height="48" rx="24" fill="white"/>
</clipPath>
</defs>
</svg>
