<svg width="882" height="230" viewBox="0 0 882 230" fill="none" xmlns="http://www.w3.org/2000/svg">
<rect x="0.5" y="0.5" width="881" height="229" rx="3.5" fill="#F8F8F8"/>
<path d="M355.562 107.5C354.312 107.5 353.125 108 352.25 108.875L351.5 109.625L350.812 108.938C349 107.063 346 107.062 344.188 108.875L344.125 108.938C342.25 110.813 342.25 113.813 344.125 115.688L351.5 123.125L358.875 115.688C360.75 113.813 360.75 110.813 358.875 108.938C358 108 356.812 107.5 355.562 107.5Z" fill="#292929"/>
<path d="M371.056 121H375.008C377.856 121 379.728 119.144 379.728 115.416C379.728 111.688 377.856 109.832 375.008 109.832H371.056V121ZM372.864 119.4V111.432H375.008C376.672 111.432 377.792 112.504 377.792 114.52V116.312C377.792 118.328 376.672 119.4 375.008 119.4H372.864ZM385.114 121.192C386.666 121.192 387.882 120.52 388.506 119.512L387.482 118.504C387.002 119.272 386.314 119.752 385.29 119.752C383.882 119.752 383.098 118.84 383.098 117.56V117.288H388.81V116.632C388.81 114.328 387.562 112.488 385.114 112.488C382.746 112.488 381.29 114.184 381.29 116.84C381.29 119.496 382.746 121.192 385.114 121.192ZM385.114 113.848C386.266 113.848 386.97 114.696 386.97 115.976V116.136H383.098V116.024C383.098 114.744 383.914 113.848 385.114 113.848ZM391.172 121H392.916V114.104H394.66V112.68H392.916V110.584H394.66V109.16H393.284C391.892 109.16 391.172 109.96 391.172 111.304V112.68H389.908V114.104H391.172V121ZM403.25 121V119.576H402.37V115.4C402.37 113.544 401.17 112.488 399.026 112.488C397.41 112.488 396.434 113.176 395.89 114.104L396.93 115.048C397.346 114.392 397.938 113.912 398.914 113.912C400.082 113.912 400.626 114.504 400.626 115.512V116.216H399.122C396.802 116.216 395.57 117.064 395.57 118.712C395.57 120.216 396.546 121.192 398.258 121.192C399.474 121.192 400.37 120.648 400.69 119.608H400.77C400.882 120.424 401.362 121 402.274 121H403.25ZM398.754 119.864C397.89 119.864 397.346 119.48 397.346 118.744V118.456C397.346 117.736 397.938 117.336 399.154 117.336H400.626V118.536C400.626 119.352 399.826 119.864 398.754 119.864ZM409.999 121H411.743V112.68H409.999V118.248C409.999 119.224 409.119 119.688 408.223 119.688C407.151 119.688 406.623 119.016 406.623 117.752V112.68H404.879V117.976C404.879 120.024 405.887 121.192 407.599 121.192C408.975 121.192 409.631 120.44 409.935 119.624H409.999V121ZM417.136 121V119.576H415.984V109.16H414.24V119.272C414.24 120.344 414.832 121 416.016 121H417.136ZM422.549 121V119.576H420.933V114.104H422.677V112.68H420.933V110.408H419.365V111.864C419.365 112.44 419.173 112.68 418.597 112.68H417.893V114.104H419.189V119.192C419.189 120.328 419.829 121 421.029 121H422.549Z" fill="#292929"/>
<rect width="114" height="4" transform="matrix(1 0 0 -1 325.5 139)" fill="#292929"/>
<path d="M469.562 107.5C468.312 107.5 467.125 108 466.25 108.875L465.5 109.625L464.812 108.938C463 107.063 460 107.062 458.188 108.875L458.125 108.938C456.25 110.813 456.25 113.813 458.125 115.688L465.5 123.125L472.875 115.688C474.75 113.813 474.75 110.813 472.875 108.938C472 108 470.812 107.5 469.562 107.5Z" fill="#292929"/>
<path d="M489.498 121.192C491.434 121.192 492.778 120.216 493.53 118.6L492.074 117.72C491.674 118.808 490.826 119.576 489.498 119.576C487.786 119.576 486.73 118.328 486.73 116.264V114.568C486.73 112.504 487.786 111.256 489.498 111.256C490.794 111.256 491.578 111.944 491.962 113L493.482 112.168C492.73 110.504 491.434 109.64 489.498 109.64C486.586 109.64 484.81 111.672 484.81 115.416C484.81 119.16 486.586 121.192 489.498 121.192ZM500.358 121H502.102V112.68H500.358V118.248C500.358 119.224 499.478 119.688 498.582 119.688C497.51 119.688 496.982 119.016 496.982 117.752V112.68H495.238V117.976C495.238 120.024 496.246 121.192 497.958 121.192C499.334 121.192 499.99 120.44 500.294 119.624H500.358V121ZM507.24 121.192C509.24 121.192 510.536 120.12 510.536 118.52C510.536 117.176 509.72 116.376 507.896 116.104L507.128 116.008C506.248 115.864 505.848 115.576 505.848 114.936C505.848 114.312 506.296 113.896 507.256 113.896C508.152 113.896 508.856 114.328 509.288 114.84L510.36 113.816C509.608 112.984 508.76 112.488 507.256 112.488C505.432 112.488 504.168 113.432 504.168 115.048C504.168 116.584 505.208 117.32 506.904 117.528L507.672 117.624C508.536 117.736 508.856 118.136 508.856 118.664C508.856 119.368 508.344 119.784 507.336 119.784C506.344 119.784 505.592 119.336 504.984 118.6L503.864 119.624C504.648 120.6 505.672 121.192 507.24 121.192ZM516.22 121V119.576H514.604V114.104H516.348V112.68H514.604V110.408H513.036V111.864C513.036 112.44 512.844 112.68 512.268 112.68H511.564V114.104H512.86V119.192C512.86 120.328 513.5 121 514.7 121H516.22ZM521.442 121.192C523.762 121.192 525.266 119.496 525.266 116.84C525.266 114.184 523.762 112.488 521.442 112.488C519.122 112.488 517.618 114.184 517.618 116.84C517.618 119.496 519.122 121.192 521.442 121.192ZM521.442 119.752C520.258 119.752 519.458 119.016 519.458 117.544V116.136C519.458 114.664 520.258 113.928 521.442 113.928C522.626 113.928 523.426 114.664 523.426 116.136V117.544C523.426 119.016 522.626 119.752 521.442 119.752ZM528.953 121V115.416C528.953 114.456 529.801 113.992 530.665 113.992C531.689 113.992 532.185 114.632 532.185 115.928V121H533.929V115.416C533.929 114.456 534.745 113.992 535.625 113.992C536.681 113.992 537.161 114.648 537.161 115.928V121H538.905V115.72C538.905 113.672 537.929 112.488 536.281 112.488C534.937 112.488 534.073 113.256 533.769 114.184H533.721C533.321 113.032 532.377 112.488 531.257 112.488C529.993 112.488 529.369 113.192 529.033 114.056H528.953V112.68H527.209V121H528.953Z" fill="#292929"/>
<rect x="340.5" y="59" width="24" height="24" rx="12" fill="#6E04C1"/>
<path d="M355.611 76V75.038H353.271V66.926H351.568L349.163 69.175L349.8 69.864L352.088 67.732H352.179V75.038H349.644V76H355.611Z" fill="white"/>
<line x1="353" y1="83" x2="353" y2="104" stroke="#8000E4"/>
<rect x="386.5" y="59" width="24" height="24" rx="12" fill="#6E04C1"/>
<path d="M401.429 75.038H396.658L399.102 72.841C400.259 71.801 401.091 70.813 401.091 69.409C401.091 67.862 400.077 66.77 398.309 66.77C396.554 66.77 395.748 67.836 395.397 68.902L396.372 69.279C396.619 68.421 397.139 67.745 398.257 67.745C399.375 67.745 399.934 68.434 399.934 69.435V69.591C399.934 70.462 399.284 71.372 398.439 72.152L395.475 74.882V76H401.429V75.038Z" fill="white"/>
<line x1="399" y1="83" x2="399" y2="107" stroke="#8000E4"/>
<rect x="340.5" y="147" width="24" height="24" rx="12" fill="#6E04C1"/>
<path d="M350.905 158.774V159.723H351.971C353.245 159.723 353.921 160.334 353.921 161.4V161.504C353.921 162.57 353.245 163.181 351.971 163.181C350.866 163.181 350.333 162.7 349.865 161.985L349.046 162.609C349.605 163.389 350.411 164.156 351.984 164.156C353.83 164.156 355.065 163.077 355.065 161.517C355.065 160.152 354.129 159.424 353.154 159.229V159.177C354.116 158.93 354.896 158.228 354.896 157.058C354.896 155.589 353.674 154.77 352.14 154.77C350.684 154.77 349.891 155.524 349.436 156.252L350.242 156.876C350.619 156.187 351.178 155.745 352.114 155.745C353.076 155.745 353.739 156.226 353.739 157.175V157.266C353.739 158.137 353.115 158.774 351.893 158.774H350.905Z" fill="white"/>
<line x1="352" y1="147" x2="352" y2="139" stroke="#6E04C1"/>
<rect x="0.5" y="0.5" width="881" height="229" rx="3.5" stroke="#E5E5E5"/>
</svg>
