<svg width="882" height="363" viewBox="0 0 882 363" fill="none" xmlns="http://www.w3.org/2000/svg">
<rect x="0.5" y="0.5" width="881" height="362" rx="3.5" fill="#F8F8F8"/>
<g filter="url(#filter0_d_4528_120881)">
<rect x="343" y="95" width="231" height="212" rx="4" fill="white" shape-rendering="crispEdges"/>
<path d="M377.75 118V116.75H364V118H370.25V120.5H361.5V118H360.25V123H361.5V121.75H365.387L366.67 126.883C366.839 127.56 367.229 128.16 367.778 128.589C368.327 129.018 369.005 129.251 369.702 129.25H375.25C375.913 129.249 376.548 128.986 377.017 128.517C377.486 128.048 377.749 127.413 377.75 126.75V125.101C377.75 124.809 377.647 124.526 377.46 124.301L374.668 120.95C374.551 120.809 374.404 120.696 374.238 120.618C374.072 120.54 373.891 120.5 373.707 120.5H371.5V118H377.75ZM375.25 128H369.702C369.284 128 368.877 127.861 368.548 127.603C368.218 127.346 367.984 126.986 367.883 126.58L366.675 121.75H370.25V125.5H376.5V126.75C376.5 127.081 376.368 127.399 376.133 127.633C375.899 127.868 375.581 128 375.25 128V128ZM373.707 121.75L375.791 124.25H371.5V121.75H373.707Z" fill="#292929"/>
<path d="M395.48 129H396.824V117.832H395.48V122.76H389.832V117.832H388.488V129H389.832V123.944H395.48V129ZM402.777 129.192C404.329 129.192 405.513 128.424 406.041 127.304L405.129 126.648C404.697 127.56 403.897 128.072 402.857 128.072C401.321 128.072 400.409 127 400.409 125.576V125.192H406.345V124.584C406.345 122.248 404.985 120.552 402.777 120.552C400.537 120.552 399.065 122.248 399.065 124.872C399.065 127.496 400.537 129.192 402.777 129.192ZM402.777 121.624C404.089 121.624 404.969 122.6 404.969 124.056V124.232H400.409V124.12C400.409 122.68 401.385 121.624 402.777 121.624ZM410.95 129V127.88H409.734V117.16H408.454V127.672C408.454 128.44 408.934 129 409.814 129H410.95ZM413.453 118.808C413.997 118.808 414.237 118.52 414.237 118.088V117.88C414.237 117.448 413.997 117.16 413.453 117.16C412.909 117.16 412.669 117.448 412.669 117.88V118.088C412.669 118.52 412.909 118.808 413.453 118.808ZM412.813 129H414.093V120.744H412.813V129ZM419.885 129.192C421.453 129.192 422.525 128.424 423.053 127.24L422.125 126.616C421.677 127.56 420.925 128.056 419.885 128.056C418.365 128.056 417.581 127.016 417.581 125.576V124.168C417.581 122.728 418.365 121.688 419.885 121.688C420.893 121.688 421.597 122.184 421.901 123.032L422.973 122.488C422.493 121.352 421.517 120.552 419.885 120.552C417.565 120.552 416.205 122.232 416.205 124.872C416.205 127.512 417.565 129.192 419.885 129.192ZM427.886 129.192C430.094 129.192 431.614 127.496 431.614 124.872C431.614 122.248 430.094 120.552 427.886 120.552C425.678 120.552 424.158 122.248 424.158 124.872C424.158 127.496 425.678 129.192 427.886 129.192ZM427.886 128.056C426.51 128.056 425.534 127.208 425.534 125.464V124.28C425.534 122.536 426.51 121.688 427.886 121.688C429.262 121.688 430.238 122.536 430.238 124.28V125.464C430.238 127.208 429.262 128.056 427.886 128.056ZM433.719 132.2H434.999V127.656H435.063C435.559 128.68 436.343 129.192 437.479 129.192C439.543 129.192 440.839 127.512 440.839 124.872C440.839 122.232 439.543 120.552 437.479 120.552C436.343 120.552 435.495 121.048 435.063 122.088H434.999V120.744H433.719V132.2ZM437.127 128.04C435.959 128.04 434.999 127.432 434.999 126.36V123.288C434.999 122.376 435.959 121.704 437.127 121.704C438.567 121.704 439.463 122.696 439.463 124.168V125.576C439.463 127.048 438.567 128.04 437.127 128.04ZM446.331 129V127.88H444.651V121.864H446.459V120.744H444.651V118.456H443.499V119.992C443.499 120.552 443.323 120.744 442.779 120.744H442.011V121.864H443.371V127.64C443.371 128.44 443.851 129 444.731 129H446.331ZM451.558 129.192C453.11 129.192 454.294 128.424 454.822 127.304L453.91 126.648C453.478 127.56 452.678 128.072 451.638 128.072C450.102 128.072 449.19 127 449.19 125.576V125.192H455.126V124.584C455.126 122.248 453.766 120.552 451.558 120.552C449.318 120.552 447.846 122.248 447.846 124.872C447.846 127.496 449.318 129.192 451.558 129.192ZM451.558 121.624C452.87 121.624 453.75 122.6 453.75 124.056V124.232H449.19V124.12C449.19 122.68 450.166 121.624 451.558 121.624ZM458.515 129V123.4C458.515 122.616 459.347 122.024 460.723 122.024H461.475V120.744H460.979C459.635 120.744 458.883 121.48 458.595 122.264H458.515V120.744H457.235V129H458.515Z" fill="#292929"/>
<path d="M375.25 175C375.195 175 375.142 175.006 375.087 175.008L374.148 170.625H376.5V169.375H373.375C373.282 169.375 373.19 169.396 373.105 169.436C373.021 169.476 372.947 169.535 372.889 169.607C372.83 169.68 372.788 169.764 372.767 169.855C372.745 169.946 372.744 170.04 372.764 170.131L373.137 171.875H366.742L366.117 170H367.75V168.75H363.375V170H364.8L365.45 171.952L363.844 175.164C363.115 174.941 362.336 174.945 361.609 175.176C360.883 175.407 360.244 175.854 359.778 176.458C359.312 177.061 359.041 177.792 359.001 178.554C358.961 179.315 359.155 180.07 359.555 180.719C359.955 181.368 360.544 181.879 361.243 182.185C361.941 182.491 362.716 182.576 363.464 182.43C364.213 182.284 364.899 181.913 365.431 181.368C365.963 180.822 366.316 180.127 366.444 179.375H368.075C368.262 179.375 368.447 179.334 368.616 179.252C368.785 179.171 368.934 179.053 369.051 178.906L373.462 173.391L373.865 175.269C373 175.615 372.296 176.271 371.889 177.109C371.483 177.947 371.403 178.907 371.666 179.8C371.929 180.694 372.516 181.457 373.312 181.941C374.107 182.425 375.055 182.595 375.969 182.418C376.884 182.241 377.699 181.729 378.256 180.983C378.814 180.236 379.072 179.309 378.983 178.382C378.893 177.455 378.46 176.595 377.77 175.969C377.08 175.344 376.181 174.998 375.25 175V175ZM362.75 181.25C362.399 181.251 362.051 181.178 361.73 181.036C361.409 180.894 361.122 180.685 360.887 180.425C360.652 180.164 360.474 179.857 360.365 179.523C360.257 179.189 360.22 178.836 360.257 178.487C360.294 178.138 360.404 177.801 360.58 177.497C360.756 177.193 360.994 176.93 361.278 176.724C361.563 176.518 361.887 176.375 362.231 176.303C362.575 176.231 362.929 176.232 363.273 176.307L362.191 178.47L362.196 178.473C362.151 178.559 362.127 178.653 362.125 178.75C362.124 178.891 362.171 179.027 362.258 179.138C362.345 179.249 362.467 179.326 362.604 179.358C362.74 179.391 362.884 179.375 363.011 179.315C363.138 179.255 363.241 179.153 363.303 179.027L363.309 179.03L364.386 176.875C364.772 177.207 365.046 177.65 365.172 178.143C365.298 178.636 365.27 179.156 365.092 179.633C364.914 180.109 364.594 180.52 364.175 180.809C363.756 181.098 363.259 181.252 362.75 181.25V181.25ZM366.444 178.125C366.28 177.163 365.748 176.303 364.96 175.727L366.009 173.629L367.508 178.125H366.444ZM368.605 177.463L367.159 173.125H372.074L368.605 177.463ZM375.25 181.25C374.687 181.252 374.14 181.063 373.699 180.714C373.257 180.366 372.946 179.878 372.817 179.33C372.687 178.783 372.747 178.208 372.986 177.698C373.225 177.189 373.63 176.775 374.134 176.525L374.639 178.881L374.651 178.879C374.679 179.017 374.753 179.143 374.862 179.233C374.971 179.324 375.108 179.374 375.25 179.375C375.416 179.375 375.575 179.309 375.692 179.192C375.809 179.075 375.875 178.916 375.875 178.75C375.871 178.706 375.862 178.663 375.849 178.621L375.861 178.619L375.356 176.261C376.009 176.287 376.626 176.569 377.073 177.045C377.521 177.521 377.764 178.154 377.75 178.807C377.736 179.461 377.466 180.083 376.999 180.539C376.531 180.996 375.903 181.251 375.25 181.25V181.25Z" fill="#292929"/>
<path d="M388.488 181H393.56C395.208 181 396.44 179.608 396.44 177.768C396.44 175.912 395.048 175.224 394.248 175.176V175.08C394.984 174.968 396.056 174.376 396.056 172.712C396.056 170.968 394.92 169.832 393.08 169.832H388.488V181ZM389.832 175.816H393.144C394.296 175.816 395 176.424 395 177.544V178.088C395 179.208 394.296 179.816 393.144 179.816H389.832V175.816ZM389.832 171.016H392.92C393.976 171.016 394.616 171.576 394.616 172.568V173.112C394.616 174.104 393.976 174.664 392.92 174.664H389.832V171.016ZM399.453 170.808C399.997 170.808 400.237 170.52 400.237 170.088V169.88C400.237 169.448 399.997 169.16 399.453 169.16C398.909 169.16 398.669 169.448 398.669 169.88V170.088C398.669 170.52 398.909 170.808 399.453 170.808ZM398.813 181H400.093V172.744H398.813V181ZM402.813 181H404.093V178.056L405.325 176.792L408.061 181H409.613L406.253 176.008L409.309 172.744H407.757L405.421 175.256L404.157 176.664H404.093V169.16H402.813V181ZM414.089 181.192C415.641 181.192 416.825 180.424 417.353 179.304L416.441 178.648C416.009 179.56 415.209 180.072 414.169 180.072C412.633 180.072 411.721 179 411.721 177.576V177.192H417.657V176.584C417.657 174.248 416.297 172.552 414.089 172.552C411.849 172.552 410.377 174.248 410.377 176.872C410.377 179.496 411.849 181.192 414.089 181.192ZM414.089 173.624C415.401 173.624 416.281 174.6 416.281 176.056V176.232H411.721V176.12C411.721 174.68 412.697 173.624 414.089 173.624Z" fill="#292929"/>
<path d="M377.631 227L373.256 221.025C373.2 220.942 373.125 220.874 373.037 220.826C372.949 220.778 372.85 220.752 372.75 220.75H360.875C360.709 220.75 360.55 220.816 360.433 220.933C360.316 221.05 360.25 221.209 360.25 221.375V232C360.25 232.166 360.316 232.325 360.433 232.442C360.55 232.559 360.709 232.625 360.875 232.625H362.212C362.356 233.155 362.671 233.622 363.107 233.955C363.543 234.289 364.076 234.469 364.625 234.469C365.174 234.469 365.707 234.289 366.143 233.955C366.579 233.622 366.894 233.155 367.037 232.625H370.962C371.106 233.155 371.421 233.622 371.857 233.955C372.293 234.289 372.826 234.469 373.375 234.469C373.924 234.469 374.457 234.289 374.893 233.955C375.329 233.622 375.644 233.155 375.788 232.625H377.125C377.291 232.625 377.45 232.559 377.567 232.442C377.684 232.325 377.75 232.166 377.75 232V227.35C377.747 227.224 377.705 227.102 377.631 227V227ZM371.5 222H372.431L375.638 226.375H371.5V222ZM361.5 222H370.25V226.375H361.5V222ZM364.625 233.25C364.378 233.25 364.136 233.177 363.931 233.039C363.725 232.902 363.565 232.707 363.47 232.478C363.376 232.25 363.351 231.999 363.399 231.756C363.447 231.514 363.566 231.291 363.741 231.116C363.916 230.941 364.139 230.822 364.381 230.774C364.624 230.726 364.875 230.751 365.103 230.845C365.332 230.94 365.527 231.1 365.664 231.306C365.802 231.511 365.875 231.753 365.875 232C365.875 232.332 365.743 232.649 365.509 232.884C365.274 233.118 364.957 233.25 364.625 233.25ZM373.375 233.25C373.128 233.25 372.886 233.177 372.681 233.039C372.475 232.902 372.315 232.707 372.22 232.478C372.126 232.25 372.101 231.999 372.149 231.756C372.197 231.514 372.316 231.291 372.491 231.116C372.666 230.941 372.889 230.822 373.131 230.774C373.374 230.726 373.625 230.751 373.853 230.845C374.082 230.94 374.277 231.1 374.414 231.306C374.552 231.511 374.625 231.753 374.625 232C374.625 232.332 374.493 232.649 374.259 232.884C374.024 233.118 373.707 233.25 373.375 233.25ZM376.5 231.375H375.788C375.644 230.845 375.329 230.378 374.893 230.045C374.457 229.711 373.924 229.531 373.375 229.531C372.826 229.531 372.293 229.711 371.857 230.045C371.421 230.378 371.106 230.845 370.962 231.375H367.037C366.894 230.845 366.579 230.378 366.143 230.045C365.707 229.711 365.174 229.531 364.625 229.531C364.076 229.531 363.543 229.711 363.107 230.045C362.671 230.378 362.356 230.845 362.212 231.375H361.5V227.625H376.5V231.375Z" fill="#292929"/>
<path d="M391.624 233.192C394.024 233.192 395.464 231.88 395.464 229.832C395.464 228.168 394.52 227.208 392.344 226.712L391.432 226.504C390.024 226.184 389.336 225.704 389.336 224.648C389.336 223.448 390.216 222.824 391.64 222.824C392.936 222.824 393.784 223.352 394.392 224.2L395.4 223.464C394.568 222.28 393.384 221.64 391.704 221.64C389.512 221.64 388.008 222.712 388.008 224.696C388.008 226.408 389.128 227.304 391.16 227.768L392.072 227.976C393.544 228.312 394.136 228.84 394.136 229.896C394.136 231.176 393.272 232.008 391.672 232.008C390.376 232.008 389.448 231.448 388.664 230.408L387.672 231.24C388.568 232.456 389.832 233.192 391.624 233.192ZM397.657 233H398.937V227.272C398.937 226.216 399.929 225.704 400.953 225.704C402.185 225.704 402.825 226.456 402.825 227.928V233H404.105V227.704C404.105 225.704 403.033 224.552 401.337 224.552C400.105 224.552 399.401 225.16 399.001 226.088H398.937V221.16H397.657V233ZM411.839 233H413.119V224.744H411.839V230.456C411.839 231.544 410.847 232.04 409.839 232.04C408.607 232.04 407.951 231.288 407.951 229.816V224.744H406.671V230.04C406.671 232.04 407.759 233.192 409.455 233.192C410.831 233.192 411.455 232.44 411.775 231.656H411.839V233ZM419.268 233V231.88H417.588V225.864H419.396V224.744H417.588V222.456H416.436V223.992C416.436 224.552 416.26 224.744 415.716 224.744H414.948V225.864H416.308V231.64C416.308 232.44 416.788 233 417.668 233H419.268ZM424.737 233V231.88H423.057V225.864H424.865V224.744H423.057V222.456H421.905V223.992C421.905 224.552 421.729 224.744 421.185 224.744H420.417V225.864H421.777V231.64C421.777 232.44 422.257 233 423.137 233H424.737ZM429.419 233V231.88H428.203V221.16H426.923V231.672C426.923 232.44 427.403 233 428.283 233H429.419ZM434.386 233.192C435.938 233.192 437.122 232.424 437.65 231.304L436.738 230.648C436.306 231.56 435.506 232.072 434.466 232.072C432.93 232.072 432.018 231 432.018 229.576V229.192H437.954V228.584C437.954 226.248 436.594 224.552 434.386 224.552C432.146 224.552 430.674 226.248 430.674 228.872C430.674 231.496 432.146 233.192 434.386 233.192ZM434.386 225.624C435.698 225.624 436.578 226.6 436.578 228.056V228.232H432.018V228.12C432.018 226.68 432.994 225.624 434.386 225.624Z" fill="#292929"/>
<path d="M377.356 278.219L371.5 275.25V272.75C371.5 272.087 371.237 271.451 370.768 270.982C370.299 270.513 369.663 270.25 369 270.25C368.337 270.25 367.701 270.513 367.232 270.982C366.763 271.451 366.5 272.087 366.5 272.75V275.25L360.644 278.219C360.527 278.265 360.428 278.345 360.358 278.449C360.287 278.552 360.25 278.675 360.25 278.8V281.925C360.25 282.091 360.316 282.25 360.433 282.367C360.55 282.484 360.709 282.55 360.875 282.55C360.937 282.549 360.998 282.538 361.056 282.519L366.5 280.25V283.375L364.344 284.45C364.24 284.502 364.152 284.583 364.092 284.682C364.031 284.782 363.999 284.896 364 285.013V287.125C364 287.291 364.066 287.45 364.183 287.567C364.3 287.684 364.459 287.75 364.625 287.75C364.683 287.759 364.742 287.759 364.8 287.75L369 286.5L373.2 287.75C373.258 287.759 373.317 287.759 373.375 287.75C373.541 287.75 373.7 287.684 373.817 287.567C373.934 287.45 374 287.291 374 287.125V285.013C374.001 284.896 373.969 284.782 373.908 284.682C373.848 284.583 373.76 284.502 373.656 284.45L371.5 283.375V280.25L376.944 282.506C377.002 282.526 377.063 282.536 377.125 282.537C377.291 282.537 377.45 282.472 377.567 282.354C377.684 282.237 377.75 282.078 377.75 281.912V278.787C377.748 278.664 377.709 278.545 377.639 278.444C377.569 278.343 377.471 278.264 377.356 278.219ZM376.5 280.969L370.25 278.375V284.15L372.75 285.4V286.294L369 285.2L365.25 286.294V285.4L367.75 284.15V278.375L361.5 280.969V279.187L367.75 276.019V272.75C367.75 272.418 367.882 272.101 368.116 271.866C368.351 271.632 368.668 271.5 369 271.5C369.332 271.5 369.649 271.632 369.884 271.866C370.118 272.101 370.25 272.418 370.25 272.75V276.019L376.5 279.187V280.969Z" fill="#292929"/>
<path d="M389.832 285V280.232H392.936C394.936 280.232 396.056 279 396.056 277.032C396.056 275.064 394.936 273.832 392.936 273.832H388.488V285H389.832ZM389.832 275.016H392.936C393.992 275.016 394.616 275.592 394.616 276.616V277.448C394.616 278.472 393.992 279.048 392.936 279.048H389.832V275.016ZM400.559 285V283.88H399.343V273.16H398.063V283.672C398.063 284.44 398.543 285 399.423 285H400.559ZM409.142 285V283.88H408.199V279.336C408.199 277.592 407.015 276.552 405.031 276.552C403.543 276.552 402.551 277.288 402.103 278.168L402.871 278.888C403.319 278.136 403.975 277.656 404.967 277.656C406.279 277.656 406.919 278.296 406.919 279.464V280.28H405.286C402.887 280.28 401.767 281.144 401.767 282.696C401.767 284.232 402.791 285.192 404.535 285.192C405.687 285.192 406.567 284.664 406.919 283.656H406.999C407.095 284.424 407.479 285 408.423 285H409.142ZM404.743 284.104C403.751 284.104 403.111 283.64 403.111 282.824V282.488C403.111 281.688 403.767 281.24 405.223 281.24H406.919V282.6C406.919 283.448 406.007 284.104 404.743 284.104ZM412.249 285V279.272C412.249 278.216 413.241 277.704 414.265 277.704C415.497 277.704 416.137 278.456 416.137 279.928V285H417.417V279.704C417.417 277.704 416.345 276.552 414.649 276.552C413.417 276.552 412.713 277.16 412.313 278.088H412.249V276.744H410.969V285H412.249ZM423.167 285.192C424.719 285.192 425.903 284.424 426.431 283.304L425.519 282.648C425.087 283.56 424.287 284.072 423.247 284.072C421.711 284.072 420.799 283 420.799 281.576V281.192H426.735V280.584C426.735 278.248 425.375 276.552 423.167 276.552C420.927 276.552 419.455 278.248 419.455 280.872C419.455 283.496 420.927 285.192 423.167 285.192ZM423.167 277.624C424.479 277.624 425.359 278.6 425.359 280.056V280.232H420.799V280.12C420.799 278.68 421.775 277.624 423.167 277.624Z" fill="#292929"/>
<rect x="343.5" y="95.5" width="230" height="211" rx="3.5" stroke="black" stroke-opacity="0.102" shape-rendering="crispEdges"/>
</g>
<rect x="392" y="56" width="24" height="24" rx="12" fill="#6E04C1"/>
<path d="M407.111 73V72.038H404.771V63.926H403.068L400.663 66.175L401.3 66.864L403.588 64.732H403.679V72.038H401.144V73H407.111Z" fill="white"/>
<line x1="403.5" y1="114" x2="403.5" y2="78" stroke="#8000E4"/>
<rect x="308" y="111" width="24" height="24" rx="12" fill="#6E04C1"/>
<path d="M322.929 127.038H318.158L320.602 124.841C321.759 123.801 322.591 122.813 322.591 121.409C322.591 119.862 321.577 118.77 319.809 118.77C318.054 118.77 317.248 119.836 316.897 120.902L317.872 121.279C318.119 120.421 318.639 119.745 319.757 119.745C320.875 119.745 321.434 120.434 321.434 121.435V121.591C321.434 122.462 320.784 123.372 319.939 124.152L316.975 126.882V128H322.929V127.038Z" fill="white"/>
<line x1="352" y1="123.5" x2="324" y2="123.5" stroke="#8000E4"/>
<rect x="0.5" y="0.5" width="881" height="362" rx="3.5" stroke="#E5E5E5"/>
<defs>
<filter id="filter0_d_4528_120881" x="340" y="92" width="237" height="218" filterUnits="userSpaceOnUse" color-interpolation-filters="sRGB">
<feFlood flood-opacity="0" result="BackgroundImageFix"/>
<feColorMatrix in="SourceAlpha" type="matrix" values="0 0 0 0 0 0 0 0 0 0 0 0 0 0 0 0 0 0 127 0" result="hardAlpha"/>
<feOffset/>
<feGaussianBlur stdDeviation="1.5"/>
<feComposite in2="hardAlpha" operator="out"/>
<feColorMatrix type="matrix" values="0 0 0 0 0 0 0 0 0 0 0 0 0 0 0 0 0 0 0.1 0"/>
<feBlend mode="normal" in2="BackgroundImageFix" result="effect1_dropShadow_4528_120881"/>
<feBlend mode="normal" in="SourceGraphic" in2="effect1_dropShadow_4528_120881" result="shape"/>
</filter>
</defs>
</svg>
