<svg width="882" height="230" viewBox="0 0 882 230" fill="none" xmlns="http://www.w3.org/2000/svg">
<rect x="0.5" y="0.5" width="881" height="229" rx="3.5" fill="#F8F8F8"/>
<g filter="url(#filter0_d_4528_119721)">
<rect x="268.5" y="103.5" width="345" height="62" rx="4" fill="#E9FEDF"/>
<path d="M290.5 114.75C288.769 114.75 287.078 115.263 285.639 116.225C284.2 117.186 283.078 118.553 282.416 120.152C281.754 121.75 281.581 123.51 281.918 125.207C282.256 126.904 283.089 128.463 284.313 129.687C285.537 130.911 287.096 131.744 288.793 132.082C290.49 132.419 292.25 132.246 293.848 131.584C295.447 130.922 296.814 129.8 297.775 128.361C298.737 126.922 299.25 125.231 299.25 123.5C299.25 121.179 298.328 118.954 296.687 117.313C295.046 115.672 292.821 114.75 290.5 114.75V114.75ZM289.25 126.994L286.125 123.869L287.119 122.875L289.25 125.006L293.881 120.375L294.879 121.366L289.25 126.994Z" fill="#067900"/>
<path d="M317.364 120.204V118.332H308.916V120.204H312.084V129.5H314.196V120.204H317.364ZM319.989 119.932C320.821 119.932 321.189 119.5 321.189 118.908V118.588C321.189 117.996 320.821 117.564 319.989 117.564C319.141 117.564 318.789 117.996 318.789 118.588V118.908C318.789 119.5 319.141 119.932 319.989 119.932ZM318.965 129.5H321.013V121.148H318.965V129.5ZM325.995 129.5H327.467V127.868H325.883V122.78H327.595V121.148H325.883V118.86H324.043V120.284C324.043 120.86 323.851 121.148 323.243 121.148H322.603V122.78H323.835V127.372C323.835 128.732 324.587 129.5 325.995 129.5ZM332.524 129.5V127.868H331.42V117.66H329.372V127.484C329.372 128.764 330.028 129.5 331.42 129.5H332.524ZM337.451 129.692C339.003 129.692 340.219 129.1 340.907 128.156L339.803 126.924C339.291 127.58 338.683 128.06 337.675 128.06C336.331 128.06 335.643 127.244 335.643 126.044V125.836H341.195V125.164C341.195 122.876 339.995 120.956 337.387 120.956C334.939 120.956 333.515 122.668 333.515 125.308C333.515 127.98 334.987 129.692 337.451 129.692ZM337.419 122.492C338.475 122.492 339.067 123.276 339.067 124.428V124.572H335.643V124.444C335.643 123.292 336.347 122.492 337.419 122.492Z" fill="#067900"/>
<path d="M309.616 153.5H310.6V146.444H310.66L311.368 147.848L313.372 151.496L315.376 147.848L316.084 146.444H316.144V153.5H317.128V145.124H315.832L313.42 149.636H313.36L310.96 145.124H309.616V153.5ZM321.598 153.644C323.254 153.644 324.394 152.372 324.394 150.404C324.394 148.436 323.254 147.164 321.598 147.164C319.942 147.164 318.802 148.436 318.802 150.404C318.802 152.372 319.942 153.644 321.598 153.644ZM321.598 152.792C320.566 152.792 319.834 152.156 319.834 150.848V149.96C319.834 148.652 320.566 148.016 321.598 148.016C322.63 148.016 323.362 148.652 323.362 149.96V150.848C323.362 152.156 322.63 152.792 321.598 152.792ZM326.933 153.5V149.3C326.933 148.712 327.557 148.268 328.589 148.268H329.153V147.308H328.781C327.773 147.308 327.209 147.86 326.993 148.448H326.933V147.308H325.973V153.5H326.933ZM332.649 153.644C333.813 153.644 334.701 153.068 335.097 152.228L334.413 151.736C334.089 152.42 333.489 152.804 332.709 152.804C331.557 152.804 330.873 152 330.873 150.932V150.644H335.325V150.188C335.325 148.436 334.305 147.164 332.649 147.164C330.969 147.164 329.865 148.436 329.865 150.404C329.865 152.372 330.969 153.644 332.649 153.644ZM332.649 147.968C333.633 147.968 334.293 148.7 334.293 149.792V149.924H330.873V149.84C330.873 148.76 331.605 147.968 332.649 147.968ZM342.311 153.5V152.66H341.051V148.148H342.407V147.308H341.051V145.592H340.187V146.744C340.187 147.164 340.055 147.308 339.647 147.308H339.071V148.148H340.091V152.48C340.091 153.08 340.451 153.5 341.111 153.5H342.311ZM346.231 153.644C347.395 153.644 348.283 153.068 348.679 152.228L347.995 151.736C347.671 152.42 347.071 152.804 346.291 152.804C345.139 152.804 344.455 152 344.455 150.932V150.644H348.907V150.188C348.907 148.436 347.887 147.164 346.231 147.164C344.551 147.164 343.447 148.436 343.447 150.404C343.447 152.372 344.551 153.644 346.231 153.644ZM346.231 147.968C347.215 147.968 347.875 148.7 347.875 149.792V149.924H344.455V149.84C344.455 148.76 345.187 147.968 346.231 147.968ZM349.58 153.5H350.648L352.388 151.076H352.424L354.032 153.5H355.16L352.928 150.308L355.112 147.308H354.044L352.412 149.612H352.376L350.804 147.308H349.676L351.872 150.38L349.58 153.5ZM358.998 153.5V152.66H357.738V148.148H359.094V147.308H357.738V145.592H356.874V146.744C356.874 147.164 356.742 147.308 356.334 147.308H355.758V148.148H356.778V152.48C356.778 153.08 357.138 153.5 357.798 153.5H358.998ZM363.473 153.5H364.433V149.204C364.433 148.412 365.177 148.028 365.945 148.028C366.869 148.028 367.349 148.592 367.349 149.696V153.5H368.309V149.528C368.309 148.028 367.505 147.164 366.233 147.164C365.309 147.164 364.781 147.62 364.481 148.316H364.433V144.62H363.473V153.5ZM372.621 153.644C373.785 153.644 374.673 153.068 375.069 152.228L374.385 151.736C374.061 152.42 373.461 152.804 372.681 152.804C371.529 152.804 370.845 152 370.845 150.932V150.644H375.297V150.188C375.297 148.436 374.277 147.164 372.621 147.164C370.941 147.164 369.837 148.436 369.837 150.404C369.837 152.372 370.941 153.644 372.621 153.644ZM372.621 147.968C373.605 147.968 374.265 148.7 374.265 149.792V149.924H370.845V149.84C370.845 148.76 371.577 147.968 372.621 147.968ZM377.839 153.5V149.3C377.839 148.712 378.463 148.268 379.495 148.268H380.059V147.308H379.687C378.679 147.308 378.115 147.86 377.899 148.448H377.839V147.308H376.879V153.5H377.839ZM383.555 153.644C384.719 153.644 385.607 153.068 386.003 152.228L385.319 151.736C384.995 152.42 384.395 152.804 383.615 152.804C382.463 152.804 381.779 152 381.779 150.932V150.644H386.231V150.188C386.231 148.436 385.211 147.164 383.555 147.164C381.875 147.164 380.771 148.436 380.771 150.404C380.771 152.372 381.875 153.644 383.555 153.644ZM383.555 147.968C384.539 147.968 385.199 148.7 385.199 149.792V149.924H381.779V149.84C381.779 148.76 382.511 147.968 383.555 147.968Z" fill="#067900"/>
<path d="M596.5 117.375L595.625 116.5L591.5 120.625L587.375 116.5L586.5 117.375L590.625 121.5L586.5 125.625L587.375 126.5L591.5 122.375L595.625 126.5L596.5 125.625L592.375 121.5L596.5 117.375Z" fill="#067900"/>
</g>
<rect x="279" y="64.5" width="24" height="24" rx="12" fill="#6E04C1"/>
<path d="M288.144 81.5V80.538H290.679V73.232H290.588L288.3 75.364L287.663 74.675L290.068 72.426H291.771V80.538H294.111V81.5H288.144Z" fill="white"/>
<line x1="291" y1="88.5" x2="291" y2="110.5" stroke="#8000E4"/>
<rect x="318" y="64.5" width="24" height="24" rx="12" fill="#6E04C1"/>
<path d="M332.929 81.5H326.975V80.382L329.939 77.652C330.364 77.262 330.719 76.8503 331.005 76.417C331.291 75.975 331.434 75.533 331.434 75.091V74.935C331.434 74.4323 331.295 74.025 331.018 73.713C330.741 73.401 330.32 73.245 329.757 73.245C329.48 73.245 329.237 73.284 329.029 73.362C328.821 73.44 328.639 73.5483 328.483 73.687C328.336 73.8257 328.21 73.9903 328.106 74.181C328.011 74.363 327.933 74.5623 327.872 74.779L326.897 74.402C326.984 74.1333 327.101 73.8733 327.248 73.622C327.404 73.362 327.595 73.1323 327.82 72.933C328.054 72.7337 328.331 72.5733 328.652 72.452C328.981 72.3307 329.367 72.27 329.809 72.27C330.251 72.27 330.645 72.335 330.992 72.465C331.339 72.595 331.629 72.777 331.863 73.011C332.097 73.245 332.275 73.5223 332.396 73.843C332.526 74.1637 332.591 74.519 332.591 74.909C332.591 75.2643 332.539 75.5937 332.435 75.897C332.34 76.2003 332.205 76.4907 332.032 76.768C331.859 77.0367 331.646 77.301 331.395 77.561C331.152 77.821 330.888 78.081 330.602 78.341L328.158 80.538H332.929V81.5Z" fill="white"/>
<line x1="330" y1="88.5" x2="330" y2="110.5" stroke="#8000E4"/>
<rect x="357" y="64.5" width="24" height="24" rx="12" fill="#6E04C1"/>
<path d="M368.393 76.274C369.008 76.274 369.468 76.1353 369.771 75.858C370.083 75.572 370.239 75.208 370.239 74.766V74.675C370.239 74.1983 370.087 73.843 369.784 73.609C369.489 73.3663 369.099 73.245 368.614 73.245C368.146 73.245 367.765 73.349 367.47 73.557C367.175 73.7563 366.933 74.0293 366.742 74.376L365.936 73.752C366.049 73.57 366.183 73.3923 366.339 73.219C366.504 73.037 366.694 72.8767 366.911 72.738C367.128 72.5993 367.379 72.4867 367.665 72.4C367.951 72.3133 368.276 72.27 368.64 72.27C369.021 72.27 369.381 72.322 369.719 72.426C370.057 72.5213 370.347 72.6687 370.59 72.868C370.841 73.0587 371.036 73.297 371.175 73.583C371.322 73.869 371.396 74.194 371.396 74.558C371.396 74.8527 371.348 75.117 371.253 75.351C371.166 75.585 371.045 75.7887 370.889 75.962C370.733 76.1353 370.547 76.2827 370.33 76.404C370.122 76.5253 369.897 76.6163 369.654 76.677V76.729C369.897 76.781 370.131 76.8677 370.356 76.989C370.59 77.1017 370.794 77.2533 370.967 77.444C371.149 77.626 371.292 77.8513 371.396 78.12C371.509 78.38 371.565 78.679 371.565 79.017C371.565 79.407 371.491 79.7667 371.344 80.096C371.197 80.4167 370.989 80.694 370.72 80.928C370.451 81.1533 370.126 81.331 369.745 81.461C369.364 81.591 368.943 81.656 368.484 81.656C368.094 81.656 367.747 81.6127 367.444 81.526C367.141 81.4393 366.872 81.3223 366.638 81.175C366.404 81.0277 366.196 80.863 366.014 80.681C365.841 80.499 365.685 80.3083 365.546 80.109L366.365 79.485C366.478 79.667 366.599 79.8317 366.729 79.979C366.868 80.1263 367.019 80.252 367.184 80.356C367.349 80.46 367.535 80.5423 367.743 80.603C367.951 80.655 368.194 80.681 368.471 80.681C369.112 80.681 369.598 80.538 369.927 80.252C370.256 79.9573 370.421 79.5413 370.421 79.004V78.9C370.421 78.3627 370.256 77.951 369.927 77.665C369.598 77.3703 369.112 77.223 368.471 77.223H367.405V76.274H368.393Z" fill="white"/>
<line x1="369" y1="88.5" x2="369" y2="139.5" stroke="#8000E4"/>
<rect x="578" y="64.5" width="24" height="24" rx="12" fill="#6E04C1"/>
<path d="M590.875 81.5V79.719H586.494V78.757L590.29 72.426H591.915V78.809H593.228V79.719H591.915V81.5H590.875ZM587.521 78.809H590.875V73.271H590.81L587.521 78.809Z" fill="white"/>
<line x1="590" y1="88.5" x2="590" y2="114.5" stroke="#8000E4"/>
<rect x="0.5" y="0.5" width="881" height="229" rx="3.5" stroke="#E5E5E5"/>
<defs>
<filter id="filter0_d_4528_119721" x="262.5" y="97.5" width="357" height="74" filterUnits="userSpaceOnUse" color-interpolation-filters="sRGB">
<feFlood flood-opacity="0" result="BackgroundImageFix"/>
<feColorMatrix in="SourceAlpha" type="matrix" values="0 0 0 0 0 0 0 0 0 0 0 0 0 0 0 0 0 0 127 0" result="hardAlpha"/>
<feOffset/>
<feGaussianBlur stdDeviation="3"/>
<feComposite in2="hardAlpha" operator="out"/>
<feColorMatrix type="matrix" values="0 0 0 0 0 0 0 0 0 0 0 0 0 0 0 0 0 0 0.1 0"/>
<feBlend mode="normal" in2="BackgroundImageFix" result="effect1_dropShadow_4528_119721"/>
<feBlend mode="normal" in="SourceGraphic" in2="effect1_dropShadow_4528_119721" result="shape"/>
</filter>
</defs>
</svg>
