<svg width="882" height="230" viewBox="0 0 882 230" fill="none" xmlns="http://www.w3.org/2000/svg">
<rect x="0.5" y="0.5" width="881" height="229" rx="3.5" fill="#F8F8F8"/>
<rect x="372" y="109.5" width="138" height="48" rx="4" fill="#292929"/>
<path d="M406.75 133.5C406.754 131.572 406.123 129.697 404.955 128.164C403.786 126.631 402.146 125.526 400.286 125.019C398.426 124.513 396.451 124.633 394.667 125.361C392.882 126.089 391.387 127.385 390.413 129.049C389.439 130.712 389.04 132.65 389.278 134.562C389.516 136.475 390.377 138.256 391.729 139.63C393.08 141.004 394.847 141.895 396.756 142.164C398.664 142.433 400.608 142.066 402.287 141.12L402.36 141.135L402.376 141.066C403.704 140.299 404.808 139.196 405.575 137.868C406.343 136.54 406.748 135.034 406.75 133.5V133.5ZM390.5 133.5C390.502 132.867 390.585 132.237 390.747 131.625H393.399L396.519 134.225L395.325 135.816C395.146 136.057 395.059 136.355 395.08 136.655C395.102 136.954 395.23 137.237 395.441 137.45L396.75 138.759V140.887C395.004 140.591 393.419 139.687 392.276 138.335C391.132 136.983 390.503 135.271 390.5 133.5V133.5ZM396.325 136.566L398.231 134.025L393.851 130.375H391.191C391.647 129.375 392.318 128.487 393.156 127.776C393.994 127.065 394.979 126.547 396.04 126.26C397.101 125.972 398.212 125.923 399.295 126.114C400.377 126.305 401.404 126.733 402.302 127.366L401.925 128.5H398.366L396.464 130.402L402.31 135.598L401.28 140.234C400.26 140.737 399.137 140.999 398 141V138.241L396.325 136.566ZM402.772 139.281L403.53 135.869C403.578 135.652 403.568 135.425 403.499 135.214C403.431 135.002 403.307 134.812 403.14 134.664L398.286 130.348L398.884 129.75H401.925C402.187 129.75 402.443 129.668 402.656 129.514C402.869 129.361 403.028 129.144 403.11 128.895L403.331 128.233C404.064 128.972 404.635 129.856 405.006 130.829C405.378 131.801 405.543 132.841 405.49 133.88C405.438 134.92 405.169 135.938 404.701 136.868C404.233 137.798 403.576 138.62 402.772 139.281H402.772Z" fill="white"/>
<path d="M417.548 139.5H422.988C424.636 139.5 425.868 138.092 425.868 136.284C425.868 134.412 424.444 133.708 423.532 133.676V133.58C424.444 133.5 425.468 132.892 425.468 131.212C425.468 129.468 424.332 128.332 422.492 128.332H417.548V139.5ZM419.356 134.556H422.46C423.388 134.556 423.964 135.068 423.964 135.98V136.524C423.964 137.436 423.388 137.948 422.46 137.948H419.356V134.556ZM419.356 129.884H422.156C423.036 129.884 423.564 130.364 423.564 131.212V131.724C423.564 132.572 423.036 133.052 422.156 133.052H419.356V129.884ZM433.007 139.5H434.751V131.18H433.007V136.748C433.007 137.724 432.127 138.188 431.231 138.188C430.159 138.188 429.631 137.516 429.631 136.252V131.18H427.887V136.476C427.887 138.524 428.895 139.692 430.607 139.692C431.983 139.692 432.639 138.94 432.943 138.124H433.007V139.5ZM441.072 139.5V138.076H439.456V132.604H441.2V131.18H439.456V128.908H437.888V130.364C437.888 130.94 437.696 131.18 437.12 131.18H436.416V132.604H437.712V137.692C437.712 138.828 438.352 139.5 439.552 139.5H441.072ZM446.806 139.5V138.076H445.19V132.604H446.934V131.18H445.19V128.908H443.622V130.364C443.622 130.94 443.43 131.18 442.854 131.18H442.15V132.604H443.446V137.692C443.446 138.828 444.086 139.5 445.286 139.5H446.806ZM452.028 139.692C454.348 139.692 455.852 137.996 455.852 135.34C455.852 132.684 454.348 130.988 452.028 130.988C449.708 130.988 448.204 132.684 448.204 135.34C448.204 137.996 449.708 139.692 452.028 139.692ZM452.028 138.252C450.844 138.252 450.044 137.516 450.044 136.044V134.636C450.044 133.164 450.844 132.428 452.028 132.428C453.212 132.428 454.012 133.164 454.012 134.636V136.044C454.012 137.516 453.212 138.252 452.028 138.252ZM459.539 139.5V133.932C459.539 132.956 460.435 132.492 461.347 132.492C462.419 132.492 462.915 133.148 462.915 134.444V139.5H464.659V134.22C464.659 132.172 463.651 130.988 461.955 130.988C460.675 130.988 459.971 131.66 459.619 132.556H459.539V131.18H457.795V139.5H459.539Z" fill="white"/>
<path d="M484 137.25L477.75 131L478.625 130.125L484 135.5L489.375 130.125L490.25 131L484 137.25Z" fill="white"/>
<rect x="337" y="121.5" width="24" height="24" rx="12" fill="#6E04C1"/>
<path d="M352.111 138.5V137.538H349.771V129.426H348.068L345.663 131.675L346.3 132.364L348.588 130.232H348.679V137.538H346.144V138.5H352.111Z" fill="white"/>
<line x1="360" y1="133" x2="386" y2="133" stroke="#6E04C1"/>
<line x1="372" y1="133" x2="386" y2="133" stroke="#E6DBF3"/>
<rect x="521" y="121.5" width="24" height="24" rx="12" fill="#6E04C1"/>
<path d="M531.405 133.274V134.223H532.471C533.745 134.223 534.421 134.834 534.421 135.9V136.004C534.421 137.07 533.745 137.681 532.471 137.681C531.366 137.681 530.833 137.2 530.365 136.485L529.546 137.109C530.105 137.889 530.911 138.656 532.484 138.656C534.33 138.656 535.565 137.577 535.565 136.017C535.565 134.652 534.629 133.924 533.654 133.729V133.677C534.616 133.43 535.396 132.728 535.396 131.558C535.396 130.089 534.174 129.27 532.64 129.27C531.184 129.27 530.391 130.024 529.936 130.752L530.742 131.376C531.119 130.687 531.678 130.245 532.614 130.245C533.576 130.245 534.239 130.726 534.239 131.675V131.766C534.239 132.637 533.615 133.274 532.393 133.274H531.405Z" fill="white"/>
<line x1="497" y1="133" x2="522" y2="133" stroke="#6E04C1"/>
<rect x="429" y="72.5" width="24" height="24" rx="12" fill="#6E04C1"/>
<path d="M443.929 88.538H439.158L441.602 86.341C442.759 85.301 443.591 84.313 443.591 82.909C443.591 81.362 442.577 80.27 440.809 80.27C439.054 80.27 438.248 81.336 437.897 82.402L438.872 82.779C439.119 81.921 439.639 81.245 440.757 81.245C441.875 81.245 442.434 81.934 442.434 82.935V83.091C442.434 83.962 441.784 84.872 440.939 85.652L437.975 88.382V89.5H443.929V88.538Z" fill="white"/>
<line x1="440.5" y1="120.5" x2="440.5" y2="94.5" stroke="#6E04C1"/>
<rect x="0.5" y="0.5" width="881" height="229" rx="3.5" stroke="#E5E5E5"/>
</svg>
