<svg width="882" height="230" viewBox="0 0 882 230" fill="none" xmlns="http://www.w3.org/2000/svg">
<rect x="0.5" y="0.5" width="881" height="229" rx="3.5" fill="#F8F8F8"/>
<path d="M163.268 90.8784V89.2404H159.418V81.1064H157.57V90.8784H163.268ZM166.606 91.0464C167.698 91.0464 168.496 90.5564 168.734 89.6184H168.818C168.93 90.3744 169.406 90.8784 170.176 90.8784H171.17V89.4504H170.442V86.0064C170.442 84.3404 169.392 83.4024 167.418 83.4024C165.948 83.4024 165.094 83.9624 164.562 84.8024L165.626 85.7544C165.976 85.2504 166.452 84.8304 167.292 84.8304C168.244 84.8304 168.65 85.3064 168.65 86.1184V86.6504H167.404C165.416 86.6504 164.282 87.3924 164.282 88.8904C164.282 90.1924 165.122 91.0464 166.606 91.0464ZM167.208 89.7444C166.508 89.7444 166.102 89.4504 166.102 88.8624V88.6244C166.102 88.0504 166.564 87.7284 167.502 87.7284H168.65V88.6944C168.65 89.3804 168.006 89.7444 167.208 89.7444ZM172.62 90.8784H174.412V89.6604H174.468C174.748 90.4864 175.518 91.0464 176.484 91.0464C178.332 91.0464 179.354 89.6604 179.354 87.2104C179.354 84.7744 178.332 83.4024 176.484 83.4024C175.518 83.4024 174.734 83.9344 174.468 84.7744H174.412V80.5184H172.62V90.8784ZM175.91 89.5624C175.056 89.5624 174.412 89.1284 174.412 88.3724V86.0484C174.412 85.3344 175.056 84.8724 175.91 84.8724C176.834 84.8724 177.478 85.5584 177.478 86.5944V87.8544C177.478 88.8904 176.834 89.5624 175.91 89.5624ZM183.969 91.0464C185.327 91.0464 186.391 90.5284 186.993 89.7024L186.027 88.6244C185.579 89.1984 185.047 89.6184 184.165 89.6184C182.989 89.6184 182.387 88.9044 182.387 87.8544V87.6724H187.245V87.0844C187.245 85.0824 186.195 83.4024 183.913 83.4024C181.771 83.4024 180.525 84.9004 180.525 87.2104C180.525 89.5484 181.813 91.0464 183.969 91.0464ZM183.941 84.7464C184.865 84.7464 185.383 85.4324 185.383 86.4404V86.5664H182.387V86.4544C182.387 85.4464 183.003 84.7464 183.941 84.7464ZM191.58 90.8784V89.4504H190.614V80.5184H188.822V89.1144C188.822 90.2344 189.396 90.8784 190.614 90.8784H191.58Z" fill="#292929"/>
<path d="M406.647 95.0224C408.651 95.0224 409.527 93.4264 409.527 90.6904C409.527 87.9544 408.651 86.3584 406.647 86.3584C404.643 86.3584 403.767 87.9544 403.767 90.6904C403.767 93.4264 404.643 95.0224 406.647 95.0224ZM406.647 94.1464C405.339 94.1464 404.823 92.9944 404.823 91.3744V90.0064C404.823 88.3864 405.339 87.2344 406.647 87.2344C407.955 87.2344 408.471 88.3864 408.471 90.0064V91.3744C408.471 92.9944 407.955 94.1464 406.647 94.1464ZM411.215 96.6904L414.347 85.9984H413.483L410.351 96.6904H411.215ZM421.232 93.9904H416.828L419.084 91.9624C420.152 91.0024 420.92 90.0904 420.92 88.7944C420.92 87.3664 419.984 86.3584 418.352 86.3584C416.732 86.3584 415.988 87.3424 415.664 88.3264L416.564 88.6744C416.792 87.8824 417.272 87.2584 418.304 87.2584C419.336 87.2584 419.852 87.8944 419.852 88.8184V88.9624C419.852 89.7664 419.252 90.6064 418.472 91.3264L415.736 93.8464V94.8784H421.232V93.9904ZM425.632 95.0224C427.636 95.0224 428.512 93.4264 428.512 90.6904C428.512 87.9544 427.636 86.3584 425.632 86.3584C423.628 86.3584 422.752 87.9544 422.752 90.6904C422.752 93.4264 423.628 95.0224 425.632 95.0224ZM425.632 94.1464C424.324 94.1464 423.808 92.9944 423.808 91.3744V90.0064C423.808 88.3864 424.324 87.2344 425.632 87.2344C426.94 87.2344 427.456 88.3864 427.456 90.0064V91.3744C427.456 92.9944 426.94 94.1464 425.632 94.1464ZM432.827 95.0224C434.831 95.0224 435.707 93.4264 435.707 90.6904C435.707 87.9544 434.831 86.3584 432.827 86.3584C430.823 86.3584 429.947 87.9544 429.947 90.6904C429.947 93.4264 430.823 95.0224 432.827 95.0224ZM432.827 94.1464C431.519 94.1464 431.003 92.9944 431.003 91.3744V90.0064C431.003 88.3864 431.519 87.2344 432.827 87.2344C434.135 87.2344 434.651 88.3864 434.651 90.0064V91.3744C434.651 92.9944 434.135 94.1464 432.827 94.1464Z" fill="#292929"/>
<path d="M156.422 107.878C156.422 105.669 158.213 103.878 160.422 103.878H354.422V151.878H160.422C158.213 151.878 156.422 150.088 156.422 147.878V107.878Z" fill="white"/>
<path d="M186.485 120.378C185.235 120.378 184.047 120.878 183.172 121.753L182.422 122.503L181.735 121.816C179.922 119.941 176.922 119.941 175.11 121.753L175.047 121.816C173.172 123.691 173.172 126.691 175.047 128.566L182.422 136.003L189.797 128.566C191.672 126.691 191.672 123.691 189.797 121.816C188.922 120.878 187.735 120.378 186.485 120.378Z" fill="#292929"/>
<path d="M203.254 133.878V129.11H206.358C208.358 129.11 209.478 127.878 209.478 125.91C209.478 123.942 208.358 122.71 206.358 122.71H201.91V133.878H203.254ZM203.254 123.894H206.358C207.414 123.894 208.038 124.47 208.038 125.494V126.326C208.038 127.35 207.414 127.926 206.358 127.926H203.254V123.894ZM213.981 133.878V132.758H212.765V122.038H211.485V132.55C211.485 133.318 211.965 133.878 212.845 133.878H213.981ZM222.565 133.878V132.758H221.621V128.214C221.621 126.47 220.437 125.43 218.453 125.43C216.965 125.43 215.973 126.166 215.525 127.046L216.293 127.766C216.741 127.014 217.397 126.534 218.389 126.534C219.701 126.534 220.341 127.174 220.341 128.342V129.158H218.709C216.309 129.158 215.189 130.022 215.189 131.574C215.189 133.11 216.213 134.07 217.957 134.07C219.109 134.07 219.989 133.542 220.341 132.534H220.421C220.517 133.302 220.901 133.878 221.845 133.878H222.565ZM218.165 132.982C217.173 132.982 216.533 132.518 216.533 131.702V131.366C216.533 130.566 217.189 130.118 218.645 130.118H220.341V131.478C220.341 132.326 219.429 132.982 218.165 132.982ZM227.464 134.07C229.032 134.07 230.104 133.302 230.632 132.118L229.704 131.494C229.256 132.438 228.504 132.934 227.464 132.934C225.944 132.934 225.16 131.894 225.16 130.454V129.046C225.16 127.606 225.944 126.566 227.464 126.566C228.472 126.566 229.176 127.062 229.48 127.91L230.552 127.366C230.072 126.23 229.096 125.43 227.464 125.43C225.144 125.43 223.784 127.11 223.784 129.75C223.784 132.39 225.144 134.07 227.464 134.07ZM235.449 134.07C237.001 134.07 238.185 133.302 238.713 132.182L237.801 131.526C237.369 132.438 236.569 132.95 235.529 132.95C233.993 132.95 233.081 131.878 233.081 130.454V130.07H239.017V129.462C239.017 127.126 237.657 125.43 235.449 125.43C233.209 125.43 231.737 127.126 231.737 129.75C231.737 132.374 233.209 134.07 235.449 134.07ZM235.449 126.502C236.761 126.502 237.641 127.478 237.641 128.934V129.11H233.081V128.998C233.081 127.558 234.057 126.502 235.449 126.502ZM241.126 133.878H242.406V128.15C242.406 127.094 243.398 126.582 244.422 126.582C245.654 126.582 246.294 127.334 246.294 128.806V133.878H247.574V128.582C247.574 126.582 246.502 125.43 244.806 125.43C243.574 125.43 242.87 126.038 242.47 126.966H242.406V122.038H241.126V133.878ZM253.34 134.07C255.548 134.07 257.068 132.374 257.068 129.75C257.068 127.126 255.548 125.43 253.34 125.43C251.132 125.43 249.612 127.126 249.612 129.75C249.612 132.374 251.132 134.07 253.34 134.07ZM253.34 132.934C251.964 132.934 250.988 132.086 250.988 130.342V129.158C250.988 127.414 251.964 126.566 253.34 126.566C254.716 126.566 255.692 127.414 255.692 129.158V130.342C255.692 132.086 254.716 132.934 253.34 132.934ZM261.669 133.878V132.758H260.453V122.038H259.173V132.55C259.173 133.318 259.653 133.878 260.533 133.878H261.669ZM268.812 133.878H270.092V122.038H268.812V126.966H268.748C268.316 125.926 267.468 125.43 266.332 125.43C264.268 125.43 262.972 127.11 262.972 129.75C262.972 132.39 264.268 134.07 266.332 134.07C267.468 134.07 268.252 133.558 268.748 132.534H268.812V133.878ZM266.684 132.918C265.244 132.918 264.348 131.926 264.348 130.454V129.046C264.348 127.574 265.244 126.582 266.684 126.582C267.852 126.582 268.812 127.254 268.812 128.166V131.238C268.812 132.31 267.852 132.918 266.684 132.918ZM275.918 134.07C277.47 134.07 278.654 133.302 279.182 132.182L278.27 131.526C277.838 132.438 277.038 132.95 275.998 132.95C274.462 132.95 273.55 131.878 273.55 130.454V130.07H279.486V129.462C279.486 127.126 278.126 125.43 275.918 125.43C273.678 125.43 272.206 127.126 272.206 129.75C272.206 132.374 273.678 134.07 275.918 134.07ZM275.918 126.502C277.23 126.502 278.11 127.478 278.11 128.934V129.11H273.55V128.998C273.55 127.558 274.526 126.502 275.918 126.502ZM282.875 133.878V128.278C282.875 127.494 283.707 126.902 285.083 126.902H285.835V125.622H285.339C283.995 125.622 283.243 126.358 282.955 127.142H282.875V125.622H281.595V133.878H282.875Z" fill="#BFBFBF"/>
<path d="M333.422 123.753L332.547 122.878L328.422 127.003L324.297 122.878L323.422 123.753L327.547 127.878L323.422 132.003L324.297 132.878L328.422 128.753L332.547 132.878L333.422 132.003L329.297 127.878L333.422 123.753Z" fill="#292929"/>
<path d="M160.422 104.378H353.922V151.378H160.422C158.489 151.378 156.922 149.811 156.922 147.878V107.878C156.922 105.945 158.489 104.378 160.422 104.378Z" stroke="black" stroke-opacity="0.102"/>
<path d="M354.422 103.878H432.422C434.631 103.878 436.422 105.669 436.422 107.878V147.878C436.422 150.088 434.631 151.878 432.422 151.878H354.422V103.878Z" fill="#292929"/>
<path d="M371.97 133.878H377.41C379.058 133.878 380.29 132.47 380.29 130.662C380.29 128.79 378.866 128.086 377.954 128.054V127.958C378.866 127.878 379.89 127.27 379.89 125.59C379.89 123.846 378.754 122.71 376.914 122.71H371.97V133.878ZM373.778 128.934H376.882C377.81 128.934 378.386 129.446 378.386 130.358V130.902C378.386 131.814 377.81 132.326 376.882 132.326H373.778V128.934ZM373.778 124.262H376.578C377.458 124.262 377.986 124.742 377.986 125.59V126.102C377.986 126.95 377.458 127.43 376.578 127.43H373.778V124.262ZM387.429 133.878H389.173V125.558H387.429V131.126C387.429 132.102 386.549 132.566 385.653 132.566C384.581 132.566 384.053 131.894 384.053 130.63V125.558H382.309V130.854C382.309 132.902 383.317 134.07 385.029 134.07C386.405 134.07 387.061 133.318 387.365 132.502H387.429V133.878ZM395.494 133.878V132.454H393.878V126.982H395.622V125.558H393.878V123.286H392.31V124.742C392.31 125.318 392.118 125.558 391.542 125.558H390.838V126.982H392.134V132.07C392.134 133.206 392.774 133.878 393.974 133.878H395.494ZM401.229 133.878V132.454H399.613V126.982H401.357V125.558H399.613V123.286H398.045V124.742C398.045 125.318 397.853 125.558 397.277 125.558H396.573V126.982H397.869V132.07C397.869 133.206 398.509 133.878 399.709 133.878H401.229ZM406.45 134.07C408.77 134.07 410.274 132.374 410.274 129.718C410.274 127.062 408.77 125.366 406.45 125.366C404.13 125.366 402.626 127.062 402.626 129.718C402.626 132.374 404.13 134.07 406.45 134.07ZM406.45 132.63C405.266 132.63 404.466 131.894 404.466 130.422V129.014C404.466 127.542 405.266 126.806 406.45 126.806C407.634 126.806 408.434 127.542 408.434 129.014V130.422C408.434 131.894 407.634 132.63 406.45 132.63ZM413.961 133.878V128.31C413.961 127.334 414.857 126.87 415.769 126.87C416.841 126.87 417.337 127.526 417.337 128.822V133.878H419.081V128.598C419.081 126.55 418.073 125.366 416.377 125.366C415.097 125.366 414.393 126.038 414.041 126.934H413.961V125.558H412.217V133.878H413.961Z" fill="white"/>
<path d="M164.922 172.878V168.878H162.922V169.878H163.922V172.878H162.422V173.878H166.422V172.878H164.922ZM164.422 165.878C164.274 165.878 164.129 165.922 164.006 166.005C163.882 166.087 163.786 166.204 163.729 166.341C163.673 166.478 163.658 166.629 163.687 166.775C163.716 166.92 163.787 167.054 163.892 167.159C163.997 167.264 164.13 167.335 164.276 167.364C164.421 167.393 164.572 167.378 164.709 167.321C164.846 167.265 164.963 167.168 165.046 167.045C165.128 166.922 165.172 166.777 165.172 166.628C165.172 166.43 165.093 166.239 164.953 166.098C164.812 165.957 164.621 165.878 164.422 165.878V165.878Z" fill="#0066CC"/>
<path d="M164.422 176.878C163.038 176.878 161.684 176.468 160.533 175.699C159.382 174.93 158.485 173.836 157.955 172.557C157.425 171.278 157.287 169.871 157.557 168.513C157.827 167.155 158.494 165.908 159.473 164.929C160.452 163.95 161.699 163.283 163.057 163.013C164.415 162.743 165.822 162.881 167.101 163.411C168.38 163.941 169.473 164.838 170.243 165.989C171.012 167.141 171.422 168.494 171.422 169.878C171.422 171.735 170.685 173.515 169.372 174.828C168.059 176.141 166.279 176.878 164.422 176.878ZM164.422 163.878C163.236 163.878 162.076 164.23 161.089 164.89C160.102 165.549 159.333 166.486 158.879 167.582C158.425 168.679 158.306 169.885 158.538 171.049C158.769 172.213 159.341 173.282 160.18 174.121C161.019 174.96 162.088 175.532 163.252 175.763C164.416 175.995 165.622 175.876 166.718 175.422C167.815 174.968 168.752 174.199 169.411 173.212C170.07 172.225 170.422 171.065 170.422 169.878C170.422 168.287 169.79 166.761 168.665 165.636C167.54 164.511 166.014 163.878 164.422 163.878V163.878Z" fill="#0066CC"/>
<path d="M186.782 173.878H187.79V165.502H186.782V169.198H182.546V165.502H181.538V173.878H182.546V170.086H186.782V173.878ZM192.255 174.022C193.419 174.022 194.307 173.446 194.703 172.606L194.019 172.114C193.695 172.798 193.095 173.182 192.315 173.182C191.163 173.182 190.479 172.378 190.479 171.31V171.022H194.931V170.566C194.931 168.814 193.911 167.542 192.255 167.542C190.575 167.542 189.471 168.814 189.471 170.782C189.471 172.75 190.575 174.022 192.255 174.022ZM192.255 168.346C193.239 168.346 193.899 169.078 193.899 170.17V170.302H190.479V170.218C190.479 169.138 191.211 168.346 192.255 168.346ZM198.385 173.878V173.038H197.473V164.998H196.513V172.882C196.513 173.458 196.873 173.878 197.533 173.878H198.385ZM199.782 176.278H200.742V172.87H200.79C201.162 173.638 201.75 174.022 202.602 174.022C204.15 174.022 205.122 172.762 205.122 170.782C205.122 168.802 204.15 167.542 202.602 167.542C201.75 167.542 201.114 167.914 200.79 168.694H200.742V167.686H199.782V176.278ZM202.338 173.158C201.462 173.158 200.742 172.702 200.742 171.898V169.594C200.742 168.91 201.462 168.406 202.338 168.406C203.418 168.406 204.09 169.15 204.09 170.254V171.31C204.09 172.414 203.418 173.158 202.338 173.158ZM209.071 174.022C210.235 174.022 211.123 173.446 211.519 172.606L210.835 172.114C210.511 172.798 209.911 173.182 209.131 173.182C207.979 173.182 207.295 172.378 207.295 171.31V171.022H211.747V170.566C211.747 168.814 210.727 167.542 209.071 167.542C207.391 167.542 206.287 168.814 206.287 170.782C206.287 172.75 207.391 174.022 209.071 174.022ZM209.071 168.346C210.055 168.346 210.715 169.078 210.715 170.17V170.302H207.295V170.218C207.295 169.138 208.027 168.346 209.071 168.346ZM214.289 173.878V169.678C214.289 169.09 214.913 168.646 215.945 168.646H216.509V167.686H216.137C215.129 167.686 214.565 168.238 214.349 168.826H214.289V167.686H213.329V173.878H214.289ZM223.139 173.878V173.038H221.879V168.526H223.235V167.686H221.879V165.97H221.015V167.122C221.015 167.542 220.883 167.686 220.475 167.686H219.899V168.526H220.919V172.858C220.919 173.458 221.279 173.878 221.939 173.878H223.139ZM227.059 174.022C228.223 174.022 229.111 173.446 229.507 172.606L228.823 172.114C228.499 172.798 227.899 173.182 227.119 173.182C225.967 173.182 225.283 172.378 225.283 171.31V171.022H229.735V170.566C229.735 168.814 228.715 167.542 227.059 167.542C225.379 167.542 224.275 168.814 224.275 170.782C224.275 172.75 225.379 174.022 227.059 174.022ZM227.059 168.346C228.043 168.346 228.703 169.078 228.703 170.17V170.302H225.283V170.218C225.283 169.138 226.015 168.346 227.059 168.346ZM230.409 173.878H231.477L233.217 171.454H233.253L234.861 173.878H235.989L233.757 170.686L235.941 167.686H234.873L233.241 169.99H233.205L231.633 167.686H230.505L232.701 170.758L230.409 173.878ZM239.827 173.878V173.038H238.567V168.526H239.923V167.686H238.567V165.97H237.703V167.122C237.703 167.542 237.571 167.686 237.163 167.686H236.587V168.526H237.607V172.858C237.607 173.458 237.967 173.878 238.627 173.878H239.827ZM246.606 174.022C247.782 174.022 248.586 173.446 248.982 172.558L248.286 172.09C247.95 172.798 247.386 173.17 246.606 173.17C245.466 173.17 244.878 172.39 244.878 171.31V170.254C244.878 169.174 245.466 168.394 246.606 168.394C247.362 168.394 247.89 168.766 248.118 169.402L248.922 168.994C248.562 168.142 247.83 167.542 246.606 167.542C244.866 167.542 243.846 168.802 243.846 170.782C243.846 172.762 244.866 174.022 246.606 174.022ZM255.377 173.878V173.038H254.669V169.63C254.669 168.322 253.781 167.542 252.293 167.542C251.177 167.542 250.433 168.094 250.097 168.754L250.673 169.294C251.009 168.73 251.501 168.37 252.245 168.37C253.229 168.37 253.709 168.85 253.709 169.726V170.338H252.485C250.685 170.338 249.845 170.986 249.845 172.15C249.845 173.302 250.613 174.022 251.921 174.022C252.785 174.022 253.445 173.626 253.709 172.87H253.769C253.841 173.446 254.129 173.878 254.837 173.878H255.377ZM252.077 173.206C251.333 173.206 250.853 172.858 250.853 172.246V171.994C250.853 171.394 251.345 171.058 252.437 171.058H253.709V172.078C253.709 172.714 253.025 173.206 252.077 173.206ZM257.707 173.878V169.582C257.707 168.79 258.451 168.406 259.219 168.406C260.143 168.406 260.623 168.97 260.623 170.074V173.878H261.583V169.906C261.583 168.406 260.779 167.542 259.507 167.542C258.583 167.542 258.055 167.998 257.755 168.694H257.707V167.686H256.747V173.878H257.707ZM271.623 174.562C271.623 173.542 270.963 172.918 269.427 172.918H268.107C267.543 172.918 267.159 172.822 267.159 172.45C267.159 172.066 267.567 171.862 267.975 171.754C268.155 171.79 268.371 171.814 268.575 171.814C269.991 171.814 270.915 170.938 270.915 169.678C270.915 169.018 270.651 168.466 270.207 168.082V167.686H271.383V166.846H270.459C269.943 166.846 269.739 167.194 269.739 167.674V167.782C269.403 167.626 269.007 167.542 268.563 167.542C267.159 167.542 266.235 168.418 266.235 169.678C266.235 170.542 266.667 171.226 267.399 171.574V171.622C266.775 171.778 266.331 172.078 266.331 172.702C266.331 173.122 266.535 173.398 266.883 173.566V173.698C266.271 173.866 265.899 174.226 265.899 174.898C265.899 175.87 266.691 176.422 268.623 176.422C270.615 176.422 271.623 175.834 271.623 174.562ZM270.723 174.634C270.723 175.306 270.099 175.642 269.031 175.642H268.143C267.171 175.642 266.799 175.198 266.799 174.658C266.799 174.274 266.979 173.998 267.375 173.818H269.439C270.399 173.818 270.723 174.142 270.723 174.634ZM268.575 171.046C267.759 171.046 267.243 170.662 267.243 169.846V169.51C267.243 168.694 267.759 168.31 268.575 168.31C269.391 168.31 269.907 168.694 269.907 169.51V169.846C269.907 170.662 269.391 171.046 268.575 171.046ZM275.013 174.022C276.669 174.022 277.809 172.75 277.809 170.782C277.809 168.814 276.669 167.542 275.013 167.542C273.357 167.542 272.217 168.814 272.217 170.782C272.217 172.75 273.357 174.022 275.013 174.022ZM275.013 173.17C273.981 173.17 273.249 172.534 273.249 171.226V170.338C273.249 169.03 273.981 168.394 275.013 168.394C276.045 168.394 276.777 169.03 276.777 170.338V171.226C276.777 172.534 276.045 173.17 275.013 173.17ZM282.224 173.878H283.184V169.582C283.184 168.79 283.928 168.406 284.696 168.406C285.62 168.406 286.1 168.97 286.1 170.074V173.878H287.06V169.906C287.06 168.406 286.256 167.542 284.984 167.542C284.06 167.542 283.532 167.998 283.232 168.694H283.184V164.998H282.224V173.878ZM291.372 174.022C292.536 174.022 293.424 173.446 293.82 172.606L293.136 172.114C292.812 172.798 292.212 173.182 291.432 173.182C290.28 173.182 289.596 172.378 289.596 171.31V171.022H294.048V170.566C294.048 168.814 293.028 167.542 291.372 167.542C289.692 167.542 288.588 168.814 288.588 170.782C288.588 172.75 289.692 174.022 291.372 174.022ZM291.372 168.346C292.356 168.346 293.016 169.078 293.016 170.17V170.302H289.596V170.218C289.596 169.138 290.328 168.346 291.372 168.346ZM296.59 173.878V169.678C296.59 169.09 297.214 168.646 298.246 168.646H298.81V167.686H298.438C297.43 167.686 296.866 168.238 296.65 168.826H296.59V167.686H295.63V173.878H296.59ZM302.305 174.022C303.469 174.022 304.357 173.446 304.753 172.606L304.069 172.114C303.745 172.798 303.145 173.182 302.365 173.182C301.213 173.182 300.529 172.378 300.529 171.31V171.022H304.981V170.566C304.981 168.814 303.961 167.542 302.305 167.542C300.625 167.542 299.521 168.814 299.521 170.782C299.521 172.75 300.625 174.022 302.305 174.022ZM302.305 168.346C303.289 168.346 303.949 169.078 303.949 170.17V170.302H300.529V170.218C300.529 169.138 301.261 168.346 302.305 168.346ZM306.941 174.022C307.445 174.022 307.673 173.734 307.673 173.326V173.17C307.673 172.762 307.445 172.474 306.941 172.474C306.437 172.474 306.209 172.762 306.209 173.17V173.326C306.209 173.734 306.437 174.022 306.941 174.022Z" fill="#292929"/>
<rect x="161.5" y="47.5" width="24" height="24" rx="12" fill="#6E04C1"/>
<path d="M176.611 64V63.038H174.271V54.926H172.568L170.163 57.175L170.8 57.864L173.088 55.732H173.179V63.038H170.644V64H176.611Z" fill="white"/>
<path d="M173.5 71.5L173.5 77.5" stroke="#6E04C1" stroke-width="0.5"/>
<rect x="316.5" y="47.5" width="24" height="24" rx="12" fill="#6E04C1"/>
<path d="M326.905 58.774V59.723H327.971C329.245 59.723 329.921 60.334 329.921 61.4V61.504C329.921 62.57 329.245 63.181 327.971 63.181C326.866 63.181 326.333 62.7 325.865 61.985L325.046 62.609C325.605 63.389 326.411 64.156 327.984 64.156C329.83 64.156 331.065 63.077 331.065 61.517C331.065 60.152 330.129 59.424 329.154 59.229V59.177C330.116 58.93 330.896 58.228 330.896 57.058C330.896 55.589 329.674 54.77 328.14 54.77C326.684 54.77 325.891 55.524 325.436 56.252L326.242 56.876C326.619 56.187 327.178 55.745 328.114 55.745C329.076 55.745 329.739 56.226 329.739 57.175V57.266C329.739 58.137 329.115 58.774 327.893 58.774H326.905Z" fill="white"/>
<path d="M328.5 70.5L328.5 119.5" stroke="#6E04C1" stroke-width="0.5"/>
<rect x="404.5" y="47.5" width="24" height="24" rx="12" fill="#6E04C1"/>
<path d="M418.415 64V62.219H419.728V61.309H418.415V54.926H416.79L412.994 61.257V62.219H417.375V64H418.415ZM417.31 55.771H417.375V61.309H414.021L417.31 55.771Z" fill="white"/>
<path d="M416.5 70.5L416.5 80.5" stroke="#6E04C1" stroke-width="0.5"/>
<rect x="119.5" y="114.5" width="24" height="24" rx="12" fill="#6E04C1"/>
<path d="M133.974 121.926H129.112L128.787 126.918L129.71 127.048C130.087 126.632 130.503 126.281 131.335 126.281C132.57 126.281 133.233 126.97 133.233 128.166V128.296C133.233 129.492 132.57 130.181 131.335 130.181C130.243 130.181 129.788 129.7 129.32 128.985L128.501 129.609C129.047 130.389 129.827 131.156 131.335 131.156C133.246 131.156 134.39 129.921 134.39 128.153C134.39 126.398 133.246 125.345 131.686 125.345C130.737 125.345 130.256 125.735 129.827 126.346H129.736L129.996 122.888H133.974V121.926Z" fill="white"/>
<path d="M142.5 126.5H169.5" stroke="#6E04C1" stroke-width="0.5"/>
<rect x="119.5" y="158.5" width="24" height="24" rx="12" fill="#6E04C1"/>
<path d="M131.413 175.156C133.233 175.156 134.429 173.934 134.429 172.153C134.429 170.437 133.311 169.358 131.751 169.358C130.646 169.358 129.996 169.917 129.567 170.658L129.502 170.632C129.996 168.526 131.075 167.343 133.012 165.926H131.608C130.152 166.875 128.371 168.981 128.371 171.672C128.371 173.83 129.528 175.156 131.413 175.156ZM131.4 174.207C130.204 174.207 129.502 173.518 129.502 172.296V172.192C129.502 170.97 130.204 170.281 131.4 170.281C132.596 170.281 133.298 170.97 133.298 172.192V172.296C133.298 173.518 132.596 174.207 131.4 174.207Z" fill="white"/>
<path d="M142.5 170.5H155.5" stroke="#6E04C1" stroke-width="0.5"/>
<rect x="212.5" y="47.5" width="24" height="24" rx="12" fill="#6E04C1"/>
<path d="M227.429 63.038H222.658L225.102 60.841C226.259 59.801 227.091 58.813 227.091 57.409C227.091 55.862 226.077 54.77 224.309 54.77C222.554 54.77 221.748 55.836 221.397 56.902L222.372 57.279C222.619 56.421 223.139 55.745 224.257 55.745C225.375 55.745 225.934 56.434 225.934 57.435V57.591C225.934 58.462 225.284 59.372 224.439 60.152L221.475 62.882V64H227.429V63.038Z" fill="white"/>
<path d="M224.5 71.5L224.5 116.5" stroke="#6E04C1" stroke-width="0.5"/>
<rect x="445.5" y="116.5" width="24" height="24" rx="12" fill="#6E04C1"/>
<path d="M456.945 133L460.351 124.888V123.926H454.397V126.552H455.372V124.862H459.246L455.775 133H456.945Z" fill="white"/>
<path d="M446.5 128.5L436.5 128.5" stroke="#6E04C1" stroke-width="0.5"/>
<rect x="543.5" y="93.5" width="218" height="46" rx="3" fill="white"/>
<path d="M559.988 122.5H563.732C566.516 122.5 568.308 120.644 568.308 116.916C568.308 113.188 566.516 111.332 563.732 111.332H559.988V122.5ZM561.332 121.316V112.516H563.732C565.572 112.516 566.868 113.796 566.868 116.004V117.828C566.868 120.036 565.572 121.316 563.732 121.316H561.332ZM573.698 122.692C575.25 122.692 576.434 121.924 576.962 120.804L576.05 120.148C575.618 121.06 574.818 121.572 573.778 121.572C572.242 121.572 571.33 120.5 571.33 119.076V118.692H577.266V118.084C577.266 115.748 575.906 114.052 573.698 114.052C571.458 114.052 569.986 115.748 569.986 118.372C569.986 120.996 571.458 122.692 573.698 122.692ZM573.698 115.124C575.01 115.124 575.89 116.1 575.89 117.556V117.732H571.33V117.62C571.33 116.18 572.306 115.124 573.698 115.124ZM582.448 122.692C584.016 122.692 585.088 121.924 585.616 120.74L584.688 120.116C584.24 121.06 583.488 121.556 582.448 121.556C580.928 121.556 580.144 120.516 580.144 119.076V117.668C580.144 116.228 580.928 115.188 582.448 115.188C583.456 115.188 584.16 115.684 584.464 116.532L585.536 115.988C585.056 114.852 584.08 114.052 582.448 114.052C580.128 114.052 578.768 115.732 578.768 118.372C578.768 121.012 580.128 122.692 582.448 122.692ZM587.423 122.5H588.703V119.556L589.935 118.292L592.671 122.5H594.223L590.863 117.508L593.919 114.244H592.367L590.031 116.756L588.767 118.164H588.703V110.66H587.423V122.5ZM602.502 122.5V121.38H601.558V116.836C601.558 115.092 600.374 114.052 598.39 114.052C596.902 114.052 595.91 114.788 595.462 115.668L596.23 116.388C596.678 115.636 597.334 115.156 598.326 115.156C599.638 115.156 600.278 115.796 600.278 116.964V117.78H598.646C596.246 117.78 595.126 118.644 595.126 120.196C595.126 121.732 596.15 122.692 597.894 122.692C599.046 122.692 599.926 122.164 600.278 121.156H600.358C600.454 121.924 600.838 122.5 601.782 122.5H602.502ZM598.102 121.604C597.11 121.604 596.47 121.14 596.47 120.324V119.988C596.47 119.188 597.126 118.74 598.582 118.74H600.278V120.1C600.278 120.948 599.366 121.604 598.102 121.604ZM605.609 122.5V116.9C605.609 116.116 606.441 115.524 607.817 115.524H608.569V114.244H608.073C606.729 114.244 605.977 114.98 605.689 115.764H605.609V114.244H604.329V122.5H605.609ZM615.39 122.5H616.67V110.66H615.39V115.588H615.326C614.894 114.548 614.046 114.052 612.91 114.052C610.846 114.052 609.55 115.732 609.55 118.372C609.55 121.012 610.846 122.692 612.91 122.692C614.046 122.692 614.83 122.18 615.326 121.156H615.39V122.5ZM613.262 121.54C611.822 121.54 610.926 120.548 610.926 119.076V117.668C610.926 116.196 611.822 115.204 613.262 115.204C614.43 115.204 615.39 115.876 615.39 116.788V119.86C615.39 120.932 614.43 121.54 613.262 121.54ZM627.237 122.692C629.093 122.692 630.453 121.716 631.157 120.148L630.085 119.476C629.637 120.692 628.661 121.492 627.237 121.492C625.317 121.492 624.181 120.1 624.181 117.812V116.148C624.181 113.86 625.317 112.34 627.237 112.34C628.613 112.34 629.541 113.092 629.989 114.244L631.077 113.588C630.373 112.036 629.093 111.14 627.237 111.14C624.421 111.14 622.741 113.252 622.741 116.98C622.741 120.708 624.421 122.692 627.237 122.692ZM639.83 122.5V121.38H638.886V116.836C638.886 115.092 637.702 114.052 635.718 114.052C634.23 114.052 633.238 114.788 632.79 115.668L633.558 116.388C634.006 115.636 634.662 115.156 635.654 115.156C636.966 115.156 637.606 115.796 637.606 116.964V117.78H635.974C633.574 117.78 632.454 118.644 632.454 120.196C632.454 121.732 633.478 122.692 635.222 122.692C636.374 122.692 637.254 122.164 637.606 121.156H637.686C637.782 121.924 638.166 122.5 639.11 122.5H639.83ZM635.43 121.604C634.438 121.604 633.798 121.14 633.798 120.324V119.988C633.798 119.188 634.454 118.74 635.91 118.74H637.606V120.1C637.606 120.948 636.694 121.604 635.43 121.604ZM642.297 112.308C642.841 112.308 643.081 112.02 643.081 111.588V111.38C643.081 110.948 642.841 110.66 642.297 110.66C641.753 110.66 641.513 110.948 641.513 111.38V111.588C641.513 112.02 641.753 112.308 642.297 112.308ZM641.657 122.5H642.937V114.244H641.657V122.5ZM646.937 122.5V116.772C646.937 115.716 647.929 115.204 648.953 115.204C650.185 115.204 650.825 115.956 650.825 117.428V122.5H652.105V117.204C652.105 115.204 651.033 114.052 649.337 114.052C648.105 114.052 647.401 114.66 647.001 115.588H646.937V114.244H645.657V122.5H646.937Z" fill="#292929"/>
<rect x="543.5" y="93.5" width="218" height="46" rx="3" stroke="#CC0000" stroke-width="2"/>
<rect x="542.5" y="148.5" width="220" height="34" rx="4" fill="#FEDFDF"/>
<path d="M562.501 161.586H562.499L556.824 172.499L556.825 172.5H568.175L568.176 172.499L562.501 161.586ZM561.937 164.5H563.062V169H561.937V164.5ZM562.5 171.5C562.352 171.5 562.207 171.456 562.083 171.374C561.96 171.291 561.864 171.174 561.807 171.037C561.75 170.9 561.735 170.749 561.764 170.604C561.793 170.458 561.865 170.325 561.97 170.22C562.075 170.115 562.208 170.044 562.354 170.015C562.499 169.986 562.65 170.001 562.787 170.057C562.924 170.114 563.041 170.21 563.124 170.334C563.206 170.457 563.25 170.602 563.25 170.75C563.25 170.949 563.171 171.14 563.03 171.281C562.89 171.421 562.699 171.5 562.5 171.5Z" fill="#CC0000"/>
<path d="M569 173.5H556C555.914 173.5 555.83 173.478 555.755 173.436C555.68 173.394 555.617 173.333 555.573 173.259C555.528 173.186 555.503 173.102 555.5 173.017C555.497 172.931 555.517 172.846 555.556 172.769L562.056 160.269C562.099 160.188 562.162 160.12 562.241 160.073C562.319 160.025 562.408 160 562.5 160C562.592 160 562.681 160.025 562.759 160.073C562.838 160.12 562.901 160.188 562.944 160.269L569.444 172.769C569.483 172.846 569.503 172.931 569.5 173.017C569.497 173.102 569.472 173.186 569.427 173.259C569.383 173.333 569.32 173.394 569.245 173.436C569.17 173.478 569.086 173.5 569 173.5V173.5ZM556.825 172.5H568.175L568.176 172.498L562.501 161.586H562.499L556.824 172.498L556.825 172.5Z" fill="#CC0000"/>
<path d="M584.728 170.5V169.612H580.624V166.708H584.488V165.82H580.624V163.012H584.728V162.124H579.616V170.5H584.728ZM587.476 170.5V166.3C587.476 165.712 588.1 165.268 589.132 165.268H589.696V164.308H589.324C588.316 164.308 587.752 164.86 587.536 165.448H587.476V164.308H586.516V170.5H587.476ZM591.882 170.5V166.3C591.882 165.712 592.506 165.268 593.538 165.268H594.102V164.308H593.73C592.722 164.308 592.158 164.86 591.942 165.448H591.882V164.308H590.922V170.5H591.882ZM597.61 170.644C599.266 170.644 600.406 169.372 600.406 167.404C600.406 165.436 599.266 164.164 597.61 164.164C595.954 164.164 594.814 165.436 594.814 167.404C594.814 169.372 595.954 170.644 597.61 170.644ZM597.61 169.792C596.578 169.792 595.846 169.156 595.846 167.848V166.96C595.846 165.652 596.578 165.016 597.61 165.016C598.642 165.016 599.374 165.652 599.374 166.96V167.848C599.374 169.156 598.642 169.792 597.61 169.792ZM602.945 170.5V166.3C602.945 165.712 603.569 165.268 604.601 165.268H605.165V164.308H604.793C603.785 164.308 603.221 164.86 603.005 165.448H602.945V164.308H601.985V170.5H602.945ZM611.795 170.5V169.66H610.535V165.148H611.891V164.308H610.535V162.592H609.671V163.744C609.671 164.164 609.539 164.308 609.131 164.308H608.555V165.148H609.575V169.48C609.575 170.08 609.935 170.5 610.595 170.5H611.795ZM615.715 170.644C616.879 170.644 617.767 170.068 618.163 169.228L617.479 168.736C617.155 169.42 616.555 169.804 615.775 169.804C614.623 169.804 613.939 169 613.939 167.932V167.644H618.391V167.188C618.391 165.436 617.371 164.164 615.715 164.164C614.035 164.164 612.931 165.436 612.931 167.404C612.931 169.372 614.035 170.644 615.715 170.644ZM615.715 164.968C616.699 164.968 617.359 165.7 617.359 166.792V166.924H613.939V166.84C613.939 165.76 614.671 164.968 615.715 164.968ZM619.065 170.5H620.133L621.873 168.076H621.909L623.517 170.5H624.645L622.413 167.308L624.597 164.308H623.529L621.896 166.612H621.861L620.289 164.308H619.161L621.357 167.38L619.065 170.5ZM628.483 170.5V169.66H627.223V165.148H628.579V164.308H627.223V162.592H626.359V163.744C626.359 164.164 626.227 164.308 625.819 164.308H625.243V165.148H626.263V169.48C626.263 170.08 626.623 170.5 627.283 170.5H628.483ZM635.262 170.644C636.438 170.644 637.242 170.068 637.638 169.18L636.942 168.712C636.606 169.42 636.042 169.792 635.262 169.792C634.122 169.792 633.534 169.012 633.534 167.932V166.876C633.534 165.796 634.122 165.016 635.262 165.016C636.018 165.016 636.546 165.388 636.774 166.024L637.578 165.616C637.218 164.764 636.486 164.164 635.262 164.164C633.521 164.164 632.502 165.424 632.502 167.404C632.502 169.384 633.521 170.644 635.262 170.644ZM644.033 170.5V169.66H643.325V166.252C643.325 164.944 642.437 164.164 640.949 164.164C639.833 164.164 639.089 164.716 638.753 165.376L639.329 165.916C639.665 165.352 640.157 164.992 640.901 164.992C641.885 164.992 642.365 165.472 642.365 166.348V166.96H641.141C639.341 166.96 638.501 167.608 638.501 168.772C638.501 169.924 639.269 170.644 640.577 170.644C641.441 170.644 642.101 170.248 642.365 169.492H642.425C642.497 170.068 642.785 170.5 643.493 170.5H644.033ZM640.733 169.828C639.989 169.828 639.509 169.48 639.509 168.868V168.616C639.509 168.016 640.001 167.68 641.093 167.68H642.365V168.7C642.365 169.336 641.681 169.828 640.733 169.828ZM646.363 170.5V166.204C646.363 165.412 647.107 165.028 647.875 165.028C648.799 165.028 649.279 165.592 649.279 166.696V170.5H650.239V166.528C650.239 165.028 649.435 164.164 648.163 164.164C647.239 164.164 646.711 164.62 646.411 165.316H646.363V164.308H645.403V170.5H646.363ZM660.279 171.184C660.279 170.164 659.619 169.54 658.083 169.54H656.763C656.199 169.54 655.815 169.444 655.815 169.072C655.815 168.688 656.223 168.484 656.631 168.376C656.811 168.412 657.027 168.436 657.231 168.436C658.647 168.436 659.571 167.56 659.571 166.3C659.571 165.64 659.307 165.088 658.863 164.704V164.308H660.039V163.468H659.115C658.599 163.468 658.395 163.816 658.395 164.296V164.404C658.059 164.248 657.663 164.164 657.219 164.164C655.815 164.164 654.891 165.04 654.891 166.3C654.891 167.164 655.323 167.848 656.055 168.196V168.244C655.431 168.4 654.987 168.7 654.987 169.324C654.987 169.744 655.191 170.02 655.539 170.188V170.32C654.927 170.488 654.555 170.848 654.555 171.52C654.555 172.492 655.347 173.044 657.279 173.044C659.271 173.044 660.279 172.456 660.279 171.184ZM659.379 171.256C659.379 171.928 658.755 172.264 657.687 172.264H656.799C655.827 172.264 655.455 171.82 655.455 171.28C655.455 170.896 655.635 170.62 656.031 170.44H658.095C659.055 170.44 659.379 170.764 659.379 171.256ZM657.231 167.668C656.415 167.668 655.899 167.284 655.899 166.468V166.132C655.899 165.316 656.415 164.932 657.231 164.932C658.047 164.932 658.563 165.316 658.563 166.132V166.468C658.563 167.284 658.047 167.668 657.231 167.668ZM663.669 170.644C665.325 170.644 666.465 169.372 666.465 167.404C666.465 165.436 665.325 164.164 663.669 164.164C662.013 164.164 660.873 165.436 660.873 167.404C660.873 169.372 662.013 170.644 663.669 170.644ZM663.669 169.792C662.637 169.792 661.905 169.156 661.905 167.848V166.96C661.905 165.652 662.637 165.016 663.669 165.016C664.701 165.016 665.433 165.652 665.433 166.96V167.848C665.433 169.156 664.701 169.792 663.669 169.792ZM670.879 170.5H671.839V166.204C671.839 165.412 672.583 165.028 673.351 165.028C674.275 165.028 674.755 165.592 674.755 166.696V170.5H675.715V166.528C675.715 165.028 674.911 164.164 673.639 164.164C672.715 164.164 672.187 164.62 671.887 165.316H671.839V161.62H670.879V170.5ZM680.028 170.644C681.192 170.644 682.08 170.068 682.476 169.228L681.792 168.736C681.468 169.42 680.868 169.804 680.088 169.804C678.936 169.804 678.252 169 678.252 167.932V167.644H682.704V167.188C682.704 165.436 681.684 164.164 680.028 164.164C678.348 164.164 677.244 165.436 677.244 167.404C677.244 169.372 678.348 170.644 680.028 170.644ZM680.028 164.968C681.012 164.968 681.672 165.7 681.672 166.792V166.924H678.252V166.84C678.252 165.76 678.984 164.968 680.028 164.968ZM685.246 170.5V166.3C685.246 165.712 685.87 165.268 686.902 165.268H687.466V164.308H687.094C686.086 164.308 685.522 164.86 685.306 165.448H685.246V164.308H684.286V170.5H685.246ZM690.961 170.644C692.125 170.644 693.013 170.068 693.409 169.228L692.725 168.736C692.401 169.42 691.801 169.804 691.021 169.804C689.869 169.804 689.185 169 689.185 167.932V167.644H693.637V167.188C693.637 165.436 692.617 164.164 690.961 164.164C689.281 164.164 688.177 165.436 688.177 167.404C688.177 169.372 689.281 170.644 690.961 170.644ZM690.961 164.968C691.945 164.968 692.605 165.7 692.605 166.792V166.924H689.185V166.84C689.185 165.76 689.917 164.968 690.961 164.968ZM695.597 170.644C696.101 170.644 696.329 170.356 696.329 169.948V169.792C696.329 169.384 696.101 169.096 695.597 169.096C695.093 169.096 694.865 169.384 694.865 169.792V169.948C694.865 170.356 695.093 170.644 695.597 170.644Z" fill="#CC0000"/>
<rect x="506.5" y="153.5" width="24" height="24" rx="12" fill="#6E04C1"/>
<path d="M521.429 164.254C521.429 162.096 520.272 160.77 518.387 160.77C516.567 160.77 515.371 161.992 515.371 163.773C515.371 165.489 516.489 166.568 518.049 166.568C519.154 166.568 519.804 166.009 520.233 165.268L520.298 165.294C519.804 167.4 518.725 168.583 516.788 170H518.192C519.648 169.051 521.429 166.945 521.429 164.254ZM518.4 165.645C517.204 165.645 516.502 164.956 516.502 163.734V163.63C516.502 162.408 517.204 161.719 518.4 161.719C519.596 161.719 520.298 162.408 520.298 163.63V163.734C520.298 164.956 519.596 165.645 518.4 165.645Z" fill="white"/>
<line x1="530.141" y1="165.607" x2="542.568" y2="165.607" stroke="#8000E4" stroke-width="0.776699"/>
<rect x="561.5" y="47.5" width="24" height="24" rx="12" fill="#6E04C1"/>
<path d="M573.4 64.156C575.467 64.156 576.546 63.025 576.546 61.53C576.546 60.295 575.805 59.58 574.713 59.281V59.177C575.662 58.852 576.273 58.085 576.273 57.045C576.273 55.667 575.207 54.77 573.4 54.77C571.593 54.77 570.527 55.667 570.527 57.045C570.527 58.085 571.138 58.852 572.087 59.177V59.281C570.995 59.58 570.254 60.295 570.254 61.53C570.254 63.025 571.333 64.156 573.4 64.156ZM573.4 63.207C572.139 63.207 571.411 62.609 571.411 61.582V61.309C571.411 60.282 572.139 59.684 573.4 59.684C574.661 59.684 575.389 60.282 575.389 61.309V61.582C575.389 62.609 574.661 63.207 573.4 63.207ZM573.4 58.774C572.269 58.774 571.658 58.267 571.658 57.344V57.149C571.658 56.226 572.269 55.719 573.4 55.719C574.531 55.719 575.142 56.226 575.142 57.149V57.344C575.142 58.267 574.531 58.774 573.4 58.774Z" fill="white"/>
<path d="M573.5 70.5L573.5 107.5" stroke="#6E04C1" stroke-width="0.5"/>
<rect x="0.5" y="0.5" width="881" height="229" rx="3.5" stroke="#E5E5E5"/>
</svg>
