<svg width="882" height="265" viewBox="0 0 882 265" fill="none" xmlns="http://www.w3.org/2000/svg">
<rect x="0.5" y="0.5" width="881" height="264" rx="3.5" fill="#F8F8F8"/>
<path d="M117.846 106V104.362H113.996V96.228H112.148V106H117.846ZM121.184 106.168C122.276 106.168 123.074 105.678 123.312 104.74H123.396C123.508 105.496 123.984 106 124.754 106H125.748V104.572H125.02V101.128C125.02 99.462 123.97 98.524 121.996 98.524C120.526 98.524 119.672 99.084 119.14 99.924L120.204 100.876C120.554 100.372 121.03 99.952 121.87 99.952C122.822 99.952 123.228 100.428 123.228 101.24V101.772H121.982C119.994 101.772 118.86 102.514 118.86 104.012C118.86 105.314 119.7 106.168 121.184 106.168ZM121.786 104.866C121.086 104.866 120.68 104.572 120.68 103.984V103.746C120.68 103.172 121.142 102.85 122.08 102.85H123.228V103.816C123.228 104.502 122.584 104.866 121.786 104.866ZM127.198 106H128.99V104.782H129.046C129.326 105.608 130.096 106.168 131.062 106.168C132.91 106.168 133.932 104.782 133.932 102.332C133.932 99.896 132.91 98.524 131.062 98.524C130.096 98.524 129.312 99.056 129.046 99.896H128.99V95.64H127.198V106ZM130.488 104.684C129.634 104.684 128.99 104.25 128.99 103.494V101.17C128.99 100.456 129.634 99.994 130.488 99.994C131.412 99.994 132.056 100.68 132.056 101.716V102.976C132.056 104.012 131.412 104.684 130.488 104.684ZM138.547 106.168C139.905 106.168 140.969 105.65 141.571 104.824L140.605 103.746C140.157 104.32 139.625 104.74 138.743 104.74C137.567 104.74 136.965 104.026 136.965 102.976V102.794H141.823V102.206C141.823 100.204 140.773 98.524 138.491 98.524C136.349 98.524 135.103 100.022 135.103 102.332C135.103 104.67 136.391 106.168 138.547 106.168ZM138.519 99.868C139.443 99.868 139.961 100.554 139.961 101.562V101.688H136.965V101.576C136.965 100.568 137.581 99.868 138.519 99.868ZM146.157 106V104.572H145.191V95.64H143.399V104.236C143.399 105.356 143.973 106 145.191 106H146.157Z" fill="#292929"/>
<path d="M111 123C111 120.791 112.791 119 115 119H339V167H115C112.791 167 111 165.209 111 163V123Z" fill="white"/>
<path d="M135.75 146.384L132.625 143.258L133.508 142.375L135.75 144.616L140.491 139.875L141.375 140.759L135.75 146.384Z" fill="#292929"/>
<path d="M137 134.25C135.269 134.25 133.578 134.763 132.139 135.725C130.7 136.686 129.578 138.053 128.916 139.652C128.254 141.25 128.081 143.01 128.418 144.707C128.756 146.404 129.589 147.963 130.813 149.187C132.037 150.411 133.596 151.244 135.293 151.582C136.99 151.919 138.75 151.746 140.348 151.084C141.947 150.422 143.314 149.3 144.275 147.861C145.237 146.422 145.75 144.731 145.75 143C145.75 140.679 144.828 138.454 143.187 136.813C141.546 135.172 139.321 134.25 137 134.25V134.25ZM137 150.5C135.517 150.5 134.067 150.06 132.833 149.236C131.6 148.412 130.639 147.241 130.071 145.87C129.503 144.5 129.355 142.992 129.644 141.537C129.934 140.082 130.648 138.746 131.697 137.697C132.746 136.648 134.082 135.933 135.537 135.644C136.992 135.355 138.5 135.503 139.87 136.071C141.241 136.639 142.412 137.6 143.236 138.833C144.06 140.067 144.5 141.517 144.5 143C144.5 144.989 143.71 146.897 142.303 148.303C140.897 149.71 138.989 150.5 137 150.5Z" fill="#292929"/>
<path d="M157.832 149V144.232H160.936C162.936 144.232 164.056 143 164.056 141.032C164.056 139.064 162.936 137.832 160.936 137.832H156.488V149H157.832ZM157.832 139.016H160.936C161.992 139.016 162.616 139.592 162.616 140.616V141.448C162.616 142.472 161.992 143.048 160.936 143.048H157.832V139.016ZM168.559 149V147.88H167.343V137.16H166.063V147.672C166.063 148.44 166.543 149 167.423 149H168.559ZM177.142 149V147.88H176.199V143.336C176.199 141.592 175.015 140.552 173.031 140.552C171.543 140.552 170.551 141.288 170.103 142.168L170.871 142.888C171.319 142.136 171.975 141.656 172.967 141.656C174.279 141.656 174.919 142.296 174.919 143.464V144.28H173.286C170.887 144.28 169.767 145.144 169.767 146.696C169.767 148.232 170.791 149.192 172.535 149.192C173.687 149.192 174.567 148.664 174.919 147.656H174.999C175.095 148.424 175.479 149 176.423 149H177.142ZM172.743 148.104C171.751 148.104 171.111 147.64 171.111 146.824V146.488C171.111 145.688 171.767 145.24 173.223 145.24H174.919V146.6C174.919 147.448 174.007 148.104 172.743 148.104ZM182.041 149.192C183.609 149.192 184.681 148.424 185.209 147.24L184.281 146.616C183.833 147.56 183.081 148.056 182.041 148.056C180.521 148.056 179.737 147.016 179.737 145.576V144.168C179.737 142.728 180.521 141.688 182.041 141.688C183.049 141.688 183.753 142.184 184.057 143.032L185.129 142.488C184.649 141.352 183.673 140.552 182.041 140.552C179.721 140.552 178.361 142.232 178.361 144.872C178.361 147.512 179.721 149.192 182.041 149.192ZM190.027 149.192C191.579 149.192 192.763 148.424 193.291 147.304L192.379 146.648C191.947 147.56 191.147 148.072 190.107 148.072C188.571 148.072 187.659 147 187.659 145.576V145.192H193.595V144.584C193.595 142.248 192.235 140.552 190.027 140.552C187.787 140.552 186.315 142.248 186.315 144.872C186.315 147.496 187.787 149.192 190.027 149.192ZM190.027 141.624C191.339 141.624 192.219 142.6 192.219 144.056V144.232H187.659V144.12C187.659 142.68 188.635 141.624 190.027 141.624ZM195.704 149H196.984V143.272C196.984 142.216 197.976 141.704 199 141.704C200.232 141.704 200.872 142.456 200.872 143.928V149H202.152V143.704C202.152 141.704 201.08 140.552 199.384 140.552C198.152 140.552 197.448 141.16 197.048 142.088H196.984V137.16H195.704V149ZM207.918 149.192C210.126 149.192 211.646 147.496 211.646 144.872C211.646 142.248 210.126 140.552 207.918 140.552C205.71 140.552 204.19 142.248 204.19 144.872C204.19 147.496 205.71 149.192 207.918 149.192ZM207.918 148.056C206.542 148.056 205.566 147.208 205.566 145.464V144.28C205.566 142.536 206.542 141.688 207.918 141.688C209.294 141.688 210.27 142.536 210.27 144.28V145.464C210.27 147.208 209.294 148.056 207.918 148.056ZM216.247 149V147.88H215.031V137.16H213.751V147.672C213.751 148.44 214.231 149 215.111 149H216.247ZM223.39 149H224.67V137.16H223.39V142.088H223.326C222.894 141.048 222.046 140.552 220.91 140.552C218.846 140.552 217.55 142.232 217.55 144.872C217.55 147.512 218.846 149.192 220.91 149.192C222.046 149.192 222.83 148.68 223.326 147.656H223.39V149ZM221.262 148.04C219.822 148.04 218.926 147.048 218.926 145.576V144.168C218.926 142.696 219.822 141.704 221.262 141.704C222.43 141.704 223.39 142.376 223.39 143.288V146.36C223.39 147.432 222.43 148.04 221.262 148.04ZM230.495 149.192C232.047 149.192 233.231 148.424 233.759 147.304L232.847 146.648C232.415 147.56 231.615 148.072 230.575 148.072C229.039 148.072 228.127 147 228.127 145.576V145.192H234.063V144.584C234.063 142.248 232.703 140.552 230.495 140.552C228.255 140.552 226.783 142.248 226.783 144.872C226.783 147.496 228.255 149.192 230.495 149.192ZM230.495 141.624C231.807 141.624 232.687 142.6 232.687 144.056V144.232H228.127V144.12C228.127 142.68 229.103 141.624 230.495 141.624ZM237.453 149V143.4C237.453 142.616 238.285 142.024 239.661 142.024H240.413V140.744H239.917C238.573 140.744 237.821 141.48 237.533 142.264H237.453V140.744H236.173V149H237.453Z" fill="#BFBFBF"/>
<path d="M313 146.75L306.75 140.5L307.625 139.625L313 145L318.375 139.625L319.25 140.5L313 146.75Z" fill="#292929"/>
<path d="M115 119.5H338.5V166.5H115C113.067 166.5 111.5 164.933 111.5 163V123C111.5 121.067 113.067 119.5 115 119.5Z" stroke="black" stroke-opacity="0.102"/>
<path d="M339 119H417C419.209 119 421 120.791 421 123V163C421 165.209 419.209 167 417 167H339V119Z" fill="#292929"/>
<path d="M356.548 149H361.988C363.636 149 364.868 147.592 364.868 145.784C364.868 143.912 363.444 143.208 362.532 143.176V143.08C363.444 143 364.468 142.392 364.468 140.712C364.468 138.968 363.332 137.832 361.492 137.832H356.548V149ZM358.356 144.056H361.46C362.388 144.056 362.964 144.568 362.964 145.48V146.024C362.964 146.936 362.388 147.448 361.46 147.448H358.356V144.056ZM358.356 139.384H361.156C362.036 139.384 362.564 139.864 362.564 140.712V141.224C362.564 142.072 362.036 142.552 361.156 142.552H358.356V139.384ZM372.007 149H373.751V140.68H372.007V146.248C372.007 147.224 371.127 147.688 370.231 147.688C369.159 147.688 368.631 147.016 368.631 145.752V140.68H366.887V145.976C366.887 148.024 367.895 149.192 369.607 149.192C370.983 149.192 371.639 148.44 371.943 147.624H372.007V149ZM380.072 149V147.576H378.456V142.104H380.2V140.68H378.456V138.408H376.888V139.864C376.888 140.44 376.696 140.68 376.12 140.68H375.416V142.104H376.712V147.192C376.712 148.328 377.352 149 378.552 149H380.072ZM385.806 149V147.576H384.19V142.104H385.934V140.68H384.19V138.408H382.622V139.864C382.622 140.44 382.43 140.68 381.854 140.68H381.15V142.104H382.446V147.192C382.446 148.328 383.086 149 384.286 149H385.806ZM391.028 149.192C393.348 149.192 394.852 147.496 394.852 144.84C394.852 142.184 393.348 140.488 391.028 140.488C388.708 140.488 387.204 142.184 387.204 144.84C387.204 147.496 388.708 149.192 391.028 149.192ZM391.028 147.752C389.844 147.752 389.044 147.016 389.044 145.544V144.136C389.044 142.664 389.844 141.928 391.028 141.928C392.212 141.928 393.012 142.664 393.012 144.136V145.544C393.012 147.016 392.212 147.752 391.028 147.752ZM398.539 149V143.432C398.539 142.456 399.435 141.992 400.347 141.992C401.419 141.992 401.915 142.648 401.915 143.944V149H403.659V143.72C403.659 141.672 402.651 140.488 400.955 140.488C399.675 140.488 398.971 141.16 398.619 142.056H398.539V140.68H396.795V149H398.539Z" fill="white"/>
<path d="M119.5 188V184H117.5V185H118.5V188H117V189H121V188H119.5ZM119 181C118.852 181 118.707 181.044 118.583 181.126C118.46 181.209 118.364 181.326 118.307 181.463C118.25 181.6 118.235 181.751 118.264 181.896C118.293 182.042 118.365 182.175 118.47 182.28C118.575 182.385 118.708 182.457 118.854 182.486C118.999 182.515 119.15 182.5 119.287 182.443C119.424 182.386 119.541 182.29 119.624 182.167C119.706 182.043 119.75 181.898 119.75 181.75C119.75 181.551 119.671 181.36 119.53 181.22C119.39 181.079 119.199 181 119 181V181Z" fill="#0066CC"/>
<path d="M119 192C117.616 192 116.262 191.589 115.111 190.82C113.96 190.051 113.063 188.958 112.533 187.679C112.003 186.4 111.864 184.992 112.135 183.634C112.405 182.277 113.071 181.029 114.05 180.05C115.029 179.071 116.277 178.405 117.634 178.135C118.992 177.864 120.4 178.003 121.679 178.533C122.958 179.063 124.051 179.96 124.82 181.111C125.589 182.262 126 183.616 126 185C126 186.857 125.263 188.637 123.95 189.95C122.637 191.263 120.857 192 119 192ZM119 179C117.813 179 116.653 179.352 115.667 180.011C114.68 180.67 113.911 181.608 113.457 182.704C113.003 183.8 112.884 185.007 113.115 186.171C113.347 187.334 113.918 188.404 114.757 189.243C115.596 190.082 116.666 190.653 117.829 190.885C118.993 191.116 120.2 190.997 121.296 190.543C122.392 190.089 123.33 189.32 123.989 188.333C124.648 187.347 125 186.187 125 185C125 183.409 124.368 181.883 123.243 180.757C122.117 179.632 120.591 179 119 179V179Z" fill="#0066CC"/>
<path d="M141.36 189H142.368V180.624H141.36V184.32H137.124V180.624H136.116V189H137.124V185.208H141.36V189ZM146.832 189.144C147.996 189.144 148.884 188.568 149.28 187.728L148.596 187.236C148.272 187.92 147.672 188.304 146.892 188.304C145.74 188.304 145.056 187.5 145.056 186.432V186.144H149.508V185.688C149.508 183.936 148.488 182.664 146.832 182.664C145.152 182.664 144.048 183.936 144.048 185.904C144.048 187.872 145.152 189.144 146.832 189.144ZM146.832 183.468C147.816 183.468 148.476 184.2 148.476 185.292V185.424H145.056V185.34C145.056 184.26 145.788 183.468 146.832 183.468ZM152.962 189V188.16H152.05V180.12H151.09V188.004C151.09 188.58 151.45 189 152.11 189H152.962ZM154.36 191.4H155.32V187.992H155.368C155.74 188.76 156.328 189.144 157.18 189.144C158.728 189.144 159.7 187.884 159.7 185.904C159.7 183.924 158.728 182.664 157.18 182.664C156.328 182.664 155.692 183.036 155.368 183.816H155.32V182.808H154.36V191.4ZM156.916 188.28C156.04 188.28 155.32 187.824 155.32 187.02V184.716C155.32 184.032 156.04 183.528 156.916 183.528C157.996 183.528 158.668 184.272 158.668 185.376V186.432C158.668 187.536 157.996 188.28 156.916 188.28ZM163.649 189.144C164.813 189.144 165.701 188.568 166.097 187.728L165.413 187.236C165.089 187.92 164.489 188.304 163.709 188.304C162.557 188.304 161.873 187.5 161.873 186.432V186.144H166.325V185.688C166.325 183.936 165.305 182.664 163.649 182.664C161.969 182.664 160.865 183.936 160.865 185.904C160.865 187.872 161.969 189.144 163.649 189.144ZM163.649 183.468C164.633 183.468 165.293 184.2 165.293 185.292V185.424H161.873V185.34C161.873 184.26 162.605 183.468 163.649 183.468ZM168.867 189V184.8C168.867 184.212 169.491 183.768 170.523 183.768H171.087V182.808H170.715C169.707 182.808 169.143 183.36 168.927 183.948H168.867V182.808H167.907V189H168.867ZM177.717 189V188.16H176.457V183.648H177.813V182.808H176.457V181.092H175.593V182.244C175.593 182.664 175.461 182.808 175.053 182.808H174.477V183.648H175.497V187.98C175.497 188.58 175.857 189 176.517 189H177.717ZM181.637 189.144C182.801 189.144 183.689 188.568 184.085 187.728L183.401 187.236C183.077 187.92 182.477 188.304 181.697 188.304C180.545 188.304 179.861 187.5 179.861 186.432V186.144H184.313V185.688C184.313 183.936 183.293 182.664 181.637 182.664C179.957 182.664 178.853 183.936 178.853 185.904C178.853 187.872 179.957 189.144 181.637 189.144ZM181.637 183.468C182.621 183.468 183.281 184.2 183.281 185.292V185.424H179.861V185.34C179.861 184.26 180.593 183.468 181.637 183.468ZM184.986 189H186.054L187.794 186.576H187.83L189.438 189H190.566L188.334 185.808L190.518 182.808H189.45L187.818 185.112H187.782L186.21 182.808H185.082L187.278 185.88L184.986 189ZM194.404 189V188.16H193.144V183.648H194.5V182.808H193.144V181.092H192.28V182.244C192.28 182.664 192.148 182.808 191.74 182.808H191.164V183.648H192.184V187.98C192.184 188.58 192.544 189 193.204 189H194.404ZM201.183 189.144C202.359 189.144 203.163 188.568 203.559 187.68L202.863 187.212C202.527 187.92 201.963 188.292 201.183 188.292C200.043 188.292 199.455 187.512 199.455 186.432V185.376C199.455 184.296 200.043 183.516 201.183 183.516C201.939 183.516 202.467 183.888 202.695 184.524L203.499 184.116C203.139 183.264 202.407 182.664 201.183 182.664C199.443 182.664 198.423 183.924 198.423 185.904C198.423 187.884 199.443 189.144 201.183 189.144ZM209.955 189V188.16H209.247V184.752C209.247 183.444 208.359 182.664 206.871 182.664C205.755 182.664 205.011 183.216 204.675 183.876L205.251 184.416C205.587 183.852 206.079 183.492 206.823 183.492C207.807 183.492 208.287 183.972 208.287 184.848V185.46H207.063C205.263 185.46 204.423 186.108 204.423 187.272C204.423 188.424 205.191 189.144 206.499 189.144C207.363 189.144 208.023 188.748 208.287 187.992H208.347C208.419 188.568 208.707 189 209.415 189H209.955ZM206.655 188.328C205.911 188.328 205.431 187.98 205.431 187.368V187.116C205.431 186.516 205.923 186.18 207.015 186.18H208.287V187.2C208.287 187.836 207.603 188.328 206.655 188.328ZM212.285 189V184.704C212.285 183.912 213.029 183.528 213.797 183.528C214.721 183.528 215.201 184.092 215.201 185.196V189H216.161V185.028C216.161 183.528 215.357 182.664 214.085 182.664C213.161 182.664 212.633 183.12 212.333 183.816H212.285V182.808H211.325V189H212.285ZM226.201 189.684C226.201 188.664 225.541 188.04 224.005 188.04H222.685C222.121 188.04 221.737 187.944 221.737 187.572C221.737 187.188 222.145 186.984 222.553 186.876C222.733 186.912 222.949 186.936 223.153 186.936C224.569 186.936 225.493 186.06 225.493 184.8C225.493 184.14 225.229 183.588 224.785 183.204V182.808H225.961V181.968H225.037C224.521 181.968 224.317 182.316 224.317 182.796V182.904C223.981 182.748 223.585 182.664 223.141 182.664C221.737 182.664 220.813 183.54 220.813 184.8C220.813 185.664 221.245 186.348 221.977 186.696V186.744C221.353 186.9 220.909 187.2 220.909 187.824C220.909 188.244 221.113 188.52 221.461 188.688V188.82C220.849 188.988 220.477 189.348 220.477 190.02C220.477 190.992 221.269 191.544 223.201 191.544C225.193 191.544 226.201 190.956 226.201 189.684ZM225.301 189.756C225.301 190.428 224.677 190.764 223.609 190.764H222.721C221.749 190.764 221.377 190.32 221.377 189.78C221.377 189.396 221.557 189.12 221.953 188.94H224.017C224.977 188.94 225.301 189.264 225.301 189.756ZM223.153 186.168C222.337 186.168 221.821 185.784 221.821 184.968V184.632C221.821 183.816 222.337 183.432 223.153 183.432C223.969 183.432 224.485 183.816 224.485 184.632V184.968C224.485 185.784 223.969 186.168 223.153 186.168ZM229.59 189.144C231.246 189.144 232.386 187.872 232.386 185.904C232.386 183.936 231.246 182.664 229.59 182.664C227.934 182.664 226.794 183.936 226.794 185.904C226.794 187.872 227.934 189.144 229.59 189.144ZM229.59 188.292C228.558 188.292 227.826 187.656 227.826 186.348V185.46C227.826 184.152 228.558 183.516 229.59 183.516C230.622 183.516 231.354 184.152 231.354 185.46V186.348C231.354 187.656 230.622 188.292 229.59 188.292ZM236.801 189H237.761V184.704C237.761 183.912 238.505 183.528 239.273 183.528C240.197 183.528 240.677 184.092 240.677 185.196V189H241.637V185.028C241.637 183.528 240.833 182.664 239.561 182.664C238.637 182.664 238.109 183.12 237.809 183.816H237.761V180.12H236.801V189ZM245.95 189.144C247.114 189.144 248.002 188.568 248.398 187.728L247.714 187.236C247.39 187.92 246.79 188.304 246.01 188.304C244.858 188.304 244.174 187.5 244.174 186.432V186.144H248.626V185.688C248.626 183.936 247.606 182.664 245.95 182.664C244.27 182.664 243.166 183.936 243.166 185.904C243.166 187.872 244.27 189.144 245.95 189.144ZM245.95 183.468C246.934 183.468 247.594 184.2 247.594 185.292V185.424H244.174V185.34C244.174 184.26 244.906 183.468 245.95 183.468ZM251.168 189V184.8C251.168 184.212 251.792 183.768 252.824 183.768H253.388V182.808H253.016C252.008 182.808 251.444 183.36 251.228 183.948H251.168V182.808H250.208V189H251.168ZM256.883 189.144C258.047 189.144 258.935 188.568 259.331 187.728L258.647 187.236C258.323 187.92 257.723 188.304 256.943 188.304C255.791 188.304 255.107 187.5 255.107 186.432V186.144H259.559V185.688C259.559 183.936 258.539 182.664 256.883 182.664C255.203 182.664 254.099 183.936 254.099 185.904C254.099 187.872 255.203 189.144 256.883 189.144ZM256.883 183.468C257.867 183.468 258.527 184.2 258.527 185.292V185.424H255.107V185.34C255.107 184.26 255.839 183.468 256.883 183.468ZM261.519 189.144C262.023 189.144 262.251 188.856 262.251 188.448V188.292C262.251 187.884 262.023 187.596 261.519 187.596C261.015 187.596 260.787 187.884 260.787 188.292V188.448C260.787 188.856 261.015 189.144 261.519 189.144Z" fill="#292929"/>
<rect x="114" y="56" width="24" height="24" rx="12" fill="#6E04C1"/>
<path d="M129.111 73V72.038H126.771V63.926H125.068L122.663 66.175L123.3 66.864L125.588 64.732H125.679V72.038H123.144V73H129.111Z" fill="white"/>
<line x1="126" y1="80" x2="126" y2="93" stroke="#8000E4"/>
<rect x="69" y="131" width="24" height="24" rx="12" fill="#6E04C1"/>
<path d="M82.915 148V146.219H84.228V145.309H82.915V138.926H81.29L77.494 145.257V146.219H81.875V148H82.915ZM81.81 139.771H81.875V145.309H78.521L81.81 139.771Z" fill="white"/>
<line x1="93" y1="143" x2="125" y2="143" stroke="#8000E4"/>
<rect x="69" y="173" width="24" height="24" rx="12" fill="#6E04C1"/>
<path d="M83.474 180.926H78.612L78.287 185.918L79.21 186.048C79.587 185.632 80.003 185.281 80.835 185.281C82.07 185.281 82.733 185.97 82.733 187.166V187.296C82.733 188.492 82.07 189.181 80.835 189.181C79.743 189.181 79.288 188.7 78.82 187.985L78.001 188.609C78.547 189.389 79.327 190.156 80.835 190.156C82.746 190.156 83.89 188.921 83.89 187.153C83.89 185.398 82.746 184.345 81.186 184.345C80.237 184.345 79.756 184.735 79.327 185.346H79.236L79.496 181.888H83.474V180.926Z" fill="white"/>
<line x1="93" y1="185.5" x2="110" y2="185.5" stroke="#8000E4"/>
<rect x="155" y="56" width="24" height="24" rx="12" fill="#6E04C1"/>
<path d="M169.929 72.038H165.158L167.602 69.841C168.759 68.801 169.591 67.813 169.591 66.409C169.591 64.862 168.577 63.77 166.809 63.77C165.054 63.77 164.248 64.836 163.897 65.902L164.872 66.279C165.119 65.421 165.639 64.745 166.757 64.745C167.875 64.745 168.434 65.434 168.434 66.435V66.591C168.434 67.462 167.784 68.372 166.939 69.152L163.975 71.882V73H169.929V72.038Z" fill="white"/>
<line x1="167.5" y1="80" x2="167.5" y2="131" stroke="#8000E4"/>
<rect x="368" y="56" width="24" height="24" rx="12" fill="#6E04C1"/>
<path d="M378.405 67.774V68.723H379.471C380.745 68.723 381.421 69.334 381.421 70.4V70.504C381.421 71.57 380.745 72.181 379.471 72.181C378.366 72.181 377.833 71.7 377.365 70.985L376.546 71.609C377.105 72.389 377.911 73.156 379.484 73.156C381.33 73.156 382.565 72.077 382.565 70.517C382.565 69.152 381.629 68.424 380.654 68.229V68.177C381.616 67.93 382.396 67.228 382.396 66.058C382.396 64.589 381.174 63.77 379.64 63.77C378.184 63.77 377.391 64.524 376.936 65.252L377.742 65.876C378.119 65.187 378.678 64.745 379.614 64.745C380.576 64.745 381.239 65.226 381.239 66.175V66.266C381.239 67.137 380.615 67.774 379.393 67.774H378.405Z" fill="white"/>
<line x1="380.5" y1="80" x2="380.5" y2="119" stroke="#6E04C1"/>
<rect x="504" y="120" width="308" height="46" rx="3" fill="white"/>
<path d="M526.302 148H530.74C532.182 148 533.26 146.782 533.26 145.172C533.26 143.548 532.042 142.946 531.342 142.904V142.82C531.986 142.722 532.924 142.204 532.924 140.748C532.924 139.222 531.93 138.228 530.32 138.228H526.302V148ZM527.478 143.464H530.376C531.384 143.464 532 143.996 532 144.976V145.452C532 146.432 531.384 146.964 530.376 146.964H527.478V143.464ZM527.478 139.264H530.18C531.104 139.264 531.664 139.754 531.664 140.622V141.098C531.664 141.966 531.104 142.456 530.18 142.456H527.478V139.264ZM539.788 148H540.908V140.776H539.788V145.774C539.788 146.726 538.92 147.16 538.038 147.16C536.96 147.16 536.386 146.502 536.386 145.214V140.776H535.266V145.41C535.266 147.16 536.218 148.168 537.702 148.168C538.906 148.168 539.452 147.51 539.732 146.824H539.788V148ZM545.464 148.168C547.116 148.168 548.138 147.314 548.138 145.914C548.138 144.822 547.522 144.122 545.926 143.884L545.366 143.8C544.47 143.66 543.98 143.38 543.98 142.68C543.98 141.994 544.47 141.56 545.394 141.56C546.318 141.56 546.934 141.994 547.256 142.442L547.998 141.77C547.41 141.042 546.64 140.608 545.478 140.608C544.008 140.608 542.902 141.308 542.902 142.736C542.902 144.08 543.896 144.626 545.226 144.822L545.8 144.906C546.752 145.046 547.06 145.48 547.06 146.04C547.06 146.782 546.5 147.216 545.548 147.216C544.638 147.216 543.966 146.81 543.406 146.11L542.608 146.754C543.252 147.608 544.134 148.168 545.464 148.168ZM556.28 148.168C558.38 148.168 559.64 147.02 559.64 145.228C559.64 143.772 558.814 142.932 556.91 142.498L556.112 142.316C554.88 142.036 554.278 141.616 554.278 140.692C554.278 139.642 555.048 139.096 556.294 139.096C557.428 139.096 558.17 139.558 558.702 140.3L559.584 139.656C558.856 138.62 557.82 138.06 556.35 138.06C554.432 138.06 553.116 138.998 553.116 140.734C553.116 142.232 554.096 143.016 555.874 143.422L556.672 143.604C557.96 143.898 558.478 144.36 558.478 145.284C558.478 146.404 557.722 147.132 556.322 147.132C555.188 147.132 554.376 146.642 553.69 145.732L552.822 146.46C553.606 147.524 554.712 148.168 556.28 148.168ZM564.555 148V147.02H563.085V141.756H564.667V140.776H563.085V138.774H562.077V140.118C562.077 140.608 561.923 140.776 561.447 140.776H560.775V141.756H561.965V146.81C561.965 147.51 562.385 148 563.155 148H564.555ZM572.347 148V147.02H571.521V143.044C571.521 141.518 570.485 140.608 568.749 140.608C567.447 140.608 566.579 141.252 566.187 142.022L566.859 142.652C567.251 141.994 567.825 141.574 568.693 141.574C569.841 141.574 570.401 142.134 570.401 143.156V143.87H568.973C566.873 143.87 565.893 144.626 565.893 145.984C565.893 147.328 566.789 148.168 568.315 148.168C569.323 148.168 570.093 147.706 570.401 146.824H570.471C570.555 147.496 570.891 148 571.717 148H572.347ZM568.497 147.216C567.629 147.216 567.069 146.81 567.069 146.096V145.802C567.069 145.102 567.643 144.71 568.917 144.71H570.401V145.9C570.401 146.642 569.603 147.216 568.497 147.216ZM574.338 148H575.458V141.756H577.012V140.776H575.458V138.62H577.012V137.64H575.92C574.856 137.64 574.338 138.326 574.338 139.32V140.776H573.162V141.756H574.338V148ZM578.877 148H579.997V141.756H581.551V140.776H579.997V138.62H581.551V137.64H580.459C579.395 137.64 578.877 138.326 578.877 139.32V140.776H577.701V141.756H578.877V148Z" fill="#292929"/>
<path d="M598 139.7L597.3 139L594 142.3L590.7 139L590 139.7L593.3 143L590 146.3L590.7 147L594 143.7L597.3 147L598 146.3L594.7 143L598 139.7Z" fill="#292929"/>
<rect x="519.5" y="127.5" width="88" height="31" rx="3.5" stroke="#E5E5E5"/>
<path d="M629.112 148H630.568L626.676 142.414L630.316 138.228H628.874L625.92 141.728L624.52 143.422H624.478V138.228H623.302V148H624.478V144.738L625.864 143.198L629.112 148ZM632.623 139.082C633.099 139.082 633.309 138.83 633.309 138.452V138.27C633.309 137.892 633.099 137.64 632.623 137.64C632.147 137.64 631.937 137.892 631.937 138.27V138.452C631.937 138.83 632.147 139.082 632.623 139.082ZM632.063 148H633.183V140.776H632.063V148ZM638.559 148V147.02H637.089V141.756H638.671V140.776H637.089V138.774H636.081V140.118C636.081 140.608 635.927 140.776 635.451 140.776H634.779V141.756H635.969V146.81C635.969 147.51 636.389 148 637.159 148H638.559ZM643.105 148.168C644.477 148.168 645.415 147.496 645.877 146.46L645.065 145.914C644.673 146.74 644.015 147.174 643.105 147.174C641.775 147.174 641.089 146.264 641.089 145.004V143.772C641.089 142.512 641.775 141.602 643.105 141.602C643.987 141.602 644.603 142.036 644.869 142.778L645.807 142.302C645.387 141.308 644.533 140.608 643.105 140.608C641.075 140.608 639.885 142.078 639.885 144.388C639.885 146.698 641.075 148.168 643.105 148.168ZM647.458 148H648.578V142.988C648.578 142.064 649.446 141.616 650.342 141.616C651.42 141.616 651.98 142.274 651.98 143.562V148H653.1V143.366C653.1 141.616 652.162 140.608 650.678 140.608C649.6 140.608 648.984 141.14 648.634 141.952H648.578V137.64H647.458V148ZM658.131 148.168C659.489 148.168 660.525 147.496 660.987 146.516L660.189 145.942C659.811 146.74 659.111 147.188 658.201 147.188C656.857 147.188 656.059 146.25 656.059 145.004V144.668H661.253V144.136C661.253 142.092 660.063 140.608 658.131 140.608C656.171 140.608 654.883 142.092 654.883 144.388C654.883 146.684 656.171 148.168 658.131 148.168ZM658.131 141.546C659.279 141.546 660.049 142.4 660.049 143.674V143.828H656.059V143.73C656.059 142.47 656.913 141.546 658.131 141.546ZM664.218 148V142.988C664.218 142.064 665.086 141.616 665.982 141.616C667.06 141.616 667.62 142.274 667.62 143.562V148H668.74V143.366C668.74 141.616 667.802 140.608 666.318 140.608C665.24 140.608 664.624 141.14 664.274 141.952H664.218V140.776H663.098V148H664.218ZM677.22 148.168C679.32 148.168 680.58 147.02 680.58 145.228C680.58 143.772 679.754 142.932 677.85 142.498L677.052 142.316C675.82 142.036 675.218 141.616 675.218 140.692C675.218 139.642 675.988 139.096 677.234 139.096C678.368 139.096 679.11 139.558 679.642 140.3L680.524 139.656C679.796 138.62 678.76 138.06 677.29 138.06C675.372 138.06 674.056 138.998 674.056 140.734C674.056 142.232 675.036 143.016 676.814 143.422L677.612 143.604C678.9 143.898 679.418 144.36 679.418 145.284C679.418 146.404 678.662 147.132 677.262 147.132C676.128 147.132 675.316 146.642 674.63 145.732L673.762 146.46C674.546 147.524 675.652 148.168 677.22 148.168ZM685.495 148V147.02H684.025V141.756H685.607V140.776H684.025V138.774H683.017V140.118C683.017 140.608 682.863 140.776 682.387 140.776H681.715V141.756H682.905V146.81C682.905 147.51 683.325 148 684.095 148H685.495ZM693.287 148V147.02H692.461V143.044C692.461 141.518 691.425 140.608 689.689 140.608C688.387 140.608 687.519 141.252 687.127 142.022L687.799 142.652C688.191 141.994 688.765 141.574 689.633 141.574C690.781 141.574 691.341 142.134 691.341 143.156V143.87H689.913C687.813 143.87 686.833 144.626 686.833 145.984C686.833 147.328 687.729 148.168 689.255 148.168C690.263 148.168 691.033 147.706 691.341 146.824H691.411C691.495 147.496 691.831 148 692.657 148H693.287ZM689.437 147.216C688.569 147.216 688.009 146.81 688.009 146.096V145.802C688.009 145.102 688.583 144.71 689.857 144.71H691.341V145.9C691.341 146.642 690.543 147.216 689.437 147.216ZM695.277 148H696.397V141.756H697.951V140.776H696.397V138.62H697.951V137.64H696.859C695.795 137.64 695.277 138.326 695.277 139.32V140.776H694.101V141.756H695.277V148ZM699.816 148H700.936V141.756H702.49V140.776H700.936V138.62H702.49V137.64H701.398C700.334 137.64 699.816 138.326 699.816 139.32V140.776H698.64V141.756H699.816V148Z" fill="#292929"/>
<path d="M719 139.7L718.3 139L715 142.3L711.7 139L711 139.7L714.3 143L711 146.3L711.7 147L715 143.7L718.3 147L719 146.3L715.7 143L719 139.7Z" fill="#292929"/>
<rect x="616.5" y="127.5" width="112" height="31" rx="3.5" stroke="#E5E5E5"/>
<path d="M787 146.75L780.75 140.5L781.625 139.625L787 145L792.375 139.625L793.25 140.5L787 146.75Z" fill="#292929"/>
<rect x="504" y="120" width="308" height="46" rx="3" stroke="#CC0000" stroke-width="2"/>
<rect x="503" y="175" width="310" height="34" rx="4" fill="#FEDFDF"/>
<path d="M523.001 188.086H522.999L517.324 198.998L517.325 199H528.675L528.676 198.998L523.001 188.086ZM522.437 191H523.562V195.5H522.437V191ZM523 198C522.852 198 522.707 197.956 522.583 197.874C522.46 197.791 522.364 197.674 522.307 197.537C522.25 197.4 522.235 197.249 522.264 197.104C522.293 196.958 522.365 196.825 522.47 196.72C522.574 196.615 522.708 196.543 522.854 196.514C522.999 196.485 523.15 196.5 523.287 196.557C523.424 196.614 523.541 196.71 523.623 196.833C523.706 196.957 523.75 197.102 523.75 197.25C523.75 197.449 523.671 197.64 523.53 197.78C523.39 197.921 523.199 198 523 198Z" fill="#CC0000"/>
<path d="M529.5 200H516.5C516.414 200 516.33 199.978 516.255 199.936C516.18 199.894 516.117 199.833 516.073 199.759C516.028 199.686 516.003 199.602 516 199.517C515.997 199.431 516.017 199.346 516.056 199.269L522.556 186.769C522.599 186.688 522.662 186.62 522.741 186.573C522.819 186.525 522.908 186.5 523 186.5C523.092 186.5 523.181 186.525 523.259 186.573C523.338 186.62 523.401 186.688 523.444 186.769L529.944 199.269C529.983 199.346 530.003 199.431 530 199.517C529.997 199.602 529.972 199.686 529.927 199.759C529.883 199.833 529.82 199.894 529.745 199.936C529.67 199.978 529.586 200 529.5 200V200ZM517.325 199H528.675L528.676 198.998L523.001 188.086H522.999L517.324 198.998L517.325 199Z" fill="#CC0000"/>
<path d="M545.228 197V196.112H541.124V193.208H544.988V192.32H541.124V189.512H545.228V188.624H540.116V197H545.228ZM547.976 197V192.8C547.976 192.212 548.6 191.768 549.632 191.768H550.196V190.808H549.824C548.816 190.808 548.252 191.36 548.036 191.948H547.976V190.808H547.016V197H547.976ZM552.382 197V192.8C552.382 192.212 553.006 191.768 554.038 191.768H554.602V190.808H554.23C553.222 190.808 552.658 191.36 552.442 191.948H552.382V190.808H551.422V197H552.382ZM558.11 197.144C559.766 197.144 560.906 195.872 560.906 193.904C560.906 191.936 559.766 190.664 558.11 190.664C556.454 190.664 555.314 191.936 555.314 193.904C555.314 195.872 556.454 197.144 558.11 197.144ZM558.11 196.292C557.078 196.292 556.346 195.656 556.346 194.348V193.46C556.346 192.152 557.078 191.516 558.11 191.516C559.142 191.516 559.874 192.152 559.874 193.46V194.348C559.874 195.656 559.142 196.292 558.11 196.292ZM563.445 197V192.8C563.445 192.212 564.069 191.768 565.101 191.768H565.665V190.808H565.293C564.285 190.808 563.721 191.36 563.505 191.948H563.445V190.808H562.485V197H563.445ZM572.295 197V196.16H571.035V191.648H572.391V190.808H571.035V189.092H570.171V190.244C570.171 190.664 570.039 190.808 569.631 190.808H569.055V191.648H570.075V195.98C570.075 196.58 570.435 197 571.095 197H572.295ZM576.215 197.144C577.379 197.144 578.267 196.568 578.663 195.728L577.979 195.236C577.655 195.92 577.055 196.304 576.275 196.304C575.123 196.304 574.439 195.5 574.439 194.432V194.144H578.891V193.688C578.891 191.936 577.871 190.664 576.215 190.664C574.535 190.664 573.431 191.936 573.431 193.904C573.431 195.872 574.535 197.144 576.215 197.144ZM576.215 191.468C577.199 191.468 577.859 192.2 577.859 193.292V193.424H574.439V193.34C574.439 192.26 575.171 191.468 576.215 191.468ZM579.565 197H580.633L582.373 194.576H582.409L584.017 197H585.145L582.913 193.808L585.097 190.808H584.029L582.396 193.112H582.361L580.789 190.808H579.661L581.857 193.88L579.565 197ZM588.983 197V196.16H587.723V191.648H589.079V190.808H587.723V189.092H586.859V190.244C586.859 190.664 586.727 190.808 586.319 190.808H585.743V191.648H586.763V195.98C586.763 196.58 587.123 197 587.783 197H588.983ZM595.762 197.144C596.938 197.144 597.742 196.568 598.138 195.68L597.442 195.212C597.106 195.92 596.542 196.292 595.762 196.292C594.622 196.292 594.034 195.512 594.034 194.432V193.376C594.034 192.296 594.622 191.516 595.762 191.516C596.518 191.516 597.046 191.888 597.274 192.524L598.078 192.116C597.718 191.264 596.986 190.664 595.762 190.664C594.021 190.664 593.002 191.924 593.002 193.904C593.002 195.884 594.021 197.144 595.762 197.144ZM604.533 197V196.16H603.825V192.752C603.825 191.444 602.937 190.664 601.449 190.664C600.333 190.664 599.589 191.216 599.253 191.876L599.829 192.416C600.165 191.852 600.657 191.492 601.401 191.492C602.385 191.492 602.865 191.972 602.865 192.848V193.46H601.641C599.841 193.46 599.001 194.108 599.001 195.272C599.001 196.424 599.769 197.144 601.077 197.144C601.941 197.144 602.601 196.748 602.865 195.992H602.925C602.997 196.568 603.285 197 603.993 197H604.533ZM601.233 196.328C600.489 196.328 600.009 195.98 600.009 195.368V195.116C600.009 194.516 600.501 194.18 601.593 194.18H602.865V195.2C602.865 195.836 602.181 196.328 601.233 196.328ZM606.863 197V192.704C606.863 191.912 607.607 191.528 608.375 191.528C609.299 191.528 609.779 192.092 609.779 193.196V197H610.739V193.028C610.739 191.528 609.935 190.664 608.663 190.664C607.739 190.664 607.211 191.12 606.911 191.816H606.863V190.808H605.903V197H606.863ZM620.779 197.684C620.779 196.664 620.119 196.04 618.583 196.04H617.263C616.699 196.04 616.315 195.944 616.315 195.572C616.315 195.188 616.723 194.984 617.131 194.876C617.311 194.912 617.527 194.936 617.731 194.936C619.147 194.936 620.071 194.06 620.071 192.8C620.071 192.14 619.807 191.588 619.363 191.204V190.808H620.539V189.968H619.615C619.099 189.968 618.895 190.316 618.895 190.796V190.904C618.559 190.748 618.163 190.664 617.719 190.664C616.315 190.664 615.391 191.54 615.391 192.8C615.391 193.664 615.823 194.348 616.555 194.696V194.744C615.931 194.9 615.487 195.2 615.487 195.824C615.487 196.244 615.691 196.52 616.039 196.688V196.82C615.427 196.988 615.055 197.348 615.055 198.02C615.055 198.992 615.847 199.544 617.779 199.544C619.771 199.544 620.779 198.956 620.779 197.684ZM619.879 197.756C619.879 198.428 619.255 198.764 618.187 198.764H617.299C616.327 198.764 615.955 198.32 615.955 197.78C615.955 197.396 616.135 197.12 616.531 196.94H618.595C619.555 196.94 619.879 197.264 619.879 197.756ZM617.731 194.168C616.915 194.168 616.399 193.784 616.399 192.968V192.632C616.399 191.816 616.915 191.432 617.731 191.432C618.547 191.432 619.063 191.816 619.063 192.632V192.968C619.063 193.784 618.547 194.168 617.731 194.168ZM624.169 197.144C625.825 197.144 626.965 195.872 626.965 193.904C626.965 191.936 625.825 190.664 624.169 190.664C622.513 190.664 621.373 191.936 621.373 193.904C621.373 195.872 622.513 197.144 624.169 197.144ZM624.169 196.292C623.137 196.292 622.405 195.656 622.405 194.348V193.46C622.405 192.152 623.137 191.516 624.169 191.516C625.201 191.516 625.933 192.152 625.933 193.46V194.348C625.933 195.656 625.201 196.292 624.169 196.292ZM631.379 197H632.339V192.704C632.339 191.912 633.083 191.528 633.851 191.528C634.775 191.528 635.255 192.092 635.255 193.196V197H636.215V193.028C636.215 191.528 635.411 190.664 634.139 190.664C633.215 190.664 632.687 191.12 632.387 191.816H632.339V188.12H631.379V197ZM640.528 197.144C641.692 197.144 642.58 196.568 642.976 195.728L642.292 195.236C641.968 195.92 641.368 196.304 640.588 196.304C639.436 196.304 638.752 195.5 638.752 194.432V194.144H643.204V193.688C643.204 191.936 642.184 190.664 640.528 190.664C638.848 190.664 637.744 191.936 637.744 193.904C637.744 195.872 638.848 197.144 640.528 197.144ZM640.528 191.468C641.512 191.468 642.172 192.2 642.172 193.292V193.424H638.752V193.34C638.752 192.26 639.484 191.468 640.528 191.468ZM645.746 197V192.8C645.746 192.212 646.37 191.768 647.402 191.768H647.966V190.808H647.594C646.586 190.808 646.022 191.36 645.806 191.948H645.746V190.808H644.786V197H645.746ZM651.461 197.144C652.625 197.144 653.513 196.568 653.909 195.728L653.225 195.236C652.901 195.92 652.301 196.304 651.521 196.304C650.369 196.304 649.685 195.5 649.685 194.432V194.144H654.137V193.688C654.137 191.936 653.117 190.664 651.461 190.664C649.781 190.664 648.677 191.936 648.677 193.904C648.677 195.872 649.781 197.144 651.461 197.144ZM651.461 191.468C652.445 191.468 653.105 192.2 653.105 193.292V193.424H649.685V193.34C649.685 192.26 650.417 191.468 651.461 191.468ZM656.097 197.144C656.601 197.144 656.829 196.856 656.829 196.448V196.292C656.829 195.884 656.601 195.596 656.097 195.596C655.593 195.596 655.365 195.884 655.365 196.292V196.448C655.365 196.856 655.593 197.144 656.097 197.144Z" fill="#CC0000"/>
<rect x="461" y="177.5" width="24" height="24" rx="12" fill="#6E04C1"/>
<path d="M472.9 194.656C474.967 194.656 476.046 193.525 476.046 192.03C476.046 190.795 475.305 190.08 474.213 189.781V189.677C475.162 189.352 475.773 188.585 475.773 187.545C475.773 186.167 474.707 185.27 472.9 185.27C471.093 185.27 470.027 186.167 470.027 187.545C470.027 188.585 470.638 189.352 471.587 189.677V189.781C470.495 190.08 469.754 190.795 469.754 192.03C469.754 193.525 470.833 194.656 472.9 194.656ZM472.9 193.707C471.639 193.707 470.911 193.109 470.911 192.082V191.809C470.911 190.782 471.639 190.184 472.9 190.184C474.161 190.184 474.889 190.782 474.889 191.809V192.082C474.889 193.109 474.161 193.707 472.9 193.707ZM472.9 189.274C471.769 189.274 471.158 188.767 471.158 187.844V187.649C471.158 186.726 471.769 186.219 472.9 186.219C474.031 186.219 474.642 186.726 474.642 187.649V187.844C474.642 188.767 474.031 189.274 472.9 189.274Z" fill="white"/>
<line x1="485" y1="190" x2="502" y2="190" stroke="#6E04C1"/>
<rect x="552" y="56" width="24" height="24" rx="12" fill="#6E04C1"/>
<path d="M563.913 73.156C565.733 73.156 566.929 71.934 566.929 70.153C566.929 68.437 565.811 67.358 564.251 67.358C563.146 67.358 562.496 67.917 562.067 68.658L562.002 68.632C562.496 66.526 563.575 65.343 565.512 63.926H564.108C562.652 64.875 560.871 66.981 560.871 69.672C560.871 71.83 562.028 73.156 563.913 73.156ZM563.9 72.207C562.704 72.207 562.002 71.518 562.002 70.296V70.192C562.002 68.97 562.704 68.281 563.9 68.281C565.096 68.281 565.798 68.97 565.798 70.192V70.296C565.798 71.518 565.096 72.207 563.9 72.207Z" fill="white"/>
<line x1="564.5" y1="80" x2="564.5" y2="127" stroke="#6E04C1"/>
<rect x="775" y="56" width="24" height="24" rx="12" fill="#6E04C1"/>
<path d="M786.445 73L789.851 64.888V63.926H783.897V66.552H784.872V64.862H788.746L785.275 73H786.445Z" fill="white"/>
<line x1="787.5" y1="80" x2="787.5" y2="138" stroke="#6E04C1"/>
<rect x="0.5" y="0.5" width="881" height="264" rx="3.5" stroke="#E5E5E5"/>
</svg>
