<svg width="882" height="230" viewBox="0 0 882 230" fill="none" xmlns="http://www.w3.org/2000/svg">
<rect x="0.5" y="0.5" width="881" height="229" rx="3.5" fill="#F8F8F8"/>
<rect x="339" y="128" width="20" height="20" rx="2" fill="#292929"/>
<path d="M354.657 135.172L353.243 133.757L347.586 139.414L344.757 136.586L343.343 138L347.586 142.243L354.657 135.172Z" fill="white"/>
<path d="M374.424 144.192C376.28 144.192 377.64 143.216 378.344 141.648L377.272 140.976C376.824 142.192 375.848 142.992 374.424 142.992C372.504 142.992 371.368 141.6 371.368 139.312V137.648C371.368 135.36 372.504 133.84 374.424 133.84C375.8 133.84 376.728 134.592 377.176 135.744L378.264 135.088C377.56 133.536 376.28 132.64 374.424 132.64C371.608 132.64 369.928 134.752 369.928 138.48C369.928 142.208 371.608 144.192 374.424 144.192ZM380.298 144H381.578V138.272C381.578 137.216 382.57 136.704 383.594 136.704C384.826 136.704 385.466 137.456 385.466 138.928V144H386.746V138.704C386.746 136.704 385.674 135.552 383.978 135.552C382.746 135.552 382.042 136.16 381.642 137.088H381.578V132.16H380.298V144ZM392.495 144.192C394.047 144.192 395.231 143.424 395.759 142.304L394.847 141.648C394.415 142.56 393.615 143.072 392.575 143.072C391.039 143.072 390.127 142 390.127 140.576V140.192H396.063V139.584C396.063 137.248 394.703 135.552 392.495 135.552C390.255 135.552 388.783 137.248 388.783 139.872C388.783 142.496 390.255 144.192 392.495 144.192ZM392.495 136.624C393.807 136.624 394.687 137.6 394.687 139.056V139.232H390.127V139.12C390.127 137.68 391.103 136.624 392.495 136.624ZM401.245 144.192C402.813 144.192 403.885 143.424 404.413 142.24L403.485 141.616C403.037 142.56 402.285 143.056 401.245 143.056C399.725 143.056 398.941 142.016 398.941 140.576V139.168C398.941 137.728 399.725 136.688 401.245 136.688C402.253 136.688 402.957 137.184 403.261 138.032L404.333 137.488C403.853 136.352 402.877 135.552 401.245 135.552C398.924 135.552 397.565 137.232 397.565 139.872C397.565 142.512 398.924 144.192 401.245 144.192ZM406.219 144H407.499V141.056L408.731 139.792L411.467 144H413.019L409.659 139.008L412.715 135.744H411.163L408.827 138.256L407.563 139.664H407.499V132.16H406.219V144ZM414.657 144H415.937V142.656H416.001C416.497 143.68 417.281 144.192 418.417 144.192C420.481 144.192 421.777 142.512 421.777 139.872C421.777 137.232 420.481 135.552 418.417 135.552C417.281 135.552 416.433 136.048 416.001 137.088H415.937V132.16H414.657V144ZM418.065 143.04C416.897 143.04 415.937 142.432 415.937 141.36V138.288C415.937 137.376 416.897 136.704 418.065 136.704C419.505 136.704 420.401 137.696 420.401 139.168V140.576C420.401 142.048 419.505 143.04 418.065 143.04ZM427.058 144.192C429.266 144.192 430.786 142.496 430.786 139.872C430.786 137.248 429.266 135.552 427.058 135.552C424.85 135.552 423.33 137.248 423.33 139.872C423.33 142.496 424.85 144.192 427.058 144.192ZM427.058 143.056C425.682 143.056 424.706 142.208 424.706 140.464V139.28C424.706 137.536 425.682 136.688 427.058 136.688C428.434 136.688 429.41 137.536 429.41 139.28V140.464C429.41 142.208 428.434 143.056 427.058 143.056ZM431.68 144H433.104L435.424 140.768H435.472L437.616 144H439.12L436.144 139.744L439.056 135.744H437.632L435.456 138.816H435.408L433.312 135.744H431.808L434.736 139.84L431.68 144ZM447.09 144V142.88H445.874V132.16H444.594V142.672C444.594 143.44 445.074 144 445.954 144H447.09ZM455.674 144V142.88H454.73V138.336C454.73 136.592 453.546 135.552 451.562 135.552C450.074 135.552 449.082 136.288 448.634 137.168L449.402 137.888C449.85 137.136 450.506 136.656 451.498 136.656C452.81 136.656 453.45 137.296 453.45 138.464V139.28H451.818C449.418 139.28 448.298 140.144 448.298 141.696C448.298 143.232 449.322 144.192 451.066 144.192C452.218 144.192 453.098 143.664 453.45 142.656H453.53C453.626 143.424 454.01 144 454.954 144H455.674ZM451.274 143.104C450.282 143.104 449.642 142.64 449.642 141.824V141.488C449.642 140.688 450.298 140.24 451.754 140.24H453.45V141.6C453.45 142.448 452.538 143.104 451.274 143.104ZM457.501 144H458.781V142.656H458.845C459.341 143.68 460.125 144.192 461.261 144.192C463.325 144.192 464.621 142.512 464.621 139.872C464.621 137.232 463.325 135.552 461.261 135.552C460.125 135.552 459.277 136.048 458.845 137.088H458.781V132.16H457.501V144ZM460.909 143.04C459.741 143.04 458.781 142.432 458.781 141.36V138.288C458.781 137.376 459.741 136.704 460.909 136.704C462.349 136.704 463.245 137.696 463.245 139.168V140.576C463.245 142.048 462.349 143.04 460.909 143.04ZM469.886 144.192C471.438 144.192 472.622 143.424 473.15 142.304L472.238 141.648C471.806 142.56 471.006 143.072 469.966 143.072C468.43 143.072 467.518 142 467.518 140.576V140.192H473.454V139.584C473.454 137.248 472.094 135.552 469.886 135.552C467.646 135.552 466.174 137.248 466.174 139.872C466.174 142.496 467.646 144.192 469.886 144.192ZM469.886 136.624C471.198 136.624 472.078 137.6 472.078 139.056V139.232H467.518V139.12C467.518 137.68 468.494 136.624 469.886 136.624ZM478.059 144V142.88H476.843V132.16H475.563V142.672C475.563 143.44 476.043 144 476.923 144H478.059Z" fill="#292929"/>
<path d="M485.944 135.824L487.256 137.792L488.152 137.136L486.696 135.28L488.968 134.656L488.616 133.584L486.408 134.4L486.504 132.048H485.384L485.48 134.4L483.272 133.584L482.92 134.656L485.192 135.28L483.736 137.136L484.632 137.792L485.944 135.824Z" fill="#CC0000"/>
<rect x="337" y="80" width="24" height="24" rx="12" fill="#6E04C1"/>
<path d="M352.111 97V96.038H349.771V87.926H348.068L345.663 90.175L346.3 90.864L348.588 88.732H348.679V96.038H346.144V97H352.111Z" fill="white"/>
<line x1="348.5" y1="104" x2="348.5" y2="127" stroke="#8000E4"/>
<rect x="381" y="80" width="24" height="24" rx="12" fill="#6E04C1"/>
<path d="M395.929 96.038H391.158L393.602 93.841C394.759 92.801 395.591 91.813 395.591 90.409C395.591 88.862 394.577 87.77 392.809 87.77C391.054 87.77 390.248 88.836 389.897 89.902L390.872 90.279C391.119 89.421 391.639 88.745 392.757 88.745C393.875 88.745 394.434 89.434 394.434 90.435V90.591C394.434 91.462 393.784 92.372 392.939 93.152L389.975 95.882V97H395.929V96.038Z" fill="white"/>
<line x1="392.5" y1="104" x2="392.5" y2="131" stroke="#8000E4"/>
<rect x="521" y="122" width="24" height="24" rx="12" fill="#6E04C1"/>
<path d="M531.405 133.774V134.723H532.471C533.745 134.723 534.421 135.334 534.421 136.4V136.504C534.421 137.57 533.745 138.181 532.471 138.181C531.366 138.181 530.833 137.7 530.365 136.985L529.546 137.609C530.105 138.389 530.911 139.156 532.484 139.156C534.33 139.156 535.565 138.077 535.565 136.517C535.565 135.152 534.629 134.424 533.654 134.229V134.177C534.616 133.93 535.396 133.228 535.396 132.058C535.396 130.589 534.174 129.77 532.64 129.77C531.184 129.77 530.391 130.524 529.936 131.252L530.742 131.876C531.119 131.187 531.678 130.745 532.614 130.745C533.576 130.745 534.239 131.226 534.239 132.175V132.266C534.239 133.137 533.615 133.774 532.393 133.774H531.405Z" fill="white"/>
<line x1="521" y1="134.5" x2="492" y2="134.5" stroke="#8000E4"/>
<rect x="0.5" y="0.5" width="881" height="229" rx="3.5" stroke="#E5E5E5"/>
</svg>
