<svg width="882" height="230" viewBox="0 0 882 230" fill="none" xmlns="http://www.w3.org/2000/svg">
<rect x="0.5" y="0.5" width="881" height="229" rx="3.5" fill="#F8F8F8"/>
<rect x="392.5" y="110" width="134" height="47" fill="#FCFCFC"/>
<path d="M426.75 133.5C426.754 131.572 426.123 129.697 424.955 128.164C423.786 126.631 422.146 125.526 420.286 125.019C418.426 124.513 416.451 124.633 414.667 125.361C412.882 126.089 411.387 127.385 410.413 129.049C409.439 130.712 409.04 132.65 409.278 134.562C409.516 136.475 410.377 138.256 411.729 139.63C413.08 141.004 414.847 141.895 416.756 142.164C418.664 142.433 420.608 142.066 422.287 141.12L422.36 141.135L422.376 141.066C423.704 140.299 424.808 139.196 425.575 137.868C426.343 136.54 426.748 135.034 426.75 133.5V133.5ZM410.5 133.5C410.502 132.867 410.585 132.237 410.747 131.625H413.399L416.519 134.225L415.325 135.816C415.146 136.057 415.059 136.355 415.08 136.655C415.102 136.954 415.23 137.237 415.441 137.45L416.75 138.759V140.887C415.004 140.591 413.419 139.687 412.276 138.335C411.132 136.983 410.503 135.271 410.5 133.5V133.5ZM416.325 136.566L418.231 134.025L413.851 130.375H411.191C411.647 129.375 412.318 128.487 413.156 127.776C413.994 127.065 414.979 126.547 416.04 126.26C417.101 125.972 418.212 125.923 419.295 126.114C420.377 126.305 421.404 126.733 422.302 127.366L421.925 128.5H418.366L416.464 130.402L422.31 135.598L421.28 140.234C420.26 140.737 419.137 140.999 418 141V138.241L416.325 136.566ZM422.772 139.281L423.53 135.869C423.578 135.652 423.568 135.425 423.499 135.214C423.431 135.002 423.307 134.812 423.14 134.664L418.286 130.348L418.884 129.75H421.925C422.187 129.75 422.443 129.668 422.656 129.514C422.869 129.361 423.028 129.144 423.11 128.895L423.331 128.233C424.064 128.972 424.635 129.856 425.006 130.829C425.378 131.801 425.543 132.841 425.49 133.88C425.438 134.92 425.169 135.938 424.701 136.868C424.233 137.798 423.576 138.62 422.772 139.281H422.772Z" fill="#292929"/>
<path d="M440.72 139.692C443.28 139.692 444.768 138.3 444.768 136.22C444.768 134.444 443.76 133.452 441.536 133.02L440.544 132.812C439.344 132.572 438.768 132.172 438.768 131.244C438.768 130.268 439.504 129.74 440.784 129.74C442.016 129.74 442.816 130.22 443.392 130.972L444.656 129.852C443.792 128.748 442.56 128.14 440.88 128.14C438.512 128.14 436.976 129.356 436.976 131.34C436.976 133.116 438.08 134.124 440.24 134.524L441.232 134.7C442.528 134.956 442.976 135.452 442.976 136.316C442.976 137.388 442.24 138.092 440.816 138.092C439.6 138.092 438.672 137.596 437.888 136.636L436.64 137.804C437.568 138.956 438.848 139.692 440.72 139.692ZM450.075 139.692C452.395 139.692 453.899 137.996 453.899 135.34C453.899 132.684 452.395 130.988 450.075 130.988C447.755 130.988 446.251 132.684 446.251 135.34C446.251 137.996 447.755 139.692 450.075 139.692ZM450.075 138.252C448.891 138.252 448.091 137.516 448.091 136.044V134.636C448.091 133.164 448.891 132.428 450.075 132.428C451.259 132.428 452.059 133.164 452.059 134.636V136.044C452.059 137.516 451.259 138.252 450.075 138.252ZM457.586 139.5V133.916C457.586 132.956 458.434 132.492 459.298 132.492C460.322 132.492 460.818 133.132 460.818 134.428V139.5H462.562V133.916C462.562 132.956 463.378 132.492 464.258 132.492C465.314 132.492 465.794 133.148 465.794 134.428V139.5H467.538V134.22C467.538 132.172 466.562 130.988 464.914 130.988C463.57 130.988 462.706 131.756 462.402 132.684H462.354C461.954 131.532 461.01 130.988 459.89 130.988C458.626 130.988 458.002 131.692 457.666 132.556H457.586V131.18H455.842V139.5H457.586ZM473.215 139.692C474.767 139.692 475.983 139.02 476.607 138.012L475.583 137.004C475.103 137.772 474.415 138.252 473.391 138.252C471.983 138.252 471.199 137.34 471.199 136.06V135.788H476.911V135.132C476.911 132.828 475.663 130.988 473.215 130.988C470.847 130.988 469.391 132.684 469.391 135.34C469.391 137.996 470.847 139.692 473.215 139.692ZM473.215 132.348C474.367 132.348 475.071 133.196 475.071 134.476V134.636H471.199V134.524C471.199 133.244 472.015 132.348 473.215 132.348ZM486.447 139.5V138.076H484.831V132.604H486.575V131.18H484.831V128.908H483.263V130.364C483.263 130.94 483.071 131.18 482.495 131.18H481.791V132.604H483.087V137.692C483.087 138.828 483.727 139.5 484.927 139.5H486.447ZM491.668 139.692C493.22 139.692 494.436 139.02 495.06 138.012L494.036 137.004C493.556 137.772 492.868 138.252 491.844 138.252C490.436 138.252 489.652 137.34 489.652 136.06V135.788H495.364V135.132C495.364 132.828 494.116 130.988 491.668 130.988C489.3 130.988 487.844 132.684 487.844 135.34C487.844 137.996 489.3 139.692 491.668 139.692ZM491.668 132.348C492.82 132.348 493.524 133.196 493.524 134.476V134.636H489.652V134.524C489.652 133.244 490.468 132.348 491.668 132.348ZM496.148 139.5H498.004L500.004 136.476H500.052L501.972 139.5H503.988L501.092 135.276L503.94 131.18H502.084L500.164 134.076H500.116L498.244 131.18H496.228L499.076 135.292L496.148 139.5ZM509.385 139.5V138.076H507.769V132.604H509.513V131.18H507.769V128.908H506.201V130.364C506.201 130.94 506.009 131.18 505.433 131.18H504.729V132.604H506.025V137.692C506.025 138.828 506.664 139.5 507.865 139.5H509.385Z" fill="#292929"/>
<rect x="392.5" y="110" width="134" height="47" stroke="#E5E5E5"/>
<path d="M524.5 110H655C656.933 110 658.5 111.567 658.5 113.5V153.5C658.5 155.433 656.933 157 655 157H524.5V110Z" fill="#FCFCFC"/>
<path d="M558.75 133.5C558.754 131.572 558.123 129.697 556.955 128.164C555.786 126.631 554.146 125.526 552.286 125.019C550.426 124.513 548.451 124.633 546.667 125.361C544.882 126.089 543.387 127.385 542.413 129.049C541.439 130.712 541.04 132.65 541.278 134.562C541.516 136.475 542.377 138.256 543.729 139.63C545.08 141.004 546.847 141.895 548.756 142.164C550.664 142.433 552.608 142.066 554.287 141.12L554.36 141.135L554.376 141.066C555.704 140.299 556.808 139.196 557.575 137.868C558.343 136.54 558.748 135.034 558.75 133.5V133.5ZM542.5 133.5C542.502 132.867 542.585 132.237 542.747 131.625H545.399L548.519 134.225L547.325 135.816C547.146 136.057 547.059 136.355 547.08 136.655C547.102 136.954 547.23 137.237 547.441 137.45L548.75 138.759V140.887C547.004 140.591 545.419 139.687 544.276 138.335C543.132 136.983 542.503 135.271 542.5 133.5V133.5ZM548.325 136.566L550.231 134.025L545.851 130.375H543.191C543.647 129.375 544.318 128.487 545.156 127.776C545.994 127.065 546.979 126.547 548.04 126.26C549.101 125.972 550.212 125.923 551.295 126.114C552.377 126.305 553.404 126.733 554.302 127.366L553.925 128.5H550.366L548.464 130.402L554.31 135.598L553.28 140.234C552.26 140.737 551.137 140.999 550 141V138.241L548.325 136.566ZM554.772 139.281L555.53 135.869C555.578 135.652 555.568 135.425 555.499 135.214C555.431 135.002 555.307 134.812 555.14 134.664L550.286 130.348L550.884 129.75H553.925C554.187 129.75 554.443 129.668 554.656 129.514C554.869 129.361 555.028 129.144 555.11 128.895L555.331 128.233C556.064 128.972 556.635 129.856 557.006 130.829C557.378 131.801 557.543 132.841 557.49 133.88C557.438 134.92 557.169 135.938 556.701 136.868C556.233 137.798 555.576 138.62 554.772 139.281H554.772Z" fill="#292929"/>
<path d="M572.72 139.692C575.28 139.692 576.768 138.3 576.768 136.22C576.768 134.444 575.76 133.452 573.536 133.02L572.544 132.812C571.344 132.572 570.768 132.172 570.768 131.244C570.768 130.268 571.504 129.74 572.784 129.74C574.016 129.74 574.816 130.22 575.392 130.972L576.656 129.852C575.792 128.748 574.56 128.14 572.88 128.14C570.512 128.14 568.976 129.356 568.976 131.34C568.976 133.116 570.08 134.124 572.24 134.524L573.232 134.7C574.528 134.956 574.976 135.452 574.976 136.316C574.976 137.388 574.24 138.092 572.816 138.092C571.6 138.092 570.672 137.596 569.888 136.636L568.64 137.804C569.568 138.956 570.848 139.692 572.72 139.692ZM582.075 139.692C584.395 139.692 585.899 137.996 585.899 135.34C585.899 132.684 584.395 130.988 582.075 130.988C579.755 130.988 578.251 132.684 578.251 135.34C578.251 137.996 579.755 139.692 582.075 139.692ZM582.075 138.252C580.891 138.252 580.091 137.516 580.091 136.044V134.636C580.091 133.164 580.891 132.428 582.075 132.428C583.259 132.428 584.059 133.164 584.059 134.636V136.044C584.059 137.516 583.259 138.252 582.075 138.252ZM589.586 139.5V133.916C589.586 132.956 590.434 132.492 591.298 132.492C592.322 132.492 592.818 133.132 592.818 134.428V139.5H594.562V133.916C594.562 132.956 595.378 132.492 596.258 132.492C597.314 132.492 597.794 133.148 597.794 134.428V139.5H599.538V134.22C599.538 132.172 598.562 130.988 596.914 130.988C595.57 130.988 594.706 131.756 594.402 132.684H594.354C593.954 131.532 593.01 130.988 591.89 130.988C590.626 130.988 590.002 131.692 589.666 132.556H589.586V131.18H587.842V139.5H589.586ZM605.215 139.692C606.767 139.692 607.983 139.02 608.607 138.012L607.583 137.004C607.103 137.772 606.415 138.252 605.391 138.252C603.983 138.252 603.199 137.34 603.199 136.06V135.788H608.911V135.132C608.911 132.828 607.663 130.988 605.215 130.988C602.847 130.988 601.391 132.684 601.391 135.34C601.391 137.996 602.847 139.692 605.215 139.692ZM605.215 132.348C606.367 132.348 607.071 133.196 607.071 134.476V134.636H603.199V134.524C603.199 133.244 604.015 132.348 605.215 132.348ZM618.447 139.5V138.076H616.831V132.604H618.575V131.18H616.831V128.908H615.263V130.364C615.263 130.94 615.071 131.18 614.495 131.18H613.791V132.604H615.087V137.692C615.087 138.828 615.727 139.5 616.927 139.5H618.447ZM623.668 139.692C625.22 139.692 626.436 139.02 627.06 138.012L626.036 137.004C625.556 137.772 624.868 138.252 623.844 138.252C622.436 138.252 621.652 137.34 621.652 136.06V135.788H627.364V135.132C627.364 132.828 626.116 130.988 623.668 130.988C621.3 130.988 619.844 132.684 619.844 135.34C619.844 137.996 621.3 139.692 623.668 139.692ZM623.668 132.348C624.82 132.348 625.524 133.196 625.524 134.476V134.636H621.652V134.524C621.652 133.244 622.468 132.348 623.668 132.348ZM628.148 139.5H630.004L632.004 136.476H632.052L633.972 139.5H635.988L633.092 135.276L635.94 131.18H634.084L632.164 134.076H632.116L630.244 131.18H628.228L631.076 135.292L628.148 139.5ZM641.385 139.5V138.076H639.769V132.604H641.513V131.18H639.769V128.908H638.201V130.364C638.201 130.94 638.009 131.18 637.433 131.18H636.729V132.604H638.025V137.692C638.025 138.828 638.664 139.5 639.865 139.5H641.385Z" fill="#292929"/>
<path d="M524.5 110H655C656.933 110 658.5 111.567 658.5 113.5V153.5C658.5 155.433 656.933 157 655 157H524.5V110Z" stroke="#E5E5E5"/>
<path d="M264 110H394.5V157H264C262.067 157 260.5 155.433 260.5 153.5V113.5C260.5 111.567 262.067 110 264 110Z" fill="white"/>
<path d="M294.75 133.5C294.754 131.572 294.123 129.697 292.955 128.164C291.786 126.631 290.146 125.526 288.286 125.019C286.426 124.513 284.451 124.633 282.667 125.361C280.882 126.089 279.387 127.385 278.413 129.049C277.439 130.712 277.04 132.65 277.278 134.562C277.516 136.475 278.377 138.256 279.729 139.63C281.08 141.004 282.847 141.895 284.756 142.164C286.664 142.433 288.608 142.066 290.287 141.12L290.36 141.135L290.376 141.066C291.704 140.299 292.808 139.196 293.575 137.868C294.343 136.54 294.748 135.034 294.75 133.5V133.5ZM278.5 133.5C278.502 132.867 278.585 132.237 278.747 131.625H281.399L284.519 134.225L283.325 135.816C283.146 136.057 283.059 136.355 283.08 136.655C283.102 136.954 283.23 137.237 283.441 137.45L284.75 138.759V140.887C283.004 140.591 281.419 139.687 280.276 138.335C279.132 136.983 278.503 135.271 278.5 133.5V133.5ZM284.325 136.566L286.231 134.025L281.851 130.375H279.191C279.647 129.375 280.318 128.487 281.156 127.776C281.994 127.065 282.979 126.547 284.04 126.26C285.101 125.972 286.212 125.923 287.295 126.114C288.377 126.305 289.404 126.733 290.302 127.366L289.925 128.5H286.366L284.464 130.402L290.31 135.598L289.28 140.234C288.26 140.737 287.137 140.999 286 141V138.241L284.325 136.566ZM290.772 139.281L291.53 135.869C291.578 135.652 291.568 135.425 291.499 135.214C291.431 135.002 291.307 134.812 291.14 134.664L286.286 130.348L286.884 129.75H289.925C290.187 129.75 290.443 129.668 290.656 129.514C290.869 129.361 291.028 129.144 291.11 128.895L291.331 128.233C292.064 128.972 292.635 129.856 293.006 130.829C293.378 131.801 293.543 132.841 293.49 133.88C293.438 134.92 293.169 135.938 292.701 136.868C292.233 137.798 291.576 138.62 290.772 139.281H290.772Z" fill="#292929"/>
<path d="M308.72 139.692C311.28 139.692 312.768 138.3 312.768 136.22C312.768 134.444 311.76 133.452 309.536 133.02L308.544 132.812C307.344 132.572 306.768 132.172 306.768 131.244C306.768 130.268 307.504 129.74 308.784 129.74C310.016 129.74 310.816 130.22 311.392 130.972L312.656 129.852C311.792 128.748 310.56 128.14 308.88 128.14C306.512 128.14 304.976 129.356 304.976 131.34C304.976 133.116 306.08 134.124 308.24 134.524L309.232 134.7C310.528 134.956 310.976 135.452 310.976 136.316C310.976 137.388 310.24 138.092 308.816 138.092C307.6 138.092 306.672 137.596 305.888 136.636L304.64 137.804C305.568 138.956 306.848 139.692 308.72 139.692ZM318.075 139.692C320.395 139.692 321.899 137.996 321.899 135.34C321.899 132.684 320.395 130.988 318.075 130.988C315.755 130.988 314.251 132.684 314.251 135.34C314.251 137.996 315.755 139.692 318.075 139.692ZM318.075 138.252C316.891 138.252 316.091 137.516 316.091 136.044V134.636C316.091 133.164 316.891 132.428 318.075 132.428C319.259 132.428 320.059 133.164 320.059 134.636V136.044C320.059 137.516 319.259 138.252 318.075 138.252ZM325.586 139.5V133.916C325.586 132.956 326.434 132.492 327.298 132.492C328.322 132.492 328.818 133.132 328.818 134.428V139.5H330.562V133.916C330.562 132.956 331.378 132.492 332.258 132.492C333.314 132.492 333.794 133.148 333.794 134.428V139.5H335.538V134.22C335.538 132.172 334.562 130.988 332.914 130.988C331.57 130.988 330.706 131.756 330.402 132.684H330.354C329.954 131.532 329.01 130.988 327.89 130.988C326.626 130.988 326.002 131.692 325.666 132.556H325.586V131.18H323.842V139.5H325.586ZM341.215 139.692C342.767 139.692 343.983 139.02 344.607 138.012L343.583 137.004C343.103 137.772 342.415 138.252 341.391 138.252C339.983 138.252 339.199 137.34 339.199 136.06V135.788H344.911V135.132C344.911 132.828 343.663 130.988 341.215 130.988C338.847 130.988 337.391 132.684 337.391 135.34C337.391 137.996 338.847 139.692 341.215 139.692ZM341.215 132.348C342.367 132.348 343.071 133.196 343.071 134.476V134.636H339.199V134.524C339.199 133.244 340.015 132.348 341.215 132.348ZM354.447 139.5V138.076H352.831V132.604H354.575V131.18H352.831V128.908H351.263V130.364C351.263 130.94 351.071 131.18 350.495 131.18H349.791V132.604H351.087V137.692C351.087 138.828 351.727 139.5 352.927 139.5H354.447ZM359.668 139.692C361.22 139.692 362.436 139.02 363.06 138.012L362.036 137.004C361.556 137.772 360.868 138.252 359.844 138.252C358.436 138.252 357.652 137.34 357.652 136.06V135.788H363.364V135.132C363.364 132.828 362.116 130.988 359.668 130.988C357.3 130.988 355.844 132.684 355.844 135.34C355.844 137.996 357.3 139.692 359.668 139.692ZM359.668 132.348C360.82 132.348 361.524 133.196 361.524 134.476V134.636H357.652V134.524C357.652 133.244 358.468 132.348 359.668 132.348ZM364.148 139.5H366.004L368.004 136.476H368.052L369.972 139.5H371.988L369.092 135.276L371.94 131.18H370.084L368.164 134.076H368.116L366.244 131.18H364.228L367.076 135.292L364.148 139.5ZM377.385 139.5V138.076H375.769V132.604H377.513V131.18H375.769V128.908H374.201V130.364C374.201 130.94 374.009 131.18 373.433 131.18H372.729V132.604H374.025V137.692C374.025 138.828 374.664 139.5 375.865 139.5H377.385Z" fill="#292929"/>
<path d="M264 110H394.5V157H264C262.067 157 260.5 155.433 260.5 153.5V113.5C260.5 111.567 262.067 110 264 110Z" stroke="#292929"/>
<rect x="225" y="121.5" width="24" height="24" rx="12" fill="#6E04C1"/>
<path d="M240.111 138.5V137.538H237.771V129.426H236.068L233.663 131.675L234.3 132.364L236.588 130.232H236.679V137.538H234.144V138.5H240.111Z" fill="white"/>
<line x1="251" y1="133" x2="274" y2="133" stroke="#8000E4"/>
<rect x="308" y="72.5" width="24" height="24" rx="12" fill="#6E04C1"/>
<path d="M322.929 88.538H318.158L320.602 86.341C321.759 85.301 322.591 84.313 322.591 82.909C322.591 81.362 321.577 80.27 319.809 80.27C318.054 80.27 317.248 81.336 316.897 82.402L317.872 82.779C318.119 81.921 318.639 81.245 319.757 81.245C320.875 81.245 321.434 81.934 321.434 82.935V83.091C321.434 83.962 320.784 84.872 319.939 85.652L316.975 88.382V89.5H322.929V88.538Z" fill="white"/>
<line x1="319.5" y1="126.5" x2="319.5" y2="94.5" stroke="#8000E4"/>
<rect x="0.5" y="0.5" width="881" height="229" rx="3.5" stroke="#E5E5E5"/>
</svg>
