<svg width="400" height="240" viewBox="0 0 400 240" fill="none" xmlns="http://www.w3.org/2000/svg">
<rect x="164.5" y="96.5" width="95" height="47" fill="#FCFCFC"/>
<path d="M197.319 115.806L194.194 112.681C194.135 112.623 194.066 112.578 193.99 112.546C193.914 112.515 193.832 112.5 193.75 112.5H183.75C183.418 112.5 183.101 112.632 182.866 112.866C182.632 113.101 182.5 113.418 182.5 113.75V126.25C182.5 126.582 182.632 126.899 182.866 127.134C183.101 127.368 183.418 127.5 183.75 127.5H196.25C196.582 127.5 196.899 127.368 197.134 127.134C197.368 126.899 197.5 126.582 197.5 126.25V116.25C197.5 116.168 197.485 116.086 197.454 116.01C197.423 115.934 197.377 115.865 197.319 115.806ZM187.5 113.75H192.5V116.25H187.5V113.75ZM192.5 126.25H187.5V121.25H192.5V126.25ZM193.75 126.25V121.25C193.75 120.918 193.618 120.601 193.384 120.366C193.149 120.132 192.832 120 192.5 120H187.5C187.168 120 186.851 120.132 186.616 120.366C186.382 120.601 186.25 120.918 186.25 121.25V126.25H183.75V113.75H186.25V116.25C186.25 116.582 186.382 116.899 186.616 117.134C186.851 117.368 187.168 117.5 187.5 117.5H192.5C192.832 117.5 193.149 117.368 193.384 117.134C193.618 116.899 193.75 116.582 193.75 116.25V114.006L196.25 116.506V126.25H193.75Z" fill="#292929"/>
<path d="M212.72 126.192C215.28 126.192 216.768 124.8 216.768 122.72C216.768 120.944 215.76 119.952 213.536 119.52L212.544 119.312C211.344 119.072 210.768 118.672 210.768 117.744C210.768 116.768 211.504 116.24 212.784 116.24C214.016 116.24 214.816 116.72 215.392 117.472L216.656 116.352C215.792 115.248 214.56 114.64 212.88 114.64C210.512 114.64 208.976 115.856 208.976 117.84C208.976 119.616 210.08 120.624 212.24 121.024L213.232 121.2C214.528 121.456 214.976 121.952 214.976 122.816C214.976 123.888 214.24 124.592 212.816 124.592C211.6 124.592 210.672 124.096 209.888 123.136L208.64 124.304C209.568 125.456 210.848 126.192 212.72 126.192ZM225.883 126V124.576H225.003V120.4C225.003 118.544 223.803 117.488 221.659 117.488C220.043 117.488 219.067 118.176 218.523 119.104L219.562 120.048C219.979 119.392 220.571 118.912 221.547 118.912C222.715 118.912 223.259 119.504 223.259 120.512V121.216H221.755C219.435 121.216 218.203 122.064 218.203 123.712C218.203 125.216 219.179 126.192 220.891 126.192C222.107 126.192 223.003 125.648 223.323 124.608H223.403C223.515 125.424 223.995 126 224.907 126H225.883ZM221.387 124.864C220.523 124.864 219.979 124.48 219.979 123.744V123.456C219.979 122.736 220.571 122.336 221.786 122.336H223.259V123.536C223.259 124.352 222.459 124.864 221.387 124.864ZM231.307 126L234.171 117.68H232.507L231.211 121.472L230.363 124.384H230.267L229.419 121.472L228.155 117.68H226.427L229.259 126H231.307ZM238.778 126.192C240.33 126.192 241.546 125.52 242.17 124.512L241.146 123.504C240.666 124.272 239.978 124.752 238.954 124.752C237.546 124.752 236.762 123.84 236.762 122.56V122.288H242.474V121.632C242.474 119.328 241.226 117.488 238.778 117.488C236.41 117.488 234.954 119.184 234.954 121.84C234.954 124.496 236.41 126.192 238.778 126.192ZM238.778 118.848C239.93 118.848 240.634 119.696 240.634 120.976V121.136H236.762V121.024C236.762 119.744 237.578 118.848 238.778 118.848Z" fill="#292929"/>
<rect x="164.5" y="96.5" width="95" height="47" stroke="#E5E5E5"/>
<path d="M259.5 96.5H364C365.933 96.5 367.5 98.067 367.5 100V140C367.5 141.933 365.933 143.5 364 143.5H259.5V96.5Z" fill="#FCFCFC"/>
<path d="M283.125 123.125H291.356L289.744 124.744L290.625 125.625L293.75 122.5L290.625 119.375L289.744 120.256L291.356 121.875H283.125V123.125Z" fill="#292929"/>
<path d="M288.75 118.75V116.25C288.75 116.168 288.735 116.086 288.704 116.01C288.673 115.934 288.627 115.865 288.569 115.806L284.194 111.431C284.135 111.373 284.066 111.328 283.99 111.296C283.914 111.265 283.832 111.25 283.75 111.25H277.5C277.168 111.25 276.851 111.382 276.616 111.616C276.382 111.851 276.25 112.168 276.25 112.5V127.5C276.25 127.832 276.382 128.149 276.616 128.384C276.851 128.618 277.168 128.75 277.5 128.75H287.5C287.832 128.75 288.149 128.618 288.384 128.384C288.618 128.149 288.75 127.832 288.75 127.5V126.25H287.5V127.5H277.5V112.5H282.5V116.25C282.5 116.582 282.632 116.899 282.866 117.134C283.101 117.368 283.418 117.5 283.75 117.5H287.5V118.75H288.75ZM283.75 116.25V112.756L287.244 116.25H283.75Z" fill="#292929"/>
<path d="M311.528 126V124.4H306.184V121.136H311.032V119.536H306.184V116.432H311.528V114.832H304.376V126H311.528ZM312.804 126H314.66L316.66 122.976H316.708L318.628 126H320.644L317.748 121.776L320.596 117.68H318.74L316.82 120.576H316.772L314.9 117.68H312.884L315.732 121.792L312.804 126ZM322.217 129.2H323.961V124.624H324.041C324.393 125.6 325.273 126.192 326.377 126.192C328.473 126.192 329.689 124.576 329.689 121.84C329.689 119.104 328.473 117.488 326.377 117.488C325.273 117.488 324.393 118.064 324.041 119.056H323.961V117.68H322.217V129.2ZM325.849 124.688C324.793 124.688 323.961 124.112 323.961 123.264V120.416C323.961 119.568 324.793 118.992 325.849 118.992C327.049 118.992 327.849 119.84 327.849 121.12V122.56C327.849 123.84 327.049 124.688 325.849 124.688ZM334.95 126.192C337.27 126.192 338.774 124.496 338.774 121.84C338.774 119.184 337.27 117.488 334.95 117.488C332.63 117.488 331.126 119.184 331.126 121.84C331.126 124.496 332.63 126.192 334.95 126.192ZM334.95 124.752C333.766 124.752 332.966 124.016 332.966 122.544V121.136C332.966 119.664 333.766 118.928 334.95 118.928C336.134 118.928 336.934 119.664 336.934 121.136V122.544C336.934 124.016 336.134 124.752 334.95 124.752ZM342.461 126V120.688C342.461 119.824 343.229 119.36 344.605 119.36H345.293V117.68H344.829C343.501 117.68 342.781 118.432 342.541 119.28H342.461V117.68H340.717V126H342.461ZM350.728 126V124.576H349.112V119.104H350.856V117.68H349.112V115.408H347.544V116.864C347.544 117.44 347.352 117.68 346.776 117.68H346.072V119.104H347.368V124.192C347.368 125.328 348.008 126 349.208 126H350.728Z" fill="#292929"/>
<path d="M259.5 96.5H364C365.933 96.5 367.5 98.067 367.5 100V140C367.5 141.933 365.933 143.5 364 143.5H259.5V96.5Z" stroke="#E5E5E5"/>
<path d="M31.5 100C31.5 98.067 33.067 96.5 35 96.5H164.5V143.5H35C33.067 143.5 31.5 141.933 31.5 140V100Z" fill="#FCFCFC"/>
<path d="M63.25 125V127.5H50.75V125H49.5V127.5C49.5 127.832 49.6317 128.149 49.8661 128.384C50.1005 128.618 50.4185 128.75 50.75 128.75H63.25C63.5815 128.75 63.8995 128.618 64.1339 128.384C64.3683 128.149 64.5 127.832 64.5 127.5V125H63.25ZM63.25 118.75L62.3687 117.869L57.625 122.606V111.25H56.375V122.606L51.6312 117.869L50.75 118.75L57 125L63.25 118.75Z" fill="#292929"/>
<path d="M76.376 126H80.328C83.176 126 85.048 124.144 85.048 120.416C85.048 116.688 83.176 114.832 80.328 114.832H76.376V126ZM78.184 124.4V116.432H80.328C81.992 116.432 83.112 117.504 83.112 119.52V121.312C83.112 123.328 81.992 124.4 80.328 124.4H78.184ZM90.4339 126.192C92.7539 126.192 94.2579 124.496 94.2579 121.84C94.2579 119.184 92.7539 117.488 90.4339 117.488C88.1139 117.488 86.6099 119.184 86.6099 121.84C86.6099 124.496 88.1139 126.192 90.4339 126.192ZM90.4339 124.752C89.2499 124.752 88.4499 124.016 88.4499 122.544V121.136C88.4499 119.664 89.2499 118.928 90.4339 118.928C91.6179 118.928 92.4179 119.664 92.4179 121.136V122.544C92.4179 124.016 91.6179 124.752 90.4339 124.752ZM97.5318 126H99.4518L100.556 122.208L101.212 119.872H101.244L101.916 122.208L103.004 126H104.972L107.212 117.68H105.596L104.732 121.168L103.996 124.32H103.948L103.068 121.168L102.044 117.68H100.476L99.4678 121.168L98.6038 124.32H98.5558L97.8038 121.168L96.9557 117.68H95.2598L97.5318 126ZM110.617 126V120.432C110.617 119.456 111.513 118.992 112.425 118.992C113.497 118.992 113.993 119.648 113.993 120.944V126H115.737V120.72C115.737 118.672 114.729 117.488 113.033 117.488C111.753 117.488 111.049 118.16 110.697 119.056H110.617V117.68H108.873V126H110.617ZM121.05 126V124.576H119.898V114.16H118.154V124.272C118.154 125.344 118.746 126 119.93 126H121.05ZM125.981 126.192C128.301 126.192 129.805 124.496 129.805 121.84C129.805 119.184 128.301 117.488 125.981 117.488C123.661 117.488 122.157 119.184 122.157 121.84C122.157 124.496 123.661 126.192 125.981 126.192ZM125.981 124.752C124.797 124.752 123.997 124.016 123.997 122.544V121.136C123.997 119.664 124.797 118.928 125.981 118.928C127.165 118.928 127.965 119.664 127.965 121.136V122.544C127.965 124.016 127.165 124.752 125.981 124.752ZM138.82 126V124.576H137.94V120.4C137.94 118.544 136.74 117.488 134.596 117.488C132.98 117.488 132.004 118.176 131.46 119.104L132.5 120.048C132.916 119.392 133.508 118.912 134.484 118.912C135.652 118.912 136.196 119.504 136.196 120.512V121.216H134.692C132.372 121.216 131.14 122.064 131.14 123.712C131.14 125.216 132.116 126.192 133.828 126.192C135.044 126.192 135.94 125.648 136.26 124.608H136.34C136.452 125.424 136.932 126 137.844 126H138.82ZM134.324 124.864C133.46 124.864 132.916 124.48 132.916 123.744V123.456C132.916 122.736 133.508 122.336 134.724 122.336H136.196V123.536C136.196 124.352 135.396 124.864 134.324 124.864ZM145.761 126H147.505V114.16H145.761V119.056H145.681C145.329 118.064 144.449 117.488 143.345 117.488C141.249 117.488 140.033 119.104 140.033 121.84C140.033 124.576 141.249 126.192 143.345 126.192C144.449 126.192 145.329 125.6 145.681 124.624H145.761V126ZM143.873 124.688C142.673 124.688 141.873 123.84 141.873 122.56V121.12C141.873 119.84 142.673 118.992 143.873 118.992C144.929 118.992 145.761 119.568 145.761 120.416V123.264C145.761 124.112 144.929 124.688 143.873 124.688Z" fill="#292929"/>
<path d="M31.5 100C31.5 98.067 33.067 96.5 35 96.5H164.5V143.5H35C33.067 143.5 31.5 141.933 31.5 140V100Z" stroke="#E5E5E5"/>
</svg>
