<svg width="400" height="240" viewBox="0 0 400 240" fill="none" xmlns="http://www.w3.org/2000/svg">
<rect x="168.5" y="96.5" width="51" height="47" fill="#FCFCFC"/>
<path d="M195.606 127.5C195.186 126.703 194 123.891 194 117.5V117.418L194.698 117.883C195.253 118.252 195.708 118.753 196.022 119.34C196.337 119.928 196.501 120.584 196.5 121.25H197.75C197.751 120.378 197.536 119.519 197.125 118.75C196.713 117.981 196.118 117.326 195.392 116.843L194.502 116.25H195.458C196.405 116.252 197.325 116.559 198.083 117.125L199.25 118L200 117L198.833 116.125C197.858 115.397 196.675 115.003 195.458 115H194.698C195.515 114.203 196.609 113.755 197.75 113.75H199V112.5H197.75C196.91 112.503 196.082 112.694 195.325 113.057C194.568 113.421 193.902 113.949 193.375 114.603C192.848 113.949 192.182 113.421 191.425 113.057C190.668 112.694 189.84 112.503 189 112.5H187.75V113.75H189C190.141 113.755 191.235 114.203 192.052 115H191.292C190.075 115.003 188.891 115.397 187.917 116.125L186.75 117L187.5 118L188.667 117.125C189.425 116.559 190.345 116.252 191.292 116.25H192.249L191.359 116.843C190.632 117.326 190.037 117.981 189.625 118.75C189.214 119.519 188.999 120.378 189 121.25H190.25C190.249 120.584 190.413 119.928 190.728 119.34C191.042 118.753 191.497 118.252 192.052 117.883L192.75 117.418V117.5C192.75 123.09 193.632 126.103 194.226 127.5H185.25V128.75H202.75V127.5H195.606Z" fill="#292929"/>
<rect x="168.5" y="96.5" width="51" height="47" stroke="#E5E5E5"/>
<path d="M219.5 96.5H267C268.933 96.5 270.5 98.067 270.5 100V140C270.5 141.933 268.933 143.5 267 143.5H219.5V96.5Z" fill="#FCFCFC"/>
<path d="M251.25 128.75H250V126.875C249.999 126.046 249.669 125.252 249.084 124.666C248.498 124.081 247.704 123.751 246.875 123.75H243.125C242.296 123.751 241.502 124.081 240.916 124.666C240.331 125.252 240.001 126.046 240 126.875V128.75H238.75V126.875C238.751 125.715 239.213 124.603 240.033 123.783C240.853 122.963 241.965 122.501 243.125 122.5H246.875C248.035 122.501 249.147 122.963 249.967 123.783C250.787 124.603 251.249 125.715 251.25 126.875V128.75ZM238.125 113.75C237.959 113.75 237.8 113.816 237.683 113.933C237.566 114.05 237.5 114.209 237.5 114.375V120H238.75V114.375C238.75 114.209 238.684 114.05 238.567 113.933C238.45 113.816 238.291 113.75 238.125 113.75Z" fill="#292929"/>
<path d="M237.5 111.25V112.5H240.625V116.875C240.625 118.035 241.086 119.148 241.906 119.969C242.727 120.789 243.84 121.25 245 121.25C246.16 121.25 247.273 120.789 248.094 119.969C248.914 119.148 249.375 118.035 249.375 116.875V112.5H252.5V111.25H237.5ZM241.875 112.5H248.125V114.375H241.875V112.5ZM245 120C244.171 120 243.376 119.671 242.79 119.085C242.204 118.499 241.875 117.704 241.875 116.875V115.625H248.125V116.875C248.125 117.704 247.796 118.499 247.21 119.085C246.624 119.671 245.829 120 245 120Z" fill="#292929"/>
<path d="M219.5 96.5H267C268.933 96.5 270.5 98.067 270.5 100V140C270.5 141.933 268.933 143.5 267 143.5H219.5V96.5Z" stroke="#E5E5E5"/>
<path d="M117.5 100C117.5 98.067 119.067 96.5 121 96.5H168.5V143.5H121C119.067 143.5 117.5 141.933 117.5 140V100Z" fill="white"/>
<path d="M150.5 111.25H143C142.669 111.25 142.351 111.382 142.116 111.616C141.882 111.851 141.75 112.169 141.75 112.5V118.75H135.5C135.169 118.75 134.851 118.882 134.616 119.116C134.382 119.351 134.25 119.669 134.25 120V128.75H151.75V112.5C151.75 112.169 151.618 111.851 151.383 111.617C151.149 111.382 150.831 111.25 150.5 111.25ZM138.625 127.5V123.125H141.125V127.5H138.625ZM150.5 127.5H142.375V122.5C142.375 122.334 142.309 122.175 142.192 122.058C142.075 121.941 141.916 121.875 141.75 121.875H138C137.834 121.875 137.675 121.941 137.558 122.058C137.441 122.175 137.375 122.334 137.375 122.5V127.5H135.5V120H143V112.5H150.5V127.5Z" fill="#292929"/>
<path d="M144.25 115H145.5V116.25H144.25V115ZM148 115H149.25V116.25H148V115ZM144.25 118.75H145.5V120H144.25V118.75ZM148 118.75H149.25V120H148V118.75ZM144.25 122.5H145.5V123.75H144.25V122.5ZM148 122.5H149.25V123.75H148V122.5Z" fill="#292929"/>
<path d="M117.5 100C117.5 98.067 119.067 96.5 121 96.5H168.5V143.5H121C119.067 143.5 117.5 141.933 117.5 140V100Z" stroke="#292929"/>
<g filter="url(#filter0_d_2311_75816)">
<rect x="109" y="56" width="73" height="32" rx="4" fill="white" shape-rendering="crispEdges"/>
<path d="M118.302 77H122.74C124.182 77 125.26 75.782 125.26 74.172C125.26 72.548 124.042 71.946 123.342 71.904V71.82C123.986 71.722 124.924 71.204 124.924 69.748C124.924 68.222 123.93 67.228 122.32 67.228H118.302V77ZM119.478 72.464H122.376C123.384 72.464 124 72.996 124 73.976V74.452C124 75.432 123.384 75.964 122.376 75.964H119.478V72.464ZM119.478 68.264H122.18C123.104 68.264 123.664 68.754 123.664 69.622V70.098C123.664 70.966 123.104 71.456 122.18 71.456H119.478V68.264ZM131.788 77H132.908V69.776H131.788V74.774C131.788 75.726 130.92 76.16 130.038 76.16C128.96 76.16 128.386 75.502 128.386 74.214V69.776H127.266V74.41C127.266 76.16 128.218 77.168 129.702 77.168C130.906 77.168 131.452 76.51 131.732 75.824H131.788V77ZM137.464 77.168C139.116 77.168 140.138 76.314 140.138 74.914C140.138 73.822 139.522 73.122 137.926 72.884L137.366 72.8C136.47 72.66 135.98 72.38 135.98 71.68C135.98 70.994 136.47 70.56 137.394 70.56C138.318 70.56 138.934 70.994 139.256 71.442L139.998 70.77C139.41 70.042 138.64 69.608 137.478 69.608C136.008 69.608 134.902 70.308 134.902 71.736C134.902 73.08 135.896 73.626 137.226 73.822L137.8 73.906C138.752 74.046 139.06 74.48 139.06 75.04C139.06 75.782 138.5 76.216 137.548 76.216C136.638 76.216 135.966 75.81 135.406 75.11L134.608 75.754C135.252 76.608 136.134 77.168 137.464 77.168ZM142.676 68.082C143.152 68.082 143.362 67.83 143.362 67.452V67.27C143.362 66.892 143.152 66.64 142.676 66.64C142.2 66.64 141.99 66.892 141.99 67.27V67.452C141.99 67.83 142.2 68.082 142.676 68.082ZM142.116 77H143.236V69.776H142.116V77ZM146.736 77V71.988C146.736 71.064 147.604 70.616 148.5 70.616C149.578 70.616 150.138 71.274 150.138 72.562V77H151.258V72.366C151.258 70.616 150.32 69.608 148.836 69.608C147.758 69.608 147.142 70.14 146.792 70.952H146.736V69.776H145.616V77H146.736ZM156.289 77.168C157.647 77.168 158.683 76.496 159.145 75.516L158.347 74.942C157.969 75.74 157.269 76.188 156.359 76.188C155.015 76.188 154.217 75.25 154.217 74.004V73.668H159.411V73.136C159.411 71.092 158.221 69.608 156.289 69.608C154.329 69.608 153.041 71.092 153.041 73.388C153.041 75.684 154.329 77.168 156.289 77.168ZM156.289 70.546C157.437 70.546 158.207 71.4 158.207 72.674V72.828H154.217V72.73C154.217 71.47 155.071 70.546 156.289 70.546ZM163.426 77.168C165.078 77.168 166.1 76.314 166.1 74.914C166.1 73.822 165.484 73.122 163.888 72.884L163.328 72.8C162.432 72.66 161.942 72.38 161.942 71.68C161.942 70.994 162.432 70.56 163.356 70.56C164.28 70.56 164.896 70.994 165.218 71.442L165.96 70.77C165.372 70.042 164.602 69.608 163.44 69.608C161.97 69.608 160.864 70.308 160.864 71.736C160.864 73.08 161.858 73.626 163.188 73.822L163.762 73.906C164.714 74.046 165.022 74.48 165.022 75.04C165.022 75.782 164.462 76.216 163.51 76.216C162.6 76.216 161.928 75.81 161.368 75.11L160.57 75.754C161.214 76.608 162.096 77.168 163.426 77.168ZM170.167 77.168C171.819 77.168 172.841 76.314 172.841 74.914C172.841 73.822 172.225 73.122 170.629 72.884L170.069 72.8C169.173 72.66 168.683 72.38 168.683 71.68C168.683 70.994 169.173 70.56 170.097 70.56C171.021 70.56 171.637 70.994 171.959 71.442L172.701 70.77C172.113 70.042 171.343 69.608 170.181 69.608C168.711 69.608 167.605 70.308 167.605 71.736C167.605 73.08 168.599 73.626 169.929 73.822L170.503 73.906C171.455 74.046 171.763 74.48 171.763 75.04C171.763 75.782 171.203 76.216 170.251 76.216C169.341 76.216 168.669 75.81 168.109 75.11L167.311 75.754C167.955 76.608 168.837 77.168 170.167 77.168Z" fill="#292929"/>
<rect x="109.5" y="56.5" width="72" height="31" rx="3.5" stroke="#E5E5E5" shape-rendering="crispEdges"/>
</g>
<defs>
<filter id="filter0_d_2311_75816" x="106" y="53" width="79" height="38" filterUnits="userSpaceOnUse" color-interpolation-filters="sRGB">
<feFlood flood-opacity="0" result="BackgroundImageFix"/>
<feColorMatrix in="SourceAlpha" type="matrix" values="0 0 0 0 0 0 0 0 0 0 0 0 0 0 0 0 0 0 127 0" result="hardAlpha"/>
<feOffset/>
<feGaussianBlur stdDeviation="1.5"/>
<feComposite in2="hardAlpha" operator="out"/>
<feColorMatrix type="matrix" values="0 0 0 0 0 0 0 0 0 0 0 0 0 0 0 0 0 0 0.1 0"/>
<feBlend mode="normal" in2="BackgroundImageFix" result="effect1_dropShadow_2311_75816"/>
<feBlend mode="normal" in="SourceGraphic" in2="effect1_dropShadow_2311_75816" result="shape"/>
</filter>
</defs>
</svg>
