<svg width="400" height="240" viewBox="0 0 400 240" fill="none" xmlns="http://www.w3.org/2000/svg">
<rect x="159.5" y="96.5" width="85" height="47" fill="#FCFCFC"/>
<path d="M180.056 126L181.512 120.224L182.36 116.832H182.392L183.224 120.224L184.648 126H186.68L189.432 114.832H187.656L186.488 120.208L185.672 123.904H185.624L184.744 120.208L183.432 114.832H181.416L180.088 120.208L179.192 123.92H179.144L178.36 120.208L177.224 114.832H175.384L178.024 126H180.056ZM194.028 126.192C195.58 126.192 196.796 125.52 197.42 124.512L196.396 123.504C195.916 124.272 195.228 124.752 194.204 124.752C192.796 124.752 192.012 123.84 192.012 122.56V122.288H197.724V121.632C197.724 119.328 196.476 117.488 194.028 117.488C191.66 117.488 190.204 119.184 190.204 121.84C190.204 124.496 191.66 126.192 194.028 126.192ZM194.028 118.848C195.18 118.848 195.884 119.696 195.884 120.976V121.136H192.012V121.024C192.012 119.744 192.828 118.848 194.028 118.848ZM202.918 126.192C204.47 126.192 205.686 125.52 206.31 124.512L205.286 123.504C204.806 124.272 204.118 124.752 203.094 124.752C201.686 124.752 200.902 123.84 200.902 122.56V122.288H206.614V121.632C206.614 119.328 205.366 117.488 202.918 117.488C200.55 117.488 199.094 119.184 199.094 121.84C199.094 124.496 200.55 126.192 202.918 126.192ZM202.918 118.848C204.07 118.848 204.774 119.696 204.774 120.976V121.136H200.902V121.024C200.902 119.744 201.718 118.848 202.918 118.848ZM208.545 126H210.289V123.28L211.441 122.032L213.825 126H215.905L212.641 120.896L215.553 117.68H213.521L211.521 119.936L210.369 121.424H210.289V114.16H208.545V126ZM220.191 126V124.576H219.039V114.16H217.295V124.272C217.295 125.344 217.887 126 219.071 126H220.191ZM225.172 122.576L224.644 124.384H224.564L224.084 122.576L222.42 117.68H220.676L223.7 126.368L223.22 127.776H221.812V129.2H222.82C224.116 129.2 224.612 128.768 225.012 127.648L228.516 117.68H226.836L225.172 122.576Z" fill="#292929"/>
<rect x="159.5" y="96.5" width="85" height="47" stroke="#E5E5E5"/>
<path d="M244.5 96.5H332C333.933 96.5 335.5 98.067 335.5 100V140C335.5 141.933 333.933 143.5 332 143.5H244.5V96.5Z" fill="#FCFCFC"/>
<path d="M261.376 126H263.104V117.456H263.184L264.064 119.264L266.512 123.728L268.96 119.264L269.84 117.456H269.92V126H271.648V114.832H269.6L266.608 120.512H266.512L263.52 114.832H261.376V126ZM277.543 126.192C279.863 126.192 281.367 124.496 281.367 121.84C281.367 119.184 279.863 117.488 277.543 117.488C275.223 117.488 273.719 119.184 273.719 121.84C273.719 124.496 275.223 126.192 277.543 126.192ZM277.543 124.752C276.359 124.752 275.559 124.016 275.559 122.544V121.136C275.559 119.664 276.359 118.928 277.543 118.928C278.727 118.928 279.527 119.664 279.527 121.136V122.544C279.527 124.016 278.727 124.752 277.543 124.752ZM285.055 126V120.432C285.055 119.456 285.951 118.992 286.863 118.992C287.935 118.992 288.431 119.648 288.431 120.944V126H290.175V120.72C290.175 118.672 289.167 117.488 287.471 117.488C286.191 117.488 285.487 118.16 285.135 119.056H285.055V117.68H283.311V126H285.055ZM296.416 126V124.576H294.8V119.104H296.544V117.68H294.8V115.408H293.232V116.864C293.232 117.44 293.04 117.68 292.464 117.68H291.76V119.104H293.056V124.192C293.056 125.328 293.696 126 294.896 126H296.416ZM298.436 126H300.18V120.416C300.18 119.456 301.076 118.992 301.988 118.992C303.06 118.992 303.556 119.648 303.556 120.928V126H305.3V120.72C305.3 118.672 304.292 117.488 302.596 117.488C301.316 117.488 300.612 118.16 300.26 119.056H300.18V114.16H298.436V126ZM310.613 126V124.576H309.461V114.16H307.717V124.272C307.717 125.344 308.309 126 309.493 126H310.613ZM315.594 122.576L315.066 124.384H314.986L314.506 122.576L312.842 117.68H311.098L314.122 126.368L313.642 127.776H312.234V129.2H313.242C314.538 129.2 315.034 128.768 315.434 127.648L318.938 117.68H317.258L315.594 122.576Z" fill="#292929"/>
<path d="M244.5 96.5H332C333.933 96.5 335.5 98.067 335.5 100V140C335.5 141.933 333.933 143.5 332 143.5H244.5V96.5Z" stroke="#E5E5E5"/>
<path d="M63.5 100C63.5 98.067 65.067 96.5 67 96.5H159.5V143.5H67C65.067 143.5 63.5 141.933 63.5 140V100Z" fill="white"/>
<path d="M95.25 112.5H92.75V111.25H91.5V112.5H86.5V111.25H85.25V112.5H82.75C82.0625 112.5 81.5 113.062 81.5 113.75V126.25C81.5 126.938 82.0625 127.5 82.75 127.5H95.25C95.9375 127.5 96.5 126.938 96.5 126.25V113.75C96.5 113.062 95.9375 112.5 95.25 112.5ZM95.25 126.25H82.75V117.5H95.25V126.25ZM95.25 116.25H82.75V113.75H85.25V115H86.5V113.75H91.5V115H92.75V113.75H95.25V116.25Z" fill="#292929"/>
<path d="M108.376 126H112.328C115.176 126 117.048 124.144 117.048 120.416C117.048 116.688 115.176 114.832 112.328 114.832H108.376V126ZM110.184 124.4V116.432H112.328C113.992 116.432 115.112 117.504 115.112 119.52V121.312C115.112 123.328 113.992 124.4 112.328 124.4H110.184ZM126.242 126V124.576H125.362V120.4C125.362 118.544 124.162 117.488 122.018 117.488C120.402 117.488 119.426 118.176 118.882 119.104L119.922 120.048C120.338 119.392 120.93 118.912 121.906 118.912C123.074 118.912 123.618 119.504 123.618 120.512V121.216H122.114C119.794 121.216 118.562 122.064 118.562 123.712C118.562 125.216 119.538 126.192 121.25 126.192C122.466 126.192 123.362 125.648 123.682 124.608H123.762C123.874 125.424 124.354 126 125.266 126H126.242ZM121.746 124.864C120.882 124.864 120.338 124.48 120.338 123.744V123.456C120.338 122.736 120.93 122.336 122.146 122.336H123.618V123.536C123.618 124.352 122.818 124.864 121.746 124.864ZM128.831 116.192C129.551 116.192 129.855 115.808 129.855 115.28V115.008C129.855 114.48 129.551 114.096 128.831 114.096C128.111 114.096 127.791 114.48 127.791 115.008V115.28C127.791 115.808 128.111 116.192 128.831 116.192ZM127.951 126H129.695V117.68H127.951V126ZM135.082 126V124.576H133.93V114.16H132.186V124.272C132.186 125.344 132.778 126 133.962 126H135.082ZM140.063 122.576L139.535 124.384H139.455L138.975 122.576L137.311 117.68H135.567L138.591 126.368L138.111 127.776H136.703V129.2H137.711C139.007 129.2 139.503 128.768 139.903 127.648L143.407 117.68H141.727L140.063 122.576Z" fill="#292929"/>
<path d="M63.5 100C63.5 98.067 65.067 96.5 67 96.5H159.5V143.5H67C65.067 143.5 63.5 141.933 63.5 140V100Z" stroke="#292929"/>
</svg>
