<svg width="400" height="240" viewBox="0 0 400 240" fill="none" xmlns="http://www.w3.org/2000/svg">
<rect x="97.5" y="96.5" width="41" height="47" fill="#FCFCFC"/>
<path d="M121.656 124.464H116.024L118.648 122.208C120.12 120.944 121.32 119.76 121.32 117.952C121.32 116.016 120.008 114.64 117.736 114.64C115.496 114.64 114.376 115.952 113.912 117.36L115.496 117.968C115.768 116.992 116.36 116.208 117.592 116.208C118.696 116.208 119.4 116.88 119.4 117.952V118.16C119.4 119.184 118.76 120.08 117.64 121.088L114.072 124.272V126H121.656V124.464Z" fill="#292929"/>
<rect x="97.5" y="96.5" width="41" height="47" stroke="#E5E5E5"/>
<rect x="138.5" y="96.5" width="41" height="47" fill="#FCFCFC"/>
<path d="M157.056 119.424V120.96H158.24C159.648 120.96 160.448 121.584 160.448 122.72V122.832C160.448 123.984 159.696 124.672 158.336 124.672C157.04 124.672 156.384 124.048 155.84 123.152L154.512 124.192C155.216 125.216 156.256 126.192 158.336 126.192C160.72 126.192 162.32 124.88 162.32 122.928C162.32 121.312 161.248 120.4 159.984 120.16V120.08C161.152 119.824 162.128 118.944 162.128 117.52C162.128 115.712 160.608 114.64 158.496 114.64C156.64 114.64 155.616 115.504 154.944 116.48L156.144 117.52C156.656 116.672 157.392 116.16 158.448 116.16C159.52 116.16 160.224 116.736 160.224 117.744V117.856C160.224 118.768 159.568 119.424 158.192 119.424H157.056Z" fill="#292929"/>
<rect x="138.5" y="96.5" width="41" height="47" stroke="#E5E5E5"/>
<rect x="179.5" y="96.5" width="41" height="47" fill="#FCFCFC"/>
<path d="M202.456 126V123.824H203.976V122.4H202.456V114.832H200.088L195.56 122.272V123.824H200.744V126H202.456ZM200.632 116.48H200.744V122.4H197.096L200.632 116.48Z" fill="#292929"/>
<rect x="179.5" y="96.5" width="41" height="47" stroke="#E5E5E5"/>
<rect x="220.5" y="96.5" width="41" height="47" fill="#FCFCFC"/>
<path d="M244.128 114.832H237.792L237.376 121.056L238.864 121.264C239.264 120.816 239.792 120.384 240.752 120.384C242.064 120.384 242.816 121.152 242.816 122.432V122.624C242.816 123.904 242.064 124.672 240.752 124.672C239.504 124.672 238.88 124.032 238.336 123.152L237.024 124.192C237.696 125.216 238.736 126.192 240.72 126.192C243.248 126.192 244.704 124.608 244.704 122.384C244.704 120.192 243.248 118.896 241.328 118.896C240.048 118.896 239.488 119.472 238.992 120.352H238.88L239.168 116.4H244.128V114.832Z" fill="#292929"/>
<rect x="220.5" y="96.5" width="41" height="47" stroke="#E5E5E5"/>
<rect x="261.5" y="96.5" width="41" height="47" fill="#FCFCFC"/>
<path d="M281.832 126.192C284.2 126.192 285.752 124.64 285.752 122.4C285.752 120.288 284.36 118.944 282.472 118.944C281.08 118.944 280.344 119.696 279.88 120.576L279.768 120.544C280.312 118.144 281.768 116.672 284.296 114.832H281.896C280.056 116.048 277.896 118.608 277.896 121.84C277.896 124.512 279.368 126.192 281.832 126.192ZM281.832 124.72C280.536 124.72 279.768 124 279.768 122.672V122.448C279.768 121.12 280.536 120.4 281.832 120.4C283.128 120.4 283.896 121.12 283.896 122.448V122.672C283.896 124 283.128 124.72 281.832 124.72Z" fill="#292929"/>
<rect x="261.5" y="96.5" width="41" height="47" stroke="#E5E5E5"/>
<path d="M302.5 96.5H340C341.933 96.5 343.5 98.067 343.5 100V140C343.5 141.933 341.933 143.5 340 143.5H302.5V96.5Z" fill="#FCFCFC"/>
<path d="M322.64 126L326.576 116.4V114.832H319.008V118.384H320.56V116.32H324.784L320.736 126H322.64Z" fill="#292929"/>
<path d="M302.5 96.5H340C341.933 96.5 343.5 98.067 343.5 100V140C343.5 141.933 341.933 143.5 340 143.5H302.5V96.5Z" stroke="#E5E5E5"/>
<path d="M56.5 100C56.5 98.067 58.067 96.5 60 96.5H97.5V143.5H60C58.067 143.5 56.5 141.933 56.5 140V100Z" fill="white"/>
<path d="M81.04 126V124.496H78.32V114.832H75.568L72.72 117.92L73.824 118.912L76.416 116.144H76.544V124.496H73.408V126H81.04Z" fill="#292929"/>
<path d="M56.5 100C56.5 98.067 58.067 96.5 60 96.5H97.5V143.5H60C58.067 143.5 56.5 141.933 56.5 140V100Z" stroke="#292929"/>
</svg>
