<svg width="400" height="240" viewBox="0 0 400 240" fill="none" xmlns="http://www.w3.org/2000/svg">
<rect x="146.5" y="60.5" width="86" height="47" fill="#FCFCFC"/>
<path d="M168.25 77.75H179.5V79H168.25V77.75ZM168.25 89H179.5V90.25H168.25V89ZM168.25 83.375H179.5V84.625H168.25V83.375ZM164.5 83.375H165.75V84.625H164.5V83.375ZM164.5 77.75H165.75V79H164.5V77.75ZM164.5 89H165.75V90.25H164.5V89Z" fill="#292929"/>
<path d="M197.728 90V88.4H193.184V78.832H191.376V90H197.728ZM200.331 80.192C201.051 80.192 201.355 79.808 201.355 79.28V79.008C201.355 78.48 201.051 78.096 200.331 78.096C199.611 78.096 199.291 78.48 199.291 79.008V79.28C199.291 79.808 199.611 80.192 200.331 80.192ZM199.451 90H201.195V81.68H199.451V90ZM206.326 90.192C208.326 90.192 209.622 89.12 209.622 87.52C209.622 86.176 208.806 85.376 206.982 85.104L206.214 85.008C205.334 84.864 204.934 84.576 204.934 83.936C204.934 83.312 205.382 82.896 206.342 82.896C207.238 82.896 207.942 83.328 208.374 83.84L209.446 82.816C208.694 81.984 207.846 81.488 206.342 81.488C204.518 81.488 203.254 82.432 203.254 84.048C203.254 85.584 204.294 86.32 205.99 86.528L206.758 86.624C207.622 86.736 207.942 87.136 207.942 87.664C207.942 88.368 207.43 88.784 206.422 88.784C205.43 88.784 204.678 88.336 204.07 87.6L202.95 88.624C203.734 89.6 204.758 90.192 206.326 90.192ZM215.306 90V88.576H213.69V83.104H215.434V81.68H213.69V79.408H212.122V80.864C212.122 81.44 211.93 81.68 211.354 81.68H210.65V83.104H211.946V88.192C211.946 89.328 212.586 90 213.786 90H215.306Z" fill="#292929"/>
<rect x="146.5" y="60.5" width="86" height="47" stroke="#E5E5E5"/>
<path d="M232.5 60.5H341C342.933 60.5 344.5 62.067 344.5 64V104C344.5 105.933 342.933 107.5 341 107.5H232.5V60.5Z" fill="#FCFCFC"/>
<path d="M250.5 87.75H249.25V76.5C249.25 76.1686 249.382 75.8509 249.617 75.6165C249.851 75.3822 250.169 75.2504 250.5 75.25H261.75V76.5H250.5V87.75ZM261.125 84.625C261.496 84.625 261.858 84.515 262.167 84.309C262.475 84.103 262.715 83.8101 262.857 83.4675C262.999 83.1249 263.036 82.7479 262.964 82.3842C262.892 82.0205 262.713 81.6864 262.451 81.4242C262.189 81.162 261.855 80.9834 261.491 80.911C261.127 80.8387 260.75 80.8758 260.407 81.0177C260.065 81.1596 259.772 81.4 259.566 81.7083C259.36 82.0166 259.25 82.3792 259.25 82.75C259.251 83.2471 259.448 83.7237 259.8 84.0752C260.151 84.4267 260.628 84.6245 261.125 84.625ZM261.125 82.125C261.249 82.125 261.369 82.1617 261.472 82.2303C261.575 82.299 261.655 82.3966 261.702 82.5108C261.75 82.625 261.762 82.7507 261.738 82.8719C261.714 82.9932 261.654 83.1045 261.567 83.1919C261.48 83.2793 261.368 83.3389 261.247 83.363C261.126 83.3871 261 83.3747 260.886 83.3274C260.772 83.2801 260.674 83.2 260.605 83.0972C260.537 82.9945 260.5 82.8736 260.5 82.75C260.5 82.5843 260.566 82.4254 260.683 82.3082C260.8 82.191 260.959 82.1251 261.125 82.125Z" fill="#292929"/>
<path d="M265.5 78.375H253.625C253.294 78.3754 252.976 78.5072 252.742 78.7416C252.507 78.9759 252.375 79.2936 252.375 79.625V91.5C252.375 91.8314 252.507 92.1491 252.742 92.3834C252.976 92.6178 253.294 92.7496 253.625 92.75H265.5C265.831 92.7496 266.149 92.6178 266.383 92.3834C266.618 92.1491 266.75 91.8314 266.75 91.5V79.625C266.75 79.2936 266.618 78.9759 266.383 78.7416C266.149 78.5072 265.831 78.3754 265.5 78.375ZM265.5 91.5H253.625V87.75L256.125 85.2518L259.616 88.7431C259.851 88.9774 260.169 89.1091 260.5 89.1091C260.831 89.1091 261.149 88.9774 261.384 88.7431L262.375 87.7521L265.5 90.875V91.5ZM265.5 89.1074L263.259 86.8662C263.024 86.6318 262.706 86.5001 262.375 86.5001C262.044 86.5001 261.726 86.6318 261.491 86.8662L260.5 87.8574L257.009 84.3662C256.774 84.1318 256.456 84.0001 256.125 84.0001C255.794 84.0001 255.476 84.1318 255.241 84.3662L253.625 85.9824V79.625H265.5V89.1074Z" fill="#292929"/>
<path d="M284.56 90H286.144V84.048H282.096V85.6H284.4V86.464C284.4 87.856 283.168 88.576 281.76 88.576C280 88.576 278.816 87.376 278.816 85.328V83.504C278.816 81.456 280 80.256 281.76 80.256C283.12 80.256 284.016 80.976 284.448 82.016L285.92 81.152C285.152 79.584 283.76 78.64 281.76 78.64C278.832 78.64 276.88 80.688 276.88 84.416C276.88 88.16 278.832 90.192 281.488 90.192C283.184 90.192 284.272 89.376 284.496 88.304H284.56V90ZM295.601 90V88.576H294.721V84.4C294.721 82.544 293.521 81.488 291.377 81.488C289.761 81.488 288.785 82.176 288.241 83.104L289.281 84.048C289.697 83.392 290.289 82.912 291.265 82.912C292.433 82.912 292.977 83.504 292.977 84.512V85.216H291.473C289.153 85.216 287.921 86.064 287.921 87.712C287.921 89.216 288.897 90.192 290.609 90.192C291.825 90.192 292.721 89.648 293.041 88.608H293.121C293.233 89.424 293.713 90 294.625 90H295.601ZM291.105 88.864C290.241 88.864 289.697 88.48 289.697 87.744V87.456C289.697 86.736 290.289 86.336 291.505 86.336H292.977V87.536C292.977 88.352 292.177 88.864 291.105 88.864ZM300.207 90V88.576H299.055V78.16H297.311V88.272C297.311 89.344 297.903 90 299.087 90H300.207ZM304.675 90V88.576H303.523V78.16H301.779V88.272C301.779 89.344 302.371 90 303.555 90H304.675ZM309.606 90.192C311.158 90.192 312.374 89.52 312.998 88.512L311.974 87.504C311.494 88.272 310.806 88.752 309.782 88.752C308.374 88.752 307.59 87.84 307.59 86.56V86.288H313.302V85.632C313.302 83.328 312.054 81.488 309.606 81.488C307.238 81.488 305.782 83.184 305.782 85.84C305.782 88.496 307.238 90.192 309.606 90.192ZM309.606 82.848C310.758 82.848 311.462 83.696 311.462 84.976V85.136H307.59V85.024C307.59 83.744 308.406 82.848 309.606 82.848ZM316.976 90V84.688C316.976 83.824 317.744 83.36 319.12 83.36H319.808V81.68H319.344C318.016 81.68 317.296 82.432 317.056 83.28H316.976V81.68H315.232V90H316.976ZM324.938 86.576L324.41 88.384H324.33L323.85 86.576L322.186 81.68H320.442L323.466 90.368L322.986 91.776H321.578V93.2H322.586C323.882 93.2 324.378 92.768 324.778 91.648L328.282 81.68H326.602L324.938 86.576Z" fill="#292929"/>
<path d="M232.5 60.5H341C342.933 60.5 344.5 62.067 344.5 64V104C344.5 105.933 342.933 107.5 341 107.5H232.5V60.5Z" stroke="#E5E5E5"/>
<path d="M55.5 64C55.5 62.067 57.067 60.5 59 60.5H146.5V107.5H59C57.067 107.5 55.5 105.933 55.5 104V64Z" fill="white"/>
<path d="M78.5 76.5H74.75C74.4185 76.5 74.1005 76.6317 73.8661 76.8661C73.6317 77.1005 73.5 77.4185 73.5 77.75V81.5C73.5 81.8315 73.6317 82.1495 73.8661 82.3839C74.1005 82.6183 74.4185 82.75 74.75 82.75H78.5C78.8315 82.75 79.1495 82.6183 79.3839 82.3839C79.6183 82.1495 79.75 81.8315 79.75 81.5V77.75C79.75 77.4185 79.6183 77.1005 79.3839 76.8661C79.1495 76.6317 78.8315 76.5 78.5 76.5ZM78.5 81.5H74.75V77.75H78.5V81.5ZM87.25 76.5H83.5C83.1685 76.5 82.8505 76.6317 82.6161 76.8661C82.3817 77.1005 82.25 77.4185 82.25 77.75V81.5C82.25 81.8315 82.3817 82.1495 82.6161 82.3839C82.8505 82.6183 83.1685 82.75 83.5 82.75H87.25C87.5815 82.75 87.8995 82.6183 88.1339 82.3839C88.3683 82.1495 88.5 81.8315 88.5 81.5V77.75C88.5 77.4185 88.3683 77.1005 88.1339 76.8661C87.8995 76.6317 87.5815 76.5 87.25 76.5ZM87.25 81.5H83.5V77.75H87.25V81.5ZM78.5 85.25H74.75C74.4185 85.25 74.1005 85.3817 73.8661 85.6161C73.6317 85.8505 73.5 86.1685 73.5 86.5V90.25C73.5 90.5815 73.6317 90.8995 73.8661 91.1339C74.1005 91.3683 74.4185 91.5 74.75 91.5H78.5C78.8315 91.5 79.1495 91.3683 79.3839 91.1339C79.6183 90.8995 79.75 90.5815 79.75 90.25V86.5C79.75 86.1685 79.6183 85.8505 79.3839 85.6161C79.1495 85.3817 78.8315 85.25 78.5 85.25ZM78.5 90.25H74.75V86.5H78.5V90.25ZM87.25 85.25H83.5C83.1685 85.25 82.8505 85.3817 82.6161 85.6161C82.3817 85.8505 82.25 86.1685 82.25 86.5V90.25C82.25 90.5815 82.3817 90.8995 82.6161 91.1339C82.8505 91.3683 83.1685 91.5 83.5 91.5H87.25C87.5815 91.5 87.8995 91.3683 88.1339 91.1339C88.3683 90.8995 88.5 90.5815 88.5 90.25V86.5C88.5 86.1685 88.3683 85.8505 88.1339 85.6161C87.8995 85.3817 87.5815 85.25 87.25 85.25ZM87.25 90.25H83.5V86.5H87.25V90.25Z" fill="#292929"/>
<path d="M107.56 90H109.144V84.048H105.096V85.6H107.4V86.464C107.4 87.856 106.168 88.576 104.76 88.576C103 88.576 101.816 87.376 101.816 85.328V83.504C101.816 81.456 103 80.256 104.76 80.256C106.12 80.256 107.016 80.976 107.448 82.016L108.92 81.152C108.152 79.584 106.76 78.64 104.76 78.64C101.832 78.64 99.88 80.688 99.88 84.416C99.88 88.16 101.832 90.192 104.488 90.192C106.184 90.192 107.272 89.376 107.496 88.304H107.56V90ZM113.273 90V84.688C113.273 83.824 114.041 83.36 115.417 83.36H116.105V81.68H115.641C114.313 81.68 113.593 82.432 113.353 83.28H113.273V81.68H111.529V90H113.273ZM118.534 80.192C119.254 80.192 119.558 79.808 119.558 79.28V79.008C119.558 78.48 119.254 78.096 118.534 78.096C117.814 78.096 117.494 78.48 117.494 79.008V79.28C117.494 79.808 117.814 80.192 118.534 80.192ZM117.654 90H119.398V81.68H117.654V90ZM127.121 90H128.865V78.16H127.121V83.056H127.041C126.689 82.064 125.809 81.488 124.705 81.488C122.609 81.488 121.393 83.104 121.393 85.84C121.393 88.576 122.609 90.192 124.705 90.192C125.809 90.192 126.689 89.6 127.041 88.624H127.121V90ZM125.233 88.688C124.033 88.688 123.233 87.84 123.233 86.56V85.12C123.233 83.84 124.033 82.992 125.233 82.992C126.289 82.992 127.121 83.568 127.121 84.416V87.264C127.121 88.112 126.289 88.688 125.233 88.688Z" fill="#292929"/>
<path d="M55.5 64C55.5 62.067 57.067 60.5 59 60.5H146.5V107.5H59C57.067 107.5 55.5 105.933 55.5 104V64Z" stroke="#292929"/>
<rect x="120.5" y="132.5" width="76" height="47" fill="#FCFCFC"/>
<path d="M144.56 162H146.144V156.048H142.096V157.6H144.4V158.464C144.4 159.856 143.168 160.576 141.76 160.576C140 160.576 138.816 159.376 138.816 157.328V155.504C138.816 153.456 140 152.256 141.76 152.256C143.12 152.256 144.016 152.976 144.448 154.016L145.92 153.152C145.152 151.584 143.76 150.64 141.76 150.64C138.832 150.64 136.88 152.688 136.88 156.416C136.88 160.16 138.832 162.192 141.488 162.192C143.184 162.192 144.272 161.376 144.496 160.304H144.56V162ZM150.273 162V156.688C150.273 155.824 151.041 155.36 152.417 155.36H153.105V153.68H152.641C151.313 153.68 150.593 154.432 150.353 155.28H150.273V153.68H148.529V162H150.273ZM157.84 162.192C159.392 162.192 160.608 161.52 161.232 160.512L160.208 159.504C159.728 160.272 159.04 160.752 158.016 160.752C156.608 160.752 155.824 159.84 155.824 158.56V158.288H161.536V157.632C161.536 155.328 160.288 153.488 157.84 153.488C155.472 153.488 154.016 155.184 154.016 157.84C154.016 160.496 155.472 162.192 157.84 162.192ZM157.84 154.848C158.992 154.848 159.696 155.696 159.696 156.976V157.136H155.824V157.024C155.824 155.744 156.64 154.848 157.84 154.848ZM166.731 162.192C168.283 162.192 169.499 161.52 170.123 160.512L169.099 159.504C168.619 160.272 167.931 160.752 166.907 160.752C165.499 160.752 164.715 159.84 164.715 158.56V158.288H170.427V157.632C170.427 155.328 169.179 153.488 166.731 153.488C164.363 153.488 162.907 155.184 162.907 157.84C162.907 160.496 164.363 162.192 166.731 162.192ZM166.731 154.848C167.883 154.848 168.587 155.696 168.587 156.976V157.136H164.715V157.024C164.715 155.744 165.531 154.848 166.731 154.848ZM174.101 162V156.432C174.101 155.456 174.997 154.992 175.909 154.992C176.981 154.992 177.477 155.648 177.477 156.944V162H179.221V156.72C179.221 154.672 178.213 153.488 176.517 153.488C175.237 153.488 174.533 154.16 174.181 155.056H174.101V153.68H172.357V162H174.101Z" fill="#292929"/>
<rect x="120.5" y="132.5" width="76" height="47" stroke="#E5E5E5"/>
<path d="M196.5 132.5H253C254.933 132.5 256.5 134.067 256.5 136V176C256.5 177.933 254.933 179.5 253 179.5H196.5V132.5Z" fill="#FCFCFC"/>
<path d="M215.184 157.488H217.408L219.648 162H221.664L219.248 157.296C220.672 156.88 221.424 155.776 221.424 154.192C221.424 152.128 220.192 150.832 218.192 150.832H213.376V162H215.184V157.488ZM215.184 155.968V152.416H218.064C218.976 152.416 219.52 152.912 219.52 153.808V154.576C219.52 155.472 218.976 155.968 218.064 155.968H215.184ZM226.762 162.192C228.314 162.192 229.53 161.52 230.154 160.512L229.13 159.504C228.65 160.272 227.962 160.752 226.938 160.752C225.53 160.752 224.746 159.84 224.746 158.56V158.288H230.458V157.632C230.458 155.328 229.21 153.488 226.762 153.488C224.394 153.488 222.938 155.184 222.938 157.84C222.938 160.496 224.394 162.192 226.762 162.192ZM226.762 154.848C227.914 154.848 228.618 155.696 228.618 156.976V157.136H224.746V157.024C224.746 155.744 225.562 154.848 226.762 154.848ZM237.621 162H239.365V150.16H237.621V155.056H237.541C237.189 154.064 236.309 153.488 235.205 153.488C233.109 153.488 231.893 155.104 231.893 157.84C231.893 160.576 233.109 162.192 235.205 162.192C236.309 162.192 237.189 161.6 237.541 160.624H237.621V162ZM235.733 160.688C234.533 160.688 233.733 159.84 233.733 158.56V157.12C233.733 155.84 234.533 154.992 235.733 154.992C236.789 154.992 237.621 155.568 237.621 156.416V159.264C237.621 160.112 236.789 160.688 235.733 160.688Z" fill="#292929"/>
<path d="M196.5 132.5H253C254.933 132.5 256.5 134.067 256.5 136V176C256.5 177.933 254.933 179.5 253 179.5H196.5V132.5Z" stroke="#E5E5E5"/>
<path d="M55.5 136C55.5 134.067 57.067 132.5 59 132.5H120.5V179.5H59C57.067 179.5 55.5 177.933 55.5 176V136Z" fill="white"/>
<path d="M72.376 162H77.816C79.464 162 80.696 160.592 80.696 158.784C80.696 156.912 79.272 156.208 78.36 156.176V156.08C79.272 156 80.296 155.392 80.296 153.712C80.296 151.968 79.16 150.832 77.32 150.832H72.376V162ZM74.184 157.056H77.288C78.216 157.056 78.792 157.568 78.792 158.48V159.024C78.792 159.936 78.216 160.448 77.288 160.448H74.184V157.056ZM74.184 152.384H76.984C77.864 152.384 78.392 152.864 78.392 153.712V154.224C78.392 155.072 77.864 155.552 76.984 155.552H74.184V152.384ZM85.6909 162V160.576H84.5389V150.16H82.7949V160.272C82.7949 161.344 83.3869 162 84.5709 162H85.6909ZM92.3974 162H94.1414V153.68H92.3974V159.248C92.3974 160.224 91.5174 160.688 90.6214 160.688C89.5494 160.688 89.0214 160.016 89.0214 158.752V153.68H87.2774V158.976C87.2774 161.024 88.2854 162.192 89.9974 162.192C91.3734 162.192 92.0294 161.44 92.3334 160.624H92.3974V162ZM99.9026 162.192C101.455 162.192 102.671 161.52 103.295 160.512L102.271 159.504C101.791 160.272 101.103 160.752 100.079 160.752C98.6706 160.752 97.8866 159.84 97.8866 158.56V158.288H103.599V157.632C103.599 155.328 102.351 153.488 99.9026 153.488C97.5346 153.488 96.0786 155.184 96.0786 157.84C96.0786 160.496 97.5346 162.192 99.9026 162.192ZM99.9026 154.848C101.055 154.848 101.759 155.696 101.759 156.976V157.136H97.8866V157.024C97.8866 155.744 98.7026 154.848 99.9026 154.848Z" fill="#292929"/>
<path d="M55.5 136C55.5 134.067 57.067 132.5 59 132.5H120.5V179.5H59C57.067 179.5 55.5 177.933 55.5 176V136Z" stroke="#292929"/>
</svg>
