<svg width="191" height="119" viewBox="0 0 191 119" fill="none" xmlns="http://www.w3.org/2000/svg">
<rect x="26" y="52" width="138" height="48" rx="4" fill="#292929"/>
<path d="M60.75 75.9999C60.7543 74.0724 60.1234 72.1972 58.9549 70.6643C57.7865 69.1314 56.1455 68.0261 54.2858 67.5194C52.4261 67.0127 50.4513 67.1328 48.6667 67.8611C46.8822 68.5894 45.3872 69.8854 44.4132 71.5487C43.4391 73.2119 43.0401 75.1497 43.2779 77.0625C43.5157 78.9752 44.377 80.7563 45.7287 82.1304C47.0805 83.5045 48.8472 84.395 50.7558 84.6641C52.6644 84.9333 54.6085 84.5662 56.2875 83.6195L56.3603 83.6354L56.3759 83.5658C57.7042 82.7988 58.8076 81.6961 59.5753 80.3681C60.343 79.0402 60.7481 77.5338 60.75 75.9999V75.9999ZM44.5 75.9999C44.5024 75.367 44.5854 74.7369 44.7469 74.1249H47.3989L50.5187 76.7249L49.3255 78.3161C49.146 78.5572 49.059 78.8547 49.0803 79.1545C49.1016 79.4544 49.2297 79.7366 49.4414 79.95L50.75 81.2587V83.387C49.0042 83.0907 47.4194 82.1868 46.2757 80.835C45.132 79.4832 44.503 77.7706 44.5 75.9999V75.9999ZM50.325 79.0663L52.2312 76.5249L47.8511 72.8749H45.1909C45.6469 71.8747 46.3178 70.9873 47.1559 70.276C47.994 69.5647 48.9787 69.047 50.0397 68.7597C51.1008 68.4725 52.2121 68.4227 53.2946 68.614C54.3771 68.8053 55.404 69.2329 56.3024 69.8665L55.9246 70.9999H52.3662L50.4644 72.9018L56.3103 78.0976L55.28 82.7342C54.2596 83.2368 53.1375 83.4988 52 83.4999V80.7411L50.325 79.0663ZM56.7719 81.7815L57.5302 78.369C57.5783 78.1516 57.5676 77.9254 57.4991 77.7136C57.4306 77.5018 57.3068 77.3121 57.1405 77.1641L52.2856 72.848L52.8838 72.2499H55.9246C56.187 72.2501 56.4428 72.1676 56.6557 72.0142C56.8686 71.8607 57.0277 71.6441 57.1105 71.3951L57.3312 70.7326C58.0641 71.4721 58.6346 72.3563 59.0064 73.3288C59.3782 74.3013 59.5431 75.3407 59.4904 76.3804C59.4378 77.4202 59.1689 78.4376 58.7008 79.3676C58.2327 80.2976 57.5758 81.1197 56.7721 81.7815H56.7719Z" fill="white"/>
<path d="M71.5479 82H76.9879C78.6359 82 79.8679 80.592 79.8679 78.784C79.8679 76.912 78.4439 76.208 77.5319 76.176V76.08C78.4439 76 79.4679 75.392 79.4679 73.712C79.4679 71.968 78.3319 70.832 76.4919 70.832H71.5479V82ZM73.3559 77.056H76.4599C77.3879 77.056 77.9639 77.568 77.9639 78.48V79.024C77.9639 79.936 77.3879 80.448 76.4599 80.448H73.3559V77.056ZM73.3559 72.384H76.1559C77.0359 72.384 77.5639 72.864 77.5639 73.712V74.224C77.5639 75.072 77.0359 75.552 76.1559 75.552H73.3559V72.384ZM87.0068 82H88.7508V73.68H87.0068V79.248C87.0068 80.224 86.1268 80.688 85.2308 80.688C84.1588 80.688 83.6308 80.016 83.6308 78.752V73.68H81.8868V78.976C81.8868 81.024 82.8948 82.192 84.6068 82.192C85.9828 82.192 86.6388 81.44 86.9428 80.624H87.0068V82ZM95.072 82V80.576H93.456V75.104H95.2V73.68H93.456V71.408H91.888V72.864C91.888 73.44 91.696 73.68 91.12 73.68H90.416V75.104H91.712V80.192C91.712 81.328 92.352 82 93.552 82H95.072ZM100.806 82V80.576H99.1904V75.104H100.934V73.68H99.1904V71.408H97.6224V72.864C97.6224 73.44 97.4304 73.68 96.8544 73.68H96.1504V75.104H97.4464V80.192C97.4464 81.328 98.0864 82 99.2864 82H100.806ZM106.028 82.192C108.348 82.192 109.852 80.496 109.852 77.84C109.852 75.184 108.348 73.488 106.028 73.488C103.708 73.488 102.204 75.184 102.204 77.84C102.204 80.496 103.708 82.192 106.028 82.192ZM106.028 80.752C104.844 80.752 104.044 80.016 104.044 78.544V77.136C104.044 75.664 104.844 74.928 106.028 74.928C107.212 74.928 108.012 75.664 108.012 77.136V78.544C108.012 80.016 107.212 80.752 106.028 80.752ZM113.539 82V76.432C113.539 75.456 114.435 74.992 115.347 74.992C116.419 74.992 116.915 75.648 116.915 76.944V82H118.659V76.72C118.659 74.672 117.651 73.488 115.955 73.488C114.675 73.488 113.971 74.16 113.619 75.056H113.539V73.68H111.795V82H113.539Z" fill="white"/>
<path d="M138 79.75L131.75 73.5L132.625 72.625L138 78L143.375 72.625L144.25 73.5L138 79.75Z" fill="white"/>
<rect x="40" y="16" width="24" height="24" rx="12" fill="#6E04C1"/>
<path d="M55.111 33V32.038H52.771V23.926H51.068L48.663 26.175L49.3 26.864L51.588 24.732H51.679V32.038H49.144V33H55.111Z" fill="white"/>
<line x1="51.5" y1="40" x2="51.5" y2="64" stroke="#8000E4" stroke-dasharray="2 2"/>
<rect x="126" y="16" width="24" height="24" rx="12" fill="#6E04C1"/>
<path d="M136.405 27.774V28.723H137.471C138.745 28.723 139.421 29.334 139.421 30.4V30.504C139.421 31.57 138.745 32.181 137.471 32.181C136.366 32.181 135.833 31.7 135.365 30.985L134.546 31.609C135.105 32.389 135.911 33.156 137.484 33.156C139.33 33.156 140.565 32.077 140.565 30.517C140.565 29.152 139.629 28.424 138.654 28.229V28.177C139.616 27.93 140.396 27.228 140.396 26.058C140.396 24.589 139.174 23.77 137.64 23.77C136.184 23.77 135.391 24.524 134.936 25.252L135.742 25.876C136.119 25.187 136.678 24.745 137.614 24.745C138.576 24.745 139.239 25.226 139.239 26.175V26.266C139.239 27.137 138.615 27.774 137.393 27.774H136.405Z" fill="white"/>
<line x1="137.5" y1="40" x2="137.5" y2="64" stroke="#8000E4" stroke-dasharray="2 2"/>
<rect x="84" y="16" width="24" height="24" rx="12" fill="#6E04C1"/>
<path d="M98.929 32.038H94.158L96.602 29.841C97.759 28.801 98.591 27.813 98.591 26.409C98.591 24.862 97.577 23.77 95.809 23.77C94.054 23.77 93.248 24.836 92.897 25.902L93.872 26.279C94.119 25.421 94.639 24.745 95.757 24.745C96.875 24.745 97.434 25.434 97.434 26.435V26.591C97.434 27.462 96.784 28.372 95.939 29.152L92.975 31.882V33H98.929V32.038Z" fill="white"/>
<line x1="95.5" y1="40" x2="95.5" y2="64" stroke="#8000E4" stroke-dasharray="2 2"/>
</svg>
