<svg width="400" height="240" viewBox="0 0 400 240" fill="none" xmlns="http://www.w3.org/2000/svg">
<path d="M150.954 90.192C153.514 90.192 155.002 88.8 155.002 86.72C155.002 84.944 153.994 83.952 151.77 83.52L150.778 83.312C149.578 83.072 149.002 82.672 149.002 81.744C149.002 80.768 149.738 80.24 151.018 80.24C152.25 80.24 153.05 80.72 153.626 81.472L154.89 80.352C154.026 79.248 152.794 78.64 151.114 78.64C148.746 78.64 147.21 79.856 147.21 81.84C147.21 83.616 148.314 84.624 150.474 85.024L151.466 85.2C152.762 85.456 153.21 85.952 153.21 86.816C153.21 87.888 152.474 88.592 151.05 88.592C149.834 88.592 148.906 88.096 148.122 87.136L146.874 88.304C147.802 89.456 149.082 90.192 150.954 90.192ZM164.117 90V88.576H163.237V84.4C163.237 82.544 162.037 81.488 159.893 81.488C158.277 81.488 157.301 82.176 156.757 83.104L157.797 84.048C158.213 83.392 158.805 82.912 159.781 82.912C160.949 82.912 161.493 83.504 161.493 84.512V85.216H159.989C157.669 85.216 156.437 86.064 156.437 87.712C156.437 89.216 157.413 90.192 159.125 90.192C160.341 90.192 161.237 89.648 161.557 88.608H161.637C161.749 89.424 162.229 90 163.141 90H164.117ZM159.621 88.864C158.757 88.864 158.213 88.48 158.213 87.744V87.456C158.213 86.736 158.805 86.336 160.021 86.336H161.493V87.536C161.493 88.352 160.693 88.864 159.621 88.864ZM169.542 90L172.406 81.68H170.742L169.446 85.472L168.598 88.384H168.502L167.654 85.472L166.39 81.68H164.662L167.494 90H169.542ZM177.012 90.192C178.564 90.192 179.78 89.52 180.404 88.512L179.38 87.504C178.9 88.272 178.212 88.752 177.188 88.752C175.78 88.752 174.996 87.84 174.996 86.56V86.288H180.708V85.632C180.708 83.328 179.46 81.488 177.012 81.488C174.644 81.488 173.188 83.184 173.188 85.84C173.188 88.496 174.644 90.192 177.012 90.192ZM177.012 82.848C178.164 82.848 178.868 83.696 178.868 84.976V85.136H174.996V85.024C174.996 83.744 175.812 82.848 177.012 82.848ZM189.636 90.192C191.236 90.192 192.372 89.44 192.916 88.08L191.588 87.376C191.236 88.208 190.644 88.752 189.636 88.752C188.356 88.752 187.7 87.872 187.7 86.592V85.104C187.7 83.824 188.356 82.944 189.636 82.944C190.58 82.944 191.172 83.44 191.412 84.208L192.852 83.536C192.356 82.304 191.3 81.488 189.636 81.488C187.236 81.488 185.86 83.184 185.86 85.84C185.86 88.496 187.236 90.192 189.636 90.192ZM194.576 90H196.32V84.416C196.32 83.456 197.216 82.992 198.128 82.992C199.2 82.992 199.696 83.648 199.696 84.928V90H201.44V84.72C201.44 82.672 200.432 81.488 198.736 81.488C197.456 81.488 196.752 82.16 196.4 83.056H196.32V78.16H194.576V90ZM210.929 90V88.576H210.049V84.4C210.049 82.544 208.849 81.488 206.705 81.488C205.089 81.488 204.113 82.176 203.569 83.104L204.609 84.048C205.025 83.392 205.617 82.912 206.593 82.912C207.761 82.912 208.305 83.504 208.305 84.512V85.216H206.801C204.481 85.216 203.249 86.064 203.249 87.712C203.249 89.216 204.225 90.192 205.937 90.192C207.153 90.192 208.049 89.648 208.369 88.608H208.449C208.561 89.424 209.041 90 209.953 90H210.929ZM206.433 88.864C205.569 88.864 205.025 88.48 205.025 87.744V87.456C205.025 86.736 205.617 86.336 206.833 86.336H208.305V87.536C208.305 88.352 207.505 88.864 206.433 88.864ZM214.383 90V84.432C214.383 83.456 215.279 82.992 216.191 82.992C217.263 82.992 217.759 83.648 217.759 84.944V90H219.503V84.72C219.503 82.672 218.495 81.488 216.799 81.488C215.519 81.488 214.815 82.16 214.463 83.056H214.383V81.68H212.639V90H214.383ZM229.216 90.784C229.216 89.344 228.352 88.48 226.304 88.48H224.256C223.52 88.48 223.088 88.304 223.088 87.856C223.088 87.44 223.472 87.168 223.888 87.024C224.192 87.104 224.576 87.152 224.976 87.152C227.088 87.152 228.304 86.016 228.304 84.336C228.304 83.376 227.888 82.576 227.136 82.08V81.744H228.832V80.336H227.552C226.816 80.336 226.464 80.784 226.464 81.52V81.744C226.032 81.568 225.52 81.488 224.96 81.488C222.848 81.488 221.648 82.64 221.648 84.336C221.648 85.456 222.192 86.336 223.168 86.8V86.864C222.368 87.056 221.696 87.472 221.696 88.336C221.696 88.96 222.032 89.424 222.64 89.616V89.792C221.76 89.984 221.216 90.48 221.216 91.392C221.216 92.656 222.272 93.392 224.992 93.392C227.984 93.392 229.216 92.512 229.216 90.784ZM227.584 90.976C227.584 91.744 226.912 92.128 225.552 92.128H224.464C223.168 92.128 222.672 91.664 222.672 90.992C222.672 90.592 222.864 90.256 223.248 90.032H226.064C227.2 90.032 227.584 90.4 227.584 90.976ZM224.976 85.888C223.952 85.888 223.36 85.424 223.36 84.48V84.16C223.36 83.216 223.952 82.752 224.976 82.752C226 82.752 226.592 83.216 226.592 84.16V84.48C226.592 85.424 226 85.888 224.976 85.888ZM233.684 90.192C235.236 90.192 236.452 89.52 237.076 88.512L236.052 87.504C235.572 88.272 234.884 88.752 233.86 88.752C232.452 88.752 231.668 87.84 231.668 86.56V86.288H237.38V85.632C237.38 83.328 236.132 81.488 233.684 81.488C231.316 81.488 229.86 83.184 229.86 85.84C229.86 88.496 231.316 90.192 233.684 90.192ZM233.684 82.848C234.836 82.848 235.54 83.696 235.54 84.976V85.136H231.668V85.024C231.668 83.744 232.484 82.848 233.684 82.848ZM241.951 90.192C243.951 90.192 245.247 89.12 245.247 87.52C245.247 86.176 244.431 85.376 242.607 85.104L241.839 85.008C240.959 84.864 240.559 84.576 240.559 83.936C240.559 83.312 241.007 82.896 241.967 82.896C242.863 82.896 243.567 83.328 243.999 83.84L245.071 82.816C244.319 81.984 243.471 81.488 241.967 81.488C240.143 81.488 238.879 82.432 238.879 84.048C238.879 85.584 239.919 86.32 241.615 86.528L242.383 86.624C243.247 86.736 243.567 87.136 243.567 87.664C243.567 88.368 243.055 88.784 242.047 88.784C241.055 88.784 240.303 88.336 239.695 87.6L238.575 88.624C239.359 89.6 240.383 90.192 241.951 90.192ZM250.353 86.496V85.024C251.793 84.768 253.233 83.712 253.233 81.776C253.233 79.888 251.889 78.64 249.793 78.64C247.729 78.64 246.657 79.888 246.273 81.216L247.793 81.824C248.017 80.88 248.673 80.176 249.729 80.176C250.721 80.176 251.377 80.752 251.377 81.728V81.952C251.377 83.232 250.401 83.872 248.689 83.952V86.496H250.353ZM249.537 90.192C250.353 90.192 250.705 89.744 250.705 89.136V88.864C250.705 88.256 250.353 87.808 249.537 87.808C248.721 87.808 248.369 88.256 248.369 88.864V89.136C248.369 89.744 248.721 90.192 249.537 90.192Z" fill="black"/>
<rect x="117" y="118" width="68" height="48" rx="4" fill="#7935D2"/>
<path d="M138.142 148.192C140.702 148.192 142.19 146.8 142.19 144.72C142.19 142.944 141.182 141.952 138.958 141.52L137.966 141.312C136.766 141.072 136.19 140.672 136.19 139.744C136.19 138.768 136.926 138.24 138.206 138.24C139.438 138.24 140.238 138.72 140.814 139.472L142.078 138.352C141.214 137.248 139.982 136.64 138.302 136.64C135.934 136.64 134.398 137.856 134.398 139.84C134.398 141.616 135.502 142.624 137.662 143.024L138.654 143.2C139.95 143.456 140.398 143.952 140.398 144.816C140.398 145.888 139.662 146.592 138.238 146.592C137.022 146.592 136.094 146.096 135.31 145.136L134.062 146.304C134.99 147.456 136.27 148.192 138.142 148.192ZM151.304 148V146.576H150.424V142.4C150.424 140.544 149.224 139.488 147.08 139.488C145.464 139.488 144.488 140.176 143.944 141.104L144.984 142.048C145.4 141.392 145.992 140.912 146.968 140.912C148.136 140.912 148.68 141.504 148.68 142.512V143.216H147.176C144.856 143.216 143.624 144.064 143.624 145.712C143.624 147.216 144.6 148.192 146.312 148.192C147.528 148.192 148.424 147.648 148.744 146.608H148.824C148.936 147.424 149.416 148 150.328 148H151.304ZM146.808 146.864C145.944 146.864 145.4 146.48 145.4 145.744V145.456C145.4 144.736 145.992 144.336 147.208 144.336H148.68V145.536C148.68 146.352 147.88 146.864 146.808 146.864ZM156.729 148L159.593 139.68H157.929L156.633 143.472L155.785 146.384H155.689L154.841 143.472L153.577 139.68H151.849L154.681 148H156.729ZM164.2 148.192C165.752 148.192 166.968 147.52 167.592 146.512L166.568 145.504C166.088 146.272 165.4 146.752 164.376 146.752C162.968 146.752 162.184 145.84 162.184 144.56V144.288H167.896V143.632C167.896 141.328 166.648 139.488 164.2 139.488C161.832 139.488 160.376 141.184 160.376 143.84C160.376 146.496 161.832 148.192 164.2 148.192ZM164.2 140.848C165.352 140.848 166.056 141.696 166.056 142.976V143.136H162.184V143.024C162.184 141.744 163 140.848 164.2 140.848Z" fill="white"/>
<path d="M222.709 148.192C224.645 148.192 225.989 147.216 226.741 145.6L225.285 144.72C224.885 145.808 224.037 146.576 222.709 146.576C220.997 146.576 219.941 145.328 219.941 143.264V141.568C219.941 139.504 220.997 138.256 222.709 138.256C224.005 138.256 224.789 138.944 225.173 140L226.693 139.168C225.941 137.504 224.645 136.64 222.709 136.64C219.797 136.64 218.021 138.672 218.021 142.416C218.021 146.16 219.797 148.192 222.709 148.192ZM235.601 148V146.576H234.721V142.4C234.721 140.544 233.521 139.488 231.377 139.488C229.761 139.488 228.785 140.176 228.241 141.104L229.281 142.048C229.697 141.392 230.289 140.912 231.265 140.912C232.433 140.912 232.977 141.504 232.977 142.512V143.216H231.473C229.153 143.216 227.921 144.064 227.921 145.712C227.921 147.216 228.897 148.192 230.609 148.192C231.825 148.192 232.721 147.648 233.041 146.608H233.121C233.233 147.424 233.713 148 234.625 148H235.601ZM231.105 146.864C230.241 146.864 229.697 146.48 229.697 145.744V145.456C229.697 144.736 230.289 144.336 231.505 144.336H232.977V145.536C232.977 146.352 232.177 146.864 231.105 146.864ZM239.055 148V142.432C239.055 141.456 239.951 140.992 240.863 140.992C241.935 140.992 242.431 141.648 242.431 142.944V148H244.175V142.72C244.175 140.672 243.167 139.488 241.471 139.488C240.191 139.488 239.487 140.16 239.135 141.056H239.055V139.68H237.311V148H239.055ZM249.808 148.192C251.408 148.192 252.544 147.44 253.088 146.08L251.76 145.376C251.408 146.208 250.816 146.752 249.808 146.752C248.528 146.752 247.872 145.872 247.872 144.592V143.104C247.872 141.824 248.528 140.944 249.808 140.944C250.752 140.944 251.344 141.44 251.584 142.208L253.024 141.536C252.528 140.304 251.472 139.488 249.808 139.488C247.408 139.488 246.032 141.184 246.032 143.84C246.032 146.496 247.408 148.192 249.808 148.192ZM257.918 148.192C259.47 148.192 260.686 147.52 261.31 146.512L260.286 145.504C259.806 146.272 259.118 146.752 258.094 146.752C256.686 146.752 255.902 145.84 255.902 144.56V144.288H261.614V143.632C261.614 141.328 260.366 139.488 257.918 139.488C255.55 139.488 254.094 141.184 254.094 143.84C254.094 146.496 255.55 148.192 257.918 148.192ZM257.918 140.848C259.07 140.848 259.774 141.696 259.774 142.976V143.136H255.902V143.024C255.902 141.744 256.718 140.848 257.918 140.848ZM266.441 148V146.576H265.289V136.16H263.545V146.272C263.545 147.344 264.137 148 265.321 148H266.441Z" fill="#292929"/>
<rect x="201.5" y="118.5" width="81" height="47" rx="3.5" stroke="black" stroke-opacity="0.102"/>
</svg>
