<svg width="400" height="240" viewBox="0 0 400 240" fill="none" xmlns="http://www.w3.org/2000/svg">
<rect x="71" y="96" width="258" height="48" rx="4" fill="#7935D2"/>
<path d="M92.6071 126.192C94.5431 126.192 95.8871 125.216 96.6391 123.6L95.1831 122.72C94.7831 123.808 93.9351 124.576 92.6071 124.576C90.8951 124.576 89.8391 123.328 89.8391 121.264V119.568C89.8391 117.504 90.8951 116.256 92.6071 116.256C93.9031 116.256 94.6871 116.944 95.0711 118L96.5911 117.168C95.8391 115.504 94.5431 114.64 92.6071 114.64C89.6951 114.64 87.9191 116.672 87.9191 120.416C87.9191 124.16 89.6951 126.192 92.6071 126.192ZM101.324 126V124.576H100.172V114.16H98.4277V124.272C98.4277 125.344 99.0197 126 100.204 126H101.324ZM103.87 116.192C104.59 116.192 104.894 115.808 104.894 115.28V115.008C104.894 114.48 104.59 114.096 103.87 114.096C103.15 114.096 102.83 114.48 102.83 115.008V115.28C102.83 115.808 103.15 116.192 103.87 116.192ZM102.99 126H104.734V117.68H102.99V126ZM110.441 126.192C112.041 126.192 113.177 125.44 113.721 124.08L112.393 123.376C112.041 124.208 111.449 124.752 110.441 124.752C109.161 124.752 108.505 123.872 108.505 122.592V121.104C108.505 119.824 109.161 118.944 110.441 118.944C111.385 118.944 111.977 119.44 112.217 120.208L113.657 119.536C113.161 118.304 112.105 117.488 110.441 117.488C108.041 117.488 106.665 119.184 106.665 121.84C106.665 124.496 108.041 126.192 110.441 126.192ZM115.381 126H117.125V123.28L118.277 122.032L120.661 126H122.741L119.477 120.896L122.389 117.68H120.357L118.357 119.936L117.205 121.424H117.125V114.16H115.381V126ZM127.912 126H129.656V120.416C129.656 119.456 130.552 118.992 131.464 118.992C132.536 118.992 133.032 119.648 133.032 120.928V126H134.776V120.72C134.776 118.672 133.768 117.488 132.072 117.488C130.792 117.488 130.088 118.16 129.736 119.056H129.656V114.16H127.912V126ZM140.457 126.192C142.009 126.192 143.225 125.52 143.849 124.512L142.825 123.504C142.345 124.272 141.657 124.752 140.633 124.752C139.225 124.752 138.441 123.84 138.441 122.56V122.288H144.153V121.632C144.153 119.328 142.905 117.488 140.457 117.488C138.089 117.488 136.633 119.184 136.633 121.84C136.633 124.496 138.089 126.192 140.457 126.192ZM140.457 118.848C141.609 118.848 142.313 119.696 142.313 120.976V121.136H138.441V121.024C138.441 119.744 139.257 118.848 140.457 118.848ZM147.828 126V120.688C147.828 119.824 148.596 119.36 149.972 119.36H150.66V117.68H150.196C148.868 117.68 148.148 118.432 147.908 119.28H147.828V117.68H146.084V126H147.828ZM155.395 126.192C156.947 126.192 158.163 125.52 158.787 124.512L157.763 123.504C157.283 124.272 156.595 124.752 155.571 124.752C154.163 124.752 153.379 123.84 153.379 122.56V122.288H159.091V121.632C159.091 119.328 157.843 117.488 155.395 117.488C153.027 117.488 151.571 119.184 151.571 121.84C151.571 124.496 153.027 126.192 155.395 126.192ZM155.395 118.848C156.547 118.848 157.251 119.696 157.251 120.976V121.136H153.379V121.024C153.379 119.744 154.195 118.848 155.395 118.848ZM168.627 126V124.576H167.011V119.104H168.755V117.68H167.011V115.408H165.443V116.864C165.443 117.44 165.251 117.68 164.675 117.68H163.971V119.104H165.267V124.192C165.267 125.328 165.907 126 167.107 126H168.627ZM173.848 126.192C176.168 126.192 177.672 124.496 177.672 121.84C177.672 119.184 176.168 117.488 173.848 117.488C171.528 117.488 170.024 119.184 170.024 121.84C170.024 124.496 171.528 126.192 173.848 126.192ZM173.848 124.752C172.664 124.752 171.864 124.016 171.864 122.544V121.136C171.864 119.664 172.664 118.928 173.848 118.928C175.032 118.928 175.832 119.664 175.832 121.136V122.544C175.832 124.016 175.032 124.752 173.848 124.752ZM185.14 126V120.416C185.14 119.456 185.988 118.992 186.852 118.992C187.876 118.992 188.372 119.632 188.372 120.928V126H190.116V120.416C190.116 119.456 190.932 118.992 191.812 118.992C192.868 118.992 193.348 119.648 193.348 120.928V126H195.092V120.72C195.092 118.672 194.116 117.488 192.468 117.488C191.124 117.488 190.26 118.256 189.956 119.184H189.908C189.508 118.032 188.564 117.488 187.444 117.488C186.18 117.488 185.556 118.192 185.22 119.056H185.14V117.68H183.396V126H185.14ZM204.578 126V124.576H203.698V120.4C203.698 118.544 202.498 117.488 200.354 117.488C198.738 117.488 197.762 118.176 197.218 119.104L198.258 120.048C198.674 119.392 199.266 118.912 200.242 118.912C201.41 118.912 201.954 119.504 201.954 120.512V121.216H200.45C198.13 121.216 196.898 122.064 196.898 123.712C196.898 125.216 197.874 126.192 199.586 126.192C200.802 126.192 201.698 125.648 202.018 124.608H202.098C202.21 125.424 202.69 126 203.602 126H204.578ZM200.082 124.864C199.218 124.864 198.674 124.48 198.674 123.744V123.456C198.674 122.736 199.266 122.336 200.482 122.336H201.954V123.536C201.954 124.352 201.154 124.864 200.082 124.864ZM206.287 126H208.031V123.28L209.183 122.032L211.567 126H213.647L210.383 120.896L213.295 117.68H211.263L209.263 119.936L208.111 121.424H208.031V114.16H206.287V126ZM217.957 126.192C219.509 126.192 220.725 125.52 221.349 124.512L220.325 123.504C219.845 124.272 219.157 124.752 218.133 124.752C216.725 124.752 215.941 123.84 215.941 122.56V122.288H221.653V121.632C221.653 119.328 220.405 117.488 217.957 117.488C215.589 117.488 214.133 119.184 214.133 121.84C214.133 124.496 215.589 126.192 217.957 126.192ZM217.957 118.848C219.109 118.848 219.813 119.696 219.813 120.976V121.136H215.941V121.024C215.941 119.744 216.757 118.848 217.957 118.848ZM234.437 126V124.576H233.557V120.4C233.557 118.544 232.357 117.488 230.213 117.488C228.597 117.488 227.621 118.176 227.077 119.104L228.117 120.048C228.533 119.392 229.125 118.912 230.101 118.912C231.269 118.912 231.813 119.504 231.813 120.512V121.216H230.309C227.989 121.216 226.757 122.064 226.757 123.712C226.757 125.216 227.733 126.192 229.445 126.192C230.661 126.192 231.557 125.648 231.877 124.608H231.957C232.069 125.424 232.549 126 233.461 126H234.437ZM229.941 124.864C229.077 124.864 228.533 124.48 228.533 123.744V123.456C228.533 122.736 229.125 122.336 230.341 122.336H231.813V123.536C231.813 124.352 231.013 124.864 229.941 124.864ZM241.672 126V120.688C241.672 119.824 242.44 119.36 243.816 119.36H244.504V117.68H244.04C242.712 117.68 241.992 118.432 241.752 119.28H241.672V117.68H239.928V126H241.672ZM249.239 126.192C250.791 126.192 252.007 125.52 252.631 124.512L251.607 123.504C251.127 124.272 250.439 124.752 249.415 124.752C248.007 124.752 247.223 123.84 247.223 122.56V122.288H252.935V121.632C252.935 119.328 251.687 117.488 249.239 117.488C246.871 117.488 245.415 119.184 245.415 121.84C245.415 124.496 246.871 126.192 249.239 126.192ZM249.239 118.848C250.391 118.848 251.095 119.696 251.095 120.976V121.136H247.223V121.024C247.223 119.744 248.039 118.848 249.239 118.848ZM257.505 126.192C259.505 126.192 260.801 125.12 260.801 123.52C260.801 122.176 259.985 121.376 258.161 121.104L257.393 121.008C256.513 120.864 256.113 120.576 256.113 119.936C256.113 119.312 256.561 118.896 257.521 118.896C258.417 118.896 259.121 119.328 259.553 119.84L260.625 118.816C259.873 117.984 259.025 117.488 257.521 117.488C255.697 117.488 254.433 118.432 254.433 120.048C254.433 121.584 255.473 122.32 257.169 122.528L257.937 122.624C258.801 122.736 259.121 123.136 259.121 123.664C259.121 124.368 258.609 124.784 257.601 124.784C256.609 124.784 255.857 124.336 255.249 123.6L254.129 124.624C254.913 125.6 255.937 126.192 257.505 126.192ZM264.515 126V120.688C264.515 119.824 265.283 119.36 266.659 119.36H267.347V117.68H266.883C265.555 117.68 264.835 118.432 264.595 119.28H264.515V117.68H262.771V126H264.515ZM272.893 126L275.757 117.68H274.093L272.797 121.472L271.949 124.384H271.853L271.005 121.472L269.741 117.68H268.013L270.845 126H272.893ZM284.156 126V124.576H283.276V120.4C283.276 118.544 282.076 117.488 279.932 117.488C278.316 117.488 277.34 118.176 276.796 119.104L277.836 120.048C278.252 119.392 278.844 118.912 279.82 118.912C280.988 118.912 281.532 119.504 281.532 120.512V121.216H280.028C277.708 121.216 276.476 122.064 276.476 123.712C276.476 125.216 277.452 126.192 279.164 126.192C280.38 126.192 281.276 125.648 281.596 124.608H281.676C281.788 125.424 282.268 126 283.18 126H284.156ZM279.66 124.864C278.796 124.864 278.252 124.48 278.252 123.744V123.456C278.252 122.736 278.844 122.336 280.06 122.336H281.532V123.536C281.532 124.352 280.732 124.864 279.66 124.864ZM289.642 126V124.576H288.026V119.104H289.77V117.68H288.026V115.408H286.458V116.864C286.458 117.44 286.266 117.68 285.69 117.68H284.986V119.104H286.282V124.192C286.282 125.328 286.922 126 288.122 126H289.642ZM292.542 116.192C293.262 116.192 293.566 115.808 293.566 115.28V115.008C293.566 114.48 293.262 114.096 292.542 114.096C291.822 114.096 291.502 114.48 291.502 115.008V115.28C291.502 115.808 291.822 116.192 292.542 116.192ZM291.662 126H293.406V117.68H291.662V126ZM299.16 126.192C301.48 126.192 302.984 124.496 302.984 121.84C302.984 119.184 301.48 117.488 299.16 117.488C296.84 117.488 295.336 119.184 295.336 121.84C295.336 124.496 296.84 126.192 299.16 126.192ZM299.16 124.752C297.976 124.752 297.176 124.016 297.176 122.544V121.136C297.176 119.664 297.976 118.928 299.16 118.928C300.344 118.928 301.144 119.664 301.144 121.136V122.544C301.144 124.016 300.344 124.752 299.16 124.752ZM306.672 126V120.432C306.672 119.456 307.568 118.992 308.48 118.992C309.552 118.992 310.048 119.648 310.048 120.944V126H311.792V120.72C311.792 118.672 310.784 117.488 309.088 117.488C307.808 117.488 307.104 118.16 306.752 119.056H306.672V117.68H304.928V126H306.672Z" fill="white"/>
</svg>
