<svg width="400" height="240" viewBox="0 0 400 240" fill="none" xmlns="http://www.w3.org/2000/svg">
<path d="M157.454 90.192C160.014 90.192 161.502 88.8 161.502 86.72C161.502 84.944 160.494 83.952 158.27 83.52L157.278 83.312C156.078 83.072 155.502 82.672 155.502 81.744C155.502 80.768 156.238 80.24 157.518 80.24C158.75 80.24 159.55 80.72 160.126 81.472L161.39 80.352C160.526 79.248 159.294 78.64 157.614 78.64C155.246 78.64 153.71 79.856 153.71 81.84C153.71 83.616 154.814 84.624 156.974 85.024L157.966 85.2C159.262 85.456 159.71 85.952 159.71 86.816C159.71 87.888 158.974 88.592 157.55 88.592C156.334 88.592 155.406 88.096 154.622 87.136L153.374 88.304C154.302 89.456 155.582 90.192 157.454 90.192ZM170.617 90V88.576H169.737V84.4C169.737 82.544 168.537 81.488 166.393 81.488C164.777 81.488 163.801 82.176 163.257 83.104L164.297 84.048C164.713 83.392 165.305 82.912 166.281 82.912C167.449 82.912 167.993 83.504 167.993 84.512V85.216H166.489C164.169 85.216 162.937 86.064 162.937 87.712C162.937 89.216 163.913 90.192 165.625 90.192C166.841 90.192 167.737 89.648 168.057 88.608H168.137C168.249 89.424 168.729 90 169.641 90H170.617ZM166.121 88.864C165.257 88.864 164.713 88.48 164.713 87.744V87.456C164.713 86.736 165.305 86.336 166.521 86.336H167.993V87.536C167.993 88.352 167.193 88.864 166.121 88.864ZM176.042 90L178.906 81.68H177.242L175.946 85.472L175.098 88.384H175.002L174.154 85.472L172.89 81.68H171.162L173.994 90H176.042ZM183.512 90.192C185.064 90.192 186.28 89.52 186.904 88.512L185.88 87.504C185.4 88.272 184.712 88.752 183.688 88.752C182.28 88.752 181.496 87.84 181.496 86.56V86.288H187.208V85.632C187.208 83.328 185.96 81.488 183.512 81.488C181.144 81.488 179.688 83.184 179.688 85.84C179.688 88.496 181.144 90.192 183.512 90.192ZM183.512 82.848C184.664 82.848 185.368 83.696 185.368 84.976V85.136H181.496V85.024C181.496 83.744 182.312 82.848 183.512 82.848ZM196.136 90.192C197.736 90.192 198.872 89.44 199.416 88.08L198.088 87.376C197.736 88.208 197.144 88.752 196.136 88.752C194.856 88.752 194.2 87.872 194.2 86.592V85.104C194.2 83.824 194.856 82.944 196.136 82.944C197.08 82.944 197.672 83.44 197.912 84.208L199.352 83.536C198.856 82.304 197.8 81.488 196.136 81.488C193.736 81.488 192.36 83.184 192.36 85.84C192.36 88.496 193.736 90.192 196.136 90.192ZM201.076 90H202.82V84.416C202.82 83.456 203.716 82.992 204.628 82.992C205.7 82.992 206.196 83.648 206.196 84.928V90H207.94V84.72C207.94 82.672 206.932 81.488 205.236 81.488C203.956 81.488 203.252 82.16 202.9 83.056H202.82V78.16H201.076V90ZM217.429 90V88.576H216.549V84.4C216.549 82.544 215.349 81.488 213.205 81.488C211.589 81.488 210.613 82.176 210.069 83.104L211.109 84.048C211.525 83.392 212.117 82.912 213.093 82.912C214.261 82.912 214.805 83.504 214.805 84.512V85.216H213.301C210.981 85.216 209.749 86.064 209.749 87.712C209.749 89.216 210.725 90.192 212.437 90.192C213.653 90.192 214.549 89.648 214.869 88.608H214.949C215.061 89.424 215.541 90 216.453 90H217.429ZM212.933 88.864C212.069 88.864 211.525 88.48 211.525 87.744V87.456C211.525 86.736 212.117 86.336 213.333 86.336H214.805V87.536C214.805 88.352 214.005 88.864 212.933 88.864ZM220.883 90V84.432C220.883 83.456 221.779 82.992 222.691 82.992C223.763 82.992 224.259 83.648 224.259 84.944V90H226.003V84.72C226.003 82.672 224.995 81.488 223.299 81.488C222.019 81.488 221.315 82.16 220.963 83.056H220.883V81.68H219.139V90H220.883ZM235.716 90.784C235.716 89.344 234.852 88.48 232.804 88.48H230.756C230.02 88.48 229.588 88.304 229.588 87.856C229.588 87.44 229.972 87.168 230.388 87.024C230.692 87.104 231.076 87.152 231.476 87.152C233.588 87.152 234.804 86.016 234.804 84.336C234.804 83.376 234.388 82.576 233.636 82.08V81.744H235.332V80.336H234.052C233.316 80.336 232.964 80.784 232.964 81.52V81.744C232.532 81.568 232.02 81.488 231.46 81.488C229.348 81.488 228.148 82.64 228.148 84.336C228.148 85.456 228.692 86.336 229.668 86.8V86.864C228.868 87.056 228.196 87.472 228.196 88.336C228.196 88.96 228.532 89.424 229.14 89.616V89.792C228.26 89.984 227.716 90.48 227.716 91.392C227.716 92.656 228.772 93.392 231.492 93.392C234.484 93.392 235.716 92.512 235.716 90.784ZM234.084 90.976C234.084 91.744 233.412 92.128 232.052 92.128H230.964C229.668 92.128 229.172 91.664 229.172 90.992C229.172 90.592 229.364 90.256 229.748 90.032H232.564C233.7 90.032 234.084 90.4 234.084 90.976ZM231.476 85.888C230.452 85.888 229.86 85.424 229.86 84.48V84.16C229.86 83.216 230.452 82.752 231.476 82.752C232.5 82.752 233.092 83.216 233.092 84.16V84.48C233.092 85.424 232.5 85.888 231.476 85.888ZM240.184 90.192C241.736 90.192 242.952 89.52 243.576 88.512L242.552 87.504C242.072 88.272 241.384 88.752 240.36 88.752C238.952 88.752 238.168 87.84 238.168 86.56V86.288H243.88V85.632C243.88 83.328 242.632 81.488 240.184 81.488C237.816 81.488 236.36 83.184 236.36 85.84C236.36 88.496 237.816 90.192 240.184 90.192ZM240.184 82.848C241.336 82.848 242.04 83.696 242.04 84.976V85.136H238.168V85.024C238.168 83.744 238.984 82.848 240.184 82.848ZM248.451 90.192C250.451 90.192 251.747 89.12 251.747 87.52C251.747 86.176 250.931 85.376 249.107 85.104L248.339 85.008C247.459 84.864 247.059 84.576 247.059 83.936C247.059 83.312 247.507 82.896 248.467 82.896C249.363 82.896 250.067 83.328 250.499 83.84L251.571 82.816C250.819 81.984 249.971 81.488 248.467 81.488C246.643 81.488 245.379 82.432 245.379 84.048C245.379 85.584 246.419 86.32 248.115 86.528L248.883 86.624C249.747 86.736 250.067 87.136 250.067 87.664C250.067 88.368 249.555 88.784 248.547 88.784C247.555 88.784 246.803 88.336 246.195 87.6L245.075 88.624C245.859 89.6 246.883 90.192 248.451 90.192ZM256.853 86.496V85.024C258.293 84.768 259.733 83.712 259.733 81.776C259.733 79.888 258.389 78.64 256.293 78.64C254.229 78.64 253.157 79.888 252.773 81.216L254.293 81.824C254.517 80.88 255.173 80.176 256.229 80.176C257.221 80.176 257.877 80.752 257.877 81.728V81.952C257.877 83.232 256.901 83.872 255.189 83.952V86.496H256.853ZM256.037 90.192C256.853 90.192 257.205 89.744 257.205 89.136V88.864C257.205 88.256 256.853 87.808 256.037 87.808C255.221 87.808 254.869 88.256 254.869 88.864V89.136C254.869 89.744 255.221 90.192 256.037 90.192Z" fill="black"/>
<rect x="117" y="118" width="71" height="48" rx="4" fill="#7935D2"/>
<path d="M137.751 148.192C140.311 148.192 141.799 146.8 141.799 144.72C141.799 142.944 140.791 141.952 138.567 141.52L137.575 141.312C136.375 141.072 135.799 140.672 135.799 139.744C135.799 138.768 136.535 138.24 137.815 138.24C139.047 138.24 139.847 138.72 140.423 139.472L141.687 138.352C140.823 137.248 139.591 136.64 137.911 136.64C135.543 136.64 134.007 137.856 134.007 139.84C134.007 141.616 135.111 142.624 137.271 143.024L138.263 143.2C139.559 143.456 140.007 143.952 140.007 144.816C140.007 145.888 139.271 146.592 137.847 146.592C136.631 146.592 135.703 146.096 134.919 145.136L133.671 146.304C134.599 147.456 135.879 148.192 137.751 148.192ZM152.834 148L149.026 136.832H146.754L142.946 148H144.786L145.762 144.976H149.938L150.946 148H152.834ZM149.49 143.424H146.194L147.81 138.496H147.89L149.49 143.424ZM158.486 148L162.198 136.832H160.374L158.598 142.352L157.51 146.24H157.446L156.374 142.352L154.598 136.832H152.726L156.39 148H158.486ZM171.012 148V146.4H165.668V143.136H170.516V141.536H165.668V138.432H171.012V136.832H163.86V148H171.012Z" fill="white"/>
<path d="M225.599 148.192C227.535 148.192 228.879 147.216 229.631 145.6L228.175 144.72C227.775 145.808 226.927 146.576 225.599 146.576C223.887 146.576 222.831 145.328 222.831 143.264V141.568C222.831 139.504 223.887 138.256 225.599 138.256C226.895 138.256 227.679 138.944 228.063 140L229.583 139.168C228.831 137.504 227.535 136.64 225.599 136.64C222.687 136.64 220.911 138.672 220.911 142.416C220.911 146.16 222.687 148.192 225.599 148.192ZM240.365 148L236.557 136.832H234.285L230.477 148H232.317L233.293 144.976H237.469L238.477 148H240.365ZM237.021 143.424H233.725L235.341 138.496H235.421L237.021 143.424ZM248.751 148H250.767V136.832H249.039V145.376H248.991L247.759 143.008L244.111 136.832H242.095V148H243.823V139.456H243.871L245.103 141.824L248.751 148ZM257.709 148.192C259.645 148.192 260.989 147.216 261.741 145.6L260.285 144.72C259.885 145.808 259.037 146.576 257.709 146.576C255.997 146.576 254.941 145.328 254.941 143.264V141.568C254.941 139.504 255.997 138.256 257.709 138.256C259.005 138.256 259.789 138.944 260.173 140L261.693 139.168C260.941 137.504 259.645 136.64 257.709 136.64C254.797 136.64 253.021 138.672 253.021 142.416C253.021 146.16 254.797 148.192 257.709 148.192ZM270.809 148V146.4H265.465V143.136H270.313V141.536H265.465V138.432H270.809V136.832H263.657V148H270.809ZM279.494 148V146.4H274.95V136.832H273.142V148H279.494Z" fill="#292929"/>
<rect x="204.5" y="118.5" width="91" height="47" rx="3.5" stroke="black" stroke-opacity="0.102"/>
</svg>
