<svg width="400" height="240" viewBox="0 0 400 240" fill="none" xmlns="http://www.w3.org/2000/svg">
<rect x="133" y="96" width="105" height="48" rx="4" fill="#7935D2"/>
<path d="M150.814 126H156.254C157.902 126 159.134 124.592 159.134 122.784C159.134 120.912 157.71 120.208 156.798 120.176V120.08C157.71 120 158.734 119.392 158.734 117.712C158.734 115.968 157.598 114.832 155.758 114.832H150.814V126ZM152.622 121.056H155.726C156.654 121.056 157.23 121.568 157.23 122.48V123.024C157.23 123.936 156.654 124.448 155.726 124.448H152.622V121.056ZM152.622 116.384H155.422C156.302 116.384 156.83 116.864 156.83 117.712V118.224C156.83 119.072 156.302 119.552 155.422 119.552H152.622V116.384ZM164.496 126.192C166.816 126.192 168.32 124.496 168.32 121.84C168.32 119.184 166.816 117.488 164.496 117.488C162.176 117.488 160.672 119.184 160.672 121.84C160.672 124.496 162.176 126.192 164.496 126.192ZM164.496 124.752C163.312 124.752 162.512 124.016 162.512 122.544V121.136C162.512 119.664 163.312 118.928 164.496 118.928C165.68 118.928 166.48 119.664 166.48 121.136V122.544C166.48 124.016 165.68 124.752 164.496 124.752ZM173.528 126.192C175.848 126.192 177.352 124.496 177.352 121.84C177.352 119.184 175.848 117.488 173.528 117.488C171.208 117.488 169.704 119.184 169.704 121.84C169.704 124.496 171.208 126.192 173.528 126.192ZM173.528 124.752C172.344 124.752 171.544 124.016 171.544 122.544V121.136C171.544 119.664 172.344 118.928 173.528 118.928C174.712 118.928 175.512 119.664 175.512 121.136V122.544C175.512 124.016 174.712 124.752 173.528 124.752ZM179.295 126H181.039V123.28L182.191 122.032L184.575 126H186.655L183.391 120.896L186.303 117.68H184.271L182.271 119.936L181.119 121.424H181.039V114.16H179.295V126ZM193.57 126V120.432C193.57 119.456 194.466 118.992 195.378 118.992C196.45 118.992 196.946 119.648 196.946 120.944V126H198.69V120.72C198.69 118.672 197.682 117.488 195.986 117.488C194.706 117.488 194.002 118.16 193.65 119.056H193.57V117.68H191.826V126H193.57ZM204.371 126.192C206.691 126.192 208.195 124.496 208.195 121.84C208.195 119.184 206.691 117.488 204.371 117.488C202.051 117.488 200.547 119.184 200.547 121.84C200.547 124.496 202.051 126.192 204.371 126.192ZM204.371 124.752C203.187 124.752 202.387 124.016 202.387 122.544V121.136C202.387 119.664 203.187 118.928 204.371 118.928C205.555 118.928 206.355 119.664 206.355 121.136V122.544C206.355 124.016 205.555 124.752 204.371 124.752ZM211.469 126H213.389L214.493 122.208L215.149 119.872H215.181L215.853 122.208L216.941 126H218.909L221.149 117.68H219.533L218.669 121.168L217.933 124.32H217.885L217.005 121.168L215.981 117.68H214.413L213.405 121.168L212.541 124.32H212.493L211.741 121.168L210.893 117.68H209.197L211.469 126Z" fill="white"/>
</svg>
