<svg width="400" height="240" viewBox="0 0 400 240" fill="none" xmlns="http://www.w3.org/2000/svg">
<path d="M235.5 96.5H324C325.933 96.5 327.5 98.067 327.5 100V140C327.5 141.933 325.933 143.5 324 143.5H235.5V96.5Z" fill="#FCFCFC"/>
<path d="M252.376 126H254.104V117.456H254.184L255.064 119.264L257.512 123.728L259.96 119.264L260.84 117.456H260.92V126H262.648V114.832H260.6L257.608 120.512H257.512L254.52 114.832H252.376V126ZM270.319 126H272.063V117.68H270.319V123.248C270.319 124.224 269.439 124.688 268.543 124.688C267.471 124.688 266.943 124.016 266.943 122.752V117.68H265.199V122.976C265.199 125.024 266.207 126.192 267.919 126.192C269.295 126.192 269.951 125.44 270.255 124.624H270.319V126ZM277.201 126.192C279.201 126.192 280.497 125.12 280.497 123.52C280.497 122.176 279.681 121.376 277.857 121.104L277.089 121.008C276.209 120.864 275.809 120.576 275.809 119.936C275.809 119.312 276.257 118.896 277.217 118.896C278.113 118.896 278.817 119.328 279.249 119.84L280.321 118.816C279.569 117.984 278.721 117.488 277.217 117.488C275.393 117.488 274.129 118.432 274.129 120.048C274.129 121.584 275.169 122.32 276.865 122.528L277.633 122.624C278.497 122.736 278.817 123.136 278.817 123.664C278.817 124.368 278.305 124.784 277.297 124.784C276.305 124.784 275.553 124.336 274.945 123.6L273.825 124.624C274.609 125.6 275.633 126.192 277.201 126.192ZM286.181 126V124.576H284.565V119.104H286.309V117.68H284.565V115.408H282.997V116.864C282.997 117.44 282.805 117.68 282.229 117.68H281.525V119.104H282.821V124.192C282.821 125.328 283.461 126 284.661 126H286.181ZM295.273 126V124.576H294.393V120.4C294.393 118.544 293.193 117.488 291.049 117.488C289.433 117.488 288.457 118.176 287.913 119.104L288.953 120.048C289.369 119.392 289.961 118.912 290.937 118.912C292.105 118.912 292.649 119.504 292.649 120.512V121.216H291.145C288.825 121.216 287.593 122.064 287.593 123.712C287.593 125.216 288.569 126.192 290.281 126.192C291.497 126.192 292.393 125.648 292.713 124.608H292.793C292.905 125.424 293.385 126 294.297 126H295.273ZM290.777 124.864C289.913 124.864 289.369 124.48 289.369 123.744V123.456C289.369 122.736 289.961 122.336 291.177 122.336H292.649V123.536C292.649 124.352 291.849 124.864 290.777 124.864ZM298.726 126V120.688C298.726 119.824 299.494 119.36 300.87 119.36H301.558V117.68H301.094C299.766 117.68 299.046 118.432 298.806 119.28H298.726V117.68H296.982V126H298.726ZM308.261 126H310.005V114.16H308.261V119.056H308.181C307.829 118.064 306.949 117.488 305.845 117.488C303.749 117.488 302.533 119.104 302.533 121.84C302.533 124.576 303.749 126.192 305.845 126.192C306.949 126.192 307.829 125.6 308.181 124.624H308.261V126ZM306.373 124.688C305.173 124.688 304.373 123.84 304.373 122.56V121.12C304.373 119.84 305.173 118.992 306.373 118.992C307.429 118.992 308.261 119.568 308.261 120.416V123.264C308.261 124.112 307.429 124.688 306.373 124.688Z" fill="#292929"/>
<path d="M235.5 96.5H324C325.933 96.5 327.5 98.067 327.5 100V140C327.5 141.933 325.933 143.5 324 143.5H235.5V96.5Z" stroke="#E5E5E5"/>
<rect x="142.5" y="96.5" width="93" height="47" fill="white"/>
<path d="M166.112 126H168.288L163.984 119.536L167.968 114.832H165.856L162.848 118.464L161.248 120.496H161.184V114.832H159.376V126H161.184V122.544L162.72 120.784L166.112 126ZM172.668 126.192C174.22 126.192 175.436 125.52 176.06 124.512L175.036 123.504C174.556 124.272 173.868 124.752 172.844 124.752C171.436 124.752 170.652 123.84 170.652 122.56V122.288H176.364V121.632C176.364 119.328 175.116 117.488 172.668 117.488C170.3 117.488 168.844 119.184 168.844 121.84C168.844 124.496 170.3 126.192 172.668 126.192ZM172.668 118.848C173.82 118.848 174.524 119.696 174.524 120.976V121.136H170.652V121.024C170.652 119.744 171.468 118.848 172.668 118.848ZM182.119 126V124.576H180.503V119.104H182.247V117.68H180.503V115.408H178.935V116.864C178.935 117.44 178.743 117.68 178.167 117.68H177.463V119.104H178.759V124.192C178.759 125.328 179.399 126 180.599 126H182.119ZM187.292 126.192C188.892 126.192 190.028 125.44 190.572 124.08L189.244 123.376C188.892 124.208 188.3 124.752 187.292 124.752C186.012 124.752 185.356 123.872 185.356 122.592V121.104C185.356 119.824 186.012 118.944 187.292 118.944C188.236 118.944 188.828 119.44 189.068 120.208L190.508 119.536C190.012 118.304 188.956 117.488 187.292 117.488C184.892 117.488 183.516 119.184 183.516 121.84C183.516 124.496 184.892 126.192 187.292 126.192ZM192.232 126H193.976V120.416C193.976 119.456 194.872 118.992 195.784 118.992C196.856 118.992 197.352 119.648 197.352 120.928V126H199.096V120.72C199.096 118.672 198.088 117.488 196.392 117.488C195.112 117.488 194.408 118.16 194.056 119.056H193.976V114.16H192.232V126ZM206.554 126H208.298V117.68H206.554V123.248C206.554 124.224 205.674 124.688 204.778 124.688C203.706 124.688 203.178 124.016 203.178 122.752V117.68H201.434V122.976C201.434 125.024 202.442 126.192 204.154 126.192C205.53 126.192 206.186 125.44 206.49 124.624H206.554V126ZM210.795 129.2H212.539V124.624H212.619C212.971 125.6 213.851 126.192 214.955 126.192C217.051 126.192 218.267 124.576 218.267 121.84C218.267 119.104 217.051 117.488 214.955 117.488C213.851 117.488 212.971 118.064 212.619 119.056H212.539V117.68H210.795V129.2ZM214.427 124.688C213.371 124.688 212.539 124.112 212.539 123.264V120.416C212.539 119.568 213.371 118.992 214.427 118.992C215.627 118.992 216.427 119.84 216.427 121.12V122.56C216.427 123.84 215.627 124.688 214.427 124.688Z" fill="#292929"/>
<rect x="142.5" y="96.5" width="93" height="47" stroke="#292929"/>
<path d="M72.5 100C72.5 98.067 74.067 96.5 76 96.5H142.5V143.5H76C74.067 143.5 72.5 141.933 72.5 140V100Z" fill="white"/>
<path d="M89.376 126H91.104V117.456H91.184L92.064 119.264L94.512 123.728L96.96 119.264L97.84 117.456H97.92V126H99.648V114.832H97.6L94.608 120.512H94.512L91.52 114.832H89.376V126ZM109.351 126V124.576H108.471V120.4C108.471 118.544 107.271 117.488 105.127 117.488C103.511 117.488 102.535 118.176 101.991 119.104L103.031 120.048C103.447 119.392 104.039 118.912 105.015 118.912C106.183 118.912 106.727 119.504 106.727 120.512V121.216H105.223C102.903 121.216 101.671 122.064 101.671 123.712C101.671 125.216 102.647 126.192 104.359 126.192C105.575 126.192 106.471 125.648 106.791 124.608H106.871C106.983 125.424 107.463 126 108.375 126H109.351ZM104.855 124.864C103.991 124.864 103.447 124.48 103.447 123.744V123.456C103.447 122.736 104.039 122.336 105.255 122.336H106.727V123.536C106.727 124.352 105.927 124.864 104.855 124.864ZM114.391 122.576L113.863 124.384H113.783L113.303 122.576L111.639 117.68H109.895L112.919 126.368L112.439 127.776H111.031V129.2H112.039C113.335 129.2 113.831 128.768 114.231 127.648L117.735 117.68H116.055L114.391 122.576ZM122.34 126.192C124.66 126.192 126.164 124.496 126.164 121.84C126.164 119.184 124.66 117.488 122.34 117.488C120.02 117.488 118.516 119.184 118.516 121.84C118.516 124.496 120.02 126.192 122.34 126.192ZM122.34 124.752C121.156 124.752 120.356 124.016 120.356 122.544V121.136C120.356 119.664 121.156 118.928 122.34 118.928C123.524 118.928 124.324 119.664 124.324 121.136V122.544C124.324 124.016 123.524 124.752 122.34 124.752Z" fill="#292929"/>
<path d="M72.5 100C72.5 98.067 74.067 96.5 76 96.5H142.5V143.5H76C74.067 143.5 72.5 141.933 72.5 140V100Z" stroke="#292929"/>
</svg>
