<svg width="400" height="240" viewBox="0 0 400 240" fill="none" xmlns="http://www.w3.org/2000/svg">
<rect x="157.5" y="72.5" width="79" height="47" fill="#FCFCFC"/>
<path d="M177.72 102.192C180.28 102.192 181.768 100.8 181.768 98.72C181.768 96.944 180.76 95.952 178.536 95.52L177.544 95.312C176.344 95.072 175.768 94.672 175.768 93.744C175.768 92.768 176.504 92.24 177.784 92.24C179.016 92.24 179.816 92.72 180.392 93.472L181.656 92.352C180.792 91.248 179.56 90.64 177.88 90.64C175.512 90.64 173.976 91.856 173.976 93.84C173.976 95.616 175.08 96.624 177.24 97.024L178.232 97.2C179.528 97.456 179.976 97.952 179.976 98.816C179.976 99.888 179.24 100.592 177.816 100.592C176.6 100.592 175.672 100.096 174.888 99.136L173.64 100.304C174.568 101.456 175.848 102.192 177.72 102.192ZM183.811 105.2H185.555V100.624H185.635C185.987 101.6 186.867 102.192 187.971 102.192C190.067 102.192 191.283 100.576 191.283 97.84C191.283 95.104 190.067 93.488 187.971 93.488C186.867 93.488 185.987 94.064 185.635 95.056H185.555V93.68H183.811V105.2ZM187.443 100.688C186.387 100.688 185.555 100.112 185.555 99.264V96.416C185.555 95.568 186.387 94.992 187.443 94.992C188.643 94.992 189.443 95.84 189.443 97.12V98.56C189.443 99.84 188.643 100.688 187.443 100.688ZM195.023 102V96.688C195.023 95.824 195.791 95.36 197.167 95.36H197.855V93.68H197.391C196.063 93.68 195.343 94.432 195.103 95.28H195.023V93.68H193.279V102H195.023ZM200.284 92.192C201.004 92.192 201.308 91.808 201.308 91.28V91.008C201.308 90.48 201.004 90.096 200.284 90.096C199.564 90.096 199.244 90.48 199.244 91.008V91.28C199.244 91.808 199.564 92.192 200.284 92.192ZM199.404 102H201.148V93.68H199.404V102ZM205.383 102V96.432C205.383 95.456 206.279 94.992 207.191 94.992C208.263 94.992 208.759 95.648 208.759 96.944V102H210.503V96.72C210.503 94.672 209.495 93.488 207.799 93.488C206.519 93.488 205.815 94.16 205.463 95.056H205.383V93.68H203.639V102H205.383ZM220.216 102.784C220.216 101.344 219.352 100.48 217.304 100.48H215.256C214.52 100.48 214.088 100.304 214.088 99.856C214.088 99.44 214.472 99.168 214.888 99.024C215.192 99.104 215.576 99.152 215.976 99.152C218.088 99.152 219.304 98.016 219.304 96.336C219.304 95.376 218.888 94.576 218.136 94.08V93.744H219.832V92.336H218.552C217.816 92.336 217.464 92.784 217.464 93.52V93.744C217.032 93.568 216.52 93.488 215.96 93.488C213.848 93.488 212.648 94.64 212.648 96.336C212.648 97.456 213.192 98.336 214.168 98.8V98.864C213.368 99.056 212.696 99.472 212.696 100.336C212.696 100.96 213.032 101.424 213.64 101.616V101.792C212.76 101.984 212.216 102.48 212.216 103.392C212.216 104.656 213.272 105.392 215.992 105.392C218.984 105.392 220.216 104.512 220.216 102.784ZM218.584 102.976C218.584 103.744 217.912 104.128 216.552 104.128H215.464C214.168 104.128 213.672 103.664 213.672 102.992C213.672 102.592 213.864 102.256 214.248 102.032H217.064C218.2 102.032 218.584 102.4 218.584 102.976ZM215.976 97.888C214.952 97.888 214.36 97.424 214.36 96.48V96.16C214.36 95.216 214.952 94.752 215.976 94.752C217 94.752 217.592 95.216 217.592 96.16V96.48C217.592 97.424 217 97.888 215.976 97.888Z" fill="#292929"/>
<rect x="157.5" y="72.5" width="79" height="47" stroke="#E5E5E5"/>
<rect x="236.5" y="72.5" width="94" height="47" fill="#FCFCFC"/>
<path d="M256.72 102.192C259.28 102.192 260.768 100.8 260.768 98.72C260.768 96.944 259.76 95.952 257.536 95.52L256.544 95.312C255.344 95.072 254.768 94.672 254.768 93.744C254.768 92.768 255.504 92.24 256.784 92.24C258.016 92.24 258.816 92.72 259.392 93.472L260.656 92.352C259.792 91.248 258.56 90.64 256.88 90.64C254.512 90.64 252.976 91.856 252.976 93.84C252.976 95.616 254.08 96.624 256.24 97.024L257.232 97.2C258.528 97.456 258.976 97.952 258.976 98.816C258.976 99.888 258.24 100.592 256.816 100.592C255.6 100.592 254.672 100.096 253.888 99.136L252.64 100.304C253.568 101.456 254.848 102.192 256.72 102.192ZM267.851 102H269.595V93.68H267.851V99.248C267.851 100.224 266.971 100.688 266.075 100.688C265.003 100.688 264.475 100.016 264.475 98.752V93.68H262.731V98.976C262.731 101.024 263.739 102.192 265.451 102.192C266.827 102.192 267.483 101.44 267.787 100.624H267.851V102ZM273.836 102V96.416C273.836 95.456 274.684 94.992 275.548 94.992C276.572 94.992 277.068 95.632 277.068 96.928V102H278.812V96.416C278.812 95.456 279.628 94.992 280.508 94.992C281.564 94.992 282.044 95.648 282.044 96.928V102H283.788V96.72C283.788 94.672 282.812 93.488 281.164 93.488C279.82 93.488 278.956 94.256 278.652 95.184H278.604C278.204 94.032 277.26 93.488 276.14 93.488C274.876 93.488 274.252 94.192 273.916 95.056H273.836V93.68H272.092V102H273.836ZM287.945 102V96.416C287.945 95.456 288.793 94.992 289.657 94.992C290.681 94.992 291.177 95.632 291.177 96.928V102H292.921V96.416C292.921 95.456 293.737 94.992 294.617 94.992C295.673 94.992 296.153 95.648 296.153 96.928V102H297.897V96.72C297.897 94.672 296.921 93.488 295.273 93.488C293.929 93.488 293.065 94.256 292.761 95.184H292.713C292.313 94.032 291.369 93.488 290.249 93.488C288.985 93.488 288.361 94.192 288.025 95.056H287.945V93.68H286.201V102H287.945ZM303.575 102.192C305.127 102.192 306.343 101.52 306.967 100.512L305.943 99.504C305.463 100.272 304.775 100.752 303.751 100.752C302.343 100.752 301.559 99.84 301.559 98.56V98.288H307.271V97.632C307.271 95.328 306.023 93.488 303.575 93.488C301.207 93.488 299.751 95.184 299.751 97.84C299.751 100.496 301.207 102.192 303.575 102.192ZM303.575 94.848C304.727 94.848 305.431 95.696 305.431 96.976V97.136H301.559V97.024C301.559 95.744 302.375 94.848 303.575 94.848ZM310.945 102V96.688C310.945 95.824 311.713 95.36 313.089 95.36H313.777V93.68H313.313C311.985 93.68 311.265 94.432 311.025 95.28H310.945V93.68H309.201V102H310.945Z" fill="#292929"/>
<rect x="236.5" y="72.5" width="94" height="47" stroke="#E5E5E5"/>
<path d="M69.5 76C69.5 74.067 71.067 72.5 73 72.5H157.5V119.5H73C71.067 119.5 69.5 117.933 69.5 116V76Z" fill="white"/>
<path d="M95.24 102L91.432 90.832H89.16L85.352 102H87.192L88.168 98.976H92.344L93.352 102H95.24ZM91.896 97.424H88.6L90.216 92.496H90.296L91.896 97.424ZM99.7378 102V100.576H98.5858V90.16H96.8418V100.272C96.8418 101.344 97.4338 102 98.6178 102H99.7378ZM104.207 102V100.576H103.055V90.16H101.311V100.272C101.311 101.344 101.903 102 103.087 102H104.207ZM114.23 102V97.568L118.102 90.832H116.118L113.414 95.808H113.366L110.646 90.832H108.582L112.422 97.6V102H114.23ZM121.934 102.192C123.486 102.192 124.702 101.52 125.326 100.512L124.302 99.504C123.822 100.272 123.134 100.752 122.11 100.752C120.702 100.752 119.918 99.84 119.918 98.56V98.288H125.63V97.632C125.63 95.328 124.382 93.488 121.934 93.488C119.566 93.488 118.11 95.184 118.11 97.84C118.11 100.496 119.566 102.192 121.934 102.192ZM121.934 94.848C123.086 94.848 123.79 95.696 123.79 96.976V97.136H119.918V97.024C119.918 95.744 120.734 94.848 121.934 94.848ZM134.633 102V100.576H133.753V96.4C133.753 94.544 132.553 93.488 130.409 93.488C128.793 93.488 127.817 94.176 127.273 95.104L128.312 96.048C128.729 95.392 129.321 94.912 130.297 94.912C131.465 94.912 132.009 95.504 132.009 96.512V97.216H130.505C128.185 97.216 126.953 98.064 126.953 99.712C126.953 101.216 127.929 102.192 129.641 102.192C130.857 102.192 131.753 101.648 132.073 100.608H132.153C132.265 101.424 132.745 102 133.657 102H134.633ZM130.137 100.864C129.273 100.864 128.729 100.48 128.729 99.744V99.456C128.729 98.736 129.321 98.336 130.536 98.336H132.009V99.536C132.009 100.352 131.209 100.864 130.137 100.864ZM138.086 102V96.688C138.086 95.824 138.854 95.36 140.23 95.36H140.918V93.68H140.454C139.126 93.68 138.406 94.432 138.166 95.28H138.086V93.68H136.342V102H138.086Z" fill="#292929"/>
<path d="M69.5 76C69.5 74.067 71.067 72.5 73 72.5H157.5V119.5H73C71.067 119.5 69.5 117.933 69.5 116V76Z" stroke="#292929"/>
<rect x="69.5" y="120.5" width="90" height="47" fill="#FCFCFC"/>
<path d="M95.24 150L91.432 138.832H89.16L85.352 150H87.192L88.168 146.976H92.344L93.352 150H95.24ZM91.896 145.424H88.6L90.216 140.496H90.296L91.896 145.424ZM101.882 150H103.626V141.68H101.882V147.248C101.882 148.224 101.002 148.688 100.106 148.688C99.0338 148.688 98.5058 148.016 98.5058 146.752V141.68H96.7618V146.976C96.7618 149.024 97.7698 150.192 99.4818 150.192C100.858 150.192 101.514 149.44 101.818 148.624H101.882V150ZM109.947 150V148.576H108.331V143.104H110.075V141.68H108.331V139.408H106.763V140.864C106.763 141.44 106.571 141.68 105.995 141.68H105.291V143.104H106.587V148.192C106.587 149.328 107.227 150 108.427 150H109.947ZM117.007 150H118.751V141.68H117.007V147.248C117.007 148.224 116.127 148.688 115.231 148.688C114.159 148.688 113.631 148.016 113.631 146.752V141.68H111.887V146.976C111.887 149.024 112.895 150.192 114.607 150.192C115.983 150.192 116.639 149.44 116.943 148.624H117.007V150ZM122.992 150V144.416C122.992 143.456 123.84 142.992 124.704 142.992C125.728 142.992 126.224 143.632 126.224 144.928V150H127.968V144.416C127.968 143.456 128.784 142.992 129.664 142.992C130.72 142.992 131.2 143.648 131.2 144.928V150H132.944V144.72C132.944 142.672 131.968 141.488 130.32 141.488C128.976 141.488 128.112 142.256 127.808 143.184H127.76C127.36 142.032 126.416 141.488 125.296 141.488C124.032 141.488 123.408 142.192 123.072 143.056H122.992V141.68H121.248V150H122.992ZM137.101 150V144.432C137.101 143.456 137.997 142.992 138.909 142.992C139.981 142.992 140.477 143.648 140.477 144.944V150H142.221V144.72C142.221 142.672 141.213 141.488 139.517 141.488C138.237 141.488 137.533 142.16 137.181 143.056H137.101V141.68H135.357V150H137.101Z" fill="#292929"/>
<rect x="69.5" y="120.5" width="90" height="47" stroke="#E5E5E5"/>
<path d="M159.5 120.5H237C238.933 120.5 240.5 122.067 240.5 124V164C240.5 165.933 238.933 167.5 237 167.5H159.5V120.5Z" fill="#FCFCFC"/>
<path d="M180.056 150L181.512 144.224L182.36 140.832H182.392L183.224 144.224L184.648 150H186.68L189.432 138.832H187.656L186.488 144.208L185.672 147.904H185.624L184.744 144.208L183.432 138.832H181.416L180.088 144.208L179.192 147.92H179.144L178.36 144.208L177.224 138.832H175.384L178.024 150H180.056ZM191.941 140.192C192.661 140.192 192.965 139.808 192.965 139.28V139.008C192.965 138.48 192.661 138.096 191.941 138.096C191.221 138.096 190.901 138.48 190.901 139.008V139.28C190.901 139.808 191.221 140.192 191.941 140.192ZM191.061 150H192.805V141.68H191.061V150ZM197.039 150V144.432C197.039 143.456 197.935 142.992 198.847 142.992C199.919 142.992 200.415 143.648 200.415 144.944V150H202.159V144.72C202.159 142.672 201.151 141.488 199.455 141.488C198.175 141.488 197.471 142.16 197.119 143.056H197.039V141.68H195.295V150H197.039ZM208.4 150V148.576H206.784V143.104H208.528V141.68H206.784V139.408H205.216V140.864C205.216 141.44 205.024 141.68 204.448 141.68H203.744V143.104H205.04V148.192C205.04 149.328 205.68 150 206.88 150H208.4ZM213.621 150.192C215.173 150.192 216.389 149.52 217.013 148.512L215.989 147.504C215.509 148.272 214.821 148.752 213.797 148.752C212.389 148.752 211.605 147.84 211.605 146.56V146.288H217.317V145.632C217.317 143.328 216.069 141.488 213.621 141.488C211.253 141.488 209.797 143.184 209.797 145.84C209.797 148.496 211.253 150.192 213.621 150.192ZM213.621 142.848C214.773 142.848 215.477 143.696 215.477 144.976V145.136H211.605V145.024C211.605 143.744 212.421 142.848 213.621 142.848ZM220.992 150V144.688C220.992 143.824 221.76 143.36 223.136 143.36H223.824V141.68H223.36C222.032 141.68 221.312 142.432 221.072 143.28H220.992V141.68H219.248V150H220.992Z" fill="#292929"/>
<path d="M159.5 120.5H237C238.933 120.5 240.5 122.067 240.5 124V164C240.5 165.933 238.933 167.5 237 167.5H159.5V120.5Z" stroke="#E5E5E5"/>
</svg>
