<svg width="393" height="449" viewBox="0 0 393 449" fill="none" xmlns="http://www.w3.org/2000/svg">
<g filter="url(#filter0_d_4451_111347)">
<rect x="48" y="55" width="296" height="360" rx="4" fill="white" shape-rendering="crispEdges"/>
<path d="M72.25 95L78.5 88.75L79.375 89.625L74 95L79.375 100.375L78.5 101.25L72.25 95Z" fill="#292929"/>
<path d="M167.416 101L163.704 89.832H161.08L157.336 101H159.48L160.36 98.152H164.328L165.224 101H167.416ZM163.816 96.344H160.872L162.296 91.752H162.376L163.816 96.344ZM168.934 104.2H170.982V99.608H171.046C171.366 100.552 172.246 101.192 173.35 101.192C175.462 101.192 176.63 99.608 176.63 96.808C176.63 94.024 175.462 92.456 173.35 92.456C172.246 92.456 171.35 93.064 171.046 94.024H170.982V92.648H168.934V104.2ZM172.694 99.496C171.718 99.496 170.982 99 170.982 98.136V95.48C170.982 94.664 171.718 94.136 172.694 94.136C173.75 94.136 174.486 94.92 174.486 96.104V97.544C174.486 98.728 173.75 99.496 172.694 99.496ZM180.576 101V95.88C180.576 94.968 181.296 94.584 182.672 94.584H183.312V92.648H182.864C181.536 92.648 180.864 93.496 180.656 94.376H180.576V92.648H178.528V101H180.576ZM185.833 91.432C186.665 91.432 187.033 91 187.033 90.408V90.088C187.033 89.496 186.665 89.064 185.833 89.064C184.985 89.064 184.633 89.496 184.633 90.088V90.408C184.633 91 184.985 91.432 185.833 91.432ZM184.809 101H186.857V92.648H184.809V101ZM192.383 101V99.368H191.279V89.16H189.231V98.984C189.231 100.264 189.887 101 191.279 101H192.383ZM205.267 99.224H199.811L202.163 97.288C203.715 96.008 204.979 94.824 204.979 92.968C204.979 91.048 203.635 89.64 201.283 89.64C199.011 89.64 197.811 90.936 197.331 92.424L199.155 93.128C199.411 92.216 199.955 91.464 201.107 91.464C202.019 91.464 202.755 92.008 202.755 92.984V93.192C202.755 94.168 202.211 94.936 201.027 95.976L197.523 99.048V101H205.267V99.224ZM210.925 101.192C213.773 101.192 215.085 99.064 215.085 95.416C215.085 91.768 213.773 89.64 210.925 89.64C208.077 89.64 206.765 91.768 206.765 95.416C206.765 99.064 208.077 101.192 210.925 101.192ZM210.925 99.416C209.501 99.416 209.005 98.264 209.005 96.424V94.408C209.005 92.568 209.501 91.416 210.925 91.416C212.349 91.416 212.845 92.568 212.845 94.408V96.424C212.845 98.264 212.349 99.416 210.925 99.416ZM224.455 99.224H218.999L221.351 97.288C222.903 96.008 224.167 94.824 224.167 92.968C224.167 91.048 222.823 89.64 220.471 89.64C218.199 89.64 216.999 90.936 216.519 92.424L218.343 93.128C218.599 92.216 219.143 91.464 220.295 91.464C221.207 91.464 221.943 92.008 221.943 92.984V93.192C221.943 94.168 221.399 94.936 220.215 95.976L216.711 99.048V101H224.455V99.224ZM234.049 99.224H228.593L230.945 97.288C232.497 96.008 233.76 94.824 233.76 92.968C233.76 91.048 232.417 89.64 230.065 89.64C227.793 89.64 226.593 90.936 226.113 92.424L227.937 93.128C228.193 92.216 228.737 91.464 229.889 91.464C230.801 91.464 231.537 92.008 231.537 92.984V93.192C231.537 94.168 230.993 94.936 229.809 95.976L226.305 99.048V101H234.049V99.224Z" fill="#292929"/>
<path d="M319.75 95L313.5 101.25L312.625 100.375L318 95L312.625 89.625L313.5 88.75L319.75 95Z" fill="#292929"/>
<path d="M69.89 147.12C71.39 147.12 72.29 146.3 72.29 145.02C72.29 143.98 71.7 143.38 70.34 143.07L69.77 142.94C68.89 142.74 68.46 142.44 68.46 141.78C68.46 141.03 69.01 140.64 69.9 140.64C70.71 140.64 71.24 140.97 71.62 141.5L72.25 141.04C71.73 140.3 70.99 139.9 69.94 139.9C68.57 139.9 67.63 140.57 67.63 141.81C67.63 142.88 68.33 143.44 69.6 143.73L70.17 143.86C71.09 144.07 71.46 144.4 71.46 145.06C71.46 145.86 70.92 146.38 69.92 146.38C69.11 146.38 68.53 146.03 68.04 145.38L67.42 145.9C67.98 146.66 68.77 147.12 69.89 147.12ZM76.8405 147H77.6405V141.84H76.8405V145.41C76.8405 146.09 76.2205 146.4 75.5905 146.4C74.8205 146.4 74.4105 145.93 74.4105 145.01V141.84H73.6105V145.15C73.6105 146.4 74.2905 147.12 75.3505 147.12C76.2105 147.12 76.6005 146.65 76.8005 146.16H76.8405V147ZM80.1441 147V143.42C80.1441 142.76 80.7641 142.44 81.4041 142.44C82.1741 142.44 82.5741 142.91 82.5741 143.83V147H83.3741V143.69C83.3741 142.44 82.7041 141.72 81.6441 141.72C80.8741 141.72 80.4341 142.1 80.1841 142.68H80.1441V141.84H79.3441V147H80.1441Z" fill="#989898"/>
<path d="M106.93 147H107.75V141.12H107.8L108.39 142.29L110.06 145.33L111.73 142.29L112.32 141.12H112.37V147H113.19V140.02H112.11L110.1 143.78H110.05L108.05 140.02H106.93V147ZM116.915 147.12C118.295 147.12 119.245 146.06 119.245 144.42C119.245 142.78 118.295 141.72 116.915 141.72C115.535 141.72 114.585 142.78 114.585 144.42C114.585 146.06 115.535 147.12 116.915 147.12ZM116.915 146.41C116.055 146.41 115.445 145.88 115.445 144.79V144.05C115.445 142.96 116.055 142.43 116.915 142.43C117.775 142.43 118.385 142.96 118.385 144.05V144.79C118.385 145.88 117.775 146.41 116.915 146.41ZM121.361 147V143.42C121.361 142.76 121.981 142.44 122.621 142.44C123.391 142.44 123.791 142.91 123.791 143.83V147H124.591V143.69C124.591 142.44 123.921 141.72 122.861 141.72C122.091 141.72 121.651 142.1 121.401 142.68H121.361V141.84H120.561V147H121.361Z" fill="#989898"/>
<path d="M153 140.76V140.02H147.72V140.76H149.94V147H150.78V140.76H153ZM156.755 147H157.555V141.84H156.755V145.41C156.755 146.09 156.135 146.4 155.505 146.4C154.735 146.4 154.325 145.93 154.325 145.01V141.84H153.525V145.15C153.525 146.4 154.205 147.12 155.265 147.12C156.125 147.12 156.515 146.65 156.715 146.16H156.755V147ZM161.198 147.12C162.168 147.12 162.908 146.64 163.238 145.94L162.668 145.53C162.398 146.1 161.898 146.42 161.248 146.42C160.288 146.42 159.718 145.75 159.718 144.86V144.62H163.428V144.24C163.428 142.78 162.578 141.72 161.198 141.72C159.798 141.72 158.878 142.78 158.878 144.42C158.878 146.06 159.798 147.12 161.198 147.12ZM161.198 142.39C162.018 142.39 162.568 143 162.568 143.91V144.02H159.718V143.95C159.718 143.05 160.328 142.39 161.198 142.39Z" fill="#989898"/>
<path d="M188.33 147L189.26 143.52L189.92 140.96H189.94L190.58 143.52L191.49 147H192.42L194.21 140.02H193.35L192.56 143.38L191.96 145.98H191.93L191.28 143.38L190.43 140.02H189.47L188.59 143.38L187.94 145.99H187.92L187.34 143.38L186.59 140.02H185.7L187.4 147H188.33ZM197.05 147.12C198.02 147.12 198.76 146.64 199.09 145.94L198.52 145.53C198.25 146.1 197.75 146.42 197.1 146.42C196.14 146.42 195.57 145.75 195.57 144.86V144.62H199.28V144.24C199.28 142.78 198.43 141.72 197.05 141.72C195.65 141.72 194.73 142.78 194.73 144.42C194.73 146.06 195.65 147.12 197.05 147.12ZM197.05 142.39C197.87 142.39 198.42 143 198.42 143.91V144.02H195.57V143.95C195.57 143.05 196.18 142.39 197.05 142.39ZM203.898 147H204.698V139.6H203.898V142.68H203.858C203.588 142.03 203.058 141.72 202.348 141.72C201.058 141.72 200.248 142.77 200.248 144.42C200.248 146.07 201.058 147.12 202.348 147.12C203.058 147.12 203.548 146.8 203.858 146.16H203.898V147ZM202.568 146.4C201.668 146.4 201.108 145.78 201.108 144.86V143.98C201.108 143.06 201.668 142.44 202.568 142.44C203.298 142.44 203.898 142.86 203.898 143.43V145.35C203.898 146.02 203.298 146.4 202.568 146.4Z" fill="#989898"/>
<path d="M232.5 140.76V140.02H227.22V140.76H229.44V147H230.28V140.76H232.5ZM233.573 147H234.373V143.42C234.373 142.76 234.993 142.44 235.633 142.44C236.403 142.44 236.803 142.91 236.803 143.83V147H237.603V143.69C237.603 142.44 236.933 141.72 235.873 141.72C235.103 141.72 234.663 142.1 234.413 142.68H234.373V139.6H233.573V147ZM242.436 147H243.236V141.84H242.436V145.41C242.436 146.09 241.816 146.4 241.186 146.4C240.416 146.4 240.006 145.93 240.006 145.01V141.84H239.206V145.15C239.206 146.4 239.886 147.12 240.946 147.12C241.806 147.12 242.196 146.65 242.396 146.16H242.436V147Z" fill="#989898"/>
<path d="M271.77 147V143.84H274.8V143.1H271.77V140.76H275.09V140.02H270.93V147H271.77ZM277.041 147V143.5C277.041 143.01 277.561 142.64 278.421 142.64H278.891V141.84H278.581C277.741 141.84 277.271 142.3 277.091 142.79H277.041V141.84H276.241V147H277.041ZM280.312 140.63C280.653 140.63 280.803 140.45 280.803 140.18V140.05C280.803 139.78 280.653 139.6 280.312 139.6C279.973 139.6 279.823 139.78 279.823 140.05V140.18C279.823 140.45 279.973 140.63 280.312 140.63ZM279.913 147H280.713V141.84H279.913V147Z" fill="#989898"/>
<path d="M311.39 147.12C312.89 147.12 313.79 146.3 313.79 145.02C313.79 143.98 313.2 143.38 311.84 143.07L311.27 142.94C310.39 142.74 309.96 142.44 309.96 141.78C309.96 141.03 310.51 140.64 311.4 140.64C312.21 140.64 312.74 140.97 313.12 141.5L313.75 141.04C313.23 140.3 312.49 139.9 311.44 139.9C310.07 139.9 309.13 140.57 309.13 141.81C309.13 142.88 309.83 143.44 311.1 143.73L311.67 143.86C312.59 144.07 312.96 144.4 312.96 145.06C312.96 145.86 312.42 146.38 311.42 146.38C310.61 146.38 310.03 146.03 309.54 145.38L308.92 145.9C309.48 146.66 310.27 147.12 311.39 147.12ZM319.361 147V146.3H318.771V143.46C318.771 142.37 318.031 141.72 316.791 141.72C315.861 141.72 315.241 142.18 314.961 142.73L315.441 143.18C315.721 142.71 316.131 142.41 316.751 142.41C317.571 142.41 317.971 142.81 317.971 143.54V144.05H316.951C315.451 144.05 314.751 144.59 314.751 145.56C314.751 146.52 315.391 147.12 316.481 147.12C317.201 147.12 317.751 146.79 317.971 146.16H318.021C318.081 146.64 318.321 147 318.911 147H319.361ZM316.611 146.44C315.991 146.44 315.591 146.15 315.591 145.64V145.43C315.591 144.93 316.001 144.65 316.911 144.65H317.971V145.5C317.971 146.03 317.401 146.44 316.611 146.44ZM322.642 147V146.3H321.592V142.54H322.722V141.84H321.592V140.41H320.872V141.37C320.872 141.72 320.762 141.84 320.422 141.84H319.942V142.54H320.792V146.15C320.792 146.65 321.092 147 321.642 147H322.642Z" fill="#989898"/>
<path d="M118.966 184V183.112H116.806V175.624H115.234L113.014 177.7L113.602 178.336L115.714 176.368H115.798V183.112H113.458V184H118.966Z" fill="#CECECE"/>
<path d="M158.798 183.112H154.394L156.65 181.084C157.718 180.124 158.486 179.212 158.486 177.916C158.486 176.488 157.55 175.48 155.918 175.48C154.298 175.48 153.554 176.464 153.23 177.448L154.13 177.796C154.358 177.004 154.838 176.38 155.87 176.38C156.902 176.38 157.418 177.016 157.418 177.94V178.084C157.418 178.888 156.818 179.728 156.038 180.448L153.302 182.968V184H158.798V183.112Z" fill="#CECECE"/>
<path d="M194.622 179.176V180.052H195.606C196.782 180.052 197.406 180.616 197.406 181.6V181.696C197.406 182.68 196.782 183.244 195.606 183.244C194.586 183.244 194.094 182.8 193.662 182.14L192.906 182.716C193.422 183.436 194.166 184.144 195.618 184.144C197.322 184.144 198.462 183.148 198.462 181.708C198.462 180.448 197.598 179.776 196.698 179.596V179.548C197.586 179.32 198.306 178.672 198.306 177.592C198.306 176.236 197.178 175.48 195.762 175.48C194.418 175.48 193.686 176.176 193.266 176.848L194.01 177.424C194.358 176.788 194.874 176.38 195.738 176.38C196.626 176.38 197.238 176.824 197.238 177.7V177.784C197.238 178.588 196.662 179.176 195.534 179.176H194.622Z" fill="#CECECE"/>
<path d="M237.862 184V182.356H239.074V181.516H237.862V175.624H236.362L232.858 181.468V182.356H236.902V184H237.862ZM236.842 176.404H236.902V181.516H233.806L236.842 176.404Z" fill="#CECECE"/>
<path d="M278.378 175.624H273.89L273.59 180.232L274.442 180.352C274.79 179.968 275.174 179.644 275.942 179.644C277.082 179.644 277.694 180.28 277.694 181.384V181.504C277.694 182.608 277.082 183.244 275.942 183.244C274.934 183.244 274.514 182.8 274.082 182.14L273.326 182.716C273.83 183.436 274.55 184.144 275.942 184.144C277.706 184.144 278.762 183.004 278.762 181.372C278.762 179.752 277.706 178.78 276.266 178.78C275.39 178.78 274.946 179.14 274.55 179.704H274.466L274.706 176.512H278.378V175.624Z" fill="#292929"/>
<path d="M316.014 184.144C317.694 184.144 318.798 183.016 318.798 181.372C318.798 179.788 317.766 178.792 316.326 178.792C315.306 178.792 314.706 179.308 314.31 179.992L314.25 179.968C314.706 178.024 315.702 176.932 317.49 175.624H316.194C314.85 176.5 313.206 178.444 313.206 180.928C313.206 182.92 314.274 184.144 316.014 184.144ZM316.002 183.268C314.898 183.268 314.25 182.632 314.25 181.504V181.408C314.25 180.28 314.898 179.644 316.002 179.644C317.106 179.644 317.754 180.28 317.754 181.408V181.504C317.754 182.632 317.106 183.268 316.002 183.268Z" fill="#292929"/>
<circle cx="316" cy="191" r="2" fill="#292929"/>
<rect x="56" y="199" width="40" height="40" rx="4" fill="#292929"/>
<path d="M75.5823 224L78.7263 216.512V215.624H73.2303V218.048H74.1303V216.488H77.7063L74.5023 224H75.5823Z" fill="white"/>
<path d="M116.002 224.144C117.91 224.144 118.906 223.1 118.906 221.72C118.906 220.58 118.222 219.92 117.214 219.644V219.548C118.09 219.248 118.654 218.54 118.654 217.58C118.654 216.308 117.67 215.48 116.002 215.48C114.334 215.48 113.35 216.308 113.35 217.58C113.35 218.54 113.914 219.248 114.79 219.548V219.644C113.782 219.92 113.098 220.58 113.098 221.72C113.098 223.1 114.094 224.144 116.002 224.144ZM116.002 223.268C114.838 223.268 114.166 222.716 114.166 221.768V221.516C114.166 220.568 114.838 220.016 116.002 220.016C117.166 220.016 117.838 220.568 117.838 221.516V221.768C117.838 222.716 117.166 223.268 116.002 223.268ZM116.002 219.176C114.958 219.176 114.394 218.708 114.394 217.856V217.676C114.394 216.824 114.958 216.356 116.002 216.356C117.046 216.356 117.61 216.824 117.61 217.676V217.856C117.61 218.708 117.046 219.176 116.002 219.176Z" fill="#292929"/>
<path d="M158.798 218.696C158.798 216.704 157.73 215.48 155.99 215.48C154.31 215.48 153.206 216.608 153.206 218.252C153.206 219.836 154.238 220.832 155.678 220.832C156.698 220.832 157.298 220.316 157.694 219.632L157.754 219.656C157.298 221.6 156.302 222.692 154.514 224H155.81C157.154 223.124 158.798 221.18 158.798 218.696ZM156.002 219.98C154.898 219.98 154.25 219.344 154.25 218.216V218.12C154.25 216.992 154.898 216.356 156.002 216.356C157.106 216.356 157.754 216.992 157.754 218.12V218.216C157.754 219.344 157.106 219.98 156.002 219.98Z" fill="#292929"/>
<path d="M195.869 224V223.112H193.709V215.624H192.137L189.917 217.7L190.505 218.336L192.617 216.368H192.701V223.112H190.361V224H195.869ZM200.1 224.144C202.104 224.144 202.98 222.548 202.98 219.812C202.98 217.076 202.104 215.48 200.1 215.48C198.096 215.48 197.22 217.076 197.22 219.812C197.22 222.548 198.096 224.144 200.1 224.144ZM200.1 223.268C198.792 223.268 198.276 222.116 198.276 220.496V219.128C198.276 217.508 198.792 216.356 200.1 216.356C201.408 216.356 201.924 217.508 201.924 219.128V220.496C201.924 222.116 201.408 223.268 200.1 223.268Z" fill="#292929"/>
<path d="M235.869 224V223.112H233.709V215.624H232.137L229.917 217.7L230.505 218.336L232.617 216.368H232.701V223.112H230.361V224H235.869ZM243.064 224V223.112H240.904V215.624H239.332L237.112 217.7L237.7 218.336L239.812 216.368H239.896V223.112H237.556V224H243.064Z" fill="#292929"/>
<path d="M275.869 224V223.112H273.709V215.624H272.137L269.917 217.7L270.505 218.336L272.617 216.368H272.701V223.112H270.361V224H275.869ZM282.896 223.112H278.492L280.748 221.084C281.816 220.124 282.584 219.212 282.584 217.916C282.584 216.488 281.648 215.48 280.016 215.48C278.396 215.48 277.652 216.464 277.328 217.448L278.228 217.796C278.456 217.004 278.936 216.38 279.968 216.38C281 216.38 281.516 217.016 281.516 217.94V218.084C281.516 218.888 280.916 219.728 280.136 220.448L277.4 222.968V224H282.896V223.112Z" fill="#292929"/>
<path d="M315.869 224V223.112H313.709V215.624H312.137L309.917 217.7L310.505 218.336L312.617 216.368H312.701V223.112H310.361V224H315.869ZM318.72 219.176V220.052H319.704C320.88 220.052 321.504 220.616 321.504 221.6V221.696C321.504 222.68 320.88 223.244 319.704 223.244C318.684 223.244 318.192 222.8 317.76 222.14L317.004 222.716C317.52 223.436 318.264 224.144 319.716 224.144C321.42 224.144 322.56 223.148 322.56 221.708C322.56 220.448 321.696 219.776 320.796 219.596V219.548C321.684 219.32 322.404 218.672 322.404 217.592C322.404 216.236 321.276 215.48 319.86 215.48C318.516 215.48 317.784 216.176 317.364 216.848L318.108 217.424C318.456 216.788 318.972 216.38 319.836 216.38C320.724 216.38 321.336 216.824 321.336 217.7V217.784C321.336 218.588 320.76 219.176 319.632 219.176H318.72Z" fill="#292929"/>
<path d="M75.8687 264V263.112H73.7087V255.624H72.1367L69.9167 257.7L70.5047 258.336L72.6167 256.368H72.7007V263.112H70.3607V264H75.8687ZM81.96 264V262.356H83.172V261.516H81.96V255.624H80.46L76.956 261.468V262.356H81V264H81.96ZM80.94 256.404H81V261.516H77.904L80.94 256.404Z" fill="#292929"/>
<path d="M115.869 264V263.112H113.709V255.624H112.137L109.917 257.7L110.505 258.336L112.617 256.368H112.701V263.112H110.361V264H115.869ZM122.476 255.624H117.988L117.688 260.232L118.54 260.352C118.888 259.968 119.272 259.644 120.04 259.644C121.18 259.644 121.792 260.28 121.792 261.384V261.504C121.792 262.608 121.18 263.244 120.04 263.244C119.032 263.244 118.612 262.8 118.18 262.14L117.424 262.716C117.928 263.436 118.648 264.144 120.04 264.144C121.804 264.144 122.86 263.004 122.86 261.372C122.86 259.752 121.804 258.78 120.364 258.78C119.488 258.78 119.044 259.14 118.648 259.704H118.564L118.804 256.512H122.476V255.624Z" fill="#292929"/>
<path d="M155.869 264V263.112H153.709V255.624H152.137L149.917 257.7L150.505 258.336L152.617 256.368H152.701V263.112H150.361V264H155.869ZM160.112 264.144C161.792 264.144 162.896 263.016 162.896 261.372C162.896 259.788 161.864 258.792 160.424 258.792C159.404 258.792 158.804 259.308 158.408 259.992L158.348 259.968C158.804 258.024 159.8 256.932 161.588 255.624H160.292C158.948 256.5 157.304 258.444 157.304 260.928C157.304 262.92 158.372 264.144 160.112 264.144ZM160.1 263.268C158.996 263.268 158.348 262.632 158.348 261.504V261.408C158.348 260.28 158.996 259.644 160.1 259.644C161.204 259.644 161.852 260.28 161.852 261.408V261.504C161.852 262.632 161.204 263.268 160.1 263.268Z" fill="#292929"/>
<path d="M195.869 264V263.112H193.709V255.624H192.137L189.917 257.7L190.505 258.336L192.617 256.368H192.701V263.112H190.361V264H195.869ZM199.68 264L202.824 256.512V255.624H197.328V258.048H198.228V256.488H201.804L198.6 264H199.68Z" fill="#292929"/>
<path d="M235.869 264V263.112H233.709V255.624H232.137L229.917 257.7L230.505 258.336L232.617 256.368H232.701V263.112H230.361V264H235.869ZM240.1 264.144C242.008 264.144 243.004 263.1 243.004 261.72C243.004 260.58 242.32 259.92 241.312 259.644V259.548C242.188 259.248 242.752 258.54 242.752 257.58C242.752 256.308 241.768 255.48 240.1 255.48C238.432 255.48 237.448 256.308 237.448 257.58C237.448 258.54 238.012 259.248 238.888 259.548V259.644C237.88 259.92 237.196 260.58 237.196 261.72C237.196 263.1 238.192 264.144 240.1 264.144ZM240.1 263.268C238.936 263.268 238.264 262.716 238.264 261.768V261.516C238.264 260.568 238.936 260.016 240.1 260.016C241.264 260.016 241.936 260.568 241.936 261.516V261.768C241.936 262.716 241.264 263.268 240.1 263.268ZM240.1 259.176C239.056 259.176 238.492 258.708 238.492 257.856V257.676C238.492 256.824 239.056 256.356 240.1 256.356C241.144 256.356 241.708 256.824 241.708 257.676V257.856C241.708 258.708 241.144 259.176 240.1 259.176Z" fill="#292929"/>
<path d="M275.869 264V263.112H273.709V255.624H272.137L269.917 257.7L270.505 258.336L272.617 256.368H272.701V263.112H270.361V264H275.869ZM282.896 258.696C282.896 256.704 281.828 255.48 280.088 255.48C278.408 255.48 277.304 256.608 277.304 258.252C277.304 259.836 278.336 260.832 279.776 260.832C280.796 260.832 281.396 260.316 281.792 259.632L281.852 259.656C281.396 261.6 280.4 262.692 278.612 264H279.908C281.252 263.124 282.896 261.18 282.896 258.696ZM280.1 259.98C278.996 259.98 278.348 259.344 278.348 258.216V258.12C278.348 256.992 278.996 256.356 280.1 256.356C281.204 256.356 281.852 256.992 281.852 258.12V258.216C281.852 259.344 281.204 259.98 280.1 259.98Z" fill="#292929"/>
<path d="M315.701 263.112H311.297L313.553 261.084C314.621 260.124 315.389 259.212 315.389 257.916C315.389 256.488 314.453 255.48 312.821 255.48C311.201 255.48 310.457 256.464 310.133 257.448L311.033 257.796C311.261 257.004 311.741 256.38 312.773 256.38C313.805 256.38 314.321 257.016 314.321 257.94V258.084C314.321 258.888 313.721 259.728 312.941 260.448L310.205 262.968V264H315.701V263.112ZM320.1 264.144C322.104 264.144 322.98 262.548 322.98 259.812C322.98 257.076 322.104 255.48 320.1 255.48C318.096 255.48 317.22 257.076 317.22 259.812C317.22 262.548 318.096 264.144 320.1 264.144ZM320.1 263.268C318.792 263.268 318.276 262.116 318.276 260.496V259.128C318.276 257.508 318.792 256.356 320.1 256.356C321.408 256.356 321.924 257.508 321.924 259.128V260.496C321.924 262.116 321.408 263.268 320.1 263.268Z" fill="#292929"/>
<path d="M75.7007 303.112H71.2967L73.5527 301.084C74.6207 300.124 75.3887 299.212 75.3887 297.916C75.3887 296.488 74.4527 295.48 72.8207 295.48C71.2007 295.48 70.4567 296.464 70.1327 297.448L71.0327 297.796C71.2607 297.004 71.7407 296.38 72.7727 296.38C73.8047 296.38 74.3207 297.016 74.3207 297.94V298.084C74.3207 298.888 73.7207 299.728 72.9407 300.448L70.2047 302.968V304H75.7007V303.112ZM83.064 304V303.112H80.904V295.624H79.332L77.112 297.7L77.7 298.336L79.812 296.368H79.896V303.112H77.556V304H83.064Z" fill="#292929"/>
<path d="M115.701 303.112H111.297L113.553 301.084C114.621 300.124 115.389 299.212 115.389 297.916C115.389 296.488 114.453 295.48 112.821 295.48C111.201 295.48 110.457 296.464 110.133 297.448L111.033 297.796C111.261 297.004 111.741 296.38 112.773 296.38C113.805 296.38 114.321 297.016 114.321 297.94V298.084C114.321 298.888 113.721 299.728 112.941 300.448L110.205 302.968V304H115.701V303.112ZM122.896 303.112H118.492L120.748 301.084C121.816 300.124 122.584 299.212 122.584 297.916C122.584 296.488 121.648 295.48 120.016 295.48C118.396 295.48 117.652 296.464 117.328 297.448L118.228 297.796C118.456 297.004 118.936 296.38 119.968 296.38C121 296.38 121.516 297.016 121.516 297.94V298.084C121.516 298.888 120.916 299.728 120.136 300.448L117.4 302.968V304H122.896V303.112Z" fill="#292929"/>
<path d="M155.701 303.112H151.297L153.553 301.084C154.621 300.124 155.389 299.212 155.389 297.916C155.389 296.488 154.453 295.48 152.821 295.48C151.201 295.48 150.457 296.464 150.133 297.448L151.033 297.796C151.261 297.004 151.741 296.38 152.773 296.38C153.805 296.38 154.321 297.016 154.321 297.94V298.084C154.321 298.888 153.721 299.728 152.941 300.448L150.205 302.968V304H155.701V303.112ZM158.72 299.176V300.052H159.704C160.88 300.052 161.504 300.616 161.504 301.6V301.696C161.504 302.68 160.88 303.244 159.704 303.244C158.684 303.244 158.192 302.8 157.76 302.14L157.004 302.716C157.52 303.436 158.264 304.144 159.716 304.144C161.42 304.144 162.56 303.148 162.56 301.708C162.56 300.448 161.696 299.776 160.796 299.596V299.548C161.684 299.32 162.404 298.672 162.404 297.592C162.404 296.236 161.276 295.48 159.86 295.48C158.516 295.48 157.784 296.176 157.364 296.848L158.108 297.424C158.456 296.788 158.972 296.38 159.836 296.38C160.724 296.38 161.336 296.824 161.336 297.7V297.784C161.336 298.588 160.76 299.176 159.632 299.176H158.72Z" fill="#292929"/>
<path d="M195.701 303.112H191.297L193.553 301.084C194.621 300.124 195.389 299.212 195.389 297.916C195.389 296.488 194.453 295.48 192.821 295.48C191.201 295.48 190.457 296.464 190.133 297.448L191.033 297.796C191.261 297.004 191.741 296.38 192.773 296.38C193.805 296.38 194.321 297.016 194.321 297.94V298.084C194.321 298.888 193.721 299.728 192.941 300.448L190.205 302.968V304H195.701V303.112ZM201.96 304V302.356H203.172V301.516H201.96V295.624H200.46L196.956 301.468V302.356H201V304H201.96ZM200.94 296.404H201V301.516H197.904L200.94 296.404Z" fill="#292929"/>
<path d="M235.701 303.112H231.297L233.553 301.084C234.621 300.124 235.389 299.212 235.389 297.916C235.389 296.488 234.453 295.48 232.821 295.48C231.201 295.48 230.457 296.464 230.133 297.448L231.033 297.796C231.261 297.004 231.741 296.38 232.773 296.38C233.805 296.38 234.321 297.016 234.321 297.94V298.084C234.321 298.888 233.721 299.728 232.941 300.448L230.205 302.968V304H235.701V303.112ZM242.476 295.624H237.988L237.688 300.232L238.54 300.352C238.888 299.968 239.272 299.644 240.04 299.644C241.18 299.644 241.792 300.28 241.792 301.384V301.504C241.792 302.608 241.18 303.244 240.04 303.244C239.032 303.244 238.612 302.8 238.18 302.14L237.424 302.716C237.928 303.436 238.648 304.144 240.04 304.144C241.804 304.144 242.86 303.004 242.86 301.372C242.86 299.752 241.804 298.78 240.364 298.78C239.488 298.78 239.044 299.14 238.648 299.704H238.564L238.804 296.512H242.476V295.624Z" fill="#292929"/>
<path d="M275.701 303.112H271.297L273.553 301.084C274.621 300.124 275.389 299.212 275.389 297.916C275.389 296.488 274.453 295.48 272.821 295.48C271.201 295.48 270.457 296.464 270.133 297.448L271.033 297.796C271.261 297.004 271.741 296.38 272.773 296.38C273.805 296.38 274.321 297.016 274.321 297.94V298.084C274.321 298.888 273.721 299.728 272.941 300.448L270.205 302.968V304H275.701V303.112ZM280.112 304.144C281.792 304.144 282.896 303.016 282.896 301.372C282.896 299.788 281.864 298.792 280.424 298.792C279.404 298.792 278.804 299.308 278.408 299.992L278.348 299.968C278.804 298.024 279.8 296.932 281.588 295.624H280.292C278.948 296.5 277.304 298.444 277.304 300.928C277.304 302.92 278.372 304.144 280.112 304.144ZM280.1 303.268C278.996 303.268 278.348 302.632 278.348 301.504V301.408C278.348 300.28 278.996 299.644 280.1 299.644C281.204 299.644 281.852 300.28 281.852 301.408V301.504C281.852 302.632 281.204 303.268 280.1 303.268Z" fill="#292929"/>
<path d="M315.701 303.112H311.297L313.553 301.084C314.621 300.124 315.389 299.212 315.389 297.916C315.389 296.488 314.453 295.48 312.821 295.48C311.201 295.48 310.457 296.464 310.133 297.448L311.033 297.796C311.261 297.004 311.741 296.38 312.773 296.38C313.805 296.38 314.321 297.016 314.321 297.94V298.084C314.321 298.888 313.721 299.728 312.941 300.448L310.205 302.968V304H315.701V303.112ZM319.68 304L322.824 296.512V295.624H317.328V298.048H318.228V296.488H321.804L318.6 304H319.68Z" fill="#292929"/>
<path d="M75.7007 343.112H71.2967L73.5527 341.084C74.6207 340.124 75.3887 339.212 75.3887 337.916C75.3887 336.488 74.4527 335.48 72.8207 335.48C71.2007 335.48 70.4567 336.464 70.1327 337.448L71.0327 337.796C71.2607 337.004 71.7407 336.38 72.7727 336.38C73.8047 336.38 74.3207 337.016 74.3207 337.94V338.084C74.3207 338.888 73.7207 339.728 72.9407 340.448L70.2047 342.968V344H75.7007V343.112ZM80.1 344.144C82.008 344.144 83.004 343.1 83.004 341.72C83.004 340.58 82.32 339.92 81.312 339.644V339.548C82.188 339.248 82.752 338.54 82.752 337.58C82.752 336.308 81.768 335.48 80.1 335.48C78.432 335.48 77.448 336.308 77.448 337.58C77.448 338.54 78.012 339.248 78.888 339.548V339.644C77.88 339.92 77.196 340.58 77.196 341.72C77.196 343.1 78.192 344.144 80.1 344.144ZM80.1 343.268C78.936 343.268 78.264 342.716 78.264 341.768V341.516C78.264 340.568 78.936 340.016 80.1 340.016C81.264 340.016 81.936 340.568 81.936 341.516V341.768C81.936 342.716 81.264 343.268 80.1 343.268ZM80.1 339.176C79.056 339.176 78.492 338.708 78.492 337.856V337.676C78.492 336.824 79.056 336.356 80.1 336.356C81.144 336.356 81.708 336.824 81.708 337.676V337.856C81.708 338.708 81.144 339.176 80.1 339.176Z" fill="#292929"/>
<path d="M115.701 343.112H111.297L113.553 341.084C114.621 340.124 115.389 339.212 115.389 337.916C115.389 336.488 114.453 335.48 112.821 335.48C111.201 335.48 110.457 336.464 110.133 337.448L111.033 337.796C111.261 337.004 111.741 336.38 112.773 336.38C113.805 336.38 114.321 337.016 114.321 337.94V338.084C114.321 338.888 113.721 339.728 112.941 340.448L110.205 342.968V344H115.701V343.112ZM122.896 338.696C122.896 336.704 121.828 335.48 120.088 335.48C118.408 335.48 117.304 336.608 117.304 338.252C117.304 339.836 118.336 340.832 119.776 340.832C120.796 340.832 121.396 340.316 121.792 339.632L121.852 339.656C121.396 341.6 120.4 342.692 118.612 344H119.908C121.252 343.124 122.896 341.18 122.896 338.696ZM120.1 339.98C118.996 339.98 118.348 339.344 118.348 338.216V338.12C118.348 336.992 118.996 336.356 120.1 336.356C121.204 336.356 121.852 336.992 121.852 338.12V338.216C121.852 339.344 121.204 339.98 120.1 339.98Z" fill="#292929"/>
<path d="M151.525 339.176V340.052H152.509C153.685 340.052 154.309 340.616 154.309 341.6V341.696C154.309 342.68 153.685 343.244 152.509 343.244C151.489 343.244 150.997 342.8 150.565 342.14L149.809 342.716C150.325 343.436 151.069 344.144 152.521 344.144C154.225 344.144 155.365 343.148 155.365 341.708C155.365 340.448 154.501 339.776 153.601 339.596V339.548C154.489 339.32 155.209 338.672 155.209 337.592C155.209 336.236 154.081 335.48 152.665 335.48C151.321 335.48 150.589 336.176 150.169 336.848L150.913 337.424C151.261 336.788 151.777 336.38 152.641 336.38C153.529 336.38 154.141 336.824 154.141 337.7V337.784C154.141 338.588 153.565 339.176 152.437 339.176H151.525ZM160.1 344.144C162.104 344.144 162.98 342.548 162.98 339.812C162.98 337.076 162.104 335.48 160.1 335.48C158.096 335.48 157.22 337.076 157.22 339.812C157.22 342.548 158.096 344.144 160.1 344.144ZM160.1 343.268C158.792 343.268 158.276 342.116 158.276 340.496V339.128C158.276 337.508 158.792 336.356 160.1 336.356C161.408 336.356 161.924 337.508 161.924 339.128V340.496C161.924 342.116 161.408 343.268 160.1 343.268Z" fill="#292929"/>
<path d="M191.525 339.176V340.052H192.509C193.685 340.052 194.309 340.616 194.309 341.6V341.696C194.309 342.68 193.685 343.244 192.509 343.244C191.489 343.244 190.997 342.8 190.565 342.14L189.809 342.716C190.325 343.436 191.069 344.144 192.521 344.144C194.225 344.144 195.365 343.148 195.365 341.708C195.365 340.448 194.501 339.776 193.601 339.596V339.548C194.489 339.32 195.209 338.672 195.209 337.592C195.209 336.236 194.081 335.48 192.665 335.48C191.321 335.48 190.589 336.176 190.169 336.848L190.913 337.424C191.261 336.788 191.777 336.38 192.641 336.38C193.529 336.38 194.141 336.824 194.141 337.7V337.784C194.141 338.588 193.565 339.176 192.437 339.176H191.525ZM203.064 344V343.112H200.904V335.624H199.332L197.112 337.7L197.7 338.336L199.812 336.368H199.896V343.112H197.556V344H203.064Z" fill="#292929"/>
<rect x="48.5" y="55.5" width="295" height="359" rx="3.5" stroke="black" stroke-opacity="0.102" shape-rendering="crispEdges"/>
</g>
<rect x="182" y="21" width="24" height="24" rx="12" fill="#6E04C1"/>
<path d="M196.929 37.038H192.158L194.602 34.841C195.759 33.801 196.591 32.813 196.591 31.409C196.591 29.862 195.577 28.77 193.809 28.77C192.054 28.77 191.248 29.836 190.897 30.902L191.872 31.279C192.119 30.421 192.639 29.745 193.757 29.745C194.875 29.745 195.434 30.434 195.434 31.435V31.591C195.434 32.462 194.784 33.372 193.939 34.152L190.975 36.882V38H196.929V37.038Z" fill="white"/>
<line x1="193.5" y1="45" x2="193.5" y2="69" stroke="#8000E4" stroke-dasharray="2 2"/>
<rect x="302" y="21" width="24" height="24" rx="12" fill="#6E04C1"/>
<path d="M312.405 32.774V33.723H313.471C314.745 33.723 315.421 34.334 315.421 35.4V35.504C315.421 36.57 314.745 37.181 313.471 37.181C312.366 37.181 311.833 36.7 311.365 35.985L310.546 36.609C311.105 37.389 311.911 38.156 313.484 38.156C315.33 38.156 316.565 37.077 316.565 35.517C316.565 34.152 315.629 33.424 314.654 33.229V33.177C315.616 32.93 316.396 32.228 316.396 31.058C316.396 29.589 315.174 28.77 313.64 28.77C312.184 28.77 311.391 29.524 310.936 30.252L311.742 30.876C312.119 30.187 312.678 29.745 313.614 29.745C314.576 29.745 315.239 30.226 315.239 31.175V31.266C315.239 32.137 314.615 32.774 313.393 32.774H312.405Z" fill="white"/>
<line x1="313.5" y1="45" x2="313.5" y2="69" stroke="#8000E4" stroke-dasharray="2 2"/>
<rect x="66" y="21" width="24" height="24" rx="12" fill="#6E04C1"/>
<path d="M81.111 38V37.038H78.771V28.926H77.068L74.663 31.175L75.3 31.864L77.588 29.732H77.679V37.038H75.144V38H81.111Z" fill="white"/>
<line x1="77.5" y1="45" x2="77.5" y2="69" stroke="#8000E4" stroke-dasharray="2 2"/>
<rect x="10" y="133" width="24" height="24" rx="12" fill="#6E04C1"/>
<path d="M23.915 150V148.219H25.228V147.309H23.915V140.926H22.29L18.494 147.257V148.219H22.875V150H23.915ZM22.81 141.771H22.875V147.309H19.521L22.81 141.771Z" fill="white"/>
<line x1="34" y1="144.5" x2="58" y2="144.5" stroke="#8000E4" stroke-dasharray="2 2"/>
<rect x="10" y="207" width="24" height="24" rx="12" fill="#6E04C1"/>
<path d="M21.913 224.156C23.733 224.156 24.929 222.934 24.929 221.153C24.929 219.437 23.811 218.358 22.251 218.358C21.146 218.358 20.496 218.917 20.067 219.658L20.002 219.632C20.496 217.526 21.575 216.343 23.512 214.926H22.108C20.652 215.875 18.871 217.981 18.871 220.672C18.871 222.83 20.028 224.156 21.913 224.156ZM21.9 223.207C20.704 223.207 20.002 222.518 20.002 221.296V221.192C20.002 219.97 20.704 219.281 21.9 219.281C23.096 219.281 23.798 219.97 23.798 221.192V221.296C23.798 222.518 23.096 223.207 21.9 223.207Z" fill="white"/>
<line x1="34" y1="218.5" x2="58" y2="218.5" stroke="#8000E4" stroke-dasharray="2 2"/>
<rect width="24" height="24" rx="12" transform="matrix(-1 0 0 1 381 173)" fill="#6E04C1"/>
<path d="M371.474 180.926H366.612L366.287 185.918L367.21 186.048C367.587 185.632 368.003 185.281 368.835 185.281C370.07 185.281 370.733 185.97 370.733 187.166V187.296C370.733 188.492 370.07 189.181 368.835 189.181C367.743 189.181 367.288 188.7 366.82 187.985L366.001 188.609C366.547 189.389 367.327 190.156 368.835 190.156C370.746 190.156 371.89 188.921 371.89 187.153C371.89 185.398 370.746 184.345 369.186 184.345C368.237 184.345 367.756 184.735 367.327 185.346H367.236L367.496 181.888H371.474V180.926Z" fill="white"/>
<line y1="-0.5" x2="24" y2="-0.5" transform="matrix(-1 0 5.70209e-08 1 357 185)" stroke="#8000E4" stroke-dasharray="2 2"/>
<defs>
<filter id="filter0_d_4451_111347" x="45" y="52" width="302" height="366" filterUnits="userSpaceOnUse" color-interpolation-filters="sRGB">
<feFlood flood-opacity="0" result="BackgroundImageFix"/>
<feColorMatrix in="SourceAlpha" type="matrix" values="0 0 0 0 0 0 0 0 0 0 0 0 0 0 0 0 0 0 127 0" result="hardAlpha"/>
<feOffset/>
<feGaussianBlur stdDeviation="1.5"/>
<feComposite in2="hardAlpha" operator="out"/>
<feColorMatrix type="matrix" values="0 0 0 0 0 0 0 0 0 0 0 0 0 0 0 0 0 0 0.1 0"/>
<feBlend mode="normal" in2="BackgroundImageFix" result="effect1_dropShadow_4451_111347"/>
<feBlend mode="normal" in="SourceGraphic" in2="effect1_dropShadow_4451_111347" result="shape"/>
</filter>
</defs>
</svg>
