<svg width="393" height="449" viewBox="0 0 393 449" fill="none" xmlns="http://www.w3.org/2000/svg">
<g filter="url(#filter0_d_4451_111483)">
<rect x="48" y="55" width="296" height="360" rx="4" fill="white" shape-rendering="crispEdges"/>
<path d="M72.25 95L78.5 88.75L79.375 89.625L74 95L79.375 100.375L78.5 101.25L72.25 95Z" fill="#292929"/>
<rect x="100" y="71" width="117" height="48" rx="4" fill="white"/>
<path d="M120.624 101.192C123.024 101.192 124.464 99.88 124.464 97.832C124.464 96.168 123.52 95.208 121.344 94.712L120.432 94.504C119.024 94.184 118.336 93.704 118.336 92.648C118.336 91.448 119.216 90.824 120.64 90.824C121.936 90.824 122.784 91.352 123.392 92.2L124.4 91.464C123.568 90.28 122.384 89.64 120.704 89.64C118.512 89.64 117.008 90.712 117.008 92.696C117.008 94.408 118.128 95.304 120.16 95.768L121.072 95.976C122.544 96.312 123.136 96.84 123.136 97.896C123.136 99.176 122.272 100.008 120.672 100.008C119.376 100.008 118.448 99.448 117.664 98.408L116.672 99.24C117.568 100.456 118.832 101.192 120.624 101.192ZM129.761 101.192C131.313 101.192 132.497 100.424 133.025 99.304L132.113 98.648C131.681 99.56 130.881 100.072 129.841 100.072C128.305 100.072 127.393 99 127.393 97.576V97.192H133.329V96.584C133.329 94.248 131.969 92.552 129.761 92.552C127.521 92.552 126.049 94.248 126.049 96.872C126.049 99.496 127.521 101.192 129.761 101.192ZM129.761 93.624C131.073 93.624 131.953 94.6 131.953 96.056V96.232H127.393V96.12C127.393 94.68 128.369 93.624 129.761 93.624ZM135.438 104.2H136.718V99.656H136.782C137.278 100.68 138.062 101.192 139.198 101.192C141.262 101.192 142.558 99.512 142.558 96.872C142.558 94.232 141.262 92.552 139.198 92.552C138.062 92.552 137.214 93.048 136.782 94.088H136.718V92.744H135.438V104.2ZM138.846 100.04C137.678 100.04 136.718 99.432 136.718 98.36V95.288C136.718 94.376 137.678 93.704 138.846 93.704C140.286 93.704 141.182 94.696 141.182 96.168V97.576C141.182 99.048 140.286 100.04 138.846 100.04ZM148.05 101V99.88H146.37V93.864H148.178V92.744H146.37V90.456H145.218V91.992C145.218 92.552 145.042 92.744 144.498 92.744H143.73V93.864H145.09V99.64C145.09 100.44 145.57 101 146.45 101H148.05ZM153.277 101.192C154.829 101.192 156.013 100.424 156.541 99.304L155.629 98.648C155.197 99.56 154.397 100.072 153.357 100.072C151.821 100.072 150.909 99 150.909 97.576V97.192H156.845V96.584C156.845 94.248 155.485 92.552 153.277 92.552C151.037 92.552 149.565 94.248 149.565 96.872C149.565 99.496 151.037 101.192 153.277 101.192ZM153.277 93.624C154.589 93.624 155.469 94.6 155.469 96.056V96.232H150.909V96.12C150.909 94.68 151.885 93.624 153.277 93.624ZM160.234 101V95.272C160.234 94.216 161.194 93.704 162.202 93.704C163.418 93.704 163.978 94.456 163.978 95.928V101H165.258V95.272C165.258 94.216 166.186 93.704 167.194 93.704C168.442 93.704 169.002 94.472 169.002 95.928V101H170.282V95.704C170.282 93.704 169.274 92.552 167.594 92.552C166.186 92.552 165.386 93.336 165.082 94.232H165.05C164.602 93.048 163.61 92.552 162.522 92.552C161.242 92.552 160.666 93.24 160.298 94.088H160.234V92.744H158.954V101H160.234ZM172.923 101H174.203V99.656H174.267C174.763 100.68 175.547 101.192 176.683 101.192C178.747 101.192 180.043 99.512 180.043 96.872C180.043 94.232 178.747 92.552 176.683 92.552C175.547 92.552 174.699 93.048 174.267 94.088H174.203V89.16H172.923V101ZM176.331 100.04C175.163 100.04 174.203 99.432 174.203 98.36V95.288C174.203 94.376 175.163 93.704 176.331 93.704C177.771 93.704 178.667 94.696 178.667 96.168V97.576C178.667 99.048 177.771 100.04 176.331 100.04ZM185.308 101.192C186.86 101.192 188.044 100.424 188.572 99.304L187.66 98.648C187.228 99.56 186.428 100.072 185.388 100.072C183.852 100.072 182.94 99 182.94 97.576V97.192H188.876V96.584C188.876 94.248 187.516 92.552 185.308 92.552C183.068 92.552 181.596 94.248 181.596 96.872C181.596 99.496 183.068 101.192 185.308 101.192ZM185.308 93.624C186.62 93.624 187.5 94.6 187.5 96.056V96.232H182.94V96.12C182.94 94.68 183.916 93.624 185.308 93.624ZM192.265 101V95.4C192.265 94.616 193.097 94.024 194.473 94.024H195.225V92.744H194.729C193.385 92.744 192.633 93.48 192.345 94.264H192.265V92.744H190.985V101H192.265Z" fill="#292929"/>
<rect x="100.5" y="71.5" width="116" height="47" rx="3.5" stroke="black" stroke-opacity="0.102"/>
<rect x="221" y="71" width="71" height="48" rx="4" fill="white"/>
<path d="M245.528 99.816H239.656L242.664 97.112C244.088 95.832 245.112 94.616 245.112 92.888C245.112 90.984 243.864 89.64 241.688 89.64C239.528 89.64 238.536 90.952 238.104 92.264L239.304 92.728C239.608 91.672 240.248 90.84 241.624 90.84C243 90.84 243.688 91.688 243.688 92.92V93.112C243.688 94.184 242.888 95.304 241.848 96.264L238.2 99.624V101H245.528V99.816ZM251.394 101.192C254.066 101.192 255.234 99.064 255.234 95.416C255.234 91.768 254.066 89.64 251.394 89.64C248.722 89.64 247.554 91.768 247.554 95.416C247.554 99.064 248.722 101.192 251.394 101.192ZM251.394 100.024C249.65 100.024 248.962 98.488 248.962 96.328V94.504C248.962 92.344 249.65 90.808 251.394 90.808C253.138 90.808 253.826 92.344 253.826 94.504V96.328C253.826 98.488 253.138 100.024 251.394 100.024ZM264.716 99.816H258.844L261.852 97.112C263.276 95.832 264.3 94.616 264.3 92.888C264.3 90.984 263.052 89.64 260.876 89.64C258.716 89.64 257.724 90.952 257.292 92.264L258.492 92.728C258.796 91.672 259.436 90.84 260.812 90.84C262.188 90.84 262.876 91.688 262.876 92.92V93.112C262.876 94.184 262.076 95.304 261.036 96.264L257.388 99.624V101H264.716V99.816ZM274.309 99.816H268.437L271.445 97.112C272.869 95.832 273.893 94.616 273.893 92.888C273.893 90.984 272.645 89.64 270.469 89.64C268.309 89.64 267.317 90.952 266.885 92.264L268.085 92.728C268.389 91.672 269.029 90.84 270.405 90.84C271.781 90.84 272.469 91.688 272.469 92.92V93.112C272.469 94.184 271.669 95.304 270.629 96.264L266.981 99.624V101H274.309V99.816Z" fill="#292929"/>
<rect x="221.5" y="71.5" width="70" height="47" rx="3.5" stroke="black" stroke-opacity="0.102"/>
<path d="M319.75 95L313.5 101.25L312.625 100.375L318 95L312.625 89.625L313.5 88.75L319.75 95Z" fill="#292929"/>
<path d="M69.89 147.12C71.39 147.12 72.29 146.3 72.29 145.02C72.29 143.98 71.7 143.38 70.34 143.07L69.77 142.94C68.89 142.74 68.46 142.44 68.46 141.78C68.46 141.03 69.01 140.64 69.9 140.64C70.71 140.64 71.24 140.97 71.62 141.5L72.25 141.04C71.73 140.3 70.99 139.9 69.94 139.9C68.57 139.9 67.63 140.57 67.63 141.81C67.63 142.88 68.33 143.44 69.6 143.73L70.17 143.86C71.09 144.07 71.46 144.4 71.46 145.06C71.46 145.86 70.92 146.38 69.92 146.38C69.11 146.38 68.53 146.03 68.04 145.38L67.42 145.9C67.98 146.66 68.77 147.12 69.89 147.12ZM76.8405 147H77.6405V141.84H76.8405V145.41C76.8405 146.09 76.2205 146.4 75.5905 146.4C74.8205 146.4 74.4105 145.93 74.4105 145.01V141.84H73.6105V145.15C73.6105 146.4 74.2905 147.12 75.3505 147.12C76.2105 147.12 76.6005 146.65 76.8005 146.16H76.8405V147ZM80.1441 147V143.42C80.1441 142.76 80.7641 142.44 81.4041 142.44C82.1741 142.44 82.5741 142.91 82.5741 143.83V147H83.3741V143.69C83.3741 142.44 82.7041 141.72 81.6441 141.72C80.8741 141.72 80.4341 142.1 80.1841 142.68H80.1441V141.84H79.3441V147H80.1441Z" fill="#989898"/>
<path d="M106.93 147H107.75V141.12H107.8L108.39 142.29L110.06 145.33L111.73 142.29L112.32 141.12H112.37V147H113.19V140.02H112.11L110.1 143.78H110.05L108.05 140.02H106.93V147ZM116.915 147.12C118.295 147.12 119.245 146.06 119.245 144.42C119.245 142.78 118.295 141.72 116.915 141.72C115.535 141.72 114.585 142.78 114.585 144.42C114.585 146.06 115.535 147.12 116.915 147.12ZM116.915 146.41C116.055 146.41 115.445 145.88 115.445 144.79V144.05C115.445 142.96 116.055 142.43 116.915 142.43C117.775 142.43 118.385 142.96 118.385 144.05V144.79C118.385 145.88 117.775 146.41 116.915 146.41ZM121.361 147V143.42C121.361 142.76 121.981 142.44 122.621 142.44C123.391 142.44 123.791 142.91 123.791 143.83V147H124.591V143.69C124.591 142.44 123.921 141.72 122.861 141.72C122.091 141.72 121.651 142.1 121.401 142.68H121.361V141.84H120.561V147H121.361Z" fill="#989898"/>
<path d="M153 140.76V140.02H147.72V140.76H149.94V147H150.78V140.76H153ZM156.755 147H157.555V141.84H156.755V145.41C156.755 146.09 156.135 146.4 155.505 146.4C154.735 146.4 154.325 145.93 154.325 145.01V141.84H153.525V145.15C153.525 146.4 154.205 147.12 155.265 147.12C156.125 147.12 156.515 146.65 156.715 146.16H156.755V147ZM161.198 147.12C162.168 147.12 162.908 146.64 163.238 145.94L162.668 145.53C162.398 146.1 161.898 146.42 161.248 146.42C160.288 146.42 159.718 145.75 159.718 144.86V144.62H163.428V144.24C163.428 142.78 162.578 141.72 161.198 141.72C159.798 141.72 158.878 142.78 158.878 144.42C158.878 146.06 159.798 147.12 161.198 147.12ZM161.198 142.39C162.018 142.39 162.568 143 162.568 143.91V144.02H159.718V143.95C159.718 143.05 160.328 142.39 161.198 142.39Z" fill="#989898"/>
<path d="M188.33 147L189.26 143.52L189.92 140.96H189.94L190.58 143.52L191.49 147H192.42L194.21 140.02H193.35L192.56 143.38L191.96 145.98H191.93L191.28 143.38L190.43 140.02H189.47L188.59 143.38L187.94 145.99H187.92L187.34 143.38L186.59 140.02H185.7L187.4 147H188.33ZM197.05 147.12C198.02 147.12 198.76 146.64 199.09 145.94L198.52 145.53C198.25 146.1 197.75 146.42 197.1 146.42C196.14 146.42 195.57 145.75 195.57 144.86V144.62H199.28V144.24C199.28 142.78 198.43 141.72 197.05 141.72C195.65 141.72 194.73 142.78 194.73 144.42C194.73 146.06 195.65 147.12 197.05 147.12ZM197.05 142.39C197.87 142.39 198.42 143 198.42 143.91V144.02H195.57V143.95C195.57 143.05 196.18 142.39 197.05 142.39ZM203.898 147H204.698V139.6H203.898V142.68H203.858C203.588 142.03 203.058 141.72 202.348 141.72C201.058 141.72 200.248 142.77 200.248 144.42C200.248 146.07 201.058 147.12 202.348 147.12C203.058 147.12 203.548 146.8 203.858 146.16H203.898V147ZM202.568 146.4C201.668 146.4 201.108 145.78 201.108 144.86V143.98C201.108 143.06 201.668 142.44 202.568 142.44C203.298 142.44 203.898 142.86 203.898 143.43V145.35C203.898 146.02 203.298 146.4 202.568 146.4Z" fill="#989898"/>
<path d="M232.5 140.76V140.02H227.22V140.76H229.44V147H230.28V140.76H232.5ZM233.573 147H234.373V143.42C234.373 142.76 234.993 142.44 235.633 142.44C236.403 142.44 236.803 142.91 236.803 143.83V147H237.603V143.69C237.603 142.44 236.933 141.72 235.873 141.72C235.103 141.72 234.663 142.1 234.413 142.68H234.373V139.6H233.573V147ZM242.436 147H243.236V141.84H242.436V145.41C242.436 146.09 241.816 146.4 241.186 146.4C240.416 146.4 240.006 145.93 240.006 145.01V141.84H239.206V145.15C239.206 146.4 239.886 147.12 240.946 147.12C241.806 147.12 242.196 146.65 242.396 146.16H242.436V147Z" fill="#989898"/>
<path d="M271.77 147V143.84H274.8V143.1H271.77V140.76H275.09V140.02H270.93V147H271.77ZM277.041 147V143.5C277.041 143.01 277.561 142.64 278.421 142.64H278.891V141.84H278.581C277.741 141.84 277.271 142.3 277.091 142.79H277.041V141.84H276.241V147H277.041ZM280.312 140.63C280.653 140.63 280.803 140.45 280.803 140.18V140.05C280.803 139.78 280.653 139.6 280.312 139.6C279.973 139.6 279.823 139.78 279.823 140.05V140.18C279.823 140.45 279.973 140.63 280.312 140.63ZM279.913 147H280.713V141.84H279.913V147Z" fill="#989898"/>
<path d="M311.39 147.12C312.89 147.12 313.79 146.3 313.79 145.02C313.79 143.98 313.2 143.38 311.84 143.07L311.27 142.94C310.39 142.74 309.96 142.44 309.96 141.78C309.96 141.03 310.51 140.64 311.4 140.64C312.21 140.64 312.74 140.97 313.12 141.5L313.75 141.04C313.23 140.3 312.49 139.9 311.44 139.9C310.07 139.9 309.13 140.57 309.13 141.81C309.13 142.88 309.83 143.44 311.1 143.73L311.67 143.86C312.59 144.07 312.96 144.4 312.96 145.06C312.96 145.86 312.42 146.38 311.42 146.38C310.61 146.38 310.03 146.03 309.54 145.38L308.92 145.9C309.48 146.66 310.27 147.12 311.39 147.12ZM319.361 147V146.3H318.771V143.46C318.771 142.37 318.031 141.72 316.791 141.72C315.861 141.72 315.241 142.18 314.961 142.73L315.441 143.18C315.721 142.71 316.131 142.41 316.751 142.41C317.571 142.41 317.971 142.81 317.971 143.54V144.05H316.951C315.451 144.05 314.751 144.59 314.751 145.56C314.751 146.52 315.391 147.12 316.481 147.12C317.201 147.12 317.751 146.79 317.971 146.16H318.021C318.081 146.64 318.321 147 318.911 147H319.361ZM316.611 146.44C315.991 146.44 315.591 146.15 315.591 145.64V145.43C315.591 144.93 316.001 144.65 316.911 144.65H317.971V145.5C317.971 146.03 317.401 146.44 316.611 146.44ZM322.642 147V146.3H321.592V142.54H322.722V141.84H321.592V140.41H320.872V141.37C320.872 141.72 320.762 141.84 320.422 141.84H319.942V142.54H320.792V146.15C320.792 146.65 321.092 147 321.642 147H322.642Z" fill="#989898"/>
<path d="M118.966 184V183.112H116.806V175.624H115.234L113.014 177.7L113.602 178.336L115.714 176.368H115.798V183.112H113.458V184H118.966Z" fill="#CECECE"/>
<path d="M158.798 183.112H154.394L156.65 181.084C157.718 180.124 158.486 179.212 158.486 177.916C158.486 176.488 157.55 175.48 155.918 175.48C154.298 175.48 153.554 176.464 153.23 177.448L154.13 177.796C154.358 177.004 154.838 176.38 155.87 176.38C156.902 176.38 157.418 177.016 157.418 177.94V178.084C157.418 178.888 156.818 179.728 156.038 180.448L153.302 182.968V184H158.798V183.112Z" fill="#CECECE"/>
<path d="M194.622 179.176V180.052H195.606C196.782 180.052 197.406 180.616 197.406 181.6V181.696C197.406 182.68 196.782 183.244 195.606 183.244C194.586 183.244 194.094 182.8 193.662 182.14L192.906 182.716C193.422 183.436 194.166 184.144 195.618 184.144C197.322 184.144 198.462 183.148 198.462 181.708C198.462 180.448 197.598 179.776 196.698 179.596V179.548C197.586 179.32 198.306 178.672 198.306 177.592C198.306 176.236 197.178 175.48 195.762 175.48C194.418 175.48 193.686 176.176 193.266 176.848L194.01 177.424C194.358 176.788 194.874 176.38 195.738 176.38C196.626 176.38 197.238 176.824 197.238 177.7V177.784C197.238 178.588 196.662 179.176 195.534 179.176H194.622Z" fill="#CECECE"/>
<path d="M237.862 184V182.356H239.074V181.516H237.862V175.624H236.362L232.858 181.468V182.356H236.902V184H237.862ZM236.842 176.404H236.902V181.516H233.806L236.842 176.404Z" fill="#CECECE"/>
<path d="M278.378 175.624H273.89L273.59 180.232L274.442 180.352C274.79 179.968 275.174 179.644 275.942 179.644C277.082 179.644 277.694 180.28 277.694 181.384V181.504C277.694 182.608 277.082 183.244 275.942 183.244C274.934 183.244 274.514 182.8 274.082 182.14L273.326 182.716C273.83 183.436 274.55 184.144 275.942 184.144C277.706 184.144 278.762 183.004 278.762 181.372C278.762 179.752 277.706 178.78 276.266 178.78C275.39 178.78 274.946 179.14 274.55 179.704H274.466L274.706 176.512H278.378V175.624Z" fill="#292929"/>
<path d="M316.014 184.144C317.694 184.144 318.798 183.016 318.798 181.372C318.798 179.788 317.766 178.792 316.326 178.792C315.306 178.792 314.706 179.308 314.31 179.992L314.25 179.968C314.706 178.024 315.702 176.932 317.49 175.624H316.194C314.85 176.5 313.206 178.444 313.206 180.928C313.206 182.92 314.274 184.144 316.014 184.144ZM316.002 183.268C314.898 183.268 314.25 182.632 314.25 181.504V181.408C314.25 180.28 314.898 179.644 316.002 179.644C317.106 179.644 317.754 180.28 317.754 181.408V181.504C317.754 182.632 317.106 183.268 316.002 183.268Z" fill="#292929"/>
<path d="M56 203C56 200.791 57.7909 199 60 199H96V239H60C57.7909 239 56 237.209 56 235V203Z" fill="#292929"/>
<path d="M75.5823 224L78.7263 216.512V215.624H73.2303V218.048H74.1303V216.488H77.7063L74.5023 224H75.5823Z" fill="white"/>
<rect width="40" height="40" transform="translate(96 199)" fill="black" fill-opacity="0.065"/>
<path d="M116.002 224.144C117.91 224.144 118.906 223.1 118.906 221.72C118.906 220.58 118.222 219.92 117.214 219.644V219.548C118.09 219.248 118.654 218.54 118.654 217.58C118.654 216.308 117.67 215.48 116.002 215.48C114.334 215.48 113.35 216.308 113.35 217.58C113.35 218.54 113.914 219.248 114.79 219.548V219.644C113.782 219.92 113.098 220.58 113.098 221.72C113.098 223.1 114.094 224.144 116.002 224.144ZM116.002 223.268C114.838 223.268 114.166 222.716 114.166 221.768V221.516C114.166 220.568 114.838 220.016 116.002 220.016C117.166 220.016 117.838 220.568 117.838 221.516V221.768C117.838 222.716 117.166 223.268 116.002 223.268ZM116.002 219.176C114.958 219.176 114.394 218.708 114.394 217.856V217.676C114.394 216.824 114.958 216.356 116.002 216.356C117.046 216.356 117.61 216.824 117.61 217.676V217.856C117.61 218.708 117.046 219.176 116.002 219.176Z" fill="#292929"/>
<rect width="40" height="40" transform="translate(136 199)" fill="black" fill-opacity="0.065"/>
<path d="M158.798 218.696C158.798 216.704 157.73 215.48 155.99 215.48C154.31 215.48 153.206 216.608 153.206 218.252C153.206 219.836 154.238 220.832 155.678 220.832C156.698 220.832 157.298 220.316 157.694 219.632L157.754 219.656C157.298 221.6 156.302 222.692 154.514 224H155.81C157.154 223.124 158.798 221.18 158.798 218.696ZM156.002 219.98C154.898 219.98 154.25 219.344 154.25 218.216V218.12C154.25 216.992 154.898 216.356 156.002 216.356C157.106 216.356 157.754 216.992 157.754 218.12V218.216C157.754 219.344 157.106 219.98 156.002 219.98Z" fill="#292929"/>
<rect width="40" height="40" transform="translate(176 199)" fill="black" fill-opacity="0.065"/>
<path d="M195.869 224V223.112H193.709V215.624H192.137L189.917 217.7L190.505 218.336L192.617 216.368H192.701V223.112H190.361V224H195.869ZM200.1 224.144C202.104 224.144 202.98 222.548 202.98 219.812C202.98 217.076 202.104 215.48 200.1 215.48C198.096 215.48 197.22 217.076 197.22 219.812C197.22 222.548 198.096 224.144 200.1 224.144ZM200.1 223.268C198.792 223.268 198.276 222.116 198.276 220.496V219.128C198.276 217.508 198.792 216.356 200.1 216.356C201.408 216.356 201.924 217.508 201.924 219.128V220.496C201.924 222.116 201.408 223.268 200.1 223.268Z" fill="#292929"/>
<rect width="40" height="40" transform="translate(216 199)" fill="black" fill-opacity="0.065"/>
<path d="M235.869 224V223.112H233.709V215.624H232.137L229.917 217.7L230.505 218.336L232.617 216.368H232.701V223.112H230.361V224H235.869ZM243.064 224V223.112H240.904V215.624H239.332L237.112 217.7L237.7 218.336L239.812 216.368H239.896V223.112H237.556V224H243.064Z" fill="#292929"/>
<rect width="40" height="40" transform="translate(256 199)" fill="black" fill-opacity="0.065"/>
<path d="M275.869 224V223.112H273.709V215.624H272.137L269.917 217.7L270.505 218.336L272.617 216.368H272.701V223.112H270.361V224H275.869ZM282.896 223.112H278.492L280.748 221.084C281.816 220.124 282.584 219.212 282.584 217.916C282.584 216.488 281.648 215.48 280.016 215.48C278.396 215.48 277.652 216.464 277.328 217.448L278.228 217.796C278.456 217.004 278.936 216.38 279.968 216.38C281 216.38 281.516 217.016 281.516 217.94V218.084C281.516 218.888 280.916 219.728 280.136 220.448L277.4 222.968V224H282.896V223.112Z" fill="#292929"/>
<path d="M296 199H332C334.209 199 336 200.791 336 203V235C336 237.209 334.209 239 332 239H296V199Z" fill="#292929"/>
<path d="M315.869 224V223.112H313.709V215.624H312.137L309.917 217.7L310.505 218.336L312.617 216.368H312.701V223.112H310.361V224H315.869ZM318.72 219.176V220.052H319.704C320.88 220.052 321.504 220.616 321.504 221.6V221.696C321.504 222.68 320.88 223.244 319.704 223.244C318.684 223.244 318.192 222.8 317.76 222.14L317.004 222.716C317.52 223.436 318.264 224.144 319.716 224.144C321.42 224.144 322.56 223.148 322.56 221.708C322.56 220.448 321.696 219.776 320.796 219.596V219.548C321.684 219.32 322.404 218.672 322.404 217.592C322.404 216.236 321.276 215.48 319.86 215.48C318.516 215.48 317.784 216.176 317.364 216.848L318.108 217.424C318.456 216.788 318.972 216.38 319.836 216.38C320.724 216.38 321.336 216.824 321.336 217.7V217.784C321.336 218.588 320.76 219.176 319.632 219.176H318.72Z" fill="white"/>
<path d="M75.8687 264V263.112H73.7087V255.624H72.1367L69.9167 257.7L70.5047 258.336L72.6167 256.368H72.7007V263.112H70.3607V264H75.8687ZM81.96 264V262.356H83.172V261.516H81.96V255.624H80.46L76.956 261.468V262.356H81V264H81.96ZM80.94 256.404H81V261.516H77.904L80.94 256.404Z" fill="#292929"/>
<path d="M115.869 264V263.112H113.709V255.624H112.137L109.917 257.7L110.505 258.336L112.617 256.368H112.701V263.112H110.361V264H115.869ZM122.476 255.624H117.988L117.688 260.232L118.54 260.352C118.888 259.968 119.272 259.644 120.04 259.644C121.18 259.644 121.792 260.28 121.792 261.384V261.504C121.792 262.608 121.18 263.244 120.04 263.244C119.032 263.244 118.612 262.8 118.18 262.14L117.424 262.716C117.928 263.436 118.648 264.144 120.04 264.144C121.804 264.144 122.86 263.004 122.86 261.372C122.86 259.752 121.804 258.78 120.364 258.78C119.488 258.78 119.044 259.14 118.648 259.704H118.564L118.804 256.512H122.476V255.624Z" fill="#292929"/>
<path d="M155.869 264V263.112H153.709V255.624H152.137L149.917 257.7L150.505 258.336L152.617 256.368H152.701V263.112H150.361V264H155.869ZM160.112 264.144C161.792 264.144 162.896 263.016 162.896 261.372C162.896 259.788 161.864 258.792 160.424 258.792C159.404 258.792 158.804 259.308 158.408 259.992L158.348 259.968C158.804 258.024 159.8 256.932 161.588 255.624H160.292C158.948 256.5 157.304 258.444 157.304 260.928C157.304 262.92 158.372 264.144 160.112 264.144ZM160.1 263.268C158.996 263.268 158.348 262.632 158.348 261.504V261.408C158.348 260.28 158.996 259.644 160.1 259.644C161.204 259.644 161.852 260.28 161.852 261.408V261.504C161.852 262.632 161.204 263.268 160.1 263.268Z" fill="#292929"/>
<path d="M195.869 264V263.112H193.709V255.624H192.137L189.917 257.7L190.505 258.336L192.617 256.368H192.701V263.112H190.361V264H195.869ZM199.68 264L202.824 256.512V255.624H197.328V258.048H198.228V256.488H201.804L198.6 264H199.68Z" fill="#292929"/>
<path d="M235.869 264V263.112H233.709V255.624H232.137L229.917 257.7L230.505 258.336L232.617 256.368H232.701V263.112H230.361V264H235.869ZM240.1 264.144C242.008 264.144 243.004 263.1 243.004 261.72C243.004 260.58 242.32 259.92 241.312 259.644V259.548C242.188 259.248 242.752 258.54 242.752 257.58C242.752 256.308 241.768 255.48 240.1 255.48C238.432 255.48 237.448 256.308 237.448 257.58C237.448 258.54 238.012 259.248 238.888 259.548V259.644C237.88 259.92 237.196 260.58 237.196 261.72C237.196 263.1 238.192 264.144 240.1 264.144ZM240.1 263.268C238.936 263.268 238.264 262.716 238.264 261.768V261.516C238.264 260.568 238.936 260.016 240.1 260.016C241.264 260.016 241.936 260.568 241.936 261.516V261.768C241.936 262.716 241.264 263.268 240.1 263.268ZM240.1 259.176C239.056 259.176 238.492 258.708 238.492 257.856V257.676C238.492 256.824 239.056 256.356 240.1 256.356C241.144 256.356 241.708 256.824 241.708 257.676V257.856C241.708 258.708 241.144 259.176 240.1 259.176Z" fill="#292929"/>
<path d="M275.869 264V263.112H273.709V255.624H272.137L269.917 257.7L270.505 258.336L272.617 256.368H272.701V263.112H270.361V264H275.869ZM282.896 258.696C282.896 256.704 281.828 255.48 280.088 255.48C278.408 255.48 277.304 256.608 277.304 258.252C277.304 259.836 278.336 260.832 279.776 260.832C280.796 260.832 281.396 260.316 281.792 259.632L281.852 259.656C281.396 261.6 280.4 262.692 278.612 264H279.908C281.252 263.124 282.896 261.18 282.896 258.696ZM280.1 259.98C278.996 259.98 278.348 259.344 278.348 258.216V258.12C278.348 256.992 278.996 256.356 280.1 256.356C281.204 256.356 281.852 256.992 281.852 258.12V258.216C281.852 259.344 281.204 259.98 280.1 259.98Z" fill="#292929"/>
<path d="M315.701 263.112H311.297L313.553 261.084C314.621 260.124 315.389 259.212 315.389 257.916C315.389 256.488 314.453 255.48 312.821 255.48C311.201 255.48 310.457 256.464 310.133 257.448L311.033 257.796C311.261 257.004 311.741 256.38 312.773 256.38C313.805 256.38 314.321 257.016 314.321 257.94V258.084C314.321 258.888 313.721 259.728 312.941 260.448L310.205 262.968V264H315.701V263.112ZM320.1 264.144C322.104 264.144 322.98 262.548 322.98 259.812C322.98 257.076 322.104 255.48 320.1 255.48C318.096 255.48 317.22 257.076 317.22 259.812C317.22 262.548 318.096 264.144 320.1 264.144ZM320.1 263.268C318.792 263.268 318.276 262.116 318.276 260.496V259.128C318.276 257.508 318.792 256.356 320.1 256.356C321.408 256.356 321.924 257.508 321.924 259.128V260.496C321.924 262.116 321.408 263.268 320.1 263.268Z" fill="#292929"/>
<path d="M75.7007 303.112H71.2967L73.5527 301.084C74.6207 300.124 75.3887 299.212 75.3887 297.916C75.3887 296.488 74.4527 295.48 72.8207 295.48C71.2007 295.48 70.4567 296.464 70.1327 297.448L71.0327 297.796C71.2607 297.004 71.7407 296.38 72.7727 296.38C73.8047 296.38 74.3207 297.016 74.3207 297.94V298.084C74.3207 298.888 73.7207 299.728 72.9407 300.448L70.2047 302.968V304H75.7007V303.112ZM83.064 304V303.112H80.904V295.624H79.332L77.112 297.7L77.7 298.336L79.812 296.368H79.896V303.112H77.556V304H83.064Z" fill="#292929"/>
<path d="M115.701 303.112H111.297L113.553 301.084C114.621 300.124 115.389 299.212 115.389 297.916C115.389 296.488 114.453 295.48 112.821 295.48C111.201 295.48 110.457 296.464 110.133 297.448L111.033 297.796C111.261 297.004 111.741 296.38 112.773 296.38C113.805 296.38 114.321 297.016 114.321 297.94V298.084C114.321 298.888 113.721 299.728 112.941 300.448L110.205 302.968V304H115.701V303.112ZM122.896 303.112H118.492L120.748 301.084C121.816 300.124 122.584 299.212 122.584 297.916C122.584 296.488 121.648 295.48 120.016 295.48C118.396 295.48 117.652 296.464 117.328 297.448L118.228 297.796C118.456 297.004 118.936 296.38 119.968 296.38C121 296.38 121.516 297.016 121.516 297.94V298.084C121.516 298.888 120.916 299.728 120.136 300.448L117.4 302.968V304H122.896V303.112Z" fill="#292929"/>
<path d="M155.701 303.112H151.297L153.553 301.084C154.621 300.124 155.389 299.212 155.389 297.916C155.389 296.488 154.453 295.48 152.821 295.48C151.201 295.48 150.457 296.464 150.133 297.448L151.033 297.796C151.261 297.004 151.741 296.38 152.773 296.38C153.805 296.38 154.321 297.016 154.321 297.94V298.084C154.321 298.888 153.721 299.728 152.941 300.448L150.205 302.968V304H155.701V303.112ZM158.72 299.176V300.052H159.704C160.88 300.052 161.504 300.616 161.504 301.6V301.696C161.504 302.68 160.88 303.244 159.704 303.244C158.684 303.244 158.192 302.8 157.76 302.14L157.004 302.716C157.52 303.436 158.264 304.144 159.716 304.144C161.42 304.144 162.56 303.148 162.56 301.708C162.56 300.448 161.696 299.776 160.796 299.596V299.548C161.684 299.32 162.404 298.672 162.404 297.592C162.404 296.236 161.276 295.48 159.86 295.48C158.516 295.48 157.784 296.176 157.364 296.848L158.108 297.424C158.456 296.788 158.972 296.38 159.836 296.38C160.724 296.38 161.336 296.824 161.336 297.7V297.784C161.336 298.588 160.76 299.176 159.632 299.176H158.72Z" fill="#292929"/>
<path d="M195.701 303.112H191.297L193.553 301.084C194.621 300.124 195.389 299.212 195.389 297.916C195.389 296.488 194.453 295.48 192.821 295.48C191.201 295.48 190.457 296.464 190.133 297.448L191.033 297.796C191.261 297.004 191.741 296.38 192.773 296.38C193.805 296.38 194.321 297.016 194.321 297.94V298.084C194.321 298.888 193.721 299.728 192.941 300.448L190.205 302.968V304H195.701V303.112ZM201.96 304V302.356H203.172V301.516H201.96V295.624H200.46L196.956 301.468V302.356H201V304H201.96ZM200.94 296.404H201V301.516H197.904L200.94 296.404Z" fill="#292929"/>
<path d="M235.701 303.112H231.297L233.553 301.084C234.621 300.124 235.389 299.212 235.389 297.916C235.389 296.488 234.453 295.48 232.821 295.48C231.201 295.48 230.457 296.464 230.133 297.448L231.033 297.796C231.261 297.004 231.741 296.38 232.773 296.38C233.805 296.38 234.321 297.016 234.321 297.94V298.084C234.321 298.888 233.721 299.728 232.941 300.448L230.205 302.968V304H235.701V303.112ZM242.476 295.624H237.988L237.688 300.232L238.54 300.352C238.888 299.968 239.272 299.644 240.04 299.644C241.18 299.644 241.792 300.28 241.792 301.384V301.504C241.792 302.608 241.18 303.244 240.04 303.244C239.032 303.244 238.612 302.8 238.18 302.14L237.424 302.716C237.928 303.436 238.648 304.144 240.04 304.144C241.804 304.144 242.86 303.004 242.86 301.372C242.86 299.752 241.804 298.78 240.364 298.78C239.488 298.78 239.044 299.14 238.648 299.704H238.564L238.804 296.512H242.476V295.624Z" fill="#292929"/>
<path d="M275.701 303.112H271.297L273.553 301.084C274.621 300.124 275.389 299.212 275.389 297.916C275.389 296.488 274.453 295.48 272.821 295.48C271.201 295.48 270.457 296.464 270.133 297.448L271.033 297.796C271.261 297.004 271.741 296.38 272.773 296.38C273.805 296.38 274.321 297.016 274.321 297.94V298.084C274.321 298.888 273.721 299.728 272.941 300.448L270.205 302.968V304H275.701V303.112ZM280.112 304.144C281.792 304.144 282.896 303.016 282.896 301.372C282.896 299.788 281.864 298.792 280.424 298.792C279.404 298.792 278.804 299.308 278.408 299.992L278.348 299.968C278.804 298.024 279.8 296.932 281.588 295.624H280.292C278.948 296.5 277.304 298.444 277.304 300.928C277.304 302.92 278.372 304.144 280.112 304.144ZM280.1 303.268C278.996 303.268 278.348 302.632 278.348 301.504V301.408C278.348 300.28 278.996 299.644 280.1 299.644C281.204 299.644 281.852 300.28 281.852 301.408V301.504C281.852 302.632 281.204 303.268 280.1 303.268Z" fill="#292929"/>
<path d="M315.701 303.112H311.297L313.553 301.084C314.621 300.124 315.389 299.212 315.389 297.916C315.389 296.488 314.453 295.48 312.821 295.48C311.201 295.48 310.457 296.464 310.133 297.448L311.033 297.796C311.261 297.004 311.741 296.38 312.773 296.38C313.805 296.38 314.321 297.016 314.321 297.94V298.084C314.321 298.888 313.721 299.728 312.941 300.448L310.205 302.968V304H315.701V303.112ZM319.68 304L322.824 296.512V295.624H317.328V298.048H318.228V296.488H321.804L318.6 304H319.68Z" fill="#292929"/>
<path d="M75.7007 343.112H71.2967L73.5527 341.084C74.6207 340.124 75.3887 339.212 75.3887 337.916C75.3887 336.488 74.4527 335.48 72.8207 335.48C71.2007 335.48 70.4567 336.464 70.1327 337.448L71.0327 337.796C71.2607 337.004 71.7407 336.38 72.7727 336.38C73.8047 336.38 74.3207 337.016 74.3207 337.94V338.084C74.3207 338.888 73.7207 339.728 72.9407 340.448L70.2047 342.968V344H75.7007V343.112ZM80.1 344.144C82.008 344.144 83.004 343.1 83.004 341.72C83.004 340.58 82.32 339.92 81.312 339.644V339.548C82.188 339.248 82.752 338.54 82.752 337.58C82.752 336.308 81.768 335.48 80.1 335.48C78.432 335.48 77.448 336.308 77.448 337.58C77.448 338.54 78.012 339.248 78.888 339.548V339.644C77.88 339.92 77.196 340.58 77.196 341.72C77.196 343.1 78.192 344.144 80.1 344.144ZM80.1 343.268C78.936 343.268 78.264 342.716 78.264 341.768V341.516C78.264 340.568 78.936 340.016 80.1 340.016C81.264 340.016 81.936 340.568 81.936 341.516V341.768C81.936 342.716 81.264 343.268 80.1 343.268ZM80.1 339.176C79.056 339.176 78.492 338.708 78.492 337.856V337.676C78.492 336.824 79.056 336.356 80.1 336.356C81.144 336.356 81.708 336.824 81.708 337.676V337.856C81.708 338.708 81.144 339.176 80.1 339.176Z" fill="#292929"/>
<path d="M115.701 343.112H111.297L113.553 341.084C114.621 340.124 115.389 339.212 115.389 337.916C115.389 336.488 114.453 335.48 112.821 335.48C111.201 335.48 110.457 336.464 110.133 337.448L111.033 337.796C111.261 337.004 111.741 336.38 112.773 336.38C113.805 336.38 114.321 337.016 114.321 337.94V338.084C114.321 338.888 113.721 339.728 112.941 340.448L110.205 342.968V344H115.701V343.112ZM122.896 338.696C122.896 336.704 121.828 335.48 120.088 335.48C118.408 335.48 117.304 336.608 117.304 338.252C117.304 339.836 118.336 340.832 119.776 340.832C120.796 340.832 121.396 340.316 121.792 339.632L121.852 339.656C121.396 341.6 120.4 342.692 118.612 344H119.908C121.252 343.124 122.896 341.18 122.896 338.696ZM120.1 339.98C118.996 339.98 118.348 339.344 118.348 338.216V338.12C118.348 336.992 118.996 336.356 120.1 336.356C121.204 336.356 121.852 336.992 121.852 338.12V338.216C121.852 339.344 121.204 339.98 120.1 339.98Z" fill="#292929"/>
<path d="M151.525 339.176V340.052H152.509C153.685 340.052 154.309 340.616 154.309 341.6V341.696C154.309 342.68 153.685 343.244 152.509 343.244C151.489 343.244 150.997 342.8 150.565 342.14L149.809 342.716C150.325 343.436 151.069 344.144 152.521 344.144C154.225 344.144 155.365 343.148 155.365 341.708C155.365 340.448 154.501 339.776 153.601 339.596V339.548C154.489 339.32 155.209 338.672 155.209 337.592C155.209 336.236 154.081 335.48 152.665 335.48C151.321 335.48 150.589 336.176 150.169 336.848L150.913 337.424C151.261 336.788 151.777 336.38 152.641 336.38C153.529 336.38 154.141 336.824 154.141 337.7V337.784C154.141 338.588 153.565 339.176 152.437 339.176H151.525ZM160.1 344.144C162.104 344.144 162.98 342.548 162.98 339.812C162.98 337.076 162.104 335.48 160.1 335.48C158.096 335.48 157.22 337.076 157.22 339.812C157.22 342.548 158.096 344.144 160.1 344.144ZM160.1 343.268C158.792 343.268 158.276 342.116 158.276 340.496V339.128C158.276 337.508 158.792 336.356 160.1 336.356C161.408 336.356 161.924 337.508 161.924 339.128V340.496C161.924 342.116 161.408 343.268 160.1 343.268Z" fill="#292929"/>
<path d="M191.525 339.176V340.052H192.509C193.685 340.052 194.309 340.616 194.309 341.6V341.696C194.309 342.68 193.685 343.244 192.509 343.244C191.489 343.244 190.997 342.8 190.565 342.14L189.809 342.716C190.325 343.436 191.069 344.144 192.521 344.144C194.225 344.144 195.365 343.148 195.365 341.708C195.365 340.448 194.501 339.776 193.601 339.596V339.548C194.489 339.32 195.209 338.672 195.209 337.592C195.209 336.236 194.081 335.48 192.665 335.48C191.321 335.48 190.589 336.176 190.169 336.848L190.913 337.424C191.261 336.788 191.777 336.38 192.641 336.38C193.529 336.38 194.141 336.824 194.141 337.7V337.784C194.141 338.588 193.565 339.176 192.437 339.176H191.525ZM203.064 344V343.112H200.904V335.624H199.332L197.112 337.7L197.7 338.336L199.812 336.368H199.896V343.112H197.556V344H203.064Z" fill="#292929"/>
<rect x="48.5" y="55.5" width="295" height="359" rx="3.5" stroke="black" stroke-opacity="0.102" shape-rendering="crispEdges"/>
</g>
<rect x="242" y="21" width="24" height="24" rx="12" fill="#6E04C1"/>
<path d="M253.9 38.156C255.967 38.156 257.046 37.025 257.046 35.53C257.046 34.295 256.305 33.58 255.213 33.281V33.177C256.162 32.852 256.773 32.085 256.773 31.045C256.773 29.667 255.707 28.77 253.9 28.77C252.093 28.77 251.027 29.667 251.027 31.045C251.027 32.085 251.638 32.852 252.587 33.177V33.281C251.495 33.58 250.754 34.295 250.754 35.53C250.754 37.025 251.833 38.156 253.9 38.156ZM253.9 37.207C252.639 37.207 251.911 36.609 251.911 35.582V35.309C251.911 34.282 252.639 33.684 253.9 33.684C255.161 33.684 255.889 34.282 255.889 35.309V35.582C255.889 36.609 255.161 37.207 253.9 37.207ZM253.9 32.774C252.769 32.774 252.158 32.267 252.158 31.344V31.149C252.158 30.226 252.769 29.719 253.9 29.719C255.031 29.719 255.642 30.226 255.642 31.149V31.344C255.642 32.267 255.031 32.774 253.9 32.774Z" fill="white"/>
<line x1="253.5" y1="45" x2="253.5" y2="69" stroke="#8000E4" stroke-dasharray="2 2"/>
<rect x="136" y="21" width="24" height="24" rx="12" fill="#6E04C1"/>
<path d="M147.445 38L150.851 29.888V28.926H144.897V31.552H145.872V29.862H149.746L146.275 38H147.445Z" fill="white"/>
<line x1="147.5" y1="45" x2="147.5" y2="69" stroke="#8000E4" stroke-dasharray="2 2"/>
<rect x="11" y="207" width="24" height="24" rx="12" fill="#6E04C1"/>
<path d="M25.929 218.254C25.929 216.096 24.772 214.77 22.887 214.77C21.067 214.77 19.871 215.992 19.871 217.773C19.871 219.489 20.989 220.568 22.549 220.568C23.654 220.568 24.304 220.009 24.733 219.268L24.798 219.294C24.304 221.4 23.225 222.583 21.288 224H22.692C24.148 223.051 25.929 220.945 25.929 218.254ZM22.9 219.645C21.704 219.645 21.002 218.956 21.002 217.734V217.63C21.002 216.408 21.704 215.719 22.9 215.719C24.096 215.719 24.798 216.408 24.798 217.63V217.734C24.798 218.956 24.096 219.645 22.9 219.645Z" fill="white"/>
<line x1="32" y1="219.5" x2="56" y2="219.5" stroke="#8000E4" stroke-dasharray="2 2"/>
<rect x="360" y="207" width="24" height="24" rx="12" fill="#6E04C1"/>
<path d="M371.111 224V223.038H368.771V214.926H367.068L364.663 217.175L365.3 217.864L367.588 215.732H367.679V223.038H365.144V224H371.111ZM378.906 224V223.038H376.566V214.926H374.863L372.458 217.175L373.095 217.864L375.383 215.732H375.474V223.038H372.939V224H378.906Z" fill="white"/>
<line x1="336" y1="219.5" x2="360" y2="219.5" stroke="#8000E4" stroke-dasharray="2 2"/>
<rect x="360" y="147" width="24" height="24" rx="12" fill="#6E04C1"/>
<path d="M371.111 164V163.038H368.771V154.926H367.068L364.663 157.175L365.3 157.864L367.588 155.732H367.679V163.038H365.144V164H371.111ZM375.695 164.156C377.866 164.156 378.815 162.427 378.815 159.463C378.815 156.499 377.866 154.77 375.695 154.77C373.524 154.77 372.575 156.499 372.575 159.463C372.575 162.427 373.524 164.156 375.695 164.156ZM375.695 163.207C374.278 163.207 373.719 161.959 373.719 160.204V158.722C373.719 156.967 374.278 155.719 375.695 155.719C377.112 155.719 377.671 156.967 377.671 158.722V160.204C377.671 161.959 377.112 163.207 375.695 163.207Z" fill="white"/>
<line x1="217" y1="159.5" x2="360" y2="159.5" stroke="#8000E4" stroke-dasharray="2 2"/>
<line x1="217.5" y1="160" x2="217.5" y2="199" stroke="#8000E4" stroke-dasharray="2 2"/>
<defs>
<filter id="filter0_d_4451_111483" x="45" y="52" width="302" height="366" filterUnits="userSpaceOnUse" color-interpolation-filters="sRGB">
<feFlood flood-opacity="0" result="BackgroundImageFix"/>
<feColorMatrix in="SourceAlpha" type="matrix" values="0 0 0 0 0 0 0 0 0 0 0 0 0 0 0 0 0 0 127 0" result="hardAlpha"/>
<feOffset/>
<feGaussianBlur stdDeviation="1.5"/>
<feComposite in2="hardAlpha" operator="out"/>
<feColorMatrix type="matrix" values="0 0 0 0 0 0 0 0 0 0 0 0 0 0 0 0 0 0 0.1 0"/>
<feBlend mode="normal" in2="BackgroundImageFix" result="effect1_dropShadow_4451_111483"/>
<feBlend mode="normal" in="SourceGraphic" in2="effect1_dropShadow_4451_111483" result="shape"/>
</filter>
</defs>
</svg>
