<svg width="292" height="130" viewBox="0 0 292 130" fill="none" xmlns="http://www.w3.org/2000/svg">
<rect x="43" y="70" width="20" height="20" rx="2" fill="#292929"/>
<path d="M58.6568 77.1715L57.2426 75.7573L51.5858 81.4142L48.7574 78.5858L47.3431 80L51.5858 84.2426L58.6568 77.1715Z" fill="white"/>
<path d="M78.424 86.192C80.28 86.192 81.64 85.216 82.344 83.648L81.272 82.976C80.824 84.192 79.848 84.992 78.424 84.992C76.504 84.992 75.368 83.6 75.368 81.312V79.648C75.368 77.36 76.504 75.84 78.424 75.84C79.8 75.84 80.728 76.592 81.176 77.744L82.264 77.088C81.56 75.536 80.28 74.64 78.424 74.64C75.608 74.64 73.928 76.752 73.928 80.48C73.928 84.208 75.608 86.192 78.424 86.192ZM84.2975 86H85.5775V80.272C85.5775 79.216 86.5695 78.704 87.5935 78.704C88.8255 78.704 89.4655 79.456 89.4655 80.928V86H90.7455V80.704C90.7455 78.704 89.6735 77.552 87.9775 77.552C86.7455 77.552 86.0415 78.16 85.6415 79.088H85.5775V74.16H84.2975V86ZM96.4953 86.192C98.0473 86.192 99.2313 85.424 99.7593 84.304L98.8473 83.648C98.4153 84.56 97.6153 85.072 96.5753 85.072C95.0393 85.072 94.1273 84 94.1273 82.576V82.192H100.063V81.584C100.063 79.248 98.7033 77.552 96.4953 77.552C94.2553 77.552 92.7833 79.248 92.7833 81.872C92.7833 84.496 94.2553 86.192 96.4953 86.192ZM96.4953 78.624C97.8073 78.624 98.6873 79.6 98.6873 81.056V81.232H94.1273V81.12C94.1273 79.68 95.1033 78.624 96.4953 78.624ZM105.245 86.192C106.813 86.192 107.885 85.424 108.413 84.24L107.485 83.616C107.037 84.56 106.285 85.056 105.245 85.056C103.725 85.056 102.941 84.016 102.941 82.576V81.168C102.941 79.728 103.725 78.688 105.245 78.688C106.253 78.688 106.957 79.184 107.261 80.032L108.333 79.488C107.853 78.352 106.877 77.552 105.245 77.552C102.924 77.552 101.565 79.232 101.565 81.872C101.565 84.512 102.924 86.192 105.245 86.192ZM110.219 86H111.499V83.056L112.731 81.792L115.467 86H117.019L113.659 81.008L116.715 77.744H115.163L112.827 80.256L111.563 81.664H111.499V74.16H110.219V86ZM118.657 86H119.937V84.656H120.001C120.497 85.68 121.281 86.192 122.417 86.192C124.481 86.192 125.777 84.512 125.777 81.872C125.777 79.232 124.481 77.552 122.417 77.552C121.281 77.552 120.433 78.048 120.001 79.088H119.937V74.16H118.657V86ZM122.065 85.04C120.897 85.04 119.937 84.432 119.937 83.36V80.288C119.937 79.376 120.897 78.704 122.065 78.704C123.505 78.704 124.401 79.696 124.401 81.168V82.576C124.401 84.048 123.505 85.04 122.065 85.04ZM131.058 86.192C133.266 86.192 134.786 84.496 134.786 81.872C134.786 79.248 133.266 77.552 131.058 77.552C128.85 77.552 127.33 79.248 127.33 81.872C127.33 84.496 128.85 86.192 131.058 86.192ZM131.058 85.056C129.682 85.056 128.706 84.208 128.706 82.464V81.28C128.706 79.536 129.682 78.688 131.058 78.688C132.434 78.688 133.41 79.536 133.41 81.28V82.464C133.41 84.208 132.434 85.056 131.058 85.056ZM135.68 86H137.104L139.424 82.768H139.472L141.616 86H143.12L140.144 81.744L143.056 77.744H141.632L139.456 80.816H139.408L137.312 77.744H135.808L138.736 81.84L135.68 86ZM151.09 86V84.88H149.874V74.16H148.594V84.672C148.594 85.44 149.074 86 149.954 86H151.09ZM159.674 86V84.88H158.73V80.336C158.73 78.592 157.546 77.552 155.562 77.552C154.074 77.552 153.082 78.288 152.634 79.168L153.402 79.888C153.85 79.136 154.506 78.656 155.498 78.656C156.81 78.656 157.45 79.296 157.45 80.464V81.28H155.818C153.418 81.28 152.298 82.144 152.298 83.696C152.298 85.232 153.322 86.192 155.066 86.192C156.218 86.192 157.098 85.664 157.45 84.656H157.53C157.626 85.424 158.01 86 158.954 86H159.674ZM155.274 85.104C154.282 85.104 153.642 84.64 153.642 83.824V83.488C153.642 82.688 154.298 82.24 155.754 82.24H157.45V83.6C157.45 84.448 156.538 85.104 155.274 85.104ZM161.501 86H162.781V84.656H162.845C163.341 85.68 164.125 86.192 165.261 86.192C167.325 86.192 168.621 84.512 168.621 81.872C168.621 79.232 167.325 77.552 165.261 77.552C164.125 77.552 163.277 78.048 162.845 79.088H162.781V74.16H161.501V86ZM164.909 85.04C163.741 85.04 162.781 84.432 162.781 83.36V80.288C162.781 79.376 163.741 78.704 164.909 78.704C166.349 78.704 167.245 79.696 167.245 81.168V82.576C167.245 84.048 166.349 85.04 164.909 85.04ZM173.886 86.192C175.438 86.192 176.622 85.424 177.15 84.304L176.238 83.648C175.806 84.56 175.006 85.072 173.966 85.072C172.43 85.072 171.518 84 171.518 82.576V82.192H177.454V81.584C177.454 79.248 176.094 77.552 173.886 77.552C171.646 77.552 170.174 79.248 170.174 81.872C170.174 84.496 171.646 86.192 173.886 86.192ZM173.886 78.624C175.198 78.624 176.078 79.6 176.078 81.056V81.232H171.518V81.12C171.518 79.68 172.494 78.624 173.886 78.624ZM182.059 86V84.88H180.843V74.16H179.563V84.672C179.563 85.44 180.043 86 180.923 86H182.059Z" fill="#292929"/>
<path d="M189.944 77.824L191.256 79.792L192.152 79.136L190.696 77.28L192.968 76.656L192.616 75.584L190.408 76.4L190.504 74.048H189.384L189.48 76.4L187.272 75.584L186.92 76.656L189.192 77.28L187.736 79.136L188.632 79.792L189.944 77.824Z" fill="#CC0000"/>
<rect x="41" y="22" width="24" height="24" rx="12" fill="#6E04C1"/>
<path d="M56.111 39V38.038H53.771V29.926H52.068L49.663 32.175L50.3 32.864L52.588 30.732H52.679V38.038H50.144V39H56.111Z" fill="white"/>
<line x1="52.5" y1="46" x2="52.5" y2="70" stroke="#8000E4" stroke-dasharray="2 2"/>
<rect x="91" y="22" width="24" height="24" rx="12" fill="#6E04C1"/>
<path d="M105.929 38.038H101.158L103.602 35.841C104.759 34.801 105.591 33.813 105.591 32.409C105.591 30.862 104.577 29.77 102.809 29.77C101.054 29.77 100.248 30.836 99.897 31.902L100.872 32.279C101.119 31.421 101.639 30.745 102.757 30.745C103.875 30.745 104.434 31.434 104.434 32.435V32.591C104.434 33.462 103.784 34.372 102.939 35.152L99.975 37.882V39H105.929V38.038Z" fill="white"/>
<line x1="102.5" y1="46" x2="102.5" y2="70" stroke="#8000E4" stroke-dasharray="2 2"/>
<rect x="225" y="68" width="24" height="24" rx="12" fill="#6E04C1"/>
<path d="M235.405 79.774V80.723H236.471C237.745 80.723 238.421 81.334 238.421 82.4V82.504C238.421 83.57 237.745 84.181 236.471 84.181C235.366 84.181 234.833 83.7 234.365 82.985L233.546 83.609C234.105 84.389 234.911 85.156 236.484 85.156C238.33 85.156 239.565 84.077 239.565 82.517C239.565 81.152 238.629 80.424 237.654 80.229V80.177C238.616 79.93 239.396 79.228 239.396 78.058C239.396 76.589 238.174 75.77 236.64 75.77C235.184 75.77 234.391 76.524 233.936 77.252L234.742 77.876C235.119 77.187 235.678 76.745 236.614 76.745C237.576 76.745 238.239 77.226 238.239 78.175V78.266C238.239 79.137 237.615 79.774 236.393 79.774H235.405Z" fill="white"/>
<line x1="225" y1="80.5" x2="196" y2="80.5" stroke="#8000E4" stroke-dasharray="2 2"/>
</svg>
