<svg width="400" height="240" viewBox="0 0 400 240" fill="none" xmlns="http://www.w3.org/2000/svg">
<rect x="69" y="130" width="69" height="48" rx="24" fill="white"/>
<g clip-path="url(#clip0_2160_74829)">
<path d="M86.5791 160H90.5311C93.3791 160 95.2511 158.144 95.2511 154.416C95.2511 150.688 93.3791 148.832 90.5311 148.832H86.5791V160ZM88.3871 158.4V150.432H90.5311C92.1951 150.432 93.3151 151.504 93.3151 153.52V155.312C93.3151 157.328 92.1951 158.4 90.5311 158.4H88.3871ZM104.445 160V158.576H103.565V154.4C103.565 152.544 102.365 151.488 100.221 151.488C98.605 151.488 97.629 152.176 97.085 153.104L98.125 154.048C98.541 153.392 99.133 152.912 100.109 152.912C101.277 152.912 101.821 153.504 101.821 154.512V155.216H100.317C97.997 155.216 96.765 156.064 96.765 157.712C96.765 159.216 97.741 160.192 99.453 160.192C100.669 160.192 101.565 159.648 101.885 158.608H101.965C102.077 159.424 102.557 160 103.469 160H104.445ZM99.949 158.864C99.085 158.864 98.541 158.48 98.541 157.744V157.456C98.541 156.736 99.133 156.336 100.349 156.336H101.821V157.536C101.821 158.352 101.021 158.864 99.949 158.864ZM107.034 150.192C107.754 150.192 108.058 149.808 108.058 149.28V149.008C108.058 148.48 107.754 148.096 107.034 148.096C106.314 148.096 105.994 148.48 105.994 149.008V149.28C105.994 149.808 106.314 150.192 107.034 150.192ZM106.154 160H107.898V151.68H106.154V160ZM113.285 160V158.576H112.133V148.16H110.389V158.272C110.389 159.344 110.981 160 112.165 160H113.285ZM118.266 156.576L117.738 158.384H117.658L117.178 156.576L115.514 151.68H113.77L116.794 160.368L116.314 161.776H114.906V163.2H115.914C117.21 163.2 117.706 162.768 118.106 161.648L121.61 151.68H119.93L118.266 156.576Z" fill="#292929"/>
</g>
<rect x="70" y="131" width="67" height="46" rx="23" stroke="black" stroke-opacity="0.102" stroke-width="2"/>
<rect x="69" y="62" width="69" height="48" rx="24" fill="white"/>
<g clip-path="url(#clip1_2160_74829)">
<path d="M86.5791 92H90.5311C93.3791 92 95.2511 90.144 95.2511 86.416C95.2511 82.688 93.3791 80.832 90.5311 80.832H86.5791V92ZM88.3871 90.4V82.432H90.5311C92.1951 82.432 93.3151 83.504 93.3151 85.52V87.312C93.3151 89.328 92.1951 90.4 90.5311 90.4H88.3871ZM104.445 92V90.576H103.565V86.4C103.565 84.544 102.365 83.488 100.221 83.488C98.605 83.488 97.629 84.176 97.085 85.104L98.125 86.048C98.541 85.392 99.133 84.912 100.109 84.912C101.277 84.912 101.821 85.504 101.821 86.512V87.216H100.317C97.997 87.216 96.765 88.064 96.765 89.712C96.765 91.216 97.741 92.192 99.453 92.192C100.669 92.192 101.565 91.648 101.885 90.608H101.965C102.077 91.424 102.557 92 103.469 92H104.445ZM99.949 90.864C99.085 90.864 98.541 90.48 98.541 89.744V89.456C98.541 88.736 99.133 88.336 100.349 88.336H101.821V89.536C101.821 90.352 101.021 90.864 99.949 90.864ZM107.034 82.192C107.754 82.192 108.058 81.808 108.058 81.28V81.008C108.058 80.48 107.754 80.096 107.034 80.096C106.314 80.096 105.994 80.48 105.994 81.008V81.28C105.994 81.808 106.314 82.192 107.034 82.192ZM106.154 92H107.898V83.68H106.154V92ZM113.285 92V90.576H112.133V80.16H110.389V90.272C110.389 91.344 110.981 92 112.165 92H113.285ZM118.266 88.576L117.738 90.384H117.658L117.178 88.576L115.514 83.68H113.77L116.794 92.368L116.314 93.776H114.906V95.2H115.914C117.21 95.2 117.706 94.768 118.106 93.648L121.61 83.68H119.93L118.266 88.576Z" fill="#292929"/>
</g>
<rect x="70" y="63" width="67" height="46" rx="23" stroke="black" stroke-opacity="0.102" stroke-width="2"/>
<rect x="146" y="130" width="86" height="48" rx="24" fill="white"/>
<g clip-path="url(#clip2_2160_74829)">
<path d="M167.204 160L168.66 154.224L169.508 150.832H169.54L170.372 154.224L171.796 160H173.828L176.58 148.832H174.804L173.636 154.208L172.82 157.904H172.772L171.892 154.208L170.58 148.832H168.564L167.236 154.208L166.34 157.92H166.292L165.508 154.208L164.372 148.832H162.532L165.172 160H167.204ZM181.176 160.192C182.728 160.192 183.944 159.52 184.568 158.512L183.544 157.504C183.064 158.272 182.376 158.752 181.352 158.752C179.944 158.752 179.16 157.84 179.16 156.56V156.288H184.872V155.632C184.872 153.328 183.624 151.488 181.176 151.488C178.808 151.488 177.352 153.184 177.352 155.84C177.352 158.496 178.808 160.192 181.176 160.192ZM181.176 152.848C182.328 152.848 183.032 153.696 183.032 154.976V155.136H179.16V155.024C179.16 153.744 179.976 152.848 181.176 152.848ZM190.067 160.192C191.619 160.192 192.835 159.52 193.459 158.512L192.435 157.504C191.955 158.272 191.267 158.752 190.243 158.752C188.835 158.752 188.051 157.84 188.051 156.56V156.288H193.763V155.632C193.763 153.328 192.515 151.488 190.067 151.488C187.699 151.488 186.243 153.184 186.243 155.84C186.243 158.496 187.699 160.192 190.067 160.192ZM190.067 152.848C191.219 152.848 191.923 153.696 191.923 154.976V155.136H188.051V155.024C188.051 153.744 188.867 152.848 190.067 152.848ZM195.693 160H197.437V157.28L198.589 156.032L200.973 160H203.053L199.789 154.896L202.701 151.68H200.669L198.669 153.936L197.517 155.424H197.437V148.16H195.693V160ZM207.339 160V158.576H206.187V148.16H204.443V158.272C204.443 159.344 205.035 160 206.219 160H207.339ZM212.321 156.576L211.793 158.384H211.713L211.233 156.576L209.569 151.68H207.825L210.849 160.368L210.369 161.776H208.961V163.2H209.969C211.265 163.2 211.761 162.768 212.161 161.648L215.665 151.68H213.985L212.321 156.576Z" fill="#292929"/>
</g>
<rect x="147" y="131" width="84" height="46" rx="23" stroke="black" stroke-opacity="0.102" stroke-width="2"/>
<rect x="147" y="63" width="84" height="46" rx="23" fill="white"/>
<g clip-path="url(#clip3_2160_74829)">
<path d="M167.204 92L168.66 86.224L169.508 82.832H169.54L170.372 86.224L171.796 92H173.828L176.58 80.832H174.804L173.636 86.208L172.82 89.904H172.772L171.892 86.208L170.58 80.832H168.564L167.236 86.208L166.34 89.92H166.292L165.508 86.208L164.372 80.832H162.532L165.172 92H167.204ZM181.176 92.192C182.728 92.192 183.944 91.52 184.568 90.512L183.544 89.504C183.064 90.272 182.376 90.752 181.352 90.752C179.944 90.752 179.16 89.84 179.16 88.56V88.288H184.872V87.632C184.872 85.328 183.624 83.488 181.176 83.488C178.808 83.488 177.352 85.184 177.352 87.84C177.352 90.496 178.808 92.192 181.176 92.192ZM181.176 84.848C182.328 84.848 183.032 85.696 183.032 86.976V87.136H179.16V87.024C179.16 85.744 179.976 84.848 181.176 84.848ZM190.067 92.192C191.619 92.192 192.835 91.52 193.459 90.512L192.435 89.504C191.955 90.272 191.267 90.752 190.243 90.752C188.835 90.752 188.051 89.84 188.051 88.56V88.288H193.763V87.632C193.763 85.328 192.515 83.488 190.067 83.488C187.699 83.488 186.243 85.184 186.243 87.84C186.243 90.496 187.699 92.192 190.067 92.192ZM190.067 84.848C191.219 84.848 191.923 85.696 191.923 86.976V87.136H188.051V87.024C188.051 85.744 188.867 84.848 190.067 84.848ZM195.693 92H197.437V89.28L198.589 88.032L200.973 92H203.053L199.789 86.896L202.701 83.68H200.669L198.669 85.936L197.517 87.424H197.437V80.16H195.693V92ZM207.339 92V90.576H206.187V80.16H204.443V90.272C204.443 91.344 205.035 92 206.219 92H207.339ZM212.321 88.576L211.793 90.384H211.713L211.233 88.576L209.569 83.68H207.825L210.849 92.368L210.369 93.776H208.961V95.2H209.969C211.265 95.2 211.761 94.768 212.161 93.648L215.665 83.68H213.985L212.321 88.576Z" fill="#292929"/>
</g>
<rect x="147" y="63" width="84" height="46" rx="23" stroke="#292929" stroke-width="2"/>
<rect x="241" y="131" width="90" height="46" rx="23" fill="white"/>
<g clip-path="url(#clip4_2160_74829)">
<path d="M257.814 160H259.542V151.456H259.622L260.502 153.264L262.95 157.728L265.398 153.264L266.278 151.456H266.358V160H268.086V148.832H266.038L263.046 154.512H262.95L259.958 148.832H257.814V160ZM273.981 160.192C276.301 160.192 277.805 158.496 277.805 155.84C277.805 153.184 276.301 151.488 273.981 151.488C271.661 151.488 270.157 153.184 270.157 155.84C270.157 158.496 271.661 160.192 273.981 160.192ZM273.981 158.752C272.797 158.752 271.997 158.016 271.997 156.544V155.136C271.997 153.664 272.797 152.928 273.981 152.928C275.165 152.928 275.965 153.664 275.965 155.136V156.544C275.965 158.016 275.165 158.752 273.981 158.752ZM281.492 160V154.432C281.492 153.456 282.388 152.992 283.3 152.992C284.372 152.992 284.868 153.648 284.868 154.944V160H286.612V154.72C286.612 152.672 285.604 151.488 283.908 151.488C282.628 151.488 281.924 152.16 281.572 153.056H281.492V151.68H279.748V160H281.492ZM292.853 160V158.576H291.237V153.104H292.981V151.68H291.237V149.408H289.669V150.864C289.669 151.44 289.477 151.68 288.901 151.68H288.197V153.104H289.493V158.192C289.493 159.328 290.133 160 291.333 160H292.853ZM294.873 160H296.617V154.416C296.617 153.456 297.513 152.992 298.425 152.992C299.497 152.992 299.993 153.648 299.993 154.928V160H301.737V154.72C301.737 152.672 300.729 151.488 299.033 151.488C297.753 151.488 297.049 152.16 296.697 153.056H296.617V148.16H294.873V160ZM307.05 160V158.576H305.898V148.16H304.154V158.272C304.154 159.344 304.746 160 305.93 160H307.05ZM312.032 156.576L311.504 158.384H311.424L310.944 156.576L309.28 151.68H307.536L310.56 160.368L310.08 161.776H308.672V163.2H309.68C310.976 163.2 311.472 162.768 311.872 161.648L315.376 151.68H313.696L312.032 156.576Z" fill="#292929"/>
</g>
<rect x="241" y="131" width="90" height="46" rx="23" stroke="#292929" stroke-width="2"/>
<rect x="240" y="62" width="92" height="48" rx="24" fill="white"/>
<g clip-path="url(#clip5_2160_74829)">
<path d="M257.814 92H259.542V83.456H259.622L260.502 85.264L262.95 89.728L265.398 85.264L266.278 83.456H266.358V92H268.086V80.832H266.038L263.046 86.512H262.95L259.958 80.832H257.814V92ZM273.981 92.192C276.301 92.192 277.805 90.496 277.805 87.84C277.805 85.184 276.301 83.488 273.981 83.488C271.661 83.488 270.157 85.184 270.157 87.84C270.157 90.496 271.661 92.192 273.981 92.192ZM273.981 90.752C272.797 90.752 271.997 90.016 271.997 88.544V87.136C271.997 85.664 272.797 84.928 273.981 84.928C275.165 84.928 275.965 85.664 275.965 87.136V88.544C275.965 90.016 275.165 90.752 273.981 90.752ZM281.492 92V86.432C281.492 85.456 282.388 84.992 283.3 84.992C284.372 84.992 284.868 85.648 284.868 86.944V92H286.612V86.72C286.612 84.672 285.604 83.488 283.908 83.488C282.628 83.488 281.924 84.16 281.572 85.056H281.492V83.68H279.748V92H281.492ZM292.853 92V90.576H291.237V85.104H292.981V83.68H291.237V81.408H289.669V82.864C289.669 83.44 289.477 83.68 288.901 83.68H288.197V85.104H289.493V90.192C289.493 91.328 290.133 92 291.333 92H292.853ZM294.873 92H296.617V86.416C296.617 85.456 297.513 84.992 298.425 84.992C299.497 84.992 299.993 85.648 299.993 86.928V92H301.737V86.72C301.737 84.672 300.729 83.488 299.033 83.488C297.753 83.488 297.049 84.16 296.697 85.056H296.617V80.16H294.873V92ZM307.05 92V90.576H305.898V80.16H304.154V90.272C304.154 91.344 304.746 92 305.93 92H307.05ZM312.032 88.576L311.504 90.384H311.424L310.944 88.576L309.28 83.68H307.536L310.56 92.368L310.08 93.776H308.672V95.2H309.68C310.976 95.2 311.472 94.768 311.872 93.648L315.376 83.68H313.696L312.032 88.576Z" fill="#292929"/>
</g>
<rect x="241" y="63" width="90" height="46" rx="23" stroke="black" stroke-opacity="0.102" stroke-width="2"/>
<defs>
<clipPath id="clip0_2160_74829">
<rect x="69" y="130" width="69" height="48" rx="24" fill="white"/>
</clipPath>
<clipPath id="clip1_2160_74829">
<rect x="69" y="62" width="69" height="48" rx="24" fill="white"/>
</clipPath>
<clipPath id="clip2_2160_74829">
<rect x="146" y="130" width="86" height="48" rx="24" fill="white"/>
</clipPath>
<clipPath id="clip3_2160_74829">
<rect x="146" y="62" width="86" height="48" rx="24" fill="white"/>
</clipPath>
<clipPath id="clip4_2160_74829">
<rect x="240" y="130" width="92" height="48" rx="24" fill="white"/>
</clipPath>
<clipPath id="clip5_2160_74829">
<rect x="240" y="62" width="92" height="48" rx="24" fill="white"/>
</clipPath>
</defs>
</svg>
