<svg width="400" height="240" viewBox="0 0 400 240" fill="none" xmlns="http://www.w3.org/2000/svg">
<rect x="70" y="40" width="69" height="48" rx="24" fill="white"/>
<g clip-path="url(#clip0_2160_74839)">
<path d="M87.5791 70H91.5311C94.3791 70 96.2511 68.144 96.2511 64.416C96.2511 60.688 94.3791 58.832 91.5311 58.832H87.5791V70ZM89.3871 68.4V60.432H91.5311C93.1951 60.432 94.3151 61.504 94.3151 63.52V65.312C94.3151 67.328 93.1951 68.4 91.5311 68.4H89.3871ZM105.445 70V68.576H104.565V64.4C104.565 62.544 103.365 61.488 101.221 61.488C99.605 61.488 98.629 62.176 98.085 63.104L99.125 64.048C99.541 63.392 100.133 62.912 101.109 62.912C102.277 62.912 102.821 63.504 102.821 64.512V65.216H101.317C98.997 65.216 97.765 66.064 97.765 67.712C97.765 69.216 98.741 70.192 100.453 70.192C101.669 70.192 102.565 69.648 102.885 68.608H102.965C103.077 69.424 103.557 70 104.469 70H105.445ZM100.949 68.864C100.085 68.864 99.541 68.48 99.541 67.744V67.456C99.541 66.736 100.133 66.336 101.349 66.336H102.821V67.536C102.821 68.352 102.021 68.864 100.949 68.864ZM108.034 60.192C108.754 60.192 109.058 59.808 109.058 59.28V59.008C109.058 58.48 108.754 58.096 108.034 58.096C107.314 58.096 106.994 58.48 106.994 59.008V59.28C106.994 59.808 107.314 60.192 108.034 60.192ZM107.154 70H108.898V61.68H107.154V70ZM114.285 70V68.576H113.133V58.16H111.389V68.272C111.389 69.344 111.981 70 113.165 70H114.285ZM119.266 66.576L118.738 68.384H118.658L118.178 66.576L116.514 61.68H114.77L117.794 70.368L117.314 71.776H115.906V73.2H116.914C118.21 73.2 118.706 72.768 119.106 71.648L122.61 61.68H120.93L119.266 66.576Z" fill="#292929"/>
</g>
<rect x="71" y="41" width="67" height="46" rx="23" stroke="black" stroke-opacity="0.102" stroke-width="2"/>
<rect x="71" y="97" width="84" height="46" rx="23" fill="white"/>
<g clip-path="url(#clip1_2160_74839)">
<path d="M91.2044 126L92.6604 120.224L93.5084 116.832H93.5404L94.3724 120.224L95.7964 126H97.8284L100.58 114.832H98.8044L97.6364 120.208L96.8204 123.904H96.7724L95.8924 120.208L94.5804 114.832H92.5644L91.2364 120.208L90.3404 123.92H90.2924L89.5084 120.208L88.3724 114.832H86.5324L89.1724 126H91.2044ZM105.176 126.192C106.728 126.192 107.944 125.52 108.568 124.512L107.544 123.504C107.064 124.272 106.376 124.752 105.352 124.752C103.944 124.752 103.16 123.84 103.16 122.56V122.288H108.872V121.632C108.872 119.328 107.624 117.488 105.176 117.488C102.808 117.488 101.352 119.184 101.352 121.84C101.352 124.496 102.808 126.192 105.176 126.192ZM105.176 118.848C106.328 118.848 107.032 119.696 107.032 120.976V121.136H103.16V121.024C103.16 119.744 103.976 118.848 105.176 118.848ZM114.067 126.192C115.619 126.192 116.835 125.52 117.459 124.512L116.435 123.504C115.955 124.272 115.267 124.752 114.243 124.752C112.835 124.752 112.051 123.84 112.051 122.56V122.288H117.763V121.632C117.763 119.328 116.515 117.488 114.067 117.488C111.699 117.488 110.243 119.184 110.243 121.84C110.243 124.496 111.699 126.192 114.067 126.192ZM114.067 118.848C115.219 118.848 115.923 119.696 115.923 120.976V121.136H112.051V121.024C112.051 119.744 112.867 118.848 114.067 118.848ZM119.693 126H121.437V123.28L122.589 122.032L124.973 126H127.053L123.789 120.896L126.701 117.68H124.669L122.669 119.936L121.517 121.424H121.437V114.16H119.693V126ZM131.339 126V124.576H130.187V114.16H128.443V124.272C128.443 125.344 129.035 126 130.219 126H131.339ZM136.321 122.576L135.793 124.384H135.713L135.233 122.576L133.569 117.68H131.825L134.849 126.368L134.369 127.776H132.961V129.2H133.969C135.265 129.2 135.761 128.768 136.161 127.648L139.665 117.68H137.985L136.321 122.576Z" fill="#292929"/>
</g>
<rect x="71" y="97" width="84" height="46" rx="23" stroke="#292929" stroke-width="2"/>
<rect x="70" y="152" width="92" height="48" rx="24" fill="white"/>
<g clip-path="url(#clip2_2160_74839)">
<path d="M87.8135 182H89.5415V173.456H89.6215L90.5015 175.264L92.9495 179.728L95.3975 175.264L96.2775 173.456H96.3575V182H98.0855V170.832H96.0375L93.0455 176.512H92.9495L89.9575 170.832H87.8135V182ZM103.981 182.192C106.301 182.192 107.805 180.496 107.805 177.84C107.805 175.184 106.301 173.488 103.981 173.488C101.661 173.488 100.157 175.184 100.157 177.84C100.157 180.496 101.661 182.192 103.981 182.192ZM103.981 180.752C102.797 180.752 101.997 180.016 101.997 178.544V177.136C101.997 175.664 102.797 174.928 103.981 174.928C105.165 174.928 105.965 175.664 105.965 177.136V178.544C105.965 180.016 105.165 180.752 103.981 180.752ZM111.492 182V176.432C111.492 175.456 112.388 174.992 113.3 174.992C114.372 174.992 114.868 175.648 114.868 176.944V182H116.612V176.72C116.612 174.672 115.604 173.488 113.908 173.488C112.628 173.488 111.924 174.16 111.572 175.056H111.492V173.68H109.748V182H111.492ZM122.853 182V180.576H121.237V175.104H122.981V173.68H121.237V171.408H119.669V172.864C119.669 173.44 119.477 173.68 118.901 173.68H118.197V175.104H119.493V180.192C119.493 181.328 120.133 182 121.333 182H122.853ZM124.873 182H126.617V176.416C126.617 175.456 127.513 174.992 128.425 174.992C129.497 174.992 129.993 175.648 129.993 176.928V182H131.737V176.72C131.737 174.672 130.729 173.488 129.033 173.488C127.753 173.488 127.049 174.16 126.697 175.056H126.617V170.16H124.873V182ZM137.05 182V180.576H135.898V170.16H134.154V180.272C134.154 181.344 134.746 182 135.93 182H137.05ZM142.032 178.576L141.504 180.384H141.424L140.944 178.576L139.28 173.68H137.536L140.56 182.368L140.08 183.776H138.672V185.2H139.68C140.976 185.2 141.472 184.768 141.872 183.648L145.376 173.68H143.696L142.032 178.576Z" fill="#292929"/>
</g>
<rect x="71" y="153" width="90" height="46" rx="23" stroke="black" stroke-opacity="0.102" stroke-width="2"/>
<defs>
<clipPath id="clip0_2160_74839">
<rect x="70" y="40" width="69" height="48" rx="24" fill="white"/>
</clipPath>
<clipPath id="clip1_2160_74839">
<rect x="70" y="96" width="86" height="48" rx="24" fill="white"/>
</clipPath>
<clipPath id="clip2_2160_74839">
<rect x="70" y="152" width="92" height="48" rx="24" fill="white"/>
</clipPath>
</defs>
</svg>
