<svg width="400" height="240" viewBox="0 0 400 240" fill="none" xmlns="http://www.w3.org/2000/svg">
<g clip-path="url(#clip0_2160_74837)">
<rect x="155" y="34" width="51.8479" height="35.8859" rx="17.943" fill="white"/>
<g clip-path="url(#clip1_2160_74837)">
<path d="M168.314 55.943H171.259C173.381 55.943 174.776 54.5598 174.776 51.7815C174.776 49.0033 173.381 47.6201 171.259 47.6201H168.314V55.943ZM169.661 54.7506V48.8125H171.259C172.499 48.8125 173.334 49.6114 173.334 51.1138V52.4493C173.334 53.9517 172.499 54.7506 171.259 54.7506H169.661ZM181.628 55.943V54.8818H180.972V51.7696C180.972 50.3864 180.078 49.5994 178.48 49.5994C177.276 49.5994 176.549 50.1122 176.143 50.8038L176.918 51.5073C177.228 51.0184 177.669 50.6607 178.397 50.6607C179.267 50.6607 179.673 51.1019 179.673 51.8531V52.3777H178.552C176.823 52.3777 175.905 53.0097 175.905 54.2379C175.905 55.3587 176.632 56.0861 177.908 56.0861C178.814 56.0861 179.482 55.6807 179.72 54.9056H179.78C179.863 55.5137 180.221 55.943 180.901 55.943H181.628ZM178.278 55.0964C177.634 55.0964 177.228 54.8102 177.228 54.2617V54.0471C177.228 53.5105 177.669 53.2124 178.576 53.2124H179.673V54.1067C179.673 54.7148 179.076 55.0964 178.278 55.0964ZM183.558 48.6336C184.094 48.6336 184.321 48.3474 184.321 47.9539V47.7512C184.321 47.3577 184.094 47.0716 183.558 47.0716C183.021 47.0716 182.783 47.3577 182.783 47.7512V47.9539C182.783 48.3474 183.021 48.6336 183.558 48.6336ZM182.902 55.943H184.202V49.7425H182.902V55.943ZM188.216 55.943V54.8818H187.357V47.1193H186.058V54.6552C186.058 55.4541 186.499 55.943 187.381 55.943H188.216ZM191.928 53.3913L191.535 54.7387H191.475L191.118 53.3913L189.877 49.7425H188.578L190.831 56.2172L190.474 57.2666H189.424V58.3278H190.176C191.141 58.3278 191.511 58.0058 191.809 57.1712L194.42 49.7425H193.168L191.928 53.3913Z" fill="#292929"/>
</g>
<rect x="155.745" y="34.7452" width="50.3574" height="34.3954" rx="17.1977" stroke="black" stroke-opacity="0.102" stroke-width="1.49049"/>
<rect x="88" y="34" width="60.8479" height="35.8859" rx="17.943" fill="white"/>
<g clip-path="url(#clip2_2160_74837)">
<path d="M106.487 55.943H107.834V47.6201H106.487V51.1257H102.719V47.6201H101.371V55.943H102.719V52.3181H106.487V55.943ZM112.221 56.0861C113.95 56.0861 115.07 54.8221 115.07 52.8428C115.07 50.8634 113.95 49.5994 112.221 49.5994C110.492 49.5994 109.371 50.8634 109.371 52.8428C109.371 54.8221 110.492 56.0861 112.221 56.0861ZM112.221 55.0129C111.338 55.0129 110.742 54.4644 110.742 53.3674V52.3181C110.742 51.2211 111.338 50.6726 112.221 50.6726C113.103 50.6726 113.699 51.2211 113.699 52.3181V53.3674C113.699 54.4644 113.103 55.0129 112.221 55.0129ZM120.275 55.943H121.574V49.7425H120.275V53.8921C120.275 54.6194 119.619 54.9652 118.951 54.9652C118.152 54.9652 117.759 54.4644 117.759 53.5224V49.7425H116.459V53.6894C116.459 55.2156 117.21 56.0861 118.486 56.0861C119.511 56.0861 120 55.5257 120.227 54.9175H120.275V55.943ZM124.735 55.943V51.9842C124.735 51.3403 125.307 50.9946 126.333 50.9946H126.846V49.7425H126.5C125.51 49.7425 124.974 50.303 124.795 50.9349H124.735V49.7425H123.435V55.943H124.735ZM130.158 55.943V54.8818H129.3V47.1193H128V54.6552C128 55.4541 128.441 55.943 129.324 55.943H130.158ZM133.871 53.3913L133.477 54.7387H133.418L133.06 53.3913L131.82 49.7425H130.52L132.774 56.2172L132.416 57.2666H131.367V58.3278H132.118C133.084 58.3278 133.453 58.0058 133.751 57.1712L136.363 49.7425H135.111L133.871 53.3913Z" fill="#292929"/>
</g>
<rect x="88.7452" y="34.7452" width="59.3574" height="34.3954" rx="17.1977" stroke="black" stroke-opacity="0.102" stroke-width="1.49049"/>
<rect x="213.129" y="34.7452" width="63.3574" height="34.3954" rx="17.1977" fill="white"/>
<g clip-path="url(#clip3_2160_74837)">
<path d="M228.565 55.943L229.65 51.6384L230.282 49.1106H230.306L230.926 51.6384L231.987 55.943H233.501L235.552 47.6201H234.229L233.358 51.6265L232.75 54.381H232.714L232.059 51.6265L231.081 47.6201H229.578L228.589 51.6265L227.921 54.3929H227.885L227.301 51.6265L226.454 47.6201H225.083L227.051 55.943H228.565ZM238.977 56.0861C240.134 56.0861 241.04 55.5853 241.505 54.8341L240.742 54.0829C240.384 54.6552 239.872 55.0129 239.108 55.0129C238.059 55.0129 237.475 54.3333 237.475 53.3793V53.1766H241.732V52.6878C241.732 50.9707 240.802 49.5994 238.977 49.5994C237.212 49.5994 236.127 50.8634 236.127 52.8428C236.127 54.8221 237.212 56.0861 238.977 56.0861ZM238.977 50.613C239.836 50.613 240.36 51.245 240.36 52.1989V52.3181H237.475V52.2346C237.475 51.2807 238.083 50.613 238.977 50.613ZM245.603 56.0861C246.76 56.0861 247.666 55.5853 248.131 54.8341L247.368 54.0829C247.01 54.6552 246.497 55.0129 245.734 55.0129C244.685 55.0129 244.101 54.3333 244.101 53.3793V53.1766H248.357V52.6878C248.357 50.9707 247.427 49.5994 245.603 49.5994C243.838 49.5994 242.753 50.8634 242.753 52.8428C242.753 54.8221 243.838 56.0861 245.603 56.0861ZM245.603 50.613C246.461 50.613 246.986 51.245 246.986 52.1989V52.3181H244.101V52.2346C244.101 51.2807 244.709 50.613 245.603 50.613ZM249.796 55.943H251.096V53.9159L251.954 52.9859L253.731 55.943H255.281L252.849 52.1393L255.019 49.7425H253.505L252.014 51.4238L251.155 52.5327H251.096V47.1193H249.796V55.943ZM258.475 55.943V54.8818H257.617V47.1193H256.317V54.6552C256.317 55.4541 256.758 55.943 257.641 55.943H258.475ZM262.188 53.3913L261.794 54.7387H261.735L261.377 53.3913L260.137 49.7425H258.837L261.091 56.2172L260.733 57.2666H259.684V58.3278H260.435C261.401 58.3278 261.77 58.0058 262.069 57.1712L264.68 49.7425H263.428L262.188 53.3913Z" fill="#292929"/>
</g>
<rect x="213.129" y="34.7452" width="63.3574" height="34.3954" rx="17.1977" stroke="#292929" stroke-width="1.49049"/>
<mask id="mask0_2160_74837" style="mask-type:alpha" maskUnits="userSpaceOnUse" x="283" y="7" width="57" height="83">
<rect width="57" height="83" transform="matrix(-1 0 0 1 340 7)" fill="url(#paint0_linear_2160_74837)"/>
</mask>
<g mask="url(#mask0_2160_74837)">
<rect x="282.437" y="34" width="68.8479" height="35.8859" rx="17.943" fill="white"/>
<g clip-path="url(#clip4_2160_74837)">
<path d="M295.855 55.943H297.143V49.5756H297.203L297.859 50.923L299.683 54.2498L301.507 50.923L302.163 49.5756H302.223V55.943H303.51V47.6201H301.984L299.754 51.8531H299.683L297.453 47.6201H295.855V55.943ZM307.904 56.0861C309.633 56.0861 310.754 54.8221 310.754 52.8428C310.754 50.8634 309.633 49.5994 307.904 49.5994C306.175 49.5994 305.054 50.8634 305.054 52.8428C305.054 54.8221 306.175 56.0861 307.904 56.0861ZM307.904 55.0129C307.022 55.0129 306.425 54.4644 306.425 53.3674V52.3181C306.425 51.2211 307.022 50.6726 307.904 50.6726C308.786 50.6726 309.382 51.2211 309.382 52.3181V53.3674C309.382 54.4644 308.786 55.0129 307.904 55.0129ZM313.502 55.943V51.7935C313.502 51.0661 314.169 50.7203 314.849 50.7203C315.648 50.7203 316.018 51.2092 316.018 52.175V55.943H317.317V52.0081C317.317 50.4818 316.566 49.5994 315.302 49.5994C314.348 49.5994 313.824 50.1003 313.561 50.768H313.502V49.7425H312.202V55.943H313.502ZM321.969 55.943V54.8818H320.764V50.8038H322.064V49.7425H320.764V48.0493H319.596V49.1344C319.596 49.5637 319.453 49.7425 319.023 49.7425H318.499V50.8038H319.465V54.5956C319.465 55.4422 319.941 55.943 320.836 55.943H321.969ZM323.474 55.943H324.773V51.7815C324.773 51.0661 325.441 50.7203 326.121 50.7203C326.92 50.7203 327.289 51.2092 327.289 52.1631V55.943H328.589V52.0081C328.589 50.4818 327.838 49.5994 326.574 49.5994C325.62 49.5994 325.095 50.1003 324.833 50.768H324.773V47.1193H323.474V55.943ZM332.549 55.943V54.8818H331.69V47.1193H330.391V54.6552C330.391 55.4541 330.832 55.943 331.714 55.943H332.549ZM336.261 53.3913L335.868 54.7387H335.808L335.45 53.3913L334.21 49.7425H332.911L335.164 56.2172L334.807 57.2666H333.757V58.3278H334.508C335.474 58.3278 335.844 58.0058 336.142 57.1712L338.753 49.7425H337.501L336.261 53.3913Z" fill="#292929"/>
</g>
<rect x="283.183" y="34.7452" width="67.3574" height="34.3954" rx="17.1977" stroke="black" stroke-opacity="0.102" stroke-width="1.49049"/>
</g>
<rect x="180" y="135" width="51.8479" height="35.8859" rx="17.943" fill="white"/>
<g clip-path="url(#clip5_2160_74837)">
<path d="M193.314 156.943H196.259C198.381 156.943 199.776 155.56 199.776 152.782C199.776 150.003 198.381 148.62 196.259 148.62H193.314V156.943ZM194.661 155.751V149.812H196.259C197.499 149.812 198.334 150.611 198.334 152.114V153.449C198.334 154.952 197.499 155.751 196.259 155.751H194.661ZM206.628 156.943V155.882H205.972V152.77C205.972 151.386 205.078 150.599 203.48 150.599C202.276 150.599 201.549 151.112 201.143 151.804L201.918 152.507C202.228 152.018 202.669 151.661 203.397 151.661C204.267 151.661 204.673 152.102 204.673 152.853V153.378H203.552C201.823 153.378 200.905 154.01 200.905 155.238C200.905 156.359 201.632 157.086 202.908 157.086C203.814 157.086 204.482 156.681 204.72 155.906H204.78C204.863 156.514 205.221 156.943 205.901 156.943H206.628ZM203.278 156.096C202.634 156.096 202.228 155.81 202.228 155.262V155.047C202.228 154.511 202.669 154.212 203.576 154.212H204.673V155.107C204.673 155.715 204.076 156.096 203.278 156.096ZM208.558 149.634C209.094 149.634 209.321 149.347 209.321 148.954V148.751C209.321 148.358 209.094 148.072 208.558 148.072C208.021 148.072 207.783 148.358 207.783 148.751V148.954C207.783 149.347 208.021 149.634 208.558 149.634ZM207.902 156.943H209.202V150.743H207.902V156.943ZM213.216 156.943V155.882H212.357V148.119H211.058V155.655C211.058 156.454 211.499 156.943 212.381 156.943H213.216ZM216.928 154.391L216.535 155.739H216.475L216.118 154.391L214.877 150.743H213.578L215.831 157.217L215.474 158.267H214.424V159.328H215.176C216.141 159.328 216.511 159.006 216.809 158.171L219.42 150.743H218.168L216.928 154.391Z" fill="#292929"/>
</g>
<rect x="180.745" y="135.745" width="50.3574" height="34.3954" rx="17.1977" stroke="black" stroke-opacity="0.102" stroke-width="1.49049"/>
<rect x="113" y="135" width="60.8479" height="35.8859" rx="17.943" fill="white"/>
<g clip-path="url(#clip6_2160_74837)">
<path d="M131.487 156.943H132.834V148.62H131.487V152.126H127.719V148.62H126.371V156.943H127.719V153.318H131.487V156.943ZM137.221 157.086C138.95 157.086 140.07 155.822 140.07 153.843C140.07 151.863 138.95 150.599 137.221 150.599C135.492 150.599 134.371 151.863 134.371 153.843C134.371 155.822 135.492 157.086 137.221 157.086ZM137.221 156.013C136.338 156.013 135.742 155.464 135.742 154.367V153.318C135.742 152.221 136.338 151.673 137.221 151.673C138.103 151.673 138.699 152.221 138.699 153.318V154.367C138.699 155.464 138.103 156.013 137.221 156.013ZM145.275 156.943H146.574V150.743H145.275V154.892C145.275 155.619 144.619 155.965 143.951 155.965C143.152 155.965 142.759 155.464 142.759 154.522V150.743H141.459V154.689C141.459 156.216 142.21 157.086 143.486 157.086C144.511 157.086 145 156.526 145.227 155.918H145.275V156.943ZM149.735 156.943V152.984C149.735 152.34 150.307 151.995 151.333 151.995H151.846V150.743H151.5C150.51 150.743 149.974 151.303 149.795 151.935H149.735V150.743H148.435V156.943H149.735ZM155.158 156.943V155.882H154.3V148.119H153V155.655C153 156.454 153.441 156.943 154.324 156.943H155.158ZM158.871 154.391L158.477 155.739H158.418L158.06 154.391L156.82 150.743H155.52L157.774 157.217L157.416 158.267H156.367V159.328H157.118C158.084 159.328 158.453 159.006 158.751 158.171L161.363 150.743H160.111L158.871 154.391Z" fill="#292929"/>
</g>
<rect x="113.745" y="135.745" width="59.3574" height="34.3954" rx="17.1977" stroke="black" stroke-opacity="0.102" stroke-width="1.49049"/>
<rect x="238.129" y="135.745" width="63.3574" height="34.3954" rx="17.1977" fill="white"/>
<g clip-path="url(#clip7_2160_74837)">
<path d="M253.565 156.943L254.65 152.638L255.282 150.111H255.306L255.926 152.638L256.987 156.943H258.501L260.552 148.62H259.229L258.358 152.627L257.75 155.381H257.714L257.059 152.627L256.081 148.62H254.578L253.589 152.627L252.921 155.393H252.885L252.301 152.627L251.454 148.62H250.083L252.051 156.943H253.565ZM263.977 157.086C265.134 157.086 266.04 156.585 266.505 155.834L265.742 155.083C265.384 155.655 264.872 156.013 264.108 156.013C263.059 156.013 262.475 155.333 262.475 154.379V154.177H266.732V153.688C266.732 151.971 265.802 150.599 263.977 150.599C262.212 150.599 261.127 151.863 261.127 153.843C261.127 155.822 262.212 157.086 263.977 157.086ZM263.977 151.613C264.836 151.613 265.36 152.245 265.36 153.199V153.318H262.475V153.235C262.475 152.281 263.083 151.613 263.977 151.613ZM270.603 157.086C271.76 157.086 272.666 156.585 273.131 155.834L272.368 155.083C272.01 155.655 271.497 156.013 270.734 156.013C269.685 156.013 269.101 155.333 269.101 154.379V154.177H273.357V153.688C273.357 151.971 272.427 150.599 270.603 150.599C268.838 150.599 267.753 151.863 267.753 153.843C267.753 155.822 268.838 157.086 270.603 157.086ZM270.603 151.613C271.461 151.613 271.986 152.245 271.986 153.199V153.318H269.101V153.235C269.101 152.281 269.709 151.613 270.603 151.613ZM274.796 156.943H276.096V154.916L276.954 153.986L278.731 156.943H280.281L277.849 153.139L280.019 150.743H278.505L277.014 152.424L276.155 153.533H276.096V148.119H274.796V156.943ZM283.475 156.943V155.882H282.617V148.119H281.317V155.655C281.317 156.454 281.758 156.943 282.641 156.943H283.475ZM287.188 154.391L286.794 155.739H286.735L286.377 154.391L285.137 150.743H283.837L286.091 157.217L285.733 158.267H284.684V159.328H285.435C286.401 159.328 286.77 159.006 287.069 158.171L289.68 150.743H288.428L287.188 154.391Z" fill="#292929"/>
</g>
<rect x="238.129" y="135.745" width="63.3574" height="34.3954" rx="17.1977" stroke="#292929" stroke-width="1.49049"/>
<rect x="113" y="178" width="68.8479" height="35.8859" rx="17.943" fill="white"/>
<g clip-path="url(#clip8_2160_74837)">
<path d="M126.418 199.943H127.706V193.576H127.765L128.421 194.923L130.246 198.25L132.07 194.923L132.726 193.576H132.785V199.943H134.073V191.62H132.547L130.317 195.853H130.246L128.016 191.62H126.418V199.943ZM138.467 200.086C140.196 200.086 141.316 198.822 141.316 196.843C141.316 194.863 140.196 193.599 138.467 193.599C136.738 193.599 135.617 194.863 135.617 196.843C135.617 198.822 136.738 200.086 138.467 200.086ZM138.467 199.013C137.584 199.013 136.988 198.464 136.988 197.367V196.318C136.988 195.221 137.584 194.673 138.467 194.673C139.349 194.673 139.945 195.221 139.945 196.318V197.367C139.945 198.464 139.349 199.013 138.467 199.013ZM144.064 199.943V195.793C144.064 195.066 144.732 194.72 145.412 194.72C146.211 194.72 146.58 195.209 146.58 196.175V199.943H147.88V196.008C147.88 194.482 147.129 193.599 145.865 193.599C144.911 193.599 144.386 194.1 144.124 194.768H144.064V193.743H142.765V199.943H144.064ZM152.531 199.943V198.882H151.327V194.804H152.627V193.743H151.327V192.049H150.158V193.134C150.158 193.564 150.015 193.743 149.586 193.743H149.061V194.804H150.027V198.596C150.027 199.442 150.504 199.943 151.399 199.943H152.531ZM154.037 199.943H155.336V195.782C155.336 195.066 156.004 194.72 156.684 194.72C157.483 194.72 157.852 195.209 157.852 196.163V199.943H159.152V196.008C159.152 194.482 158.401 193.599 157.137 193.599C156.183 193.599 155.658 194.1 155.396 194.768H155.336V191.119H154.037V199.943ZM163.112 199.943V198.882H162.253V191.119H160.953V198.655C160.953 199.454 161.395 199.943 162.277 199.943H163.112ZM166.824 197.391L166.431 198.739H166.371L166.013 197.391L164.773 193.743H163.473L165.727 200.217L165.369 201.267H164.32V202.328H165.071C166.037 202.328 166.407 202.006 166.705 201.171L169.316 193.743H168.064L166.824 197.391Z" fill="#292929"/>
</g>
<rect x="113.745" y="178.745" width="67.3574" height="34.3954" rx="17.1977" stroke="black" stroke-opacity="0.102" stroke-width="1.49049"/>
<rect x="188" y="178" width="71.8479" height="35.8859" rx="17.943" fill="white"/>
<g clip-path="url(#clip9_2160_74837)">
<path d="M207.579 199.943L204.741 191.62H203.048L200.21 199.943H201.582L202.309 197.689H205.421L206.172 199.943H207.579ZM205.087 196.533H202.631L203.835 192.86H203.895L205.087 196.533ZM210.073 199.943V195.793C210.073 195.066 210.74 194.72 211.42 194.72C212.219 194.72 212.589 195.209 212.589 196.175V199.943H213.888V196.008C213.888 194.482 213.137 193.599 211.873 193.599C210.919 193.599 210.395 194.1 210.132 194.768H210.073V193.743H208.773V199.943H210.073ZM216.99 199.943V195.793C216.99 195.066 217.657 194.72 218.337 194.72C219.136 194.72 219.505 195.209 219.505 196.175V199.943H220.805V196.008C220.805 194.482 220.054 193.599 218.79 193.599C217.836 193.599 217.311 194.1 217.049 194.768H216.99V193.743H215.69V199.943H216.99ZM226.363 199.943H227.662V193.743H226.363V197.892C226.363 198.619 225.707 198.965 225.039 198.965C224.24 198.965 223.847 198.464 223.847 197.522V193.743H222.547V197.689C222.547 199.216 223.298 200.086 224.574 200.086C225.6 200.086 226.088 199.526 226.315 198.918H226.363V199.943ZM234.794 199.943V198.882H234.138V195.77C234.138 194.386 233.244 193.599 231.646 193.599C230.442 193.599 229.714 194.112 229.309 194.804L230.084 195.507C230.394 195.018 230.835 194.661 231.562 194.661C232.433 194.661 232.838 195.102 232.838 195.853V196.378H231.717C229.988 196.378 229.07 197.01 229.07 198.238C229.07 199.359 229.798 200.086 231.074 200.086C231.98 200.086 232.648 199.681 232.886 198.906H232.946C233.029 199.514 233.387 199.943 234.066 199.943H234.794ZM231.443 199.096C230.799 199.096 230.394 198.81 230.394 198.262V198.047C230.394 197.511 230.835 197.212 231.741 197.212H232.838V198.107C232.838 198.715 232.242 199.096 231.443 199.096ZM238.226 199.943V198.882H237.367V191.119H236.068V198.655C236.068 199.454 236.509 199.943 237.391 199.943H238.226ZM241.556 199.943V198.882H240.698V191.119H239.398V198.655C239.398 199.454 239.839 199.943 240.722 199.943H241.556ZM245.269 197.391L244.875 198.739H244.816L244.458 197.391L243.218 193.743H241.918L244.172 200.217L243.814 201.267H242.765V202.328H243.516C244.482 202.328 244.851 202.006 245.149 201.171L247.761 193.743H246.509L245.269 197.391Z" fill="#292929"/>
</g>
<rect x="188.745" y="178.745" width="70.3574" height="34.3954" rx="17.1977" stroke="black" stroke-opacity="0.102" stroke-width="1.49049"/>
<rect x="101.5" y="125.5" width="212" height="154" rx="3.5" stroke="black" stroke-opacity="0.102"/>
<path d="M52.5 43H43.5C43.1023 43.0004 42.721 43.1586 42.4398 43.4398C42.1586 43.721 42.0004 44.1023 42 44.5V61C42.0005 61.3977 42.1586 61.7789 42.4398 62.0602C42.7211 62.3414 43.1023 62.4995 43.5 62.5H52.5C52.8977 62.4995 53.2789 62.3413 53.5601 62.0601C53.8413 61.7789 53.9995 61.3977 54 61V44.5C53.9995 44.1023 53.8414 43.721 53.5602 43.4398C53.279 43.1586 52.8977 43.0005 52.5 43ZM52.5 44.5V46H43.5V44.5H52.5ZM43.5 61V47.5H52.5V61H43.5Z" fill="#292929"/>
<path d="M57 154H39C38.6022 154 38.2206 154.158 37.9393 154.439C37.658 154.721 37.5 155.102 37.5 155.5V167.5C37.5 167.898 37.658 168.279 37.9393 168.561C38.2206 168.842 38.6022 169 39 169H45V172H42V173.5H54V172H51V169H57C57.3978 169 57.7794 168.842 58.0607 168.561C58.342 168.279 58.5 167.898 58.5 167.5V155.5C58.5 155.102 58.342 154.721 58.0607 154.439C57.7794 154.158 57.3978 154 57 154ZM49.5 172H46.5V169H49.5V172ZM57 167.5H39V155.5H57V167.5Z" fill="#292929"/>
</g>
<defs>
<linearGradient id="paint0_linear_2160_74837" x1="35.7907" y1="42" x2="8.61628" y2="42" gradientUnits="userSpaceOnUse">
<stop offset="0.827061" stop-color="white"/>
<stop offset="1" stop-color="white" stop-opacity="0"/>
</linearGradient>
<clipPath id="clip0_2160_74837">
<rect width="400" height="240" fill="white"/>
</clipPath>
<clipPath id="clip1_2160_74837">
<rect x="155" y="34" width="51.8479" height="35.8859" rx="17.943" fill="white"/>
</clipPath>
<clipPath id="clip2_2160_74837">
<rect x="88" y="34" width="60.8479" height="35.8859" rx="17.943" fill="white"/>
</clipPath>
<clipPath id="clip3_2160_74837">
<rect x="212.384" y="34" width="64.8479" height="35.8859" rx="17.943" fill="white"/>
</clipPath>
<clipPath id="clip4_2160_74837">
<rect x="282.437" y="34" width="68.8479" height="35.8859" rx="17.943" fill="white"/>
</clipPath>
<clipPath id="clip5_2160_74837">
<rect x="180" y="135" width="51.8479" height="35.8859" rx="17.943" fill="white"/>
</clipPath>
<clipPath id="clip6_2160_74837">
<rect x="113" y="135" width="60.8479" height="35.8859" rx="17.943" fill="white"/>
</clipPath>
<clipPath id="clip7_2160_74837">
<rect x="237.384" y="135" width="64.8479" height="35.8859" rx="17.943" fill="white"/>
</clipPath>
<clipPath id="clip8_2160_74837">
<rect x="113" y="178" width="68.8479" height="35.8859" rx="17.943" fill="white"/>
</clipPath>
<clipPath id="clip9_2160_74837">
<rect x="188" y="178" width="71.8479" height="35.8859" rx="17.943" fill="white"/>
</clipPath>
</defs>
</svg>
