<svg width="400" height="240" viewBox="0 0 400 240" fill="none" xmlns="http://www.w3.org/2000/svg">
<rect x="147" y="97" width="84" height="46" rx="23" fill="white"/>
<g clip-path="url(#clip0_2160_74833)">
<path d="M167.204 126L168.66 120.224L169.508 116.832H169.54L170.372 120.224L171.796 126H173.828L176.58 114.832H174.804L173.636 120.208L172.82 123.904H172.772L171.892 120.208L170.58 114.832H168.564L167.236 120.208L166.34 123.92H166.292L165.508 120.208L164.372 114.832H162.532L165.172 126H167.204ZM181.176 126.192C182.728 126.192 183.944 125.52 184.568 124.512L183.544 123.504C183.064 124.272 182.376 124.752 181.352 124.752C179.944 124.752 179.16 123.84 179.16 122.56V122.288H184.872V121.632C184.872 119.328 183.624 117.488 181.176 117.488C178.808 117.488 177.352 119.184 177.352 121.84C177.352 124.496 178.808 126.192 181.176 126.192ZM181.176 118.848C182.328 118.848 183.032 119.696 183.032 120.976V121.136H179.16V121.024C179.16 119.744 179.976 118.848 181.176 118.848ZM190.067 126.192C191.619 126.192 192.835 125.52 193.459 124.512L192.435 123.504C191.955 124.272 191.267 124.752 190.243 124.752C188.835 124.752 188.051 123.84 188.051 122.56V122.288H193.763V121.632C193.763 119.328 192.515 117.488 190.067 117.488C187.699 117.488 186.243 119.184 186.243 121.84C186.243 124.496 187.699 126.192 190.067 126.192ZM190.067 118.848C191.219 118.848 191.923 119.696 191.923 120.976V121.136H188.051V121.024C188.051 119.744 188.867 118.848 190.067 118.848ZM195.693 126H197.437V123.28L198.589 122.032L200.973 126H203.053L199.789 120.896L202.701 117.68H200.669L198.669 119.936L197.517 121.424H197.437V114.16H195.693V126ZM207.339 126V124.576H206.187V114.16H204.443V124.272C204.443 125.344 205.035 126 206.219 126H207.339ZM212.321 122.576L211.793 124.384H211.713L211.233 122.576L209.569 117.68H207.825L210.849 126.368L210.369 127.776H208.961V129.2H209.969C211.265 129.2 211.761 128.768 212.161 127.648L215.665 117.68H213.985L212.321 122.576Z" fill="#292929"/>
</g>
<rect x="147" y="97" width="84" height="46" rx="23" stroke="#292929" stroke-width="2"/>
<defs>
<clipPath id="clip0_2160_74833">
<rect x="146" y="96" width="86" height="48" rx="24" fill="white"/>
</clipPath>
</defs>
</svg>
