<svg width="400" height="240" viewBox="0 0 400 240" fill="none" xmlns="http://www.w3.org/2000/svg">
<rect x="108" y="56" width="42" height="48" rx="21" fill="white"/>
<g clip-path="url(#clip0_2160_75506)">
<path d="M133.243 86V84.496H130.523V74.832H127.771L124.923 77.92L126.027 78.912L128.619 76.144H128.747V84.496H125.611V86H133.243Z" fill="#292929"/>
</g>
<rect x="109" y="57" width="40" height="46" rx="20" stroke="black" stroke-opacity="0.102" stroke-width="2"/>
<rect x="108" y="137" width="62" height="48" rx="24" fill="white"/>
<g clip-path="url(#clip1_2160_75506)">
<path d="M129.915 167.192C132.827 167.192 134.731 165.176 134.731 161.416C134.731 157.656 132.827 155.64 129.915 155.64C127.003 155.64 125.099 157.656 125.099 161.416C125.099 165.176 127.003 167.192 129.915 167.192ZM129.915 165.576C128.187 165.576 127.035 164.328 127.035 162.296V160.536C127.035 158.504 128.187 157.256 129.915 157.256C131.643 157.256 132.795 158.504 132.795 160.536V162.296C132.795 164.328 131.643 165.576 129.915 165.576ZM138.601 167V161.432C138.601 160.456 139.497 159.992 140.409 159.992C141.481 159.992 141.977 160.648 141.977 161.944V167H143.721V161.72C143.721 159.672 142.713 158.488 141.017 158.488C139.737 158.488 139.033 159.16 138.681 160.056H138.601V158.68H136.857V167H138.601ZM149.403 167.192C150.955 167.192 152.171 166.52 152.795 165.512L151.771 164.504C151.291 165.272 150.603 165.752 149.579 165.752C148.171 165.752 147.387 164.84 147.387 163.56V163.288H153.099V162.632C153.099 160.328 151.851 158.488 149.403 158.488C147.035 158.488 145.579 160.184 145.579 162.84C145.579 165.496 147.035 167.192 149.403 167.192ZM149.403 159.848C150.555 159.848 151.259 160.696 151.259 161.976V162.136H147.387V162.024C147.387 160.744 148.203 159.848 149.403 159.848Z" fill="#292929"/>
</g>
<rect x="109" y="138" width="60" height="46" rx="23" stroke="black" stroke-opacity="0.102" stroke-width="2"/>
<rect x="159" y="57" width="40" height="46" rx="20" fill="white"/>
<g clip-path="url(#clip2_2160_75506)">
<path d="M182.859 84.464H177.227L179.851 82.208C181.323 80.944 182.523 79.76 182.523 77.952C182.523 76.016 181.211 74.64 178.939 74.64C176.699 74.64 175.579 75.952 175.115 77.36L176.699 77.968C176.971 76.992 177.563 76.208 178.795 76.208C179.899 76.208 180.603 76.88 180.603 77.952V78.16C180.603 79.184 179.963 80.08 178.843 81.088L175.275 84.272V86H182.859V84.464Z" fill="#292929"/>
</g>
<rect x="159" y="57" width="40" height="46" rx="20" stroke="#292929" stroke-width="2"/>
<rect x="179" y="138" width="61" height="46" rx="23" fill="white"/>
<g clip-path="url(#clip3_2160_75506)">
<path d="M198.048 167H199.856V157.432H203.184V155.832H194.72V157.432H198.048V167ZM205.649 167H207.569L208.673 163.208L209.329 160.872H209.361L210.033 163.208L211.121 167H213.089L215.329 158.68H213.713L212.849 162.168L212.113 165.32H212.065L211.185 162.168L210.161 158.68H208.593L207.585 162.168L206.721 165.32H206.673L205.921 162.168L205.073 158.68H203.377L205.649 167ZM220.145 167.192C222.465 167.192 223.969 165.496 223.969 162.84C223.969 160.184 222.465 158.488 220.145 158.488C217.825 158.488 216.321 160.184 216.321 162.84C216.321 165.496 217.825 167.192 220.145 167.192ZM220.145 165.752C218.961 165.752 218.161 165.016 218.161 163.544V162.136C218.161 160.664 218.961 159.928 220.145 159.928C221.329 159.928 222.129 160.664 222.129 162.136V163.544C222.129 165.016 221.329 165.752 220.145 165.752Z" fill="#292929"/>
</g>
<rect x="179" y="138" width="61" height="46" rx="23" stroke="#292929" stroke-width="2"/>
<rect x="208" y="56" width="42" height="48" rx="21" fill="white"/>
<g clip-path="url(#clip4_2160_75506)">
<path d="M227.259 79.424V80.96H228.443C229.851 80.96 230.651 81.584 230.651 82.72V82.832C230.651 83.984 229.899 84.672 228.539 84.672C227.243 84.672 226.587 84.048 226.043 83.152L224.715 84.192C225.419 85.216 226.459 86.192 228.539 86.192C230.923 86.192 232.523 84.88 232.523 82.928C232.523 81.312 231.451 80.4 230.187 80.16V80.08C231.355 79.824 232.331 78.944 232.331 77.52C232.331 75.712 230.811 74.64 228.699 74.64C226.843 74.64 225.819 75.504 225.147 76.48L226.347 77.52C226.859 76.672 227.595 76.16 228.651 76.16C229.723 76.16 230.427 76.736 230.427 77.744V77.856C230.427 78.768 229.771 79.424 228.395 79.424H227.259Z" fill="#292929"/>
</g>
<rect x="209" y="57" width="40" height="46" rx="20" stroke="black" stroke-opacity="0.102" stroke-width="2"/>
<rect x="249" y="137" width="75" height="48" rx="24" fill="white"/>
<g clip-path="url(#clip5_2160_75506)">
<path d="M269.04 167H270.848V157.432H274.176V155.832H265.712V157.432H269.04V167ZM275.811 167H277.555V161.416C277.555 160.456 278.451 159.992 279.363 159.992C280.435 159.992 280.931 160.648 280.931 161.928V167H282.675V161.72C282.675 159.672 281.667 158.488 279.971 158.488C278.691 158.488 277.987 159.16 277.635 160.056H277.555V155.16H275.811V167ZM286.836 167V161.688C286.836 160.824 287.604 160.36 288.98 160.36H289.668V158.68H289.204C287.876 158.68 287.156 159.432 286.916 160.28H286.836V158.68H285.092V167H286.836ZM294.403 167.192C295.955 167.192 297.171 166.52 297.795 165.512L296.771 164.504C296.291 165.272 295.603 165.752 294.579 165.752C293.171 165.752 292.387 164.84 292.387 163.56V163.288H298.099V162.632C298.099 160.328 296.851 158.488 294.403 158.488C292.035 158.488 290.579 160.184 290.579 162.84C290.579 165.496 292.035 167.192 294.403 167.192ZM294.403 159.848C295.555 159.848 296.259 160.696 296.259 161.976V162.136H292.387V162.024C292.387 160.744 293.203 159.848 294.403 159.848ZM303.293 167.192C304.845 167.192 306.061 166.52 306.685 165.512L305.661 164.504C305.181 165.272 304.493 165.752 303.469 165.752C302.061 165.752 301.277 164.84 301.277 163.56V163.288H306.989V162.632C306.989 160.328 305.741 158.488 303.293 158.488C300.925 158.488 299.469 160.184 299.469 162.84C299.469 165.496 300.925 167.192 303.293 167.192ZM303.293 159.848C304.445 159.848 305.149 160.696 305.149 161.976V162.136H301.277V162.024C301.277 160.744 302.093 159.848 303.293 159.848Z" fill="#292929"/>
</g>
<rect x="250" y="138" width="73" height="46" rx="23" stroke="black" stroke-opacity="0.102" stroke-width="2"/>
<path d="M56 152.25C54.2694 152.25 52.5777 152.763 51.1388 153.725C49.6998 154.686 48.5783 156.053 47.9161 157.652C47.2538 159.25 47.0805 161.01 47.4181 162.707C47.7558 164.404 48.5891 165.963 49.8128 167.187C51.0365 168.411 52.5956 169.244 54.293 169.582C55.9903 169.919 57.7496 169.746 59.3485 169.084C60.9473 168.422 62.3139 167.3 63.2754 165.861C64.2368 164.422 64.75 162.731 64.75 161C64.75 158.679 63.8281 156.454 62.1872 154.813C60.5462 153.172 58.3206 152.25 56 152.25ZM54.75 164.494L51.625 161.369L52.6191 160.375L54.75 162.506L59.3813 157.875L60.3786 158.866L54.75 164.494Z" fill="#067900"/>
<path d="M56 71.25C51.125 71.25 47.25 75.125 47.25 80C47.25 84.875 51.125 88.75 56 88.75C60.875 88.75 64.75 84.875 64.75 80C64.75 75.125 60.875 71.25 56 71.25ZM59.375 84.375L56 81L52.625 84.375L51.625 83.375L55 80L51.625 76.625L52.625 75.625L56 79L59.375 75.625L60.375 76.625L57 80L60.375 83.375L59.375 84.375Z" fill="#CC0000"/>
<defs>
<clipPath id="clip0_2160_75506">
<rect x="108" y="56" width="42" height="48" rx="21" fill="white"/>
</clipPath>
<clipPath id="clip1_2160_75506">
<rect x="108" y="137" width="62" height="48" rx="24" fill="white"/>
</clipPath>
<clipPath id="clip2_2160_75506">
<rect x="158" y="56" width="42" height="48" rx="21" fill="white"/>
</clipPath>
<clipPath id="clip3_2160_75506">
<rect x="178" y="137" width="63" height="48" rx="24" fill="white"/>
</clipPath>
<clipPath id="clip4_2160_75506">
<rect x="208" y="56" width="42" height="48" rx="21" fill="white"/>
</clipPath>
<clipPath id="clip5_2160_75506">
<rect x="249" y="137" width="75" height="48" rx="24" fill="white"/>
</clipPath>
</defs>
</svg>
