<svg width="400" height="240" viewBox="0 0 400 240" fill="none" xmlns="http://www.w3.org/2000/svg">
<rect x="69" y="96" width="69" height="48" rx="24" fill="white"/>
<g clip-path="url(#clip0_2160_74835)">
<path d="M86.5791 126H90.5311C93.3791 126 95.2511 124.144 95.2511 120.416C95.2511 116.688 93.3791 114.832 90.5311 114.832H86.5791V126ZM88.3871 124.4V116.432H90.5311C92.1951 116.432 93.3151 117.504 93.3151 119.52V121.312C93.3151 123.328 92.1951 124.4 90.5311 124.4H88.3871ZM104.445 126V124.576H103.565V120.4C103.565 118.544 102.365 117.488 100.221 117.488C98.605 117.488 97.629 118.176 97.085 119.104L98.125 120.048C98.541 119.392 99.133 118.912 100.109 118.912C101.277 118.912 101.821 119.504 101.821 120.512V121.216H100.317C97.997 121.216 96.765 122.064 96.765 123.712C96.765 125.216 97.741 126.192 99.453 126.192C100.669 126.192 101.565 125.648 101.885 124.608H101.965C102.077 125.424 102.557 126 103.469 126H104.445ZM99.949 124.864C99.085 124.864 98.541 124.48 98.541 123.744V123.456C98.541 122.736 99.133 122.336 100.349 122.336H101.821V123.536C101.821 124.352 101.021 124.864 99.949 124.864ZM107.034 116.192C107.754 116.192 108.058 115.808 108.058 115.28V115.008C108.058 114.48 107.754 114.096 107.034 114.096C106.314 114.096 105.994 114.48 105.994 115.008V115.28C105.994 115.808 106.314 116.192 107.034 116.192ZM106.154 126H107.898V117.68H106.154V126ZM113.285 126V124.576H112.133V114.16H110.389V124.272C110.389 125.344 110.981 126 112.165 126H113.285ZM118.266 122.576L117.738 124.384H117.658L117.178 122.576L115.514 117.68H113.77L116.794 126.368L116.314 127.776H114.906V129.2H115.914C117.21 129.2 117.706 128.768 118.106 127.648L121.61 117.68H119.93L118.266 122.576Z" fill="#292929"/>
</g>
<rect x="70" y="97" width="67" height="46" rx="23" stroke="black" stroke-opacity="0.102" stroke-width="2"/>
<rect x="147" y="97" width="84" height="46" rx="23" fill="white"/>
<g clip-path="url(#clip1_2160_74835)">
<path d="M167.204 126L168.66 120.224L169.508 116.832H169.54L170.372 120.224L171.796 126H173.828L176.58 114.832H174.804L173.636 120.208L172.82 123.904H172.772L171.892 120.208L170.58 114.832H168.564L167.236 120.208L166.34 123.92H166.292L165.508 120.208L164.372 114.832H162.532L165.172 126H167.204ZM181.176 126.192C182.728 126.192 183.944 125.52 184.568 124.512L183.544 123.504C183.064 124.272 182.376 124.752 181.352 124.752C179.944 124.752 179.16 123.84 179.16 122.56V122.288H184.872V121.632C184.872 119.328 183.624 117.488 181.176 117.488C178.808 117.488 177.352 119.184 177.352 121.84C177.352 124.496 178.808 126.192 181.176 126.192ZM181.176 118.848C182.328 118.848 183.032 119.696 183.032 120.976V121.136H179.16V121.024C179.16 119.744 179.976 118.848 181.176 118.848ZM190.067 126.192C191.619 126.192 192.835 125.52 193.459 124.512L192.435 123.504C191.955 124.272 191.267 124.752 190.243 124.752C188.835 124.752 188.051 123.84 188.051 122.56V122.288H193.763V121.632C193.763 119.328 192.515 117.488 190.067 117.488C187.699 117.488 186.243 119.184 186.243 121.84C186.243 124.496 187.699 126.192 190.067 126.192ZM190.067 118.848C191.219 118.848 191.923 119.696 191.923 120.976V121.136H188.051V121.024C188.051 119.744 188.867 118.848 190.067 118.848ZM195.693 126H197.437V123.28L198.589 122.032L200.973 126H203.053L199.789 120.896L202.701 117.68H200.669L198.669 119.936L197.517 121.424H197.437V114.16H195.693V126ZM207.339 126V124.576H206.187V114.16H204.443V124.272C204.443 125.344 205.035 126 206.219 126H207.339ZM212.321 122.576L211.793 124.384H211.713L211.233 122.576L209.569 117.68H207.825L210.849 126.368L210.369 127.776H208.961V129.2H209.969C211.265 129.2 211.761 128.768 212.161 127.648L215.665 117.68H213.985L212.321 122.576Z" fill="#292929"/>
</g>
<rect x="147" y="97" width="84" height="46" rx="23" stroke="#292929" stroke-width="2"/>
<rect x="240" y="96" width="92" height="48" rx="24" fill="white"/>
<g clip-path="url(#clip2_2160_74835)">
<path d="M257.814 126H259.542V117.456H259.622L260.502 119.264L262.95 123.728L265.398 119.264L266.278 117.456H266.358V126H268.086V114.832H266.038L263.046 120.512H262.95L259.958 114.832H257.814V126ZM273.981 126.192C276.301 126.192 277.805 124.496 277.805 121.84C277.805 119.184 276.301 117.488 273.981 117.488C271.661 117.488 270.157 119.184 270.157 121.84C270.157 124.496 271.661 126.192 273.981 126.192ZM273.981 124.752C272.797 124.752 271.997 124.016 271.997 122.544V121.136C271.997 119.664 272.797 118.928 273.981 118.928C275.165 118.928 275.965 119.664 275.965 121.136V122.544C275.965 124.016 275.165 124.752 273.981 124.752ZM281.492 126V120.432C281.492 119.456 282.388 118.992 283.3 118.992C284.372 118.992 284.868 119.648 284.868 120.944V126H286.612V120.72C286.612 118.672 285.604 117.488 283.908 117.488C282.628 117.488 281.924 118.16 281.572 119.056H281.492V117.68H279.748V126H281.492ZM292.853 126V124.576H291.237V119.104H292.981V117.68H291.237V115.408H289.669V116.864C289.669 117.44 289.477 117.68 288.901 117.68H288.197V119.104H289.493V124.192C289.493 125.328 290.133 126 291.333 126H292.853ZM294.873 126H296.617V120.416C296.617 119.456 297.513 118.992 298.425 118.992C299.497 118.992 299.993 119.648 299.993 120.928V126H301.737V120.72C301.737 118.672 300.729 117.488 299.033 117.488C297.753 117.488 297.049 118.16 296.697 119.056H296.617V114.16H294.873V126ZM307.05 126V124.576H305.898V114.16H304.154V124.272C304.154 125.344 304.746 126 305.93 126H307.05ZM312.032 122.576L311.504 124.384H311.424L310.944 122.576L309.28 117.68H307.536L310.56 126.368L310.08 127.776H308.672V129.2H309.68C310.976 129.2 311.472 128.768 311.872 127.648L315.376 117.68H313.696L312.032 122.576Z" fill="#292929"/>
</g>
<rect x="241" y="97" width="90" height="46" rx="23" stroke="black" stroke-opacity="0.102" stroke-width="2"/>
<defs>
<clipPath id="clip0_2160_74835">
<rect x="69" y="96" width="69" height="48" rx="24" fill="white"/>
</clipPath>
<clipPath id="clip1_2160_74835">
<rect x="146" y="96" width="86" height="48" rx="24" fill="white"/>
</clipPath>
<clipPath id="clip2_2160_74835">
<rect x="240" y="96" width="92" height="48" rx="24" fill="white"/>
</clipPath>
</defs>
</svg>
