<svg width="437" height="152" viewBox="0 0 437 152" fill="none" xmlns="http://www.w3.org/2000/svg">
<rect x="33" y="63" width="158" height="46" rx="23" fill="white"/>
<g clip-path="url(#clip0_4453_118609)">
<path d="M66.7501 85.9999C66.7543 84.0724 66.1234 82.1972 64.955 80.6643C63.7865 79.1314 62.1456 78.0261 60.2859 77.5194C58.4262 77.0127 56.4514 77.1328 54.6668 77.8611C52.8822 78.5894 51.3873 79.8854 50.4132 81.5487C49.4391 83.2119 49.0401 85.1497 49.2779 87.0625C49.5158 88.9752 50.3771 90.7563 51.7288 92.1304C53.0805 93.5045 54.8473 94.395 56.7559 94.6641C58.6644 94.9333 60.6086 94.5662 62.2876 93.6195L62.3604 93.6354L62.3759 93.5658C63.7043 92.7988 64.8076 91.6961 65.5754 90.3681C66.3431 89.0402 66.7482 87.5338 66.7501 85.9999V85.9999ZM50.5001 85.9999C50.5025 85.367 50.5854 84.7369 50.7469 84.1249H53.3989L56.5188 86.7249L55.3256 88.3161C55.1461 88.5572 55.0591 88.8547 55.0804 89.1545C55.1017 89.4544 55.2298 89.7366 55.4415 89.95L56.7501 91.2587V93.387C55.0043 93.0907 53.4195 92.1868 52.2758 90.835C51.1321 89.4832 50.5031 87.7706 50.5001 85.9999V85.9999ZM56.3251 89.0663L58.2313 86.5249L53.8512 82.8749H51.191C51.647 81.8747 52.3179 80.9873 53.156 80.276C53.9941 79.5647 54.9787 79.047 56.0398 78.7597C57.1008 78.4725 58.2122 78.4227 59.2947 78.614C60.3771 78.8053 61.4041 79.2329 62.3024 79.8665L61.9246 80.9999H58.3662L56.4644 82.9018L62.3104 88.0976L61.2801 92.7342C60.2596 93.2368 59.1375 93.4988 58.0001 93.4999V90.7411L56.3251 89.0663ZM62.7719 91.7815L63.5302 88.369C63.5784 88.1516 63.5677 87.9254 63.4992 87.7136C63.4307 87.5018 63.3069 87.3121 63.1406 87.1641L58.2857 82.848L58.8839 82.2499H61.9246C62.187 82.2501 62.4429 82.1676 62.6557 82.0142C62.8686 81.8607 63.0278 81.6441 63.1106 81.3951L63.3313 80.7326C64.0642 81.4721 64.6347 82.3563 65.0065 83.3288C65.3783 84.3013 65.5431 85.3407 65.4905 86.3804C65.4379 87.4202 65.1689 88.4376 64.7009 89.3676C64.2328 90.2976 63.5759 91.1197 62.7721 91.7815H62.7719Z" fill="#292929"/>
<path d="M81.1575 92.192C83.7175 92.192 85.2055 90.8 85.2055 88.72C85.2055 86.944 84.1975 85.952 81.9735 85.52L80.9815 85.312C79.7815 85.072 79.2055 84.672 79.2055 83.744C79.2055 82.768 79.9415 82.24 81.2215 82.24C82.4535 82.24 83.2535 82.72 83.8295 83.472L85.0935 82.352C84.2295 81.248 82.9975 80.64 81.3175 80.64C78.9495 80.64 77.4135 81.856 77.4135 83.84C77.4135 85.616 78.5175 86.624 80.6775 87.024L81.6695 87.2C82.9655 87.456 83.4135 87.952 83.4135 88.816C83.4135 89.888 82.6775 90.592 81.2535 90.592C80.0375 90.592 79.1095 90.096 78.3255 89.136L77.0775 90.304C78.0055 91.456 79.2855 92.192 81.1575 92.192ZM90.512 92.192C92.064 92.192 93.28 91.52 93.904 90.512L92.88 89.504C92.4 90.272 91.712 90.752 90.688 90.752C89.28 90.752 88.496 89.84 88.496 88.56V88.288H94.208V87.632C94.208 85.328 92.96 83.488 90.512 83.488C88.144 83.488 86.688 85.184 86.688 87.84C86.688 90.496 88.144 92.192 90.512 92.192ZM90.512 84.848C91.664 84.848 92.368 85.696 92.368 86.976V87.136H88.496V87.024C88.496 85.744 89.312 84.848 90.512 84.848ZM99.0346 92V90.576H97.8826V80.16H96.1386V90.272C96.1386 91.344 96.7306 92 97.9146 92H99.0346ZM103.965 92.192C105.517 92.192 106.733 91.52 107.357 90.512L106.333 89.504C105.853 90.272 105.165 90.752 104.141 90.752C102.733 90.752 101.949 89.84 101.949 88.56V88.288H107.661V87.632C107.661 85.328 106.413 83.488 103.965 83.488C101.597 83.488 100.141 85.184 100.141 87.84C100.141 90.496 101.597 92.192 103.965 92.192ZM103.965 84.848C105.117 84.848 105.821 85.696 105.821 86.976V87.136H101.949V87.024C101.949 85.744 102.765 84.848 103.965 84.848ZM112.808 92.192C114.408 92.192 115.544 91.44 116.088 90.08L114.76 89.376C114.408 90.208 113.816 90.752 112.808 90.752C111.528 90.752 110.872 89.872 110.872 88.592V87.104C110.872 85.824 111.528 84.944 112.808 84.944C113.752 84.944 114.344 85.44 114.584 86.208L116.024 85.536C115.528 84.304 114.472 83.488 112.808 83.488C110.408 83.488 109.032 85.184 109.032 87.84C109.032 90.496 110.408 92.192 112.808 92.192ZM121.572 92V90.576H119.956V85.104H121.7V83.68H119.956V81.408H118.388V82.864C118.388 83.44 118.196 83.68 117.62 83.68H116.916V85.104H118.212V90.192C118.212 91.328 118.852 92 120.052 92H121.572ZM126.793 92.192C128.345 92.192 129.561 91.52 130.185 90.512L129.161 89.504C128.681 90.272 127.993 90.752 126.969 90.752C125.561 90.752 124.777 89.84 124.777 88.56V88.288H130.489V87.632C130.489 85.328 129.241 83.488 126.793 83.488C124.425 83.488 122.969 85.184 122.969 87.84C122.969 90.496 124.425 92.192 126.793 92.192ZM126.793 84.848C127.945 84.848 128.649 85.696 128.649 86.976V87.136H124.777V87.024C124.777 85.744 125.593 84.848 126.793 84.848ZM137.652 92H139.396V80.16H137.652V85.056H137.572C137.22 84.064 136.34 83.488 135.236 83.488C133.14 83.488 131.924 85.104 131.924 87.84C131.924 90.576 133.14 92.192 135.236 92.192C136.34 92.192 137.22 91.6 137.572 90.624H137.652V92ZM135.764 90.688C134.564 90.688 133.764 89.84 133.764 88.56V87.12C133.764 85.84 134.564 84.992 135.764 84.992C136.82 84.992 137.652 85.568 137.652 86.416V89.264C137.652 90.112 136.82 90.688 135.764 90.688ZM148.886 92.192C150.486 92.192 151.622 91.44 152.166 90.08L150.838 89.376C150.486 90.208 149.894 90.752 148.886 90.752C147.606 90.752 146.95 89.872 146.95 88.592V87.104C146.95 85.824 147.606 84.944 148.886 84.944C149.83 84.944 150.422 85.44 150.662 86.208L152.102 85.536C151.606 84.304 150.55 83.488 148.886 83.488C146.486 83.488 145.11 85.184 145.11 87.84C145.11 90.496 146.486 92.192 148.886 92.192ZM153.826 92H155.57V86.416C155.57 85.456 156.466 84.992 157.378 84.992C158.45 84.992 158.946 85.648 158.946 86.928V92H160.69V86.72C160.69 84.672 159.682 83.488 157.986 83.488C156.706 83.488 156.002 84.16 155.65 85.056H155.57V80.16H153.826V92ZM163.987 82.192C164.707 82.192 165.011 81.808 165.011 81.28V81.008C165.011 80.48 164.707 80.096 163.987 80.096C163.267 80.096 162.947 80.48 162.947 81.008V81.28C162.947 81.808 163.267 82.192 163.987 82.192ZM163.107 92H164.851V83.68H163.107V92ZM167.342 95.2H169.086V90.624H169.166C169.518 91.6 170.398 92.192 171.502 92.192C173.598 92.192 174.814 90.576 174.814 87.84C174.814 85.104 173.598 83.488 171.502 83.488C170.398 83.488 169.518 84.064 169.166 85.056H169.086V83.68H167.342V95.2ZM170.974 90.688C169.918 90.688 169.086 90.112 169.086 89.264V86.416C169.086 85.568 169.918 84.992 170.974 84.992C172.174 84.992 172.974 85.84 172.974 87.12V88.56C172.974 89.84 172.174 90.688 170.974 90.688Z" fill="#292929"/>
</g>
<rect x="33" y="63" width="158" height="46" rx="23" stroke="#292929" stroke-width="2"/>
<rect x="214" y="62" width="178" height="48" rx="24" fill="white"/>
<g clip-path="url(#clip1_4453_118609)">
<path d="M248.75 85.9999C248.754 84.0724 248.123 82.1972 246.955 80.6643C245.787 79.1314 244.146 78.0261 242.286 77.5194C240.426 77.0127 238.451 77.1328 236.667 77.8611C234.882 78.5894 233.387 79.8854 232.413 81.5487C231.439 83.2119 231.04 85.1497 231.278 87.0625C231.516 88.9752 232.377 90.7563 233.729 92.1304C235.081 93.5045 236.847 94.395 238.756 94.6641C240.664 94.9333 242.609 94.5662 244.288 93.6195L244.36 93.6354L244.376 93.5658C245.704 92.7988 246.808 91.6961 247.575 90.3681C248.343 89.0402 248.748 87.5338 248.75 85.9999V85.9999ZM232.5 85.9999C232.502 85.367 232.585 84.7369 232.747 84.1249H235.399L238.519 86.7249L237.326 88.3161C237.146 88.5572 237.059 88.8547 237.08 89.1545C237.102 89.4544 237.23 89.7366 237.441 89.95L238.75 91.2587V93.387C237.004 93.0907 235.42 92.1868 234.276 90.835C233.132 89.4832 232.503 87.7706 232.5 85.9999V85.9999ZM238.325 89.0663L240.231 86.5249L235.851 82.8749H233.191C233.647 81.8747 234.318 80.9873 235.156 80.276C235.994 79.5647 236.979 79.047 238.04 78.7597C239.101 78.4725 240.212 78.4227 241.295 78.614C242.377 78.8053 243.404 79.2329 244.302 79.8665L243.925 80.9999H240.366L238.464 82.9018L244.31 88.0976L243.28 92.7342C242.26 93.2368 241.138 93.4988 240 93.4999V90.7411L238.325 89.0663ZM244.772 91.7815L245.53 88.369C245.578 88.1516 245.568 87.9254 245.499 87.7136C245.431 87.5018 245.307 87.3121 245.141 87.1641L240.286 82.848L240.884 82.2499H243.925C244.187 82.2501 244.443 82.1676 244.656 82.0142C244.869 81.8607 245.028 81.6441 245.111 81.3951L245.331 80.7326C246.064 81.4721 246.635 82.3563 247.006 83.3288C247.378 84.3013 247.543 85.3407 247.49 86.3804C247.438 87.4202 247.169 88.4376 246.701 89.3676C246.233 90.2976 245.576 91.1197 244.772 91.7815H244.772Z" fill="#292929"/>
<path d="M259.453 80.832V87.424C259.453 90.688 260.573 92.192 263.629 92.192C266.685 92.192 267.805 90.688 267.805 87.424V80.832H266.029V87.712C266.029 89.6 265.373 90.576 263.629 90.576C261.885 90.576 261.229 89.6 261.229 87.712V80.832H259.453ZM272.101 92V86.432C272.101 85.456 272.997 84.992 273.909 84.992C274.981 84.992 275.477 85.648 275.477 86.944V92H277.221V86.72C277.221 84.672 276.213 83.488 274.517 83.488C273.237 83.488 272.533 84.16 272.181 85.056H272.101V83.68H270.357V92H272.101ZM282.279 92.192C284.279 92.192 285.575 91.12 285.575 89.52C285.575 88.176 284.759 87.376 282.935 87.104L282.167 87.008C281.287 86.864 280.887 86.576 280.887 85.936C280.887 85.312 281.335 84.896 282.295 84.896C283.191 84.896 283.895 85.328 284.327 85.84L285.399 84.816C284.647 83.984 283.799 83.488 282.295 83.488C280.471 83.488 279.207 84.432 279.207 86.048C279.207 87.584 280.247 88.32 281.943 88.528L282.711 88.624C283.575 88.736 283.895 89.136 283.895 89.664C283.895 90.368 283.383 90.784 282.375 90.784C281.383 90.784 280.631 90.336 280.023 89.6L278.903 90.624C279.687 91.6 280.711 92.192 282.279 92.192ZM290.809 92.192C292.361 92.192 293.577 91.52 294.201 90.512L293.177 89.504C292.697 90.272 292.009 90.752 290.985 90.752C289.577 90.752 288.793 89.84 288.793 88.56V88.288H294.505V87.632C294.505 85.328 293.257 83.488 290.809 83.488C288.441 83.488 286.985 85.184 286.985 87.84C286.985 90.496 288.441 92.192 290.809 92.192ZM290.809 84.848C291.961 84.848 292.665 85.696 292.665 86.976V87.136H288.793V87.024C288.793 85.744 289.609 84.848 290.809 84.848ZM299.332 92V90.576H298.18V80.16H296.436V90.272C296.436 91.344 297.028 92 298.212 92H299.332ZM304.262 92.192C305.814 92.192 307.03 91.52 307.654 90.512L306.63 89.504C306.15 90.272 305.462 90.752 304.438 90.752C303.03 90.752 302.246 89.84 302.246 88.56V88.288H307.958V87.632C307.958 85.328 306.71 83.488 304.262 83.488C301.894 83.488 300.438 85.184 300.438 87.84C300.438 90.496 301.894 92.192 304.262 92.192ZM304.262 84.848C305.414 84.848 306.118 85.696 306.118 86.976V87.136H302.246V87.024C302.246 85.744 303.062 84.848 304.262 84.848ZM313.105 92.192C314.705 92.192 315.841 91.44 316.385 90.08L315.057 89.376C314.705 90.208 314.113 90.752 313.105 90.752C311.825 90.752 311.169 89.872 311.169 88.592V87.104C311.169 85.824 311.825 84.944 313.105 84.944C314.049 84.944 314.641 85.44 314.881 86.208L316.321 85.536C315.825 84.304 314.769 83.488 313.105 83.488C310.705 83.488 309.329 85.184 309.329 87.84C309.329 90.496 310.705 92.192 313.105 92.192ZM321.869 92V90.576H320.253V85.104H321.997V83.68H320.253V81.408H318.685V82.864C318.685 83.44 318.493 83.68 317.917 83.68H317.213V85.104H318.509V90.192C318.509 91.328 319.149 92 320.349 92H321.869ZM327.09 92.192C328.642 92.192 329.858 91.52 330.482 90.512L329.458 89.504C328.978 90.272 328.29 90.752 327.266 90.752C325.858 90.752 325.074 89.84 325.074 88.56V88.288H330.786V87.632C330.786 85.328 329.538 83.488 327.09 83.488C324.722 83.488 323.266 85.184 323.266 87.84C323.266 90.496 324.722 92.192 327.09 92.192ZM327.09 84.848C328.242 84.848 328.946 85.696 328.946 86.976V87.136H325.074V87.024C325.074 85.744 325.89 84.848 327.09 84.848ZM337.949 92H339.693V80.16H337.949V85.056H337.869C337.517 84.064 336.637 83.488 335.533 83.488C333.437 83.488 332.221 85.104 332.221 87.84C332.221 90.576 333.437 92.192 335.533 92.192C336.637 92.192 337.517 91.6 337.869 90.624H337.949V92ZM336.061 90.688C334.861 90.688 334.061 89.84 334.061 88.56V87.12C334.061 85.84 334.861 84.992 336.061 84.992C337.117 84.992 337.949 85.568 337.949 86.416V89.264C337.949 90.112 337.117 90.688 336.061 90.688ZM349.183 92.192C350.783 92.192 351.919 91.44 352.463 90.08L351.135 89.376C350.783 90.208 350.191 90.752 349.183 90.752C347.903 90.752 347.247 89.872 347.247 88.592V87.104C347.247 85.824 347.903 84.944 349.183 84.944C350.127 84.944 350.719 85.44 350.959 86.208L352.399 85.536C351.903 84.304 350.847 83.488 349.183 83.488C346.783 83.488 345.407 85.184 345.407 87.84C345.407 90.496 346.783 92.192 349.183 92.192ZM354.123 92H355.867V86.416C355.867 85.456 356.763 84.992 357.675 84.992C358.747 84.992 359.243 85.648 359.243 86.928V92H360.987V86.72C360.987 84.672 359.979 83.488 358.283 83.488C357.003 83.488 356.299 84.16 355.947 85.056H355.867V80.16H354.123V92ZM364.284 82.192C365.004 82.192 365.308 81.808 365.308 81.28V81.008C365.308 80.48 365.004 80.096 364.284 80.096C363.564 80.096 363.244 80.48 363.244 81.008V81.28C363.244 81.808 363.564 82.192 364.284 82.192ZM363.404 92H365.148V83.68H363.404V92ZM367.639 95.2H369.383V90.624H369.463C369.815 91.6 370.695 92.192 371.799 92.192C373.895 92.192 375.111 90.576 375.111 87.84C375.111 85.104 373.895 83.488 371.799 83.488C370.695 83.488 369.815 84.064 369.463 85.056H369.383V83.68H367.639V95.2ZM371.271 90.688C370.215 90.688 369.383 90.112 369.383 89.264V86.416C369.383 85.568 370.215 84.992 371.271 84.992C372.471 84.992 373.271 85.84 373.271 87.12V88.56C373.271 89.84 372.471 90.688 371.271 90.688Z" fill="#292929"/>
</g>
<rect x="215" y="63" width="176" height="46" rx="23" stroke="black" stroke-opacity="0.102" stroke-width="2"/>
<rect x="45" y="23" width="24" height="24" rx="12" fill="#6E04C1"/>
<path d="M60.111 40V39.038H57.771V30.926H56.068L53.663 33.175L54.3 33.864L56.588 31.732H56.679V39.038H54.144V40H60.111Z" fill="white"/>
<line x1="56.5" y1="47" x2="56.5" y2="71" stroke="#8000E4" stroke-dasharray="2 2"/>
<rect x="115" y="23" width="24" height="24" rx="12" fill="#6E04C1"/>
<path d="M129.929 39.038H125.158L127.602 36.841C128.759 35.801 129.591 34.813 129.591 33.409C129.591 31.862 128.577 30.77 126.809 30.77C125.054 30.77 124.248 31.836 123.897 32.902L124.872 33.279C125.119 32.421 125.639 31.745 126.757 31.745C127.875 31.745 128.434 32.434 128.434 33.435V33.591C128.434 34.462 127.784 35.372 126.939 36.152L123.975 38.882V40H129.929V39.038Z" fill="white"/>
<line x1="126.5" y1="47" x2="126.5" y2="71" stroke="#8000E4" stroke-dasharray="2 2"/>
<defs>
<clipPath id="clip0_4453_118609">
<rect x="32" y="62" width="160" height="48" rx="24" fill="white"/>
</clipPath>
<clipPath id="clip1_4453_118609">
<rect x="214" y="62" width="178" height="48" rx="24" fill="white"/>
</clipPath>
</defs>
</svg>
