<svg width="400" height="240" viewBox="0 0 400 240" fill="none" xmlns="http://www.w3.org/2000/svg">
<g clip-path="url(#clip0_2160_75484)">
<rect x="69" y="96" width="192" height="48" rx="24" fill="white"/>
<g clip-path="url(#clip1_2160_75484)">
<path d="M88.4496 121.488H90.6736L92.9136 126H94.9296L92.5136 121.296C93.9376 120.88 94.6896 119.776 94.6896 118.192C94.6896 116.128 93.4576 114.832 91.4576 114.832H86.6416V126H88.4496V121.488ZM88.4496 119.968V116.416H91.3296C92.2416 116.416 92.7856 116.912 92.7856 117.808V118.576C92.7856 119.472 92.2416 119.968 91.3296 119.968H88.4496ZM100.028 126.192C101.58 126.192 102.796 125.52 103.42 124.512L102.396 123.504C101.916 124.272 101.228 124.752 100.204 124.752C98.7956 124.752 98.0116 123.84 98.0116 122.56V122.288H103.724V121.632C103.724 119.328 102.476 117.488 100.028 117.488C97.6596 117.488 96.2036 119.184 96.2036 121.84C96.2036 124.496 97.6596 126.192 100.028 126.192ZM100.028 118.848C101.18 118.848 101.884 119.696 101.884 120.976V121.136H98.0116V121.024C98.0116 119.744 98.8276 118.848 100.028 118.848ZM108.87 126.192C110.47 126.192 111.606 125.44 112.15 124.08L110.822 123.376C110.47 124.208 109.878 124.752 108.87 124.752C107.59 124.752 106.934 123.872 106.934 122.592V121.104C106.934 119.824 107.59 118.944 108.87 118.944C109.814 118.944 110.406 119.44 110.646 120.208L112.086 119.536C111.59 118.304 110.534 117.488 108.87 117.488C106.47 117.488 105.094 119.184 105.094 121.84C105.094 124.496 106.47 126.192 108.87 126.192ZM114.691 116.192C115.411 116.192 115.715 115.808 115.715 115.28V115.008C115.715 114.48 115.411 114.096 114.691 114.096C113.971 114.096 113.651 114.48 113.651 115.008V115.28C113.651 115.808 113.971 116.192 114.691 116.192ZM113.811 126H115.555V117.68H113.811V126ZM121.309 126.192C122.861 126.192 124.077 125.52 124.701 124.512L123.677 123.504C123.197 124.272 122.509 124.752 121.485 124.752C120.077 124.752 119.293 123.84 119.293 122.56V122.288H125.005V121.632C125.005 119.328 123.757 117.488 121.309 117.488C118.941 117.488 117.485 119.184 117.485 121.84C117.485 124.496 118.941 126.192 121.309 126.192ZM121.309 118.848C122.461 118.848 123.165 119.696 123.165 120.976V121.136H119.293V121.024C119.293 119.744 120.109 118.848 121.309 118.848ZM130.651 126L133.515 117.68H131.851L130.555 121.472L129.707 124.384H129.611L128.763 121.472L127.499 117.68H125.771L128.603 126H130.651ZM138.121 126.192C139.673 126.192 140.889 125.52 141.513 124.512L140.489 123.504C140.009 124.272 139.321 124.752 138.297 124.752C136.889 124.752 136.105 123.84 136.105 122.56V122.288H141.817V121.632C141.817 119.328 140.569 117.488 138.121 117.488C135.753 117.488 134.297 119.184 134.297 121.84C134.297 124.496 135.753 126.192 138.121 126.192ZM138.121 118.848C139.273 118.848 139.977 119.696 139.977 120.976V121.136H136.105V121.024C136.105 119.744 136.921 118.848 138.121 118.848ZM152.569 126H154.313V117.68H152.569V123.248C152.569 124.224 151.689 124.688 150.793 124.688C149.721 124.688 149.193 124.016 149.193 122.752V117.68H147.449V122.976C147.449 125.024 148.457 126.192 150.169 126.192C151.545 126.192 152.201 125.44 152.505 124.624H152.569V126ZM156.811 129.2H158.555V124.624H158.635C158.987 125.6 159.867 126.192 160.971 126.192C163.067 126.192 164.283 124.576 164.283 121.84C164.283 119.104 163.067 117.488 160.971 117.488C159.867 117.488 158.987 118.064 158.635 119.056H158.555V117.68H156.811V129.2ZM160.443 124.688C159.387 124.688 158.555 124.112 158.555 123.264V120.416C158.555 119.568 159.387 118.992 160.443 118.992C161.643 118.992 162.443 119.84 162.443 121.12V122.56C162.443 123.84 161.643 124.688 160.443 124.688ZM171.511 126H173.255V114.16H171.511V119.056H171.431C171.079 118.064 170.199 117.488 169.095 117.488C166.999 117.488 165.783 119.104 165.783 121.84C165.783 124.576 166.999 126.192 169.095 126.192C170.199 126.192 171.079 125.6 171.431 124.624H171.511V126ZM169.623 124.688C168.423 124.688 167.623 123.84 167.623 122.56V121.12C167.623 119.84 168.423 118.992 169.623 118.992C170.679 118.992 171.511 119.568 171.511 120.416V123.264C171.511 124.112 170.679 124.688 169.623 124.688ZM182.82 126V124.576H181.94V120.4C181.94 118.544 180.74 117.488 178.596 117.488C176.98 117.488 176.004 118.176 175.46 119.104L176.5 120.048C176.916 119.392 177.508 118.912 178.484 118.912C179.652 118.912 180.196 119.504 180.196 120.512V121.216H178.692C176.372 121.216 175.14 122.064 175.14 123.712C175.14 125.216 176.116 126.192 177.828 126.192C179.044 126.192 179.94 125.648 180.26 124.608H180.34C180.452 125.424 180.932 126 181.844 126H182.82ZM178.324 124.864C177.46 124.864 176.916 124.48 176.916 123.744V123.456C176.916 122.736 177.508 122.336 178.724 122.336H180.196V123.536C180.196 124.352 179.396 124.864 178.324 124.864ZM188.306 126V124.576H186.69V119.104H188.434V117.68H186.69V115.408H185.122V116.864C185.122 117.44 184.93 117.68 184.354 117.68H183.65V119.104H184.946V124.192C184.946 125.328 185.586 126 186.786 126H188.306ZM193.528 126.192C195.08 126.192 196.296 125.52 196.92 124.512L195.896 123.504C195.416 124.272 194.728 124.752 193.704 124.752C192.296 124.752 191.512 123.84 191.512 122.56V122.288H197.224V121.632C197.224 119.328 195.976 117.488 193.528 117.488C191.16 117.488 189.704 119.184 189.704 121.84C189.704 124.496 191.16 126.192 193.528 126.192ZM193.528 118.848C194.68 118.848 195.384 119.696 195.384 120.976V121.136H191.512V121.024C191.512 119.744 192.328 118.848 193.528 118.848ZM201.794 126.192C203.794 126.192 205.09 125.12 205.09 123.52C205.09 122.176 204.274 121.376 202.45 121.104L201.682 121.008C200.802 120.864 200.402 120.576 200.402 119.936C200.402 119.312 200.85 118.896 201.81 118.896C202.706 118.896 203.41 119.328 203.842 119.84L204.914 118.816C204.162 117.984 203.314 117.488 201.81 117.488C199.986 117.488 198.722 118.432 198.722 120.048C198.722 121.584 199.762 122.32 201.458 122.528L202.226 122.624C203.09 122.736 203.41 123.136 203.41 123.664C203.41 124.368 202.898 124.784 201.89 124.784C200.898 124.784 200.146 124.336 199.538 123.6L198.418 124.624C199.202 125.6 200.226 126.192 201.794 126.192ZM216.074 126H217.818V114.16H216.074V119.056H215.994C215.642 118.064 214.762 117.488 213.658 117.488C211.562 117.488 210.346 119.104 210.346 121.84C210.346 124.576 211.562 126.192 213.658 126.192C214.762 126.192 215.642 125.6 215.994 124.624H216.074V126ZM214.186 124.688C212.986 124.688 212.186 123.84 212.186 122.56V121.12C212.186 119.84 212.986 118.992 214.186 118.992C215.242 118.992 216.074 119.568 216.074 120.416V123.264C216.074 124.112 215.242 124.688 214.186 124.688ZM227.383 126V124.576H226.503V120.4C226.503 118.544 225.303 117.488 223.159 117.488C221.543 117.488 220.567 118.176 220.023 119.104L221.062 120.048C221.479 119.392 222.071 118.912 223.047 118.912C224.215 118.912 224.759 119.504 224.759 120.512V121.216H223.255C220.935 121.216 219.703 122.064 219.703 123.712C219.703 125.216 220.679 126.192 222.391 126.192C223.607 126.192 224.503 125.648 224.823 124.608H224.903C225.015 125.424 225.495 126 226.407 126H227.383ZM222.887 124.864C222.023 124.864 221.479 124.48 221.479 123.744V123.456C221.479 122.736 222.071 122.336 223.286 122.336H224.759V123.536C224.759 124.352 223.959 124.864 222.887 124.864ZM229.972 116.192C230.692 116.192 230.996 115.808 230.996 115.28V115.008C230.996 114.48 230.692 114.096 229.972 114.096C229.252 114.096 228.932 114.48 228.932 115.008V115.28C228.932 115.808 229.252 116.192 229.972 116.192ZM229.092 126H230.836V117.68H229.092V126ZM236.222 126V124.576H235.07V114.16H233.326V124.272C233.326 125.344 233.918 126 235.102 126H236.222ZM241.204 122.576L240.676 124.384H240.596L240.116 122.576L238.452 117.68H236.708L239.732 126.368L239.252 127.776H237.844V129.2H238.852C240.148 129.2 240.644 128.768 241.044 127.648L244.548 117.68H242.868L241.204 122.576Z" fill="#292929"/>
</g>
<rect x="70" y="97" width="190" height="46" rx="23" stroke="black" stroke-opacity="0.102" stroke-width="2"/>
<rect x="270" y="97" width="215" height="46" rx="23" fill="white"/>
<g clip-path="url(#clip2_2160_75484)">
<path d="M288.418 121.488H290.642L292.882 126H294.898L292.482 121.296C293.906 120.88 294.658 119.776 294.658 118.192C294.658 116.128 293.426 114.832 291.426 114.832H286.61V126H288.418V121.488ZM288.418 119.968V116.416H291.298C292.21 116.416 292.754 116.912 292.754 117.808V118.576C292.754 119.472 292.21 119.968 291.298 119.968H288.418ZM299.996 126.192C301.548 126.192 302.764 125.52 303.388 124.512L302.364 123.504C301.884 124.272 301.196 124.752 300.172 124.752C298.764 124.752 297.98 123.84 297.98 122.56V122.288H303.692V121.632C303.692 119.328 302.444 117.488 299.996 117.488C297.628 117.488 296.172 119.184 296.172 121.84C296.172 124.496 297.628 126.192 299.996 126.192ZM299.996 118.848C301.148 118.848 301.852 119.696 301.852 120.976V121.136H297.98V121.024C297.98 119.744 298.796 118.848 299.996 118.848ZM308.839 126.192C310.439 126.192 311.575 125.44 312.119 124.08L310.791 123.376C310.439 124.208 309.847 124.752 308.839 124.752C307.559 124.752 306.903 123.872 306.903 122.592V121.104C306.903 119.824 307.559 118.944 308.839 118.944C309.783 118.944 310.375 119.44 310.615 120.208L312.055 119.536C311.559 118.304 310.503 117.488 308.839 117.488C306.439 117.488 305.063 119.184 305.063 121.84C305.063 124.496 306.439 126.192 308.839 126.192ZM314.659 116.192C315.379 116.192 315.683 115.808 315.683 115.28V115.008C315.683 114.48 315.379 114.096 314.659 114.096C313.939 114.096 313.619 114.48 313.619 115.008V115.28C313.619 115.808 313.939 116.192 314.659 116.192ZM313.779 126H315.523V117.68H313.779V126ZM321.278 126.192C322.83 126.192 324.046 125.52 324.67 124.512L323.646 123.504C323.166 124.272 322.478 124.752 321.454 124.752C320.046 124.752 319.262 123.84 319.262 122.56V122.288H324.974V121.632C324.974 119.328 323.726 117.488 321.278 117.488C318.91 117.488 317.454 119.184 317.454 121.84C317.454 124.496 318.91 126.192 321.278 126.192ZM321.278 118.848C322.43 118.848 323.134 119.696 323.134 120.976V121.136H319.262V121.024C319.262 119.744 320.078 118.848 321.278 118.848ZM330.62 126L333.484 117.68H331.82L330.524 121.472L329.676 124.384H329.58L328.732 121.472L327.468 117.68H325.74L328.572 126H330.62ZM338.09 126.192C339.642 126.192 340.858 125.52 341.482 124.512L340.458 123.504C339.978 124.272 339.29 124.752 338.266 124.752C336.858 124.752 336.074 123.84 336.074 122.56V122.288H341.786V121.632C341.786 119.328 340.538 117.488 338.09 117.488C335.722 117.488 334.266 119.184 334.266 121.84C334.266 124.496 335.722 126.192 338.09 126.192ZM338.09 118.848C339.242 118.848 339.946 119.696 339.946 120.976V121.136H336.074V121.024C336.074 119.744 336.89 118.848 338.09 118.848ZM352.538 126H354.282V117.68H352.538V123.248C352.538 124.224 351.658 124.688 350.762 124.688C349.69 124.688 349.162 124.016 349.162 122.752V117.68H347.418V122.976C347.418 125.024 348.426 126.192 350.138 126.192C351.514 126.192 352.17 125.44 352.474 124.624H352.538V126ZM356.779 129.2H358.523V124.624H358.603C358.955 125.6 359.835 126.192 360.939 126.192C363.035 126.192 364.251 124.576 364.251 121.84C364.251 119.104 363.035 117.488 360.939 117.488C359.835 117.488 358.955 118.064 358.603 119.056H358.523V117.68H356.779V129.2ZM360.411 124.688C359.355 124.688 358.523 124.112 358.523 123.264V120.416C358.523 119.568 359.355 118.992 360.411 118.992C361.611 118.992 362.411 119.84 362.411 121.12V122.56C362.411 123.84 361.611 124.688 360.411 124.688ZM371.48 126H373.224V114.16H371.48V119.056H371.4C371.048 118.064 370.168 117.488 369.064 117.488C366.968 117.488 365.752 119.104 365.752 121.84C365.752 124.576 366.968 126.192 369.064 126.192C370.168 126.192 371.048 125.6 371.4 124.624H371.48V126ZM369.592 124.688C368.392 124.688 367.592 123.84 367.592 122.56V121.12C367.592 119.84 368.392 118.992 369.592 118.992C370.648 118.992 371.48 119.568 371.48 120.416V123.264C371.48 124.112 370.648 124.688 369.592 124.688ZM382.789 126V124.576H381.909V120.4C381.909 118.544 380.709 117.488 378.565 117.488C376.949 117.488 375.973 118.176 375.429 119.104L376.469 120.048C376.885 119.392 377.477 118.912 378.453 118.912C379.621 118.912 380.165 119.504 380.165 120.512V121.216H378.661C376.341 121.216 375.109 122.064 375.109 123.712C375.109 125.216 376.085 126.192 377.797 126.192C379.013 126.192 379.909 125.648 380.229 124.608H380.309C380.421 125.424 380.901 126 381.813 126H382.789ZM378.293 124.864C377.429 124.864 376.885 124.48 376.885 123.744V123.456C376.885 122.736 377.477 122.336 378.693 122.336H380.165V123.536C380.165 124.352 379.365 124.864 378.293 124.864ZM388.275 126V124.576H386.659V119.104H388.403V117.68H386.659V115.408H385.091V116.864C385.091 117.44 384.899 117.68 384.323 117.68H383.619V119.104H384.915V124.192C384.915 125.328 385.555 126 386.755 126H388.275ZM393.496 126.192C395.048 126.192 396.264 125.52 396.888 124.512L395.864 123.504C395.384 124.272 394.696 124.752 393.672 124.752C392.264 124.752 391.48 123.84 391.48 122.56V122.288H397.192V121.632C397.192 119.328 395.944 117.488 393.496 117.488C391.128 117.488 389.672 119.184 389.672 121.84C389.672 124.496 391.128 126.192 393.496 126.192ZM393.496 118.848C394.648 118.848 395.352 119.696 395.352 120.976V121.136H391.48V121.024C391.48 119.744 392.296 118.848 393.496 118.848ZM401.763 126.192C403.763 126.192 405.059 125.12 405.059 123.52C405.059 122.176 404.243 121.376 402.419 121.104L401.651 121.008C400.771 120.864 400.371 120.576 400.371 119.936C400.371 119.312 400.819 118.896 401.779 118.896C402.675 118.896 403.379 119.328 403.811 119.84L404.883 118.816C404.131 117.984 403.283 117.488 401.779 117.488C399.955 117.488 398.691 118.432 398.691 120.048C398.691 121.584 399.731 122.32 401.427 122.528L402.195 122.624C403.059 122.736 403.379 123.136 403.379 123.664C403.379 124.368 402.867 124.784 401.859 124.784C400.867 124.784 400.115 124.336 399.507 123.6L398.387 124.624C399.171 125.6 400.195 126.192 401.763 126.192ZM412.555 126V120.416C412.555 119.456 413.403 118.992 414.266 118.992C415.291 118.992 415.787 119.632 415.787 120.928V126H417.531V120.416C417.531 119.456 418.347 118.992 419.227 118.992C420.283 118.992 420.763 119.648 420.763 120.928V126H422.507V120.72C422.507 118.672 421.531 117.488 419.883 117.488C418.539 117.488 417.675 118.256 417.371 119.184H417.323C416.923 118.032 415.979 117.488 414.859 117.488C413.595 117.488 412.971 118.192 412.635 119.056H412.555V117.68H410.811V126H412.555ZM428.184 126.192C430.504 126.192 432.008 124.496 432.008 121.84C432.008 119.184 430.504 117.488 428.184 117.488C425.864 117.488 424.36 119.184 424.36 121.84C424.36 124.496 425.864 126.192 428.184 126.192ZM428.184 124.752C427 124.752 426.2 124.016 426.2 122.544V121.136C426.2 119.664 427 118.928 428.184 118.928C429.368 118.928 430.168 119.664 430.168 121.136V122.544C430.168 124.016 429.368 124.752 428.184 124.752ZM435.695 126V120.432C435.695 119.456 436.591 118.992 437.503 118.992C438.575 118.992 439.071 119.648 439.071 120.944V126H440.815V120.72C440.815 118.672 439.807 117.488 438.111 117.488C436.831 117.488 436.127 118.16 435.775 119.056H435.695V117.68H433.951V126H435.695ZM447.056 126V124.576H445.44V119.104H447.184V117.68H445.44V115.408H443.872V116.864C443.872 117.44 443.68 117.68 443.104 117.68H442.4V119.104H443.696V124.192C443.696 125.328 444.336 126 445.536 126H447.056ZM449.076 126H450.82V120.416C450.82 119.456 451.716 118.992 452.628 118.992C453.7 118.992 454.196 119.648 454.196 120.928V126H455.94V120.72C455.94 118.672 454.932 117.488 453.236 117.488C451.956 117.488 451.252 118.16 450.9 119.056H450.82V114.16H449.076V126ZM461.253 126V124.576H460.101V114.16H458.357V124.272C458.357 125.344 458.949 126 460.133 126H461.253ZM466.235 122.576L465.707 124.384H465.627L465.147 122.576L463.483 117.68H461.739L464.763 126.368L464.283 127.776H462.875V129.2H463.883C465.179 129.2 465.675 128.768 466.075 127.648L469.579 117.68H467.899L466.235 122.576Z" fill="#292929"/>
</g>
<rect x="270" y="97" width="215" height="46" rx="23" stroke="#292929" stroke-width="2"/>
</g>
<defs>
<clipPath id="clip0_2160_75484">
<rect width="400" height="240" fill="white"/>
</clipPath>
<clipPath id="clip1_2160_75484">
<rect x="69" y="96" width="192" height="48" rx="24" fill="white"/>
</clipPath>
<clipPath id="clip2_2160_75484">
<rect x="269" y="96" width="217" height="48" rx="24" fill="white"/>
</clipPath>
</defs>
</svg>
