<svg width="733" height="514" viewBox="0 0 733 514" fill="none" xmlns="http://www.w3.org/2000/svg">
<rect x="11" y="61" width="708" height="441" rx="8" fill="black" fill-opacity="0.55"/>
<rect x="96" y="15" width="24" height="24" rx="12" fill="#6E04C1"/>
<path d="M111.111 32V31.038H108.771V22.926H107.068L104.663 25.175L105.3 25.864L107.588 23.732H107.679V31.038H105.144V32H111.111Z" fill="white"/>
<line x1="107.5" y1="39" x2="107.5" y2="63" stroke="#8000E4" stroke-dasharray="2 2"/>
<rect x="60" y="134" width="615" height="295" rx="8" fill="white"/>
<path d="M97.2 168.024V166.248H84.528V168.024H89.856V183H91.872V168.024H97.2ZM100.734 167.712C101.55 167.712 101.91 167.28 101.91 166.632V166.32C101.91 165.672 101.55 165.24 100.734 165.24C99.9184 165.24 99.5584 165.672 99.5584 166.32V166.632C99.5584 167.28 99.9184 167.712 100.734 167.712ZM99.7744 183H101.694V170.616H99.7744V183ZM110.91 183V181.32H108.39V172.296H111.102V170.616H108.39V167.184H106.662V169.488C106.662 170.328 106.398 170.616 105.582 170.616H104.43V172.296H106.47V180.96C106.47 182.16 107.19 183 108.51 183H110.91ZM117.932 183V181.32H116.108V165.24H114.188V181.008C114.188 182.16 114.908 183 116.228 183H117.932ZM125.384 183.288C127.712 183.288 129.488 182.136 130.28 180.456L128.912 179.472C128.264 180.84 127.064 181.608 125.504 181.608C123.2 181.608 121.832 180 121.832 177.864V177.288H130.736V176.376C130.736 172.872 128.696 170.328 125.384 170.328C122.024 170.328 119.816 172.872 119.816 176.808C119.816 180.744 122.024 183.288 125.384 183.288ZM125.384 171.936C127.352 171.936 128.672 173.4 128.672 175.584V175.848H121.832V175.68C121.832 173.52 123.296 171.936 125.384 171.936Z" fill="#292929"/>
<path d="M643 167.4L641.6 166L635 172.6L628.4 166L627 167.4L633.6 174L627 180.6L628.4 182L635 175.4L641.6 182L643 180.6L636.4 174L643 167.4Z" fill="#292929"/>
<rect x="84.5" y="206.5" width="566" height="134" rx="3.5" fill="#E6DBF3"/>
<path d="M368 256.5H364.085C365.055 255.009 366.481 253.872 368.15 253.257C369.819 252.643 371.642 252.584 373.347 253.09C375.052 253.596 376.548 254.64 377.612 256.065C378.675 257.49 379.25 259.221 379.25 261H380.75C380.752 258.994 380.135 257.036 378.984 255.394C377.833 253.751 376.203 252.504 374.317 251.821C372.43 251.139 370.38 251.055 368.444 251.581C366.508 252.107 364.782 253.217 363.5 254.76V252H362V258H368V256.5ZM374 265.5H377.915C376.945 266.991 375.519 268.128 373.85 268.742C372.181 269.357 370.358 269.415 368.653 268.909C366.948 268.403 365.452 267.36 364.388 265.935C363.325 264.509 362.75 262.778 362.75 261H361.25C361.248 263.006 361.865 264.963 363.016 266.606C364.167 268.249 365.797 269.496 367.683 270.178C369.57 270.861 371.62 270.945 373.556 270.419C375.492 269.893 377.218 268.783 378.5 267.24V270H380V264H374V265.5Z" fill="#7935D2"/>
<path d="M346.447 290H348.077L349.587 293H350.537L348.937 289.92C349.847 289.71 350.337 289.02 350.337 288C350.337 286.73 349.607 286.02 348.387 286.02H345.607V293H346.447V290ZM346.447 289.28V286.76H348.387C349.047 286.76 349.437 287.12 349.437 287.76V288.28C349.437 288.92 349.047 289.28 348.387 289.28H346.447ZM353.717 293.12C354.687 293.12 355.427 292.64 355.757 291.94L355.187 291.53C354.917 292.1 354.417 292.42 353.767 292.42C352.807 292.42 352.237 291.75 352.237 290.86V290.62H355.947V290.24C355.947 288.78 355.097 287.72 353.717 287.72C352.317 287.72 351.397 288.78 351.397 290.42C351.397 292.06 352.317 293.12 353.717 293.12ZM353.717 288.39C354.537 288.39 355.087 289 355.087 289.91V290.02H352.237V289.95C352.237 289.05 352.847 288.39 353.717 288.39ZM357.265 295H358.065V292.16H358.105C358.415 292.8 358.905 293.12 359.615 293.12C360.905 293.12 361.715 292.07 361.715 290.42C361.715 288.77 360.905 287.72 359.615 287.72C358.905 287.72 358.375 288.03 358.105 288.68H358.065V287.84H357.265V295ZM359.395 292.4C358.665 292.4 358.065 292.02 358.065 291.35V289.43C358.065 288.86 358.665 288.44 359.395 288.44C360.295 288.44 360.855 289.06 360.855 289.98V290.86C360.855 291.78 360.295 292.4 359.395 292.4ZM364.626 293V292.3H363.866V285.6H363.066V292.17C363.066 292.65 363.366 293 363.916 293H364.626ZM369.99 293V292.3H369.4V289.46C369.4 288.37 368.66 287.72 367.42 287.72C366.49 287.72 365.87 288.18 365.59 288.73L366.07 289.18C366.35 288.71 366.76 288.41 367.38 288.41C368.2 288.41 368.6 288.81 368.6 289.54V290.05H367.58C366.08 290.05 365.38 290.59 365.38 291.56C365.38 292.52 366.02 293.12 367.11 293.12C367.83 293.12 368.38 292.79 368.6 292.16H368.65C368.71 292.64 368.95 293 369.54 293H369.99ZM367.24 292.44C366.62 292.44 366.22 292.15 366.22 291.64V291.43C366.22 290.93 366.63 290.65 367.54 290.65H368.6V291.5C368.6 292.03 368.03 292.44 367.24 292.44ZM373.052 293.12C374.032 293.12 374.702 292.64 375.032 291.9L374.452 291.51C374.172 292.1 373.702 292.41 373.052 292.41C372.102 292.41 371.612 291.76 371.612 290.86V289.98C371.612 289.08 372.102 288.43 373.052 288.43C373.682 288.43 374.122 288.74 374.312 289.27L374.982 288.93C374.682 288.22 374.072 287.72 373.052 287.72C371.602 287.72 370.752 288.77 370.752 290.42C370.752 292.07 371.602 293.12 373.052 293.12ZM378.043 293.12C379.013 293.12 379.753 292.64 380.083 291.94L379.513 291.53C379.243 292.1 378.743 292.42 378.093 292.42C377.133 292.42 376.563 291.75 376.563 290.86V290.62H380.273V290.24C380.273 288.78 379.423 287.72 378.043 287.72C376.643 287.72 375.723 288.78 375.723 290.42C375.723 292.06 376.643 293.12 378.043 293.12ZM378.043 288.39C378.863 288.39 379.413 289 379.413 289.91V290.02H376.563V289.95C376.563 289.05 377.173 288.39 378.043 288.39ZM384.754 293V289.42C384.754 288.76 385.354 288.44 385.984 288.44C386.744 288.44 387.094 288.91 387.094 289.83V293H387.894V289.42C387.894 288.76 388.474 288.44 389.104 288.44C389.884 288.44 390.234 288.92 390.234 289.83V293H391.034V289.69C391.034 288.44 390.404 287.72 389.354 287.72C388.474 287.72 387.974 288.21 387.784 288.77H387.764C387.484 288.03 386.864 287.72 386.184 287.72C385.384 287.72 385.024 288.15 384.794 288.68H384.754V287.84H383.954V293H384.754ZM394.625 293.12C395.595 293.12 396.335 292.64 396.665 291.94L396.095 291.53C395.825 292.1 395.325 292.42 394.675 292.42C393.715 292.42 393.145 291.75 393.145 290.86V290.62H396.855V290.24C396.855 288.78 396.005 287.72 394.625 287.72C393.225 287.72 392.305 288.78 392.305 290.42C392.305 292.06 393.225 293.12 394.625 293.12ZM394.625 288.39C395.445 288.39 395.995 289 395.995 289.91V290.02H393.145V289.95C393.145 289.05 393.755 288.39 394.625 288.39Z" fill="#7935D2"/>
<rect x="84.5" y="206.5" width="566" height="134" rx="3.5" stroke="#7935D2"/>
<path d="M521.709 387.192C523.645 387.192 524.989 386.216 525.741 384.6L524.285 383.72C523.885 384.808 523.037 385.576 521.709 385.576C519.997 385.576 518.941 384.328 518.941 382.264V380.568C518.941 378.504 519.997 377.256 521.709 377.256C523.005 377.256 523.789 377.944 524.173 379L525.693 378.168C524.941 376.504 523.645 375.64 521.709 375.64C518.797 375.64 517.021 377.672 517.021 381.416C517.021 385.16 518.797 387.192 521.709 387.192ZM534.601 387V385.576H533.721V381.4C533.721 379.544 532.521 378.488 530.377 378.488C528.761 378.488 527.785 379.176 527.241 380.104L528.281 381.048C528.697 380.392 529.289 379.912 530.265 379.912C531.433 379.912 531.977 380.504 531.977 381.512V382.216H530.473C528.153 382.216 526.921 383.064 526.921 384.712C526.921 386.216 527.897 387.192 529.609 387.192C530.825 387.192 531.721 386.648 532.041 385.608H532.121C532.233 386.424 532.713 387 533.625 387H534.601ZM530.105 385.864C529.241 385.864 528.697 385.48 528.697 384.744V384.456C528.697 383.736 529.289 383.336 530.505 383.336H531.977V384.536C531.977 385.352 531.177 385.864 530.105 385.864ZM538.055 387V381.432C538.055 380.456 538.951 379.992 539.863 379.992C540.935 379.992 541.431 380.648 541.431 381.944V387H543.175V381.72C543.175 379.672 542.167 378.488 540.471 378.488C539.191 378.488 538.487 379.16 538.135 380.056H538.055V378.68H536.311V387H538.055ZM548.808 387.192C550.408 387.192 551.544 386.44 552.088 385.08L550.76 384.376C550.408 385.208 549.816 385.752 548.808 385.752C547.528 385.752 546.872 384.872 546.872 383.592V382.104C546.872 380.824 547.528 379.944 548.808 379.944C549.752 379.944 550.344 380.44 550.584 381.208L552.024 380.536C551.528 379.304 550.472 378.488 548.808 378.488C546.408 378.488 545.032 380.184 545.032 382.84C545.032 385.496 546.408 387.192 548.808 387.192ZM556.918 387.192C558.47 387.192 559.686 386.52 560.31 385.512L559.286 384.504C558.806 385.272 558.118 385.752 557.094 385.752C555.686 385.752 554.902 384.84 554.902 383.56V383.288H560.614V382.632C560.614 380.328 559.366 378.488 556.918 378.488C554.55 378.488 553.094 380.184 553.094 382.84C553.094 385.496 554.55 387.192 556.918 387.192ZM556.918 379.848C558.07 379.848 558.774 380.696 558.774 381.976V382.136H554.902V382.024C554.902 380.744 555.718 379.848 556.918 379.848ZM565.441 387V385.576H564.289V375.16H562.545V385.272C562.545 386.344 563.137 387 564.321 387H565.441Z" fill="#292929"/>
<rect x="500.5" y="357.5" width="81" height="47" rx="3.5" stroke="black" stroke-opacity="0.102"/>
<rect x="598" y="357" width="53" height="48" rx="4" fill="#7935D2"/>
<path d="M620.126 387.192C623.038 387.192 624.942 385.176 624.942 381.416C624.942 377.656 623.038 375.64 620.126 375.64C617.214 375.64 615.31 377.656 615.31 381.416C615.31 385.176 617.214 387.192 620.126 387.192ZM620.126 385.576C618.398 385.576 617.246 384.328 617.246 382.296V380.536C617.246 378.504 618.398 377.256 620.126 377.256C621.854 377.256 623.006 378.504 623.006 380.536V382.296C623.006 384.328 621.854 385.576 620.126 385.576ZM627.068 387H628.812V384.28L629.964 383.032L632.348 387H634.428L631.164 381.896L634.076 378.68H632.044L630.044 380.936L628.892 382.424H628.812V375.16H627.068V387Z" fill="white"/>
<rect x="96" y="105" width="24" height="24" rx="12" fill="#6E04C1"/>
<path d="M110.929 121.038H106.158L108.602 118.841C109.759 117.801 110.591 116.813 110.591 115.409C110.591 113.862 109.577 112.77 107.809 112.77C106.054 112.77 105.248 113.836 104.897 114.902L105.872 115.279C106.119 114.421 106.639 113.745 107.757 113.745C108.875 113.745 109.434 114.434 109.434 115.435V115.591C109.434 116.462 108.784 117.372 107.939 118.152L104.975 120.882V122H110.929V121.038Z" fill="white"/>
<line x1="107.5" y1="129" x2="107.5" y2="153" stroke="#8000E4" stroke-dasharray="2 2"/>
<rect x="623" y="105" width="24" height="24" rx="12" fill="#6E04C1"/>
<path d="M633.405 116.774V117.723H634.471C635.745 117.723 636.421 118.334 636.421 119.4V119.504C636.421 120.57 635.745 121.181 634.471 121.181C633.366 121.181 632.833 120.7 632.365 119.985L631.546 120.609C632.105 121.389 632.911 122.156 634.484 122.156C636.33 122.156 637.565 121.077 637.565 119.517C637.565 118.152 636.629 117.424 635.654 117.229V117.177C636.616 116.93 637.396 116.228 637.396 115.058C637.396 113.589 636.174 112.77 634.64 112.77C633.184 112.77 632.391 113.524 631.936 114.252L632.742 114.876C633.119 114.187 633.678 113.745 634.614 113.745C635.576 113.745 636.239 114.226 636.239 115.175V115.266C636.239 116.137 635.615 116.774 634.393 116.774H633.405Z" fill="white"/>
<line x1="634.5" y1="129" x2="634.5" y2="153" stroke="#8000E4" stroke-dasharray="2 2"/>
<rect x="685" y="267" width="24" height="24" rx="12" fill="#6E04C1"/>
<path d="M698.915 284V282.219H700.228V281.309H698.915V274.926H697.29L693.494 281.257V282.219H697.875V284H698.915ZM697.81 275.771H697.875V281.309H694.521L697.81 275.771Z" fill="white"/>
<line x1="685" y1="279.5" x2="650" y2="279.5" stroke="#8000E4" stroke-dasharray="2 2"/>
<rect x="614" y="440" width="24" height="24" rx="12" fill="#6E04C1"/>
<path d="M625.913 457.156C627.733 457.156 628.929 455.934 628.929 454.153C628.929 452.437 627.811 451.358 626.251 451.358C625.146 451.358 624.496 451.917 624.067 452.658L624.002 452.632C624.496 450.526 625.575 449.343 627.512 447.926H626.108C624.652 448.875 622.871 450.981 622.871 453.672C622.871 455.83 624.028 457.156 625.913 457.156ZM625.9 456.207C624.704 456.207 624.002 455.518 624.002 454.296V454.192C624.002 452.97 624.704 452.281 625.9 452.281C627.096 452.281 627.798 452.97 627.798 454.192V454.296C627.798 455.518 627.096 456.207 625.9 456.207Z" fill="white"/>
<line x1="625.5" y1="440" x2="625.5" y2="405" stroke="#8000E4" stroke-dasharray="2 2"/>
<rect x="528" y="440" width="24" height="24" rx="12" fill="#6E04C1"/>
<path d="M542.474 447.926H537.612L537.287 452.918L538.21 453.048C538.587 452.632 539.003 452.281 539.835 452.281C541.07 452.281 541.733 452.97 541.733 454.166V454.296C541.733 455.492 541.07 456.181 539.835 456.181C538.743 456.181 538.288 455.7 537.82 454.985L537.001 455.609C537.547 456.389 538.327 457.156 539.835 457.156C541.746 457.156 542.89 455.921 542.89 454.153C542.89 452.398 541.746 451.345 540.186 451.345C539.237 451.345 538.756 451.735 538.327 452.346H538.236L538.496 448.888H542.474V447.926Z" fill="white"/>
<line x1="539.5" y1="440" x2="539.5" y2="405" stroke="#8000E4" stroke-dasharray="2 2"/>
</svg>
