<svg width="362" height="205" viewBox="0 0 362 205" fill="none" xmlns="http://www.w3.org/2000/svg">
<path d="M44.996 80V76.276H47.544C49.35 76.276 50.442 75.072 50.442 73.252C50.442 71.446 49.35 70.228 47.544 70.228H43.148V80H44.996ZM44.996 71.838H47.376C48.09 71.838 48.524 72.216 48.524 72.93V73.574C48.524 74.288 48.09 74.68 47.376 74.68H44.996V71.838ZM52.0048 80H53.7968V75.17C53.7968 74.386 54.5108 73.994 55.2528 73.994C56.1068 73.994 56.4568 74.526 56.4568 75.562V80H58.2488V75.38C58.2488 73.56 57.4088 72.524 55.9108 72.524C54.7768 72.524 54.1608 73.126 53.8668 73.91H53.7968V69.64H52.0048V80ZM63.1332 80.168C65.2332 80.168 66.5352 78.684 66.5352 76.332C66.5352 73.994 65.2332 72.524 63.1332 72.524C61.0472 72.524 59.7452 73.994 59.7452 76.332C59.7452 78.684 61.0472 80.168 63.1332 80.168ZM63.1332 78.726C62.2092 78.726 61.6212 78.124 61.6212 77.018V75.66C61.6212 74.568 62.2092 73.966 63.1332 73.966C64.0712 73.966 64.6592 74.568 64.6592 75.66V77.018C64.6592 78.124 64.0712 78.726 63.1332 78.726ZM69.9159 80V75.17C69.9159 74.386 70.6299 73.994 71.3719 73.994C72.2259 73.994 72.5759 74.526 72.5759 75.562V80H74.3679V75.38C74.3679 73.56 73.5279 72.524 72.0299 72.524C70.8959 72.524 70.2799 73.126 69.9859 73.91H69.9159V72.692H68.1239V80H69.9159ZM79.3084 80.168C80.6664 80.168 81.7304 79.65 82.3324 78.824L81.3664 77.746C80.9184 78.32 80.3864 78.74 79.5044 78.74C78.3284 78.74 77.7264 78.026 77.7264 76.976V76.794H82.5844V76.206C82.5844 74.204 81.5344 72.524 79.2524 72.524C77.1104 72.524 75.8644 74.022 75.8644 76.332C75.8644 78.67 77.1524 80.168 79.3084 80.168ZM79.2804 73.868C80.2044 73.868 80.7224 74.554 80.7224 75.562V75.688H77.7264V75.576C77.7264 74.568 78.3424 73.868 79.2804 73.868ZM89.2616 80V75.17C89.2616 74.386 89.9756 73.994 90.7176 73.994C91.5716 73.994 91.9216 74.526 91.9216 75.562V80H93.7136V75.38C93.7136 73.56 92.8736 72.524 91.3756 72.524C90.2416 72.524 89.6256 73.126 89.3316 73.91H89.2616V72.692H87.4696V80H89.2616ZM100.068 80H101.86V72.692H100.068V77.522C100.068 78.306 99.3541 78.684 98.6401 78.684C97.7861 78.684 97.4081 78.138 97.4081 77.13V72.692H95.6161V77.312C95.6161 79.132 96.4561 80.168 97.9541 80.168C99.1581 80.168 99.7461 79.51 99.9981 78.782H100.068V80ZM105.723 80V75.17C105.723 74.386 106.395 73.994 107.081 73.994C107.879 73.994 108.257 74.512 108.257 75.562V80H110.049V75.17C110.049 74.386 110.707 73.994 111.407 73.994C112.205 73.994 112.583 74.512 112.583 75.562V80H114.375V75.38C114.375 73.56 113.563 72.524 112.135 72.524C110.973 72.524 110.161 73.182 109.895 73.994H109.867C109.517 73.014 108.747 72.524 107.753 72.524C106.661 72.524 106.073 73.14 105.793 73.91H105.723V72.692H103.931V80H105.723ZM116.358 80H118.15V78.782H118.206C118.486 79.608 119.256 80.168 120.222 80.168C122.07 80.168 123.092 78.782 123.092 76.332C123.092 73.896 122.07 72.524 120.222 72.524C119.256 72.524 118.472 73.056 118.206 73.896H118.15V69.64H116.358V80ZM119.648 78.684C118.794 78.684 118.15 78.25 118.15 77.494V75.17C118.15 74.456 118.794 73.994 119.648 73.994C120.572 73.994 121.216 74.68 121.216 75.716V76.976C121.216 78.012 120.572 78.684 119.648 78.684ZM127.707 80.168C129.065 80.168 130.129 79.65 130.731 78.824L129.765 77.746C129.317 78.32 128.785 78.74 127.903 78.74C126.727 78.74 126.125 78.026 126.125 76.976V76.794H130.983V76.206C130.983 74.204 129.933 72.524 127.651 72.524C125.509 72.524 124.263 74.022 124.263 76.332C124.263 78.67 125.551 80.168 127.707 80.168ZM127.679 73.868C128.603 73.868 129.121 74.554 129.121 75.562V75.688H126.125V75.576C126.125 74.568 126.741 73.868 127.679 73.868ZM134.351 80V75.52C134.351 74.722 134.981 74.386 136.185 74.386H136.745V72.692H136.353C135.191 72.692 134.603 73.434 134.421 74.204H134.351V72.692H132.559V80H134.351Z" fill="#292929"/>
<rect x="42" y="93" width="283" height="48" rx="4" fill="white"/>
<g clip-path="url(#clip0_4456_112673)">
<g clip-path="url(#clip1_4456_112673)">
<rect x="58" y="107" width="28" height="20" rx="2" fill="white"/>
<path fill-rule="evenodd" clip-rule="evenodd" d="M58 107H66.9091V127H58V107Z" fill="#1A47B8"/>
<path fill-rule="evenodd" clip-rule="evenodd" d="M77.0909 107H86V127H77.0909V107Z" fill="#F93939"/>
</g>
</g>
<path d="M95.408 122.008V118.664H98.528V117.576H95.408V114.232H94.192V117.576H91.072V118.664H94.192V122.008H95.408ZM102.554 116.568V117.736H103.866C105.434 117.736 106.266 118.488 106.266 119.8V119.928C106.266 121.24 105.434 121.992 103.866 121.992C102.506 121.992 101.85 121.4 101.274 120.52L100.266 121.288C100.954 122.248 101.946 123.192 103.882 123.192C106.154 123.192 107.674 121.864 107.674 119.944C107.674 118.264 106.522 117.368 105.322 117.128V117.064C106.506 116.76 107.466 115.896 107.466 114.456C107.466 112.648 105.962 111.64 104.074 111.64C102.282 111.64 101.306 112.568 100.746 113.464L101.738 114.232C102.202 113.384 102.89 112.84 104.042 112.84C105.226 112.84 106.042 113.432 106.042 114.6V114.712C106.042 115.784 105.274 116.568 103.77 116.568H102.554ZM112.148 116.568V117.736H113.46C115.028 117.736 115.86 118.488 115.86 119.8V119.928C115.86 121.24 115.028 121.992 113.46 121.992C112.1 121.992 111.444 121.4 110.868 120.52L109.86 121.288C110.548 122.248 111.539 123.192 113.476 123.192C115.748 123.192 117.267 121.864 117.267 119.944C117.267 118.264 116.116 117.368 114.916 117.128V117.064C116.1 116.76 117.06 115.896 117.06 114.456C117.06 112.648 115.556 111.64 113.668 111.64C111.876 111.64 110.9 112.568 110.34 113.464L111.332 114.232C111.796 113.384 112.484 112.84 113.636 112.84C114.82 112.84 115.636 113.432 115.636 114.6V114.712C115.636 115.784 114.868 116.568 113.364 116.568H112.148Z" fill="#292929"/>
<path d="M127.384 123H128.92L131.848 118.312H131.88L134.808 123H136.424L132.744 117.272L136.328 111.832H134.792L131.928 116.28H131.896L129.096 111.832H127.48L131.032 117.32L127.384 123ZM137.197 123H138.733L141.661 118.312H141.693L144.621 123H146.237L142.557 117.272L146.141 111.832H144.605L141.741 116.28H141.709L138.909 111.832H137.293L140.845 117.32L137.197 123ZM147.009 123H148.545L151.473 118.312H151.505L154.433 123H156.049L152.369 117.272L155.953 111.832H154.417L151.553 116.28H151.521L148.721 111.832H147.105L150.657 117.32L147.009 123ZM156.822 123H158.358L161.286 118.312H161.318L164.246 123H165.862L162.182 117.272L165.766 111.832H164.23L161.366 116.28H161.334L158.534 111.832H156.918L160.47 117.32L156.822 123ZM170.415 123H171.951L174.879 118.312H174.911L177.839 123H179.455L175.775 117.272L179.359 111.832H177.823L174.959 116.28H174.927L172.127 111.832H170.511L174.063 117.32L170.415 123ZM180.228 123H181.764L184.692 118.312H184.724L187.652 123H189.268L185.588 117.272L189.172 111.832H187.636L184.772 116.28H184.74L181.94 111.832H180.324L183.876 117.32L180.228 123ZM190.04 123H191.576L194.504 118.312H194.536L197.464 123H199.08L195.4 117.272L198.984 111.832H197.448L194.584 116.28H194.552L191.752 111.832H190.136L193.688 117.32L190.04 123ZM203.634 123H205.17L208.098 118.312H208.13L211.058 123H212.674L208.994 117.272L212.578 111.832H211.042L208.178 116.28H208.146L205.346 111.832H203.73L207.282 117.32L203.634 123ZM213.447 123H214.983L217.911 118.312H217.943L220.871 123H222.487L218.807 117.272L222.391 111.832H220.855L217.991 116.28H217.959L215.159 111.832H213.543L217.095 117.32L213.447 123ZM223.259 123H224.795L227.723 118.312H227.755L230.683 123H232.299L228.619 117.272L232.203 111.832H230.667L227.803 116.28H227.771L224.971 111.832H223.355L226.907 117.32L223.259 123ZM233.072 123H234.608L237.536 118.312H237.568L240.496 123H242.112L238.432 117.272L242.016 111.832H240.48L237.616 116.28H237.584L234.784 111.832H233.168L236.72 117.32L233.072 123Z" fill="#BFBFBF"/>
<rect x="42.5" y="93.5" width="282" height="47" rx="3.5" stroke="black" stroke-opacity="0.102"/>
<rect x="41" y="17" width="24" height="24" rx="12" fill="#6E04C1"/>
<path d="M56.111 34V33.038H53.771V24.926H52.068L49.663 27.175L50.3 27.864L52.588 25.732H52.679V33.038H50.144V34H56.111Z" fill="white"/>
<line x1="52.5" y1="41" x2="52.5" y2="65" stroke="#8000E4" stroke-dasharray="2 2"/>
<rect x="60" y="159" width="24" height="24" rx="12" fill="#6E04C1"/>
<path d="M74.929 175.038H70.158L72.602 172.841C73.759 171.801 74.591 170.813 74.591 169.409C74.591 167.862 73.577 166.77 71.809 166.77C70.054 166.77 69.248 167.836 68.897 168.902L69.872 169.279C70.119 168.421 70.639 167.745 71.757 167.745C72.875 167.745 73.434 168.434 73.434 169.435V169.591C73.434 170.462 72.784 171.372 71.939 172.152L68.975 174.882V176H74.929V175.038Z" fill="white"/>
<line x1="71.5" y1="127" x2="71.5" y2="162" stroke="#8000E4" stroke-dasharray="2 2"/>
<rect x="94" y="159" width="24" height="24" rx="12" fill="#6E04C1"/>
<path d="M104.405 170.774V171.723H105.471C106.745 171.723 107.421 172.334 107.421 173.4V173.504C107.421 174.57 106.745 175.181 105.471 175.181C104.366 175.181 103.833 174.7 103.365 173.985L102.546 174.609C103.105 175.389 103.911 176.156 105.484 176.156C107.33 176.156 108.565 175.077 108.565 173.517C108.565 172.152 107.629 171.424 106.654 171.229V171.177C107.616 170.93 108.396 170.228 108.396 169.058C108.396 167.589 107.174 166.77 105.64 166.77C104.184 166.77 103.391 167.524 102.936 168.252L103.742 168.876C104.119 168.187 104.678 167.745 105.614 167.745C106.576 167.745 107.239 168.226 107.239 169.175V169.266C107.239 170.137 106.615 170.774 105.393 170.774H104.405Z" fill="white"/>
<line x1="105.5" y1="127" x2="105.5" y2="162" stroke="#8000E4" stroke-dasharray="2 2"/>
<rect x="144" y="159" width="24" height="24" rx="12" fill="#6E04C1"/>
<path d="M157.915 176V174.219H159.228V173.309H157.915V166.926H156.29L152.494 173.257V174.219H156.875V176H157.915ZM156.81 167.771H156.875V173.309H153.521L156.81 167.771Z" fill="white"/>
<line x1="155.5" y1="127" x2="155.5" y2="162" stroke="#8000E4" stroke-dasharray="2 2"/>
<defs>
<clipPath id="clip0_4456_112673">
<rect width="28" height="20" fill="white" transform="translate(58 107)"/>
</clipPath>
<clipPath id="clip1_4456_112673">
<rect x="58" y="107" width="28" height="20" rx="2" fill="white"/>
</clipPath>
</defs>
</svg>
