<svg width="362" height="205" viewBox="0 0 362 205" fill="none" xmlns="http://www.w3.org/2000/svg">
<path d="M43.996 73V69.276H46.544C48.35 69.276 49.442 68.072 49.442 66.252C49.442 64.446 48.35 63.228 46.544 63.228H42.148V73H43.996ZM43.996 64.838H46.376C47.09 64.838 47.524 65.216 47.524 65.93V66.574C47.524 67.288 47.09 67.68 46.376 67.68H43.996V64.838ZM51.0048 73H52.7968V68.17C52.7968 67.386 53.5108 66.994 54.2528 66.994C55.1068 66.994 55.4568 67.526 55.4568 68.562V73H57.2488V68.38C57.2488 66.56 56.4088 65.524 54.9108 65.524C53.7768 65.524 53.1608 66.126 52.8668 66.91H52.7968V62.64H51.0048V73ZM62.1332 73.168C64.2332 73.168 65.5352 71.684 65.5352 69.332C65.5352 66.994 64.2332 65.524 62.1332 65.524C60.0472 65.524 58.7452 66.994 58.7452 69.332C58.7452 71.684 60.0472 73.168 62.1332 73.168ZM62.1332 71.726C61.2092 71.726 60.6212 71.124 60.6212 70.018V68.66C60.6212 67.568 61.2092 66.966 62.1332 66.966C63.0712 66.966 63.6592 67.568 63.6592 68.66V70.018C63.6592 71.124 63.0712 71.726 62.1332 71.726ZM68.9159 73V68.17C68.9159 67.386 69.6299 66.994 70.3719 66.994C71.2259 66.994 71.5759 67.526 71.5759 68.562V73H73.3679V68.38C73.3679 66.56 72.5279 65.524 71.0299 65.524C69.8959 65.524 69.2799 66.126 68.9859 66.91H68.9159V65.692H67.1239V73H68.9159ZM78.3084 73.168C79.6664 73.168 80.7304 72.65 81.3324 71.824L80.3664 70.746C79.9184 71.32 79.3864 71.74 78.5044 71.74C77.3284 71.74 76.7264 71.026 76.7264 69.976V69.794H81.5844V69.206C81.5844 67.204 80.5344 65.524 78.2524 65.524C76.1104 65.524 74.8644 67.022 74.8644 69.332C74.8644 71.67 76.1524 73.168 78.3084 73.168ZM78.2804 66.868C79.2044 66.868 79.7224 67.554 79.7224 68.562V68.688H76.7264V68.576C76.7264 67.568 77.3424 66.868 78.2804 66.868ZM88.2616 73V68.17C88.2616 67.386 88.9756 66.994 89.7176 66.994C90.5716 66.994 90.9216 67.526 90.9216 68.562V73H92.7136V68.38C92.7136 66.56 91.8736 65.524 90.3756 65.524C89.2416 65.524 88.6256 66.126 88.3316 66.91H88.2616V65.692H86.4696V73H88.2616ZM99.0681 73H100.86V65.692H99.0681V70.522C99.0681 71.306 98.3541 71.684 97.6401 71.684C96.7861 71.684 96.4081 71.138 96.4081 70.13V65.692H94.6161V70.312C94.6161 72.132 95.4561 73.168 96.9541 73.168C98.1581 73.168 98.7461 72.51 98.9981 71.782H99.0681V73ZM104.723 73V68.17C104.723 67.386 105.395 66.994 106.081 66.994C106.879 66.994 107.257 67.512 107.257 68.562V73H109.049V68.17C109.049 67.386 109.707 66.994 110.407 66.994C111.205 66.994 111.583 67.512 111.583 68.562V73H113.375V68.38C113.375 66.56 112.563 65.524 111.135 65.524C109.973 65.524 109.161 66.182 108.895 66.994H108.867C108.517 66.014 107.747 65.524 106.753 65.524C105.661 65.524 105.073 66.14 104.793 66.91H104.723V65.692H102.931V73H104.723ZM115.358 73H117.15V71.782H117.206C117.486 72.608 118.256 73.168 119.222 73.168C121.07 73.168 122.092 71.782 122.092 69.332C122.092 66.896 121.07 65.524 119.222 65.524C118.256 65.524 117.472 66.056 117.206 66.896H117.15V62.64H115.358V73ZM118.648 71.684C117.794 71.684 117.15 71.25 117.15 70.494V68.17C117.15 67.456 117.794 66.994 118.648 66.994C119.572 66.994 120.216 67.68 120.216 68.716V69.976C120.216 71.012 119.572 71.684 118.648 71.684ZM126.707 73.168C128.065 73.168 129.129 72.65 129.731 71.824L128.765 70.746C128.317 71.32 127.785 71.74 126.903 71.74C125.727 71.74 125.125 71.026 125.125 69.976V69.794H129.983V69.206C129.983 67.204 128.933 65.524 126.651 65.524C124.509 65.524 123.263 67.022 123.263 69.332C123.263 71.67 124.551 73.168 126.707 73.168ZM126.679 66.868C127.603 66.868 128.121 67.554 128.121 68.562V68.688H125.125V68.576C125.125 67.568 125.741 66.868 126.679 66.868ZM133.351 73V68.52C133.351 67.722 133.981 67.386 135.185 67.386H135.745V65.692H135.353C134.191 65.692 133.603 66.434 133.421 67.204H133.351V65.692H131.559V73H133.351Z" fill="#292929"/>
<rect x="42" y="87" width="281" height="46" rx="3" fill="white"/>
<g clip-path="url(#clip0_4456_112707)">
<g clip-path="url(#clip1_4456_112707)">
<rect x="57" y="100" width="28" height="20" rx="2" fill="white"/>
<path fill-rule="evenodd" clip-rule="evenodd" d="M57 100H65.9091V120H57V100Z" fill="#1A47B8"/>
<path fill-rule="evenodd" clip-rule="evenodd" d="M76.0909 100H85V120H76.0909V100Z" fill="#F93939"/>
</g>
</g>
<path d="M94.408 115.008V111.664H97.528V110.576H94.408V107.232H93.192V110.576H90.072V111.664H93.192V115.008H94.408ZM101.554 109.568V110.736H102.866C104.434 110.736 105.266 111.488 105.266 112.8V112.928C105.266 114.24 104.434 114.992 102.866 114.992C101.506 114.992 100.85 114.4 100.274 113.52L99.2658 114.288C99.9538 115.248 100.946 116.192 102.882 116.192C105.154 116.192 106.674 114.864 106.674 112.944C106.674 111.264 105.522 110.368 104.322 110.128V110.064C105.506 109.76 106.466 108.896 106.466 107.456C106.466 105.648 104.962 104.64 103.074 104.64C101.282 104.64 100.306 105.568 99.7458 106.464L100.738 107.232C101.202 106.384 101.89 105.84 103.042 105.84C104.226 105.84 105.042 106.432 105.042 107.6V107.712C105.042 108.784 104.274 109.568 102.77 109.568H101.554ZM111.148 109.568V110.736H112.46C114.028 110.736 114.86 111.488 114.86 112.8V112.928C114.86 114.24 114.028 114.992 112.46 114.992C111.1 114.992 110.444 114.4 109.868 113.52L108.86 114.288C109.548 115.248 110.539 116.192 112.476 116.192C114.748 116.192 116.267 114.864 116.267 112.944C116.267 111.264 115.116 110.368 113.916 110.128V110.064C115.1 109.76 116.06 108.896 116.06 107.456C116.06 105.648 114.556 104.64 112.668 104.64C110.876 104.64 109.9 105.568 109.34 106.464L110.332 107.232C110.796 106.384 111.484 105.84 112.636 105.84C113.82 105.84 114.636 106.432 114.636 107.6V107.712C114.636 108.784 113.868 109.568 112.364 109.568H111.148Z" fill="#292929"/>
<path d="M126.384 116H127.92L130.848 111.312H130.88L133.808 116H135.424L131.744 110.272L135.328 104.832H133.792L130.928 109.28H130.896L128.096 104.832H126.48L130.032 110.32L126.384 116ZM136.197 116H137.733L140.661 111.312H140.693L143.621 116H145.237L141.557 110.272L145.141 104.832H143.605L140.741 109.28H140.709L137.909 104.832H136.293L139.845 110.32L136.197 116ZM146.009 116H147.545L150.473 111.312H150.505L153.433 116H155.049L151.369 110.272L154.953 104.832H153.417L150.553 109.28H150.521L147.721 104.832H146.105L149.657 110.32L146.009 116ZM155.822 116H157.358L160.286 111.312H160.318L163.246 116H164.862L161.182 110.272L164.766 104.832H163.23L160.366 109.28H160.334L157.534 104.832H155.918L159.47 110.32L155.822 116ZM169.415 116H170.951L173.879 111.312H173.911L176.839 116H178.455L174.775 110.272L178.359 104.832H176.823L173.959 109.28H173.927L171.127 104.832H169.511L173.063 110.32L169.415 116ZM179.228 116H180.764L183.692 111.312H183.724L186.652 116H188.268L184.588 110.272L188.172 104.832H186.636L183.772 109.28H183.74L180.94 104.832H179.324L182.876 110.32L179.228 116ZM189.04 116H190.576L193.504 111.312H193.536L196.464 116H198.08L194.4 110.272L197.984 104.832H196.448L193.584 109.28H193.552L190.752 104.832H189.136L192.688 110.32L189.04 116ZM202.634 116H204.17L207.098 111.312H207.13L210.058 116H211.674L207.994 110.272L211.578 104.832H210.042L207.178 109.28H207.146L204.346 104.832H202.73L206.282 110.32L202.634 116ZM212.447 116H213.983L216.911 111.312H216.943L219.871 116H221.487L217.807 110.272L221.391 104.832H219.855L216.991 109.28H216.959L214.159 104.832H212.543L216.095 110.32L212.447 116ZM222.259 116H223.795L226.723 111.312H226.755L229.683 116H231.299L227.619 110.272L231.203 104.832H229.667L226.803 109.28H226.771L223.971 104.832H222.355L225.907 110.32L222.259 116ZM232.072 116H233.608L236.536 111.312H236.568L239.496 116H241.112L237.432 110.272L241.016 104.832H239.48L236.616 109.28H236.584L233.784 104.832H232.168L235.72 110.32L232.072 116Z" fill="#BFBFBF"/>
<path d="M303 105.875L302.125 105L298 109.125L293.875 105L293 105.875L297.125 110L293 114.125L293.875 115L298 110.875L302.125 115L303 114.125L298.875 110L303 105.875Z" fill="#292929"/>
<rect x="42" y="87" width="281" height="46" rx="3" stroke="#CC0000" stroke-width="2"/>
<rect x="41" y="142" width="283" height="34" rx="4" fill="#FEDFDF"/>
<path d="M61.001 155.086H60.999L55.3243 165.999L55.3253 166H66.6747L66.6756 165.999L61.001 155.086ZM60.4375 158H61.5625V162.5H60.4375V158ZM61 165C60.8517 165 60.7066 164.956 60.5833 164.874C60.46 164.791 60.3638 164.674 60.3071 164.537C60.2503 164.4 60.2355 164.249 60.2644 164.104C60.2933 163.958 60.3648 163.825 60.4697 163.72C60.5746 163.615 60.7082 163.544 60.8537 163.515C60.9992 163.486 61.15 163.501 61.287 163.557C61.424 163.614 61.5412 163.71 61.6236 163.834C61.706 163.957 61.75 164.102 61.75 164.25C61.75 164.449 61.671 164.64 61.5303 164.781C61.3897 164.921 61.1989 165 61 165Z" fill="#CC0000"/>
<path d="M67.5 167H54.5C54.4141 167 54.3296 166.978 54.2548 166.936C54.1799 166.894 54.1172 166.833 54.0726 166.759C54.028 166.686 54.0031 166.602 54.0003 166.517C53.9974 166.431 54.0168 166.346 54.0564 166.269L60.5564 153.769C60.5986 153.688 60.6623 153.62 60.7405 153.573C60.8187 153.525 60.9085 153.5 61 153.5C61.0915 153.5 61.1813 153.525 61.2595 153.573C61.3377 153.62 61.4014 153.688 61.4436 153.769L67.9436 166.269C67.9832 166.346 68.0026 166.431 67.9997 166.517C67.9969 166.602 67.972 166.686 67.9274 166.759C67.8828 166.833 67.8201 166.894 67.7452 166.936C67.6704 166.978 67.5859 167 67.5 167ZM55.3254 166H66.6747L66.6757 165.998L61.001 155.086H60.999L55.3244 165.998L55.3254 166Z" fill="#CC0000"/>
<path d="M83.228 164V163.112H79.124V160.208H82.988V159.32H79.124V156.512H83.228V155.624H78.116V164H83.228ZM85.9761 164V159.8C85.9761 159.212 86.6001 158.768 87.6321 158.768H88.1961V157.808H87.8241C86.8161 157.808 86.2521 158.36 86.0361 158.948H85.9761V157.808H85.0161V164H85.9761ZM90.3823 164V159.8C90.3823 159.212 91.0063 158.768 92.0383 158.768H92.6023V157.808H92.2303C91.2223 157.808 90.6583 158.36 90.4423 158.948H90.3823V157.808H89.4223V164H90.3823ZM96.11 164.144C97.766 164.144 98.906 162.872 98.906 160.904C98.906 158.936 97.766 157.664 96.11 157.664C94.454 157.664 93.314 158.936 93.314 160.904C93.314 162.872 94.454 164.144 96.11 164.144ZM96.11 163.292C95.078 163.292 94.346 162.656 94.346 161.348V160.46C94.346 159.152 95.078 158.516 96.11 158.516C97.142 158.516 97.874 159.152 97.874 160.46V161.348C97.874 162.656 97.142 163.292 96.11 163.292ZM101.445 164V159.8C101.445 159.212 102.069 158.768 103.101 158.768H103.665V157.808H103.293C102.285 157.808 101.721 158.36 101.505 158.948H101.445V157.808H100.485V164H101.445ZM110.295 164V163.16H109.035V158.648H110.391V157.808H109.035V156.092H108.171V157.244C108.171 157.664 108.039 157.808 107.631 157.808H107.055V158.648H108.075V162.98C108.075 163.58 108.435 164 109.095 164H110.295ZM114.215 164.144C115.379 164.144 116.267 163.568 116.663 162.728L115.979 162.236C115.655 162.92 115.055 163.304 114.275 163.304C113.123 163.304 112.439 162.5 112.439 161.432V161.144H116.891V160.688C116.891 158.936 115.871 157.664 114.215 157.664C112.535 157.664 111.431 158.936 111.431 160.904C111.431 162.872 112.535 164.144 114.215 164.144ZM114.215 158.468C115.199 158.468 115.859 159.2 115.859 160.292V160.424H112.439V160.34C112.439 159.26 113.171 158.468 114.215 158.468ZM117.565 164H118.633L120.373 161.576H120.409L122.017 164H123.145L120.913 160.808L123.097 157.808H122.029L120.396 160.112H120.361L118.789 157.808H117.661L119.857 160.88L117.565 164ZM126.983 164V163.16H125.723V158.648H127.079V157.808H125.723V156.092H124.859V157.244C124.859 157.664 124.727 157.808 124.319 157.808H123.743V158.648H124.763V162.98C124.763 163.58 125.123 164 125.783 164H126.983ZM133.762 164.144C134.938 164.144 135.742 163.568 136.138 162.68L135.442 162.212C135.106 162.92 134.542 163.292 133.762 163.292C132.622 163.292 132.034 162.512 132.034 161.432V160.376C132.034 159.296 132.622 158.516 133.762 158.516C134.518 158.516 135.046 158.888 135.274 159.524L136.078 159.116C135.718 158.264 134.986 157.664 133.762 157.664C132.021 157.664 131.002 158.924 131.002 160.904C131.002 162.884 132.021 164.144 133.762 164.144ZM142.533 164V163.16H141.825V159.752C141.825 158.444 140.937 157.664 139.449 157.664C138.333 157.664 137.589 158.216 137.253 158.876L137.829 159.416C138.165 158.852 138.657 158.492 139.401 158.492C140.385 158.492 140.865 158.972 140.865 159.848V160.46H139.641C137.841 160.46 137.001 161.108 137.001 162.272C137.001 163.424 137.769 164.144 139.077 164.144C139.941 164.144 140.601 163.748 140.865 162.992H140.925C140.997 163.568 141.285 164 141.993 164H142.533ZM139.233 163.328C138.489 163.328 138.009 162.98 138.009 162.368V162.116C138.009 161.516 138.501 161.18 139.593 161.18H140.865V162.2C140.865 162.836 140.181 163.328 139.233 163.328ZM144.863 164V159.704C144.863 158.912 145.607 158.528 146.375 158.528C147.299 158.528 147.779 159.092 147.779 160.196V164H148.739V160.028C148.739 158.528 147.935 157.664 146.663 157.664C145.739 157.664 145.211 158.12 144.911 158.816H144.863V157.808H143.903V164H144.863ZM158.779 164.684C158.779 163.664 158.119 163.04 156.583 163.04H155.263C154.699 163.04 154.315 162.944 154.315 162.572C154.315 162.188 154.723 161.984 155.131 161.876C155.311 161.912 155.527 161.936 155.731 161.936C157.147 161.936 158.071 161.06 158.071 159.8C158.071 159.14 157.807 158.588 157.363 158.204V157.808H158.539V156.968H157.615C157.099 156.968 156.895 157.316 156.895 157.796V157.904C156.559 157.748 156.163 157.664 155.719 157.664C154.315 157.664 153.391 158.54 153.391 159.8C153.391 160.664 153.823 161.348 154.555 161.696V161.744C153.931 161.9 153.487 162.2 153.487 162.824C153.487 163.244 153.691 163.52 154.039 163.688V163.82C153.427 163.988 153.055 164.348 153.055 165.02C153.055 165.992 153.847 166.544 155.779 166.544C157.771 166.544 158.779 165.956 158.779 164.684ZM157.879 164.756C157.879 165.428 157.255 165.764 156.187 165.764H155.299C154.327 165.764 153.955 165.32 153.955 164.78C153.955 164.396 154.135 164.12 154.531 163.94H156.595C157.555 163.94 157.879 164.264 157.879 164.756ZM155.731 161.168C154.915 161.168 154.399 160.784 154.399 159.968V159.632C154.399 158.816 154.915 158.432 155.731 158.432C156.547 158.432 157.063 158.816 157.063 159.632V159.968C157.063 160.784 156.547 161.168 155.731 161.168ZM162.169 164.144C163.825 164.144 164.965 162.872 164.965 160.904C164.965 158.936 163.825 157.664 162.169 157.664C160.513 157.664 159.373 158.936 159.373 160.904C159.373 162.872 160.513 164.144 162.169 164.144ZM162.169 163.292C161.137 163.292 160.405 162.656 160.405 161.348V160.46C160.405 159.152 161.137 158.516 162.169 158.516C163.201 158.516 163.933 159.152 163.933 160.46V161.348C163.933 162.656 163.201 163.292 162.169 163.292ZM169.379 164H170.339V159.704C170.339 158.912 171.083 158.528 171.851 158.528C172.775 158.528 173.255 159.092 173.255 160.196V164H174.215V160.028C174.215 158.528 173.411 157.664 172.139 157.664C171.215 157.664 170.687 158.12 170.387 158.816H170.339V155.12H169.379V164ZM178.528 164.144C179.692 164.144 180.58 163.568 180.976 162.728L180.292 162.236C179.968 162.92 179.368 163.304 178.588 163.304C177.436 163.304 176.752 162.5 176.752 161.432V161.144H181.204V160.688C181.204 158.936 180.184 157.664 178.528 157.664C176.848 157.664 175.744 158.936 175.744 160.904C175.744 162.872 176.848 164.144 178.528 164.144ZM178.528 158.468C179.512 158.468 180.172 159.2 180.172 160.292V160.424H176.752V160.34C176.752 159.26 177.484 158.468 178.528 158.468ZM183.746 164V159.8C183.746 159.212 184.37 158.768 185.402 158.768H185.966V157.808H185.594C184.586 157.808 184.022 158.36 183.806 158.948H183.746V157.808H182.786V164H183.746ZM189.461 164.144C190.625 164.144 191.513 163.568 191.909 162.728L191.225 162.236C190.901 162.92 190.301 163.304 189.521 163.304C188.369 163.304 187.685 162.5 187.685 161.432V161.144H192.137V160.688C192.137 158.936 191.117 157.664 189.461 157.664C187.781 157.664 186.677 158.936 186.677 160.904C186.677 162.872 187.781 164.144 189.461 164.144ZM189.461 158.468C190.445 158.468 191.105 159.2 191.105 160.292V160.424H187.685V160.34C187.685 159.26 188.417 158.468 189.461 158.468ZM194.097 164.144C194.601 164.144 194.829 163.856 194.829 163.448V163.292C194.829 162.884 194.601 162.596 194.097 162.596C193.593 162.596 193.365 162.884 193.365 163.292V163.448C193.365 163.856 193.593 164.144 194.097 164.144Z" fill="#CC0000"/>
<rect x="286" y="47" width="24" height="24" rx="12" fill="#6E04C1"/>
<path d="M297.913 64.156C299.733 64.156 300.929 62.934 300.929 61.153C300.929 59.437 299.811 58.358 298.251 58.358C297.146 58.358 296.496 58.917 296.067 59.658L296.002 59.632C296.496 57.526 297.575 56.343 299.512 54.926H298.108C296.652 55.875 294.871 57.981 294.871 60.672C294.871 62.83 296.028 64.156 297.913 64.156ZM297.9 63.207C296.704 63.207 296.002 62.518 296.002 61.296V61.192C296.002 59.97 296.704 59.281 297.9 59.281C299.096 59.281 299.798 59.97 299.798 61.192V61.296C299.798 62.518 299.096 63.207 297.9 63.207Z" fill="white"/>
<line x1="297.5" y1="71" x2="297.5" y2="95" stroke="#8000E4" stroke-dasharray="2 2"/>
<rect x="4" y="147" width="24" height="24" rx="12" fill="#6E04C1"/>
<path d="M18.474 154.926H13.612L13.287 159.918L14.21 160.048C14.587 159.632 15.003 159.281 15.835 159.281C17.07 159.281 17.733 159.97 17.733 161.166V161.296C17.733 162.492 17.07 163.181 15.835 163.181C14.743 163.181 14.288 162.7 13.82 161.985L13.001 162.609C13.547 163.389 14.327 164.156 15.835 164.156C17.746 164.156 18.89 162.921 18.89 161.153C18.89 159.398 17.746 158.345 16.186 158.345C15.237 158.345 14.756 158.735 14.327 159.346H14.236L14.496 155.888H18.474V154.926Z" fill="white"/>
<line x1="41" y1="159.5" x2="27" y2="159.5" stroke="#8000E4" stroke-dasharray="2 2"/>
<defs>
<clipPath id="clip0_4456_112707">
<rect width="28" height="20" fill="white" transform="translate(57 100)"/>
</clipPath>
<clipPath id="clip1_4456_112707">
<rect x="57" y="100" width="28" height="20" rx="2" fill="white"/>
</clipPath>
</defs>
</svg>
