<svg width="199" height="130" viewBox="0 0 199 130" fill="none" xmlns="http://www.w3.org/2000/svg">
<path d="M56.9999 80C56.9999 82.2091 55.209 84 52.9999 84C50.7907 84 48.9999 82.2091 48.9999 80C48.9999 77.7909 50.7907 76 52.9999 76C55.209 76 56.9999 77.7909 56.9999 80Z" fill="#292929"/>
<rect x="43.75" y="70.75" width="18.5" height="18.5" rx="9.25" stroke="#292929" stroke-width="1.5"/>
<path d="M75.832 81.2H78.44L80.856 86H82.376L79.816 81.072C81.272 80.736 82.056 79.632 82.056 78C82.056 75.968 80.888 74.832 78.936 74.832H74.488V86H75.832V81.2ZM75.832 80.048V76.016H78.936C79.992 76.016 80.616 76.592 80.616 77.616V78.448C80.616 79.472 79.992 80.048 78.936 80.048H75.832ZM91.1581 86V84.88H90.2141V80.336C90.2141 78.592 89.0301 77.552 87.0461 77.552C85.5581 77.552 84.5661 78.288 84.1181 79.168L84.8861 79.888C85.3341 79.136 85.9901 78.656 86.9821 78.656C88.2941 78.656 88.9341 79.296 88.9341 80.464V81.28H87.3021C84.9021 81.28 83.7821 82.144 83.7821 83.696C83.7821 85.232 84.8061 86.192 86.5501 86.192C87.7021 86.192 88.5821 85.664 88.9341 84.656H89.0141C89.1101 85.424 89.4941 86 90.4381 86H91.1581ZM86.7581 85.104C85.7661 85.104 85.1261 84.64 85.1261 83.824V83.488C85.1261 82.688 85.7821 82.24 87.2381 82.24H88.9341V83.6C88.9341 84.448 88.0221 85.104 86.7581 85.104ZM98.265 86H99.545V74.16H98.265V79.088H98.201C97.769 78.048 96.921 77.552 95.785 77.552C93.721 77.552 92.425 79.232 92.425 81.872C92.425 84.512 93.721 86.192 95.785 86.192C96.921 86.192 97.705 85.68 98.201 84.656H98.265V86ZM96.137 85.04C94.697 85.04 93.801 84.048 93.801 82.576V81.168C93.801 79.696 94.697 78.704 96.137 78.704C97.305 78.704 98.265 79.376 98.265 80.288V83.36C98.265 84.432 97.305 85.04 96.137 85.04ZM102.906 75.808C103.45 75.808 103.69 75.52 103.69 75.088V74.88C103.69 74.448 103.45 74.16 102.906 74.16C102.362 74.16 102.122 74.448 102.122 74.88V75.088C102.122 75.52 102.362 75.808 102.906 75.808ZM102.266 86H103.546V77.744H102.266V86ZM109.386 86.192C111.594 86.192 113.114 84.496 113.114 81.872C113.114 79.248 111.594 77.552 109.386 77.552C107.178 77.552 105.658 79.248 105.658 81.872C105.658 84.496 107.178 86.192 109.386 86.192ZM109.386 85.056C108.01 85.056 107.034 84.208 107.034 82.464V81.28C107.034 79.536 108.01 78.688 109.386 78.688C110.762 78.688 111.738 79.536 111.738 81.28V82.464C111.738 84.208 110.762 85.056 109.386 85.056ZM121.497 86V84.88H120.281V74.16H119.001V84.672C119.001 85.44 119.481 86 120.361 86H121.497ZM130.08 86V84.88H129.136V80.336C129.136 78.592 127.952 77.552 125.968 77.552C124.48 77.552 123.488 78.288 123.04 79.168L123.808 79.888C124.256 79.136 124.912 78.656 125.904 78.656C127.216 78.656 127.856 79.296 127.856 80.464V81.28H126.224C123.824 81.28 122.704 82.144 122.704 83.696C122.704 85.232 123.728 86.192 125.472 86.192C126.624 86.192 127.504 85.664 127.856 84.656H127.936C128.032 85.424 128.416 86 129.36 86H130.08ZM125.68 85.104C124.688 85.104 124.048 84.64 124.048 83.824V83.488C124.048 82.688 124.704 82.24 126.16 82.24H127.856V83.6C127.856 84.448 126.944 85.104 125.68 85.104ZM131.907 86H133.187V84.656H133.251C133.747 85.68 134.531 86.192 135.667 86.192C137.731 86.192 139.027 84.512 139.027 81.872C139.027 79.232 137.731 77.552 135.667 77.552C134.531 77.552 133.683 78.048 133.251 79.088H133.187V74.16H131.907V86ZM135.315 85.04C134.147 85.04 133.187 84.432 133.187 83.36V80.288C133.187 79.376 134.147 78.704 135.315 78.704C136.755 78.704 137.651 79.696 137.651 81.168V82.576C137.651 84.048 136.755 85.04 135.315 85.04ZM144.292 86.192C145.844 86.192 147.028 85.424 147.556 84.304L146.644 83.648C146.212 84.56 145.412 85.072 144.372 85.072C142.836 85.072 141.924 84 141.924 82.576V82.192H147.86V81.584C147.86 79.248 146.5 77.552 144.292 77.552C142.052 77.552 140.58 79.248 140.58 81.872C140.58 84.496 142.052 86.192 144.292 86.192ZM144.292 78.624C145.604 78.624 146.484 79.6 146.484 81.056V81.232H141.924V81.12C141.924 79.68 142.9 78.624 144.292 78.624ZM152.465 86V84.88H151.249V74.16H149.969V84.672C149.969 85.44 150.449 86 151.329 86H152.465Z" fill="#292929"/>
<rect x="41" y="22" width="24" height="24" rx="12" fill="#6E04C1"/>
<path d="M56.111 39V38.038H53.771V29.926H52.068L49.663 32.175L50.3 32.864L52.588 30.732H52.679V38.038H50.144V39H56.111Z" fill="white"/>
<line x1="52.5" y1="46" x2="52.5" y2="70" stroke="#8000E4" stroke-dasharray="2 2"/>
<rect x="41" y="22" width="24" height="24" rx="12" fill="#6E04C1"/>
<path d="M56.111 39V38.038H53.771V29.926H52.068L49.663 32.175L50.3 32.864L52.588 30.732H52.679V38.038H50.144V39H56.111Z" fill="white"/>
<line x1="52.5" y1="46" x2="52.5" y2="70" stroke="#8000E4" stroke-dasharray="2 2"/>
<rect x="91" y="22" width="24" height="24" rx="12" fill="#6E04C1"/>
<path d="M105.929 38.038H101.158L103.602 35.841C104.759 34.801 105.591 33.813 105.591 32.409C105.591 30.862 104.577 29.77 102.809 29.77C101.054 29.77 100.248 30.836 99.897 31.902L100.872 32.279C101.119 31.421 101.639 30.745 102.757 30.745C103.875 30.745 104.434 31.434 104.434 32.435V32.591C104.434 33.462 103.784 34.372 102.939 35.152L99.975 37.882V39H105.929V38.038Z" fill="white"/>
<line x1="102.5" y1="46" x2="102.5" y2="70" stroke="#8000E4" stroke-dasharray="2 2"/>
</svg>
