<svg width="413" height="199" viewBox="0 0 413 199" fill="none" xmlns="http://www.w3.org/2000/svg">
<path d="M79.846 76V74.362H75.996V66.228H74.148V76H79.846ZM83.1838 76.168C84.2758 76.168 85.0738 75.678 85.3118 74.74H85.3958C85.5078 75.496 85.9838 76 86.7538 76H87.7478V74.572H87.0198V71.128C87.0198 69.462 85.9698 68.524 83.9958 68.524C82.5258 68.524 81.6718 69.084 81.1398 69.924L82.2038 70.876C82.5538 70.372 83.0298 69.952 83.8698 69.952C84.8218 69.952 85.2278 70.428 85.2278 71.24V71.772H83.9818C81.9938 71.772 80.8598 72.514 80.8598 74.012C80.8598 75.314 81.6998 76.168 83.1838 76.168ZM83.7858 74.866C83.0858 74.866 82.6798 74.572 82.6798 73.984V73.746C82.6798 73.172 83.1418 72.85 84.0798 72.85H85.2278V73.816C85.2278 74.502 84.5838 74.866 83.7858 74.866ZM89.1981 76H90.9901V74.782H91.0461C91.3261 75.608 92.0961 76.168 93.0621 76.168C94.9101 76.168 95.9321 74.782 95.9321 72.332C95.9321 69.896 94.9101 68.524 93.0621 68.524C92.0961 68.524 91.3121 69.056 91.0461 69.896H90.9901V65.64H89.1981V76ZM92.4881 74.684C91.6341 74.684 90.9901 74.25 90.9901 73.494V71.17C90.9901 70.456 91.6341 69.994 92.4881 69.994C93.4121 69.994 94.0561 70.68 94.0561 71.716V72.976C94.0561 74.012 93.4121 74.684 92.4881 74.684ZM100.547 76.168C101.905 76.168 102.969 75.65 103.571 74.824L102.605 73.746C102.157 74.32 101.625 74.74 100.743 74.74C99.5666 74.74 98.9646 74.026 98.9646 72.976V72.794H103.823V72.206C103.823 70.204 102.773 68.524 100.491 68.524C98.3486 68.524 97.1026 70.022 97.1026 72.332C97.1026 74.67 98.3906 76.168 100.547 76.168ZM100.519 69.868C101.443 69.868 101.961 70.554 101.961 71.562V71.688H98.9646V71.576C98.9646 70.568 99.5806 69.868 100.519 69.868ZM108.157 76V74.572H107.191V65.64H105.399V74.236C105.399 75.356 105.973 76 107.191 76H108.157Z" fill="#292929"/>
<path d="M73 93C73 90.7909 74.7909 89 77 89H301V137H77C74.7909 137 73 135.209 73 133V93Z" fill="white"/>
<path fill-rule="evenodd" clip-rule="evenodd" d="M94.1388 105.725C95.5777 104.763 97.2694 104.25 99 104.25C101.321 104.25 103.546 105.172 105.187 106.813C106.828 108.454 107.75 110.679 107.75 113C107.75 114.731 107.237 116.422 106.275 117.861C105.314 119.3 103.947 120.422 102.348 121.084C100.75 121.746 98.9903 121.919 97.293 121.582C95.5956 121.244 94.0365 120.411 92.8128 119.187C91.5891 117.963 90.7558 116.404 90.4181 114.707C90.0805 113.01 90.2538 111.25 90.9161 109.652C91.5783 108.053 92.6998 106.686 94.1388 105.725ZM94.8332 119.236C96.0666 120.06 97.5166 120.5 99 120.5C100.989 120.5 102.897 119.71 104.303 118.303C105.71 116.897 106.5 114.989 106.5 113C106.5 111.517 106.06 110.067 105.236 108.833C104.412 107.6 103.241 106.639 101.87 106.071C100.5 105.503 98.9917 105.355 97.5368 105.644C96.082 105.933 94.7456 106.648 93.6967 107.697C92.6478 108.746 91.9335 110.082 91.6441 111.537C91.3547 112.992 91.5033 114.5 92.0709 115.87C92.6386 117.241 93.5999 118.412 94.8332 119.236ZM94.625 113.258L97.75 116.384L103.375 110.759L102.491 109.875L97.75 114.616L95.5081 112.375L94.625 113.258Z" fill="#292929"/>
<path d="M119.832 119V114.232H122.936C124.936 114.232 126.056 113 126.056 111.032C126.056 109.064 124.936 107.832 122.936 107.832H118.488V119H119.832ZM119.832 109.016H122.936C123.992 109.016 124.616 109.592 124.616 110.616V111.448C124.616 112.472 123.992 113.048 122.936 113.048H119.832V109.016ZM130.559 119V117.88H129.343V107.16H128.063V117.672C128.063 118.44 128.543 119 129.423 119H130.559ZM139.142 119V117.88H138.199V113.336C138.199 111.592 137.015 110.552 135.031 110.552C133.543 110.552 132.551 111.288 132.103 112.168L132.871 112.888C133.319 112.136 133.975 111.656 134.967 111.656C136.279 111.656 136.919 112.296 136.919 113.464V114.28H135.286C132.887 114.28 131.767 115.144 131.767 116.696C131.767 118.232 132.791 119.192 134.535 119.192C135.687 119.192 136.567 118.664 136.919 117.656H136.999C137.095 118.424 137.479 119 138.423 119H139.142ZM134.743 118.104C133.751 118.104 133.111 117.64 133.111 116.824V116.488C133.111 115.688 133.767 115.24 135.223 115.24H136.919V116.6C136.919 117.448 136.007 118.104 134.743 118.104ZM144.041 119.192C145.609 119.192 146.681 118.424 147.209 117.24L146.281 116.616C145.833 117.56 145.081 118.056 144.041 118.056C142.521 118.056 141.737 117.016 141.737 115.576V114.168C141.737 112.728 142.521 111.688 144.041 111.688C145.049 111.688 145.753 112.184 146.057 113.032L147.129 112.488C146.649 111.352 145.673 110.552 144.041 110.552C141.721 110.552 140.361 112.232 140.361 114.872C140.361 117.512 141.721 119.192 144.041 119.192ZM152.027 119.192C153.579 119.192 154.763 118.424 155.291 117.304L154.379 116.648C153.947 117.56 153.147 118.072 152.107 118.072C150.571 118.072 149.659 117 149.659 115.576V115.192H155.595V114.584C155.595 112.248 154.235 110.552 152.027 110.552C149.787 110.552 148.315 112.248 148.315 114.872C148.315 117.496 149.787 119.192 152.027 119.192ZM152.027 111.624C153.339 111.624 154.219 112.6 154.219 114.056V114.232H149.659V114.12C149.659 112.68 150.635 111.624 152.027 111.624ZM157.704 119H158.984V113.272C158.984 112.216 159.976 111.704 161 111.704C162.232 111.704 162.872 112.456 162.872 113.928V119H164.152V113.704C164.152 111.704 163.08 110.552 161.384 110.552C160.152 110.552 159.448 111.16 159.048 112.088H158.984V107.16H157.704V119ZM169.918 119.192C172.126 119.192 173.646 117.496 173.646 114.872C173.646 112.248 172.126 110.552 169.918 110.552C167.71 110.552 166.19 112.248 166.19 114.872C166.19 117.496 167.71 119.192 169.918 119.192ZM169.918 118.056C168.542 118.056 167.566 117.208 167.566 115.464V114.28C167.566 112.536 168.542 111.688 169.918 111.688C171.294 111.688 172.27 112.536 172.27 114.28V115.464C172.27 117.208 171.294 118.056 169.918 118.056ZM178.247 119V117.88H177.031V107.16H175.751V117.672C175.751 118.44 176.231 119 177.111 119H178.247ZM185.39 119H186.67V107.16H185.39V112.088H185.326C184.894 111.048 184.046 110.552 182.91 110.552C180.846 110.552 179.55 112.232 179.55 114.872C179.55 117.512 180.846 119.192 182.91 119.192C184.046 119.192 184.83 118.68 185.326 117.656H185.39V119ZM183.262 118.04C181.822 118.04 180.926 117.048 180.926 115.576V114.168C180.926 112.696 181.822 111.704 183.262 111.704C184.43 111.704 185.39 112.376 185.39 113.288V116.36C185.39 117.432 184.43 118.04 183.262 118.04ZM192.495 119.192C194.047 119.192 195.231 118.424 195.759 117.304L194.847 116.648C194.415 117.56 193.615 118.072 192.575 118.072C191.039 118.072 190.127 117 190.127 115.576V115.192H196.063V114.584C196.063 112.248 194.703 110.552 192.495 110.552C190.255 110.552 188.783 112.248 188.783 114.872C188.783 117.496 190.255 119.192 192.495 119.192ZM192.495 111.624C193.807 111.624 194.687 112.6 194.687 114.056V114.232H190.127V114.12C190.127 112.68 191.103 111.624 192.495 111.624ZM199.453 119V113.4C199.453 112.616 200.285 112.024 201.661 112.024H202.413V110.744H201.917C200.573 110.744 199.821 111.48 199.533 112.264H199.453V110.744H198.173V119H199.453Z" fill="#BFBFBF"/>
<path d="M275 116.75L268.75 110.5L269.625 109.625L275 115L280.375 109.625L281.25 110.5L275 116.75Z" fill="#292929"/>
<path d="M77 89.5H300.5V136.5H77C75.067 136.5 73.5 134.933 73.5 133V93C73.5 91.067 75.067 89.5 77 89.5Z" stroke="black" stroke-opacity="0.102"/>
<path d="M301 89H379C381.209 89 383 90.7909 383 93V133C383 135.209 381.209 137 379 137H301V89Z" fill="#292929"/>
<path d="M318.548 119H323.988C325.636 119 326.868 117.592 326.868 115.784C326.868 113.912 325.444 113.208 324.532 113.176V113.08C325.444 113 326.468 112.392 326.468 110.712C326.468 108.968 325.332 107.832 323.492 107.832H318.548V119ZM320.356 114.056H323.46C324.388 114.056 324.964 114.568 324.964 115.48V116.024C324.964 116.936 324.388 117.448 323.46 117.448H320.356V114.056ZM320.356 109.384H323.156C324.036 109.384 324.564 109.864 324.564 110.712V111.224C324.564 112.072 324.036 112.552 323.156 112.552H320.356V109.384ZM334.007 119H335.751V110.68H334.007V116.248C334.007 117.224 333.127 117.688 332.231 117.688C331.159 117.688 330.631 117.016 330.631 115.752V110.68H328.887V115.976C328.887 118.024 329.895 119.192 331.607 119.192C332.983 119.192 333.639 118.44 333.943 117.624H334.007V119ZM342.072 119V117.576H340.456V112.104H342.2V110.68H340.456V108.408H338.888V109.864C338.888 110.44 338.696 110.68 338.12 110.68H337.416V112.104H338.712V117.192C338.712 118.328 339.352 119 340.552 119H342.072ZM347.806 119V117.576H346.19V112.104H347.934V110.68H346.19V108.408H344.622V109.864C344.622 110.44 344.43 110.68 343.854 110.68H343.15V112.104H344.446V117.192C344.446 118.328 345.086 119 346.286 119H347.806ZM353.028 119.192C355.348 119.192 356.852 117.496 356.852 114.84C356.852 112.184 355.348 110.488 353.028 110.488C350.708 110.488 349.204 112.184 349.204 114.84C349.204 117.496 350.708 119.192 353.028 119.192ZM353.028 117.752C351.844 117.752 351.044 117.016 351.044 115.544V114.136C351.044 112.664 351.844 111.928 353.028 111.928C354.212 111.928 355.012 112.664 355.012 114.136V115.544C355.012 117.016 354.212 117.752 353.028 117.752ZM360.539 119V113.432C360.539 112.456 361.435 111.992 362.347 111.992C363.419 111.992 363.915 112.648 363.915 113.944V119H365.659V113.72C365.659 111.672 364.651 110.488 362.955 110.488C361.675 110.488 360.971 111.16 360.619 112.056H360.539V110.68H358.795V119H360.539Z" fill="white"/>
<path fill-rule="evenodd" clip-rule="evenodd" d="M77.111 160.82C78.2622 161.589 79.6155 162 81 162C82.8565 162 84.637 161.263 85.9497 159.95C87.2625 158.637 88 156.857 88 155C88 153.616 87.5895 152.262 86.8203 151.111C86.0511 149.96 84.9579 149.063 83.6788 148.533C82.3997 148.003 80.9922 147.864 79.6344 148.135C78.2765 148.405 77.0292 149.071 76.0503 150.05C75.0713 151.029 74.4046 152.277 74.1345 153.634C73.8644 154.992 74.003 156.4 74.5328 157.679C75.0627 158.958 75.9599 160.051 77.111 160.82ZM77.6666 150.011C78.6533 149.352 79.8133 149 81 149C82.5913 149 84.1174 149.632 85.2426 150.757C86.3679 151.883 87 153.409 87 155C87 156.187 86.6481 157.347 85.9888 158.333C85.3295 159.32 84.3925 160.089 83.2961 160.543C82.1997 160.997 80.9933 161.116 79.8295 160.885C78.6656 160.653 77.5965 160.082 76.7574 159.243C75.9182 158.404 75.3468 157.334 75.1153 156.171C74.8838 155.007 75.0026 153.8 75.4567 152.704C75.9109 151.608 76.6799 150.67 77.6666 150.011ZM81 151C80.8517 151 80.7067 151.044 80.5833 151.126C80.46 151.209 80.3639 151.326 80.3071 151.463C80.2503 151.6 80.2355 151.751 80.2644 151.896C80.2934 152.042 80.3648 152.175 80.4697 152.28C80.5746 152.385 80.7082 152.457 80.8537 152.486C80.9992 152.515 81.15 152.5 81.287 152.443C81.4241 152.386 81.5412 152.29 81.6236 152.167C81.706 152.043 81.75 151.898 81.75 151.75C81.75 151.551 81.671 151.36 81.5303 151.22C81.3897 151.079 81.1989 151 81 151ZM81.5 158V154H79.5V155H80.5V158H79V159H83V158H81.5Z" fill="#0066CC"/>
<path d="M104.416 159L101.488 150.624H100.204L97.276 159H98.296L99.136 156.528H102.52L103.36 159H104.416ZM102.268 155.64H99.376L100.792 151.56H100.852L102.268 155.64ZM107.58 159V158.16H106.668V150.12H105.708V158.004C105.708 158.58 106.068 159 106.728 159H107.58ZM111.305 159.144C112.469 159.144 113.357 158.568 113.753 157.728L113.069 157.236C112.745 157.92 112.145 158.304 111.365 158.304C110.213 158.304 109.529 157.5 109.529 156.432V156.144H113.981V155.688C113.981 153.936 112.961 152.664 111.305 152.664C109.625 152.664 108.521 153.936 108.521 155.904C108.521 157.872 109.625 159.144 111.305 159.144ZM111.305 153.468C112.289 153.468 112.949 154.2 112.949 155.292V155.424H109.529V155.34C109.529 154.26 110.261 153.468 111.305 153.468ZM116.523 159V154.8C116.523 154.212 117.147 153.768 118.179 153.768H118.743V152.808H118.371C117.363 152.808 116.799 153.36 116.583 153.948H116.523V152.808H115.563V159H116.523ZM122.584 159V158.16H121.324V153.648H122.68V152.808H121.324V151.092H120.46V152.244C120.46 152.664 120.328 152.808 119.92 152.808H119.344V153.648H120.364V157.98C120.364 158.58 120.724 159 121.384 159H122.584ZM129.627 159V158.16H128.367V153.648H129.723V152.808H128.367V151.092H127.503V152.244C127.503 152.664 127.371 152.808 126.963 152.808H126.387V153.648H127.407V157.98C127.407 158.58 127.767 159 128.427 159H129.627ZM133.547 159.144C134.711 159.144 135.599 158.568 135.995 157.728L135.311 157.236C134.987 157.92 134.387 158.304 133.607 158.304C132.455 158.304 131.771 157.5 131.771 156.432V156.144H136.223V155.688C136.223 153.936 135.203 152.664 133.547 152.664C131.867 152.664 130.763 153.936 130.763 155.904C130.763 157.872 131.867 159.144 133.547 159.144ZM133.547 153.468C134.531 153.468 135.191 154.2 135.191 155.292V155.424H131.771V155.34C131.771 154.26 132.503 153.468 133.547 153.468ZM136.897 159H137.965L139.705 156.576H139.741L141.349 159H142.477L140.245 155.808L142.429 152.808H141.361L139.729 155.112H139.693L138.121 152.808H136.993L139.189 155.88L136.897 159ZM146.315 159V158.16H145.055V153.648H146.411V152.808H145.055V151.092H144.191V152.244C144.191 152.664 144.059 152.808 143.651 152.808H143.075V153.648H144.095V157.98C144.095 158.58 144.455 159 145.115 159H146.315ZM153.094 159.144C154.27 159.144 155.074 158.568 155.47 157.68L154.774 157.212C154.438 157.92 153.874 158.292 153.094 158.292C151.954 158.292 151.366 157.512 151.366 156.432V155.376C151.366 154.296 151.954 153.516 153.094 153.516C153.85 153.516 154.378 153.888 154.606 154.524L155.41 154.116C155.05 153.264 154.318 152.664 153.094 152.664C151.354 152.664 150.334 153.924 150.334 155.904C150.334 157.884 151.354 159.144 153.094 159.144ZM161.865 159V158.16H161.157V154.752C161.157 153.444 160.269 152.664 158.781 152.664C157.665 152.664 156.921 153.216 156.585 153.876L157.161 154.416C157.497 153.852 157.989 153.492 158.733 153.492C159.717 153.492 160.197 153.972 160.197 154.848V155.46H158.973C157.173 155.46 156.333 156.108 156.333 157.272C156.333 158.424 157.101 159.144 158.409 159.144C159.273 159.144 159.933 158.748 160.197 157.992H160.257C160.329 158.568 160.617 159 161.325 159H161.865ZM158.565 158.328C157.821 158.328 157.341 157.98 157.341 157.368V157.116C157.341 156.516 157.833 156.18 158.925 156.18H160.197V157.2C160.197 157.836 159.513 158.328 158.565 158.328ZM164.195 159V154.704C164.195 153.912 164.939 153.528 165.707 153.528C166.631 153.528 167.111 154.092 167.111 155.196V159H168.071V155.028C168.071 153.528 167.267 152.664 165.995 152.664C165.071 152.664 164.543 153.12 164.243 153.816H164.195V152.808H163.235V159H164.195ZM178.111 159.684C178.111 158.664 177.451 158.04 175.915 158.04H174.595C174.031 158.04 173.647 157.944 173.647 157.572C173.647 157.188 174.055 156.984 174.463 156.876C174.643 156.912 174.859 156.936 175.063 156.936C176.479 156.936 177.403 156.06 177.403 154.8C177.403 154.14 177.139 153.588 176.695 153.204V152.808H177.871V151.968H176.947C176.431 151.968 176.227 152.316 176.227 152.796V152.904C175.891 152.748 175.495 152.664 175.051 152.664C173.647 152.664 172.723 153.54 172.723 154.8C172.723 155.664 173.155 156.348 173.887 156.696V156.744C173.263 156.9 172.819 157.2 172.819 157.824C172.819 158.244 173.023 158.52 173.371 158.688V158.82C172.759 158.988 172.387 159.348 172.387 160.02C172.387 160.992 173.179 161.544 175.111 161.544C177.103 161.544 178.111 160.956 178.111 159.684ZM177.211 159.756C177.211 160.428 176.587 160.764 175.519 160.764H174.631C173.659 160.764 173.287 160.32 173.287 159.78C173.287 159.396 173.467 159.12 173.863 158.94H175.927C176.887 158.94 177.211 159.264 177.211 159.756ZM175.063 156.168C174.247 156.168 173.731 155.784 173.731 154.968V154.632C173.731 153.816 174.247 153.432 175.063 153.432C175.879 153.432 176.395 153.816 176.395 154.632V154.968C176.395 155.784 175.879 156.168 175.063 156.168ZM181.501 159.144C183.157 159.144 184.297 157.872 184.297 155.904C184.297 153.936 183.157 152.664 181.501 152.664C179.845 152.664 178.705 153.936 178.705 155.904C178.705 157.872 179.845 159.144 181.501 159.144ZM181.501 158.292C180.469 158.292 179.737 157.656 179.737 156.348V155.46C179.737 154.152 180.469 153.516 181.501 153.516C182.533 153.516 183.265 154.152 183.265 155.46V156.348C183.265 157.656 182.533 158.292 181.501 158.292ZM188.711 159H189.671V154.704C189.671 153.912 190.415 153.528 191.183 153.528C192.107 153.528 192.587 154.092 192.587 155.196V159H193.547V155.028C193.547 153.528 192.743 152.664 191.471 152.664C190.547 152.664 190.019 153.12 189.719 153.816H189.671V150.12H188.711V159ZM197.86 159.144C199.024 159.144 199.912 158.568 200.308 157.728L199.624 157.236C199.3 157.92 198.7 158.304 197.92 158.304C196.768 158.304 196.084 157.5 196.084 156.432V156.144H200.536V155.688C200.536 153.936 199.516 152.664 197.86 152.664C196.18 152.664 195.076 153.936 195.076 155.904C195.076 157.872 196.18 159.144 197.86 159.144ZM197.86 153.468C198.844 153.468 199.504 154.2 199.504 155.292V155.424H196.084V155.34C196.084 154.26 196.816 153.468 197.86 153.468ZM203.078 159V154.8C203.078 154.212 203.702 153.768 204.734 153.768H205.298V152.808H204.926C203.918 152.808 203.354 153.36 203.138 153.948H203.078V152.808H202.118V159H203.078ZM208.793 159.144C209.957 159.144 210.845 158.568 211.241 157.728L210.557 157.236C210.233 157.92 209.633 158.304 208.853 158.304C207.701 158.304 207.017 157.5 207.017 156.432V156.144H211.469V155.688C211.469 153.936 210.449 152.664 208.793 152.664C207.113 152.664 206.009 153.936 206.009 155.904C206.009 157.872 207.113 159.144 208.793 159.144ZM208.793 153.468C209.777 153.468 210.437 154.2 210.437 155.292V155.424H207.017V155.34C207.017 154.26 207.749 153.468 208.793 153.468ZM213.429 159.144C213.933 159.144 214.161 158.856 214.161 158.448V158.292C214.161 157.884 213.933 157.596 213.429 157.596C212.925 157.596 212.697 157.884 212.697 158.292V158.448C212.697 158.856 212.925 159.144 213.429 159.144Z" fill="#292929"/>
<rect x="76" y="26" width="24" height="24" rx="12" fill="#6E04C1"/>
<path d="M91.111 43V42.038H88.771V33.926H87.068L84.663 36.175L85.3 36.864L87.588 34.732H87.679V42.038H85.144V43H91.111Z" fill="white"/>
<line x1="88" y1="50" x2="88" y2="63" stroke="#8000E4"/>
<rect x="31" y="101" width="24" height="24" rx="12" fill="#6E04C1"/>
<path d="M45.474 108.926H40.612L40.287 113.918L41.21 114.048C41.587 113.632 42.003 113.281 42.835 113.281C44.07 113.281 44.733 113.97 44.733 115.166V115.296C44.733 116.492 44.07 117.181 42.835 117.181C41.743 117.181 41.288 116.7 40.82 115.985L40.001 116.609C40.547 117.389 41.327 118.156 42.835 118.156C44.746 118.156 45.89 116.921 45.89 115.153C45.89 113.398 44.746 112.345 43.186 112.345C42.237 112.345 41.756 112.735 41.327 113.346H41.236L41.496 109.888H45.474V108.926Z" fill="white"/>
<line x1="55" y1="113" x2="87" y2="113" stroke="#8000E4"/>
<rect x="31" y="143" width="24" height="24" rx="12" fill="#6E04C1"/>
<path d="M42.913 160.156C44.733 160.156 45.929 158.934 45.929 157.153C45.929 155.437 44.811 154.358 43.251 154.358C42.146 154.358 41.496 154.917 41.067 155.658L41.002 155.632C41.496 153.526 42.575 152.343 44.512 150.926H43.108C41.652 151.875 39.871 153.981 39.871 156.672C39.871 158.83 41.028 160.156 42.913 160.156ZM42.9 159.207C41.704 159.207 41.002 158.518 41.002 157.296V157.192C41.002 155.97 41.704 155.281 42.9 155.281C44.096 155.281 44.798 155.97 44.798 157.192V157.296C44.798 158.518 44.096 159.207 42.9 159.207Z" fill="white"/>
<line x1="55" y1="155.5" x2="72" y2="155.5" stroke="#8000E4"/>
<rect x="117" y="26" width="24" height="24" rx="12" fill="#6E04C1"/>
<path d="M131.929 42.038H127.158L129.602 39.841C130.759 38.801 131.591 37.813 131.591 36.409C131.591 34.862 130.577 33.77 128.809 33.77C127.054 33.77 126.248 34.836 125.897 35.902L126.872 36.279C127.119 35.421 127.639 34.745 128.757 34.745C129.875 34.745 130.434 35.434 130.434 36.435V36.591C130.434 37.462 129.784 38.372 128.939 39.152L125.975 41.882V43H131.929V42.038Z" fill="white"/>
<line x1="129.5" y1="50" x2="129.5" y2="101" stroke="#8000E4"/>
<rect x="263" y="26" width="24" height="24" rx="12" fill="#6E04C1"/>
<path d="M273.405 37.774V38.723H274.471C275.745 38.723 276.421 39.334 276.421 40.4V40.504C276.421 41.57 275.745 42.181 274.471 42.181C273.366 42.181 272.833 41.7 272.365 40.985L271.546 41.609C272.105 42.389 272.911 43.156 274.484 43.156C276.33 43.156 277.565 42.077 277.565 40.517C277.565 39.152 276.629 38.424 275.654 38.229V38.177C276.616 37.93 277.396 37.228 277.396 36.058C277.396 34.589 276.174 33.77 274.64 33.77C273.184 33.77 272.391 34.524 271.936 35.252L272.742 35.876C273.119 35.187 273.678 34.745 274.614 34.745C275.576 34.745 276.239 35.226 276.239 36.175V36.266C276.239 37.137 275.615 37.774 274.393 37.774H273.405Z" fill="white"/>
<line x1="275" y1="50" x2="275" y2="106" stroke="#8000E4"/>
<rect x="330" y="26" width="24" height="24" rx="12" fill="#6E04C1"/>
<path d="M343.915 43V41.219H345.228V40.309H343.915V33.926H342.29L338.494 40.257V41.219H342.875V43H343.915ZM342.81 34.771H342.875V40.309H339.521L342.81 34.771Z" fill="white"/>
<line x1="342" y1="50" x2="342" y2="87" stroke="#8000E4"/>
</svg>
