<svg width="324" height="274" viewBox="0 0 324 274" fill="none" xmlns="http://www.w3.org/2000/svg">
<g filter="url(#filter0_d_4459_111283)">
<rect x="46" y="43" width="231" height="212" rx="4" fill="white" shape-rendering="crispEdges"/>
<path d="M80.75 66V64.75H67V66H73.25V68.5H64.5V66H63.25V71H64.5V69.75H68.387L69.6703 74.8831C69.8386 75.5595 70.2286 76.1602 70.778 76.5892C71.3275 77.0182 72.0048 77.2508 72.7019 77.25H78.25C78.9128 77.2493 79.5483 76.9856 80.0169 76.5169C80.4856 76.0483 80.7493 75.4128 80.75 74.75V73.1014C80.7498 72.8091 80.6473 72.526 80.4601 72.3014L77.6677 68.95C77.5505 68.8091 77.4037 68.6957 77.2377 68.6179C77.0717 68.5401 76.8906 68.4999 76.7073 68.5H74.5V66H80.75ZM78.25 76H72.7019C72.2836 76.0005 71.8772 75.8609 71.5476 75.6035C71.2179 75.346 70.984 74.9856 70.8831 74.5797L69.6755 69.75H73.25V73.5H79.5V74.75C79.4996 75.0814 79.3678 75.3991 79.1335 75.6335C78.8991 75.8678 78.5814 75.9996 78.25 76V76ZM76.7073 69.75L78.7906 72.25H74.5V69.75H76.7073Z" fill="#292929"/>
<path d="M98.48 77H99.824V65.832H98.48V70.76H92.832V65.832H91.488V77H92.832V71.944H98.48V77ZM105.777 77.192C107.329 77.192 108.513 76.424 109.041 75.304L108.129 74.648C107.697 75.56 106.897 76.072 105.857 76.072C104.321 76.072 103.409 75 103.409 73.576V73.192H109.345V72.584C109.345 70.248 107.985 68.552 105.777 68.552C103.537 68.552 102.065 70.248 102.065 72.872C102.065 75.496 103.537 77.192 105.777 77.192ZM105.777 69.624C107.089 69.624 107.969 70.6 107.969 72.056V72.232H103.409V72.12C103.409 70.68 104.385 69.624 105.777 69.624ZM113.95 77V75.88H112.734V65.16H111.454V75.672C111.454 76.44 111.934 77 112.814 77H113.95ZM116.453 66.808C116.997 66.808 117.237 66.52 117.237 66.088V65.88C117.237 65.448 116.997 65.16 116.453 65.16C115.909 65.16 115.669 65.448 115.669 65.88V66.088C115.669 66.52 115.909 66.808 116.453 66.808ZM115.813 77H117.093V68.744H115.813V77ZM122.885 77.192C124.453 77.192 125.525 76.424 126.053 75.24L125.125 74.616C124.677 75.56 123.925 76.056 122.885 76.056C121.365 76.056 120.581 75.016 120.581 73.576V72.168C120.581 70.728 121.365 69.688 122.885 69.688C123.893 69.688 124.597 70.184 124.901 71.032L125.973 70.488C125.493 69.352 124.517 68.552 122.885 68.552C120.565 68.552 119.205 70.232 119.205 72.872C119.205 75.512 120.565 77.192 122.885 77.192ZM130.886 77.192C133.094 77.192 134.614 75.496 134.614 72.872C134.614 70.248 133.094 68.552 130.886 68.552C128.678 68.552 127.158 70.248 127.158 72.872C127.158 75.496 128.678 77.192 130.886 77.192ZM130.886 76.056C129.51 76.056 128.534 75.208 128.534 73.464V72.28C128.534 70.536 129.51 69.688 130.886 69.688C132.262 69.688 133.238 70.536 133.238 72.28V73.464C133.238 75.208 132.262 76.056 130.886 76.056ZM136.719 80.2H137.999V75.656H138.063C138.559 76.68 139.343 77.192 140.479 77.192C142.543 77.192 143.839 75.512 143.839 72.872C143.839 70.232 142.543 68.552 140.479 68.552C139.343 68.552 138.495 69.048 138.063 70.088H137.999V68.744H136.719V80.2ZM140.127 76.04C138.959 76.04 137.999 75.432 137.999 74.36V71.288C137.999 70.376 138.959 69.704 140.127 69.704C141.567 69.704 142.463 70.696 142.463 72.168V73.576C142.463 75.048 141.567 76.04 140.127 76.04ZM149.331 77V75.88H147.651V69.864H149.459V68.744H147.651V66.456H146.499V67.992C146.499 68.552 146.323 68.744 145.779 68.744H145.011V69.864H146.371V75.64C146.371 76.44 146.851 77 147.731 77H149.331ZM154.558 77.192C156.11 77.192 157.294 76.424 157.822 75.304L156.91 74.648C156.478 75.56 155.678 76.072 154.638 76.072C153.102 76.072 152.19 75 152.19 73.576V73.192H158.126V72.584C158.126 70.248 156.766 68.552 154.558 68.552C152.318 68.552 150.846 70.248 150.846 72.872C150.846 75.496 152.318 77.192 154.558 77.192ZM154.558 69.624C155.87 69.624 156.75 70.6 156.75 72.056V72.232H152.19V72.12C152.19 70.68 153.166 69.624 154.558 69.624ZM161.515 77V71.4C161.515 70.616 162.347 70.024 163.723 70.024H164.475V68.744H163.979C162.635 68.744 161.883 69.48 161.595 70.264H161.515V68.744H160.235V77H161.515Z" fill="#292929"/>
<path d="M78.2501 123C78.1951 123 78.1419 123.006 78.0876 123.008L77.1481 118.625H79.5001V117.375H76.3751C76.2818 117.375 76.1898 117.396 76.1056 117.436C76.0215 117.476 75.9474 117.535 75.8888 117.607C75.8302 117.68 75.7885 117.764 75.7669 117.855C75.7453 117.946 75.7442 118.04 75.7638 118.131L76.1376 119.875H69.7421L69.1171 118H70.7501V116.75H66.3751V118H67.8001L68.4507 119.952L66.8445 123.164C66.1155 122.941 65.3358 122.945 64.6093 123.176C63.8828 123.407 63.244 123.854 62.7781 124.458C62.3122 125.061 62.0413 125.792 62.0015 126.554C61.9616 127.315 62.1548 128.07 62.5553 128.719C62.9557 129.368 63.5444 129.879 64.2428 130.185C64.9412 130.491 65.7163 130.576 66.4645 130.43C67.2128 130.284 67.8988 129.913 68.4311 129.368C68.9634 128.822 69.3166 128.127 69.4438 127.375H71.0751C71.2625 127.375 71.4477 127.334 71.6167 127.252C71.7857 127.171 71.9342 127.053 72.0511 126.906L76.4626 121.391L76.8648 123.269C76.0002 123.615 75.2959 124.271 74.8893 125.109C74.4828 125.947 74.4032 126.907 74.6663 127.8C74.9293 128.694 75.516 129.457 76.3118 129.941C77.1075 130.425 78.0551 130.595 78.9695 130.418C79.8839 130.241 80.6994 129.729 81.2566 128.983C81.8138 128.236 82.0727 127.309 81.9828 126.382C81.8929 125.455 81.4606 124.595 80.7703 123.969C80.0801 123.344 79.1815 122.998 78.2501 123V123ZM65.7501 129.25C65.399 129.251 65.0517 129.178 64.7307 129.036C64.4097 128.894 64.1223 128.685 63.8871 128.425C63.6519 128.164 63.4743 127.857 63.3657 127.523C63.2572 127.189 63.2201 126.836 63.2571 126.487C63.294 126.138 63.404 125.801 63.58 125.497C63.756 125.193 63.994 124.93 64.2784 124.724C64.5629 124.518 64.8876 124.375 65.2312 124.303C65.5748 124.231 65.9297 124.232 66.2728 124.307L65.191 126.47L65.1966 126.473C65.1513 126.559 65.1268 126.653 65.1251 126.75C65.1241 126.891 65.1709 127.027 65.2579 127.138C65.3449 127.249 65.4668 127.326 65.6038 127.358C65.7407 127.391 65.8845 127.375 66.0116 127.315C66.1387 127.255 66.2416 127.153 66.3034 127.027L66.3091 127.03L67.3864 124.875C67.7718 125.207 68.0461 125.65 68.1723 126.143C68.2985 126.636 68.2706 127.156 68.0923 127.633C67.914 128.109 67.5939 128.52 67.1751 128.809C66.7563 129.098 66.259 129.252 65.7501 129.25V129.25ZM69.4438 126.125C69.2802 125.163 68.7481 124.303 67.9605 123.727L69.0097 121.629L70.5082 126.125H69.4438ZM71.6049 125.463L70.1588 121.125H75.0747L71.6049 125.463ZM78.2501 129.25C77.6874 129.252 77.1407 129.063 76.6989 128.714C76.2571 128.366 75.9463 127.878 75.8169 127.33C75.6875 126.783 75.7473 126.208 75.9864 125.698C76.2255 125.189 76.6299 124.775 77.1339 124.525L77.6388 126.881L77.6513 126.879C77.6788 127.017 77.7534 127.143 77.8624 127.233C77.9715 127.324 78.1084 127.374 78.2501 127.375C78.4158 127.375 78.5748 127.309 78.692 127.192C78.8092 127.075 78.8751 126.916 78.8751 126.75C78.8712 126.706 78.8625 126.663 78.8491 126.621L78.8616 126.619L78.3562 124.261C79.0092 124.287 79.6258 124.569 80.0734 125.045C80.521 125.521 80.7639 126.154 80.75 126.807C80.7361 127.461 80.4665 128.083 79.999 128.539C79.5316 128.996 78.9036 129.251 78.2501 129.25V129.25Z" fill="#292929"/>
<path d="M91.488 129H96.56C98.208 129 99.44 127.608 99.44 125.768C99.44 123.912 98.048 123.224 97.248 123.176V123.08C97.984 122.968 99.056 122.376 99.056 120.712C99.056 118.968 97.92 117.832 96.08 117.832H91.488V129ZM92.832 123.816H96.144C97.296 123.816 98 124.424 98 125.544V126.088C98 127.208 97.296 127.816 96.144 127.816H92.832V123.816ZM92.832 119.016H95.92C96.976 119.016 97.616 119.576 97.616 120.568V121.112C97.616 122.104 96.976 122.664 95.92 122.664H92.832V119.016ZM102.453 118.808C102.997 118.808 103.237 118.52 103.237 118.088V117.88C103.237 117.448 102.997 117.16 102.453 117.16C101.909 117.16 101.669 117.448 101.669 117.88V118.088C101.669 118.52 101.909 118.808 102.453 118.808ZM101.813 129H103.093V120.744H101.813V129ZM105.813 129H107.093V126.056L108.325 124.792L111.061 129H112.613L109.253 124.008L112.309 120.744H110.757L108.421 123.256L107.157 124.664H107.093V117.16H105.813V129ZM117.089 129.192C118.641 129.192 119.825 128.424 120.353 127.304L119.441 126.648C119.009 127.56 118.209 128.072 117.169 128.072C115.633 128.072 114.721 127 114.721 125.576V125.192H120.657V124.584C120.657 122.248 119.297 120.552 117.089 120.552C114.849 120.552 113.377 122.248 113.377 124.872C113.377 127.496 114.849 129.192 117.089 129.192ZM117.089 121.624C118.401 121.624 119.281 122.6 119.281 124.056V124.232H114.721V124.12C114.721 122.68 115.697 121.624 117.089 121.624Z" fill="#292929"/>
<path d="M80.6312 175L76.2562 169.025C76.2001 168.942 76.1248 168.874 76.0367 168.826C75.9486 168.778 75.8503 168.752 75.75 168.75H63.875C63.7092 168.75 63.5503 168.816 63.4331 168.933C63.3158 169.05 63.25 169.209 63.25 169.375V180C63.25 180.166 63.3158 180.325 63.4331 180.442C63.5503 180.559 63.7092 180.625 63.875 180.625H65.2125C65.3564 181.155 65.6706 181.622 66.1066 181.955C66.5426 182.289 67.0762 182.469 67.625 182.469C68.1738 182.469 68.7074 182.289 69.1434 181.955C69.5794 181.622 69.8936 181.155 70.0375 180.625H73.9625C74.1064 181.155 74.4206 181.622 74.8566 181.955C75.2926 182.289 75.8262 182.469 76.375 182.469C76.9238 182.469 77.4574 182.289 77.8934 181.955C78.3294 181.622 78.6436 181.155 78.7875 180.625H80.125C80.2908 180.625 80.4497 180.559 80.5669 180.442C80.6842 180.325 80.75 180.166 80.75 180V175.35C80.7466 175.224 80.7052 175.102 80.6312 175V175ZM74.5 170H75.4312L78.6375 174.375H74.5V170ZM64.5 170H73.25V174.375H64.5V170ZM67.625 181.25C67.3778 181.25 67.1361 181.177 66.9305 181.039C66.725 180.902 66.5648 180.707 66.4702 180.478C66.3755 180.25 66.3508 179.999 66.399 179.756C66.4472 179.514 66.5663 179.291 66.7411 179.116C66.9159 178.941 67.1387 178.822 67.3811 178.774C67.6236 178.726 67.8749 178.751 68.1034 178.845C68.3318 178.94 68.527 179.1 68.6643 179.306C68.8017 179.511 68.875 179.753 68.875 180C68.875 180.332 68.7433 180.649 68.5089 180.884C68.2745 181.118 67.9565 181.25 67.625 181.25ZM76.375 181.25C76.1278 181.25 75.8861 181.177 75.6805 181.039C75.475 180.902 75.3148 180.707 75.2202 180.478C75.1255 180.25 75.1008 179.999 75.149 179.756C75.1972 179.514 75.3163 179.291 75.4911 179.116C75.6659 178.941 75.8887 178.822 76.1311 178.774C76.3736 178.726 76.6249 178.751 76.8534 178.845C77.0818 178.94 77.277 179.1 77.4143 179.306C77.5517 179.511 77.625 179.753 77.625 180C77.625 180.332 77.4933 180.649 77.2589 180.884C77.0245 181.118 76.7065 181.25 76.375 181.25ZM79.5 179.375H78.7875C78.6436 178.845 78.3294 178.378 77.8934 178.045C77.4574 177.711 76.9238 177.531 76.375 177.531C75.8262 177.531 75.2926 177.711 74.8566 178.045C74.4206 178.378 74.1064 178.845 73.9625 179.375H70.0375C69.8936 178.845 69.5794 178.378 69.1434 178.045C68.7074 177.711 68.1738 177.531 67.625 177.531C67.0762 177.531 66.5426 177.711 66.1066 178.045C65.6706 178.378 65.3564 178.845 65.2125 179.375H64.5V175.625H79.5V179.375Z" fill="#292929"/>
<path d="M94.624 181.192C97.024 181.192 98.464 179.88 98.464 177.832C98.464 176.168 97.52 175.208 95.344 174.712L94.432 174.504C93.024 174.184 92.336 173.704 92.336 172.648C92.336 171.448 93.216 170.824 94.64 170.824C95.936 170.824 96.784 171.352 97.392 172.2L98.4 171.464C97.568 170.28 96.384 169.64 94.704 169.64C92.512 169.64 91.008 170.712 91.008 172.696C91.008 174.408 92.128 175.304 94.16 175.768L95.072 175.976C96.544 176.312 97.136 176.84 97.136 177.896C97.136 179.176 96.272 180.008 94.672 180.008C93.376 180.008 92.448 179.448 91.664 178.408L90.672 179.24C91.568 180.456 92.832 181.192 94.624 181.192ZM100.657 181H101.937V175.272C101.937 174.216 102.929 173.704 103.953 173.704C105.185 173.704 105.825 174.456 105.825 175.928V181H107.105V175.704C107.105 173.704 106.033 172.552 104.337 172.552C103.105 172.552 102.401 173.16 102.001 174.088H101.937V169.16H100.657V181ZM114.839 181H116.119V172.744H114.839V178.456C114.839 179.544 113.847 180.04 112.839 180.04C111.607 180.04 110.951 179.288 110.951 177.816V172.744H109.671V178.04C109.671 180.04 110.759 181.192 112.455 181.192C113.831 181.192 114.455 180.44 114.775 179.656H114.839V181ZM122.268 181V179.88H120.588V173.864H122.396V172.744H120.588V170.456H119.436V171.992C119.436 172.552 119.26 172.744 118.716 172.744H117.948V173.864H119.308V179.64C119.308 180.44 119.788 181 120.668 181H122.268ZM127.737 181V179.88H126.057V173.864H127.865V172.744H126.057V170.456H124.905V171.992C124.905 172.552 124.729 172.744 124.185 172.744H123.417V173.864H124.777V179.64C124.777 180.44 125.257 181 126.137 181H127.737ZM132.419 181V179.88H131.203V169.16H129.923V179.672C129.923 180.44 130.403 181 131.283 181H132.419ZM137.386 181.192C138.938 181.192 140.122 180.424 140.65 179.304L139.738 178.648C139.306 179.56 138.506 180.072 137.466 180.072C135.93 180.072 135.018 179 135.018 177.576V177.192H140.954V176.584C140.954 174.248 139.594 172.552 137.386 172.552C135.146 172.552 133.674 174.248 133.674 176.872C133.674 179.496 135.146 181.192 137.386 181.192ZM137.386 173.624C138.698 173.624 139.578 174.6 139.578 176.056V176.232H135.018V176.12C135.018 174.68 135.994 173.624 137.386 173.624Z" fill="#292929"/>
<path d="M80.3563 226.219L74.5 223.25V220.75C74.5 220.087 74.2366 219.451 73.7678 218.982C73.2989 218.513 72.663 218.25 72 218.25C71.337 218.25 70.7011 218.513 70.2322 218.982C69.7634 219.451 69.5 220.087 69.5 220.75V223.25L63.6438 226.219C63.5275 226.265 63.4278 226.345 63.3576 226.449C63.2873 226.552 63.2499 226.675 63.25 226.8V229.925C63.25 230.091 63.3158 230.25 63.4331 230.367C63.5503 230.484 63.7092 230.55 63.875 230.55C63.9366 230.549 63.9977 230.538 64.0563 230.519L69.5 228.25V231.375L67.3438 232.45C67.2397 232.502 67.1524 232.583 67.0917 232.682C67.0309 232.782 66.9992 232.896 67 233.013V235.125C67 235.291 67.0658 235.45 67.1831 235.567C67.3003 235.684 67.4592 235.75 67.625 235.75C67.683 235.759 67.742 235.759 67.8 235.75L72 234.5L76.2 235.75C76.258 235.759 76.317 235.759 76.375 235.75C76.5408 235.75 76.6997 235.684 76.8169 235.567C76.9342 235.45 77 235.291 77 235.125V233.013C77.0008 232.896 76.9691 232.782 76.9083 232.682C76.8476 232.583 76.7603 232.502 76.6563 232.45L74.5 231.375V228.25L79.9437 230.506C80.0023 230.526 80.0634 230.536 80.125 230.537C80.2908 230.537 80.4497 230.472 80.5669 230.354C80.6842 230.237 80.75 230.078 80.75 229.912V226.787C80.7476 226.664 80.709 226.545 80.639 226.444C80.5689 226.343 80.4706 226.264 80.3563 226.219ZM79.5 228.969L73.25 226.375V232.15L75.75 233.4V234.294L72 233.2L68.25 234.294V233.4L70.75 232.15V226.375L64.5 228.969V227.187L70.75 224.019V220.75C70.75 220.418 70.8817 220.101 71.1161 219.866C71.3505 219.632 71.6685 219.5 72 219.5C72.3315 219.5 72.6495 219.632 72.8839 219.866C73.1183 220.101 73.25 220.418 73.25 220.75V224.019L79.5 227.187V228.969Z" fill="#292929"/>
<path d="M92.832 233V228.232H95.936C97.936 228.232 99.056 227 99.056 225.032C99.056 223.064 97.936 221.832 95.936 221.832H91.488V233H92.832ZM92.832 223.016H95.936C96.992 223.016 97.616 223.592 97.616 224.616V225.448C97.616 226.472 96.992 227.048 95.936 227.048H92.832V223.016ZM103.559 233V231.88H102.343V221.16H101.063V231.672C101.063 232.44 101.543 233 102.423 233H103.559ZM112.142 233V231.88H111.199V227.336C111.199 225.592 110.015 224.552 108.031 224.552C106.543 224.552 105.551 225.288 105.103 226.168L105.871 226.888C106.319 226.136 106.975 225.656 107.967 225.656C109.279 225.656 109.919 226.296 109.919 227.464V228.28H108.286C105.887 228.28 104.767 229.144 104.767 230.696C104.767 232.232 105.791 233.192 107.535 233.192C108.687 233.192 109.567 232.664 109.919 231.656H109.999C110.095 232.424 110.479 233 111.423 233H112.142ZM107.743 232.104C106.751 232.104 106.111 231.64 106.111 230.824V230.488C106.111 229.688 106.767 229.24 108.223 229.24H109.919V230.6C109.919 231.448 109.007 232.104 107.743 232.104ZM115.249 233V227.272C115.249 226.216 116.241 225.704 117.265 225.704C118.497 225.704 119.137 226.456 119.137 227.928V233H120.417V227.704C120.417 225.704 119.345 224.552 117.649 224.552C116.417 224.552 115.713 225.16 115.313 226.088H115.249V224.744H113.969V233H115.249ZM126.167 233.192C127.719 233.192 128.903 232.424 129.431 231.304L128.519 230.648C128.087 231.56 127.287 232.072 126.247 232.072C124.711 232.072 123.799 231 123.799 229.576V229.192H129.735V228.584C129.735 226.248 128.375 224.552 126.167 224.552C123.927 224.552 122.455 226.248 122.455 228.872C122.455 231.496 123.927 233.192 126.167 233.192ZM126.167 225.624C127.479 225.624 128.359 226.6 128.359 228.056V228.232H123.799V228.12C123.799 226.68 124.775 225.624 126.167 225.624Z" fill="#292929"/>
<rect x="46.5" y="43.5" width="230" height="211" rx="3.5" stroke="black" stroke-opacity="0.102" shape-rendering="crispEdges"/>
</g>
<rect x="61" y="4" width="24" height="24" rx="12" fill="#6E04C1"/>
<path d="M76.111 21V20.038H73.771V11.926H72.068L69.663 14.175L70.3 14.864L72.588 12.732H72.679V20.038H70.144V21H76.111Z" fill="white"/>
<line x1="72.5" y1="62" x2="72.5" y2="26" stroke="#8000E4" stroke-dasharray="2 2"/>
<rect x="111" y="4" width="24" height="24" rx="12" fill="#6E04C1"/>
<path d="M125.929 20.038H121.158L123.602 17.841C124.759 16.801 125.591 15.813 125.591 14.409C125.591 12.862 124.577 11.77 122.809 11.77C121.054 11.77 120.248 12.836 119.897 13.902L120.872 14.279C121.119 13.421 121.639 12.745 122.757 12.745C123.875 12.745 124.434 13.434 124.434 14.435V14.591C124.434 15.462 123.784 16.372 122.939 17.152L119.975 19.882V21H125.929V20.038Z" fill="white"/>
<line x1="122.5" y1="62" x2="122.5" y2="26" stroke="#8000E4" stroke-dasharray="2 2"/>
<rect x="11" y="125" width="24" height="24" rx="12" fill="#6E04C1"/>
<path d="M21.405 136.774V137.723H22.471C23.745 137.723 24.421 138.334 24.421 139.4V139.504C24.421 140.57 23.745 141.181 22.471 141.181C21.366 141.181 20.833 140.7 20.365 139.985L19.546 140.609C20.105 141.389 20.911 142.156 22.484 142.156C24.33 142.156 25.565 141.077 25.565 139.517C25.565 138.152 24.629 137.424 23.654 137.229V137.177C24.616 136.93 25.396 136.228 25.396 135.058C25.396 133.589 24.174 132.77 22.64 132.77C21.184 132.77 20.391 133.524 19.936 134.252L20.742 134.876C21.119 134.187 21.678 133.745 22.614 133.745C23.576 133.745 24.239 134.226 24.239 135.175V135.266C24.239 136.137 23.615 136.774 22.393 136.774H21.405Z" fill="white"/>
<line x1="47" y1="137.5" x2="32" y2="137.5" stroke="#8000E4" stroke-dasharray="2 2"/>
<defs>
<filter id="filter0_d_4459_111283" x="43" y="40" width="237" height="218" filterUnits="userSpaceOnUse" color-interpolation-filters="sRGB">
<feFlood flood-opacity="0" result="BackgroundImageFix"/>
<feColorMatrix in="SourceAlpha" type="matrix" values="0 0 0 0 0 0 0 0 0 0 0 0 0 0 0 0 0 0 127 0" result="hardAlpha"/>
<feOffset/>
<feGaussianBlur stdDeviation="1.5"/>
<feComposite in2="hardAlpha" operator="out"/>
<feColorMatrix type="matrix" values="0 0 0 0 0 0 0 0 0 0 0 0 0 0 0 0 0 0 0.1 0"/>
<feBlend mode="normal" in2="BackgroundImageFix" result="effect1_dropShadow_4459_111283"/>
<feBlend mode="normal" in="SourceGraphic" in2="effect1_dropShadow_4459_111283" result="shape"/>
</filter>
</defs>
</svg>
