<svg width="413" height="199" viewBox="0 0 413 199" fill="none" xmlns="http://www.w3.org/2000/svg">
<rect x="74" y="90" width="308" height="46" rx="3" fill="white"/>
<path d="M109.695 113.04L106.35 111.605L105.08 109.435L105.04 109.375C104.946 109.258 104.828 109.164 104.693 109.099C104.558 109.034 104.41 109 104.26 109H100.26C100.095 108.999 99.9322 109.04 99.7865 109.117C99.6408 109.195 99.5166 109.308 99.425 109.445L97.73 112H96.5C96.3674 112 96.2402 112.053 96.1464 112.146C96.0527 112.24 96 112.367 96 112.5V117C96 117.133 96.0527 117.26 96.1464 117.354C96.2402 117.447 96.3674 117.5 96.5 117.5H97.57C97.6851 117.924 97.9365 118.298 98.2853 118.564C98.6341 118.831 99.0609 118.975 99.5 118.975C99.9391 118.975 100.366 118.831 100.715 118.564C101.063 118.298 101.315 117.924 101.43 117.5H104.57C104.685 117.924 104.937 118.298 105.285 118.564C105.634 118.831 106.061 118.975 106.5 118.975C106.939 118.975 107.366 118.831 107.715 118.564C108.063 118.298 108.315 117.924 108.43 117.5H109.5C109.633 117.5 109.76 117.447 109.854 117.354C109.947 117.26 110 117.133 110 117V113.5C110 113.402 109.971 113.306 109.917 113.224C109.862 113.142 109.785 113.078 109.695 113.04ZM99.5 118C99.3022 118 99.1089 117.941 98.9444 117.831C98.78 117.722 98.6518 117.565 98.5761 117.383C98.5004 117.2 98.4806 116.999 98.5192 116.805C98.5578 116.611 98.653 116.433 98.7929 116.293C98.9327 116.153 99.1109 116.058 99.3049 116.019C99.4989 115.981 99.7 116 99.8827 116.076C100.065 116.152 100.222 116.28 100.331 116.444C100.441 116.609 100.5 116.802 100.5 117C100.5 117.265 100.395 117.52 100.207 117.707C100.02 117.895 99.7652 118 99.5 118ZM106.5 118C106.302 118 106.109 117.941 105.944 117.831C105.78 117.722 105.652 117.565 105.576 117.383C105.5 117.2 105.481 116.999 105.519 116.805C105.558 116.611 105.653 116.433 105.793 116.293C105.933 116.153 106.111 116.058 106.305 116.019C106.499 115.981 106.7 116 106.883 116.076C107.065 116.152 107.222 116.28 107.331 116.444C107.441 116.609 107.5 116.802 107.5 117C107.5 117.265 107.395 117.52 107.207 117.707C107.02 117.895 106.765 118 106.5 118ZM109 116.5H108.43C108.315 116.076 108.063 115.702 107.715 115.436C107.366 115.169 106.939 115.024 106.5 115.024C106.061 115.024 105.634 115.169 105.285 115.436C104.937 115.702 104.685 116.076 104.57 116.5H101.43C101.315 116.076 101.063 115.702 100.715 115.436C100.366 115.169 99.9391 115.024 99.5 115.024C99.0609 115.024 98.6341 115.169 98.2853 115.436C97.9365 115.702 97.6851 116.076 97.57 116.5H97V113H98C98.0824 113 98.1633 112.979 98.2357 112.94C98.3081 112.9 98.3697 112.844 98.415 112.775L100.27 110H104.27L105.585 112.25C105.639 112.343 105.721 112.417 105.82 112.46L109 113.83V116.5Z" fill="#292929"/>
<path d="M118.588 118V117.16H117.328V112.648H118.684V111.808H117.328V110.092H116.464V111.244C116.464 111.664 116.332 111.808 115.924 111.808H115.348V112.648H116.368V116.98C116.368 117.58 116.728 118 117.388 118H118.588ZM125.267 118V117.16H124.559V113.752C124.559 112.444 123.671 111.664 122.183 111.664C121.067 111.664 120.323 112.216 119.987 112.876L120.563 113.416C120.899 112.852 121.391 112.492 122.135 112.492C123.119 112.492 123.599 112.972 123.599 113.848V114.46H122.375C120.575 114.46 119.735 115.108 119.735 116.272C119.735 117.424 120.503 118.144 121.811 118.144C122.675 118.144 123.335 117.748 123.599 116.992H123.659C123.731 117.568 124.019 118 124.727 118H125.267ZM121.967 117.328C121.223 117.328 120.743 116.98 120.743 116.368V116.116C120.743 115.516 121.235 115.18 122.327 115.18H123.599V116.2C123.599 116.836 122.915 117.328 121.967 117.328ZM131.857 118.684C131.857 117.664 131.197 117.04 129.661 117.04H128.341C127.777 117.04 127.393 116.944 127.393 116.572C127.393 116.188 127.801 115.984 128.209 115.876C128.389 115.912 128.605 115.936 128.809 115.936C130.225 115.936 131.149 115.06 131.149 113.8C131.149 113.14 130.885 112.588 130.441 112.204V111.808H131.617V110.968H130.693C130.177 110.968 129.973 111.316 129.973 111.796V111.904C129.637 111.748 129.241 111.664 128.797 111.664C127.393 111.664 126.469 112.54 126.469 113.8C126.469 114.664 126.901 115.348 127.633 115.696V115.744C127.009 115.9 126.565 116.2 126.565 116.824C126.565 117.244 126.769 117.52 127.117 117.688V117.82C126.505 117.988 126.133 118.348 126.133 119.02C126.133 119.992 126.925 120.544 128.857 120.544C130.849 120.544 131.857 119.956 131.857 118.684ZM130.957 118.756C130.957 119.428 130.333 119.764 129.265 119.764H128.377C127.405 119.764 127.033 119.32 127.033 118.78C127.033 118.396 127.213 118.12 127.609 117.94H129.673C130.633 117.94 130.957 118.264 130.957 118.756ZM128.809 115.168C127.993 115.168 127.477 114.784 127.477 113.968V113.632C127.477 112.816 127.993 112.432 128.809 112.432C129.625 112.432 130.141 112.816 130.141 113.632V113.968C130.141 114.784 129.625 115.168 128.809 115.168Z" fill="#292929"/>
<path d="M148 109.7L147.3 109L144 112.3L140.7 109L140 109.7L143.3 113L140 116.3L140.7 117L144 113.7L147.3 117L148 116.3L144.7 113L148 109.7Z" fill="#292929"/>
<rect x="89.5" y="100.5" width="68" height="25" rx="3.5" stroke="black" stroke-opacity="0.102"/>
<path d="M357 116.75L350.75 110.5L351.625 109.625L357 115L362.375 109.625L363.25 110.5L357 116.75Z" fill="#292929"/>
<rect x="74" y="90" width="308" height="46" rx="3" stroke="#CC0000" stroke-width="2"/>
<rect x="73" y="145" width="310" height="34" rx="4" fill="#FEDFDF"/>
<path d="M99.9436 167.269L93.4436 154.769C93.4014 154.688 93.3377 154.62 93.2595 154.573C93.1813 154.525 93.0915 154.5 93 154.5C92.9085 154.5 92.8187 154.525 92.7405 154.573C92.6623 154.62 92.5986 154.688 92.5564 154.769L86.0564 167.269C86.0168 167.346 85.9974 167.431 86.0003 167.517C86.0031 167.602 86.028 167.686 86.0726 167.759C86.1172 167.833 86.1799 167.894 86.2548 167.936C86.3296 167.978 86.4141 168 86.5 168H99.5C99.5859 168 99.6704 167.978 99.7452 167.936C99.8201 167.894 99.8828 167.833 99.9274 167.759C99.972 167.686 99.9969 167.602 99.9997 167.517C100.003 167.431 99.9832 167.346 99.9436 167.269ZM92.4375 158.5H93.5625V163.5H92.4375V158.5ZM93 166.5C92.8517 166.5 92.7067 166.456 92.5833 166.374C92.46 166.291 92.3639 166.174 92.3071 166.037C92.2503 165.9 92.2355 165.749 92.2644 165.604C92.2934 165.458 92.3648 165.325 92.4697 165.22C92.5746 165.115 92.7082 165.043 92.8537 165.014C92.9992 164.985 93.15 165 93.287 165.057C93.4241 165.114 93.5412 165.21 93.6236 165.333C93.706 165.457 93.75 165.602 93.75 165.75C93.75 165.949 93.671 166.14 93.5303 166.28C93.3897 166.421 93.1989 166.5 93 166.5Z" fill="#CC0000"/>
<path d="M116.416 167L113.488 158.624H112.204L109.276 167H110.296L111.136 164.528H114.52L115.36 167H116.416ZM114.268 163.64H111.376L112.792 159.56H112.852L114.268 163.64ZM119.58 167V166.16H118.668V158.12H117.708V166.004C117.708 166.58 118.068 167 118.728 167H119.58ZM123.305 167.144C124.469 167.144 125.357 166.568 125.753 165.728L125.069 165.236C124.745 165.92 124.145 166.304 123.365 166.304C122.213 166.304 121.529 165.5 121.529 164.432V164.144H125.981V163.688C125.981 161.936 124.961 160.664 123.305 160.664C121.625 160.664 120.521 161.936 120.521 163.904C120.521 165.872 121.625 167.144 123.305 167.144ZM123.305 161.468C124.289 161.468 124.949 162.2 124.949 163.292V163.424H121.529V163.34C121.529 162.26 122.261 161.468 123.305 161.468ZM128.523 167V162.8C128.523 162.212 129.147 161.768 130.179 161.768H130.743V160.808H130.371C129.363 160.808 128.799 161.36 128.583 161.948H128.523V160.808H127.563V167H128.523ZM134.584 167V166.16H133.324V161.648H134.68V160.808H133.324V159.092H132.46V160.244C132.46 160.664 132.328 160.808 131.92 160.808H131.344V161.648H132.364V165.98C132.364 166.58 132.724 167 133.384 167H134.584ZM141.627 167V166.16H140.367V161.648H141.723V160.808H140.367V159.092H139.503V160.244C139.503 160.664 139.371 160.808 138.963 160.808H138.387V161.648H139.407V165.98C139.407 166.58 139.767 167 140.427 167H141.627ZM145.547 167.144C146.711 167.144 147.599 166.568 147.995 165.728L147.311 165.236C146.987 165.92 146.387 166.304 145.607 166.304C144.455 166.304 143.771 165.5 143.771 164.432V164.144H148.223V163.688C148.223 161.936 147.203 160.664 145.547 160.664C143.867 160.664 142.763 161.936 142.763 163.904C142.763 165.872 143.867 167.144 145.547 167.144ZM145.547 161.468C146.531 161.468 147.191 162.2 147.191 163.292V163.424H143.771V163.34C143.771 162.26 144.503 161.468 145.547 161.468ZM148.897 167H149.965L151.705 164.576H151.741L153.349 167H154.477L152.245 163.808L154.429 160.808H153.361L151.729 163.112H151.693L150.121 160.808H148.993L151.189 163.88L148.897 167ZM158.315 167V166.16H157.055V161.648H158.411V160.808H157.055V159.092H156.191V160.244C156.191 160.664 156.059 160.808 155.651 160.808H155.075V161.648H156.095V165.98C156.095 166.58 156.455 167 157.115 167H158.315ZM165.094 167.144C166.27 167.144 167.074 166.568 167.47 165.68L166.774 165.212C166.438 165.92 165.874 166.292 165.094 166.292C163.954 166.292 163.366 165.512 163.366 164.432V163.376C163.366 162.296 163.954 161.516 165.094 161.516C165.85 161.516 166.378 161.888 166.606 162.524L167.41 162.116C167.05 161.264 166.318 160.664 165.094 160.664C163.354 160.664 162.334 161.924 162.334 163.904C162.334 165.884 163.354 167.144 165.094 167.144ZM173.865 167V166.16H173.157V162.752C173.157 161.444 172.269 160.664 170.781 160.664C169.665 160.664 168.921 161.216 168.585 161.876L169.161 162.416C169.497 161.852 169.989 161.492 170.733 161.492C171.717 161.492 172.197 161.972 172.197 162.848V163.46H170.973C169.173 163.46 168.333 164.108 168.333 165.272C168.333 166.424 169.101 167.144 170.409 167.144C171.273 167.144 171.933 166.748 172.197 165.992H172.257C172.329 166.568 172.617 167 173.325 167H173.865ZM170.565 166.328C169.821 166.328 169.341 165.98 169.341 165.368V165.116C169.341 164.516 169.833 164.18 170.925 164.18H172.197V165.2C172.197 165.836 171.513 166.328 170.565 166.328ZM176.195 167V162.704C176.195 161.912 176.939 161.528 177.707 161.528C178.631 161.528 179.111 162.092 179.111 163.196V167H180.071V163.028C180.071 161.528 179.267 160.664 177.995 160.664C177.071 160.664 176.543 161.12 176.243 161.816H176.195V160.808H175.235V167H176.195ZM190.111 167.684C190.111 166.664 189.451 166.04 187.915 166.04H186.595C186.031 166.04 185.647 165.944 185.647 165.572C185.647 165.188 186.055 164.984 186.463 164.876C186.643 164.912 186.859 164.936 187.063 164.936C188.479 164.936 189.403 164.06 189.403 162.8C189.403 162.14 189.139 161.588 188.695 161.204V160.808H189.871V159.968H188.947C188.431 159.968 188.227 160.316 188.227 160.796V160.904C187.891 160.748 187.495 160.664 187.051 160.664C185.647 160.664 184.723 161.54 184.723 162.8C184.723 163.664 185.155 164.348 185.887 164.696V164.744C185.263 164.9 184.819 165.2 184.819 165.824C184.819 166.244 185.023 166.52 185.371 166.688V166.82C184.759 166.988 184.387 167.348 184.387 168.02C184.387 168.992 185.179 169.544 187.111 169.544C189.103 169.544 190.111 168.956 190.111 167.684ZM189.211 167.756C189.211 168.428 188.587 168.764 187.519 168.764H186.631C185.659 168.764 185.287 168.32 185.287 167.78C185.287 167.396 185.467 167.12 185.863 166.94H187.927C188.887 166.94 189.211 167.264 189.211 167.756ZM187.063 164.168C186.247 164.168 185.731 163.784 185.731 162.968V162.632C185.731 161.816 186.247 161.432 187.063 161.432C187.879 161.432 188.395 161.816 188.395 162.632V162.968C188.395 163.784 187.879 164.168 187.063 164.168ZM193.501 167.144C195.157 167.144 196.297 165.872 196.297 163.904C196.297 161.936 195.157 160.664 193.501 160.664C191.845 160.664 190.705 161.936 190.705 163.904C190.705 165.872 191.845 167.144 193.501 167.144ZM193.501 166.292C192.469 166.292 191.737 165.656 191.737 164.348V163.46C191.737 162.152 192.469 161.516 193.501 161.516C194.533 161.516 195.265 162.152 195.265 163.46V164.348C195.265 165.656 194.533 166.292 193.501 166.292ZM200.711 167H201.671V162.704C201.671 161.912 202.415 161.528 203.183 161.528C204.107 161.528 204.587 162.092 204.587 163.196V167H205.547V163.028C205.547 161.528 204.743 160.664 203.471 160.664C202.547 160.664 202.019 161.12 201.719 161.816H201.671V158.12H200.711V167ZM209.86 167.144C211.024 167.144 211.912 166.568 212.308 165.728L211.624 165.236C211.3 165.92 210.7 166.304 209.92 166.304C208.768 166.304 208.084 165.5 208.084 164.432V164.144H212.536V163.688C212.536 161.936 211.516 160.664 209.86 160.664C208.18 160.664 207.076 161.936 207.076 163.904C207.076 165.872 208.18 167.144 209.86 167.144ZM209.86 161.468C210.844 161.468 211.504 162.2 211.504 163.292V163.424H208.084V163.34C208.084 162.26 208.816 161.468 209.86 161.468ZM215.078 167V162.8C215.078 162.212 215.702 161.768 216.734 161.768H217.298V160.808H216.926C215.918 160.808 215.354 161.36 215.138 161.948H215.078V160.808H214.118V167H215.078ZM220.793 167.144C221.957 167.144 222.845 166.568 223.241 165.728L222.557 165.236C222.233 165.92 221.633 166.304 220.853 166.304C219.701 166.304 219.017 165.5 219.017 164.432V164.144H223.469V163.688C223.469 161.936 222.449 160.664 220.793 160.664C219.113 160.664 218.009 161.936 218.009 163.904C218.009 165.872 219.113 167.144 220.793 167.144ZM220.793 161.468C221.777 161.468 222.437 162.2 222.437 163.292V163.424H219.017V163.34C219.017 162.26 219.749 161.468 220.793 161.468ZM225.429 167.144C225.933 167.144 226.161 166.856 226.161 166.448V166.292C226.161 165.884 225.933 165.596 225.429 165.596C224.925 165.596 224.697 165.884 224.697 166.292V166.448C224.697 166.856 224.925 167.144 225.429 167.144Z" fill="#CC0000"/>
<rect x="31" y="150" width="24" height="24" rx="12" fill="#6E04C1"/>
<path d="M42.9 167.156C44.967 167.156 46.046 166.025 46.046 164.53C46.046 163.295 45.305 162.58 44.213 162.281V162.177C45.162 161.852 45.773 161.085 45.773 160.045C45.773 158.667 44.707 157.77 42.9 157.77C41.093 157.77 40.027 158.667 40.027 160.045C40.027 161.085 40.638 161.852 41.587 162.177V162.281C40.495 162.58 39.754 163.295 39.754 164.53C39.754 166.025 40.833 167.156 42.9 167.156ZM42.9 166.207C41.639 166.207 40.911 165.609 40.911 164.582V164.309C40.911 163.282 41.639 162.684 42.9 162.684C44.161 162.684 44.889 163.282 44.889 164.309V164.582C44.889 165.609 44.161 166.207 42.9 166.207ZM42.9 161.774C41.769 161.774 41.158 161.267 41.158 160.344V160.149C41.158 159.226 41.769 158.719 42.9 158.719C44.031 158.719 44.642 159.226 44.642 160.149V160.344C44.642 161.267 44.031 161.774 42.9 161.774Z" fill="white"/>
<line x1="55" y1="162.5" x2="71" y2="162.5" stroke="#8000E4"/>
<rect x="31" y="101" width="24" height="24" rx="12" fill="#6E04C1"/>
<path d="M42.445 118L45.851 109.888V108.926H39.897V111.552H40.872V109.862H44.746L41.275 118H42.445Z" fill="white"/>
<line x1="55" y1="113" x2="85" y2="113" stroke="#8000E4"/>
</svg>
