<svg width="302" height="131" viewBox="0 0 302 131" fill="none" xmlns="http://www.w3.org/2000/svg">
<path d="M71.0625 58.5C69.8125 58.5 68.625 59 67.75 59.875L67 60.625L66.3125 59.9375C64.5 58.0625 61.5 58.0625 59.6875 59.875L59.625 59.9375C57.75 61.8125 57.75 64.8125 59.625 66.6875L67 74.125L74.375 66.6875C76.25 64.8125 76.25 61.8125 74.375 59.9375C73.5 59 72.3125 58.5 71.0625 58.5Z" fill="#292929"/>
<path d="M95.3494 72L91.5414 60.832H89.2694L85.4614 72H87.3014L88.2774 68.976H92.4534L93.4614 72H95.3494ZM92.0054 67.424H88.7094L90.3254 62.496H90.4054L92.0054 67.424ZM100.167 72.192C101.767 72.192 102.903 71.44 103.447 70.08L102.119 69.376C101.767 70.208 101.175 70.752 100.167 70.752C98.8871 70.752 98.2311 69.872 98.2311 68.592V67.104C98.2311 65.824 98.8871 64.944 100.167 64.944C101.111 64.944 101.703 65.44 101.943 66.208L103.383 65.536C102.887 64.304 101.831 63.488 100.167 63.488C97.7671 63.488 96.3911 65.184 96.3911 67.84C96.3911 70.496 97.7671 72.192 100.167 72.192ZM108.931 72V70.576H107.315V65.104H109.059V63.68H107.315V61.408H105.747V62.864C105.747 63.44 105.555 63.68 104.979 63.68H104.275V65.104H105.571V70.192C105.571 71.328 106.211 72 107.411 72H108.931ZM111.831 62.192C112.551 62.192 112.855 61.808 112.855 61.28V61.008C112.855 60.48 112.551 60.096 111.831 60.096C111.111 60.096 110.791 60.48 110.791 61.008V61.28C110.791 61.808 111.111 62.192 111.831 62.192ZM110.951 72H112.695V63.68H110.951V72ZM119.042 72L121.906 63.68H120.242L118.946 67.472L118.098 70.384H118.002L117.154 67.472L115.89 63.68H114.162L116.994 72H119.042ZM126.512 72.192C128.064 72.192 129.28 71.52 129.904 70.512L128.88 69.504C128.4 70.272 127.712 70.752 126.688 70.752C125.28 70.752 124.496 69.84 124.496 68.56V68.288H130.208V67.632C130.208 65.328 128.96 63.488 126.512 63.488C124.144 63.488 122.688 65.184 122.688 67.84C122.688 70.496 124.144 72.192 126.512 72.192ZM126.512 64.848C127.664 64.848 128.368 65.696 128.368 66.976V67.136H124.496V67.024C124.496 65.744 125.312 64.848 126.512 64.848Z" fill="#292929"/>
<rect width="106" height="4" transform="matrix(1 0 0 -1 41 90)" fill="#292929"/>
<path d="M177.062 58.5C175.812 58.5 174.625 59 173.75 59.875L173 60.625L172.312 59.9375C170.5 58.0625 167.5 58.0625 165.688 59.875L165.625 59.9375C163.75 61.8125 163.75 64.8125 165.625 66.6875L173 74.125L180.375 66.6875C182.25 64.8125 182.25 61.8125 180.375 59.9375C179.5 59 178.312 58.5 177.062 58.5Z" fill="#292929"/>
<path d="M192.556 72H196.508C199.356 72 201.228 70.144 201.228 66.416C201.228 62.688 199.356 60.832 196.508 60.832H192.556V72ZM194.364 70.4V62.432H196.508C198.172 62.432 199.292 63.504 199.292 65.52V67.312C199.292 69.328 198.172 70.4 196.508 70.4H194.364ZM206.614 72.192C208.166 72.192 209.382 71.52 210.006 70.512L208.982 69.504C208.502 70.272 207.814 70.752 206.79 70.752C205.382 70.752 204.598 69.84 204.598 68.56V68.288H210.31V67.632C210.31 65.328 209.062 63.488 206.614 63.488C204.246 63.488 202.79 65.184 202.79 67.84C202.79 70.496 204.246 72.192 206.614 72.192ZM206.614 64.848C207.766 64.848 208.47 65.696 208.47 66.976V67.136H204.598V67.024C204.598 65.744 205.414 64.848 206.614 64.848ZM212.672 72H214.416V65.104H216.16V63.68H214.416V61.584H216.16V60.16H214.784C213.392 60.16 212.672 60.96 212.672 62.304V63.68H211.408V65.104H212.672V72ZM224.75 72V70.576H223.87V66.4C223.87 64.544 222.67 63.488 220.526 63.488C218.91 63.488 217.934 64.176 217.39 65.104L218.43 66.048C218.846 65.392 219.438 64.912 220.414 64.912C221.582 64.912 222.126 65.504 222.126 66.512V67.216H220.622C218.302 67.216 217.07 68.064 217.07 69.712C217.07 71.216 218.046 72.192 219.758 72.192C220.974 72.192 221.87 71.648 222.19 70.608H222.27C222.382 71.424 222.862 72 223.774 72H224.75ZM220.254 70.864C219.39 70.864 218.846 70.48 218.846 69.744V69.456C218.846 68.736 219.438 68.336 220.654 68.336H222.126V69.536C222.126 70.352 221.326 70.864 220.254 70.864ZM231.499 72H233.243V63.68H231.499V69.248C231.499 70.224 230.619 70.688 229.723 70.688C228.651 70.688 228.123 70.016 228.123 68.752V63.68H226.379V68.976C226.379 71.024 227.387 72.192 229.099 72.192C230.475 72.192 231.131 71.44 231.435 70.624H231.499V72ZM238.636 72V70.576H237.484V60.16H235.74V70.272C235.74 71.344 236.332 72 237.516 72H238.636ZM244.049 72V70.576H242.433V65.104H244.177V63.68H242.433V61.408H240.865V62.864C240.865 63.44 240.673 63.68 240.097 63.68H239.393V65.104H240.689V70.192C240.689 71.328 241.329 72 242.529 72H244.049Z" fill="#292929"/>
<rect x="56" y="10" width="24" height="24" rx="12" fill="#6E04C1"/>
<path d="M71.111 27V26.038H68.771V17.926H67.068L64.663 20.175L65.3 20.864L67.588 18.732H67.679V26.038H65.144V27H71.111Z" fill="white"/>
<line x1="67.5" y1="34" x2="67.5" y2="58" stroke="#8000E4" stroke-dasharray="2 2"/>
<rect x="96" y="10" width="24" height="24" rx="12" fill="#6E04C1"/>
<path d="M110.929 26.038H106.158L108.602 23.841C109.759 22.801 110.591 21.813 110.591 20.409C110.591 18.862 109.577 17.77 107.809 17.77C106.054 17.77 105.248 18.836 104.897 19.902L105.872 20.279C106.119 19.421 106.639 18.745 107.757 18.745C108.875 18.745 109.434 19.434 109.434 20.435V20.591C109.434 21.462 108.784 22.372 107.939 23.152L104.975 25.882V27H110.929V26.038Z" fill="white"/>
<line x1="107.5" y1="34" x2="107.5" y2="58" stroke="#8000E4" stroke-dasharray="2 2"/>
<rect x="95" y="98" width="24" height="24" rx="12" fill="#6E04C1"/>
<path d="M105.405 109.774V110.723H106.471C107.745 110.723 108.421 111.334 108.421 112.4V112.504C108.421 113.57 107.745 114.181 106.471 114.181C105.366 114.181 104.833 113.7 104.365 112.985L103.546 113.609C104.105 114.389 104.911 115.156 106.484 115.156C108.33 115.156 109.565 114.077 109.565 112.517C109.565 111.152 108.629 110.424 107.654 110.229V110.177C108.616 109.93 109.396 109.228 109.396 108.058C109.396 106.589 108.174 105.77 106.64 105.77C105.184 105.77 104.391 106.524 103.936 107.252L104.742 107.876C105.119 107.187 105.678 106.745 106.614 106.745C107.576 106.745 108.239 107.226 108.239 108.175V108.266C108.239 109.137 107.615 109.774 106.393 109.774H105.405Z" fill="white"/>
<line x1="107.5" y1="103" x2="107.5" y2="90" stroke="#8000E4" stroke-dasharray="2 2"/>
</svg>
