<svg width="174" height="104" viewBox="0 0 174 104" fill="none" xmlns="http://www.w3.org/2000/svg">
<rect x="34" y="19" width="66" height="36" rx="18" fill="white"/>
<rect x="39" y="24" width="26" height="26" rx="13" fill="#292929"/>
<rect x="34" y="19" width="66" height="36" rx="18" stroke="#E5E5E5" stroke-width="2"/>
<rect x="39" y="67" width="24" height="24" rx="12" fill="#6E04C1"/>
<path d="M54.111 84V83.038H51.771V74.926H50.068L47.663 77.175L48.3 77.864L50.588 75.732H50.679V83.038H48.144V84H54.111Z" fill="white"/>
<line x1="51.5" y1="72" x2="51.5" y2="50" stroke="#8000E4" stroke-dasharray="2 2"/>
<rect x="116" y="25" width="24" height="24" rx="12" fill="#6E04C1"/>
<path d="M130.929 41.038H126.158L128.602 38.841C129.759 37.801 130.591 36.813 130.591 35.409C130.591 33.862 129.577 32.77 127.809 32.77C126.054 32.77 125.248 33.836 124.897 34.902L125.872 35.279C126.119 34.421 126.639 33.745 127.757 33.745C128.875 33.745 129.434 34.434 129.434 35.435V35.591C129.434 36.462 128.784 37.372 127.939 38.152L124.975 40.882V42H130.929V41.038Z" fill="white"/>
<line x1="121" y1="37.5" x2="99" y2="37.5" stroke="#8000E4" stroke-dasharray="2 2"/>
</svg>
