<svg xmlns="http://www.w3.org/2000/svg" width="504" height="924" viewBox="0 0 504 924">
  <g fill="none" fill-rule="evenodd" transform="translate(-292 -192)">
    <g transform="translate(122.543 533.125)">
      <rect width="190.901" height="235.276" x="384.302" y="232.773" fill="#FDEA6B"/>
      <path fill="#FFDBB4" d="M328.621519,2.64759484 C349.199596,-13.0349642 400.861947,-20.0874019 422.824677,-4.9871925 C444.517313,10.1764246 446.882177,34.6980695 456.990735,57.2561922 C466.528259,52.75508 482.278462,59.2014207 485.043602,68.0584748 C488.473143,72.235874 488.627171,83.9724386 490.99217,89.5881913 C593.896725,105.981584 609.519559,186.274618 621.905585,277.429857 C638.291353,369.929173 675.488612,462.226585 659.340428,557.409882 C661.444502,560.456789 663.103419,563.418595 664.637293,566.936054 C668.312753,573.195061 663.578587,582.054618 656.165144,581.711716 C646.569266,580.868227 637.068422,579.716877 627.427529,579.357288 C600.701672,578.428373 573.951409,578.539126 547.215405,578.879081 L543.569678,578.926783 C408.828084,580.605419 274.093993,583.913465 139.346563,584.790762 C134.458176,584.797836 132.064833,580.41019 132.717563,576.08178 C134.032192,567.367393 135.251788,558.648835 136.524736,549.930277 C104.653518,558.355157 70.771592,560.475143 38.9904054,550.816316 C36.7671228,548.54949 44.1705621,549.778432 45.3451422,549.433861 C16.0965137,529.431235 24.8312549,487.292649 27.4221669,456.942054 C43.5328376,352.944253 49.2123367,237.877637 111.458413,149.134393 C138.387059,112.918586 177.866788,84.2449582 223.231923,77.793225 L224.490488,77.6207635 C237.75521,75.8506483 252.538623,75.2804447 264.136321,68.0584748 C277.180256,57.6368293 282.738775,38.3803872 296.461544,38.2001213 C300.992871,38.1405966 307.157122,43.8777609 313.790465,47.7730175 C314.285659,39.204102 318.899756,31.9727088 319.918496,25.3287796 L320.000962,24.7606018 C321.063994,17.0146983 319.608134,10.0458527 328.621519,2.64759484 Z M549.772928,280.177434 C520.853806,260.070933 446.15004,270.173658 444.43989,271.299542 C440.674398,273.778282 439.05289,273.997498 437.016339,277.216273 C435.005632,277.483253 432.996591,277.760245 430.989218,278.045579 C426.961967,279.362123 429.946351,284.319604 434.597988,282.550863 C431.800129,294.62694 440.033964,303.21508 443.311889,315.153587 C444.376208,319.029936 443.350302,326.00161 443.311889,329.9623 C443.629771,335.012306 449.208573,340.977402 448.278777,346.043857 C444.973194,364.055975 427.03518,381.62649 434.597988,399.094368 C439.608085,408.960105 454.676722,413.990848 464.695249,417.344781 C485.451721,425.317465 521.617961,417.044586 533.678039,399.094368 C540.110705,389.519989 547.563247,365.368598 551.398763,357.877312 L552.248889,345.993722 C554.34541,316.453396 556.210283,284.653113 549.772928,280.177434 Z"/>
      <path fill="#9DDADB" d="M295.39165,38.2537562 L303.667755,43.3365277 L351.733187,67.1162069 C361.051341,69.7273387 365.710418,72.8567776 365.710418,76.5045234 L365.710418,113.647365 C365.710418,118.617878 374.454742,129.882879 391.943391,147.442366 L408.1005,131.322068 L407.739253,129.211545 C406.201767,120.117299 405.433024,114.033887 405.433024,110.961309 C405.433024,107.656838 421.240027,95.1125539 452.854032,73.3284571 L466.684697,60.2966893 L465.210103,55.8082432 C473.737883,56.211611 482.98595,61.4675827 485.043602,68.0584748 C488.473143,72.235874 488.627171,83.9724386 490.99217,89.5881913 C593.896725,105.981584 609.519559,186.274618 621.905585,277.429857 C638.291353,369.929173 675.488612,462.226585 659.340428,557.409882 C661.444502,560.456789 663.103419,563.418595 664.637293,566.936054 C668.312753,573.195061 663.578587,582.054618 656.165144,581.711716 C646.569266,580.868227 637.068422,579.716877 627.427529,579.357288 C600.701672,578.428373 573.951409,578.539126 547.215405,578.879081 L543.569678,578.926783 C408.828084,580.605419 274.093993,583.913465 139.346563,584.790771 C134.458176,584.797836 132.064833,580.41019 132.717563,576.08178 C134.032192,567.367393 135.251788,558.648835 136.524736,549.930277 C104.653518,558.355157 70.771592,560.475143 38.9904054,550.816316 C36.7671228,548.54949 44.1705621,549.778432 45.3451422,549.433861 C16.0965137,529.431235 24.8312549,487.292649 27.4221669,456.942054 C43.5328376,352.944253 49.2123367,237.877637 111.458413,149.134393 C138.387059,112.918586 177.866788,84.2449582 223.231923,77.793225 L224.490488,77.6207635 L225.758236,77.4555578 C238.690629,75.8077412 252.906804,75.0511758 264.136321,68.0584748 C276.83595,57.9119173 282.440117,39.3908113 295.39165,38.2537562 Z M410.563083,256.264072 C405.84875,256.264072 396.193808,263.591083 381.598259,278.245106 L380.312447,278.839917 C362.668885,287.041937 350.980495,294.156848 345.247279,300.184652 L345.042648,300.402051 C339.250892,306.620585 327.781525,323.156518 310.634547,350.00985 L285.803584,364.706259 L276.408272,364.706259 L269.719143,413.266332 L285.803584,447.939758 L322.236245,435.657584 L381.598259,419.998073 L415.661874,385.411347 L434.877101,378.955312 C432.545922,385.696096 431.700823,392.402763 434.597988,399.094368 C439.608085,408.960105 454.676722,413.990848 464.695249,417.344781 C485.451721,425.317465 521.617961,417.044586 533.678039,399.094368 C540.110705,389.519989 547.563247,365.368598 551.398763,357.877312 L552.498843,342.439929 C554.481316,313.953093 555.952789,284.474086 549.772928,280.177434 C520.853806,260.070933 446.15004,270.173658 444.43989,271.299542 C440.674398,273.778282 439.05289,273.997498 437.016339,277.216273 L435.962147,277.357508 L441.890684,269.310518 L439.791483,268.188786 C424.812993,260.238976 415.070194,256.264072 410.563083,256.264072 Z M434.597988,282.550863 C431.919428,294.112022 439.351847,302.47635 442.866789,313.644173 L433.885654,296.437448 L433.885562,282.773938 C434.118013,282.716846 434.355739,282.642976 434.597988,282.550863 Z"/>
      <path fill="#000" d="M291.423009,36.4581642 C293.419545,34.6885889 296.373918,36.9120299 295.105138,39.3023332 C292.254135,44.6744669 289.329772,49.7646033 285.503425,54.5135061 C283.183442,57.3927161 280.698401,60.1159098 278.180014,62.8090684 C284.643122,68.4047976 290.185907,75.3521121 295.420249,81.8630814 C302.113438,90.1903475 308.441499,98.8705276 315.954977,106.490297 C323.36489,114.005104 331.558162,119.258211 341.464826,122.761167 L343.465663,123.456694 C353.417672,126.95336 364.054299,131.675486 369.663882,141.105894 C370.770105,142.965575 368.542654,145.26327 366.670328,144.102742 C356.922731,138.062325 345.469533,136.847567 334.859131,132.856219 C324.60969,129.000864 315.674879,123.067239 307.780433,115.49419 C299.899326,107.933657 293.281997,99.331902 286.379567,90.9120273 C279.553831,82.5864297 272.204578,75.4755902 264.130902,68.4314956 C251.671912,76.8199885 237.450278,80.4700578 222.989302,84.0550537 L221.410865,84.4461108 C206.932436,88.0336515 192.531533,92.2002047 178.948419,98.4475315 C166.972537,103.954824 155.193391,110.531704 145.438291,119.493881 C135.082979,129.005036 127.023475,141.152616 119.646712,153.032381 C103.145904,179.610218 91.5451541,208.7277 81.3323926,238.198931 C70.7103205,268.853215 61.8255265,300.121553 54.6530018,331.76116 C51.0050511,347.855034 48.0423416,364.06321 45.6073178,380.384852 C44.4352386,388.245738 43.3940388,396.12331 42.4795502,404.018402 C41.5033733,412.449123 41.2791277,421.122629 38.6948847,429.228802 C37.5869948,432.702877 34.971074,434.144567 32.3526523,434.021924 L31.8208185,440.678704 C31.1155836,449.554073 30.4581522,458.432218 30.236074,467.362692 C29.8676834,482.211774 30.0347177,497.018108 31.1019526,511.835727 L31.2530986,513.856386 C32.0917272,524.670736 33.9657201,536.821653 42.0910801,544.740106 C50.5057087,552.941391 63.4460969,555.520249 74.787589,555.667922 C101.20272,556.012493 126.630004,543.521177 150.004898,532.562491 C174.078372,521.276755 197.494114,508.749563 220.348825,495.16363 C231.987922,488.244682 243.501141,481.095464 254.867642,473.737668 C260.445438,470.125933 265.984055,466.453292 271.480989,462.721415 C274.629598,460.583909 277.613148,458.240327 280.818443,456.343936 C279.24789,454.880553 278.54681,452.579521 279.862273,450.570498 C270.596511,442.521058 266.740154,428.156712 266.289162,416.533914 C265.924867,407.152077 267.304519,397.796939 268.393236,388.50354 C268.942596,383.817211 269.621168,379.139224 270.325583,374.473753 C270.604014,372.630758 270.816589,370.659279 271.141703,368.713664 C246.122063,382.473969 220.401343,394.72834 193.99955,405.615275 C180.466453,411.195987 166.759962,416.213538 152.864238,420.81143 L150.047792,421.738864 C136.88156,426.052158 123.400311,430.126633 109.789076,432.592747 C109.06132,432.724569 108.470278,431.649141 109.247218,431.306239 C122.511887,425.448535 136.235885,420.507741 149.699791,415.113081 L151.912236,414.21119 L151.912236,414.21119 C151.65798,414.197006 151.394554,414.161965 151.119457,414.096055 C143.223344,412.188818 135.38892,409.249537 127.644527,406.774969 C120.456997,404.478108 112.381655,403.035583 105.663457,399.568183 C105.146608,399.301203 105.435877,398.582027 105.939387,398.54782 C113.490379,398.023872 121.68743,400.226455 129.09087,401.522141 L131.872096,402.009716 C136.53122,402.831918 141.293776,403.715825 145.93013,404.868566 C146.097689,403.314243 146.965495,401.753246 148.200096,400.838006 C161.785711,390.768697 160.406059,370.431512 161.85907,355.434757 L162.936524,344.300845 C164.83171,324.815298 166.836656,305.332364 169.882728,285.992483 C170.045285,284.959605 171.64168,285.255785 171.64835,286.231096 C171.805456,310.204725 169.997189,334.068048 169.09083,358.004265 L168.950482,361.930922 C168.449408,376.700569 168.056698,392.037122 158.762147,403.401846 C160.061771,402.641788 161.819056,402.641788 162.871927,403.894924 C164.165716,405.435898 164.912645,407.166261 164.889304,408.864085 C173.288093,405.339952 181.650203,401.724045 189.971466,398.034718 C216.725049,386.172473 242.917602,372.897738 268.417411,358.534226 C271.16171,356.988246 273.770129,358.203004 275.127273,360.241228 L275.323144,360.213108 C275.355872,360.208689 275.389032,360.205352 275.42321,360.204518 L275.617445,360.196175 C275.624948,360.196175 275.632451,360.197009 275.63912,360.197009 C279.228717,358.223027 284.118771,359.628843 287.199022,362.508053 C287.289887,362.594821 287.367415,362.688264 287.448276,362.780038 C291.347982,361.027984 294.989264,358.66271 298.293761,355.665027 C305.056141,349.531167 310.78399,341.946438 315.777415,334.340852 C324.973151,320.332757 332.784234,304.755321 345.206107,293.224297 C355.298826,283.85581 367.811563,278.023136 380.938684,274.361342 C380.883665,273.977558 381.030383,273.568745 381.295476,273.29676 C381.96988,272.605115 382.450883,272.365668 383.322023,272.785327 C383.391214,272.819533 383.432895,272.866255 383.461239,272.916314 L384.742203,270.725851 C385.441403,269.537288 386.159372,268.340056 386.408109,268.025578 C387.898634,266.147542 389.432507,264.283689 390.989722,262.459049 C393.629818,259.369593 396.638377,256.321017 400.122103,254.178505 C407.749788,249.488838 415.768444,252.142784 423.610371,254.70579 C428.348705,256.255107 433.071201,257.854483 437.801199,259.42716 L438.289121,259.586623 C441.816079,260.720745 445.943232,261.712748 447.520453,265.45256 C448.14484,266.932629 448.241541,268.468597 447.950605,269.958678 C481.449063,261.432846 518.655492,265.34994 551.344498,275.358344 C552.599107,275.742128 553.852048,276.775006 554.116307,278.131597 C557.861792,297.354975 559.529879,317.068929 557.835116,336.620192 C556.372935,353.496651 552.63662,370.035214 545.595808,385.485834 L545.195511,386.358196 C538.578569,400.677074 528.09123,418.328335 512.074842,422.816282 C502.403938,425.526126 491.707673,423.928419 481.844202,423.432004 C472.258328,422.948937 462.459879,422.878855 452.96487,421.370419 C444.50856,420.027177 437.099285,416.233562 431.873279,409.352158 C427.365026,403.415195 424.990857,396.240113 423.046005,389.102576 C422.155692,389.386242 421.271214,389.687428 420.400908,390.028662 C416.727114,391.464513 413.614352,393.782231 410.800028,396.509596 C404.857103,402.269685 400.247147,409.265389 394.029125,414.761835 C388.400477,419.737671 381.986553,423.607209 375.106631,426.582365 C360.850534,432.747228 345.557033,435.210864 330.477266,438.478111 L329.425552,438.707419 C318.073223,441.200342 306.485811,444.261432 296.465617,450.176703 C296.269715,451.917912 295.476936,453.5565 294.206489,454.629425 C295.973777,456.29054 296.722374,458.921125 295.169328,461.389019 C290.83124,468.279157 283.35892,472.199516 276.650692,476.605781 L276.214322,476.89387 C269.615333,481.272338 262.958823,485.564038 256.248128,489.768136 C242.605826,498.316494 228.678423,506.394301 214.554285,514.116691 C191.837122,526.537091 168.632288,538.253332 145.007305,548.880796 C146.425305,555.862734 145.907173,563.062086 146.972976,570.090638 L147.136388,571.093513 C147.591687,573.701739 146.976671,575.884293 145.181399,577.588421 L144.991467,577.763002 L144.994801,577.739641 L144.826408,577.893989 L144.770124,577.94117 L144.788895,577.926527 C144.581947,578.116124 144.368435,578.292581 144.150819,578.443931 L143.873573,578.622343 L143.873573,578.622343 C142.144446,579.674008 139.918267,579.661898 138.147855,578.733521 L137.945653,578.622343 L137.605533,578.427114 C135.266377,577.080535 133.653309,573.744122 134.623651,571.093513 C137.008657,564.579207 137.909807,557.626886 140.112249,551.069196 L138.364967,551.850946 L138.364967,551.850946 L136.062021,552.855516 C111.154979,563.634606 83.4882932,572.711744 56.3502659,565.36346 C44.3593786,562.115484 33.1521004,555.24576 27.1524886,544.048462 C21.2487439,533.03054 20.4142835,520.237203 20.1008398,507.981162 C19.714037,492.854255 20.5243222,477.496243 22.5175238,462.499488 C23.8554948,452.432682 25.4735643,442.175653 27.9694428,432.213136 C26.6856576,431.079306 25.7419921,429.453232 25.4927377,427.439203 C24.3148231,417.923877 26.3763821,408.031442 27.638493,398.56534 C28.871427,389.322834 30.2335731,380.098683 31.7741154,370.902898 C34.8843768,352.331952 38.4981488,333.800218 42.7054631,315.447027 C50.1930986,282.782885 60.0807456,250.699425 71.9849358,219.382697 L73.0274189,216.654811 C84.0275182,188.030622 96.7639782,160.016547 114.499067,134.870248 C122.982886,122.839471 131.951043,111.931679 143.938596,103.262345 C155.169216,95.1394852 167.837008,89.2909594 180.909943,84.8207168 C193.997049,80.3471368 207.448451,77.3494545 221.137436,75.4847676 C235.039829,73.5908798 249.714161,72.4295178 262.682893,66.722825 C261.042315,63.779373 262.450311,59.8055459 265.211283,57.9800716 C274.502886,51.8361995 283.095078,43.8434924 291.423009,36.4581642 Z M588.865789,303.622576 C589.255092,303.031049 590.179584,303.40482 590.008691,304.104808 C585.4896,322.634039 581.247274,341.200814 578.477132,360.083793 C573.476558,394.165176 574.396396,428.691619 574.805191,463.025078 L574.825847,464.800771 C575.035921,483.294126 575.32769,501.78915 575.938739,520.274997 C576.24718,529.617621 576.857395,539.052019 576.525612,548.399648 C576.344715,553.470595 574.994239,558.267054 574.515738,563.277096 C574.096423,567.658068 574.469888,572.106618 574.679128,576.49343 C574.819178,579.410184 570.517664,579.285871 570.225061,576.49343 L569.850929,572.881563 C569.364881,568.310651 568.76413,563.767672 567.267353,559.39254 C565.467553,554.130536 564.603915,548.962809 563.979529,543.437996 C563.023151,534.971973 562.597835,526.421131 562.228721,517.895556 L561.976324,511.998624 C560.434967,476.369979 560.488991,440.574182 562.98434,404.982854 L563.166743,402.440969 C565.637613,368.79818 569.924955,332.448049 588.865789,303.622576 Z M492.536132,91.5849832 C491.355716,91.0994137 491.769195,89.3131521 493.076322,89.6243504 L495.453451,90.1918473 C512.871727,94.3673358 529.973875,98.8913056 546.231699,106.660998 C562.499925,114.435115 576.273106,126.041226 587.216958,140.312964 C608.491113,168.054666 617.331725,201.769206 624.310848,235.452043 C632.066912,272.880104 639.128564,310.444994 646.952151,347.861375 L648.404974,354.830997 C655.644198,389.679873 662.479075,424.548501 667.515222,459.810168 L667.876988,462.367612 C672.955598,498.628059 676.010368,536.144098 670.468762,572.498995 C669.372543,579.691597 657.413333,577.90033 657.880998,570.794496 C659.231473,550.251236 660.19848,529.815603 659.263985,509.226456 C658.328655,488.633138 656.39881,468.129925 653.521964,447.716818 C651.100986,430.538088 647.492052,413.5732 644.2983,396.53102 L643.797707,393.839465 C641.123433,379.344465 638.366462,364.863882 635.615574,350.382338 L631.50466,328.700302 C625.343303,296.234695 619.061417,263.740636 611.963169,231.47905 L611.541929,229.580675 C604.595464,198.542494 594.354387,166.029875 573.51797,141.382552 C552.373027,116.36905 522.103206,103.771776 492.536132,91.5849832 Z M415.703254,420.802503 C416.211766,419.668674 417.990726,419.792986 418.537585,420.802503 C420.680312,424.759199 420.918437,429.809699 421.323497,434.276421 L421.366081,434.736345 C421.881262,440.186904 422.337256,445.655818 422.616521,451.123897 C423.145874,461.501902 423.399296,471.866557 423.366785,482.257911 C423.33344,492.907067 423.119198,503.543708 422.545663,514.177012 L422.390019,517.026242 C421.866434,526.266783 420.988275,536.573766 416.60107,544.651919 C415.006342,547.589531 410.668982,546.726019 409.745324,543.755869 C406.719258,534.03113 408.273139,522.500941 409.049245,512.540927 L409.651905,504.769195 C410.248678,496.996603 410.817784,489.221077 411.269193,481.439451 C411.887744,470.792798 412.397924,460.136968 412.88893,449.485309 C413.048431,446.025696 413.220899,442.564971 413.403123,439.105358 L413.683376,433.917051 C413.922627,429.576961 413.90262,424.814709 415.703254,420.802503 Z M75.4603416,434.584927 L76.7999307,433.289846 C80.9122105,429.262221 86.1088795,423.05915 92.1881304,423.443851 C94.612317,423.597364 96.1570274,425.611393 95.6543505,427.998359 C94.5806392,433.10101 89.3796419,435.749116 85.6358241,438.864436 C81.5343804,442.275937 77.6688531,445.922714 73.8108285,449.604532 C70.3881422,452.869101 67.096531,456.226619 63.8838867,459.688805 L62.6827448,460.992054 C61.53116,462.249734 53.3306814,469.673187 54.2173363,471.599217 L54.2656154,471.685428 C54.512369,472.054194 54.101391,472.561456 53.6920802,472.432137 C50.1508338,471.312491 50.3717448,468.274762 51.7105494,465.196985 C54.2831216,459.283383 58.7880406,453.812801 62.7219253,448.762711 C66.6451812,443.724772 70.891549,439.033674 75.4603416,434.584927 L75.4603416,434.584927 Z M428.535438,286.283657 C425.796974,279.806061 415.709256,279.942053 409.98224,280.329174 C395.560497,281.304485 379.956672,284.956267 367.124655,291.702513 C353.8211,298.696561 344.859865,309.903039 336.841545,322.29485 L336.466364,322.876573 C328.651113,335.034999 321.124297,349.427712 308.886656,357.787516 C302.653629,362.046678 295.375233,365.935406 287.812571,367.619881 C287.293222,368.533453 286.452092,369.256801 285.349204,369.519609 L284.836516,369.637027 C282.682585,370.112992 279.336319,370.639705 276.44607,370.32472 C276.465244,371.739713 276.450239,373.14386 276.486085,374.484599 C276.587787,378.326605 276.631136,382.185297 276.631136,386.029805 C276.632803,394.085086 276.200151,402.156218 276.536102,410.210665 C276.833707,417.334853 277.839061,424.778583 281.25693,431.146885 C283.763646,435.819031 287.072311,438.910991 291.066217,441.862786 C300.891342,435.869924 312.001085,432.217307 323.276721,429.470753 C336.913188,426.149357 350.875602,423.932591 364.20196,419.428976 C370.615884,417.260599 376.782221,414.423105 382.369188,410.569419 C388.298775,406.477119 392.827869,400.940626 397.487842,395.525108 L398.216221,394.683722 C402.971951,389.225008 408.161152,384.001675 414.882298,381.042289 C420.670169,378.492633 428.298688,378.038767 433.359636,374.094141 C436.005567,372.030053 436.227312,369.034874 436.505743,365.967944 C433.264602,366.431821 429.833394,365.688449 426.603091,365.309672 L424.929428,365.113064 C421.874844,364.749844 418.890504,364.350598 415.883484,363.572635 C415.324954,363.428299 415.324954,362.585644 415.883484,362.441308 C419.437235,361.52273 422.959308,361.131438 426.603091,360.704271 L427.458937,360.597452 C430.755336,360.164787 434.220172,359.511772 437.453577,360.23789 C438.033781,358.028633 438.871576,355.919492 440.046989,353.807015 C441.696737,350.839368 444.818669,347.474588 445.240484,344.008023 C445.366362,342.972642 445.125444,341.752044 444.637772,340.836804 L444.469679,340.524828 C444.26476,340.156376 444.021907,339.785849 443.666597,339.556135 C443.627416,339.602022 443.544054,339.654584 443.363157,339.711317 C440.874781,340.49557 438.704017,339.27664 437.551945,337.39777 C432.661056,338.005149 427.323344,337.800743 422.73673,338.003481 L418.099285,338.227967 C413.144103,338.45533 407.9638,338.554874 403.307391,337.552952 C402.657162,337.413622 402.460426,336.330685 403.111489,336.052025 C408.836004,333.601652 415.780114,332.819901 421.908938,331.878798 C425.33181,331.352347 428.77969,330.951877 432.212565,330.488834 C434.49837,330.180139 436.924224,329.670374 439.292557,329.54773 C445.230481,322.149888 442.031021,310.479534 433.767279,307.294132 C430.757053,308.618184 428.050267,307.848115 424.761609,307.565283 C421.478787,307.283286 418.187629,307.092228 414.891468,307.106411 C408.286644,307.135612 401.287513,308.874318 394.746878,308.125941 C393.68317,308.003297 392.694489,306.586635 393.752361,305.722288 C398.759105,301.633272 405.934411,300.300015 412.289669,299.42862 L413.60685,299.2522 C415.7376,298.972706 418.328511,298.564727 421.016124,298.321942 C421.623838,297.135551 422.714222,296.238666 424.352298,296.015905 C424.839136,295.94916 425.328475,295.909947 425.816981,295.868231 L425.809478,295.819841 L425.809478,295.819841 C429.804217,295.62795 429.630823,288.87503 428.535438,286.283657 Z M155.04834,412.619323 C154.977759,412.72834 154.90051,412.832165 154.818321,412.932035 L154.691548,413.079029 L155.348445,412.812049 L155.04834,412.619323 L155.04834,412.619323 Z M498.244975,271.809182 C481.430723,270.001228 464.592296,270.382509 447.728026,270.868078 C446.379218,275.283256 441.684232,279.046002 437.135131,279.187835 C440.698052,284.615034 441.065681,291.960315 438.567302,297.716232 C443.871669,299.829544 448.441611,303.625663 451.215921,309.032003 C455.063108,316.526626 454.559598,324.866407 450.757426,331.792864 C454.002735,334.732978 455.917576,339.507745 455.725842,344.008023 C455.5116,349.026408 452.523048,353.313102 450.039673,357.467975 C447.356229,361.961578 447.266197,365.917885 446.44174,370.950454 C445.235482,378.315759 440.272069,382.782664 433.885654,385.572603 L434.225166,386.909132 C435.871675,393.323403 437.920281,400.091478 442.626231,404.781798 C448.679922,410.815832 458.071292,410.7597 466.069546,411.142074 L466.455452,411.160946 C473.779363,411.527375 481.100073,411.956812 488.421423,412.371939 L493.912616,412.679393 C502.34225,413.143271 510.4376,413.199169 517.319188,407.621795 C528.553976,398.517785 536.255854,383.450948 541.130903,370.112805 C551.362838,342.116638 551.485381,311.393106 546.788728,282.235577 C531.03735,277.154618 514.694098,273.577923 498.244975,271.809182 Z M358.413435,318.25646 L358.537049,318.265499 C361.999101,318.660963 364.377438,321.466753 365.224403,324.794823 C366.454836,329.632163 365.85129,334.005625 368.811499,338.372413 C371.856737,342.862679 373.729063,346.457729 374.171719,352.005068 C374.353449,354.287745 374.270087,356.564582 374.777765,358.798869 L375.145887,360.36426 C375.53681,362.033436 375.856675,363.641166 375.662243,365.433317 C375.484681,367.067734 374.689401,368.340893 373.051324,368.864841 C367.713612,370.573512 363.592162,366.637229 362.213343,361.65889 C361.02209,357.358847 362.61265,352.234504 360.932059,348.196435 C360.000897,345.957976 358.283626,344.085781 357.313285,341.832304 C356.352113,339.598852 355.869443,337.265282 355.715222,334.837434 C355.422619,330.245382 359.480714,324.728078 357.216584,320.567365 C356.73446,319.679657 357.280475,318.229625 358.413435,318.25646 Z M287.511215,270.869163 C291.125821,270.134134 295.226431,268.449659 298.791019,269.849634 C300.623331,270.570479 301.528649,272.806435 299.980604,274.360758 C297.292849,277.057206 293.386539,277.207468 289.766376,277.843302 L289.44773,277.900743 C285.167057,278.693339 280.878881,279.445054 276.584869,280.157556 C268.506192,281.496627 260.408342,282.680515 252.282148,283.686695 C243.935877,284.720407 235.566265,285.640653 227.184981,286.333132 L223.940324,286.59956 C216.86051,287.166235 209.493754,287.593666 202.547142,286.508338 C201.53762,286.350653 201.700177,284.879761 202.547142,284.621959 C210.157321,282.316755 218.505259,281.69853 226.373029,280.723219 C234.73764,279.684501 243.088079,278.587381 251.416844,277.285855 C259.732271,275.985997 268.036861,274.591028 276.310606,273.049219 C280.050256,272.353403 283.78407,271.626718 287.511215,270.869163 Z M417.935873,263.467732 C414.763923,262.343914 411.274362,260.678628 407.837319,261.235948 C401.910232,262.197076 396.635042,267.976353 391.943391,271.782484 L394.299124,271.324218 C406.352812,269.005614 422.315071,266.50786 432.433476,274.177793 C432.459319,274.133575 432.479326,274.089356 432.508503,274.045138 C433.325457,272.803682 434.271623,271.835046 435.304487,270.772967 C435.403133,270.679802 435.498629,270.583578 435.592551,270.485778 L436.149784,269.891933 L434.875246,269.450048 C432.145318,268.484299 428.911223,267.237191 428.399967,267.055157 L428.364544,267.042759 C424.884152,265.863042 421.399592,264.696674 417.935873,263.467732 Z M318.899597,10.6092656 C318.403589,4.22427729 328.332917,4.27683894 328.824757,10.6092656 C329.897635,24.4338122 326.789041,38.1273719 320.098352,50.2474195 C320.049168,50.3358565 319.994983,50.4142819 319.943298,50.497713 C324.128104,52.6769355 328.360427,54.7677209 332.68695,56.6365793 C338.221398,59.027717 343.860049,61.2052708 349.59957,63.0524371 C354.791397,64.724398 361.187815,65.3843386 365.552685,68.8634188 C374.756758,76.1986883 371.298874,91.4215415 369.528251,101.288947 L369.252016,102.846635 C368.370394,107.924281 367.732755,113.13373 369.871705,118.006887 C372.155843,123.212159 376.774968,127.073354 380.895586,130.797722 L381.727845,131.552959 C385.378328,134.881227 389.549524,138.925587 392.227074,143.437545 C394.671268,138.379947 398.003274,134.246767 401.526181,129.59381 C404.039565,126.273249 402.250602,125.178632 400.444967,121.934827 C398.706855,118.812832 397.858223,115.484763 398.401747,111.923086 C399.4046,105.345371 404.657283,100.593965 409.88579,97.0239453 C416.060463,92.8098363 422.952056,89.6878415 429.335136,85.7674104 C442.451419,77.7129642 455.225082,68.5038305 466.733299,58.276002 C467.050911,57.9931703 467.601105,58.3636048 467.346849,58.7498911 C458.256149,72.5886211 447.596564,84.5468122 434.496119,94.6970496 C429.184093,98.8128141 423.603906,102.226828 417.986353,105.815592 L416.371322,106.85281 C414.115794,108.31512 411.302438,110.269508 410.282596,112.759066 C409.256402,115.262836 411.444672,117.153386 412.622586,119.227485 C416.363044,125.813998 414.55842,131.959485 410.12399,137.545199 L409.917468,137.802603 C405.510917,143.237311 402.171408,148.291571 400.574179,155.234714 C397.142278,170.149522 401.922482,185.685296 406.926365,199.687254 L407.123984,200.239162 C409.83077,207.786346 412.707616,215.278466 415.059277,222.946626 L415.706336,225.066569 C417.837101,232.12207 419.58193,239.080851 417.191695,246.334055 C416.378909,248.801115 413.016892,249.384299 411.620567,247.062409 C406.694667,238.874473 405.466734,229.021251 402.378981,220.019026 C399.369588,211.245403 395.914205,202.630299 393.007349,193.820801 C389.264365,182.478332 386.759316,170.269013 388.118961,158.371727 C388.078947,158.302479 388.034765,158.237403 388.00142,158.163983 L387.048604,156.078101 C384.450401,150.43004 381.940931,145.497416 377.215957,140.995515 C372.287556,136.299174 366.938173,132.141798 363.060141,126.456797 C354.636646,114.107983 359.846197,100.37105 360.863662,86.8686794 L360.980086,85.2129431 C361.164912,82.409493 361.266199,78.5995219 359.436365,76.6592284 C357.378141,74.4750001 352.551442,73.9176798 349.820481,72.9507124 C342.762997,70.4511142 335.808049,67.5385317 329.18405,64.0410966 C322.878497,60.7121925 316.770514,57.034546 311.083512,52.7261599 L308.20104,50.5559208 C303.653091,47.1215938 298.937129,43.371267 295.888997,38.6963725 C295.537207,38.1582414 296.134917,37.2897228 296.771808,37.5475252 C301.860266,39.6141155 306.509402,42.901304 311.270245,45.7613249 C311.344438,45.5869537 311.430301,45.410914 311.527836,45.2340399 C317.418242,34.5648605 319.840762,22.7443308 318.899597,10.6092656 Z M481.442977,83.7076614 C483.470357,78.1436359 492.710276,78.5733065 492.341813,85.1843933 C492.0593,90.2633383 489.904689,94.8476248 487.934632,99.4591598 L487.724355,99.9533809 C485.690305,104.758183 483.341145,109.269307 480.530156,113.672804 C475.159099,122.09101 468.867717,129.903506 462.147852,137.27632 C456.055708,143.960826 448.05956,148.048119 438.845483,147.368989 C434.963283,147.082821 431.044404,146.094161 427.642373,144.153552 C423.601784,141.847514 419.213573,134.92356 414.058425,136.600527 C413.559916,136.762383 413.094753,136.031526 413.525738,135.685287 C419.476999,130.888828 426.231877,138.325884 431.929716,140.117986 C440.515238,142.816984 449.325839,139.832651 454.851951,132.886171 C460.621481,125.633498 465.931684,117.513141 470.780891,109.61638 C473.243424,105.606678 475.490048,101.44513 477.430731,97.1559334 C479.388921,92.8266894 479.834077,88.1220051 481.442977,83.7076614 Z M467.603689,49.4655025 C467.353601,48.6971013 468.30727,47.9662442 468.981674,48.4050922 C472.892217,50.9530804 476.28091,54.3195286 479.888013,57.2704894 C483.890255,60.544329 487.921674,63.7514235 492.015615,66.9092937 C497.983549,71.5138606 491.061946,79.9904686 485.80843,74.9604027 C478.619233,68.0798332 470.745628,59.0826147 467.603689,49.4655025 Z M446.133549,22.5343345 C447.722233,16.4031689 457.118528,18.9315417 455.749226,24.9910681 L455.704417,25.1757657 C453.110954,35.1847531 456.804645,45.3745216 464.689834,51.8632727 L464.980182,52.0990077 C469.968605,56.0945269 462.901117,63.0793854 457.961879,59.1222445 C447.178917,50.4854487 442.693171,35.8140755 446.133549,22.5343345 Z"/>
    </g>
    <g transform="translate(310.11 150.176)">
      <path fill="#FFDBB4" d="M203.642195,48.9792352 C240.886205,48.9792352 285.572279,67.0876142 289.371605,67.4497818 L289.474172,67.4552877 C291.473094,67.4552877 299.283725,73.4233032 312.906066,85.3593344 L298.151533,114.221522 L299.345557,115.365011 C305.059329,120.859238 309.937177,125.867066 313.787435,129.81474 C345.2251,162.047819 350.875488,288.604187 343.466682,332.738571 C336.057876,376.872954 322.335321,420.059262 258.449108,420.059262 C194.562895,420.059262 123.48803,381.532983 112.539392,369.53544 C105.2403,361.537078 97.0415138,357.70517 87.9430347,358.039715 C87.5690903,357.566482 87.1981628,357.094634 86.8302522,356.624172 L85.4915831,356.433977 C72.899475,354.604926 63.8769316,352.143045 58.4242956,349.049157 C47.7737624,343.005922 36.0675363,311.235935 36.0675363,304.23741 C36.0675363,297.30887 18.5876812,246.906139 18.2380841,241.572367 L18.2327693,241.424624 C18.2327693,236.965782 -4.60290441,216.468783 -4.60290441,209.959339 C-4.60290441,203.449895 -9.20580883,203.844826 -4.60290441,180.906554 L-3.26563012,174.16796 C1.63258296,149.745456 11.2197246,109.305321 47.7737624,91.7328646 C87.9430347,72.4224726 166.021983,48.9792352 203.642195,48.9792352 Z"/>
      <path fill="#9DDADB" d="M203.63589,49.2243966 C240.8799,49.2243966 285.565975,67.3327757 289.365301,67.6949432 L289.467867,67.7004491 C291.466789,67.7004491 299.277421,73.6684647 312.899761,85.6044958 L309.588587,92.0780142 C236.258684,93.5223448 185.78706,99.499689 158.173714,110.010047 C126.16122,122.194835 106.065235,168.486776 97.8857596,248.885869 C86.701041,254.198379 75.5163225,261.190703 64.3316039,269.86284 C53.1468853,278.534977 50.3157138,283.014153 55.8380892,283.300367 C55.3569673,301.885057 56.839762,314.863394 60.2864733,322.235378 C63.7331846,329.607362 75.6633246,333.945736 96.0768932,335.250501 L96.0768932,335.250501 L101.262909,352.668426 L100.545734,360.740803 C96.5545616,358.941188 92.3515602,358.122546 87.9367299,358.284877 C87.5627856,357.811643 87.191858,357.339795 86.8239474,356.869333 L85.4852784,356.679139 C72.8931703,354.850088 63.8706269,352.388207 58.4179908,349.294318 C47.7674577,343.251083 36.0612316,311.481096 36.0612316,304.482571 C36.0612316,297.554032 18.5813764,247.1513 18.2317793,241.817528 L18.2264646,241.669785 C18.2264646,237.210943 -4.60920914,216.713945 -4.60920914,210.2045 C-4.60920914,203.695056 -9.21211355,204.089987 -4.60920914,181.151715 L-3.27193485,174.413121 C1.62627823,149.990617 11.2134199,109.550483 47.7674577,91.978026 C87.9367299,72.667634 166.015679,49.2243966 203.63589,49.2243966 Z"/>
      <path fill="#000" d="M41.5733547,90.8256862 C61.6070168,69.4991747 175.341442,36.5121328 232.882844,43.5046012 L234.609169,43.7287847 C239.20108,44.312803 243.726442,45.1971735 248.192742,46.3985825 C262.62898,49.7800483 277.541047,54.9002198 289.469203,63.4527502 C299.427495,70.449289 330.841329,81.8751892 321.582637,100.178322 C325.015757,106.701806 326.296834,114.761258 323.976754,121.186293 C323.684768,123.405562 323.002636,125.449626 322.130007,127.568778 C329.464587,138.424009 335.271858,150.700073 339.972744,162.376267 C348.187441,191.761563 353.299271,222.342428 354.047952,252.323423 C356.538565,309.283558 350.311201,377.322521 300.846662,414.155718 C270.96513,437.495591 224.157578,438.279844 190.577561,409.340905 C188.671751,407.079085 179.710036,400.97526 182.700602,399.904838 C183.590701,400.847611 184.505756,401.765354 185.437448,402.66641 C185.395023,402.566293 185.386704,402.466175 185.404173,402.357715 L184.527861,401.561805 C182.877664,400.030682 180.739834,397.809991 183.174767,398.244558 C183.282078,398.369705 183.399371,398.478165 183.515001,398.603312 C184.030707,398.913572 184.420307,399.182551 184.723447,399.419699 L184.879381,399.544861 L184.831205,399.494601 C183.428601,397.994562 182.587711,396.464592 184.684836,397.441725 L184.962451,397.577108 C185.894975,398.561596 186.842473,399.504369 187.80744,400.422112 C187.791634,400.313651 187.80744,400.20519 187.866503,400.088387 L186.966796,399.216677 C186.088541,398.353536 186.222585,398.349853 186.651975,397.652196 C184.785263,395.028286 188.269959,396.58678 188.514528,397.610481 C190.694854,397.093207 192.608982,401.198022 194.013176,401.698609 C255.57058,449.162607 344.902395,407.047382 343.455776,274.788102 L343.433686,272.200392 C343.010597,229.909559 339.462077,186.442458 322.021032,148.159594 C320.324853,144.471935 318.427362,140.884395 316.340205,137.413658 C314.901073,134.810605 313.362117,132.274297 311.7067,129.804734 C307.072363,129.429294 302.497089,128.578295 297.989196,127.260083 C296.441089,126.867956 294.910452,126.434114 293.380647,125.925184 C271.020033,127.148285 249.157709,128.479012 226.734706,129.740492 L219.73077,130.177996 C200.735813,131.40275 181.091403,133.3644 165.762937,145.147728 C150.722762,155.875309 150.654549,177.029285 137.779727,188.807265 C119.420399,201.304421 119.286468,212.573471 115.751029,230.99007 C116.013068,244.873018 125.611161,265.044175 107.998019,270.88686 C110.969452,275.13601 106.82758,273.094449 106.501488,271.604369 C106.468213,271.612712 106.434939,271.621055 106.409983,271.621055 C109.057819,276.557678 105.165508,273.449032 104.821115,271.863005 C104.613148,271.804603 104.405181,271.654427 104.197214,271.445849 C106.865015,275.770922 102.552611,272.74237 102.807994,271.95478 C97.6529077,264.00796 87.0432625,262.774012 79.5647687,264.879815 C79.4732633,265.163481 79.1413479,265.188511 78.9333809,265.038335 C47.1335608,271.949774 55.3382754,337.973873 87.9258746,331.591387 C89.3209173,331.306053 89.2876426,331.977674 89.5646546,332.041916 C88.811814,330.059591 90.9339094,330.866371 90.911449,331.282692 L91.0407526,331.276395 C91.1432115,331.267335 91.1012998,331.256087 91.1776468,331.282692 C90.4497622,327.228771 94.5458805,333.102326 94.2222839,333.343442 C94.3478959,333.268354 94.4893135,333.226639 94.6140937,333.209952 L94.4730915,332.825125 C93.7932958,331.008797 93.8515732,331.763736 93.8562619,330.723703 C93.3454949,329.438029 93.3080609,330.000355 93.4278499,329.162706 C95.2230211,327.767736 95.7529211,331.999366 96.3518661,332.308896 C95.3253409,330.873879 96.1414035,329.701671 97.1096979,330.480918 C104.44927,345.964077 113.93007,360.511972 126.182655,371.972079 C127.522794,373.031655 128.878739,374.074545 130.283764,375.059033 C135.495417,379.611872 143.489669,382.539472 148.368576,386.572536 C148.368576,386.63928 148.336133,386.722712 148.286221,386.806143 L148.397899,386.907303 L148.397899,386.907303 L148.510825,387.014721 L150.207836,387.832346 C150.706957,388.257845 151.156165,388.733403 151.55463,389.25902 C151.979715,389.751264 152.353223,390.293566 152.670165,390.869241 C152.82822,391.570063 152.478836,391.862072 151.813341,391.56172 C151.521355,391.461603 151.231033,391.344799 150.93988,391.236339 C150.956517,391.261368 150.964004,391.278054 150.981473,391.29474 C151.07693,391.439553 151.723126,392.941985 150.978523,392.697521 L150.889968,392.663012 C150.48152,392.512836 150.074737,392.345973 149.67544,392.187454 C150.149605,392.779815 150.581345,393.422235 150.964004,393.964538 C151.372451,394.390037 151.62118,394.890624 151.721836,395.457956 C151.704366,395.774995 151.530506,395.908485 151.214396,395.866769 C150.731913,395.70825 150.257748,395.541387 149.782751,395.366182 L149.917834,395.624631 C150.253432,396.286677 150.730383,397.397058 149.883407,397.026462 C149.15885,396.801198 148.460913,396.542562 147.762144,396.258896 C147.703081,396.375699 147.587451,396.417415 147.354528,396.308954 C145.133441,395.516358 142.987221,394.548556 140.932507,393.405549 C139.127353,392.087337 137.30473,390.794153 135.49209,389.484284 C133.785929,388.45808 132.13883,387.315073 130.567431,386.030233 C120.047628,379.215574 110.838016,370.558755 103.531719,360.917447 C91.3124094,371.530728 66.8812765,361.391337 51.7687296,353.08326 C38.4014418,345.657885 33.1473632,331.928449 31.7889226,317.126089 C28.9647306,297.197718 12.7266662,290.376384 13.856343,246.650102 C13.831387,246.658446 13.805599,246.658446 13.7723243,246.658446 C13.181698,246.48324 12.6085409,246.249633 12.0678267,245.94928 C11.5104751,245.682301 10.9863982,245.365262 10.4947642,244.981479 L9.88750051,244.138824 L9.88750051,244.138824 C9.57222251,243.963618 9.28938738,243.78007 9.07310168,243.596521 L8.96093477,243.741603 C8.60586912,244.171333 8.84454593,243.52477 8.86513467,243.396286 L7.81020412,241.957433 C5.30888574,238.532314 2.56467001,234.6892 0.329336563,231.615804 L0.258926086,231.740683 C0.20835918,231.834938 0.181620564,231.903045 0.205388223,231.932842 C-5.11440798,224.267185 -10.1172625,215.007993 -11.507314,206.044147 C-13.1485897,199.139382 -12.5072194,192.024371 -11.0755745,185.628537 C-4.93722009,163.231436 15.1706945,112.548663 41.5733547,90.8256862 Z M185.942213,400.566474 L185.608855,400.268711 L185.901969,400.637041 C186.055572,400.827387 186.212824,400.998471 186.468964,401.172992 C186.452327,401.11459 186.452327,401.056189 186.459814,400.989444 C186.289945,400.859392 186.116257,400.71717 185.942213,400.566474 Z M232.628491,54.7583868 C193.607224,51.3936073 155.227328,60.0153855 117.99125,70.4517919 L115.422549,71.192259 C94.2497234,77.2514894 71.8616814,82.7038233 53.9690206,95.6730378 C28.9705537,114.876393 16.0616252,145.425554 4.79646801,173.631133 C-5.04037173,194.587377 -0.0117293396,218.21759 14.8121594,232.850585 C16.3544428,218.309365 18.9839777,204.193643 23.0934059,190.191388 C23.9510618,188.003823 23.3022048,187.287149 25.1506156,187.001814 C27.9423648,224.736068 14.1924177,252.615432 41.4028217,297.336213 C53.209525,318.437628 39.5419329,333.877402 72.8832045,344.981258 L73.7854825,345.327038 C80.7316485,347.955831 88.3173378,350.03086 95.1207014,348.56129 L94.511186,347.566926 C93.8895691,346.542923 93.7009365,346.04584 94.6049432,345.607826 C94.580819,345.557767 94.5475443,345.507708 94.5134377,345.449307 C93.7822257,344.064349 93.0751378,342.662705 92.4004928,341.244375 C92.1268082,341.336149 91.8522918,341.402894 91.5686248,341.477982 C91.7524676,341.82005 91.7765918,342.162118 91.2616654,342.278922 C89.428561,342.909661 87.5461804,343.162476 85.619258,343.04415 L85.205666,343.013116 C83.0286673,342.879626 81.6569169,342.481659 80.4299115,342.112059 C80.023128,342.045314 79.6155127,341.978569 79.2153842,341.895138 C75.2681702,341.017442 71.089697,338.784824 68.385294,336.572229 C37.5579276,319.011634 40.7439822,259.234027 78.7420512,253.583234 C79.5215116,215.945759 97.3709044,152.447956 126.993726,116.583395 C153.769895,83.5938715 226.869468,69.2954357 277.726554,74.337182 C278.467748,74.583304 279.208942,74.8319289 279.950137,75.0830568 C287.796316,75.78221 295.273978,79.2879883 303.125981,80.9165649 C297.488411,76.6790952 291.093009,73.8566184 284.505446,71.457972 C271.380232,63.4060287 256.333403,59.0492524 241.796509,55.9764821 C238.785146,55.2339446 235.73219,54.8251318 232.628491,54.7583868 Z M77.0028647,283.81861 C79.0459326,282.705638 78.8121777,283.780232 79.2821832,283.468199 C93.9779642,282.265956 109.824219,295.170256 118.038916,305.927873 C117.390059,306.603665 115.634817,304.601317 115.327026,304.284279 C115.285433,304.325994 115.23552,304.359367 115.185608,304.376053 L115.41435,304.699839 C118.743849,309.491901 112.143484,303.852975 111.525389,302.690743 C111.417246,302.749145 111.309103,302.782517 111.184323,302.757488 C111.707568,303.272258 113.305587,304.614666 113.580103,305.569119 L114.003769,305.922728 C117.998735,309.353816 117.66718,311.934845 113.131726,307.062537 C113.239037,307.287801 113.280631,307.496379 113.205762,307.663241 L113.361929,307.767616 C115.592206,309.33073 117.426396,313.688072 112.764872,309.215061 C113.249851,312.482226 108.145509,306.16732 107.981631,306.211539 C99.148856,299.25755 86.1442627,292.494618 75.0646121,291.586053 L74.6832755,291.542112 C72.6501474,291.280117 71.6888916,290.675104 72.4026343,289.341754 C69.8987115,288.744387 70.4851785,287.507937 71.6705905,287.547984 C69.9045346,286.383284 71.4942344,285.269478 72.5190959,285.704155 C71.8145036,283.747693 74.6403594,285.050889 74.8982385,284.778069 C76.3648219,282.509575 76.7599592,284.401794 77.0028647,283.81861 Z M46.1988738,162.551389 C53.2572743,159.958348 74.1063833,167.720785 72.4384879,178.001175 C71.4452374,180.361443 68.1726685,181.713862 65.8725533,180.381466 L62.8704845,178.359295 C57.6461018,174.85021 52.9342905,171.773213 47.3252232,168.712782 C44.2722674,167.1935 42.9579159,163.96805 46.1988738,162.551389 Z M86.357221,147.274138 L83.6312397,145.494964 C68.9205385,135.83897 48.124482,121.207835 85.0054354,136.345488 C89.2088647,138.153442 94.7940268,139.22303 97.087487,143.237738 C100.690308,150.637249 91.2086755,151.134499 86.357221,147.274138 Z M88.0103092,103.949161 C86.8298884,99.4563916 101.518183,104.728408 105.793984,106.118371 L106.445247,106.365066 C110.6046,107.919454 115.372446,109.361425 117.860231,112.961397 C120.775096,117.935564 114.875488,118.965939 111.221092,116.719137 C103.728456,111.808378 95.513759,108.103199 88.0103092,103.949161 Z M125.361434,83.0205324 C117.093822,73.9654377 139.220296,82.6399095 142.534723,85.047803 L142.629351,85.1188266 C145.102495,86.8650412 144.600879,90.6261189 142.277471,91.7307477 C135.666616,91.8567288 130.801851,86.3302474 125.361434,83.0205324 Z M162.983499,73.0995639 C149.839984,63.6259533 167.153654,68.1320714 173.167228,71.8447589 C177.265842,75.4698437 173.044111,81.5895208 162.983499,73.0995639 Z"/>
    </g>
    <g transform="translate(442.656 305.358)">
      <path fill="#FFF" d="M66.0229075,165.026012 C75.1276893,159.53911 109.15913,163.56097 135.892224,165.026012 C157.120801,166.189393 172.283438,163.883826 177.136322,167.152831 C188.100432,174.538486 182.774878,210.251678 163.882036,215.135743 C144.989194,220.019808 74.9538685,226.841476 62.8783896,215.135743 C50.8029106,203.430009 49.6880778,174.870029 66.0229075,165.026012 Z"/>
      <path fill="#000" d="M77.8163179,155.57954 C92.1064103,153.843771 105.958126,158.222264 119.927962,160.429384 C127.303842,161.594045 134.688872,162.463593 142.152927,162.786971 C143.654389,162.852644 145.156683,162.890884 146.658977,162.921643 C146.798725,161.598202 147.539059,160.382831 149.142836,159.654606 C152.430248,158.163242 155.061342,157.490714 158.670674,157.63453 C161.974722,157.765046 165.290416,158.10505 168.543723,158.701097 C174.451414,159.785122 180.385725,162.244959 184.707107,166.518708 C194.708259,176.407936 193.186001,192.292549 185.458254,203.063793 C169.492522,225.321156 140.352829,226.354154 115.395853,226.063786 L113.092774,226.033636 C90.3687071,225.708595 57.8572704,229.099496 47.533367,203.224236 C43.7368724,193.709096 44.2642557,182.680147 48.9125494,173.554059 C54.4567292,162.668925 66.1273734,156.999412 77.8163179,155.57954 Z M148.798457,192.638373 L148.594657,192.646686 C138.117696,193.050701 127.642399,193.335008 117.159615,193.520389 C117.473217,196.214655 117.793473,198.909752 118.15948,201.598199 C118.446464,203.713875 118.754242,205.827058 119.074499,207.937746 C119.210088,208.831401 119.707525,210.218852 119.566945,211.104194 L119.516203,211.454175 L119.516203,211.454175 C120.0544,211.697748 120.542688,212.090124 120.906199,212.65957 C121.032638,212.856589 121.12414,213.055272 121.215642,213.253123 C129.354315,213.317133 138.112705,213.159185 146.409427,211.678627 L146.426063,211.498234 L146.426063,211.498234 C146.576626,210.437486 147.017498,209.723393 147.60311,209.233754 C148.186226,205.851166 148.132989,202.246619 148.358416,198.890632 C148.498996,196.805715 148.651222,194.722459 148.798457,192.638373 Z M109.153204,193.663374 C101.601621,193.79195 94.0467525,193.890968 86.4967768,193.798701 L83.0693555,193.745674 L83.0693555,193.745674 C83.7930519,197.632034 84.5807996,201.505093 85.2354537,205.417223 C85.9183902,209.494784 82.3323498,212.086799 79.2287736,211.982055 C79.5773125,212.039415 79.9250195,212.098437 80.2735583,212.147485 C89.9702582,213.519972 100.038788,213.15586 109.879396,213.145053 C109.349933,210.052425 109.564444,206.562912 109.485232,203.981545 L109.470133,203.581698 C109.319571,200.273927 109.213928,196.968651 109.153204,193.663374 Z M57.8589341,192.950113 C58.1209621,194.97102 58.6308769,196.948699 59.3936696,198.790044 C62.6170299,206.569415 70.0070515,210.199732 77.8262999,211.728506 C76.4695771,211.259649 75.3923509,210.133228 75.1203409,208.203764 C74.4423954,203.406292 74.1986678,198.529014 74.1803674,193.657555 C68.7310167,193.606845 63.2450653,193.490462 57.8589341,192.950113 Z M177.216434,191.289162 C173.336755,192.205262 168.82821,191.785452 165.021733,191.958364 C161.455657,192.120469 157.887917,192.261791 154.321841,192.406438 C154.489871,194.842999 154.653743,197.278728 154.831755,199.713626 C155.061342,202.860954 155.08297,206.187014 155.685218,209.321041 C162.86229,206.869517 169.293206,202.938266 174.117848,196.651923 C175.31985,195.08574 176.396244,193.247721 177.216434,191.289162 Z M76.1767712,168.343427 C69.7184048,169.873863 63.6060817,173.106816 60.3211655,179.021565 C58.3713444,182.531343 57.5137226,186.691203 57.6784259,190.790377 C63.1369268,190.154428 68.689425,189.913349 74.2153045,189.713835 C74.2336048,188.717929 74.2570811,187.723132 74.2869655,186.730428 L74.3720992,184.186107 C74.5227234,179.333398 74.5984075,173.239595 76.1767712,168.343427 Z M109.60489,168.935317 L106.761833,168.615724 C98.8650023,167.715234 90.9724113,166.769941 83.0751784,167.311775 C81.9322372,167.390749 80.7718274,167.515445 79.6089222,167.685863 C81.0047412,172.726908 80.8874525,178.647477 81.4705688,183.637812 C81.695996,185.567276 81.9804836,187.480944 82.295749,189.387131 L83.6657812,189.323121 L83.6657812,189.323121 C92.1396837,188.863408 100.621905,188.580763 109.102462,188.244084 C109.101838,186.650469 109.110572,185.055918 109.136034,183.460783 L109.167345,181.865466 C109.263838,177.79123 109.000978,173.201585 109.60489,168.935317 Z M149.260125,168.28856 C140.98919,169.624471 132.441254,169.908778 124.316723,169.918753 C121.071735,169.92291 117.82841,169.723396 114.586749,169.435764 C114.798035,171.16322 114.907838,172.910627 115.066718,174.613975 C115.386808,178.056251 115.752683,181.493207 116.150286,184.92697 L116.504961,187.931513 L116.504961,187.931513 C126.928684,187.458499 137.351576,186.947245 147.772804,186.417703 L149.243488,186.338729 L149.243488,186.338729 L149.655709,180.564501 C149.936314,176.714134 150.245018,172.864628 150.680899,169.031749 L150.353988,168.913703 L150.353988,168.913703 C149.96968,168.755755 149.605337,168.537953 149.260125,168.28856 Z M152.851988,169.721734 C153.307834,175.165963 153.55988,180.632638 153.895109,186.086011 L160.765203,185.718697 C161.910116,185.656226 163.054998,185.592492 164.199881,185.526542 C168.651861,185.269668 174.37239,183.920457 178.773629,185.179055 C179.10969,181.17465 177.965917,177.273326 174.354921,174.583217 C168.015507,169.858068 159.943381,171.540633 152.851988,169.721734 Z M129.379624,121.053387 C139.609891,115.189844 165.278093,109.196982 166.903665,127.622758 C167.651253,136.101838 161.352719,143.127402 153.997817,146.262355 L153.721525,146.378088 C146.823263,149.216416 134.59646,152.421842 128.626859,146.267124 C123.658443,141.14445 130.248263,131.959511 136.422102,136.156099 C139.594903,138.311978 146.273233,136.723474 149.813574,135.697658 L150.035227,135.632986 C153.855739,134.509168 158.949198,130.91245 157.369476,126.204428 C155.971484,122.039544 150.022723,121.278651 146.297245,121.143493 C140.736121,120.944092 135.324216,122.236441 129.813943,122.656934 C128.941136,122.723679 128.671874,121.458863 129.379624,121.053387 Z M171.75704,91.4247221 C185.641927,90.7739589 194.279134,105.946753 191.086344,118.378834 C190.534483,120.523849 188.136972,122.629652 185.822824,122.388536 L185.239739,122.334833 C184.943515,122.30634 184.64591,122.268896 184.372314,122.193307 C182.174874,121.58426 180.205013,119.296577 180.36507,116.925462 L180.40759,116.234556 C180.73155,110.361725 180.095618,103.59542 173.121687,102.173161 C167.207105,100.966746 163.905109,106.664262 163.835085,111.908746 C163.821747,112.839838 162.776379,113.489766 161.953589,112.989179 C157.677918,110.385292 156.937657,105.20505 158.570732,100.743985 C160.640627,95.0915225 165.820784,91.7025479 171.75704,91.4247221 Z M68.7182714,94.6788719 C78.8226614,91.3049149 89.7239985,96.6954035 94.616554,105.635889 C96.3329915,106.133139 98.0469281,107.457192 97.8085108,109.484569 C97.464223,112.401323 96.9457071,114.240147 94.9249959,116.451907 C91.7643736,119.911884 85.8448864,118.1428 84.5312035,113.883538 L84.4754844,113.691169 C82.9832925,108.185546 76.9278277,104.552952 71.4117195,106.480212 C64.9677846,108.731186 65.154517,115.542507 60.6345927,119.510494 C60.1035724,119.976874 59.4666816,120.051128 58.8297908,119.743267 C54.0289342,117.421377 54.8917379,110.433182 56.6031737,106.433491 C58.8481305,101.184835 63.211333,96.5168608 68.7182714,94.6788719 Z M54.9571776,63.9701069 C63.1450597,55.608634 84.4959083,47.5174781 90.0970465,62.9580867 C91.1640887,65.8990358 88.8924558,69.8645198 85.8330456,70.4744018 C80.8229488,71.4722387 76.3780509,69.2955192 71.4012991,69.6859771 C67.372381,70.0038499 63.1700685,71.3512635 59.9489347,73.849193 C51.0274611,80.7673065 49.0651037,92.4685296 42.8487489,101.273856 C42.5461424,101.702693 41.9584356,101.522481 41.9025826,101.016888 C40.4870843,88.1976875 45.989021,73.1275133 54.9571776,63.9701069 Z M161.740764,55.7388701 C167.174343,53.8182843 173.327343,53.9826437 178.789265,55.6863084 C184.291202,57.4033221 189.342146,60.6638127 193.233516,64.9238087 C194.999137,66.8577435 196.633046,68.9919131 197.943507,71.2637442 C198.639586,72.4676561 199.37151,74.9547396 200.162622,76.4356431 C204.442872,78.9088818 206.272346,84.5447374 202.440275,88.5542423 L202.267529,88.7300618 L201.754849,89.238992 C199.694957,91.2797187 196.588864,92.1640892 193.777041,91.3489666 C187.484826,89.5268296 186.72039,84.5668459 184.542123,79.3023384 C183.103284,75.8249268 180.638249,72.7479849 177.649697,70.4878342 C170.586378,65.1482386 159.004801,63.4470768 150.500975,65.9633613 C150.048315,66.0976855 149.516461,65.5203417 149.839075,65.1015172 C151.450476,63.0124004 152.379136,61.2978896 154.536562,59.6125798 C156.726499,57.9022406 159.116507,56.6666248 161.740764,55.7388701 Z"/>
    </g>
    <g transform="translate(329.283 384.618)">
      <path fill="#FFF" d="M327.829892,58.6990083 C326.258506,38.7731395 301.153836,30.3324069 288.649435,27.8294715 C247.011445,18.0329823 211.58731,43.1674598 161.938167,43.6813958 C156.927237,43.7598211 142.597193,42.913829 135.93318,41.1525967 C102.122113,33.4635791 68.346057,25.2848205 35.1710465,15.2004937 C30.2934963,16.3435008 28.8504884,22.7151401 32.1991671,26.3452308 C63.9736847,37.6226235 112.584962,47.7211336 138.255664,48.8708153 C137.762991,82.0597389 120.256829,115.432211 96.081653,133.787071 C134.53102,176.341145 224.203417,190.335891 276.976993,167.998861 C302.936964,160.201383 330.330773,90.402857 327.829892,58.6990083"/>
      <path fill="#000" d="M32.4881855,16.2049217 C31.0585156,16.1490228 31.8921423,11.9774637 35.1124425,12.572328 C76.6637348,22.2979008 128.431957,40.8229601 171.141156,40.6869673 C202.559715,39.6574265 230.712125,22.1452217 262.304078,22.0392641 C283.54072,22.4464083 310.620251,25.46912 325.482149,42.5241219 C345.084883,104.745428 300.941845,189.37468 231.486564,189.864421 L218.340461,188.912488 C173.53004,185.608428 124.439168,180.322105 95.556218,142.273607 L95.3311388,142.467168 L95.3311388,142.467168 C91.0121186,139.5671 91.2530367,133.303921 94.9234953,130.082643 L95.0327004,130.254511 L95.0327004,130.254511 C95.1027251,130.141045 95.1802524,130.032584 95.2552788,129.921621 L95.2085957,129.775616 L95.2085957,129.775616 C96.6207594,128.29221 98.2263246,126.904749 99.686005,125.662459 L99.6935077,125.686654 L99.6935077,125.686654 C121.381141,107.602946 135.541959,80.2583763 136.357246,51.9426679 C129.177219,53.9166496 8.54642491,28.8872954 30.0798378,22.7792987 C45.4819258,27.9904102 60.9748791,32.6967631 76.7804425,36.4428232 C77.0455358,36.2934813 77.4256696,36.332694 77.5715543,36.6272061 C96.9066934,41.3894579 116.63197,44.110983 136.383089,46.3144005 C136.362248,45.3699595 136.326402,44.4255185 136.278052,43.4794089 C101.159024,36.6372178 66.7302383,26.4786372 32.4881855,16.2049217 Z M316.857447,41.4570371 C244.824592,5.03849243 209.068673,58.8424265 139.403318,44.0283861 C146.691717,76.5715524 128.694549,111.655198 104.250112,132.918469 C139.767613,163.684551 155.139691,168.343348 201.73109,173.336704 L207.817734,174.062058 C216.969147,175.146734 226.206448,176.158499 235.38627,176.316866 C283.003031,172.848632 318.983195,123.26715 324.36759,78.3436307 L324.396772,77.1026454 C324.638124,65.7016796 324.114884,53.6336277 319.068225,43.1890684 C318.138731,42.8653554 317.330947,42.2821715 316.857447,41.4570371 Z M216.575315,70.0453152 C219.064525,69.4846577 221.604586,72.2028455 220.061543,74.5831371 C215.075621,82.2796635 202.882162,85.2614939 194.35416,86.4712461 C184.478184,87.8720556 174.904815,86.7674267 165.523179,83.3959727 C165.020502,83.2149271 165.056348,82.3255507 165.658226,82.3973015 C174.566362,83.4585461 183.749594,82.6818018 192.405141,80.322368 C201.181564,78.6111945 208.268225,72.7693432 216.575315,70.0453152 Z M284.256612,64.5013967 C284.215291,63.0388481 291.399486,67.2704776 292.535719,67.8403125 C301.310475,73.1131631 311.467383,73.4994495 321.144956,75.5693771 C323.40075,76.4353928 323.397416,79.3054254 321.144122,80.171441 C309.065704,83.3860444 290.735085,74.9494834 284.256612,64.5013967 Z"/>
    </g>
    <path fill="#000" d="M324.35592,52.7972535 C316.408122,106.601188 260.926927,112.551499 251.06929,59.1371889 C252.651514,58.4438758 253.789414,57.0789417 253.551831,54.4291674 C253.495978,42.7888491 257.106415,30.4860871 267.598442,24.0126618 C278.440591,17.3331615 291.129224,16.6707179 303.676141,16.8392489 C327.619568,16.2685796 327.116058,36.2979032 324.35592,52.7972535 M242.383733,29.3973102 C234.869421,29.0802718 225.362742,29.3455829 218.631206,33.9276234 C216.780554,28.9401074 211.972195,23.6146951 207.113818,20.7671889 C225.171841,21.2961426 243.760051,19.5173898 261.953121,18.1366038 C257.598255,21.1075881 253.546829,25.5711563 250.913402,30.7313748 C248.470042,29.4273455 244.970477,29.549155 242.383733,29.3973102 M209.262075,58.5014433 C188.425574,130.282294 136.414766,98.9956012 130.744437,89.7964792 C120.516671,74.573626 118.59266,37.5685601 127.501629,27.6744564 C140.254451,18.7272965 158.308306,21.0299971 173.373609,20.8105731 C201.050851,21.1843448 220.70777,29.4707297 209.262075,58.5014433 M348.958746,25.4868908 C343.297587,24.7460219 337.247957,24.5966801 331.984438,27.0912724 C330.363868,20.1973539 325.276244,14.433928 319.531722,11.8976201 C318.836477,11.0249299 318.94068,10.5560467 316.565678,10.6870337 C301.981377,6.30022218 285.661466,8.62127763 271.646533,13.1198869 C249.512075,14.9854081 226.289735,16.4562998 203.969378,19.0268145 C183.060352,9.62912629 119.960641,8.2516775 116.039261,31.4146762 C111.106692,30.6763102 102.706235,26.7909202 98.5614425,32.0612678 C68.1582409,26.9027179 36.7430165,34.0719593 6.20810185,37.2648706 C-1.47793688,38.681532 -5.43683037,53.9477695 3.28790731,53.7391915 C8.19296717,52.4067956 3.13702086,44.2330428 9.74184569,43.618155 C39.203049,40.3977114 68.0198589,35.82902 97.7828351,35.2942261 C96.7474707,40.4377584 117.468097,40.7723174 117.774038,37.7687949 C117.818221,37.7913213 117.864904,37.8063389 117.90992,37.8263624 C112.789784,56.9237597 117.411411,84.4076592 126.664668,96.249881 C139.629231,111.7564 172.178188,116.204951 186.610768,106.22825 C205.228155,97.0199508 224.595805,50.7974081 219.155557,35.441065 C229.029032,32.3090584 238.789968,33.2493279 249.036908,34.844532 C246.691082,41.4764766 242.641324,57.80229 248.467541,59.2181172 C247.397998,91.6311309 276.872539,111.855683 304.04377,98.5592561 C327.561215,87.5104648 335.785776,52.5377825 332.908097,31.3103872 C335.835794,36.9720271 360.41778,30.8081315 348.958746,25.4868908" transform="translate(349.29 351.245)"/>
  </g>
</svg>
