<svg xmlns="http://www.w3.org/2000/svg" width="473" height="987" viewBox="0 0 473 987">
  <g fill="none" fill-rule="evenodd" transform="translate(-191 13)">
    <g transform="translate(.085 374.87)">
      <path fill="#D08B5B" d="M344.339569,605.094132 C277.127372,605.094132 210.276245,601.7914 145.571935,595.27659 L145.543343,595.148368 L142.107456,594.733485 C132.329963,593.514969 122.334357,592.554531 112.667963,591.625944 C87.1683856,589.175846 60.7988081,586.641628 36.2035405,579.117378 L31.8584419,577.787791 L31.4328363,578.876451 C30.7932025,578.544871 30.1217095,578.201041 29.4077377,577.871095 C33.2773997,514.688788 39.7325546,452.675178 45.5619631,400.172031 L45.8013152,398.022479 L44.3741884,396.398064 C36.1324701,387.015006 33.0960476,379.152642 35.1023574,372.376488 C51.5375969,338.080835 55.0216814,294.326988 58.3913997,252.008081 C65.3767236,164.297845 71.9740194,81.4526862 185.916245,77.8665597 L186.098414,77.8583927 L187.300076,77.7750894 C211.061287,76.1474077 235.631231,74.4633738 257.579738,63.5416543 L260.137456,62.2700535 L260.2894,59.4181396 C260.474019,55.9765688 264.712104,51.883272 268.116949,48.5952407 C269.289202,47.4632955 270.395287,46.3942361 271.390273,45.3235434 L271.598583,45.0989511 L271.777484,44.8514912 C276.91416,37.7151729 282.946977,33.4560861 287.915372,33.4560861 C295.151484,33.4560861 298.657625,42.535332 300.103541,47.9475982 L302.383512,56.4796556 L308.417963,50.0293646 C322.597738,34.8771429 329.381287,18.2140274 328.619935,0.44428441 L329.134583,0.28421135 L328.474526,-3.96099152 C327.228752,-11.3284357 328.05709,-16.7937873 330.939118,-20.2026902 C334.312921,-24.1938995 340.929005,-26.134377 351.165597,-26.134377 C357.929541,-26.134377 365.289822,-25.281743 371.784188,-24.5295629 C373.907315,-24.2837365 375.953653,-24.0468937 377.886442,-23.8484357 C390.886611,-22.4796477 404.17678,-20.0164827 417.028273,-17.6349876 L418.831991,-17.3009576 L417.611541,-13.9778082 L420.733738,-11.8200887 C424.894217,-8.94449054 427.992724,-3.17614351 429.235231,4.00509328 L429.29078,4.3293229 L429.390442,4.64456882 C431.238273,10.5003027 431.939174,17.0396138 432.681738,23.9627736 C433.929963,35.6113555 435.21985,47.6552198 442.194555,58.0240339 L446.385259,64.2529993 L450.40278,57.9105127 C452.362526,54.8160391 454.990498,53.3108624 458.436188,53.3108624 C467.730893,53.3108624 479.082555,63.5865727 481.099484,71.5510241 L481.747287,74.1089263 L484.239653,74.9754442 C501.354555,80.9332655 515.456724,85.2813725 527.898949,89.117409 C559.138893,98.7487436 574.819315,103.583603 584.88109,117.754153 C595.232048,132.331418 600.470019,157.774868 609.183907,208.396339 C618.71878,263.253213 625.089794,319.637315 631.250048,374.165059 C638.986921,442.653461 646.986019,513.447405 661.343062,582.122014 C660.343991,583.149422 659.586724,584.17193 659.070442,585.187903 C652.732921,585.748159 646.287569,586.255329 640.01785,586.748616 C629.582752,587.570215 618.792301,588.419583 608.248555,589.524577 L605.908949,589.769586 L605.390217,590.576485 C604.427907,590.657339 603.479484,590.752076 602.5474,590.845996 C601.060639,590.995452 599.626977,591.139191 598.225991,591.220861 L597.802019,590.373127 L594.400442,590.754526 C509.722076,600.269889 425.5894,605.094132 344.339569,605.094132"/>
      <path fill="#FFF" d="M287.915372,33.4560861 C295.151484,33.4560861 298.657625,42.535332 300.103541,47.9475982 L302.383512,56.4796556 L305.905174,52.7146719 L299.496174,63.9258199 L349.390212,109.707005 L351.300768,111.052383 C371.691022,125.331755 385.57279,132.471441 392.946072,132.471441 C400.547394,132.471441 423.171698,113.854928 460.818986,76.621901 L440.490717,63.9258199 L442.322808,58.2159583 L446.385259,64.2529993 L450.40278,57.9105127 C452.362526,54.8160391 454.990498,53.3108624 458.436188,53.3108624 C467.730893,53.3108624 479.082555,63.5865727 481.099484,71.5510241 L481.747287,74.1089263 L486.279067,75.6827264 C499.779905,80.3473667 511.387225,84.0098895 521.793656,87.2322885 L535.102882,91.3440727 C561.611801,99.5820696 575.624257,104.717247 584.88109,117.754153 C595.025028,132.039873 600.258455,156.761476 608.665176,205.38915 L609.183907,208.396339 C618.285377,260.759719 624.504074,314.514643 630.408429,366.718269 L632.705272,387.032572 C640.011644,451.494426 647.883335,517.739568 661.343062,582.122014 C660.343991,583.149422 659.586724,584.17193 659.070442,585.187903 C654.845428,585.561407 650.572489,585.911318 646.335615,586.24925 L634.294356,587.200884 C625.667107,587.887527 616.875256,588.620491 608.248555,589.524577 L605.908949,589.769586 L605.390217,590.576485 C604.748677,590.630387 604.113309,590.69046 603.484839,590.752348 L602.5474,590.845996 C601.060639,590.995452 599.626977,591.139191 598.225991,591.220861 L597.802019,590.373127 L594.400442,590.754526 C509.722076,600.269889 425.5894,605.094132 344.339569,605.094132 C277.127372,605.094132 210.276245,601.7914 145.571935,595.27659 L145.543343,595.148368 L142.107456,594.733485 C134.285462,593.758672 126.323875,592.949029 118.502926,592.188728 L107.191415,591.097848 C83.4103557,588.788356 59.0420033,586.104182 36.2035405,579.117378 L31.8584419,577.787791 L31.4328363,578.876451 C30.7932025,578.544871 30.1217095,578.201041 29.4077377,577.871095 L29.6724943,573.613478 C33.567203,511.906462 39.8635525,451.495332 45.5619631,400.172031 L45.8013152,398.022479 L44.3741884,396.398064 C36.1324701,387.015006 33.0960476,379.152642 35.1023574,372.376488 C51.5375969,338.080835 55.0216814,294.326988 58.3913997,252.008081 L58.8109153,246.7519 C65.6134245,161.890601 74.0781567,83.0067986 182.530074,77.9978468 L186.098414,77.8583927 L191.500928,77.4853977 C213.942798,75.9173217 236.922319,73.8209197 257.579738,63.5416543 L260.137456,62.2700535 L260.2894,59.4181396 C260.453952,56.3506526 263.838672,52.7654192 266.983415,49.6940958 L269.104485,47.6388977 C269.912182,46.8522711 270.679569,46.0883239 271.390273,45.3235434 L271.598583,45.0989511 L271.777484,44.8514912 C276.91416,37.7151729 282.946977,33.4560861 287.915372,33.4560861 Z"/>
      <path fill="#000" d="M199.76689,266.021007 C199.959679,265.68371 200.605031,265.802132 200.552749,266.234166 C197.745059,284.86961 190.934552,302.926014 186.789594,321.324616 L186.915501,321.675001 C189.030761,327.725981 193.893303,349.553287 182.001735,343.484117 L181.051065,348.459881 C165.582779,429.748389 153.097721,511.904382 154.838946,594.888658 C155.094636,601.493305 151.636693,621.058969 142.294608,611.475003 C135.432636,599.966894 138.454355,585.85678 137.913566,573.080337 C139.093172,502.942202 146.238608,432.26178 164.587031,364.409586 L165.345433,362.063157 C177.483123,324.757614 177.437315,336.706412 171.734101,295.0514 C171.596045,291.208013 168.816946,282.854813 172.475848,280.546821 C175.772281,282.627044 176.865518,288.73466 178.060234,292.354353 L178.141876,292.597219 C179.916186,297.772642 181.498524,302.992167 183.066157,308.232926 C188.276355,294.164464 192.463791,279.173132 199.76689,266.021007 Z M393.696833,587.642983 C400.434636,585.652687 406.500946,593.31741 404.147453,599.59456 C402.623932,606.141222 389.896608,610.202667 389.412186,601.075236 C385.931369,597.354354 387.061143,590.512048 391.81551,588.445799 C391.767312,588.436815 393.257341,587.837358 393.696833,587.642983 Z M556.933912,216.355074 C557.184701,215.489372 557.903574,216.278304 557.709969,216.828759 C559.213067,224.442847 557.990983,232.817281 558.335715,240.727014 C559.298025,238.46149 560.544617,236.29642 562.164532,234.267739 C563.568786,232.511019 566.116701,235.020736 564.656081,236.757855 C561.029039,241.072477 559.442617,246.274035 558.751518,251.679768 C564.073631,364.555776 579.745067,477.234142 606.629293,587.01486 C612.45625,602.155648 588.954814,608.288243 591.533772,591.801534 C573.748194,514.803943 559.566786,436.181119 556.395574,357.029075 C552.117462,322.295671 553.802729,286.106909 554.389264,250.921054 C554.412955,239.457863 555.52149,227.712094 556.933912,216.355074 Z M317.613414,-13.8834795 C324.217245,-13.3599752 328.045245,-2.39987084 329.36209,3.61266928 C334.189977,27.1793438 321.210231,51.7064566 304.127188,67.1616738 C329.350653,89.8806145 356.741357,110.128223 386.301752,126.893426 C390.322541,122.340327 397.425498,122.994504 402.374287,125.740247 C418.379836,110.603542 434.594512,95.7886171 450.176907,80.2288624 C425.952137,64.9096011 423.928454,33.3684816 428.777812,7.7059326 L428.92685,6.93010176 C429.293639,4.7274638 432.363555,5.52701239 432.537555,7.41930463 L432.646453,8.63805501 C434.100364,25.3276707 434.23033,43.3463339 443.514259,57.9297052 C454.076794,41.2518891 479.390118,58.3192707 483.103752,72.9888232 C589.264991,109.939566 590.258343,88.1614625 611.268231,210.205736 C632.509301,334.973703 638.518428,461.883054 663.399611,586.081781 C663.706766,589.603388 660.50778,592.484703 657.322681,592.963289 C645.151667,594.582804 644.773442,561.703307 641.968202,552.521157 C635.979498,518.241838 631.457132,483.723226 627.558879,449.149079 C615.591273,346.735806 611.494512,242.767537 588.32147,142.02768 C585.99085,133.551975 582.67178,125.166924 576.804794,118.481423 C552.352484,91.8798943 509.940597,97.6956099 483.438681,73.9884631 C486.005386,81.889212 486.212062,90.6221774 485.707217,98.8749237 C482.807217,142.85663 481.057414,186.92164 477.942569,230.887829 C477.581498,235.824776 471.603414,237.447558 468.80471,233.361611 C446.62747,201.001536 423.866146,169.130663 402.248484,136.378571 C398.765217,138.029937 395.049132,138.782934 391.060202,137.991553 C384.734935,145.975605 387.46747,166.860239 385.402343,177.810543 L384.636088,186.188592 C372.825751,316.055335 364.157163,446.246065 364.799812,576.714745 L364.82378,580.923508 C364.818062,584.926151 365.125217,589.076617 364.826231,593.06701 C362.125555,606.034561 349.356569,601.394076 350.072991,589.828797 C349.504428,443.646159 355.546231,296.512883 379.673414,152.154751 C357.892372,179.600748 336.136653,207.067161 314.345808,234.50744 C312.715586,236.577686 309.616593,235.667309 308.322883,233.750973 L308.241104,233.624588 L308.776991,235.061979 C307.466681,234.642196 306.322202,233.845097 305.134428,233.157436 C294.178963,206.263529 287.089076,178.055553 278.482202,150.384964 C271.298372,123.252581 260.528343,96.6396177 256.559836,68.8367241 L256.380118,68.7615877 L256.380118,68.7615877 C245.600287,74.1795708 233.657188,77.6570763 221.58747,77.8637012 C207.937864,81.378775 193.581639,83.0366745 179.965526,84.8236125 C80.9840335,89.0573816 61.4151602,187.311205 62.320287,268.752458 L62.1484122,272.640996 C61.1140454,296.86039 60.6261442,321.501722 54.6201743,345.060755 C52.4031039,349.505233 45.3883715,378.095425 38.332794,367.939769 C32.384118,375.888703 34.2466532,380.517755 42.1746814,385.428568 C56.0219771,397.313175 69.5335264,416.235281 72.1982588,435.73561 C72.694118,439.334804 67.5263997,442.497063 65.6891884,438.47972 L64.7720963,436.481238 C59.4066586,424.836915 53.7338363,413.447975 46.0713011,403.330616 C45.732287,403.897405 45.2707377,404.374357 44.7185123,404.69287 C42.8772166,452.947547 39.1488785,501.114838 35.8151039,549.284578 C33.9922211,556.187827 37.4279751,600.007689 23.4568646,589.181398 L23.0281462,588.836508 C19.8370872,582.082435 21.7571123,573.916966 22.4093559,566.706006 L24.3727659,543.612601 L24.3727659,543.612601 C28.6133011,496.475169 32.0851321,449.244633 37.943949,402.272174 L37.4839596,401.743921 C30.7459317,393.938954 24.4506257,383.632809 27.768625,373.218913 C29.4694138,366.956463 35.1084842,363.838305 38.9234138,359.053264 C59.6212447,249.910389 23.8630194,80.9165232 183.015019,75.6096112 L189.67751,75.1486257 C211.131476,73.6271588 233.226037,71.4596643 252.648512,61.7959596 C253.013667,54.9814207 260.799555,49.2073568 265.051526,44.6289406 C278.149724,26.434514 295.73271,25.5222609 302.090653,49.3233281 C318.998062,31.1476856 325.827357,10.0433594 317.613414,-13.8834795 Z M388.868048,514.917137 C397.109766,506.974737 408.151822,521.442564 393.207428,531.662739 C390.496132,536.630721 383.085202,533.127081 384.345681,527.927157 L384.330037,527.051884 C384.220037,522.526327 383.773788,516.939008 388.868048,514.917137 Z M389.745726,408.922147 C404.79305,404.075037 401.043473,431.472848 391.116487,435.210881 C385.11798,438.189383 383.061839,430.734552 384.157304,426.185537 C380.260684,420.266917 383.829726,412.478873 389.745726,408.922147 Z M389.503107,330.191438 C386.727276,318.452203 403.579952,316.497841 403.677163,328.759764 C404.221219,333.915587 399.517501,337.270588 398.32891,341.75345 C398.078121,344.6707 394.497642,346.725515 392.206233,344.289301 C388.383135,340.222139 387.561332,334.703702 389.503107,330.191438 Z M387.386924,225.880972 C389.10405,212.139189 404.661121,217.932038 399.167459,220.221246 C399.05636,220.340485 398.941177,220.457273 398.819459,220.575694 C405.102248,221.185768 404.661938,228.562196 403.96267,233.281085 C401.497262,243.84509 385.526022,234.234173 387.386924,225.880972 Z M291.714372,182.1709 C292.992822,186.793418 294.280259,191.413486 295.597921,196.02457 C298.992146,207.905095 303.025188,219.469556 307.277977,231.015234 C302.074315,214.738417 296.888625,198.455884 291.714372,182.1709 Z M300.313076,51.322608 C285.418512,26.317726 277.381019,54.5077352 266.579132,65.5878943 C274.210625,120.133606 297.305245,171.086658 313.024062,223.668207 C334.924372,195.682373 356.848372,167.715323 378.7544,139.734389 C380.06471,138.056888 381.326822,136.298535 382.634681,134.57775 C355.135329,118.690498 329.206879,99.9072316 307.380907,76.6035342 C303.18285,77.5010868 299.963442,71.8903627 296.949893,69.5554194 L296.633688,69.295464 C293.846275,66.9473277 291.26267,63.242527 293.017329,59.5900548 C292.784512,59.095135 293.138231,58.6394168 293.619386,58.4891442 C295.798879,56.097032 298.11071,53.7906732 300.313076,51.322608 Z M474.030428,103.718767 C475.484512,85.8722544 472.5404,60.2866993 448.535752,64.3579452 C452.810597,70.2120457 460.84809,71.1577834 465.081273,76.7783079 C466.630935,79.3517273 464.729188,82.5393046 461.912512,83.0276908 C443.280625,99.8974312 425.666597,117.177971 406.643414,133.787185 C427.782372,161.148244 448.076653,189.027907 468.633977,216.8112 C470.053752,179.097661 472.550202,141.423323 474.030428,103.718767 Z"/>
    </g>
    <g transform="translate(183.887 .006)">
      <path fill="#D08B5B" d="M316.628724,123.982164 C310.858894,103.159599 311.6842,100.907443 303.084888,81.0183656 C274.569962,23.2368913 84.0147705,42.5836806 64.5670692,100.262251 C54.0165554,131.553278 56.4951768,175.621544 53.7488421,202.754744 C52.9084295,217.14066 52.0828795,231.527479 51.2276679,245.912182 C50.9323177,250.879986 50.6334299,255.847538 50.3291705,260.814713 C49.7365361,270.484432 49.1602052,280.154152 48.6221878,289.827138 C45.0394805,319.625228 59.9865841,322.655999 85.624747,321.773964 C92.402952,338.157768 103.380954,351.834214 116.94144,362.961742 C113.6685,371.881732 125.537492,376.499349 131.9399,380.065875 C166.7749,399.55232 209.564408,411.439378 248.149228,400.481724 C259.486374,397.262102 306.305266,386.111391 320.700884,351.592893 C327.770173,334.641816 342.140842,246.858473 323.189584,167.893453 L316.628724,123.982164 Z"/>
      <path fill="#000" d="M194.828599,-11.8372394 C200.21611,-12.7919609 206.241091,-12.4244462 209.3298,-7.12406784 C209.998246,-5.98150554 210.422139,-4.82914286 210.625933,-3.69393085 C225.348047,-7.00972994 240.632635,-7.36907763 255.672669,-5.19665753 C260.156148,-4.5522818 261.729441,1.43412394 259.75671,4.85691063 C259.552916,5.20809132 259.349121,5.55028832 259.129023,5.88595173 C263.840752,6.26898369 268.544329,7.08568297 273.207147,8.34421657 C276.524922,9.24258578 279.622598,13.546591 278.147941,17.0747319 C278.016697,17.3850776 277.878117,17.6954234 277.740352,18.0049524 C285.067987,19.238985 292.070366,22.1219335 298.192352,26.7771194 C298.926013,27.3243079 299.60261,28.0348363 300.165083,28.8433686 C313.851922,27.2989902 327.946349,30.1337534 340.165867,36.7490176 C343.589615,38.6021083 345.244426,43.9441383 342.921169,47.2762714 C342.19566,48.3134795 341.437545,49.3016856 340.622367,50.2572237 C345.937327,52.225469 350.640904,55.4097795 353.811947,60.5966367 C357.260149,66.2236947 358.319881,73.4678174 356.469427,79.6583979 C360.33337,83.6030554 362.355012,89.6458134 360.977361,95.7057221 C359.721987,101.235593 356.338998,104.746583 352.002251,106.854484 C352.882644,109.549592 352.173439,112.612214 350.176253,114.69398 C347.111184,117.887275 343.442883,120.337372 339.44851,121.947087 C339.440359,122.984295 339.179502,124.054171 338.657788,125.050544 C335.054701,131.975337 327.286055,136.574171 319.38698,137.268365 C322.04446,148.448162 324.229137,159.768431 326.3486,171.022547 C330.115538,191.039846 333.03306,211.253153 334.810148,231.547314 L335.025856,234.057082 C337.920745,268.39787 338.593738,304.373769 331.622802,338.249892 C327.180082,359.81892 313.713341,377.998646 295.746819,390.314471 C277.47868,402.841821 255.159107,409.074053 233.198212,410.061443 C221.997666,410.560446 210.691962,409.612258 199.719667,407.309983 C194.509864,406.215606 189.480216,404.663877 184.532086,402.687465 C179.208973,400.55588 174.824131,397.411588 170.323533,393.87528 C167.983972,392.037706 169.32168,387.701033 172.09247,387.153028 C174.073352,386.753662 176.029779,386.320811 178.00251,385.961464 C179.812205,385.6258 181.785751,387.439689 181.409954,389.113923 L185.226813,390.09851 C186.499012,390.427254 187.770429,390.758847 189.038976,391.100188 L190.939385,391.620373 C196.344015,393.132083 201.870921,394.405318 207.414132,395.312671 C218.696195,397.150244 230.434758,397.191079 241.773884,395.761855 C260.840897,393.368926 280.315499,386.557654 295.143587,374.004986 C302.414974,367.847074 308.471747,360.553949 312.865556,352.084778 C318.449525,341.328031 320.136944,329.347053 321.53905,317.448561 C325.590485,283.04102 324.343262,248.584477 321.196675,214.16877 C319.631534,197.050753 317.495767,179.965404 315.229572,162.92089 C314.063868,154.182207 312.808494,145.427191 311.774033,136.655841 C309.466264,136.035149 307.265283,135.006108 305.292553,133.511549 C303.955661,132.498841 303.17309,131.321978 302.830715,130.122247 C300.838624,129.745782 298.929634,128.650761 297.553598,126.799088 L297.377174,126.553271 C293.765936,121.317412 287.522488,118.320942 281.742061,116.140355 C278.236795,114.817302 274.666316,113.664939 271.11214,112.489709 C267.411232,111.256493 263.498377,109.435254 259.609978,108.961568 C255.199865,108.438881 250.757145,109.7701 246.306274,109.296415 C242.262991,108.855397 238.700663,107.400856 235.791293,104.494223 C234.77232,103.481516 233.891113,102.313636 233.19006,101.055919 C219.617346,103.962552 205.359883,100.296389 191.257304,101.178424 C181.980579,101.766447 173.796192,107.51601 164.421645,107.360838 C161.861986,107.320003 159.383845,106.421633 157.582301,104.845404 C148.738435,106.535971 139.746207,109.785618 131.431392,112.578729 C123.214397,115.33999 115.307171,119.055971 107.187998,122.069592 C107.179846,122.077759 107.179846,122.077759 107.179846,122.085926 C106.120115,125.52423 102.957224,127.009806 99.5905393,126.406265 C88.5774847,124.43802 79.3007592,117.478925 68.5811687,114.93164 C65.6302243,125.703903 62.459182,136.336511 60.2916237,147.321933 C58.0979797,158.404543 56.5572933,169.634158 55.5383209,180.888274 C54.5111966,192.183225 54.0220898,203.592514 53.9976345,214.9283 C53.9894827,220.710531 54.1362147,226.508279 54.3318574,232.29051 C54.4903643,237.134785 55.4116852,243.259736 53.664869,247.918484 L53.5085277,248.31415 L53.5003759,248.31415 C53.2884296,248.992827 52.3346714,249.401177 51.7966539,248.772318 C48.5114866,244.949349 47.7289157,238.865756 46.8159164,234.062748 C45.7072743,228.232331 44.9980695,222.34393 44.4282601,216.438377 C43.2861957,204.58807 43.0334905,192.787583 43.6367222,180.888274 C44.8187303,157.465339 48.5685491,132.726701 56.5735969,110.5868 C54.1117594,110.814659 53.0112691,107.181164 52.8482335,105.131249 C52.5363393,101.011533 53.1804686,96.6398609 53.8785456,92.508117 L54.6083764,88.230829 C55.3003342,84.193461 56.0328622,80.2613942 57.4050785,76.3344318 C60.6992127,66.9089054 65.4345816,58.0567019 71.3364703,50.012214 C83.3766491,33.6047254 100.064158,21.1819126 119.065141,14.0202766 C120.255301,13.571092 121.380247,13.579259 122.374764,13.921456 C139.664689,4.58739987 158.250747,-2.59955382 177.13027,-7.71209132 C182.966944,-9.28832094 188.876984,-10.7747136 194.828599,-11.8372394 Z M51.2425774,251.491519 C59.0927414,246.559472 75.2903281,245.269087 79.6678339,255.77919 C79.847173,256.203873 79.3417627,256.579555 78.9667808,256.481551 L77.8955984,256.210462 C73.7808036,255.188957 70.2250695,254.602025 66.0054508,256.294527 C62.2963909,257.78092 58.6933042,260.107696 56.2396185,263.309157 C50.439433,270.880348 49.8105034,281.164595 50.3514192,290.348402 L50.3784888,290.791905 C50.8838991,298.85191 52.9462994,308.668635 60.812767,312.654128 C64.7989874,314.671375 69.1112789,314.524369 73.439874,314.491701 C78.3717008,314.459033 83.4095008,314.998055 88.1212296,316.517932 C90.7542545,317.366483 91.993325,320.861956 89.808648,322.912688 C89.0831396,323.590548 88.3250241,324.226757 87.5261497,324.798446 C89.9146212,327.347365 92.2623338,329.928134 94.5366803,332.647743 C98.3924722,337.261277 102.492818,341.720455 106.772502,345.942791 C110.913606,350.01812 115.299264,353.962778 120.027296,357.343913 C124.999882,360.889204 130.950681,363.37932 135.254821,367.72416 C138.059033,370.550757 137.578078,374.494598 135.254821,377.353045 C129.487274,384.457153 119.670392,376.988815 114.155871,372.78812 L113.489569,372.281342 C107.758867,367.936502 102.313478,363.248648 97.6751156,357.727761 C92.9470833,352.092536 88.8548898,346.097963 85.8305794,339.376528 C84.0534914,335.423704 82.920394,331.692205 82.3090105,327.788382 C72.3964462,332.100554 59.8997676,330.727683 51.0143276,324.659607 C39.2187021,316.606952 35.9090795,301.825512 35.8677922,288.332823 L35.8689912,287.532916 C35.956275,274.417983 39.3952696,258.934916 51.2425774,251.491519 Z M73.6059976,270.500312 L73.9694952,270.504605 C78.335045,270.599342 82.228317,272.174609 85.9364865,274.345142 L86.3194417,274.571767 C89.9225284,276.719686 95.0907568,278.442105 96.9982733,282.461082 C98.1395225,284.886679 98.0580047,287.663456 96.0689704,289.67172 C92.4658837,293.315016 87.0286465,292.710658 83.1320957,289.867728 C80.2219103,287.736959 78.3062421,284.543665 75.4531191,282.386762 C70.0892479,278.320417 61.6277004,278.549092 56.0445464,282.069066 C55.7013565,282.289575 55.3679487,281.873059 55.5220173,281.546379 C58.9508906,274.516578 65.7464059,270.473138 73.6059976,270.500312 L73.6059976,270.500312 Z"/>
    </g>
    <path fill="#000" d="M119.746773,196.764544 C114.255337,194.524868 109.355587,190.788941 105.773397,186.016536 C104.528001,184.357452 104.205091,182.605485 104.466348,181.003088 C104.760113,179.201305 105.826339,177.56831 107.280432,176.472947 C108.73903,175.374191 110.56355,174.832311 112.32748,175.108546 C113.860232,175.348578 115.386014,176.187588 116.593556,177.927664 L116.845841,178.275638 C118.975515,181.156097 121.750676,183.519479 124.912778,185.042816 C127.96053,186.511065 131.369133,187.196353 134.89648,186.797844 C141.614542,186.039146 146.244967,182.406845 151.166604,177.474242 C151.776656,176.851489 152.387098,176.209213 153.000499,175.556598 C153.387874,174.965006 153.925453,174.584789 154.522312,174.385296 C155.185019,174.163794 155.934694,174.176327 156.621339,174.415891 C157.283611,174.646953 157.87565,175.084804 158.272628,175.667555 C158.649923,176.221412 158.863838,176.905628 158.794428,177.692646 C158.343942,182.804482 155.670754,187.366577 151.873601,190.948786 C147.656377,194.927286 142.06614,197.679639 136.803176,198.644975 C131.004935,199.708331 125.096682,198.946498 119.746773,196.764544 L119.746773,196.764544 Z M139.538445,117.904551 C145.707177,121.653239 155.10643,130.394445 148.470294,139.687897 C140.658928,147.88224 129.412324,138.486866 123.870193,134.237704 C118.731269,130.94458 112.957399,139.414249 117.725296,143.259527 C157.772854,172.90182 174.025002,118.884781 142.658504,113.497015 C139.204939,112.903306 137.922277,116.744854 139.538445,117.904551 Z M67.7728366,83.4228916 C68.4544006,74.9649286 81.3391183,73.0442771 82.6208366,81.4138114 C83.7685831,88.9111108 82.4174282,95.7983358 79.0395408,102.548355 C75.8119634,108.997013 67.6997098,105.988411 67.0862168,100.116343 C66.263855,92.2450799 67.3488648,88.6842287 67.7728366,83.4228916 Z M165.853042,79.678407 C167.649408,77.3263131 170.24307,75.7206823 173.350563,76.6280352 C183.059437,79.4644318 180.197831,93.2445988 176.788085,99.95215 C174.935352,103.594629 168.946648,104.518316 166.240254,101.311138 C161.828986,96.0809954 159.716479,85.6362283 165.324507,80.4844892 C165.476451,80.2182453 165.645549,79.9495512 165.853042,79.678407 Z M78.9027915,46.4134286 L80.4364186,46.1450653 C85.1808177,45.3247358 91.0799324,44.5364903 94.4361718,48.3498226 C96.2162,50.37197 96.8288761,54.1304201 94.4361718,56.0659974 C90.2274958,59.4716334 85.5744254,58.1518474 80.5308761,58.4401422 C76.3744817,58.6786184 72.3798338,59.3662792 68.3762,60.5104749 C59.5928761,63.0201918 52.4360028,67.6018748 44.9343972,72.6327423 C43.950031,73.2926354 42.9452423,72.0341018 43.4149606,71.1136817 C47.7453549,62.633893 56.1373831,55.6682648 64.5432986,51.4222453 C69.0297211,49.1559048 73.9392986,47.275863 78.9027915,46.4134286 Z M157.002631,42.6148684 L158.176461,42.855044 C170.950542,45.5245143 187.547062,50.8570005 193.596206,63.4010562 C193.826706,65.17483 193.583161,65.5549852 193.385115,65.803357 L193.319176,65.8860067 C193.155985,66.0981016 193.025772,66.3904732 192.256751,66.631887 C192.043348,66.581054 191.827821,66.5272149 191.610011,66.470149 C188.837189,65.743674 186.643351,64.7428524 184.519483,63.7043806 L182.216671,62.5701491 C179.54495,61.2604751 176.849639,59.998467 173.993229,59.066805 C167.897404,57.0790039 161.627323,55.6787221 155.2601,54.9310034 C153.880053,54.7690793 152.551155,54.3034291 151.502749,53.5053806 C150.507603,52.7478726 149.747374,51.6990849 149.400753,50.3050176 C148.951532,48.5008718 149.080628,47.1349854 150.048869,45.5073817 C150.776927,44.2850862 151.818662,43.4378756 153.014836,42.9513785 C154.234284,42.4554158 155.622614,42.3384928 157.002631,42.6148684 Z" transform="translate(313.775 151.912)"/>
    <path fill="#000" d="M304.141462,77.9602351 C294.223462,88.2057276 277.666504,91.145845 264.471096,85.6510922 C230.589293,71.4985104 247.173208,27.3559142 273.303434,15.5015241 C276.567772,14.6880916 280.927575,12.7582312 284.903434,12.3204804 C285.26287,12.1440733 286.045462,12.6545104 286.993885,12.1718411 C315.806814,15.3880029 322.368166,60.103922 304.141462,77.9602351 M194.858025,80.5826565 C183.734279,95.3330622 163.053603,99.8837106 146.156814,93.0267035 C112.776589,79.8843786 124.615941,40.7407987 147.454054,25.3950192 C195.6978,7.2716454 215.619575,53.3857537 194.858025,80.5826565 M122.496899,47.8999846 C122.465856,47.885284 122.434814,47.8779337 122.402955,47.8632331 C122.579406,47.7856467 122.755856,47.7080603 122.93149,47.6288404 C122.874307,47.7782964 122.812223,47.926119 122.756673,48.075575 C122.670082,48.0159559 122.59411,47.9465365 122.496899,47.8999846 M327.106194,31.9555645 C324.382645,31.9612814 320.448448,32.4088326 318.1938,34.2978581 C312.633969,15.5521594 292.111772,-1.79698343 274.26411,10.8536885 C260.209321,15.3724856 249.779941,25.3942025 243.852504,38.7178346 C233.164983,32.3622808 216.359687,35.0761725 207.091941,43.4808248 C201.022363,23.4300407 186.084504,16.408877 168.304645,15.3724856 C148.898335,12.1947087 129.555744,31.0367778 123.520476,46.1522481 C118.502251,45.5813753 111.003913,43.9847282 106.283039,47.0808352 C75.6435183,39.0477811 22.0752085,34.6188209 15.8463352,39.0820825 C11.407293,40.7849005 8.97129296,51.2598855 15.1715746,51.8250414 C20.5745606,51.0581607 14.5409268,44.1497015 19.9872085,43.3958881 C49.0059972,41.5975162 77.1768423,47.4401829 105.888476,49.8919142 C108.451913,53.3392018 116.734476,54.4923812 121.153096,53.1072592 C114.193913,78.7483499 129.21673,96.1930466 151.726448,101.418289 C186.58118,109.422758 216.905377,78.25098 207.791208,45.8280185 C218.349659,40.5766421 230.494532,40.8020511 241.996504,43.5682116 C222.776448,114.286202 336.699068,111.113326 318.906138,36.7210048 C330.747124,42.6094067 333.31873,33.143862 327.106194,31.9555645" transform="translate(222.282 196.83)"/>
  </g>
</svg>
