<svg xmlns="http://www.w3.org/2000/svg" width="498" height="989" viewBox="0 0 498 989">
  <g fill="none" fill-rule="evenodd" transform="translate(-351 -211)">
    <g transform="translate(130.695 568.556)">
      <path fill="#EDB98A" d="M631.344741,174.897244 C623.59531,144.823417 616.468579,132.072403 602.702354,121.619621 C589.82597,111.842502 571.029473,103.630866 543.603199,97.6325195 C515.037309,92.635246 514.227456,77.780035 507.064954,53.9041723 C504.975444,46.7264305 494.620958,44.8165377 490.152,49.990082 C489.522015,49.3096772 488.865184,48.6865604 488.185087,48.1233756 C488.793595,44.7001991 483.812231,34.888714 483.978665,31.6142726 C485.715866,-2.56372959 474.542865,-19.7267319 446.656178,-26.106849 C440.591676,-27.4949805 399.398342,-28.3119951 393.485072,-26.6762032 C367.634204,-19.524902 342.185881,3.18052339 346.080335,30.5324437 C337.965697,41.1430569 330.023911,47.6192415 317.504745,51.0380112 C298.008835,53.5148327 307.802495,329.874378 341.662349,495.442805 C356.190102,566.480831 703.564844,445.570557 687.868012,409.992085 C690.093119,403.470273 686.037417,396.303035 687.868012,389.568206 C689.192739,384.694484 692.585446,382.678721 694.293145,377.852638 C696.696183,371.061477 694.082821,361.950752 691.377274,355.02078 C690.268536,351.566756 693.417967,347.849213 694.293145,344.324681 C698.444425,327.701475 688.938707,329.166675 682.085828,318.053691 C682.187843,318.019318 683.969979,310.085871 683.961925,310.125532 C685.011173,304.461523 682.382583,297.205108 680.089694,292.477137 C678.539985,289.281614 675.22031,287.281672 671.92189,287.648282 C675.24363,276.365196 679.444645,266.976637 683.961925,256.106024 C691.951282,236.944521 699.548817,216.899562 711.02099,199.55541 C715.719032,192.453464 711.924676,185.921212 704.3219,185.437349 C679.714,183.872946 655.375453,180.328143 631.344741,174.897244 Z"/>
      <path fill="#EC7495" d="M592.929893,177.220733 L536.757984,272.343664 C545.6417,273.23084 551.881216,274.538527 555.476532,276.266726 C559.071848,277.994925 569.123174,289.358384 585.63051,310.357105 L589.564709,327.701791 L580.242333,341.685353 L583.877911,350.465329 C585.607161,346.499622 588.624488,342.977618 592.929893,339.899318 C597.235298,336.821018 604.135365,332.755175 613.630095,327.701791 C610.474769,326.012568 608.897106,324.176464 608.897106,322.19348 C608.897106,319.219005 604.728247,306.529197 613.630095,301.735646 C619.56466,298.539946 637.865203,293.202557 668.531723,285.723478 L715.151136,187.324049 L592.929893,177.220733 Z"/>
      <path fill="#9DDADB" d="M342.349339,51.683707 L520.712314,83.0075273 L602.702354,121.619621 L616.086602,131.937425 L536.757984,272.343664 L414.268064,294.706222 L383.061151,375.815715 L389.431161,467.242948 L588.697851,443.469784 L674.652282,433.249913 L694.85805,514.87405 L691.207631,548.452542 L685.898629,565.480133 L472.811909,623.046212 C400.474203,616.029721 357.893812,612.521475 345.070736,612.521475 C332.24766,612.521475 278.827751,617.192975 184.811007,626.535975 L152.181682,623.046212 C104.053411,572.288794 76.2569471,537.877691 68.7922904,519.812902 C61.3276336,501.748114 49.5244446,437.810042 33.3827233,327.998687 L36.0487719,302.689789 L98.4212835,142.07383 C103.973972,137.028418 110.250554,130.210348 117.251027,121.619621 C124.2515,113.028894 199.284271,89.716923 342.349339,51.683707 Z"/>
      <path fill="#000" d="M665.16801,283.695825 C649.048907,284.515292 632.912024,288.350152 618.331038,295.298277 C612.365281,298.145505 606.959647,302.25619 605.377076,309.018356 C604.5769,312.471509 604.772499,316.039441 605.198371,319.527295 C605.51933,322.168988 605.599348,325.541174 607.893186,327.329588 C608.284383,327.632106 608.702253,327.863444 609.137904,328.032498 C603.758943,330.461539 598.636927,333.380837 594.084814,336.387331 C589.924788,339.136686 585.648291,343.371937 583.727869,348.149941 C583.567834,347.607188 583.407798,347.100915 583.247763,346.619556 C579.975932,336.939872 574.934823,329.012122 566.995298,323.681578 C566.093629,320.39392 556.41786,306.242997 547.430105,306.776852 C537.587939,307.355195 529.671531,308.075211 520.770906,312.604083 C517.526636,312.532902 514.28948,312.57739 511.089665,312.719752 C510.538432,312.737547 510.565105,313.485834 511.089665,313.547227 C513.685791,313.877328 516.281918,314.241239 518.878045,314.668323 C525.048291,315.656845 531.200756,316.910515 537.218969,318.467592 C544.439224,320.336975 551.907534,322.213476 558.655686,325.47889 C571.742121,331.823759 579.842569,348.40886 578.179981,362.839856 C577.904365,365.206614 576.988608,372.360273 573.706997,371.621774 C570.933943,370.998943 569.831478,365.206614 568.862376,363.062296 C566.266249,357.36784 561.589665,353.648649 555.979541,351.130632 C549.391425,348.167736 542.340985,346.165779 535.511927,343.835501 C531.645298,342.509761 527.777781,341.183131 523.901372,339.866288 C519.936055,338.505847 516.166337,336.627566 511.943186,337.579608 C509.391513,338.157951 509.098115,341.200926 510.529541,342.945742 C512.707798,345.605231 515.944066,346.388219 519.082534,347.482622 C523.225668,348.924031 527.359911,350.366329 531.494154,351.806849 C537.885782,354.031245 544.581478,355.908636 550.813071,358.631298 L550.618362,359.076177 C550.110694,358.933815 549.515008,359.440978 549.613696,360.063809 C550.547235,365.820547 551.845298,372.475942 550.404092,378.242468 C549.266953,382.814937 545.256293,387.878554 540.047147,386.534129 C540.865105,385.786731 541.167393,384.496581 540.616161,383.304305 C538.552596,378.891102 511.525316,361.469628 509.115897,367.939063 C509.035879,368.16951 509.283934,368.338564 509.480422,368.303864 C511.534207,367.87589 514.974964,371.381539 516.618881,372.493737 C518.992737,374.096193 521.402156,375.661278 523.750228,377.307331 C526.319682,379.105534 528.8269,380.991822 531.271883,382.939504 C533.192305,384.470778 534.641513,386.062556 536.845554,386.837536 C535.690633,387.388297 534.773987,388.411519 534.383679,389.719465 C533.387904,393.12724 531.467481,396.018956 528.133415,397.523538 C524.639312,399.088623 520.700668,398.100991 517.019858,398.484477 C512.005422,398.99075 507.631126,401.376193 503.976988,404.783968 C496.304189,411.954533 492.454453,424.589996 481.723203,427.979086 C475.312904,429.999728 468.200228,428.726483 461.709911,427.810032 C454.463872,426.78681 447.404541,425.977129 440.105157,427.04484 C433.116953,428.068952 426.511055,430.488206 420.127429,433.442204 C414.14389,436.209354 407.529101,439.342194 402.221267,443.469784 C401.127693,440.097599 400.025228,436.761004 399.188599,433.317638 C397.215721,425.177236 396.148819,416.883796 395.890096,408.520065 C395.650932,400.557615 396.095474,392.558684 396.77918,384.630045 C397.117922,380.670619 397.651372,376.728988 397.989224,372.769562 C398.077244,371.773033 398.25595,370.705322 398.389312,369.638502 C407.866953,364.04103 417.823811,359.753283 427.861575,355.34008 C427.889136,355.331183 427.915809,355.312498 427.942481,355.30449 C428.253661,355.161239 428.55595,355.028665 428.867129,354.895201 C428.858238,354.876516 428.849348,354.859611 428.831566,354.840926 C429.978485,354.138906 430.778661,353.20377 431.258767,352.153855 C445.724172,342.553359 457.815721,329.448104 466.831038,314.161161 C470.609647,307.754898 474.246003,301.108401 479.189312,295.494914 C484.452693,289.505949 490.702957,285.946914 498.437992,284.096216 C507.479981,281.926095 516.797587,280.626157 526.061848,279.887658 C531.120738,279.488156 536.774427,278.864435 542.28764,278.892018 C546.128485,278.917821 549.888423,279.247031 553.33896,280.199073 C558.451196,281.604892 561.43852,285.494027 564.648115,289.42587 C567.715457,293.199337 570.765017,296.980811 573.627869,300.913544 C576.338687,304.640743 578.90014,308.493398 581.122851,312.532902 C582.456478,314.953046 583.692305,317.44526 584.732534,320.015772 C585.097059,320.924216 585.577165,321.955446 585.799436,322.89859 C586.021707,323.850632 585.612728,324.856949 586.679629,324.856949 C582.278661,324.918343 579.353573,335.900476 583.727869,335.642446 C589.878246,335.284521 592.970301,327.905755 591.765193,321.359308 C589.61506,309.679256 578.004101,295.572839 575.707437,292.584513 C570.630765,285.982504 565.394946,277.369641 557.268714,274.299973 C557.153133,274.255485 557.028661,274.211887 556.91308,274.175407 C559.278045,271.933215 561.145122,269.247034 562.932182,266.514585 C564.772587,263.702948 566.967737,260.482022 567.573203,257.145427 C567.95551,255.019793 565.314929,253.808832 564.061319,255.668427 C562.238696,258.382191 561.358503,261.81666 559.998203,264.798241 C558.611231,267.82253 556.921971,270.678656 555.588344,273.730528 C552.378749,272.742896 548.911319,272.290009 545.381654,272.13875 C549.835967,266.106186 557.445642,254.467253 558.362288,252.972459 C562.576548,246.050136 566.586319,238.915162 570.418274,231.76951 C574.560518,224.02861 578.108855,215.967397 582.074172,208.137521 C584.323555,203.698515 586.590721,199.222139 589.089048,194.915707 C589.95146,193.438708 590.876108,191.961708 591.925228,190.618173 C592.129717,190.352135 592.387552,190.129695 592.627605,189.879673 C592.903221,189.728414 593.187728,189.55936 593.347763,189.471274 C594.787191,188.643799 595.294858,186.72192 596.307525,185.502061 C597.926548,183.536584 599.829189,183.305247 602.265281,183.277664 C607.456645,183.224279 612.667569,183.428923 617.850932,183.571284 C625.470386,183.784827 633.08095,184.087344 640.691513,184.487736 C642.994242,184.612302 645.28808,184.736868 647.590809,184.87923 C658.659911,185.538541 669.720122,186.400717 680.753661,187.46042 C690.515809,188.393776 700.277957,189.916153 710.048996,190.645755 C696.819418,222.098723 682.149524,252.982246 665.540536,282.789161 C665.372499,283.090789 665.247138,283.393307 665.16801,283.695825 Z M591.765193,364.726144 C589.63139,365.705768 587.559823,366.923848 585.63051,368.312761 C585.95058,366.150648 586.030598,363.871976 585.941689,361.585296 C587.53315,363.293633 589.569154,364.272367 591.765193,364.726144 Z M682.8519,310.620811 C682.700756,310.637716 682.558503,310.717795 682.487376,310.869054 C679.535615,316.9639 680.770554,323.770554 685.590281,328.548558 C688.115281,331.039882 693.618714,333.851519 693.440008,337.944409 C693.288863,341.254311 689.68896,344.030358 688.150844,346.761917 C686.719418,349.306627 686.185967,352.100469 687.332886,354.859611 C688.799876,358.391063 692.898555,359.796881 694.303309,363.26783 C696.081478,367.671245 693.191953,372.983994 691.164841,376.817964 C689.279981,380.368101 686.843001,383.918238 685.225756,387.67302 C674.387816,393.288286 649.795738,403.484031 646.834198,404.054366 C643.225404,404.756386 639.60683,405.423705 635.978476,406.047425 C629.016944,407.256607 622.03852,408.377703 615.041425,409.365335 C611.058326,409.925883 607.066337,410.477534 603.074348,410.913515 C599.589136,411.287214 595.659383,411.794376 592.849876,409.170478 C587.186407,403.866627 590.360439,394.977938 593.94345,389.621591 C594.014576,389.51571 594.014576,389.416947 593.987904,389.327971 C597.366425,388.536086 600.736055,387.610737 604.096795,386.961213 C610.560439,385.715551 617.068538,384.666525 623.585527,383.732279 C636.97514,381.818408 650.453661,380.55495 663.913511,379.283485 C667.247578,378.962283 667.283142,373.713596 663.913511,374.025012 C644.575923,375.795632 625.141425,377.476386 606.061672,381.205364 C601.278397,382.129823 596.529797,383.179738 591.809647,384.363117 C589.578045,384.915658 587.186407,385.778723 584.848115,385.805416 C584.705862,385.805416 584.562719,385.805416 584.421355,385.795629 C579.842569,385.654157 579.175756,381.730322 581.691865,378.464907 C582.003045,378.063626 582.323115,377.663235 582.652076,377.281528 C587.097499,371.977677 592.635606,368.436438 598.343529,364.770632 C604.736936,363.898669 611.111672,361.958995 617.370826,360.535381 C632.823115,357.011937 648.275404,353.488493 663.736584,349.973946 C666.767473,349.279934 665.479189,344.617599 662.447411,345.302713 C650.711496,347.963981 638.97558,350.62347 627.238775,353.283848 L610.062552,357.181881 C606.630686,357.955081 602.344409,359.512159 598.307966,360.073596 C596.317305,360.348532 594.387992,360.384122 592.645386,359.975723 C587.017481,358.641085 586.732974,351.602204 589.160175,347.420339 C591.880774,342.723303 597.019682,339.786209 601.580686,337.125831 C609.484647,332.507984 617.895386,329.189184 626.110527,325.363222 C627.568626,325.042909 629.026724,324.722596 630.484823,324.402283 C638.966689,322.533789 648.65771,321.617338 656.641689,318.192657 C659.033326,317.177442 657.725483,313.404866 655.361407,313.458251 C649.164488,313.592605 642.683062,315.798316 636.628397,317.106262 C630.075844,318.529875 623.5144,319.944592 616.961848,321.359308 C616.303925,321.501669 612.409735,322.747331 611.822939,322.471506 C611.449524,322.293555 611.316161,320.995397 611.191689,320.140339 C610.790712,317.328701 610.498203,314.375592 610.933855,311.554168 C611.894066,305.227984 617.166337,302.25619 622.500844,299.827149 C634.379013,294.426314 647.404101,291.046121 660.366953,289.692798 C663.354277,289.381382 666.341601,289.186525 669.346707,289.087762 C672.875483,288.980991 675.783679,288.35816 677.570738,291.837116 C680.380246,297.318029 681.927253,304.365808 682.8519,310.620811 Z M666.355826,509.343065 C663.767701,500.384975 664.471856,490.82007 662.699022,481.683138 C661.784154,476.969197 660.53499,472.292626 659.171135,467.690794 C658.070448,463.973382 656.234488,460.019295 656.026443,456.139947 C656.013996,455.881027 656.318951,455.731548 656.528775,455.850776 C660.180246,457.943488 662.984418,462.467911 665.066654,466.018048 C667.559647,470.266645 669.463177,474.715438 670.998626,479.3929 C674.058855,488.711342 676.571407,499.951663 672.624761,509.343065 C671.450281,512.138687 667.324929,512.698345 666.355826,509.343065 Z M565.348714,577.15691 C561.491865,574.463611 558.681469,570.698152 555.410527,567.374904 C552.193819,564.10682 557.222481,559.073455 560.440078,562.342429 C563.230915,565.17631 565.65367,568.717549 568.937948,571.010457 C570.51874,572.112868 571.250457,574.106817 570.214673,575.880106 C569.298916,577.445192 566.925061,578.257541 565.348714,577.15691 Z M543.839981,473.636161 C550.880642,470.589628 557.804832,467.271718 565.173564,465.077573 C569.5772,463.765179 571.44161,470.636785 567.064647,471.940281 C560.278265,473.962703 553.913309,476.977205 547.430105,479.781724 C543.267411,481.582596 539.649726,475.4486 543.839981,473.636161 Z M469.485844,471.504299 C467.763687,467.253033 474.647869,465.42102 476.344242,469.612673 C478.297561,474.436944 480.536275,479.137539 482.489594,483.96181 C484.209973,488.213077 477.327569,490.04598 475.631196,485.854327 C473.677878,481.030056 471.438274,476.329461 469.485844,471.504299 Z M396.096363,556.404179 C394.949444,557.934564 393.037024,558.763819 391.230404,557.681873 C389.717182,556.774319 388.793423,554.361294 389.954568,552.812224 C393.344647,548.29047 396.77918,543.822992 400.752499,539.791496 C403.973652,536.523412 409.000536,541.560336 405.78205,544.82486 C402.233714,548.424824 399.124585,552.365565 396.096363,556.404179 Z M385.602499,80.0354097 C388.867217,82.2669244 391.727402,84.978019 394.51646,87.7674123 C397.758951,91.0105826 392.728511,96.0430575 389.48602,92.7998872 C387.13617,90.4491449 384.765871,88.0628122 382.012376,86.1818624 C380.421804,85.0945774 379.707869,83.072156 380.73654,81.3122134 C381.65852,79.7355611 384.015483,78.9516837 385.602499,80.0354097 Z M492.373547,194.580268 C490.527807,198.278995 488.866108,201.904761 488.761196,206.108871 C488.649172,210.688459 481.536496,210.691128 481.649409,206.108871 C481.785439,200.607493 483.812552,195.836607 486.231751,190.987423 C488.278423,186.882966 494.411328,190.492717 492.373547,194.580268 Z M531.548388,102.585453 C535.372341,100.034515 538.929568,106.203211 535.1394,108.731905 C532.066724,110.78102 528.993159,112.831913 525.920483,114.881917 C522.098309,117.431965 518.541082,111.264159 522.33036,108.735465 C525.403036,106.685461 528.475712,104.635457 531.548388,102.585453 Z M361.631003,263.429792 C360.978415,267.953325 354.125351,266.0181 354.771716,261.538165 C355.771936,254.614063 356.992649,247.781607 358.869506,241.037236 C360.098221,236.624033 366.957508,238.510322 365.727904,242.929753 C363.851047,249.674123 362.630334,256.50658 361.631003,263.429792 Z M336.693071,344.967274 C332.115175,344.87029 332.114286,337.752221 336.693071,337.849205 C340.836205,337.937291 344.909101,339.028135 348.905536,340.026444 C353.350959,341.137753 351.45543,348.000461 347.014453,346.890042 C343.635932,346.045662 340.196064,345.042014 336.693071,344.967274 Z M327.48749,509.21672 C325.9147,509.982802 324.301011,510.672365 322.711328,511.400187 C319.527517,512.856722 316.345483,514.315037 313.164339,515.77691 C306.537103,518.821664 299.913423,521.876206 293.295967,524.941424 C280.048608,531.078089 266.699004,536.998543 253.419638,543.068477 C239.877992,549.259418 226.371909,555.532216 212.882719,561.837046 C206.527543,564.80617 200.124356,567.666744 193.733617,570.55846 C188.269304,573.031099 181.514929,577.351767 175.516275,577.758387 C175.207763,577.779741 175.104629,577.389137 175.280668,577.188941 C177.546944,574.609531 181.161962,573.109398 184.140395,571.433093 C187.182842,569.719418 190.282191,568.108065 193.367314,566.473578 C199.798951,563.063133 206.238591,559.680271 212.732464,556.389943 C225.721988,549.811958 238.736407,543.281129 251.753494,536.758309 C265.029304,530.105583 278.288221,523.40837 291.680501,516.99232 C297.985888,513.9707 304.297499,510.958867 310.612666,507.955932 C314.033863,506.329453 317.456839,504.705643 320.879814,503.084503 C322.358362,502.384263 323.821795,501.628858 325.333238,501.002468 C327.34168,500.170543 328.868238,500.340487 330.939805,499.827986 C334.318326,498.993393 335.780871,503.292707 333.187411,505.164759 C331.05183,506.70671 329.928027,508.025333 327.48749,509.21672 Z M280.004154,582.204511 C279.274216,580.429442 280.802552,578.270888 282.488256,577.826009 C284.507367,577.293933 286.12639,578.5218 286.863441,580.311994 C288.813203,585.058857 291.590703,589.414225 295.165712,593.092487 C298.361082,596.379256 293.334198,601.4144 290.136161,598.125852 C285.656064,593.515123 282.437578,588.126744 280.004154,582.204511 Z M245.071135,467.949714 C241.828643,464.705654 246.859084,459.673179 250.100686,462.917239 L259.318714,472.141367 C262.561205,475.386316 257.529876,480.418791 254.289163,477.174731 L245.071135,467.949714 Z M150.499216,452.910123 C143.87198,454.855136 136.142279,456.643551 131.623951,462.301526 C131.403459,462.578241 131.03271,462.223227 131.165184,461.947402 C136.949568,449.946337 153.538106,445.736889 165.0233,441.53278 C173.146865,438.558316 181.482032,436.091905 189.887437,433.888863 C189.047253,424.292816 191.364207,414.008096 192.169717,404.459206 C193.029462,394.264352 193.729172,384.042804 194.088362,373.815919 C194.455554,363.383498 194.544462,352.880787 194.201275,342.445698 C193.859867,332.048868 192.511126,321.779274 191.920774,311.417145 C191.863872,310.415277 193.257957,310.36723 193.558467,311.195595 C197.049013,320.811217 198.540008,331.462517 199.676258,341.601317 C200.846293,352.046194 201.234823,362.460819 201.085457,372.966199 C200.930756,383.767869 200.303062,394.543736 199.44154,405.310705 C199.03345,410.414361 198.559568,415.510898 198.112358,420.610995 C197.77095,424.502799 197.612693,428.363462 196.819629,432.13159 C201.889189,430.886817 206.970307,429.708777 212.035422,428.563658 C228.186531,424.916537 244.40521,421.531895 260.488749,417.587595 C268.383819,415.65237 276.165976,413.333659 284.025483,411.274757 C291.426223,409.335973 299.237719,406.985231 306.835835,406.120386 C309.547543,405.81075 309.892508,409.522823 308.097446,410.782721 C301.921865,415.122074 293.720061,418.143694 286.586936,420.572735 C279.428027,423.009784 271.98639,424.763498 264.648775,426.568819 C249.346742,430.335167 233.899788,433.414622 218.47595,436.622202 C203.07345,439.826223 187.64161,443.00622 172.412481,446.959418 C165.078423,448.863501 157.76926,450.774703 150.499216,452.910123 Z M114.182781,262.481309 C110.222798,264.808028 106.64779,258.653568 110.593547,256.334857 C115.75646,253.302559 121.259004,251.023887 126.806003,248.80127 C131.062939,247.096493 132.894453,253.983224 128.697085,255.665758 C123.711988,257.662376 118.822024,259.756868 114.182781,262.481309 Z M99.8436258,526.930924 C95.8729744,529.235399 92.2952983,523.081829 96.2543916,520.785361 C101.814726,517.559986 107.904066,515.40766 113.666223,512.585346 C117.765791,510.576271 121.366584,516.718275 117.255457,518.731799 C111.494189,521.554113 105.40396,523.705549 99.8436258,526.930924 Z M93.3942068,376.817074 C97.2332737,380.466864 102.357068,382.184988 107.188353,384.102418 C111.400835,385.772495 109.553318,392.653889 105.29727,390.966016 C99.278168,388.577014 93.1470413,386.396216 88.3646557,381.849549 C85.0377015,378.687347 90.0761434,373.66288 93.3942068,376.817074 Z M135.866663,172.951125 C140.087147,174.607856 138.23874,181.489249 133.97558,179.815613 C129.247429,177.959577 124.364576,176.54664 119.636425,174.690603 C115.41683,173.033873 117.264348,166.153369 121.527508,167.826116 C126.255659,169.682152 131.138511,171.095089 135.866663,172.951125 Z M210.792481,91.9759707 C215.277024,91.2196759 217.186777,98.079715 212.683564,98.8404586 C207.096557,99.7844926 201.594902,100.888683 196.295959,102.940466 C192.016795,104.597197 190.180835,97.7122447 194.404876,96.0768683 C199.704709,94.0250849 205.206363,92.9200046 210.792481,91.9759707 Z M235.54904,289.13136 C231.437024,287.108049 235.044929,280.972273 239.138274,282.985797 C243.452112,285.107872 247.92154,286.748586 252.628353,287.751344 C257.110228,288.706945 255.201363,295.567874 250.73727,294.615832 C245.440105,293.485839 240.399885,291.518583 235.54904,289.13136 Z M258.931073,178.076135 C263.358714,176.862504 265.231126,183.730551 260.822156,184.940623 C253.064893,187.067146 245.078247,188.173116 237.264084,190.065633 C232.810659,191.14402 230.926689,184.278643 235.373001,183.202035 C243.187165,181.308628 251.1747,180.204438 258.931073,178.076135 Z M358.122675,143.226069 C362.624999,144.059772 360.706355,150.918922 356.232481,150.090556 C351.469656,149.208806 346.642816,149.19457 341.814198,149.1919 C337.230078,149.190121 337.23808,142.072052 341.814198,142.07383 C347.299849,142.0765 352.715263,142.22509 358.122675,143.226069 Z M681.624964,180.413531 C670.004629,179.301333 658.366513,178.411574 646.710615,177.744255 C646.167385,177.716673 645.634823,177.681972 645.091592,177.654389 C645.030246,177.530713 644.950228,177.414155 644.869321,177.289588 C641.064929,171.701904 638.264312,166.11511 635.837112,159.796934 C633.516601,153.782165 631.267217,147.581437 627.693098,142.153909 C623.616645,135.970087 618.113212,131.131579 612.081663,126.938147 C608.42308,129.400109 605.027666,132.282927 601.921205,135.338358 C598.652041,138.553056 593.621601,133.520581 596.891654,130.304994 C599.652261,127.58945 602.598687,125.081221 605.71315,122.815005 C602.116804,120.627979 598.447552,118.572636 594.868098,116.527971 C581.450923,108.868039 567.715457,101.78467 553.694594,95.3081168 C547.177605,92.2909453 540.580598,89.6127718 533.939136,86.8990079 C530.364128,85.4406935 526.835351,83.562413 523.261231,81.8727613 C523.519066,79.344957 522.763344,76.5155245 520.82514,74.8516759 C519.393714,73.6327065 518.282358,73.1789296 516.575316,72.3167535 C516.19301,72.1823999 515.961848,72.1023217 515.855157,72.0578337 C515.935175,72.0756289 516.166337,72.1468096 516.547754,72.2713758 C517.45551,72.6904521 517.526636,72.5649962 516.762024,71.9065748 C516.717569,70.4660555 513.880501,67.423081 513.232358,65.937184 C510.974084,60.8379772 510.271707,55.4460399 506.93764,50.8014997 C502.341073,44.4041351 494.623819,41.9848813 487.430237,44.1550027 C486.684295,36.4585904 486.488696,28.4249596 483.590281,21.5551331 C483.510263,21.3691736 483.252429,21.2882055 483.136848,21.49285 C480.11396,26.6454423 479.856126,32.3834958 479.624964,38.3270836 C479.402693,43.9058703 479.615184,49.6092232 480.345122,55.1524195 C479.882798,55.508323 479.411584,55.847321 478.922587,56.1756419 C476.628749,57.6882316 474.157094,58.8538155 471.560967,59.7177711 C466.617657,61.3540372 461.434295,62.0658442 456.250932,62.3149766 C442.87021,62.9556028 429.08051,61.6031697 415.922059,59.3075924 C402.612464,56.9853223 382.207974,53.4974684 370.365369,46.8331762 C362.549427,42.4386583 355.339841,37.0725239 348.030677,31.8763334 C350.681038,23.3346504 351.356742,14.1523412 348.689488,6.93639863 C348.369418,6.07333275 347.01801,5.91317619 346.760175,6.93639863 C345.088696,13.8231305 344.5997,20.7454528 342.376988,27.5521064 C342.341425,27.6499798 342.305862,27.7576406 342.270298,27.8546243 C341.576812,27.383942 340.883326,26.9203778 340.189841,26.4577033 C338.589488,25.3988905 336.411231,26.1916654 335.45102,27.7033654 C320.095642,51.913698 295.780069,53.3017215 270.245562,57.6268383 C242.300747,62.3594645 214.215457,67.4666791 187.347323,76.7290666 C161.652781,85.5919524 137.096267,98.4934528 117.643098,117.765625 C113.239462,122.129001 109.121223,126.77799 105.234145,131.631624 C108.994973,132.105865 112.724682,132.844365 116.406381,134.001941 C120.765562,135.372169 118.892261,142.241996 114.515298,140.865539 C109.783591,139.377862 104.999427,138.642032 100.166363,138.275451 C86.9483441,156.371363 76.6420765,176.890087 67.7298934,197.086718 C50.6354656,235.809904 39.508573,277.048438 34.3883353,319.033479 C37.1996205,317.347386 40.0615835,315.741372 42.9946733,314.247467 C47.0702367,312.17344 50.6648054,318.316333 46.5847966,320.39392 C42.0540219,322.700174 37.6530536,325.242215 33.3890043,327.998687 C31.5263723,346.376652 30.8044356,364.872954 31.2418652,383.339895 C32.2820941,427.365153 38.2211786,472.68056 51.6552455,514.686066 C58.2433617,535.301774 66.9741716,555.749317 79.9814779,573.170791 C85.8672173,581.062061 92.5531328,588.18013 100.430422,594.11482 C104.244594,596.997638 108.281038,599.56993 112.539753,601.740052 C118.025404,604.551689 125.173643,605.477038 129.903573,609.454259 C131.459471,610.763094 132.659735,612.488336 133.566601,614.436907 C133.042041,618.138303 132.979805,621.848597 133.993362,625.549993 C134.313432,626.707569 135.184735,627.649823 136.260527,628.1036 C136.278309,628.423913 136.278309,628.735329 136.278309,629.037847 C136.278309,629.180208 136.491689,629.215799 136.518362,629.074327 C136.562816,628.797612 136.60727,628.521787 136.651724,628.237954 C136.998467,628.352733 137.362992,628.407008 137.736407,628.407008 C151.241601,628.457724 164.763687,628.128513 178.286663,627.669398 C177.241099,624.463598 176.108406,621.28538 175.021055,618.079579 C173.544286,613.725101 180.41602,611.873513 181.879453,616.187952 C183.151733,619.935616 184.481804,623.650358 185.665175,627.411368 C200.154585,626.872174 214.63955,626.22443 229.098731,625.74663 C259.852165,624.722517 290.596707,624.384409 321.358142,623.735775 C369.129541,622.72234 417.248573,620.647423 465.093767,622.676962 C466.748353,619.162416 468.600316,615.728837 470.356258,612.262337 C472.427825,608.171227 478.562508,611.777419 476.498054,615.855183 C475.277341,618.263759 474.013062,620.642084 472.811909,623.046212 C482.502041,623.549815 492.182393,624.215355 501.842297,625.123799 C518.325923,626.671089 534.650404,629.420443 551.116249,631.129669 C567.856821,632.872707 584.234647,632.562181 600.842746,629.795031 C603.830069,629.296767 605.590457,627.489667 606.319506,625.247475 C606.34529,625.238577 606.36396,625.221672 606.380853,625.194089 C607.234374,624.19756 608.035439,623.370974 608.861399,622.64938 C609.849172,622.009643 610.916073,621.466001 612.169682,620.985531 C614.507974,620.095772 616.944066,619.55302 619.415721,619.188219 C622.136319,618.779819 624.892481,618.743339 627.61308,618.406121 C629.906029,618.1125 632.147411,617.675629 634.387015,617.142663 C638.415457,616.181724 642.23852,614.927164 646.043802,613.262426 C649.360087,611.813009 652.355413,609.730974 655.183591,607.4612 C661.033767,603.181461 666.100659,597.719232 670.529189,592.041682 C673.107534,588.722883 675.534735,585.279517 677.739665,581.694679 C681.58051,575.483274 684.852341,569.032524 688.159735,562.528388 C689.359999,560.601171 690.455351,558.627686 691.45646,556.612383 C684.992816,554.70652 678.466936,553.153001 671.614761,553.042671 C667.034198,552.968821 667.035087,545.850752 671.614761,545.924602 C679.473379,546.050058 686.907015,547.88741 694.29264,550.076216 C694.652719,549.119725 694.997684,548.156117 695.316865,547.180052 C696.197059,545.143394 696.926108,543.051571 697.530686,540.933946 C697.88543,539.973007 698.241953,539.012067 698.597587,538.051128 C699.397763,534.723431 700.197939,531.386836 701.007006,528.050241 C702.616249,522.711689 703.886751,517.293059 704.821179,511.803248 C705.603573,508.190828 706.20815,504.551715 706.617129,500.868114 C707.861848,491.943835 708.875404,483.037351 708.946531,474.015198 C708.839841,468.454207 708.484207,462.902113 707.879629,457.376712 C707.621795,453.62193 707.186143,449.884944 706.599348,446.17465 C705.834735,440.658147 705.079013,435.195919 703.807622,429.749706 C702.856302,426.066995 701.904981,422.382504 700.953661,418.698904 C698.579805,411.021176 695.779189,403.492928 692.550923,396.134624 C692.373996,395.67284 691.475131,394.657625 690.933679,394.648727 C690.5247,394.63983 689.954797,395.013528 690.141504,395.512683 C690.160175,395.556281 690.177068,395.609667 690.195738,395.654155 C690.009031,395.235968 689.831214,394.808884 689.644506,394.390697 C689.484471,393.999204 688.862112,393.217106 688.382006,393.226003 C688.355334,393.226003 688.327772,393.226003 688.293098,393.234011 C688.417569,393.145925 688.53315,393.029367 688.648731,392.896793 C691.840545,389.115318 693.912112,384.140678 696.197059,379.763065 C698.090809,376.150645 699.877869,372.342478 700.393538,368.258486 C700.846082,364.673648 700.233503,361.140417 697.984119,358.239804 C695.423555,354.938799 690.604717,353.390619 693.280862,348.621513 C696.321531,343.193985 700.793626,338.487162 696.339312,332.321134 C694.072147,329.180286 690.480246,327.455044 687.812992,324.722596 C684.74565,321.563952 683.286663,317.337599 683.367569,313.022269 C683.554277,313.129041 683.803221,313.076545 683.892129,312.808727 C686.470474,305.014442 684.603397,296.455853 681.962816,288.865322 C680.522499,284.74663 677.47205,283.615746 673.925492,283.411992 C689.287983,253.382637 703.66448,222.871924 716.477076,191.659191 C716.903837,190.635968 717.321707,189.613635 717.738687,188.589523 C718.361936,187.059138 717.046091,185.022481 715.525756,184.683483 C704.447763,182.254442 692.907446,181.480352 681.624964,180.413531 Z"/>
    </g>
    <g transform="translate(330.74 160.157)">
      <path fill="#EDB98A" d="M173.356658,73.5581966 C307.830827,66.9261728 317.222987,106.122947 335.688993,131.11202 C344.853045,143.513249 368.513035,161.879386 372.438168,204.290491 C375.162822,233.730421 357.818619,267.663308 357.818619,293.970327 C357.818619,307.398422 374.212585,336.226956 366.580596,355.798371 C349.593502,399.359944 313.626017,447.705195 267.792538,447.705195 C221.959059,447.705195 137.353173,422.372271 86.7091653,349.650696 C70.1208473,325.830925 38.8824901,80.1902204 173.356658,73.5581966 Z"/>
      <path fill="#000" d="M369.087149,296.596891 C366.150488,293.349272 363.870361,290.679996 363.107362,286.213407 C362.787967,284.352922 362.646013,282.440831 362.583909,280.518952 C374.374914,263.987236 385.837651,224.938399 385.837651,203.580632 C385.837651,173.448956 374.756413,144.45706 356.568633,120.478065 C321.115769,73.7737438 262.09864,49.8303387 204.341347,51.7086192 C149.03275,53.4961443 90.203709,73.942798 55.7019331,117.649522 C-58.7692953,262.657937 37.3047714,421.049212 107.671076,454.003202 C113.796365,456.871784 133.579347,455.875255 130.82279,449.749266 C122.905338,432.15073 116.667373,399.737713 115.212351,392.440802 C117.465861,393.963179 119.737116,395.449076 122.017242,396.988358 C126.054042,399.701232 131.466016,402.80649 136.54085,401.907834 C136.780397,401.864236 136.931222,401.606206 136.940094,401.383766 C137.170768,396.604872 133.763887,391.693405 130.765121,388.285629 C126.604112,383.552113 122.64716,378.702928 118.166756,374.263033 C116.259257,372.367847 114.325142,370.490456 112.391027,368.613065 C112.142608,357.348721 112.896736,346.031881 114.9107,334.705253 C118.39743,315.06828 124.412706,295.938469 131.324062,277.111176 C137.099792,272.839445 142.706951,268.347054 147.897123,263.434696 C160.397895,251.609804 169.93539,237.143218 178.115455,221.928345 C178.213048,221.882968 178.319513,221.829582 178.417106,221.785984 C194.271527,214.3912 209.992867,206.713472 225.589998,198.794621 C233.636981,194.709739 241.630733,190.527873 249.624484,186.346897 C253.971807,184.068225 258.452212,181.995088 262.897128,179.850769 C261.699396,186.007899 260.084676,192.076053 258.123944,198.046334 C256.509224,202.949793 261.442105,206.570221 265.807173,205.760541 C280.66792,203.003179 295.031831,197.459983 307.958463,189.612311 C314.36411,185.724066 320.459235,181.230785 326.110755,176.300632 C331.762275,184.744442 338.629271,192.663294 345.558372,199.479735 C350.233962,204.079787 355.122483,208.45651 360.197317,212.603675 C357.899446,228.468071 355.929843,244.367168 353.436786,260.196865 C352.132589,268.47162 350.562229,276.745486 349.577428,285.064729 C348.503905,294.131369 351.493799,300.591017 357.44697,307.219719 C365.768988,316.482996 365.760116,329.881872 362.575037,341.387341 C362.184665,342.810065 361.6967,344.198978 361.190991,345.577214 C361.084526,345.861937 360.774003,346.636027 360.658666,346.939435 C360.658666,346.948332 360.658666,346.95723 360.649793,346.974135 C360.649793,346.983033 360.640921,346.99282 360.640921,347.000828 C360.632049,347.000828 360.632049,347.009726 360.623177,347.019513 L360.623177,347.036418 L360.623177,347.045316 L360.614305,347.054213 C360.241677,347.926177 359.842433,348.780345 359.443189,349.634514 C357.624411,353.487168 355.592703,357.251737 353.481146,360.953133 C343.100803,379.227886 329.987857,395.946451 315.047261,410.698649 C308.091544,417.567586 300.860792,423.956943 292.689599,429.188724 C290.968414,430.283127 289.211741,431.34105 287.410707,432.310887 C286.443649,432.835844 285.449975,433.326101 284.456302,433.823476 C283.001279,434.544181 283.604581,434.259458 282.717372,434.615362 C281.111524,435.24798 279.470188,435.798741 277.793363,436.234722 C276.897283,436.46606 275.99233,436.662696 275.078505,436.830861 C275.069632,436.830861 275.051888,436.839758 275.025272,436.839758 C275.0164,436.839758 275.007528,436.848656 274.998656,436.839758 C274.989784,436.848656 274.97204,436.848656 274.954295,436.848656 C274.617156,436.875349 274.013854,436.928734 273.898517,436.928734 C261.158198,436.974112 248.524345,435.256878 236.192143,432.080439 C229.511461,430.354307 222.83965,428.262485 216.558212,425.389454 C213.36426,423.921352 210.241285,422.293094 207.251392,420.450404 C205.911706,419.623818 204.642998,418.626399 203.232336,417.906584 C201.120779,416.820189 199.053582,416.936747 196.773456,416.838874 C193.295597,416.695622 190.829157,420.344523 191.680877,423.547654 C192.718912,427.452804 194.351376,429.757279 197.705025,432.080439 C200.384396,433.931137 203.223464,435.567403 206.115764,437.0533 C212.414947,440.301809 219.077885,442.943502 225.820672,445.105616 C238.445653,449.14512 251.736041,451.627547 264.955452,452.53599 C274.581668,453.194412 282.92143,451.903372 291.687053,447.837175 C300.940641,443.539641 309.236043,437.124481 316.9104,430.469086 C334.095634,415.574527 349.045102,397.503529 361.723316,378.649543 C373.63853,360.925551 382.883246,341.626686 379.84012,319.622955 C378.624644,310.796549 375.04032,303.1989 369.087149,296.596891"/>
    </g>
    <path fill="#000" d="M130.327845,214.366484 C124.351175,211.926453 119.018473,207.856322 115.119753,202.656993 C113.764312,200.849492 113.412869,198.9408 113.697211,197.195057 C114.016933,195.232093 115.177373,193.453015 116.759953,192.259664 C118.347435,191.062617 120.333174,190.472263 122.252969,190.773208 C123.921158,191.034712 125.58176,191.948777 126.896003,193.844515 L127.170582,194.223618 C129.488438,197.361754 132.508818,199.936557 135.950329,201.596167 C139.267387,203.195761 142.977181,203.942353 146.816213,203.508194 C154.127895,202.681625 159.167475,198.724391 164.523998,193.350532 C165.187955,192.672069 165.852337,191.972337 166.51994,191.261342 C166.941544,190.616828 167.526625,190.202598 168.176224,189.985259 C168.897488,189.743942 169.713406,189.757595 170.460725,190.018591 C171.181517,190.270322 171.825869,190.747342 172.257925,191.382224 C172.668558,191.985628 172.901376,192.731052 172.825832,193.588474 C172.33554,199.157598 169.426143,204.127805 165.293466,208.030466 C160.7036,212.364871 154.619398,215.363441 148.891388,216.415133 C142.580802,217.573613 136.150483,216.743628 130.327845,214.366484 L130.327845,214.366484 Z M151.868351,128.451924 C158.582165,132.535956 168.811955,142.059124 161.589437,152.183939 C153.087842,161.111322 140.847465,150.875467 134.815619,146.246189 C129.222609,142.658472 122.938549,151.885811 128.127747,156.075075 C171.71399,188.369076 189.402211,129.519841 155.264104,123.650102 C151.505376,123.003282 150.109375,127.188483 151.868351,128.451924 Z M73.7613847,90.8856423 C74.5031731,81.6710564 88.5264111,79.5785894 89.9213847,88.696836 C91.1705484,96.8648204 89.7000026,104.368155 86.0236382,111.72201 C82.5108653,118.747544 73.6817962,115.469802 73.0140937,109.072437 C72.1190663,100.497036 73.2999498,96.6176421 73.7613847,90.8856423 Z M180.50816,86.8061879 C182.463257,84.243683 185.2861,82.4944175 188.668178,83.4829393 C199.234947,86.5730711 196.120484,101.585969 192.409445,108.893556 C190.393002,112.86188 183.875123,113.868197 180.929586,110.374115 C176.12853,104.6761 173.829357,93.2969772 179.932923,87.6843796 C180.098292,87.3943183 180.282333,87.1015877 180.50816,86.8061879 Z M85.8748055,50.5654286 L87.5439469,50.2730583 C92.707571,49.3793447 99.1279437,48.5205853 102.780747,52.6750463 C104.718063,54.8780887 105.384876,58.972758 102.780747,61.081486 C98.200184,64.7917795 93.1359586,63.3539295 87.6467509,63.6680144 C83.1230889,63.9278239 78.7754657,64.6770007 74.4180625,65.9235525 C64.8586259,68.6577808 57.0693565,73.6493268 48.9048935,79.1302401 C47.8335467,79.849165 46.7399727,78.478047 47.2511963,77.475289 C51.9642333,68.236925 61.0977984,60.6481735 70.246478,56.0223183 C75.1293301,53.5532381 80.472728,51.5050137 85.8748055,50.5654286 Z M170.875708,46.4270611 L172.153261,46.688722 C186.056085,49.5969948 204.119109,55.4065085 210.702767,69.0727161 C210.953635,71.0051662 210.688569,71.4193289 210.473023,71.6899192 L210.401258,71.7799625 C210.223648,72.0110308 210.081929,72.3295571 209.244956,72.5925669 C209.012696,72.5371866 208.778124,72.4785313 208.541067,72.4163604 C205.523234,71.6248972 203.135544,70.5345453 200.824006,69.403175 L198.317714,68.1674787 C195.409913,66.7406454 192.476439,65.365742 189.36763,64.3507364 C182.733166,62.1851129 175.909048,60.6595663 168.979203,59.844959 C167.477213,59.6685497 166.03089,59.1612439 164.889846,58.2918045 C163.806766,57.4665321 162.979362,56.3239231 162.602112,54.8051469 C162.113197,52.8396079 162.253701,51.3515336 163.307498,49.5783296 C164.099889,48.2466913 165.233673,47.323692 166.535544,46.7936744 C167.862745,46.2533444 169.37375,46.1259618 170.875708,46.4270611 Z" transform="translate(472.104 325.652)"/>
  </g>
</svg>
