<?xml version="1.0" encoding="UTF-8"?>
<svg width="176px" height="118px" viewBox="0 0 176 118" version="1.1" xmlns="http://www.w3.org/2000/svg" xmlns:xlink="http://www.w3.org/1999/xlink">
    <title>Card-Illustrator</title>
    <defs>
        <rect id="path-1" x="0" y="0" width="160" height="102"></rect>
        <filter x="-8.1%" y="-10.8%" width="116.2%" height="125.5%" filterUnits="objectBoundingBox" id="filter-2">
            <feOffset dx="0" dy="2" in="SourceAlpha" result="shadowOffsetOuter1"></feOffset>
            <feGaussianBlur stdDeviation="4" in="shadowOffsetOuter1" result="shadowBlurOuter1"></feGaussianBlur>
            <feColorMatrix values="0 0 0 0 0   0 0 0 0 0   0 0 0 0 0  0 0 0 0.11 0" type="matrix" in="shadowBlurOuter1"></feColorMatrix>
        </filter>
        <rect id="path-3" x="0" y="0" width="160" height="102"></rect>
        <filter x="-50.0%" y="-50.0%" width="200.0%" height="200.0%" filterUnits="objectBoundingBox" id="filter-5">
            <feOffset dx="0" dy="2" in="SourceAlpha" result="shadowOffsetOuter1"></feOffset>
            <feGaussianBlur stdDeviation="4" in="shadowOffsetOuter1" result="shadowBlurOuter1"></feGaussianBlur>
            <feColorMatrix values="0 0 0 0 0   0 0 0 0 0   0 0 0 0 0  0 0 0 0.11 0" type="matrix" in="shadowBlurOuter1" result="shadowMatrixOuter1"></feColorMatrix>
            <feMerge>
                <feMergeNode in="shadowMatrixOuter1"></feMergeNode>
                <feMergeNode in="SourceGraphic"></feMergeNode>
            </feMerge>
        </filter>
        <radialGradient cx="32.9683884%" cy="22.4287018%" fx="32.9683884%" fy="22.4287018%" r="76.1505529%" gradientTransform="translate(0.329684,0.224287),scale(0.998066,1.000000),translate(-0.329684,-0.224287)" id="radialGradient-6">
            <stop stop-color="#423325" stop-opacity="0.98" offset="0%"></stop>
            <stop stop-color="#1C0A00" offset="100%"></stop>
        </radialGradient>
    </defs>
    <g id="Page-1" stroke="none" stroke-width="1" fill="none" fill-rule="evenodd">
        <g id="r" transform="translate(-345.000000, -73.000000)">
            <g id="Card-Illustrator" transform="translate(353.000000, 79.000000)">
                <g id="Rectangle-Copy-2" fill="black" fill-opacity="1">
                    <use filter="url(#filter-2)" xlink:href="#path-1"></use>
                </g>
                <mask id="mask-4" fill="white">
                    <use xlink:href="#path-3"></use>
                </mask>
                <use id="Rectangle-Copy-3" fill="#FFFFFF" xlink:href="#path-3"></use>
                <g id="adobe-illustrator-cc-seeklogo.com" filter="url(#filter-5)" mask="url(#mask-4)" fill-rule="nonzero">
                    <g transform="translate(108.000000, 50.000000)">
                        <polygon id="Path" fill="url(#radialGradient-6)" points="1.66666667 1.70212766 38.3333333 1.70212766 38.3333333 38.2978723 1.66666667 38.2978723"></polygon>
                        <path d="M1.6659992,1.70876977 L38.3259912,1.70876977 L38.3259912,38.2912302 L1.6659992,38.2912302 L1.6659992,1.70876977 Z M0,40 L40,40 L40,0 L0,0 L0,40 Z M26.1994393,14.2616554 C26.1994393,14.1219963 26.247497,14.0562744 26.3996796,14.0562744 L29.0188226,14.0562744 C29.154986,14.0562744 29.2190629,14.1055658 29.2190629,14.2616554 L29.2190629,27.7510783 C29.2190629,27.8907373 29.1870244,27.9564592 29.0188226,27.9564592 L26.4317181,27.9564592 C26.2635162,27.9564592 26.2154586,27.8743068 26.2154586,27.7346478 L26.2154586,14.2616554 L26.1994393,14.2616554 L26.1994393,14.2616554 Z M26.0152183,10.3758472 C26.0152183,9.28322037 26.7681217,8.63421647 27.7132559,8.63421647 C28.7304766,8.63421647 29.4112936,9.33251181 29.4112936,10.3758472 C29.4112936,11.501335 28.6984381,12.1174779 27.6812175,12.1174779 C26.7200641,12.1256932 26.0152183,11.5095502 26.0152183,10.3758472 Z M18.5182219,19.880879 C18.0536644,17.9831588 16.948338,13.8508934 16.5318382,11.846375 L16.4997998,11.846375 C16.1473769,13.8426782 15.2663196,17.2273567 14.5694834,19.880879 L18.5182219,19.880879 L18.5182219,19.880879 Z M13.8886664,22.6494147 L12.5750901,27.775724 C12.5430517,27.915383 12.494994,27.948244 12.3267922,27.948244 L9.87585102,27.948244 C9.70764918,27.948244 9.67561073,27.8989526 9.70764918,27.6935716 L14.4413296,10.7044568 C14.5214257,10.4004929 14.577493,10.1211748 14.6095314,9.28322037 C14.6095314,9.15999178 14.6575891,9.11070035 14.7456948,9.11070035 L18.2458951,9.11070035 C18.3660392,9.11070035 18.4140969,9.14356131 18.4461354,9.28322037 L23.7484982,27.7264325 C23.7805366,27.8660916 23.7484982,27.948244 23.6123348,27.948244 L20.8490188,27.948244 C20.7128554,27.948244 20.6327593,27.915383 20.6007209,27.7921544 L19.2310773,22.6494147 L13.8886664,22.6494147 L13.8886664,22.6494147 Z" id="Shape" fill="#FF7F18"></path>
                    </g>
                </g>
                <text id="Illustrator" mask="url(#mask-4)" font-family="IBMPlexSans, IBM Plex Sans" font-size="16" font-weight="normal" line-spacing="24" fill="#000000" fill-opacity="0.87">
                    <tspan x="12" y="28">Illustrator</tspan>
                </text>
            </g>
        </g>
    </g>
</svg>