<?xml version="1.0" encoding="UTF-8"?>
<svg width="176px" height="118px" viewBox="0 0 176 118" version="1.1" xmlns="http://www.w3.org/2000/svg" xmlns:xlink="http://www.w3.org/1999/xlink">
    <title>card-Invision</title>
    <defs>
        <rect id="path-1" x="0" y="0" width="160" height="102"></rect>
        <filter x="-8.1%" y="-10.8%" width="116.2%" height="125.5%" filterUnits="objectBoundingBox" id="filter-2">
            <feOffset dx="0" dy="2" in="SourceAlpha" result="shadowOffsetOuter1"></feOffset>
            <feGaussianBlur stdDeviation="4" in="shadowOffsetOuter1" result="shadowBlurOuter1"></feGaussianBlur>
            <feColorMatrix values="0 0 0 0 0   0 0 0 0 0   0 0 0 0 0  0 0 0 0.11 0" type="matrix" in="shadowBlurOuter1"></feColorMatrix>
        </filter>
        <rect id="path-3" x="0" y="0" width="160" height="102"></rect>
    </defs>
    <g id="Page-1" stroke="none" stroke-width="1" fill="none" fill-rule="evenodd">
        <g id="r" transform="translate(-777.000000, -73.000000)">
            <g id="card-Invision" transform="translate(785.000000, 79.000000)">
                <g id="Rectangle-Copy-2" fill="black" fill-opacity="1">
                    <use filter="url(#filter-2)" xlink:href="#path-1"></use>
                </g>
                <mask id="mask-4" fill="white">
                    <use xlink:href="#path-3"></use>
                </mask>
                <use id="Rectangle-Copy-3" fill="#FFFFFF" xlink:href="#path-3"></use>
                <g id="invision-seeklogo.com" mask="url(#mask-4)" fill-rule="nonzero">
                    <g transform="translate(108.000000, 50.000000)" id="Path">
                        <path d="M36.3739394,0 L3.62606061,0 C1.62348484,0 0,1.62348484 0,3.62606061 L0,36.3739394 C0,38.3765152 1.62348484,40 3.62606061,40 L36.3739394,40 C38.3765152,40 40,38.3765152 40,36.3739394 L40,3.62606061 C40,1.62348484 38.3765152,0 36.3739394,0" fill="#DC395F"></path>
                        <path d="M13.3332582,12.5252525 C14.6525247,12.5252525 15.7575758,11.4757646 15.7575758,10.1003999 C15.7575758,8.72595051 14.6525247,7.67676768 13.3332582,7.67676768 C12.0139916,7.67676768 10.9090909,8.72595051 10.9090909,10.1003999 C10.9090909,11.4757646 12.0139916,12.5252525 13.3332582,12.5252525" fill="#FFFFFF"></path>
                        <path d="M8.27534606,25.4212087 C8.13235207,26.0262676 8.0604776,26.6796473 8.0604776,27.2126754 C8.0604776,29.3128241 9.20639235,30.7070707 11.6416688,30.7070707 C13.6614021,30.7070707 15.2986604,29.5149605 16.4774925,27.590387 L15.7576907,30.4615657 L19.7681659,30.4615657 L22.0602974,21.3250559 C22.6331792,19.0116658 23.7433077,17.8110021 25.4266201,17.8110021 C26.7516171,17.8110021 27.5753046,18.6299024 27.5753046,19.981831 C27.5753046,20.3736487 27.5393674,20.8002812 27.3962224,21.2630793 L26.2142193,25.4626264 C26.0351372,26.0676854 25.9638667,26.6731945 25.9638667,27.2420879 C25.9638667,29.2358411 27.1452657,30.6941652 29.6163284,30.6941652 C31.7292266,30.6941652 33.4122371,29.3423867 34.3434343,26.1035507 L32.7679337,25.498942 C31.9798813,27.6688705 31.2994898,28.0611384 30.7623942,28.0611384 C30.2251475,28.0611384 29.9385556,27.7054862 29.9385556,26.9940318 C29.9385556,26.6737948 30.0104301,26.3182927 30.1176378,25.8903095 L31.2638545,21.7988085 C31.5501445,20.8380974 31.6578052,19.9861828 31.6578052,19.2034479 C31.6578052,16.142738 29.7954106,14.5454545 27.5393674,14.5454545 C25.4266201,14.5454545 23.2777845,16.439415 22.2037443,18.432718 L22.9913436,14.854887 L16.8678192,14.854887 L16.0081943,18.0062355 L18.8732078,18.0062355 L17.1091121,25.0259395 C15.7235655,28.0866494 13.1786653,28.1363206 12.859307,28.0651902 C12.3348951,27.9476898 11.9995312,27.7497552 11.9995312,27.0725154 C11.9995312,26.6817482 12.0711037,26.120508 12.2501859,25.4437184 L14.9362681,14.854887 L8.13235207,14.854887 L7.27272727,18.0062355 L10.1016524,18.0062355 L8.27534606,25.4212087" fill="#FFFFFF"></path>
                    </g>
                </g>
                <text id="InVision" mask="url(#mask-4)" font-family="IBMPlexSans, IBM Plex Sans" font-size="16" font-weight="normal" line-spacing="24" fill="#000000" fill-opacity="0.87">
                    <tspan x="12" y="28">InVision</tspan>
                </text>
            </g>
        </g>
    </g>
</svg>