<svg xmlns="http://www.w3.org/2000/svg" width="510" height="939" viewBox="0 0 510 939">
  <g fill="none" fill-rule="evenodd" transform="translate(-297 -204)">
    <g transform="translate(125.26 544.796)">
      <path fill="#EDB98A" d="M48.2067404,557.465185 C47.0470151,557.502699 47.4125714,557.164226 47.8386278,557.082378 C47.961332,557.209412 48.0840362,557.338151 48.2067404,557.465185 Z M82.4488883,582.934208 C114.852177,586.777623 147.295515,583.261597 179.539459,579.736193 C244.862416,574.890999 309.726086,589.006258 375.177712,584.701599 C456.973712,581.252926 538.992114,574.776754 620.51629,585.690588 C643.065747,586.208954 679.031719,592.297204 670.853994,557.372254 C660.112262,467.579735 645.750755,378.239933 630.366712,289.138853 C617.328536,239.187239 616.3861,152.787122 580.684283,118.050592 C575.46424,113.282131 556.742473,97.8573139 551.79255,95.7864052 C527.184388,86.6195011 482.821698,79.466383 464.51917,60.0344561 C449.694114,34.9363047 456.590262,0.687448238 433.538057,-19.5186183 C413.334466,-36.022797 369.237635,-32.5340534 347.637431,-20.1409993 C330.595177,-9.08478529 327.925508,12.3899153 317.30648,28.2708605 C314.687086,32.0759101 308.465037,41.2486158 304.951777,44.2079094 C296.399421,52.4461608 266.361474,61.1012306 257.686967,62.6912861 C208.73565,72.7278184 184.32748,78.9292597 145.826473,111.475521 C45.2277545,214.232321 59.4878602,395.976085 31.6518954,530.34728 C30.5126207,545.119023 21.5373179,565.164805 37.5502193,574.675298 C51.341663,581.285324 67.5573672,580.56575 82.4488883,582.934208 Z"/>
      <path fill="#000" d="M453.296835,25.8739108 C453.416982,25.5243544 453.978525,25.464674 454.063736,25.8739108 C455.43649,32.1565481 458.009018,39.04622 460.616482,44.9375247 C463.266553,50.9055612 466.888032,56.387629 471.463877,61.0426975 C481.050144,70.7961744 493.380215,75.2466245 506.903243,75.2551502 L507.227046,75.263676 C507.289534,74.8089684 507.359597,74.3542609 507.42461,73.8995534 L507.516764,73.217492 C508.752328,63.873252 519.838313,64.1460765 522.00268,71.1968854 C523.101905,71.5464418 524.20113,71.8959982 525.291835,72.2626062 L525.509838,72.341064 C527.345912,73.0403151 533.565486,76.1392904 534.70768,75.3148306 C537.221412,73.5065155 540.093032,75.5791294 541.047398,77.8896121 C542.607119,81.6725657 542.867753,86.3481493 543.374249,90.4523649 L543.441835,90.9843368 L543.518525,91.6237693 C579.094229,100.875078 599.059229,136.487205 609.250497,169.294354 C614.772187,187.079103 618.385144,205.426553 622.015144,223.671693 C625.900778,243.187172 629.480504,262.753806 633.271553,282.277812 C640.744581,320.753743 647.817116,359.316638 653.960849,398.023617 L655.742251,409.264293 C661.370654,444.856851 666.852908,480.428804 671.463243,516.182215 C673.951412,535.458973 676.286201,554.752782 678.535778,574.063643 C678.939112,577.507485 679.338658,580.952084 679.734669,584.399209 L680.326067,589.572013 C680.853525,594.21003 681.748243,598.796892 679.45606,603.136507 C674.488243,612.548101 659.439933,612.479895 658.587821,600.425313 C658.41825,598.029573 659.226905,596.196533 660.564722,594.917668 L660.546196,594.71526 C660.533004,594.594636 660.51956,594.505589 660.514447,594.465803 C660.070497,592.070062 659.951201,589.53791 659.678525,587.115739 C659.082046,581.949977 658.502609,576.783363 657.914652,571.608223 C656.781342,561.751584 655.639511,551.896651 654.455074,542.04939 C652.06149,522.073519 649.529863,502.123226 646.84656,482.189984 L644.18645,462.480948 C635.290356,396.783929 626.018525,331.101001 613.817821,265.925392 C610.494581,248.183272 607.078461,230.466729 603.575426,212.758712 C600.252187,195.988529 596.519933,179.295078 590.947116,163.104648 C581.846553,136.65772 565.937609,111.890369 543.850849,94.5319082 C544.191694,97.8484314 544.438806,101.182006 544.754088,104.498529 C545.563595,113.01577 546.424229,121.524485 547.293384,130.0332 C550.454722,160.862371 554.740849,191.640388 562.051975,221.786646 C565.673454,236.724641 570.087398,251.465692 575.464229,265.865711 C578.114299,272.959149 581.002961,279.958803 584.172821,286.830571 C587.308595,293.625607 592.805574,300.88956 593.137046,308.460441 C593.290426,311.964531 589.626342,315.076435 586.235785,314.701302 C587.819863,328.649456 588.714581,342.742547 589.660426,356.656598 C591.040849,376.810658 592.140074,397.000525 593.750567,417.138386 C596.630708,453.210904 600.243666,489.232267 604.027046,525.219527 C604.776905,532.353889 605.592206,539.482794 606.398782,546.610607 L607.074054,552.595495 C607.528828,556.475294 608.215852,561.12512 606.157328,564.56594 C607.997891,569.007864 609.259018,573.569149 609.992687,578.326527 C610.920637,584.243409 607.538602,590.876455 600.635637,590.620682 C599.851694,590.594252 599.06775,590.526046 598.283806,590.441641 C591.88444,591.925124 585.502116,593.229566 578.855637,593.272195 C570.368595,593.331876 561.864511,593.16136 553.377468,593.10168 C536.958109,592.990845 520.537046,592.88001 504.116835,592.743598 C444.673454,592.266155 385.204511,592.291732 325.769652,591.336846 L301.989472,590.959186 C280.189122,590.608367 258.385717,590.204056 236.59606,589.410023 C221.590356,588.864374 206.585504,588.310199 191.587468,587.70487 L188.534029,587.588464 C175.3009,587.106065 162.052026,586.858383 148.964792,584.831686 C148.636729,584.776198 148.494829,584.435582 148.545654,584.136218 L148.564299,584.055842 L147.993384,583.927955 C147.66106,585.360284 140.758947,579.341093 140.810074,575.342508 C137.946975,571.616748 139.284792,565.665763 139.591553,561.351726 C139.889792,557.148523 140.264722,552.936794 140.597046,548.733591 C141.304299,539.755959 141.909299,530.769801 142.633595,521.792169 C145.556342,485.591765 148.078595,449.297577 149.714652,413.020441 C150.541201,394.732671 151.205849,376.436377 151.904581,358.148608 C152.219207,349.822213 152.657264,341.488554 153.47343,333.200605 L153.685497,331.129601 C154.580215,322.724048 154.495004,313.686735 157.588173,305.765446 C157.630778,305.655463 157.775637,305.655463 157.818243,305.765446 C160.945497,313.473591 161.243736,322.434172 161.874299,330.891732 C161.985074,330.857629 162.095849,330.840577 162.215144,330.815 C166.535356,328.76029 170.898173,326.910199 174.988313,324.369521 C175.542187,324.02849 176.079018,323.669555 176.62437,323.320851 C183.057821,303.626331 190.513806,284.255789 197.373313,264.689155 C219.536764,201.419442 231.773102,134.039457 234.482821,67.0448371 C217.576905,77.9495508 199.164636,86.433166 181.266139,95.5430698 L179.589722,96.3990511 C161.959511,105.419312 145.079159,115.658758 132.527539,131.303539 C121.586412,144.927714 114.437187,161.527381 107.748102,177.530245 C100.564792,194.726716 94.088736,212.230114 88.1665529,229.895502 C76.1517642,265.737825 66.8466938,302.458301 59.5866938,339.553911 C52.4204261,376.163552 47.299229,413.045165 43.873736,450.184257 C42.126905,469.12851 40.5334543,488.089814 39.1956374,507.076696 C38.5139473,516.685235 37.9089473,526.3023 37.3465529,535.92789 C37.0738769,540.60001 36.8693698,545.280656 36.5626092,549.952776 C36.3751445,552.646918 36.34106,555.425465 35.4548628,557.983195 C34.7135247,560.114637 33.4012712,561.897375 32.174229,563.781569 C29.9331726,567.217453 24.2751445,567.839834 22.1704261,563.781569 L21.2590746,562.023897 C20.0527557,559.683063 18.9511445,557.325859 18.7875388,554.624896 C18.6341585,552.067166 18.9494402,549.398601 19.0942994,546.831493 C19.3754966,541.640153 19.6992994,536.439436 20.0231022,531.247244 C20.7047923,520.325737 21.4631726,509.40423 22.3152853,498.491249 C24.0109895,476.631184 26.192398,454.830799 28.9362008,433.073043 C38.5906374,356.656598 52.5312008,280.640865 79.1341585,208.120695 C85.7124684,190.191008 93.0491585,172.405407 101.331694,155.192737 C109.341553,138.550441 119.473173,122.837453 134.180637,111.378823 C147.719004,100.828698 163.45623,93.7672356 179.092936,86.9132069 L181.046835,86.0572963 C198.574792,78.3926323 216.068666,70.1396903 234.372046,64.4444783 C233.963032,64.4956329 233.562539,64.5467875 233.214025,64.6661483 C232.81268,64.7940348 232.57494,64.273963 232.822053,63.9926127 C233.860778,62.8416342 234.295356,61.6565527 235.489166,60.5226258 C236.313329,59.7382553 237.170759,58.9975367 238.05273,58.2830092 L239.321953,57.2723957 C241.644005,55.4281461 244.085551,53.5437744 247.008877,52.9005905 C251.142475,51.9968593 253.170504,55.7567223 252.010778,58.6981117 C252.607257,57.922267 254.209229,58.1524627 254.626764,59.2181835 C268.226482,94.3102383 277.156623,131.457003 295.460004,164.613709 C308.974511,189.108236 327.107468,211.727094 351.17113,226.519299 C364.09768,234.465313 378.891208,240.569762 394.168736,241.533174 C407.88775,242.394276 421.086975,238.906385 432.75325,231.702965 C455.368321,217.746285 470.135433,193.243232 480.666694,169.498973 C492.246905,143.358973 500.512398,115.505294 505.36944,87.2679552 C489.980285,87.4810993 473.739018,80.4558678 463.505144,69.0057634 C458.119792,62.9780465 454.106342,55.6373616 452.069792,47.810708 C450.016201,39.9158482 450.672328,33.4277399 453.296835,25.8739108 Z M324.192987,5.36918669 C326.068487,2.01856047 330.226797,0.910210828 333.626727,2.27433346 C337.400734,3.7919199 338.534896,7.45799948 337.998065,11.1837594 C337.375171,15.5489519 334.57172,20.2645533 332.391163,24.0747183 C330.107502,28.064777 327.167713,31.740235 324.124818,35.1752663 C318.399473,41.6548488 312.271931,47.4949988 305.004262,52.2702806 C297.769825,57.01828 289.588692,60.5735246 281.179192,62.5600282 L279.179844,63.0268255 C272.638007,64.5234394 263.330702,66.2379613 257.881579,62.6802415 C257.618276,62.5088736 257.625945,62.1593172 257.881579,61.9888018 C260.829889,59.9340921 264.776023,59.5674841 268.166579,58.5963993 C271.864748,57.5306785 275.57229,56.3200197 279.107706,54.8015807 C286.087361,51.8005109 292.767924,47.8445553 298.714818,43.1212806 C304.68898,38.381807 310.465452,32.7292239 314.462713,26.2061599 C316.473699,22.9331182 318.186445,19.4963817 319.830171,16.0357731 C321.492642,12.5649336 322.326861,8.71128715 324.192987,5.36918669 Z"/>
    </g>
    <g transform="translate(316.986 153.464)">
      <path fill="#EDB98A" d="M335.144588,178.305919 C336.071431,169.67358 325.993243,146.644292 326.236433,151.315559 C310.078748,126.335916 278.546518,116.512528 251.340691,108.266406 C193.586447,89.1499329 148.487442,112.236856 107.908711,153.154567 C83.9519371,175.591827 61.1566934,200.655022 49.1306888,231.715242 C25.4723754,290.967614 60.9347612,358.530903 114.864288,386.836448 C119.2162,389.198085 123.958406,391.440361 128.102841,394.293083 C150.396399,407.207061 176.575046,411.674563 201.416998,417.295601 C247.891813,427.946841 306.259983,422.8706 333.648629,378.505921 C352.22546,347.020266 347.290232,308.851262 345.836193,273.90926 C343.651734,243.294086 339.817069,208.696866 335.144588,178.305919 Z"/>
      <path fill="#4A312C" d="M86.7276203,90.9304539 C116.837273,62.7084618 161.340208,49.029722 202.02948,51.4220521 C224.067093,52.7179686 245.30626,58.2546014 265.222338,67.766799 C271.450895,70.7414389 277.520443,74.223362 283.117216,78.3234031 C286.892615,80.0899419 290.583832,82.0014187 294.159406,84.0800006 C312.06704,94.4814357 325.910167,110.2362 334.770449,128.92468 C339.00008,137.844557 342.33781,147.250695 344.227998,156.942192 L344.532213,158.537589 C345.496804,163.400862 347.403295,169.808359 344.991235,174.359342 C343.392643,177.376611 340.042402,179.278709 336.870727,179.022936 C337.559482,181.819387 338.384288,184.614986 338.911483,187.429342 L340.347571,195.102532 C340.585659,196.381397 340.821857,197.660262 341.054277,198.939126 C342.44029,206.561162 343.715763,214.173819 344.736141,221.855534 C346.870431,237.850725 348.800646,253.879166 350.501276,269.933184 C351.720061,281.414549 352.862081,292.907756 353.971624,304.398003 L354.633807,311.291677 C355.773229,323.158691 356.66606,335.12972 355.891423,347.048742 C354.725641,364.928126 349.241109,381.240475 338.596016,394.510831 C339.610442,396.956873 339.952269,399.710696 340.715851,402.751837 C341.772793,406.960155 343.149453,411.080658 344.614546,415.165353 C345.299899,416.770755 345.986954,418.377009 346.666356,419.986674 L348.452867,424.25041 L348.452867,424.25041 L349.846935,427.04586 C351.357246,430.087232 352.818184,433.172624 353.746078,436.320337 C359.761206,439.540519 364.673476,444.794096 364.914115,451.992401 C365.126694,458.497561 361.759446,465.38638 356.070839,468.702051 C350.45791,471.978503 344.67917,470.688554 339.304329,468.187095 C334.618243,469.554627 329.602235,469.727701 324.960365,468.267237 C321.386492,471.510438 316.776934,473.750157 311.667391,474.354634 C303.964118,475.271987 296.650653,473.109795 289.584143,470.266472 L289.091529,470.067026 C288.870447,469.980916 288.649365,469.887132 288.436787,469.794202 C280.307775,469.402016 272.212777,466.178424 266.446791,460.467013 C264.568445,458.616922 262.944344,456.502532 261.634859,454.132368 C256.880748,445.511966 256.141824,434.93149 260.818556,426.380999 C259.815185,426.423627 258.80331,426.465404 257.799938,426.491834 C244.420417,426.874307 231.017556,426.18967 217.672469,425.307918 L214.526038,425.093866 C205.890505,424.470289 193.154743,423.002664 192.912403,412.270855 C192.87754,410.898207 194.289913,409.866589 195.582392,410.233197 C200.488709,411.622044 205.309995,413.805493 210.394879,414.589864 C217.044342,415.621481 223.931043,415.732316 230.649381,416.10745 L232.581224,416.215264 C246.128153,416.958316 260.160722,417.411505 273.488249,414.71775 C283.436084,412.714195 293.802274,409.064314 302.91765,404.545658 C311.667391,400.19837 319.617836,394.511684 326.029211,387.085741 C340.152943,370.750372 342.023636,347.705226 341.334881,327.038768 C340.501572,302.355821 337.609651,277.708683 335.977896,253.060692 L335.239436,241.987635 C334.630581,232.753708 334.074406,223.506732 333.843606,214.268455 C333.673543,207.524573 333.783234,200.763641 333.817246,194.019759 C333.834252,190.652081 333.792587,187.267352 333.869115,183.899674 C333.911631,182.006954 334.132713,180.156863 334.294273,178.305919 C333.545996,177.914586 332.848737,177.368085 332.219504,176.644247 C331.726322,176.073021 331.34368,175.467691 331.080082,174.853836 C327.908407,173.923675 326.437363,172.687439 324.3796,169.883314 C322.644958,167.521677 320.68073,165.339081 318.580452,163.292897 C314.107795,158.944756 308.997402,155.389511 303.597052,152.293806 C292.433267,145.891808 280.205738,141.611873 267.876171,138.099257 C248.998328,132.728024 229.390915,129.965676 210.233319,125.650785 C204.952863,133.034099 199.35779,140.196595 193.507623,147.128044 C175.250511,168.749387 154.316606,188.025293 131.884447,205.214091 C127.319106,208.718181 122.692542,212.171116 117.999654,215.52089 C111.816801,224.972768 105.568846,234.379605 99.2273068,243.723126 L96.5036915,247.723562 L96.4611757,247.800294 C96.0870371,248.37152 95.7290545,248.942747 95.3727726,249.513973 C94.6159922,250.724632 93.7656773,251.892662 92.8643434,253.026589 C92.2776261,253.886839 91.6824056,254.747941 91.078682,255.609896 C92.2351103,256.231425 93.2895009,256.93139 94.1143064,257.707235 C95.7979301,259.300701 95.5164758,261.833706 94.1143064,263.453601 C89.5906308,268.688422 82.4309787,261.867809 77.2270511,260.051821 C71.5894629,261.773173 66.8872211,268.500855 64.5488549,273.64104 C61.1816076,281.050783 59.8296068,289.984934 61.3516706,298.00768 C62.7453369,305.339839 66.5045793,311.675337 72.7543944,315.648344 C72.9754763,315.783903 73.2127141,315.929694 73.4431495,316.056728 C73.4516526,316.074632 73.4516526,316.074632 73.4601558,316.065254 C73.6727345,316.201666 73.8938164,316.330405 74.1148983,316.449766 C77.048485,318.069661 80.2711787,319.024547 83.6120662,319.25389 C85.5252749,319.391155 87.5243654,319.287993 89.4375741,319.519042 C91.4018017,319.748385 93.0174001,320.652969 94.9050993,321.130412 C96.988371,321.666682 98.3318687,324.472512 97.0215333,326.355854 C96.3761442,327.285162 95.7639175,328.172695 95.1083246,328.965591 C97.2604718,331.506269 99.1303144,334.311247 100.823292,336.978959 C103.135298,340.636513 105.185407,344.516589 107.0561,348.472545 C108.78224,350.748924 110.431851,353.067933 112.030443,355.438096 C121.086297,368.891755 128.016364,383.880053 132.276442,399.541033 C136.494005,415.032351 139.129981,432.43344 135.227035,448.24959 C131.630203,462.794547 121.128813,474.841455 105.585055,475.6173 C102.341104,475.777584 99.150722,475.414387 96.1508108,474.58824 C89.5608697,478.669524 81.3944448,480.722529 74.0859876,480.962103 C68.1728973,481.15649 61.7002998,479.908318 56.871361,476.323233 C51.1427891,478.822988 44.9286873,480.241676 39.5249357,480.564802 C33.4783459,480.926295 27.1503019,479.274001 22.221026,476.001812 C17.5306886,480.030237 12.4696139,483.430312 6.7189338,485.762962 C-3.1702293,489.76922 -14.9385885,489.274725 -23.9944429,483.281964 C-33.0673036,477.279824 -37.6845139,466.503256 -34.9124871,455.811092 C-32.3615422,445.956158 -24.3430721,438.726308 -16.8092814,432.501646 L-15.3207029,431.278426 C-7.86871774,425.179698 -0.342932027,419.277437 4.44008968,410.685063 C9.51647005,401.571018 11.3701567,390.982016 11.8718425,380.665839 C12.9602457,357.953197 8.35153854,335.445173 6.94851884,312.851892 C5.50298339,289.516869 6.31078261,266.112788 9.48245745,242.94828 C15.647241,197.950138 31.8712506,153.837822 61.2241234,118.761966 C65.4705963,113.686577 70.0163802,108.849057 74.8070547,104.2639 C78.468511,99.4621885 82.4258768,94.9614363 86.7276203,90.9304539 Z M477.172187,347.858519 C477.333747,347.867045 477.486804,347.87557 477.631357,347.935251 C477.728293,347.976174 477.809923,348.041652 477.885431,348.113269 L478.600716,348.830456 C478.855811,349.086229 478.838804,349.478415 478.600716,349.734188 C478.392003,349.966708 478.014631,349.973755 477.768864,349.793759 L477.699382,349.734188 L476.958656,348.990973 C476.877638,348.903028 476.808252,348.807778 476.772539,348.685518 C476.738526,348.566158 476.738526,348.429745 476.730023,348.301859 C476.72152,348.071663 476.942602,347.858519 477.172187,347.858519 Z M78.2215795,278.203177 C85.0411056,276.130564 93.2211356,281.059309 97.2856411,286.260027 C99.3263971,288.868911 99.9046112,292.441207 97.2856411,295.007463 C95.0578159,297.190059 90.7042033,297.589918 88.5529064,295.007463 C86.1125024,292.066074 84.1227654,287.989905 80.636474,286.106563 C76.8525724,284.060379 71.7846952,284.571925 70.8918645,289.558646 C70.7388078,290.403549 69.5313605,290.121346 69.4803416,289.363406 C69.1487188,284.316152 73.5618535,279.609076 78.2215795,278.203177 Z"/>
    </g>
    <path fill="#000" d="M124.908272,205.408353 C119.180136,203.070289 114.06919,199.170244 110.332595,194.188189 C109.033519,192.456222 108.69669,190.627292 108.969208,188.954501 C109.275635,187.073567 110.387819,185.368834 111.904589,184.225352 C113.426057,183.078328 115.32922,182.512645 117.169182,182.801014 C118.768001,183.05159 120.359549,183.927458 121.61914,185.743975 L121.8823,186.107235 C124.10377,189.114232 126.99855,191.581437 130.296949,193.171694 C133.47607,194.704442 137.031595,195.419835 140.710984,195.003819 C147.718617,194.211792 152.54863,190.419926 157.682406,185.270635 C158.318753,184.620524 158.955507,183.950033 159.595348,183.268749 C159.99942,182.651168 160.560171,182.254249 161.182757,182.045992 C161.874028,181.81476 162.656017,181.827843 163.372259,182.077931 C164.063077,182.319143 164.680635,182.776229 165.094724,183.38458 C165.488282,183.962768 165.711417,184.677042 165.639015,185.498633 C165.169112,190.83503 162.3807,195.597537 158.419877,199.337111 C154.020876,203.490386 148.189681,206.363649 142.699865,207.371392 C136.651699,208.48146 130.48878,207.68616 124.908272,205.408353 L124.908272,205.408353 Z M145.553033,123.084065 C151.987659,126.99743 161.792052,136.122636 154.869876,145.824346 C146.721813,154.378664 134.990442,144.570554 129.209425,140.134728 C123.848996,136.696937 117.826253,145.538677 122.799662,149.552877 C164.573409,180.497347 181.526079,124.107355 148.807577,118.482906 C145.205152,117.863116 143.867203,121.873422 145.553033,123.084065 Z M70.6940796,87.0876352 C71.4050214,78.2581164 84.8451148,76.2530912 86.1820796,84.9902967 C87.3792979,92.8169503 85.9699035,100.006729 82.4464176,107.053275 C79.0797204,113.78522 70.6178007,110.644451 69.9778641,104.514425 C69.1200556,96.2973798 70.2518331,92.5801014 70.6940796,87.0876352 Z M173.00188,83.1786566 C174.875676,80.7232358 177.581134,79.0470701 180.82257,79.9942828 C190.94993,82.9552815 187.964979,97.3408072 184.408261,104.343019 C182.475669,108.145511 176.228831,109.109775 173.405782,105.761707 C168.804373,100.301806 166.60081,89.3982032 172.450563,84.0201497 C172.609056,83.7422097 172.785444,83.461712 173.00188,83.1786566 Z M82.3037739,48.4523571 L83.9035056,48.1722047 C88.8524047,47.3158384 95.0057915,46.4929655 98.5066965,50.4738164 C100.36345,52.5847962 101.002535,56.5083539 98.5066965,58.5289605 C94.116612,62.0842052 89.2629782,60.7064413 84.0020345,61.0074008 C79.6664852,61.2563532 75.4996542,61.9742228 71.32345,63.1686826 C62.1615345,65.7886507 54.6961754,70.5716057 46.8712246,75.8234778 C45.8444289,76.5123598 44.7963303,75.1985391 45.2862951,74.2376853 C49.8033444,65.3853819 58.5570979,58.1137557 67.3253373,53.6812097 C72.0051401,51.3153095 77.1263373,49.3526781 82.3037739,48.4523571 Z M163.769986,44.4869273 L164.994412,44.7376537 C178.319099,47.5243931 195.630987,53.0911339 201.94087,66.1862463 C202.181305,68.0379416 201.927262,68.4347969 201.72068,68.6940795 L201.651899,68.78036 C201.481674,69.0017722 201.345849,69.3069876 200.54368,69.5590066 C200.321079,69.5059405 200.096261,69.4497364 199.869063,69.3901635 C196.976723,68.6317747 194.688323,67.5869873 192.472909,66.5028957 L190.070838,65.3188378 C187.283957,63.9516301 184.472469,62.6341824 181.492937,61.6615927 C175.134361,59.5864681 168.594018,58.1246724 161.952345,57.3441066 C160.512814,57.1750692 159.126636,56.6889632 158.03304,55.8558566 C156.994999,55.0650714 156.202003,53.9702108 155.84044,52.5149025 C155.371856,50.6315011 155.506517,49.2056117 156.516493,47.5065079 C157.275933,46.2305173 158.362569,45.346089 159.610303,44.8382202 C160.882314,44.32047 162.330485,44.1984106 163.769986,44.4869273 Z" transform="translate(452.472 312.043)"/>
    <path fill="#000" d="M250.85524,27.8983541 C249.719374,24.5033939 243.874733,24.799238 244.234325,28.7952647 C244.645895,33.3608127 243.083973,38.4524004 238.712635,40.6690997 C234.135085,42.9898133 228.984916,40.9035583 226.192543,36.9220253 C223.764874,33.4614167 222.090473,29.6972908 219.035649,26.6791695 C216.195557,23.8724871 212.741092,21.707795 208.961973,20.422962 C206.018775,19.4228896 202.965656,19.1568857 200.004564,19.4851277 C192.625268,17.8166352 184.07517,21.6114539 179.476318,27.3680514 C179.179782,27.7389222 178.90455,28.120024 178.638691,28.5045361 C178.182811,27.8838603 177.705627,27.2691525 177.200325,26.6629705 C175.897444,25.1010501 174.280135,24.7659875 172.819613,25.1914232 C164.502142,19.0025693 152.846092,18.1823906 143.399571,23.7676202 C135.831106,28.242795 129.570635,34.838328 120.26386,35.3515791 C112.892233,35.7582582 104.862775,31.5499399 104.342987,23.4444937 C104.070311,19.2123032 98.3066204,15.684341 95.0728528,19.6027833 C88.2746979,27.842084 86.9147261,38.7866104 90.6759514,48.7489686 C94.6450923,59.260386 102.731642,66.6650142 112.970627,71.0208283 C124.027642,75.7244937 136.984867,77.3580305 148.945973,76.9854545 C160.870437,76.6137311 171.712719,72.0260162 178.900289,62.2665713 C179.758367,61.1019516 180.512487,59.9185752 181.173726,58.7215576 C188.152529,67.6122269 199.091951,71.3490703 210.234177,71.617632 C221.891078,71.8972771 235.671444,69.8502406 243.913078,60.7924663 C251.85562,52.0620814 254.596867,39.0790442 250.85524,27.8983541" transform="translate(421.796 441.634)"/>
    <g transform="translate(336.585 393.038)">
      <path fill="#FFF" d="M335.099615,59.9840531 C333.493383,39.621965 307.83201,30.9964471 295.05032,28.4387172 C252.488996,18.4277622 216.27932,44.1124862 165.529193,44.6376735 C160.407144,44.7178157 145.759327,43.8533029 138.947538,42.0535136 C104.3867,34.1961673 69.8616507,25.8383584 35.9509746,15.5332644 C30.9652634,16.7012945 29.4902563,23.2124223 32.913193,26.9219833 C65.3923197,38.4462618 115.081566,48.7658496 141.321524,49.9407002 C140.817925,83.8561992 122.923559,117.959265 98.2122915,136.715951 C137.514285,180.201623 229.175193,194.502744 283.119038,171.676709 C309.654679,163.708528 337.655954,92.3819657 335.099615,59.9840531"/>
      <path fill="#000" d="M33.2086204,16.5596815 C31.7472472,16.5025588 32.5993599,12.2396756 35.8910711,12.8475628 C78.3637754,22.7860487 131.279973,41.7166606 174.936261,41.5776906 C207.051536,40.525611 235.828233,22.6300272 268.120747,22.52175 C289.828318,22.9378074 317.508346,26.0266926 332.699811,43.4550644 C352.73724,107.038526 307.615318,193.52049 236.619846,194.020953 L223.182224,193.048179 C177.378119,189.671787 127.198643,184.269735 97.6752049,145.388276 L97.4451345,145.586074 L97.4451345,145.586074 C93.0303387,142.622517 93.2765993,136.222224 97.0284514,132.930426 L97.1400782,133.106057 L97.1400782,133.106057 C97.2116556,132.990106 97.2909021,132.879271 97.3675923,132.765878 L97.3198739,132.616678 L97.3198739,132.616678 C98.7633528,131.100796 100.404522,129.682961 101.896571,128.413475 L101.90424,128.438199 L101.90424,128.438199 C124.072804,109.958601 138.547642,82.015401 139.381008,53.0798022 C132.041761,55.0969985 8.73594437,29.5196991 30.7468669,23.2779855 C46.4905007,28.6031792 62.3270148,33.4125641 78.4830711,37.2406332 C78.754043,37.088022 79.1426063,37.1280931 79.2917261,37.4290526 C99.0556275,42.2955601 119.218318,45.0766652 139.407423,47.3283201 C139.38612,46.3632033 139.34948,45.3980866 139.300057,44.4312646 C103.402254,37.4392836 68.2100007,27.0583103 33.2086204,16.5596815 Z M323.883853,42.3646189 C250.253649,5.14879563 213.704832,60.130611 142.494627,44.9922601 C149.944649,78.2478648 131.548388,114.099565 106.561888,135.828334 C142.867001,167.26795 158.579958,172.028738 206.204536,177.131409 L212.426153,177.872643 C221.780501,178.981064 231.222642,180.014979 240.606029,180.176813 C289.278705,176.632652 326.05674,125.965727 331.560536,80.0587376 L331.590365,78.7905845 C331.837069,67.1400275 331.302226,54.8077806 326.143656,44.134568 C325.19355,43.8037682 324.367853,43.2078172 323.883853,42.3646189 Z M221.377936,71.5787545 C223.922344,71.005823 226.518732,73.7835177 224.941471,76.2159189 C219.844985,84.0809384 207.381133,87.1280474 198.66402,88.3642835 C188.569042,89.7957597 178.78338,88.6669482 169.193704,85.221686 C168.67988,85.0366768 168.71652,84.1278301 169.331746,84.2011517 C178.437422,85.2856292 187.824295,84.4918804 196.671781,82.0807936 C205.642823,80.3321589 212.886633,74.3624172 221.377936,71.5787545 Z M290.560085,65.9134679 C290.517847,64.418901 297.861354,68.7431698 299.022784,69.3254796 C307.992122,74.7137641 318.374263,75.108507 328.266439,77.2237497 C330.572256,78.1087243 330.568847,81.0415879 328.265587,81.9265625 C315.919326,85.2115403 297.18222,76.5902853 290.560085,65.9134679 Z"/>
    </g>
  </g>
</svg>
